G04 #@! TF.GenerationSoftware,KiCad,Pcbnew,(5.1.5)-3*
G04 #@! TF.CreationDate,2021-11-16T22:17:10+01:00*
G04 #@! TF.ProjectId,EnvSensor-v2,456e7653-656e-4736-9f72-2d76322e6b69,rev?*
G04 #@! TF.SameCoordinates,Original*
G04 #@! TF.FileFunction,Legend,Bot*
G04 #@! TF.FilePolarity,Positive*
%FSLAX46Y46*%
G04 Gerber Fmt 4.6, Leading zero omitted, Abs format (unit mm)*
G04 Created by KiCad (PCBNEW (5.1.5)-3) date 2021-11-16 22:17:10*
%MOMM*%
%LPD*%
G04 APERTURE LIST*
%ADD10C,0.200000*%
%ADD11C,0.120000*%
%ADD12C,0.150000*%
%ADD13C,0.100000*%
G04 APERTURE END LIST*
D10*
X94142857Y-56587142D02*
X94142857Y-56015714D01*
X94714285Y-55958571D01*
X94657142Y-56015714D01*
X94600000Y-56130000D01*
X94600000Y-56415714D01*
X94657142Y-56530000D01*
X94714285Y-56587142D01*
X94828571Y-56644285D01*
X95114285Y-56644285D01*
X95228571Y-56587142D01*
X95285714Y-56530000D01*
X95342857Y-56415714D01*
X95342857Y-56130000D01*
X95285714Y-56015714D01*
X95228571Y-55958571D01*
X94142857Y-56987142D02*
X95342857Y-57387142D01*
X94142857Y-57787142D01*
X92742857Y-56701428D02*
X92171428Y-56301428D01*
X92742857Y-56015714D02*
X91542857Y-56015714D01*
X91542857Y-56472857D01*
X91600000Y-56587142D01*
X91657142Y-56644285D01*
X91771428Y-56701428D01*
X91942857Y-56701428D01*
X92057142Y-56644285D01*
X92114285Y-56587142D01*
X92171428Y-56472857D01*
X92171428Y-56015714D01*
X92742857Y-57101428D02*
X91942857Y-57730000D01*
X91942857Y-57101428D02*
X92742857Y-57730000D01*
X89142857Y-55844285D02*
X89142857Y-56530000D01*
X90342857Y-56187142D02*
X89142857Y-56187142D01*
X90342857Y-56815714D02*
X89542857Y-57444285D01*
X89542857Y-56815714D02*
X90342857Y-57444285D01*
X84000000Y-50857142D02*
X84000000Y-52057142D01*
X84000000Y-51485714D02*
X84685714Y-51485714D01*
X84685714Y-50857142D02*
X84685714Y-52057142D01*
X85257142Y-50857142D02*
X85257142Y-52057142D01*
X85714285Y-52057142D01*
X85828571Y-52000000D01*
X85885714Y-51942857D01*
X85942857Y-51828571D01*
X85942857Y-51657142D01*
X85885714Y-51542857D01*
X85828571Y-51485714D01*
X85714285Y-51428571D01*
X85257142Y-51428571D01*
X86457142Y-50857142D02*
X86457142Y-52057142D01*
X86857142Y-51200000D01*
X87257142Y-52057142D01*
X87257142Y-50857142D01*
X87771428Y-51200000D02*
X88342857Y-51200000D01*
X87657142Y-50857142D02*
X88057142Y-52057142D01*
X88457142Y-50857142D01*
X89485714Y-50857142D02*
X88800000Y-50857142D01*
X89142857Y-50857142D02*
X89142857Y-52057142D01*
X89028571Y-51885714D01*
X88914285Y-51771428D01*
X88800000Y-51714285D01*
X90628571Y-50857142D02*
X89942857Y-50857142D01*
X90285714Y-50857142D02*
X90285714Y-52057142D01*
X90171428Y-51885714D01*
X90057142Y-51771428D01*
X89942857Y-51714285D01*
X91714285Y-52057142D02*
X91142857Y-52057142D01*
X91085714Y-51485714D01*
X91142857Y-51542857D01*
X91257142Y-51600000D01*
X91542857Y-51600000D01*
X91657142Y-51542857D01*
X91714285Y-51485714D01*
X91771428Y-51371428D01*
X91771428Y-51085714D01*
X91714285Y-50971428D01*
X91657142Y-50914285D01*
X91542857Y-50857142D01*
X91257142Y-50857142D01*
X91142857Y-50914285D01*
X91085714Y-50971428D01*
X92971428Y-50971428D02*
X92914285Y-50914285D01*
X92742857Y-50857142D01*
X92628571Y-50857142D01*
X92457142Y-50914285D01*
X92342857Y-51028571D01*
X92285714Y-51142857D01*
X92228571Y-51371428D01*
X92228571Y-51542857D01*
X92285714Y-51771428D01*
X92342857Y-51885714D01*
X92457142Y-52000000D01*
X92628571Y-52057142D01*
X92742857Y-52057142D01*
X92914285Y-52000000D01*
X92971428Y-51942857D01*
X93714285Y-52057142D02*
X93828571Y-52057142D01*
X93942857Y-52000000D01*
X94000000Y-51942857D01*
X94057142Y-51828571D01*
X94114285Y-51600000D01*
X94114285Y-51314285D01*
X94057142Y-51085714D01*
X94000000Y-50971428D01*
X93942857Y-50914285D01*
X93828571Y-50857142D01*
X93714285Y-50857142D01*
X93600000Y-50914285D01*
X93542857Y-50971428D01*
X93485714Y-51085714D01*
X93428571Y-51314285D01*
X93428571Y-51600000D01*
X93485714Y-51828571D01*
X93542857Y-51942857D01*
X93600000Y-52000000D01*
X93714285Y-52057142D01*
X94628571Y-51314285D02*
X95542857Y-51314285D01*
X96342857Y-52057142D02*
X96457142Y-52057142D01*
X96571428Y-52000000D01*
X96628571Y-51942857D01*
X96685714Y-51828571D01*
X96742857Y-51600000D01*
X96742857Y-51314285D01*
X96685714Y-51085714D01*
X96628571Y-50971428D01*
X96571428Y-50914285D01*
X96457142Y-50857142D01*
X96342857Y-50857142D01*
X96228571Y-50914285D01*
X96171428Y-50971428D01*
X96114285Y-51085714D01*
X96057142Y-51314285D01*
X96057142Y-51600000D01*
X96114285Y-51828571D01*
X96171428Y-51942857D01*
X96228571Y-52000000D01*
X96342857Y-52057142D01*
X97485714Y-52057142D02*
X97600000Y-52057142D01*
X97714285Y-52000000D01*
X97771428Y-51942857D01*
X97828571Y-51828571D01*
X97885714Y-51600000D01*
X97885714Y-51314285D01*
X97828571Y-51085714D01*
X97771428Y-50971428D01*
X97714285Y-50914285D01*
X97600000Y-50857142D01*
X97485714Y-50857142D01*
X97371428Y-50914285D01*
X97314285Y-50971428D01*
X97257142Y-51085714D01*
X97200000Y-51314285D01*
X97200000Y-51600000D01*
X97257142Y-51828571D01*
X97314285Y-51942857D01*
X97371428Y-52000000D01*
X97485714Y-52057142D01*
X98285714Y-50857142D02*
X98914285Y-51657142D01*
X98285714Y-51657142D02*
X98914285Y-50857142D01*
X133828571Y-50857142D02*
X133828571Y-52057142D01*
X134342857Y-51942857D02*
X134400000Y-52000000D01*
X134514285Y-52057142D01*
X134800000Y-52057142D01*
X134914285Y-52000000D01*
X134971428Y-51942857D01*
X135028571Y-51828571D01*
X135028571Y-51714285D01*
X134971428Y-51542857D01*
X134285714Y-50857142D01*
X135028571Y-50857142D01*
X136228571Y-50971428D02*
X136171428Y-50914285D01*
X136000000Y-50857142D01*
X135885714Y-50857142D01*
X135714285Y-50914285D01*
X135600000Y-51028571D01*
X135542857Y-51142857D01*
X135485714Y-51371428D01*
X135485714Y-51542857D01*
X135542857Y-51771428D01*
X135600000Y-51885714D01*
X135714285Y-52000000D01*
X135885714Y-52057142D01*
X136000000Y-52057142D01*
X136171428Y-52000000D01*
X136228571Y-51942857D01*
X112600000Y-52057142D02*
X112600000Y-51200000D01*
X112542857Y-51028571D01*
X112428571Y-50914285D01*
X112257142Y-50857142D01*
X112142857Y-50857142D01*
X113000000Y-52057142D02*
X113685714Y-52057142D01*
X113342857Y-50857142D02*
X113342857Y-52057142D01*
X114028571Y-51200000D02*
X114600000Y-51200000D01*
X113914285Y-50857142D02*
X114314285Y-52057142D01*
X114714285Y-50857142D01*
X115742857Y-52000000D02*
X115628571Y-52057142D01*
X115457142Y-52057142D01*
X115285714Y-52000000D01*
X115171428Y-51885714D01*
X115114285Y-51771428D01*
X115057142Y-51542857D01*
X115057142Y-51371428D01*
X115114285Y-51142857D01*
X115171428Y-51028571D01*
X115285714Y-50914285D01*
X115457142Y-50857142D01*
X115571428Y-50857142D01*
X115742857Y-50914285D01*
X115800000Y-50971428D01*
X115800000Y-51371428D01*
X115571428Y-51371428D01*
X118285714Y-55958571D02*
X118342857Y-56130000D01*
X118342857Y-56415714D01*
X118285714Y-56530000D01*
X118228571Y-56587142D01*
X118114285Y-56644285D01*
X118000000Y-56644285D01*
X117885714Y-56587142D01*
X117828571Y-56530000D01*
X117771428Y-56415714D01*
X117714285Y-56187142D01*
X117657142Y-56072857D01*
X117600000Y-56015714D01*
X117485714Y-55958571D01*
X117371428Y-55958571D01*
X117257142Y-56015714D01*
X117200000Y-56072857D01*
X117142857Y-56187142D01*
X117142857Y-56472857D01*
X117200000Y-56644285D01*
X117142857Y-57044285D02*
X118342857Y-57330000D01*
X117485714Y-57558571D01*
X118342857Y-57787142D01*
X117142857Y-58072857D01*
X118228571Y-59215714D02*
X118285714Y-59158571D01*
X118342857Y-58987142D01*
X118342857Y-58872857D01*
X118285714Y-58701428D01*
X118171428Y-58587142D01*
X118057142Y-58530000D01*
X117828571Y-58472857D01*
X117657142Y-58472857D01*
X117428571Y-58530000D01*
X117314285Y-58587142D01*
X117200000Y-58701428D01*
X117142857Y-58872857D01*
X117142857Y-58987142D01*
X117200000Y-59158571D01*
X117257142Y-59215714D01*
X118342857Y-60301428D02*
X118342857Y-59730000D01*
X117142857Y-59730000D01*
X118342857Y-60701428D02*
X117142857Y-60701428D01*
X118342857Y-61387142D02*
X117657142Y-60872857D01*
X117142857Y-61387142D02*
X117828571Y-60701428D01*
X107885714Y-55958571D02*
X107942857Y-56130000D01*
X107942857Y-56415714D01*
X107885714Y-56530000D01*
X107828571Y-56587142D01*
X107714285Y-56644285D01*
X107600000Y-56644285D01*
X107485714Y-56587142D01*
X107428571Y-56530000D01*
X107371428Y-56415714D01*
X107314285Y-56187142D01*
X107257142Y-56072857D01*
X107200000Y-56015714D01*
X107085714Y-55958571D01*
X106971428Y-55958571D01*
X106857142Y-56015714D01*
X106800000Y-56072857D01*
X106742857Y-56187142D01*
X106742857Y-56472857D01*
X106800000Y-56644285D01*
X106742857Y-57044285D02*
X107942857Y-57330000D01*
X107085714Y-57558571D01*
X107942857Y-57787142D01*
X106742857Y-58072857D01*
X106742857Y-58758571D02*
X106742857Y-58987142D01*
X106800000Y-59101428D01*
X106914285Y-59215714D01*
X107142857Y-59272857D01*
X107542857Y-59272857D01*
X107771428Y-59215714D01*
X107885714Y-59101428D01*
X107942857Y-58987142D01*
X107942857Y-58758571D01*
X107885714Y-58644285D01*
X107771428Y-58530000D01*
X107542857Y-58472857D01*
X107142857Y-58472857D01*
X106914285Y-58530000D01*
X106800000Y-58644285D01*
X106742857Y-58758571D01*
X110542857Y-56015714D02*
X109342857Y-56015714D01*
X110542857Y-56701428D01*
X109342857Y-56701428D01*
X110542857Y-57958571D02*
X109971428Y-57558571D01*
X110542857Y-57272857D02*
X109342857Y-57272857D01*
X109342857Y-57730000D01*
X109400000Y-57844285D01*
X109457142Y-57901428D01*
X109571428Y-57958571D01*
X109742857Y-57958571D01*
X109857142Y-57901428D01*
X109914285Y-57844285D01*
X109971428Y-57730000D01*
X109971428Y-57272857D01*
X110485714Y-58415714D02*
X110542857Y-58587142D01*
X110542857Y-58872857D01*
X110485714Y-58987142D01*
X110428571Y-59044285D01*
X110314285Y-59101428D01*
X110200000Y-59101428D01*
X110085714Y-59044285D01*
X110028571Y-58987142D01*
X109971428Y-58872857D01*
X109914285Y-58644285D01*
X109857142Y-58530000D01*
X109800000Y-58472857D01*
X109685714Y-58415714D01*
X109571428Y-58415714D01*
X109457142Y-58472857D01*
X109400000Y-58530000D01*
X109342857Y-58644285D01*
X109342857Y-58930000D01*
X109400000Y-59101428D01*
X109342857Y-59444285D02*
X109342857Y-60130000D01*
X110542857Y-59787142D02*
X109342857Y-59787142D01*
X113085714Y-55958571D02*
X113142857Y-56130000D01*
X113142857Y-56415714D01*
X113085714Y-56530000D01*
X113028571Y-56587142D01*
X112914285Y-56644285D01*
X112800000Y-56644285D01*
X112685714Y-56587142D01*
X112628571Y-56530000D01*
X112571428Y-56415714D01*
X112514285Y-56187142D01*
X112457142Y-56072857D01*
X112400000Y-56015714D01*
X112285714Y-55958571D01*
X112171428Y-55958571D01*
X112057142Y-56015714D01*
X112000000Y-56072857D01*
X111942857Y-56187142D01*
X111942857Y-56472857D01*
X112000000Y-56644285D01*
X111942857Y-57044285D02*
X113142857Y-57330000D01*
X112285714Y-57558571D01*
X113142857Y-57787142D01*
X111942857Y-58072857D01*
X113142857Y-58530000D02*
X111942857Y-58530000D01*
X111942857Y-58815714D01*
X112000000Y-58987142D01*
X112114285Y-59101428D01*
X112228571Y-59158571D01*
X112457142Y-59215714D01*
X112628571Y-59215714D01*
X112857142Y-59158571D01*
X112971428Y-59101428D01*
X113085714Y-58987142D01*
X113142857Y-58815714D01*
X113142857Y-58530000D01*
X113142857Y-59730000D02*
X111942857Y-59730000D01*
X111942857Y-60530000D02*
X111942857Y-60758571D01*
X112000000Y-60872857D01*
X112114285Y-60987142D01*
X112342857Y-61044285D01*
X112742857Y-61044285D01*
X112971428Y-60987142D01*
X113085714Y-60872857D01*
X113142857Y-60758571D01*
X113142857Y-60530000D01*
X113085714Y-60415714D01*
X112971428Y-60301428D01*
X112742857Y-60244285D01*
X112342857Y-60244285D01*
X112114285Y-60301428D01*
X112000000Y-60415714D01*
X111942857Y-60530000D01*
X86600000Y-56644285D02*
X86542857Y-56530000D01*
X86542857Y-56358571D01*
X86600000Y-56187142D01*
X86714285Y-56072857D01*
X86828571Y-56015714D01*
X87057142Y-55958571D01*
X87228571Y-55958571D01*
X87457142Y-56015714D01*
X87571428Y-56072857D01*
X87685714Y-56187142D01*
X87742857Y-56358571D01*
X87742857Y-56472857D01*
X87685714Y-56644285D01*
X87628571Y-56701428D01*
X87228571Y-56701428D01*
X87228571Y-56472857D01*
X87742857Y-57215714D02*
X86542857Y-57215714D01*
X87742857Y-57901428D01*
X86542857Y-57901428D01*
X87742857Y-58472857D02*
X86542857Y-58472857D01*
X86542857Y-58758571D01*
X86600000Y-58930000D01*
X86714285Y-59044285D01*
X86828571Y-59101428D01*
X87057142Y-59158571D01*
X87228571Y-59158571D01*
X87457142Y-59101428D01*
X87571428Y-59044285D01*
X87685714Y-58930000D01*
X87742857Y-58758571D01*
X87742857Y-58472857D01*
X119742857Y-56101428D02*
X119742857Y-56844285D01*
X120200000Y-56444285D01*
X120200000Y-56615714D01*
X120257142Y-56730000D01*
X120314285Y-56787142D01*
X120428571Y-56844285D01*
X120714285Y-56844285D01*
X120828571Y-56787142D01*
X120885714Y-56730000D01*
X120942857Y-56615714D01*
X120942857Y-56272857D01*
X120885714Y-56158571D01*
X120828571Y-56101428D01*
X119742857Y-57187142D02*
X120942857Y-57587142D01*
X119742857Y-57987142D01*
X119742857Y-58272857D02*
X119742857Y-59015714D01*
X120200000Y-58615714D01*
X120200000Y-58787142D01*
X120257142Y-58901428D01*
X120314285Y-58958571D01*
X120428571Y-59015714D01*
X120714285Y-59015714D01*
X120828571Y-58958571D01*
X120885714Y-58901428D01*
X120942857Y-58787142D01*
X120942857Y-58444285D01*
X120885714Y-58330000D01*
X120828571Y-58272857D01*
X114600000Y-56644285D02*
X114542857Y-56530000D01*
X114542857Y-56358571D01*
X114600000Y-56187142D01*
X114714285Y-56072857D01*
X114828571Y-56015714D01*
X115057142Y-55958571D01*
X115228571Y-55958571D01*
X115457142Y-56015714D01*
X115571428Y-56072857D01*
X115685714Y-56187142D01*
X115742857Y-56358571D01*
X115742857Y-56472857D01*
X115685714Y-56644285D01*
X115628571Y-56701428D01*
X115228571Y-56701428D01*
X115228571Y-56472857D01*
X115742857Y-57215714D02*
X114542857Y-57215714D01*
X115742857Y-57901428D01*
X114542857Y-57901428D01*
X115742857Y-58472857D02*
X114542857Y-58472857D01*
X114542857Y-58758571D01*
X114600000Y-58930000D01*
X114714285Y-59044285D01*
X114828571Y-59101428D01*
X115057142Y-59158571D01*
X115228571Y-59158571D01*
X115457142Y-59101428D01*
X115571428Y-59044285D01*
X115685714Y-58930000D01*
X115742857Y-58758571D01*
X115742857Y-58472857D01*
X130542857Y-55914285D02*
X130542857Y-56657142D01*
X131000000Y-56257142D01*
X131000000Y-56428571D01*
X131057142Y-56542857D01*
X131114285Y-56600000D01*
X131228571Y-56657142D01*
X131514285Y-56657142D01*
X131628571Y-56600000D01*
X131685714Y-56542857D01*
X131742857Y-56428571D01*
X131742857Y-56085714D01*
X131685714Y-55971428D01*
X131628571Y-55914285D01*
X130542857Y-57000000D02*
X131742857Y-57400000D01*
X130542857Y-57800000D01*
X130542857Y-58085714D02*
X130542857Y-58828571D01*
X131000000Y-58428571D01*
X131000000Y-58600000D01*
X131057142Y-58714285D01*
X131114285Y-58771428D01*
X131228571Y-58828571D01*
X131514285Y-58828571D01*
X131628571Y-58771428D01*
X131685714Y-58714285D01*
X131742857Y-58600000D01*
X131742857Y-58257142D01*
X131685714Y-58142857D01*
X131628571Y-58085714D01*
X133200000Y-56485714D02*
X133142857Y-56371428D01*
X133142857Y-56200000D01*
X133200000Y-56028571D01*
X133314285Y-55914285D01*
X133428571Y-55857142D01*
X133657142Y-55800000D01*
X133828571Y-55800000D01*
X134057142Y-55857142D01*
X134171428Y-55914285D01*
X134285714Y-56028571D01*
X134342857Y-56200000D01*
X134342857Y-56314285D01*
X134285714Y-56485714D01*
X134228571Y-56542857D01*
X133828571Y-56542857D01*
X133828571Y-56314285D01*
X134342857Y-57057142D02*
X133142857Y-57057142D01*
X134342857Y-57742857D01*
X133142857Y-57742857D01*
X134342857Y-58314285D02*
X133142857Y-58314285D01*
X133142857Y-58600000D01*
X133200000Y-58771428D01*
X133314285Y-58885714D01*
X133428571Y-58942857D01*
X133657142Y-59000000D01*
X133828571Y-59000000D01*
X134057142Y-58942857D01*
X134171428Y-58885714D01*
X134285714Y-58771428D01*
X134342857Y-58600000D01*
X134342857Y-58314285D01*
X136685714Y-55971428D02*
X136742857Y-56142857D01*
X136742857Y-56428571D01*
X136685714Y-56542857D01*
X136628571Y-56600000D01*
X136514285Y-56657142D01*
X136400000Y-56657142D01*
X136285714Y-56600000D01*
X136228571Y-56542857D01*
X136171428Y-56428571D01*
X136114285Y-56200000D01*
X136057142Y-56085714D01*
X136000000Y-56028571D01*
X135885714Y-55971428D01*
X135771428Y-55971428D01*
X135657142Y-56028571D01*
X135600000Y-56085714D01*
X135542857Y-56200000D01*
X135542857Y-56485714D01*
X135600000Y-56657142D01*
X136628571Y-57857142D02*
X136685714Y-57800000D01*
X136742857Y-57628571D01*
X136742857Y-57514285D01*
X136685714Y-57342857D01*
X136571428Y-57228571D01*
X136457142Y-57171428D01*
X136228571Y-57114285D01*
X136057142Y-57114285D01*
X135828571Y-57171428D01*
X135714285Y-57228571D01*
X135600000Y-57342857D01*
X135542857Y-57514285D01*
X135542857Y-57628571D01*
X135600000Y-57800000D01*
X135657142Y-57857142D01*
X136742857Y-58942857D02*
X136742857Y-58371428D01*
X135542857Y-58371428D01*
X139285714Y-55942857D02*
X139342857Y-56114285D01*
X139342857Y-56400000D01*
X139285714Y-56514285D01*
X139228571Y-56571428D01*
X139114285Y-56628571D01*
X139000000Y-56628571D01*
X138885714Y-56571428D01*
X138828571Y-56514285D01*
X138771428Y-56400000D01*
X138714285Y-56171428D01*
X138657142Y-56057142D01*
X138600000Y-56000000D01*
X138485714Y-55942857D01*
X138371428Y-55942857D01*
X138257142Y-56000000D01*
X138200000Y-56057142D01*
X138142857Y-56171428D01*
X138142857Y-56457142D01*
X138200000Y-56628571D01*
X139342857Y-57142857D02*
X138142857Y-57142857D01*
X138142857Y-57428571D01*
X138200000Y-57600000D01*
X138314285Y-57714285D01*
X138428571Y-57771428D01*
X138657142Y-57828571D01*
X138828571Y-57828571D01*
X139057142Y-57771428D01*
X139171428Y-57714285D01*
X139285714Y-57600000D01*
X139342857Y-57428571D01*
X139342857Y-57142857D01*
X139000000Y-58285714D02*
X139000000Y-58857142D01*
X139342857Y-58171428D02*
X138142857Y-58571428D01*
X139342857Y-58971428D01*
D11*
X140130000Y-54200000D02*
X140130000Y-52870000D01*
X140130000Y-52870000D02*
X138800000Y-52870000D01*
X137530000Y-52870000D02*
X129850000Y-52870000D01*
X129850000Y-55530000D02*
X129850000Y-52870000D01*
X137530000Y-55530000D02*
X129850000Y-55530000D01*
X137530000Y-55530000D02*
X137530000Y-52870000D01*
X74250000Y-54700000D02*
X71750000Y-54700000D01*
X73000000Y-53450000D02*
X73000000Y-55950000D01*
X73000000Y-140950000D02*
X73000000Y-138450000D01*
X75300000Y-135840000D02*
X68580000Y-135840000D01*
X68560000Y-135840000D02*
X68560000Y-58560000D01*
X68400000Y-58560000D02*
X75400000Y-58560000D01*
X82700000Y-135840000D02*
X89440000Y-135840000D01*
X89440000Y-135840000D02*
X89440000Y-58560000D01*
X89440000Y-58560000D02*
X82700000Y-58560000D01*
X75400000Y-58560000D02*
X75400000Y-54200000D01*
D12*
X140100000Y-116500000D02*
X140100000Y-81300000D01*
X163300000Y-116500000D02*
X140100000Y-116500000D01*
X163300000Y-81300000D02*
X163300000Y-116500000D01*
X140100000Y-81300000D02*
X163300000Y-81300000D01*
D11*
X96130000Y-55530000D02*
X96130000Y-54200000D01*
X94800000Y-55530000D02*
X96130000Y-55530000D01*
X93530000Y-55530000D02*
X93530000Y-52870000D01*
X93530000Y-52870000D02*
X85850000Y-52870000D01*
X93530000Y-55530000D02*
X85850000Y-55530000D01*
X85850000Y-55530000D02*
X85850000Y-52870000D01*
X121530000Y-55530000D02*
X121530000Y-54200000D01*
X120200000Y-55530000D02*
X121530000Y-55530000D01*
X118930000Y-55530000D02*
X118930000Y-52870000D01*
X118930000Y-52870000D02*
X106170000Y-52870000D01*
X118930000Y-55530000D02*
X106170000Y-55530000D01*
X106170000Y-55530000D02*
X106170000Y-52870000D01*
X50000000Y-122610000D02*
X50260000Y-122610000D01*
X52540000Y-122610000D02*
X54310000Y-122610000D01*
X54310000Y-122610000D02*
X54310000Y-122230000D01*
X54310000Y-114990000D02*
X52540000Y-114990000D01*
X50260000Y-114990000D02*
X50000000Y-114990000D01*
X54310000Y-114990000D02*
X54310000Y-115370000D01*
X51920000Y-134260000D02*
X51920000Y-134260000D01*
X49250000Y-134260000D02*
X51920000Y-134260000D01*
X49250000Y-134260000D02*
X49250000Y-134260000D01*
X51920000Y-134260000D02*
X49250000Y-134260000D01*
X51920000Y-136800000D02*
X51920000Y-136800000D01*
X49250000Y-136800000D02*
X51920000Y-136800000D01*
X49250000Y-136800000D02*
X49250000Y-136800000D01*
X51920000Y-136800000D02*
X49250000Y-136800000D01*
X49250000Y-133970000D02*
X49250000Y-133570000D01*
X48130000Y-133970000D02*
X49250000Y-133970000D01*
X48130000Y-133570000D02*
X48130000Y-133970000D01*
X49250000Y-133570000D02*
X48130000Y-133570000D01*
X49250000Y-137090000D02*
X49250000Y-133970000D01*
X49250000Y-133970000D02*
X45390000Y-133970000D01*
X49250000Y-137090000D02*
X45390000Y-137090000D01*
X45390000Y-133970000D02*
G75*
G03X45390000Y-137090000I0J-1560000D01*
G01*
X51920000Y-127060000D02*
X51920000Y-127060000D01*
X49250000Y-127060000D02*
X51920000Y-127060000D01*
X49250000Y-127060000D02*
X49250000Y-127060000D01*
X51920000Y-127060000D02*
X49250000Y-127060000D01*
X51920000Y-129600000D02*
X51920000Y-129600000D01*
X49250000Y-129600000D02*
X51920000Y-129600000D01*
X49250000Y-129600000D02*
X49250000Y-129600000D01*
X51920000Y-129600000D02*
X49250000Y-129600000D01*
X49250000Y-126770000D02*
X49250000Y-126370000D01*
X48130000Y-126770000D02*
X49250000Y-126770000D01*
X48130000Y-126370000D02*
X48130000Y-126770000D01*
X49250000Y-126370000D02*
X48130000Y-126370000D01*
X49250000Y-129890000D02*
X49250000Y-126770000D01*
X49250000Y-126770000D02*
X45390000Y-126770000D01*
X49250000Y-129890000D02*
X45390000Y-129890000D01*
X45390000Y-126770000D02*
G75*
G03X45390000Y-129890000I0J-1560000D01*
G01*
X57900000Y-112225000D02*
X57900000Y-110725000D01*
X55600000Y-112225000D02*
X53400000Y-112225000D01*
X55700000Y-102725000D02*
X53300000Y-102725000D01*
X57900000Y-104225000D02*
X57900000Y-102725000D01*
D12*
X156700000Y-101200000D02*
X156700000Y-116400000D01*
X145000000Y-101200000D02*
X156700000Y-101200000D01*
X145000000Y-116400000D02*
X145000000Y-101200000D01*
X156700000Y-116400000D02*
X145000000Y-116400000D01*
D13*
X152450000Y-108300000D02*
X152450000Y-108050000D01*
X149750000Y-108150000D02*
X149750000Y-108300000D01*
X149900000Y-108150000D02*
X149750000Y-108150000D01*
X149750000Y-110850000D02*
X149900000Y-110850000D01*
X149750000Y-110850000D02*
X149750000Y-110700000D01*
X152450000Y-110850000D02*
X152450000Y-110700000D01*
X152450000Y-110860000D02*
X152300000Y-110860000D01*
D12*
X157650000Y-96650000D02*
X147550000Y-96650000D01*
X157650000Y-96650000D02*
X157650000Y-86550000D01*
X147550000Y-86550000D02*
X157650000Y-86550000D01*
X147550000Y-96650000D02*
X147550000Y-86550000D01*
D11*
X55710000Y-128141422D02*
X55710000Y-128658578D01*
X54290000Y-128141422D02*
X54290000Y-128658578D01*
X150937221Y-111990000D02*
X151262779Y-111990000D01*
X150937221Y-113010000D02*
X151262779Y-113010000D01*
X153090000Y-109675279D02*
X153090000Y-109349721D01*
X154110000Y-109675279D02*
X154110000Y-109349721D01*
X120850000Y-54700000D02*
X118350000Y-54700000D01*
X119600000Y-53450000D02*
X119600000Y-55950000D01*
X119600000Y-140950000D02*
X119600000Y-138450000D01*
X121900000Y-135840000D02*
X115180000Y-135840000D01*
X115160000Y-135840000D02*
X115160000Y-58560000D01*
X115000000Y-58560000D02*
X122000000Y-58560000D01*
X129300000Y-135840000D02*
X136040000Y-135840000D01*
X136040000Y-135840000D02*
X136040000Y-58560000D01*
X136040000Y-58560000D02*
X129300000Y-58560000D01*
X122000000Y-58560000D02*
X122000000Y-54200000D01*
X97450000Y-54700000D02*
X94950000Y-54700000D01*
X96200000Y-53450000D02*
X96200000Y-55950000D01*
X96200000Y-140950000D02*
X96200000Y-138450000D01*
X98500000Y-135840000D02*
X91780000Y-135840000D01*
X91760000Y-135840000D02*
X91760000Y-58560000D01*
X91600000Y-58560000D02*
X98600000Y-58560000D01*
X105900000Y-135840000D02*
X112640000Y-135840000D01*
X112640000Y-135840000D02*
X112640000Y-58560000D01*
X112640000Y-58560000D02*
X105900000Y-58560000D01*
X98600000Y-58560000D02*
X98600000Y-54200000D01*
D12*
X141733333Y-53652380D02*
X141733333Y-54366666D01*
X141780952Y-54509523D01*
X141876190Y-54604761D01*
X142019047Y-54652380D01*
X142114285Y-54652380D01*
X141352380Y-53652380D02*
X140685714Y-53652380D01*
X141114285Y-54652380D01*
X79785714Y-142528571D02*
X79642857Y-142576190D01*
X79595238Y-142623809D01*
X79547619Y-142719047D01*
X79547619Y-142861904D01*
X79595238Y-142957142D01*
X79642857Y-143004761D01*
X79738095Y-143052380D01*
X80119047Y-143052380D01*
X80119047Y-142052380D01*
X79785714Y-142052380D01*
X79690476Y-142100000D01*
X79642857Y-142147619D01*
X79595238Y-142242857D01*
X79595238Y-142338095D01*
X79642857Y-142433333D01*
X79690476Y-142480952D01*
X79785714Y-142528571D01*
X80119047Y-142528571D01*
X79261904Y-142052380D02*
X78690476Y-142052380D01*
X78976190Y-143052380D02*
X78976190Y-142052380D01*
X77833333Y-143052380D02*
X78404761Y-143052380D01*
X78119047Y-143052380D02*
X78119047Y-142052380D01*
X78214285Y-142195238D01*
X78309523Y-142290476D01*
X78404761Y-142338095D01*
X141761904Y-116852380D02*
X141761904Y-117661904D01*
X141714285Y-117757142D01*
X141666666Y-117804761D01*
X141571428Y-117852380D01*
X141380952Y-117852380D01*
X141285714Y-117804761D01*
X141238095Y-117757142D01*
X141190476Y-117661904D01*
X141190476Y-116852380D01*
X140809523Y-116852380D02*
X140190476Y-116852380D01*
X140523809Y-117233333D01*
X140380952Y-117233333D01*
X140285714Y-117280952D01*
X140238095Y-117328571D01*
X140190476Y-117423809D01*
X140190476Y-117661904D01*
X140238095Y-117757142D01*
X140285714Y-117804761D01*
X140380952Y-117852380D01*
X140666666Y-117852380D01*
X140761904Y-117804761D01*
X140809523Y-117757142D01*
X97733333Y-53852380D02*
X97733333Y-54566666D01*
X97780952Y-54709523D01*
X97876190Y-54804761D01*
X98019047Y-54852380D01*
X98114285Y-54852380D01*
X97114285Y-54280952D02*
X97209523Y-54233333D01*
X97257142Y-54185714D01*
X97304761Y-54090476D01*
X97304761Y-54042857D01*
X97257142Y-53947619D01*
X97209523Y-53900000D01*
X97114285Y-53852380D01*
X96923809Y-53852380D01*
X96828571Y-53900000D01*
X96780952Y-53947619D01*
X96733333Y-54042857D01*
X96733333Y-54090476D01*
X96780952Y-54185714D01*
X96828571Y-54233333D01*
X96923809Y-54280952D01*
X97114285Y-54280952D01*
X97209523Y-54328571D01*
X97257142Y-54376190D01*
X97304761Y-54471428D01*
X97304761Y-54661904D01*
X97257142Y-54757142D01*
X97209523Y-54804761D01*
X97114285Y-54852380D01*
X96923809Y-54852380D01*
X96828571Y-54804761D01*
X96780952Y-54757142D01*
X96733333Y-54661904D01*
X96733333Y-54471428D01*
X96780952Y-54376190D01*
X96828571Y-54328571D01*
X96923809Y-54280952D01*
X120533333Y-51252380D02*
X120533333Y-51966666D01*
X120580952Y-52109523D01*
X120676190Y-52204761D01*
X120819047Y-52252380D01*
X120914285Y-52252380D01*
X119533333Y-52252380D02*
X120104761Y-52252380D01*
X119819047Y-52252380D02*
X119819047Y-51252380D01*
X119914285Y-51395238D01*
X120009523Y-51490476D01*
X120104761Y-51538095D01*
X52933333Y-123452380D02*
X52933333Y-124166666D01*
X52980952Y-124309523D01*
X53076190Y-124404761D01*
X53219047Y-124452380D01*
X53314285Y-124452380D01*
X52552380Y-123452380D02*
X51933333Y-123452380D01*
X52266666Y-123833333D01*
X52123809Y-123833333D01*
X52028571Y-123880952D01*
X51980952Y-123928571D01*
X51933333Y-124023809D01*
X51933333Y-124261904D01*
X51980952Y-124357142D01*
X52028571Y-124404761D01*
X52123809Y-124452380D01*
X52409523Y-124452380D01*
X52504761Y-124404761D01*
X52552380Y-124357142D01*
X54214285Y-139252380D02*
X54214285Y-138252380D01*
X53976190Y-138252380D01*
X53833333Y-138300000D01*
X53738095Y-138395238D01*
X53690476Y-138490476D01*
X53642857Y-138680952D01*
X53642857Y-138823809D01*
X53690476Y-139014285D01*
X53738095Y-139109523D01*
X53833333Y-139204761D01*
X53976190Y-139252380D01*
X54214285Y-139252380D01*
X52690476Y-139252380D02*
X53261904Y-139252380D01*
X52976190Y-139252380D02*
X52976190Y-138252380D01*
X53071428Y-138395238D01*
X53166666Y-138490476D01*
X53261904Y-138538095D01*
X52357142Y-138252380D02*
X51738095Y-138252380D01*
X52071428Y-138633333D01*
X51928571Y-138633333D01*
X51833333Y-138680952D01*
X51785714Y-138728571D01*
X51738095Y-138823809D01*
X51738095Y-139061904D01*
X51785714Y-139157142D01*
X51833333Y-139204761D01*
X51928571Y-139252380D01*
X52214285Y-139252380D01*
X52309523Y-139204761D01*
X52357142Y-139157142D01*
X54214285Y-132052380D02*
X54214285Y-131052380D01*
X53976190Y-131052380D01*
X53833333Y-131100000D01*
X53738095Y-131195238D01*
X53690476Y-131290476D01*
X53642857Y-131480952D01*
X53642857Y-131623809D01*
X53690476Y-131814285D01*
X53738095Y-131909523D01*
X53833333Y-132004761D01*
X53976190Y-132052380D01*
X54214285Y-132052380D01*
X52690476Y-132052380D02*
X53261904Y-132052380D01*
X52976190Y-132052380D02*
X52976190Y-131052380D01*
X53071428Y-131195238D01*
X53166666Y-131290476D01*
X53261904Y-131338095D01*
X52071428Y-131052380D02*
X51976190Y-131052380D01*
X51880952Y-131100000D01*
X51833333Y-131147619D01*
X51785714Y-131242857D01*
X51738095Y-131433333D01*
X51738095Y-131671428D01*
X51785714Y-131861904D01*
X51833333Y-131957142D01*
X51880952Y-132004761D01*
X51976190Y-132052380D01*
X52071428Y-132052380D01*
X52166666Y-132004761D01*
X52214285Y-131957142D01*
X52261904Y-131861904D01*
X52309523Y-131671428D01*
X52309523Y-131433333D01*
X52261904Y-131242857D01*
X52214285Y-131147619D01*
X52166666Y-131100000D01*
X52071428Y-131052380D01*
X55338095Y-113652380D02*
X55338095Y-112652380D01*
X54957142Y-112652380D01*
X54861904Y-112700000D01*
X54814285Y-112747619D01*
X54766666Y-112842857D01*
X54766666Y-112985714D01*
X54814285Y-113080952D01*
X54861904Y-113128571D01*
X54957142Y-113176190D01*
X55338095Y-113176190D01*
X53814285Y-113652380D02*
X54385714Y-113652380D01*
X54100000Y-113652380D02*
X54100000Y-112652380D01*
X54195238Y-112795238D01*
X54290476Y-112890476D01*
X54385714Y-112938095D01*
X151761904Y-116852380D02*
X151761904Y-117661904D01*
X151714285Y-117757142D01*
X151666666Y-117804761D01*
X151571428Y-117852380D01*
X151380952Y-117852380D01*
X151285714Y-117804761D01*
X151238095Y-117757142D01*
X151190476Y-117661904D01*
X151190476Y-116852380D01*
X150571428Y-117280952D02*
X150666666Y-117233333D01*
X150714285Y-117185714D01*
X150761904Y-117090476D01*
X150761904Y-117042857D01*
X150714285Y-116947619D01*
X150666666Y-116900000D01*
X150571428Y-116852380D01*
X150380952Y-116852380D01*
X150285714Y-116900000D01*
X150238095Y-116947619D01*
X150190476Y-117042857D01*
X150190476Y-117090476D01*
X150238095Y-117185714D01*
X150285714Y-117233333D01*
X150380952Y-117280952D01*
X150571428Y-117280952D01*
X150666666Y-117328571D01*
X150714285Y-117376190D01*
X150761904Y-117471428D01*
X150761904Y-117661904D01*
X150714285Y-117757142D01*
X150666666Y-117804761D01*
X150571428Y-117852380D01*
X150380952Y-117852380D01*
X150285714Y-117804761D01*
X150238095Y-117757142D01*
X150190476Y-117661904D01*
X150190476Y-117471428D01*
X150238095Y-117376190D01*
X150285714Y-117328571D01*
X150380952Y-117280952D01*
X151846904Y-106487380D02*
X151846904Y-107296904D01*
X151799285Y-107392142D01*
X151751666Y-107439761D01*
X151656428Y-107487380D01*
X151465952Y-107487380D01*
X151370714Y-107439761D01*
X151323095Y-107392142D01*
X151275476Y-107296904D01*
X151275476Y-106487380D01*
X150323095Y-106487380D02*
X150799285Y-106487380D01*
X150846904Y-106963571D01*
X150799285Y-106915952D01*
X150704047Y-106868333D01*
X150465952Y-106868333D01*
X150370714Y-106915952D01*
X150323095Y-106963571D01*
X150275476Y-107058809D01*
X150275476Y-107296904D01*
X150323095Y-107392142D01*
X150370714Y-107439761D01*
X150465952Y-107487380D01*
X150704047Y-107487380D01*
X150799285Y-107439761D01*
X150846904Y-107392142D01*
X153361904Y-97052380D02*
X153361904Y-97861904D01*
X153314285Y-97957142D01*
X153266666Y-98004761D01*
X153171428Y-98052380D01*
X152980952Y-98052380D01*
X152885714Y-98004761D01*
X152838095Y-97957142D01*
X152790476Y-97861904D01*
X152790476Y-97052380D01*
X151885714Y-97385714D02*
X151885714Y-98052380D01*
X152123809Y-97004761D02*
X152361904Y-97719047D01*
X151742857Y-97719047D01*
X58242857Y-128852380D02*
X58576190Y-128376190D01*
X58814285Y-128852380D02*
X58814285Y-127852380D01*
X58433333Y-127852380D01*
X58338095Y-127900000D01*
X58290476Y-127947619D01*
X58242857Y-128042857D01*
X58242857Y-128185714D01*
X58290476Y-128280952D01*
X58338095Y-128328571D01*
X58433333Y-128376190D01*
X58814285Y-128376190D01*
X57861904Y-127947619D02*
X57814285Y-127900000D01*
X57719047Y-127852380D01*
X57480952Y-127852380D01*
X57385714Y-127900000D01*
X57338095Y-127947619D01*
X57290476Y-128042857D01*
X57290476Y-128138095D01*
X57338095Y-128280952D01*
X57909523Y-128852380D01*
X57290476Y-128852380D01*
X56385714Y-127852380D02*
X56861904Y-127852380D01*
X56909523Y-128328571D01*
X56861904Y-128280952D01*
X56766666Y-128233333D01*
X56528571Y-128233333D01*
X56433333Y-128280952D01*
X56385714Y-128328571D01*
X56338095Y-128423809D01*
X56338095Y-128661904D01*
X56385714Y-128757142D01*
X56433333Y-128804761D01*
X56528571Y-128852380D01*
X56766666Y-128852380D01*
X56861904Y-128804761D01*
X56909523Y-128757142D01*
X151742857Y-114287142D02*
X151790476Y-114334761D01*
X151933333Y-114382380D01*
X152028571Y-114382380D01*
X152171428Y-114334761D01*
X152266666Y-114239523D01*
X152314285Y-114144285D01*
X152361904Y-113953809D01*
X152361904Y-113810952D01*
X152314285Y-113620476D01*
X152266666Y-113525238D01*
X152171428Y-113430000D01*
X152028571Y-113382380D01*
X151933333Y-113382380D01*
X151790476Y-113430000D01*
X151742857Y-113477619D01*
X151361904Y-113477619D02*
X151314285Y-113430000D01*
X151219047Y-113382380D01*
X150980952Y-113382380D01*
X150885714Y-113430000D01*
X150838095Y-113477619D01*
X150790476Y-113572857D01*
X150790476Y-113668095D01*
X150838095Y-113810952D01*
X151409523Y-114382380D01*
X150790476Y-114382380D01*
X149838095Y-114382380D02*
X150409523Y-114382380D01*
X150123809Y-114382380D02*
X150123809Y-113382380D01*
X150219047Y-113525238D01*
X150314285Y-113620476D01*
X150409523Y-113668095D01*
X156442857Y-109957142D02*
X156490476Y-110004761D01*
X156633333Y-110052380D01*
X156728571Y-110052380D01*
X156871428Y-110004761D01*
X156966666Y-109909523D01*
X157014285Y-109814285D01*
X157061904Y-109623809D01*
X157061904Y-109480952D01*
X157014285Y-109290476D01*
X156966666Y-109195238D01*
X156871428Y-109100000D01*
X156728571Y-109052380D01*
X156633333Y-109052380D01*
X156490476Y-109100000D01*
X156442857Y-109147619D01*
X156061904Y-109147619D02*
X156014285Y-109100000D01*
X155919047Y-109052380D01*
X155680952Y-109052380D01*
X155585714Y-109100000D01*
X155538095Y-109147619D01*
X155490476Y-109242857D01*
X155490476Y-109338095D01*
X155538095Y-109480952D01*
X156109523Y-110052380D01*
X155490476Y-110052380D01*
X154871428Y-109052380D02*
X154776190Y-109052380D01*
X154680952Y-109100000D01*
X154633333Y-109147619D01*
X154585714Y-109242857D01*
X154538095Y-109433333D01*
X154538095Y-109671428D01*
X154585714Y-109861904D01*
X154633333Y-109957142D01*
X154680952Y-110004761D01*
X154776190Y-110052380D01*
X154871428Y-110052380D01*
X154966666Y-110004761D01*
X155014285Y-109957142D01*
X155061904Y-109861904D01*
X155109523Y-109671428D01*
X155109523Y-109433333D01*
X155061904Y-109242857D01*
X155014285Y-109147619D01*
X154966666Y-109100000D01*
X154871428Y-109052380D01*
X126385714Y-142328571D02*
X126242857Y-142376190D01*
X126195238Y-142423809D01*
X126147619Y-142519047D01*
X126147619Y-142661904D01*
X126195238Y-142757142D01*
X126242857Y-142804761D01*
X126338095Y-142852380D01*
X126719047Y-142852380D01*
X126719047Y-141852380D01*
X126385714Y-141852380D01*
X126290476Y-141900000D01*
X126242857Y-141947619D01*
X126195238Y-142042857D01*
X126195238Y-142138095D01*
X126242857Y-142233333D01*
X126290476Y-142280952D01*
X126385714Y-142328571D01*
X126719047Y-142328571D01*
X125861904Y-141852380D02*
X125290476Y-141852380D01*
X125576190Y-142852380D02*
X125576190Y-141852380D01*
X125052380Y-141852380D02*
X124433333Y-141852380D01*
X124766666Y-142233333D01*
X124623809Y-142233333D01*
X124528571Y-142280952D01*
X124480952Y-142328571D01*
X124433333Y-142423809D01*
X124433333Y-142661904D01*
X124480952Y-142757142D01*
X124528571Y-142804761D01*
X124623809Y-142852380D01*
X124909523Y-142852380D01*
X125004761Y-142804761D01*
X125052380Y-142757142D01*
X102985714Y-142528571D02*
X102842857Y-142576190D01*
X102795238Y-142623809D01*
X102747619Y-142719047D01*
X102747619Y-142861904D01*
X102795238Y-142957142D01*
X102842857Y-143004761D01*
X102938095Y-143052380D01*
X103319047Y-143052380D01*
X103319047Y-142052380D01*
X102985714Y-142052380D01*
X102890476Y-142100000D01*
X102842857Y-142147619D01*
X102795238Y-142242857D01*
X102795238Y-142338095D01*
X102842857Y-142433333D01*
X102890476Y-142480952D01*
X102985714Y-142528571D01*
X103319047Y-142528571D01*
X102461904Y-142052380D02*
X101890476Y-142052380D01*
X102176190Y-143052380D02*
X102176190Y-142052380D01*
X101604761Y-142147619D02*
X101557142Y-142100000D01*
X101461904Y-142052380D01*
X101223809Y-142052380D01*
X101128571Y-142100000D01*
X101080952Y-142147619D01*
X101033333Y-142242857D01*
X101033333Y-142338095D01*
X101080952Y-142480952D01*
X101652380Y-143052380D01*
X101033333Y-143052380D01*
M02*
