M48
; DRILL file {KiCad (5.1.5)-3} date 2021-11-16 22:17:12
; FORMAT={-:-/ absolute / metric / decimal}
; #@! TF.CreationDate,2021-11-16T22:17:12+01:00
; #@! TF.GenerationSoftware,Kicad,Pcbnew,(5.1.5)-3
; #@! TF.FileFunction,Plated,1,2,PTH
FMAT,2
METRIC
T1C0.400
T2C0.500
T3C0.700
T4C0.800
T5C0.900
T6C1.000
T7C1.300
T8C1.600
%
G90
G05
T1
X54.8Y-105.0
X54.8Y-106.6
X54.8Y-109.0
X54.8Y-110.4
X58.2Y-110.8
X58.6Y-105.0
X59.2Y-107.175
X59.2Y-109.0
X65.0Y-104.5
X66.2Y-87.0
X66.5Y-107.5
X66.5Y-109.0
X66.5Y-110.5
X66.5Y-112.0
X68.0Y-98.5
X68.0Y-101.5
X68.0Y-104.5
X68.0Y-107.5
X68.0Y-109.0
X68.0Y-110.5
X68.0Y-112.0
X69.5Y-107.5
X69.5Y-109.0
X69.5Y-110.5
X69.5Y-112.0
X69.6Y-64.6
X69.6Y-66.6
X70.4Y-65.6
X71.0Y-95.5
X71.0Y-98.5
X71.0Y-101.5
X71.0Y-104.5
X71.0Y-107.5
X71.0Y-109.0
X71.0Y-110.5
X71.0Y-112.0
X71.2Y-68.8
X71.6Y-73.4
X72.5Y-107.5
X72.5Y-109.0
X72.5Y-110.5
X72.5Y-112.0
X73.4Y-72.8
X73.6Y-71.2
X74.0Y-95.5
X74.0Y-98.5
X74.0Y-101.5
X74.0Y-104.5
X74.6Y-138.8
X76.6Y-69.4
X85.0Y-139.8
X85.6Y-76.2
X85.6Y-120.2
X85.8Y-89.0
X88.6Y-83.8
X89.0Y-76.2
X90.7Y-119.1
X92.2Y-88.5
X92.2Y-91.6
X94.2Y-72.0
X95.0Y-79.4
X95.6Y-82.4
X96.0Y-85.6
X96.0Y-87.2
X96.0Y-88.8
X96.6Y-84.8
X96.6Y-86.4
X96.6Y-88.0
X97.0Y-67.8
X97.0Y-69.6
X97.0Y-71.8
X97.0Y-74.2
X97.0Y-75.6
X97.8Y-81.8
X98.05Y-78.662
X98.6Y-75.8
X98.6Y-78.0
X99.4Y-67.8
X99.6Y-73.4
X99.6Y-78.2
X100.2Y-69.2
X100.4Y-79.0
X101.2Y-122.2
X101.6Y-71.4
X101.6Y-120.2
X102.0Y-85.6
X102.0Y-86.6
X102.2Y-76.6
X102.2Y-78.0
X102.2Y-94.2
X102.4Y-67.8
X103.0Y-73.4
X103.0Y-83.2
X103.0Y-84.6
X103.0Y-85.6
X103.4Y-75.4
X103.4Y-76.8
X103.8Y-84.0
X104.127Y-81.939
X104.2Y-78.4
X104.8Y-67.8
X104.8Y-69.6
X104.8Y-71.8
X104.8Y-74.0
X104.8Y-75.4
X105.4Y-80.4
X105.6Y-94.2
X106.8Y-56.4
X107.8Y-75.4
X107.8Y-80.4
X107.8Y-97.6
X108.2Y-84.6
X109.4Y-84.6
X110.0Y-75.4
X110.0Y-80.4
X110.1Y-109.7
X110.1Y-110.6
X110.1Y-111.5
X110.1Y-112.4
X110.1Y-113.2
X110.1Y-114.0
X110.8Y-139.8
X111.35Y-76.8
X111.35Y-78.8
X112.0Y-75.4
X112.0Y-78.0
X112.0Y-80.4
X113.9Y-84.9
X114.2Y-94.2
X117.2Y-139.8
X118.8Y-56.4
X120.2Y-77.6
X120.9Y-94.8
X124.1Y-94.5
X127.2Y-92.0
X129.2Y-93.8
X134.48Y-87.88
X144.9Y-89.2
X145.2Y-136.3
X145.2Y-146.3
X146.7Y-92.7
X149.8Y-111.0
X152.5Y-112.5
X155.2Y-136.4
X155.2Y-146.3
X158.0Y-92.7
T2
X55.8Y-116.8
X55.8Y-118.0
X57.2Y-62.6
X58.4Y-121.0
X58.8Y-115.4
X58.8Y-116.8
X59.4Y-121.0
X66.6Y-136.0
X67.6Y-137.2
X69.4Y-127.8
X71.0Y-136.0
X72.0Y-136.0
X73.4Y-114.2
X73.6Y-115.8
X74.6Y-69.6
X75.4Y-88.8
X75.4Y-89.8
X76.2Y-82.0
X77.0Y-81.2
X78.6Y-124.2
X78.6Y-126.2
X78.6Y-128.2
X78.8Y-118.8
X80.2Y-107.2
X80.4Y-73.2
X80.4Y-74.4
X82.2Y-119.8
X82.4Y-114.8
X83.4Y-76.0
X84.4Y-119.8
X84.6Y-107.2
X85.8Y-82.6
X86.8Y-108.0
X87.0Y-120.0
X87.043Y-121.643
X87.8Y-108.0
X92.2Y-65.0
X94.4Y-129.0
X95.2Y-128.2
X106.2Y-117.4
X107.2Y-117.4
X108.45Y-120.975
X109.4Y-121.2
X109.4Y-122.4
X110.4Y-121.2
X110.4Y-122.4
X111.4Y-121.2
X111.4Y-122.4
X111.6Y-116.2
X112.4Y-121.2
X112.4Y-122.4
X118.6Y-62.8
X119.6Y-62.8
X119.7Y-114.1
X119.7Y-118.9
X120.5Y-111.7
X124.6Y-120.7
X125.6Y-120.7
X127.5Y-116.5
T3
X100.2Y-128.8
X113.8Y-128.8
X108.1Y-107.8
X90.5Y-113.8
X90.6Y-124.2
X77.7Y-129.9
X111.3Y-115.0
T4
X146.44Y-102.33
X146.44Y-104.87
X146.44Y-107.41
X146.44Y-109.95
X146.44Y-112.49
X146.44Y-115.03
T5
X140.46Y-134.7
X143.0Y-134.7
X53.0Y-134.26
X53.0Y-136.8
X53.0Y-127.06
X53.0Y-129.6
X140.46Y-144.7
X143.0Y-144.7
X150.46Y-144.7
X153.0Y-144.7
X150.46Y-134.7
X153.0Y-134.7
T6
X90.6Y-72.46
X90.6Y-75.0
X114.1Y-104.06
X114.1Y-106.6
X141.6Y-82.8
X141.6Y-85.34
X141.6Y-87.88
X141.6Y-90.42
X141.6Y-92.96
X141.6Y-95.5
X141.6Y-98.04
X138.2Y-102.2
X138.2Y-104.74
X131.18Y-54.2
X133.72Y-54.2
X136.26Y-54.2
X138.8Y-54.2
X62.3Y-82.66
X62.3Y-85.2
X62.3Y-87.74
X62.3Y-90.28
X62.3Y-92.82
X62.3Y-95.36
X62.3Y-97.9
X62.3Y-100.44
X52.6Y-86.7
X52.6Y-91.2
X90.6Y-108.06
X90.6Y-110.6
X107.5Y-54.2
X110.04Y-54.2
X112.58Y-54.2
X115.12Y-54.2
X117.66Y-54.2
X120.2Y-54.2
X141.6Y-75.96
X141.6Y-78.5
X87.18Y-54.2
X89.72Y-54.2
X92.26Y-54.2
X94.8Y-54.2
T7
X55.1Y-85.45
X55.1Y-92.45
T8
X52.25Y-103.28
X52.25Y-111.92
X56.8Y-103.28
X56.8Y-111.92
T0
M30
