M48
; DRILL file {KiCad (5.1.5)-3} date 2021-12-07 19:33:23
; FORMAT={-:-/ absolute / metric / decimal}
; #@! TF.CreationDate,2021-12-07T19:33:23+01:00
; #@! TF.GenerationSoftware,Kicad,Pcbnew,(5.1.5)-3
; #@! TF.FileFunction,Plated,1,2,PTH
FMAT,2
METRIC
T1C0.400
T2C0.500
T3C0.700
T4C0.800
T5C0.900
T6C1.000
T7C1.300
T8C1.600
%
G90
G05
T1
X54.8Y-105.0
X54.8Y-106.6
X54.8Y-109.0
X54.8Y-110.4
X58.2Y-110.8
X58.6Y-105.0
X59.2Y-107.175
X59.2Y-109.0
X61.0Y-134.0
X64.6Y-87.0
X65.0Y-104.5
X66.5Y-107.5
X66.5Y-109.0
X66.5Y-110.5
X66.5Y-112.0
X68.0Y-98.5
X68.0Y-101.5
X68.0Y-104.5
X68.0Y-107.5
X68.0Y-109.0
X68.0Y-110.5
X68.0Y-112.0
X68.8Y-134.0
X69.5Y-107.5
X69.5Y-109.0
X69.5Y-110.5
X69.5Y-112.0
X69.6Y-64.6
X69.6Y-66.6
X70.4Y-65.6
X71.0Y-95.5
X71.0Y-98.5
X71.0Y-101.5
X71.0Y-104.5
X71.0Y-107.5
X71.0Y-109.0
X71.0Y-110.5
X71.0Y-112.0
X71.2Y-68.8
X72.2Y-73.0
X72.5Y-107.5
X72.5Y-109.0
X72.5Y-110.5
X72.5Y-112.0
X73.2Y-73.0
X73.6Y-131.2
X74.0Y-95.5
X74.0Y-98.5
X74.0Y-101.5
X74.0Y-104.5
X74.6Y-138.8
X75.2Y-73.0
X76.6Y-69.4
X85.0Y-139.8
X85.6Y-120.2
X85.8Y-89.0
X87.2Y-84.0
X89.8Y-77.2
X90.7Y-119.1
X91.6Y-88.8
X92.2Y-91.6
X92.8Y-67.0
X92.8Y-69.2
X93.2Y-80.6
X93.4Y-78.4
X94.0Y-73.2
X95.0Y-69.4
X95.6Y-82.4
X96.4Y-85.6
X96.4Y-87.2
X96.4Y-88.928
X96.8Y-82.2
X97.0Y-67.0
X97.0Y-68.8
X97.0Y-71.0
X97.0Y-73.4
X97.0Y-75.6
X97.0Y-84.8
X97.0Y-86.4
X97.0Y-88.0
X97.8Y-81.8
X98.05Y-77.862
X98.6Y-75.0
X98.6Y-77.2
X98.6Y-90.2
X99.4Y-67.0
X99.4Y-89.8
X99.6Y-72.6
X100.2Y-68.4
X100.8Y-85.6
X100.8Y-86.6
X101.2Y-122.2
X101.4Y-83.0
X101.6Y-70.6
X101.6Y-120.2
X101.8Y-90.0
X101.8Y-93.2
X102.0Y-83.8
X102.2Y-75.8
X102.2Y-77.2
X102.2Y-94.2
X102.4Y-67.0
X102.8Y-84.6
X103.0Y-72.6
X103.4Y-74.6
X103.4Y-76.0
X103.6Y-85.2
X103.6Y-86.2
X104.127Y-81.939
X104.6Y-92.4
X104.8Y-67.0
X104.8Y-68.8
X104.8Y-71.0
X104.8Y-73.2
X104.8Y-74.6
X105.4Y-79.6
X105.4Y-93.2
X106.6Y-93.4
X106.8Y-56.4
X107.6Y-93.4
X107.8Y-74.6
X107.8Y-79.6
X107.8Y-84.6
X108.4Y-94.2
X108.4Y-97.6
X110.0Y-74.6
X110.0Y-79.6
X110.1Y-109.7
X110.1Y-110.6
X110.1Y-111.5
X110.1Y-112.4
X110.1Y-113.2
X110.1Y-114.0
X110.8Y-139.8
X111.35Y-76.0
X111.35Y-78.0
X112.0Y-74.6
X112.0Y-77.2
X112.0Y-79.6
X113.1Y-97.7
X114.1Y-97.7
X114.3Y-85.5
X115.1Y-97.7
X116.1Y-97.7
X117.2Y-139.8
X118.8Y-56.4
X121.0Y-69.6
X121.0Y-71.0
X124.8Y-84.0
X125.0Y-71.0
X125.0Y-81.2
X125.6Y-83.2
X128.0Y-87.2
X128.8Y-86.4
X128.925Y-85.125
X132.6Y-93.2
X133.0Y-92.2
X135.4Y-94.6
X135.6Y-96.2
X138.8Y-90.4
X144.9Y-89.2
X145.2Y-136.4
X145.2Y-146.4
X146.7Y-92.7
X149.8Y-111.0
X152.5Y-112.5
X155.2Y-136.4
X155.2Y-146.4
X158.0Y-92.7
T2
X55.8Y-116.8
X55.8Y-118.0
X57.2Y-62.6
X58.4Y-121.0
X58.8Y-115.4
X58.8Y-116.8
X59.4Y-121.0
X66.4Y-69.8
X69.2Y-129.6
X70.0Y-134.8
X71.0Y-135.4
X73.4Y-114.2
X73.6Y-115.8
X74.0Y-136.4
X75.0Y-136.4
X75.4Y-88.8
X75.4Y-89.8
X76.0Y-82.2
X76.8Y-81.4
X78.6Y-124.2
X78.6Y-126.2
X78.6Y-128.2
X78.8Y-118.8
X80.2Y-107.2
X80.4Y-73.4
X80.4Y-74.6
X82.2Y-119.8
X82.4Y-114.8
X83.4Y-75.2
X84.4Y-119.8
X84.6Y-107.2
X85.8Y-82.6
X86.8Y-108.0
X87.0Y-120.0
X87.043Y-121.643
X87.2Y-61.2
X87.8Y-108.0
X92.2Y-66.0
X94.4Y-129.0
X95.2Y-128.2
X98.4Y-97.6
X106.2Y-117.4
X107.2Y-117.4
X108.45Y-120.975
X109.4Y-121.2
X109.4Y-122.4
X110.4Y-121.2
X110.4Y-122.4
X111.4Y-121.2
X111.4Y-122.4
X111.6Y-116.2
X112.4Y-121.2
X112.4Y-122.4
X118.6Y-62.8
X119.6Y-62.8
X119.7Y-116.1
X119.7Y-120.9
X120.5Y-113.7
X124.6Y-122.7
X125.6Y-122.7
X127.5Y-118.5
X145.4Y-78.0
X146.2Y-78.0
T3
X90.6Y-124.2
X77.7Y-129.9
X100.2Y-128.8
X108.1Y-107.8
X113.8Y-128.8
X90.5Y-113.8
X111.3Y-115.0
T4
X146.44Y-102.33
X146.44Y-104.87
X146.44Y-107.41
X146.44Y-109.95
X146.44Y-112.49
X146.44Y-115.03
T5
X53.0Y-127.06
X53.0Y-129.6
X140.46Y-144.7
X143.0Y-144.7
X150.46Y-144.7
X153.0Y-144.7
X53.0Y-134.26
X53.0Y-136.8
X140.46Y-134.7
X143.0Y-134.7
X150.46Y-134.7
X153.0Y-134.7
T6
X138.2Y-102.26
X138.2Y-104.8
X90.6Y-108.06
X90.6Y-110.6
X52.6Y-86.7
X52.6Y-91.2
X131.78Y-54.2
X134.32Y-54.2
X136.86Y-54.2
X139.4Y-54.2
X62.3Y-82.66
X62.3Y-85.2
X62.3Y-87.74
X62.3Y-90.28
X62.3Y-92.82
X62.3Y-95.36
X62.3Y-97.9
X62.3Y-100.44
X141.6Y-82.8
X141.6Y-85.34
X141.6Y-87.88
X141.6Y-90.42
X141.6Y-92.96
X141.6Y-95.5
X141.6Y-98.04
X87.18Y-54.2
X89.72Y-54.2
X92.26Y-54.2
X94.8Y-54.2
X90.6Y-72.46
X90.6Y-75.0
X141.6Y-75.96
X141.6Y-78.5
X107.5Y-54.2
X110.04Y-54.2
X112.58Y-54.2
X115.12Y-54.2
X117.66Y-54.2
X120.2Y-54.2
X114.1Y-104.06
X114.1Y-106.6
T7
X55.1Y-85.45
X55.1Y-92.45
T8
X52.25Y-103.28
X52.25Y-111.92
X56.8Y-103.28
X56.8Y-111.92
T0
M30
