G04 #@! TF.GenerationSoftware,KiCad,Pcbnew,(5.1.5)-3*
G04 #@! TF.CreationDate,2021-11-16T22:17:10+01:00*
G04 #@! TF.ProjectId,EnvSensor-v2,456e7653-656e-4736-9f72-2d76322e6b69,rev?*
G04 #@! TF.SameCoordinates,Original*
G04 #@! TF.FileFunction,Soldermask,Bot*
G04 #@! TF.FilePolarity,Negative*
%FSLAX46Y46*%
G04 Gerber Fmt 4.6, Leading zero omitted, Abs format (unit mm)*
G04 Created by KiCad (PCBNEW (5.1.5)-3) date 2021-11-16 22:17:10*
%MOMM*%
%LPD*%
G04 APERTURE LIST*
%ADD10C,0.100000*%
G04 APERTURE END LIST*
D10*
X56243000Y-92450000D02*
G75*
G03X56243000Y-92450000I-1143000J0D01*
G01*
X53489000Y-86700000D02*
G75*
G03X53489000Y-86700000I-889000J0D01*
G01*
X53489000Y-91200000D02*
G75*
G03X53489000Y-91200000I-889000J0D01*
G01*
X56243000Y-85450000D02*
G75*
G03X56243000Y-85450000I-1143000J0D01*
G01*
G36*
X54875256Y-144391298D02*
G01*
X54981579Y-144412447D01*
X55282042Y-144536903D01*
X55552451Y-144717585D01*
X55782415Y-144947549D01*
X55963097Y-145217958D01*
X56087553Y-145518421D01*
X56106655Y-145614453D01*
X56151000Y-145837389D01*
X56151000Y-146162611D01*
X56108702Y-146375256D01*
X56087553Y-146481579D01*
X55963097Y-146782042D01*
X55782415Y-147052451D01*
X55552451Y-147282415D01*
X55282042Y-147463097D01*
X54981579Y-147587553D01*
X54875256Y-147608702D01*
X54662611Y-147651000D01*
X54337389Y-147651000D01*
X54124744Y-147608702D01*
X54018421Y-147587553D01*
X53717958Y-147463097D01*
X53447549Y-147282415D01*
X53217585Y-147052451D01*
X53036903Y-146782042D01*
X52912447Y-146481579D01*
X52891298Y-146375256D01*
X52849000Y-146162611D01*
X52849000Y-145837389D01*
X52893345Y-145614453D01*
X52912447Y-145518421D01*
X53036903Y-145217958D01*
X53217585Y-144947549D01*
X53447549Y-144717585D01*
X53717958Y-144536903D01*
X54018421Y-144412447D01*
X54124744Y-144391298D01*
X54337389Y-144349000D01*
X54662611Y-144349000D01*
X54875256Y-144391298D01*
G37*
G36*
X165375256Y-143891298D02*
G01*
X165481579Y-143912447D01*
X165782042Y-144036903D01*
X166052451Y-144217585D01*
X166282415Y-144447549D01*
X166463097Y-144717958D01*
X166558198Y-144947551D01*
X166587553Y-145018422D01*
X166627244Y-145217958D01*
X166651000Y-145337391D01*
X166651000Y-145662609D01*
X166587553Y-145981579D01*
X166463097Y-146282042D01*
X166282415Y-146552451D01*
X166052451Y-146782415D01*
X165782042Y-146963097D01*
X165481579Y-147087553D01*
X165375256Y-147108702D01*
X165162611Y-147151000D01*
X164837389Y-147151000D01*
X164624744Y-147108702D01*
X164518421Y-147087553D01*
X164217958Y-146963097D01*
X163947549Y-146782415D01*
X163717585Y-146552451D01*
X163536903Y-146282042D01*
X163412447Y-145981579D01*
X163349000Y-145662609D01*
X163349000Y-145337391D01*
X163372757Y-145217958D01*
X163412447Y-145018422D01*
X163441803Y-144947551D01*
X163536903Y-144717958D01*
X163717585Y-144447549D01*
X163947549Y-144217585D01*
X164217958Y-144036903D01*
X164518421Y-143912447D01*
X164624744Y-143891298D01*
X164837389Y-143849000D01*
X165162611Y-143849000D01*
X165375256Y-143891298D01*
G37*
G36*
X153951000Y-145651000D02*
G01*
X152049000Y-145651000D01*
X152049000Y-143749000D01*
X153951000Y-143749000D01*
X153951000Y-145651000D01*
G37*
G36*
X150737395Y-143785546D02*
G01*
X150910466Y-143857234D01*
X150910467Y-143857235D01*
X151066227Y-143961310D01*
X151198690Y-144093773D01*
X151198691Y-144093775D01*
X151302766Y-144249534D01*
X151374454Y-144422605D01*
X151411000Y-144606333D01*
X151411000Y-144793667D01*
X151374454Y-144977395D01*
X151302766Y-145150466D01*
X151302765Y-145150467D01*
X151198690Y-145306227D01*
X151066227Y-145438690D01*
X150987818Y-145491081D01*
X150910466Y-145542766D01*
X150737395Y-145614454D01*
X150553667Y-145651000D01*
X150366333Y-145651000D01*
X150182605Y-145614454D01*
X150009534Y-145542766D01*
X149932182Y-145491081D01*
X149853773Y-145438690D01*
X149721310Y-145306227D01*
X149617235Y-145150467D01*
X149617234Y-145150466D01*
X149545546Y-144977395D01*
X149509000Y-144793667D01*
X149509000Y-144606333D01*
X149545546Y-144422605D01*
X149617234Y-144249534D01*
X149721309Y-144093775D01*
X149721310Y-144093773D01*
X149853773Y-143961310D01*
X150009533Y-143857235D01*
X150009534Y-143857234D01*
X150182605Y-143785546D01*
X150366333Y-143749000D01*
X150553667Y-143749000D01*
X150737395Y-143785546D01*
G37*
G36*
X143951000Y-145651000D02*
G01*
X142049000Y-145651000D01*
X142049000Y-143749000D01*
X143951000Y-143749000D01*
X143951000Y-145651000D01*
G37*
G36*
X140737395Y-143785546D02*
G01*
X140910466Y-143857234D01*
X140910467Y-143857235D01*
X141066227Y-143961310D01*
X141198690Y-144093773D01*
X141198691Y-144093775D01*
X141302766Y-144249534D01*
X141374454Y-144422605D01*
X141411000Y-144606333D01*
X141411000Y-144793667D01*
X141374454Y-144977395D01*
X141302766Y-145150466D01*
X141302765Y-145150467D01*
X141198690Y-145306227D01*
X141066227Y-145438690D01*
X140987818Y-145491081D01*
X140910466Y-145542766D01*
X140737395Y-145614454D01*
X140553667Y-145651000D01*
X140366333Y-145651000D01*
X140182605Y-145614454D01*
X140009534Y-145542766D01*
X139932182Y-145491081D01*
X139853773Y-145438690D01*
X139721310Y-145306227D01*
X139617235Y-145150467D01*
X139617234Y-145150466D01*
X139545546Y-144977395D01*
X139509000Y-144793667D01*
X139509000Y-144606333D01*
X139545546Y-144422605D01*
X139617234Y-144249534D01*
X139721309Y-144093775D01*
X139721310Y-144093773D01*
X139853773Y-143961310D01*
X140009533Y-143857235D01*
X140009534Y-143857234D01*
X140182605Y-143785546D01*
X140366333Y-143749000D01*
X140553667Y-143749000D01*
X140737395Y-143785546D01*
G37*
G36*
X82551000Y-141151000D02*
G01*
X75449000Y-141151000D01*
X75449000Y-132809000D01*
X82551000Y-132809000D01*
X82551000Y-141151000D01*
G37*
G36*
X129151000Y-141151000D02*
G01*
X122049000Y-141151000D01*
X122049000Y-132809000D01*
X129151000Y-132809000D01*
X129151000Y-141151000D01*
G37*
G36*
X105751000Y-141151000D02*
G01*
X98649000Y-141151000D01*
X98649000Y-132809000D01*
X105751000Y-132809000D01*
X105751000Y-141151000D01*
G37*
G36*
X53951000Y-137751000D02*
G01*
X52049000Y-137751000D01*
X52049000Y-135849000D01*
X53951000Y-135849000D01*
X53951000Y-137751000D01*
G37*
G36*
X153951000Y-135651000D02*
G01*
X152049000Y-135651000D01*
X152049000Y-133749000D01*
X153951000Y-133749000D01*
X153951000Y-135651000D01*
G37*
G36*
X150737395Y-133785546D02*
G01*
X150910466Y-133857234D01*
X150910467Y-133857235D01*
X151066227Y-133961310D01*
X151198690Y-134093773D01*
X151198691Y-134093775D01*
X151302766Y-134249534D01*
X151374454Y-134422605D01*
X151411000Y-134606333D01*
X151411000Y-134793667D01*
X151374454Y-134977395D01*
X151302766Y-135150466D01*
X151262318Y-135211000D01*
X151198690Y-135306227D01*
X151066227Y-135438690D01*
X150987818Y-135491081D01*
X150910466Y-135542766D01*
X150737395Y-135614454D01*
X150553667Y-135651000D01*
X150366333Y-135651000D01*
X150182605Y-135614454D01*
X150009534Y-135542766D01*
X149932182Y-135491081D01*
X149853773Y-135438690D01*
X149721310Y-135306227D01*
X149657682Y-135211000D01*
X149617234Y-135150466D01*
X149545546Y-134977395D01*
X149509000Y-134793667D01*
X149509000Y-134606333D01*
X149545546Y-134422605D01*
X149617234Y-134249534D01*
X149721309Y-134093775D01*
X149721310Y-134093773D01*
X149853773Y-133961310D01*
X150009533Y-133857235D01*
X150009534Y-133857234D01*
X150182605Y-133785546D01*
X150366333Y-133749000D01*
X150553667Y-133749000D01*
X150737395Y-133785546D01*
G37*
G36*
X143951000Y-135651000D02*
G01*
X142049000Y-135651000D01*
X142049000Y-133749000D01*
X143951000Y-133749000D01*
X143951000Y-135651000D01*
G37*
G36*
X140737395Y-133785546D02*
G01*
X140910466Y-133857234D01*
X140910467Y-133857235D01*
X141066227Y-133961310D01*
X141198690Y-134093773D01*
X141198691Y-134093775D01*
X141302766Y-134249534D01*
X141374454Y-134422605D01*
X141411000Y-134606333D01*
X141411000Y-134793667D01*
X141374454Y-134977395D01*
X141302766Y-135150466D01*
X141262318Y-135211000D01*
X141198690Y-135306227D01*
X141066227Y-135438690D01*
X140987818Y-135491081D01*
X140910466Y-135542766D01*
X140737395Y-135614454D01*
X140553667Y-135651000D01*
X140366333Y-135651000D01*
X140182605Y-135614454D01*
X140009534Y-135542766D01*
X139932182Y-135491081D01*
X139853773Y-135438690D01*
X139721310Y-135306227D01*
X139657682Y-135211000D01*
X139617234Y-135150466D01*
X139545546Y-134977395D01*
X139509000Y-134793667D01*
X139509000Y-134606333D01*
X139545546Y-134422605D01*
X139617234Y-134249534D01*
X139721309Y-134093775D01*
X139721310Y-134093773D01*
X139853773Y-133961310D01*
X140009533Y-133857235D01*
X140009534Y-133857234D01*
X140182605Y-133785546D01*
X140366333Y-133749000D01*
X140553667Y-133749000D01*
X140737395Y-133785546D01*
G37*
G36*
X53277395Y-133345546D02*
G01*
X53450466Y-133417234D01*
X53450467Y-133417235D01*
X53606227Y-133521310D01*
X53738690Y-133653773D01*
X53738691Y-133653775D01*
X53842766Y-133809534D01*
X53914454Y-133982605D01*
X53951000Y-134166333D01*
X53951000Y-134353667D01*
X53914454Y-134537395D01*
X53842766Y-134710466D01*
X53842765Y-134710467D01*
X53738690Y-134866227D01*
X53606227Y-134998690D01*
X53527818Y-135051081D01*
X53450466Y-135102766D01*
X53277395Y-135174454D01*
X53093667Y-135211000D01*
X52906333Y-135211000D01*
X52722605Y-135174454D01*
X52549534Y-135102766D01*
X52472182Y-135051081D01*
X52393773Y-134998690D01*
X52261310Y-134866227D01*
X52157235Y-134710467D01*
X52157234Y-134710466D01*
X52085546Y-134537395D01*
X52049000Y-134353667D01*
X52049000Y-134166333D01*
X52085546Y-133982605D01*
X52157234Y-133809534D01*
X52261309Y-133653775D01*
X52261310Y-133653773D01*
X52393773Y-133521310D01*
X52549533Y-133417235D01*
X52549534Y-133417234D01*
X52722605Y-133345546D01*
X52906333Y-133309000D01*
X53093667Y-133309000D01*
X53277395Y-133345546D01*
G37*
G36*
X77933642Y-129129781D02*
G01*
X78079414Y-129190162D01*
X78079416Y-129190163D01*
X78210608Y-129277822D01*
X78322178Y-129389392D01*
X78409837Y-129520584D01*
X78409838Y-129520586D01*
X78470219Y-129666358D01*
X78501000Y-129821107D01*
X78501000Y-129978893D01*
X78470219Y-130133642D01*
X78409838Y-130279414D01*
X78409837Y-130279416D01*
X78322178Y-130410608D01*
X78210608Y-130522178D01*
X78079416Y-130609837D01*
X78079415Y-130609838D01*
X78079414Y-130609838D01*
X77933642Y-130670219D01*
X77778893Y-130701000D01*
X77621107Y-130701000D01*
X77466358Y-130670219D01*
X77320586Y-130609838D01*
X77320585Y-130609838D01*
X77320584Y-130609837D01*
X77189392Y-130522178D01*
X77077822Y-130410608D01*
X76990163Y-130279416D01*
X76990162Y-130279414D01*
X76929781Y-130133642D01*
X76899000Y-129978893D01*
X76899000Y-129821107D01*
X76929781Y-129666358D01*
X76990162Y-129520586D01*
X76990163Y-129520584D01*
X77077822Y-129389392D01*
X77189392Y-129277822D01*
X77320584Y-129190163D01*
X77320586Y-129190162D01*
X77466358Y-129129781D01*
X77621107Y-129099000D01*
X77778893Y-129099000D01*
X77933642Y-129129781D01*
G37*
G36*
X53951000Y-130551000D02*
G01*
X52049000Y-130551000D01*
X52049000Y-128649000D01*
X53951000Y-128649000D01*
X53951000Y-130551000D01*
G37*
G36*
X55584468Y-128803565D02*
G01*
X55623138Y-128815296D01*
X55658777Y-128834346D01*
X55690017Y-128859983D01*
X55715654Y-128891223D01*
X55734704Y-128926862D01*
X55746435Y-128965532D01*
X55751000Y-129011888D01*
X55751000Y-129663112D01*
X55746435Y-129709468D01*
X55734704Y-129748138D01*
X55715654Y-129783777D01*
X55690017Y-129815017D01*
X55658777Y-129840654D01*
X55623138Y-129859704D01*
X55584468Y-129871435D01*
X55538112Y-129876000D01*
X54461888Y-129876000D01*
X54415532Y-129871435D01*
X54376862Y-129859704D01*
X54341223Y-129840654D01*
X54309983Y-129815017D01*
X54284346Y-129783777D01*
X54265296Y-129748138D01*
X54253565Y-129709468D01*
X54249000Y-129663112D01*
X54249000Y-129011888D01*
X54253565Y-128965532D01*
X54265296Y-128926862D01*
X54284346Y-128891223D01*
X54309983Y-128859983D01*
X54341223Y-128834346D01*
X54376862Y-128815296D01*
X54415532Y-128803565D01*
X54461888Y-128799000D01*
X55538112Y-128799000D01*
X55584468Y-128803565D01*
G37*
G36*
X100433642Y-128029781D02*
G01*
X100579414Y-128090162D01*
X100579416Y-128090163D01*
X100710608Y-128177822D01*
X100822178Y-128289392D01*
X100909837Y-128420584D01*
X100909838Y-128420586D01*
X100970219Y-128566358D01*
X101001000Y-128721107D01*
X101001000Y-128878893D01*
X100970219Y-129033642D01*
X100930396Y-129129782D01*
X100909837Y-129179416D01*
X100822178Y-129310608D01*
X100710608Y-129422178D01*
X100579416Y-129509837D01*
X100579415Y-129509838D01*
X100579414Y-129509838D01*
X100433642Y-129570219D01*
X100278893Y-129601000D01*
X100121107Y-129601000D01*
X99966358Y-129570219D01*
X99820586Y-129509838D01*
X99820585Y-129509838D01*
X99820584Y-129509837D01*
X99689392Y-129422178D01*
X99577822Y-129310608D01*
X99490163Y-129179416D01*
X99469604Y-129129782D01*
X99429781Y-129033642D01*
X99399000Y-128878893D01*
X99399000Y-128721107D01*
X99429781Y-128566358D01*
X99490162Y-128420586D01*
X99490163Y-128420584D01*
X99577822Y-128289392D01*
X99689392Y-128177822D01*
X99820584Y-128090163D01*
X99820586Y-128090162D01*
X99966358Y-128029781D01*
X100121107Y-127999000D01*
X100278893Y-127999000D01*
X100433642Y-128029781D01*
G37*
G36*
X114033642Y-128029781D02*
G01*
X114179414Y-128090162D01*
X114179416Y-128090163D01*
X114310608Y-128177822D01*
X114422178Y-128289392D01*
X114509837Y-128420584D01*
X114509838Y-128420586D01*
X114570219Y-128566358D01*
X114601000Y-128721107D01*
X114601000Y-128878893D01*
X114570219Y-129033642D01*
X114530396Y-129129782D01*
X114509837Y-129179416D01*
X114422178Y-129310608D01*
X114310608Y-129422178D01*
X114179416Y-129509837D01*
X114179415Y-129509838D01*
X114179414Y-129509838D01*
X114033642Y-129570219D01*
X113878893Y-129601000D01*
X113721107Y-129601000D01*
X113566358Y-129570219D01*
X113420586Y-129509838D01*
X113420585Y-129509838D01*
X113420584Y-129509837D01*
X113289392Y-129422178D01*
X113177822Y-129310608D01*
X113090163Y-129179416D01*
X113069604Y-129129782D01*
X113029781Y-129033642D01*
X112999000Y-128878893D01*
X112999000Y-128721107D01*
X113029781Y-128566358D01*
X113090162Y-128420586D01*
X113090163Y-128420584D01*
X113177822Y-128289392D01*
X113289392Y-128177822D01*
X113420584Y-128090163D01*
X113420586Y-128090162D01*
X113566358Y-128029781D01*
X113721107Y-127999000D01*
X113878893Y-127999000D01*
X114033642Y-128029781D01*
G37*
G36*
X159602585Y-126278802D02*
G01*
X159752410Y-126308604D01*
X160034674Y-126425521D01*
X160288705Y-126595259D01*
X160504741Y-126811295D01*
X160674479Y-127065326D01*
X160791396Y-127347590D01*
X160791396Y-127347591D01*
X160851000Y-127647239D01*
X160851000Y-127952761D01*
X160839415Y-128011000D01*
X160791396Y-128252410D01*
X160674479Y-128534674D01*
X160504741Y-128788705D01*
X160288705Y-129004741D01*
X160034674Y-129174479D01*
X159752410Y-129291396D01*
X159602585Y-129321198D01*
X159452761Y-129351000D01*
X159147239Y-129351000D01*
X158997415Y-129321198D01*
X158847590Y-129291396D01*
X158565326Y-129174479D01*
X158311295Y-129004741D01*
X158095259Y-128788705D01*
X157925521Y-128534674D01*
X157808604Y-128252410D01*
X157760585Y-128011000D01*
X157749000Y-127952761D01*
X157749000Y-127647239D01*
X157808604Y-127347591D01*
X157808604Y-127347590D01*
X157925521Y-127065326D01*
X158095259Y-126811295D01*
X158311295Y-126595259D01*
X158565326Y-126425521D01*
X158847590Y-126308604D01*
X158997415Y-126278802D01*
X159147239Y-126249000D01*
X159452761Y-126249000D01*
X159602585Y-126278802D01*
G37*
G36*
X62602585Y-126278802D02*
G01*
X62752410Y-126308604D01*
X63034674Y-126425521D01*
X63288705Y-126595259D01*
X63504741Y-126811295D01*
X63674479Y-127065326D01*
X63791396Y-127347590D01*
X63791396Y-127347591D01*
X63851000Y-127647239D01*
X63851000Y-127952761D01*
X63839415Y-128011000D01*
X63791396Y-128252410D01*
X63674479Y-128534674D01*
X63504741Y-128788705D01*
X63288705Y-129004741D01*
X63034674Y-129174479D01*
X62752410Y-129291396D01*
X62602585Y-129321198D01*
X62452761Y-129351000D01*
X62147239Y-129351000D01*
X61997415Y-129321198D01*
X61847590Y-129291396D01*
X61565326Y-129174479D01*
X61311295Y-129004741D01*
X61095259Y-128788705D01*
X60925521Y-128534674D01*
X60808604Y-128252410D01*
X60760585Y-128011000D01*
X60749000Y-127952761D01*
X60749000Y-127647239D01*
X60808604Y-127347591D01*
X60808604Y-127347590D01*
X60925521Y-127065326D01*
X61095259Y-126811295D01*
X61311295Y-126595259D01*
X61565326Y-126425521D01*
X61847590Y-126308604D01*
X61997415Y-126278802D01*
X62147239Y-126249000D01*
X62452761Y-126249000D01*
X62602585Y-126278802D01*
G37*
G36*
X53277395Y-126145546D02*
G01*
X53450466Y-126217234D01*
X53450467Y-126217235D01*
X53606227Y-126321310D01*
X53738690Y-126453773D01*
X53738691Y-126453775D01*
X53842766Y-126609534D01*
X53914454Y-126782605D01*
X53951000Y-126966333D01*
X53951000Y-127153667D01*
X53914454Y-127337395D01*
X53842766Y-127510466D01*
X53842765Y-127510467D01*
X53738690Y-127666227D01*
X53606227Y-127798690D01*
X53552681Y-127834468D01*
X53450466Y-127902766D01*
X53277395Y-127974454D01*
X53093667Y-128011000D01*
X52906333Y-128011000D01*
X52722605Y-127974454D01*
X52549534Y-127902766D01*
X52447319Y-127834468D01*
X52393773Y-127798690D01*
X52261310Y-127666227D01*
X52157235Y-127510467D01*
X52157234Y-127510466D01*
X52085546Y-127337395D01*
X52049000Y-127153667D01*
X52049000Y-126966333D01*
X52085546Y-126782605D01*
X52157234Y-126609534D01*
X52261309Y-126453775D01*
X52261310Y-126453773D01*
X52393773Y-126321310D01*
X52549533Y-126217235D01*
X52549534Y-126217234D01*
X52722605Y-126145546D01*
X52906333Y-126109000D01*
X53093667Y-126109000D01*
X53277395Y-126145546D01*
G37*
G36*
X55584468Y-126928565D02*
G01*
X55623138Y-126940296D01*
X55658777Y-126959346D01*
X55690017Y-126984983D01*
X55715654Y-127016223D01*
X55734704Y-127051862D01*
X55746435Y-127090532D01*
X55751000Y-127136888D01*
X55751000Y-127788112D01*
X55746435Y-127834468D01*
X55734704Y-127873138D01*
X55715654Y-127908777D01*
X55690017Y-127940017D01*
X55658777Y-127965654D01*
X55623138Y-127984704D01*
X55584468Y-127996435D01*
X55538112Y-128001000D01*
X54461888Y-128001000D01*
X54415532Y-127996435D01*
X54376862Y-127984704D01*
X54341223Y-127965654D01*
X54309983Y-127940017D01*
X54284346Y-127908777D01*
X54265296Y-127873138D01*
X54253565Y-127834468D01*
X54249000Y-127788112D01*
X54249000Y-127136888D01*
X54253565Y-127090532D01*
X54265296Y-127051862D01*
X54284346Y-127016223D01*
X54309983Y-126984983D01*
X54341223Y-126959346D01*
X54376862Y-126940296D01*
X54415532Y-126928565D01*
X54461888Y-126924000D01*
X55538112Y-126924000D01*
X55584468Y-126928565D01*
G37*
G36*
X118118039Y-123092250D02*
G01*
X118307372Y-123170675D01*
X118441251Y-123226129D01*
X118732134Y-123420491D01*
X118979509Y-123667866D01*
X119173871Y-123958749D01*
X119229325Y-124092628D01*
X119307750Y-124281961D01*
X119376000Y-124625078D01*
X119376000Y-124974922D01*
X119307750Y-125318039D01*
X119229325Y-125507372D01*
X119173871Y-125641251D01*
X118979509Y-125932134D01*
X118732134Y-126179509D01*
X118441251Y-126373871D01*
X118307372Y-126429325D01*
X118118039Y-126507750D01*
X117774922Y-126576000D01*
X117425078Y-126576000D01*
X117081961Y-126507750D01*
X116892628Y-126429325D01*
X116758749Y-126373871D01*
X116467866Y-126179509D01*
X116220491Y-125932134D01*
X116026129Y-125641251D01*
X115970675Y-125507372D01*
X115892250Y-125318039D01*
X115824000Y-124974922D01*
X115824000Y-124625078D01*
X115892250Y-124281961D01*
X115970675Y-124092628D01*
X116026129Y-123958749D01*
X116220491Y-123667866D01*
X116467866Y-123420491D01*
X116758749Y-123226129D01*
X116892628Y-123170675D01*
X117081961Y-123092250D01*
X117425078Y-123024000D01*
X117774922Y-123024000D01*
X118118039Y-123092250D01*
G37*
G36*
X94718039Y-123092250D02*
G01*
X94907372Y-123170675D01*
X95041251Y-123226129D01*
X95332134Y-123420491D01*
X95579509Y-123667866D01*
X95773871Y-123958749D01*
X95829325Y-124092628D01*
X95907750Y-124281961D01*
X95976000Y-124625078D01*
X95976000Y-124974922D01*
X95907750Y-125318039D01*
X95829325Y-125507372D01*
X95773871Y-125641251D01*
X95579509Y-125932134D01*
X95332134Y-126179509D01*
X95041251Y-126373871D01*
X94907372Y-126429325D01*
X94718039Y-126507750D01*
X94374922Y-126576000D01*
X94025078Y-126576000D01*
X93681961Y-126507750D01*
X93492628Y-126429325D01*
X93358749Y-126373871D01*
X93067866Y-126179509D01*
X92820491Y-125932134D01*
X92626129Y-125641251D01*
X92570675Y-125507372D01*
X92492250Y-125318039D01*
X92424000Y-124974922D01*
X92424000Y-124625078D01*
X92492250Y-124281961D01*
X92570675Y-124092628D01*
X92626129Y-123958749D01*
X92820491Y-123667866D01*
X93067866Y-123420491D01*
X93358749Y-123226129D01*
X93492628Y-123170675D01*
X93681961Y-123092250D01*
X94025078Y-123024000D01*
X94374922Y-123024000D01*
X94718039Y-123092250D01*
G37*
G36*
X71518039Y-123092250D02*
G01*
X71707372Y-123170675D01*
X71841251Y-123226129D01*
X72132134Y-123420491D01*
X72379509Y-123667866D01*
X72573871Y-123958749D01*
X72629325Y-124092628D01*
X72707750Y-124281961D01*
X72776000Y-124625078D01*
X72776000Y-124974922D01*
X72707750Y-125318039D01*
X72629325Y-125507372D01*
X72573871Y-125641251D01*
X72379509Y-125932134D01*
X72132134Y-126179509D01*
X71841251Y-126373871D01*
X71707372Y-126429325D01*
X71518039Y-126507750D01*
X71174922Y-126576000D01*
X70825078Y-126576000D01*
X70481961Y-126507750D01*
X70292628Y-126429325D01*
X70158749Y-126373871D01*
X69867866Y-126179509D01*
X69620491Y-125932134D01*
X69426129Y-125641251D01*
X69370675Y-125507372D01*
X69292250Y-125318039D01*
X69224000Y-124974922D01*
X69224000Y-124625078D01*
X69292250Y-124281961D01*
X69370675Y-124092628D01*
X69426129Y-123958749D01*
X69620491Y-123667866D01*
X69867866Y-123420491D01*
X70158749Y-123226129D01*
X70292628Y-123170675D01*
X70481961Y-123092250D01*
X70825078Y-123024000D01*
X71174922Y-123024000D01*
X71518039Y-123092250D01*
G37*
G36*
X90833642Y-123429781D02*
G01*
X90979414Y-123490162D01*
X90979416Y-123490163D01*
X91110608Y-123577822D01*
X91222178Y-123689392D01*
X91309837Y-123820584D01*
X91309838Y-123820586D01*
X91370219Y-123966358D01*
X91401000Y-124121107D01*
X91401000Y-124278893D01*
X91370219Y-124433642D01*
X91309838Y-124579414D01*
X91309837Y-124579416D01*
X91222178Y-124710608D01*
X91110608Y-124822178D01*
X90979416Y-124909837D01*
X90979415Y-124909838D01*
X90979414Y-124909838D01*
X90833642Y-124970219D01*
X90678893Y-125001000D01*
X90521107Y-125001000D01*
X90366358Y-124970219D01*
X90220586Y-124909838D01*
X90220585Y-124909838D01*
X90220584Y-124909837D01*
X90089392Y-124822178D01*
X89977822Y-124710608D01*
X89890163Y-124579416D01*
X89890162Y-124579414D01*
X89829781Y-124433642D01*
X89799000Y-124278893D01*
X89799000Y-124121107D01*
X89829781Y-123966358D01*
X89890162Y-123820586D01*
X89890163Y-123820584D01*
X89977822Y-123689392D01*
X90089392Y-123577822D01*
X90220584Y-123490163D01*
X90220586Y-123490162D01*
X90366358Y-123429781D01*
X90521107Y-123399000D01*
X90678893Y-123399000D01*
X90833642Y-123429781D01*
G37*
G36*
X52101000Y-123051000D02*
G01*
X50699000Y-123051000D01*
X50699000Y-121299000D01*
X52101000Y-121299000D01*
X52101000Y-123051000D01*
G37*
G36*
X54801000Y-122051000D02*
G01*
X53149000Y-122051000D01*
X53149000Y-120524000D01*
X53194001Y-120524000D01*
X53218387Y-120521598D01*
X53241836Y-120514485D01*
X53263447Y-120502934D01*
X53282389Y-120487389D01*
X53297934Y-120468447D01*
X53309485Y-120446836D01*
X53316598Y-120423387D01*
X53319000Y-120399001D01*
X53319000Y-117200999D01*
X53316598Y-117176613D01*
X53309485Y-117153164D01*
X53297934Y-117131553D01*
X53282389Y-117112611D01*
X53263447Y-117097066D01*
X53241836Y-117085515D01*
X53218387Y-117078402D01*
X53194001Y-117076000D01*
X53149000Y-117076000D01*
X53149000Y-115549000D01*
X54801000Y-115549000D01*
X54801000Y-122051000D01*
G37*
G36*
X52401000Y-120901000D02*
G01*
X50399000Y-120901000D01*
X50399000Y-118999000D01*
X52401000Y-118999000D01*
X52401000Y-120901000D01*
G37*
G36*
X52401000Y-117801000D02*
G01*
X50399000Y-117801000D01*
X50399000Y-116699000D01*
X52401000Y-116699000D01*
X52401000Y-117801000D01*
G37*
G36*
X52101000Y-116301000D02*
G01*
X50699000Y-116301000D01*
X50699000Y-114549000D01*
X52101000Y-114549000D01*
X52101000Y-116301000D01*
G37*
G36*
X162079487Y-113648996D02*
G01*
X162253580Y-113721108D01*
X162316255Y-113747069D01*
X162529339Y-113889447D01*
X162710553Y-114070661D01*
X162836919Y-114259781D01*
X162852932Y-114283747D01*
X162951004Y-114520513D01*
X163001000Y-114771861D01*
X163001000Y-115028139D01*
X162951004Y-115279487D01*
X162855270Y-115510608D01*
X162852931Y-115516255D01*
X162710553Y-115729339D01*
X162529339Y-115910553D01*
X162316255Y-116052931D01*
X162316254Y-116052932D01*
X162316253Y-116052932D01*
X162079487Y-116151004D01*
X161828139Y-116201000D01*
X161571861Y-116201000D01*
X161320513Y-116151004D01*
X161083747Y-116052932D01*
X161083746Y-116052932D01*
X161083745Y-116052931D01*
X160870661Y-115910553D01*
X160689447Y-115729339D01*
X160547069Y-115516255D01*
X160544730Y-115510608D01*
X160448996Y-115279487D01*
X160399000Y-115028139D01*
X160399000Y-114771861D01*
X160448996Y-114520513D01*
X160547068Y-114283747D01*
X160563082Y-114259781D01*
X160689447Y-114070661D01*
X160870661Y-113889447D01*
X161083745Y-113747069D01*
X161146420Y-113721108D01*
X161320513Y-113648996D01*
X161571861Y-113599000D01*
X161828139Y-113599000D01*
X162079487Y-113648996D01*
G37*
G36*
X146673642Y-114259781D02*
G01*
X146819414Y-114320162D01*
X146819416Y-114320163D01*
X146950608Y-114407822D01*
X147062178Y-114519392D01*
X147129793Y-114620586D01*
X147149838Y-114650586D01*
X147210219Y-114796358D01*
X147241000Y-114951107D01*
X147241000Y-115108893D01*
X147210219Y-115263642D01*
X147149838Y-115409414D01*
X147149837Y-115409416D01*
X147062178Y-115540608D01*
X146950608Y-115652178D01*
X146819416Y-115739837D01*
X146819415Y-115739838D01*
X146819414Y-115739838D01*
X146673642Y-115800219D01*
X146518893Y-115831000D01*
X146361107Y-115831000D01*
X146206358Y-115800219D01*
X146060586Y-115739838D01*
X146060585Y-115739838D01*
X146060584Y-115739837D01*
X145929392Y-115652178D01*
X145817822Y-115540608D01*
X145730163Y-115409416D01*
X145730162Y-115409414D01*
X145669781Y-115263642D01*
X145639000Y-115108893D01*
X145639000Y-114951107D01*
X145669781Y-114796358D01*
X145730162Y-114650586D01*
X145750207Y-114620586D01*
X145817822Y-114519392D01*
X145929392Y-114407822D01*
X146060584Y-114320163D01*
X146060586Y-114320162D01*
X146206358Y-114259781D01*
X146361107Y-114229000D01*
X146518893Y-114229000D01*
X146673642Y-114259781D01*
G37*
G36*
X111533642Y-114229781D02*
G01*
X111679414Y-114290162D01*
X111679416Y-114290163D01*
X111810608Y-114377822D01*
X111922178Y-114489392D01*
X111976184Y-114570219D01*
X112009838Y-114620586D01*
X112070219Y-114766358D01*
X112101000Y-114921107D01*
X112101000Y-115078893D01*
X112070219Y-115233642D01*
X112009838Y-115379414D01*
X112009837Y-115379416D01*
X111922178Y-115510608D01*
X111810608Y-115622178D01*
X111679416Y-115709837D01*
X111679415Y-115709838D01*
X111679414Y-115709838D01*
X111533642Y-115770219D01*
X111378893Y-115801000D01*
X111221107Y-115801000D01*
X111066358Y-115770219D01*
X110920586Y-115709838D01*
X110920585Y-115709838D01*
X110920584Y-115709837D01*
X110789392Y-115622178D01*
X110677822Y-115510608D01*
X110590163Y-115379416D01*
X110590162Y-115379414D01*
X110529781Y-115233642D01*
X110499000Y-115078893D01*
X110499000Y-114921107D01*
X110529781Y-114766358D01*
X110590162Y-114620586D01*
X110623816Y-114570219D01*
X110677822Y-114489392D01*
X110789392Y-114377822D01*
X110920584Y-114290163D01*
X110920586Y-114290162D01*
X111066358Y-114229781D01*
X111221107Y-114199000D01*
X111378893Y-114199000D01*
X111533642Y-114229781D01*
G37*
G36*
X154652764Y-112568892D02*
G01*
X154852410Y-112608604D01*
X155134674Y-112725521D01*
X155388705Y-112895259D01*
X155604741Y-113111295D01*
X155774479Y-113365326D01*
X155891396Y-113647590D01*
X155891676Y-113648997D01*
X155951000Y-113947239D01*
X155951000Y-114252761D01*
X155949603Y-114259782D01*
X155891396Y-114552410D01*
X155774479Y-114834674D01*
X155604741Y-115088705D01*
X155388705Y-115304741D01*
X155134674Y-115474479D01*
X154852410Y-115591396D01*
X154702585Y-115621198D01*
X154552761Y-115651000D01*
X154247239Y-115651000D01*
X154097415Y-115621198D01*
X153947590Y-115591396D01*
X153665326Y-115474479D01*
X153411295Y-115304741D01*
X153195259Y-115088705D01*
X153025521Y-114834674D01*
X152908604Y-114552410D01*
X152850397Y-114259782D01*
X152849000Y-114252761D01*
X152849000Y-113947239D01*
X152908324Y-113648997D01*
X152908604Y-113647590D01*
X153025521Y-113365326D01*
X153195259Y-113111295D01*
X153411295Y-112895259D01*
X153665326Y-112725521D01*
X153947590Y-112608604D01*
X154147236Y-112568892D01*
X154247239Y-112549000D01*
X154552761Y-112549000D01*
X154652764Y-112568892D01*
G37*
G36*
X90733642Y-113029781D02*
G01*
X90879414Y-113090162D01*
X90879416Y-113090163D01*
X91010608Y-113177822D01*
X91122178Y-113289392D01*
X91123252Y-113291000D01*
X91209838Y-113420586D01*
X91270219Y-113566358D01*
X91301000Y-113721107D01*
X91301000Y-113878893D01*
X91270219Y-114033642D01*
X91254885Y-114070661D01*
X91209837Y-114179416D01*
X91122178Y-114310608D01*
X91010608Y-114422178D01*
X90879416Y-114509837D01*
X90879415Y-114509838D01*
X90879414Y-114509838D01*
X90733642Y-114570219D01*
X90578893Y-114601000D01*
X90421107Y-114601000D01*
X90266358Y-114570219D01*
X90120586Y-114509838D01*
X90120585Y-114509838D01*
X90120584Y-114509837D01*
X89989392Y-114422178D01*
X89877822Y-114310608D01*
X89790163Y-114179416D01*
X89745115Y-114070661D01*
X89729781Y-114033642D01*
X89699000Y-113878893D01*
X89699000Y-113721107D01*
X89729781Y-113566358D01*
X89790162Y-113420586D01*
X89876748Y-113291000D01*
X89877822Y-113289392D01*
X89989392Y-113177822D01*
X90120584Y-113090163D01*
X90120586Y-113090162D01*
X90266358Y-113029781D01*
X90421107Y-112999000D01*
X90578893Y-112999000D01*
X90733642Y-113029781D01*
G37*
G36*
X146673642Y-111719781D02*
G01*
X146819414Y-111780162D01*
X146819416Y-111780163D01*
X146950608Y-111867822D01*
X147062178Y-111979392D01*
X147149837Y-112110584D01*
X147149838Y-112110586D01*
X147210219Y-112256358D01*
X147241000Y-112411107D01*
X147241000Y-112568893D01*
X147210219Y-112723642D01*
X147149838Y-112869414D01*
X147149837Y-112869416D01*
X147062178Y-113000608D01*
X146950608Y-113112178D01*
X146819416Y-113199837D01*
X146819415Y-113199838D01*
X146819414Y-113199838D01*
X146673642Y-113260219D01*
X146518893Y-113291000D01*
X146361107Y-113291000D01*
X146206358Y-113260219D01*
X146060586Y-113199838D01*
X146060585Y-113199838D01*
X146060584Y-113199837D01*
X145929392Y-113112178D01*
X145817822Y-113000608D01*
X145730163Y-112869416D01*
X145730162Y-112869414D01*
X145669781Y-112723642D01*
X145639000Y-112568893D01*
X145639000Y-112411107D01*
X145669781Y-112256358D01*
X145730162Y-112110586D01*
X145730163Y-112110584D01*
X145817822Y-111979392D01*
X145929392Y-111867822D01*
X146060584Y-111780163D01*
X146060586Y-111780162D01*
X146206358Y-111719781D01*
X146361107Y-111689000D01*
X146518893Y-111689000D01*
X146673642Y-111719781D01*
G37*
G36*
X52644072Y-110620918D02*
G01*
X52883805Y-110720218D01*
X52889939Y-110722759D01*
X52981303Y-110783807D01*
X53111211Y-110870609D01*
X53299391Y-111058789D01*
X53372813Y-111168672D01*
X53388317Y-111191875D01*
X53447242Y-111280063D01*
X53549082Y-111525928D01*
X53601000Y-111786937D01*
X53601000Y-112053063D01*
X53568142Y-112218250D01*
X53549082Y-112314072D01*
X53447241Y-112559939D01*
X53441258Y-112568893D01*
X53299391Y-112781211D01*
X53111211Y-112969391D01*
X53020831Y-113029781D01*
X52889939Y-113117241D01*
X52889938Y-113117242D01*
X52889937Y-113117242D01*
X52644072Y-113219082D01*
X52383063Y-113271000D01*
X52116937Y-113271000D01*
X51855928Y-113219082D01*
X51610063Y-113117242D01*
X51610062Y-113117242D01*
X51610061Y-113117241D01*
X51479169Y-113029781D01*
X51388789Y-112969391D01*
X51200609Y-112781211D01*
X51058742Y-112568893D01*
X51052759Y-112559939D01*
X50950918Y-112314072D01*
X50931858Y-112218250D01*
X50899000Y-112053063D01*
X50899000Y-111786937D01*
X50950918Y-111525928D01*
X51052758Y-111280063D01*
X51111684Y-111191875D01*
X51127187Y-111168672D01*
X51200609Y-111058789D01*
X51388789Y-110870609D01*
X51518697Y-110783807D01*
X51610061Y-110722759D01*
X51616196Y-110720218D01*
X51855928Y-110620918D01*
X52116937Y-110569000D01*
X52383063Y-110569000D01*
X52644072Y-110620918D01*
G37*
G36*
X56651000Y-110644001D02*
G01*
X56653402Y-110668387D01*
X56660515Y-110691836D01*
X56672066Y-110713447D01*
X56687611Y-110732389D01*
X56706553Y-110747934D01*
X56728164Y-110759485D01*
X56751613Y-110766598D01*
X56775999Y-110769000D01*
X56913365Y-110769000D01*
X57024549Y-110791116D01*
X57135734Y-110813232D01*
X57345203Y-110899997D01*
X57533720Y-111025960D01*
X57694040Y-111186280D01*
X57820003Y-111374797D01*
X57882604Y-111525928D01*
X57906768Y-111584267D01*
X57951000Y-111806635D01*
X57951000Y-112033365D01*
X57941216Y-112082552D01*
X57906768Y-112255734D01*
X57820003Y-112465203D01*
X57694040Y-112653720D01*
X57533720Y-112814040D01*
X57345203Y-112940003D01*
X57345202Y-112940004D01*
X57345201Y-112940004D01*
X57283850Y-112965416D01*
X57135734Y-113026768D01*
X57024549Y-113048884D01*
X56913365Y-113071000D01*
X56686635Y-113071000D01*
X56575451Y-113048884D01*
X56464266Y-113026768D01*
X56316150Y-112965416D01*
X56254799Y-112940004D01*
X56254798Y-112940004D01*
X56254797Y-112940003D01*
X56066280Y-112814040D01*
X55905960Y-112653720D01*
X55779997Y-112465203D01*
X55693232Y-112255734D01*
X55658784Y-112082552D01*
X55649000Y-112033365D01*
X55649000Y-111806635D01*
X55693232Y-111584264D01*
X55738974Y-111473833D01*
X55746087Y-111450384D01*
X55748489Y-111425998D01*
X55746087Y-111401612D01*
X55738974Y-111378163D01*
X55727423Y-111356553D01*
X55711877Y-111337611D01*
X55692935Y-111322066D01*
X55671324Y-111310515D01*
X55647875Y-111303402D01*
X55623490Y-111301000D01*
X55620353Y-111301000D01*
X55562203Y-111289433D01*
X55507425Y-111266743D01*
X55507424Y-111266743D01*
X55507423Y-111266742D01*
X55458124Y-111233802D01*
X55416198Y-111191876D01*
X55383258Y-111142577D01*
X55383257Y-111142575D01*
X55360567Y-111087797D01*
X55349000Y-111029647D01*
X55349000Y-110970353D01*
X55360567Y-110912203D01*
X55383257Y-110857425D01*
X55404665Y-110825385D01*
X55416198Y-110808124D01*
X55423323Y-110800999D01*
X55903670Y-110800999D01*
X55906072Y-110825385D01*
X55913185Y-110848834D01*
X55942652Y-110919973D01*
X55944903Y-110927396D01*
X55956454Y-110949007D01*
X55971999Y-110967949D01*
X55990941Y-110983494D01*
X56012552Y-110995045D01*
X56036001Y-111002159D01*
X56060387Y-111004561D01*
X56084773Y-111002159D01*
X56108222Y-110995047D01*
X56129831Y-110983497D01*
X56247415Y-110904929D01*
X56266354Y-110889387D01*
X56281899Y-110870445D01*
X56293450Y-110848834D01*
X56300563Y-110825385D01*
X56302965Y-110800999D01*
X56300563Y-110776613D01*
X56293450Y-110753164D01*
X56281899Y-110731553D01*
X56266354Y-110712611D01*
X56247412Y-110697066D01*
X56225801Y-110685515D01*
X56202352Y-110678402D01*
X56177966Y-110676000D01*
X56028669Y-110676000D01*
X56004283Y-110678402D01*
X55980834Y-110685515D01*
X55959223Y-110697066D01*
X55940281Y-110712611D01*
X55924736Y-110731553D01*
X55913185Y-110753164D01*
X55906072Y-110776613D01*
X55903670Y-110800999D01*
X55423323Y-110800999D01*
X55458124Y-110766198D01*
X55507423Y-110733258D01*
X55521840Y-110727286D01*
X55543446Y-110715738D01*
X55562388Y-110700193D01*
X55577933Y-110681251D01*
X55589485Y-110659640D01*
X55596598Y-110636191D01*
X55599000Y-110611804D01*
X55599000Y-104774000D01*
X56651000Y-104774000D01*
X56651000Y-110644001D01*
G37*
G36*
X150654591Y-111978085D02*
G01*
X150688569Y-111988393D01*
X150719890Y-112005134D01*
X150747339Y-112027661D01*
X150769866Y-112055110D01*
X150786607Y-112086431D01*
X150796915Y-112120409D01*
X150801000Y-112161890D01*
X150801000Y-112838110D01*
X150796915Y-112879591D01*
X150786607Y-112913569D01*
X150769866Y-112944890D01*
X150747339Y-112972339D01*
X150719890Y-112994866D01*
X150688569Y-113011607D01*
X150654591Y-113021915D01*
X150613110Y-113026000D01*
X150011890Y-113026000D01*
X149970409Y-113021915D01*
X149936431Y-113011607D01*
X149905110Y-112994866D01*
X149877661Y-112972339D01*
X149855134Y-112944890D01*
X149838393Y-112913569D01*
X149828085Y-112879591D01*
X149824000Y-112838110D01*
X149824000Y-112161890D01*
X149828085Y-112120409D01*
X149838393Y-112086431D01*
X149855134Y-112055110D01*
X149877661Y-112027661D01*
X149905110Y-112005134D01*
X149936431Y-111988393D01*
X149970409Y-111978085D01*
X150011890Y-111974000D01*
X150613110Y-111974000D01*
X150654591Y-111978085D01*
G37*
G36*
X152229591Y-111978085D02*
G01*
X152263569Y-111988393D01*
X152294890Y-112005134D01*
X152322339Y-112027661D01*
X152344866Y-112055110D01*
X152361607Y-112086431D01*
X152371915Y-112120409D01*
X152376000Y-112161890D01*
X152376000Y-112838110D01*
X152371915Y-112879591D01*
X152361607Y-112913569D01*
X152344866Y-112944890D01*
X152322339Y-112972339D01*
X152294890Y-112994866D01*
X152263569Y-113011607D01*
X152229591Y-113021915D01*
X152188110Y-113026000D01*
X151586890Y-113026000D01*
X151545409Y-113021915D01*
X151511431Y-113011607D01*
X151480110Y-112994866D01*
X151452661Y-112972339D01*
X151430134Y-112944890D01*
X151413393Y-112913569D01*
X151403085Y-112879591D01*
X151399000Y-112838110D01*
X151399000Y-112161890D01*
X151403085Y-112120409D01*
X151413393Y-112086431D01*
X151430134Y-112055110D01*
X151452661Y-112027661D01*
X151480110Y-112005134D01*
X151511431Y-111988393D01*
X151545409Y-111978085D01*
X151586890Y-111974000D01*
X152188110Y-111974000D01*
X152229591Y-111978085D01*
G37*
G36*
X91501000Y-111501000D02*
G01*
X89699000Y-111501000D01*
X89699000Y-109699000D01*
X91501000Y-109699000D01*
X91501000Y-111501000D01*
G37*
G36*
X152301000Y-110826000D02*
G01*
X149899000Y-110826000D01*
X149899000Y-110224000D01*
X152301000Y-110224000D01*
X152301000Y-110826000D01*
G37*
G36*
X153979591Y-109815585D02*
G01*
X154013569Y-109825893D01*
X154044890Y-109842634D01*
X154072339Y-109865161D01*
X154094866Y-109892610D01*
X154111607Y-109923931D01*
X154121915Y-109957909D01*
X154126000Y-109999390D01*
X154126000Y-110600610D01*
X154121915Y-110642091D01*
X154111607Y-110676069D01*
X154094866Y-110707390D01*
X154072339Y-110734839D01*
X154044890Y-110757366D01*
X154013569Y-110774107D01*
X153979591Y-110784415D01*
X153938110Y-110788500D01*
X153261890Y-110788500D01*
X153220409Y-110784415D01*
X153186431Y-110774107D01*
X153155110Y-110757366D01*
X153127661Y-110734839D01*
X153105134Y-110707390D01*
X153088393Y-110676069D01*
X153078085Y-110642091D01*
X153074000Y-110600610D01*
X153074000Y-109999390D01*
X153078085Y-109957909D01*
X153088393Y-109923931D01*
X153105134Y-109892610D01*
X153127661Y-109865161D01*
X153155110Y-109842634D01*
X153186431Y-109825893D01*
X153220409Y-109815585D01*
X153261890Y-109811500D01*
X153938110Y-109811500D01*
X153979591Y-109815585D01*
G37*
G36*
X146673642Y-109179781D02*
G01*
X146819414Y-109240162D01*
X146819416Y-109240163D01*
X146950608Y-109327822D01*
X147062178Y-109439392D01*
X147149837Y-109570584D01*
X147149838Y-109570586D01*
X147210219Y-109716358D01*
X147241000Y-109871107D01*
X147241000Y-110028893D01*
X147210219Y-110183642D01*
X147193502Y-110224000D01*
X147149837Y-110329416D01*
X147062178Y-110460608D01*
X146950608Y-110572178D01*
X146819416Y-110659837D01*
X146819415Y-110659838D01*
X146819414Y-110659838D01*
X146673642Y-110720219D01*
X146518893Y-110751000D01*
X146361107Y-110751000D01*
X146206358Y-110720219D01*
X146060586Y-110659838D01*
X146060585Y-110659838D01*
X146060584Y-110659837D01*
X145929392Y-110572178D01*
X145817822Y-110460608D01*
X145730163Y-110329416D01*
X145686498Y-110224000D01*
X145669781Y-110183642D01*
X145639000Y-110028893D01*
X145639000Y-109871107D01*
X145669781Y-109716358D01*
X145730162Y-109570586D01*
X145730163Y-109570584D01*
X145817822Y-109439392D01*
X145929392Y-109327822D01*
X146060584Y-109240163D01*
X146060586Y-109240162D01*
X146206358Y-109179781D01*
X146361107Y-109149000D01*
X146518893Y-109149000D01*
X146673642Y-109179781D01*
G37*
G36*
X57024549Y-102151116D02*
G01*
X57135734Y-102173232D01*
X57345203Y-102259997D01*
X57533720Y-102385960D01*
X57694040Y-102546280D01*
X57820003Y-102734797D01*
X57906768Y-102944266D01*
X57951000Y-103166636D01*
X57951000Y-103393364D01*
X57906768Y-103615734D01*
X57820003Y-103825203D01*
X57694040Y-104013720D01*
X57533720Y-104174040D01*
X57352585Y-104295071D01*
X57333646Y-104310613D01*
X57318101Y-104329555D01*
X57306550Y-104351166D01*
X57299437Y-104374615D01*
X57297035Y-104399001D01*
X57299437Y-104423387D01*
X57306550Y-104446836D01*
X57318101Y-104468447D01*
X57333646Y-104487389D01*
X57352588Y-104502934D01*
X57374199Y-104514485D01*
X57397648Y-104521598D01*
X57422034Y-104524000D01*
X58001000Y-104524000D01*
X58001000Y-110426000D01*
X56949000Y-110426000D01*
X56949000Y-104555999D01*
X56946598Y-104531613D01*
X56939485Y-104508164D01*
X56927934Y-104486553D01*
X56912389Y-104467611D01*
X56893447Y-104452066D01*
X56871836Y-104440515D01*
X56848387Y-104433402D01*
X56824001Y-104431000D01*
X56686635Y-104431000D01*
X56525766Y-104399001D01*
X56464266Y-104386768D01*
X56254797Y-104300003D01*
X56129831Y-104216503D01*
X56108223Y-104204954D01*
X56084774Y-104197841D01*
X56060388Y-104195439D01*
X56036002Y-104197841D01*
X56012553Y-104204954D01*
X55990942Y-104216505D01*
X55972000Y-104232050D01*
X55956455Y-104250992D01*
X55944904Y-104272603D01*
X55942654Y-104280022D01*
X55922204Y-104329391D01*
X55916742Y-104342577D01*
X55883802Y-104391876D01*
X55841876Y-104433802D01*
X55792577Y-104466742D01*
X55792576Y-104466743D01*
X55792575Y-104466743D01*
X55737797Y-104489433D01*
X55679647Y-104501000D01*
X55620353Y-104501000D01*
X55562203Y-104489433D01*
X55507425Y-104466743D01*
X55507424Y-104466743D01*
X55507423Y-104466742D01*
X55458124Y-104433802D01*
X55416198Y-104391876D01*
X55383258Y-104342577D01*
X55375071Y-104322812D01*
X55360567Y-104287797D01*
X55349000Y-104229647D01*
X55349000Y-104170353D01*
X55360567Y-104112203D01*
X55383257Y-104057425D01*
X55394801Y-104040148D01*
X55416198Y-104008124D01*
X55458124Y-103966198D01*
X55507423Y-103933258D01*
X55507425Y-103933257D01*
X55562203Y-103910567D01*
X55620353Y-103899000D01*
X55623490Y-103899000D01*
X55647876Y-103896598D01*
X55671325Y-103889485D01*
X55692936Y-103877934D01*
X55711878Y-103862389D01*
X55727423Y-103843447D01*
X55738974Y-103821836D01*
X55746087Y-103798387D01*
X55748489Y-103774001D01*
X55746087Y-103749615D01*
X55738974Y-103726167D01*
X55693232Y-103615736D01*
X55649000Y-103393365D01*
X55649000Y-103166635D01*
X55693232Y-102944267D01*
X55717397Y-102885928D01*
X55779997Y-102734797D01*
X55905960Y-102546280D01*
X56066280Y-102385960D01*
X56254797Y-102259997D01*
X56464266Y-102173232D01*
X56575451Y-102151116D01*
X56686635Y-102129000D01*
X56913365Y-102129000D01*
X57024549Y-102151116D01*
G37*
G36*
X153979591Y-108240585D02*
G01*
X154013569Y-108250893D01*
X154044890Y-108267634D01*
X154072339Y-108290161D01*
X154094866Y-108317610D01*
X154111607Y-108348931D01*
X154121915Y-108382909D01*
X154126000Y-108424390D01*
X154126000Y-109025610D01*
X154121915Y-109067091D01*
X154111607Y-109101069D01*
X154094866Y-109132390D01*
X154072339Y-109159839D01*
X154044890Y-109182366D01*
X154013569Y-109199107D01*
X153979591Y-109209415D01*
X153938110Y-109213500D01*
X153261890Y-109213500D01*
X153220409Y-109209415D01*
X153186431Y-109199107D01*
X153155110Y-109182366D01*
X153127661Y-109159839D01*
X153105134Y-109132390D01*
X153088393Y-109101069D01*
X153078085Y-109067091D01*
X153074000Y-109025610D01*
X153074000Y-108424390D01*
X153078085Y-108382909D01*
X153088393Y-108348931D01*
X153105134Y-108317610D01*
X153127661Y-108290161D01*
X153155110Y-108267634D01*
X153186431Y-108250893D01*
X153220409Y-108240585D01*
X153261890Y-108236500D01*
X153938110Y-108236500D01*
X153979591Y-108240585D01*
G37*
G36*
X90713512Y-107163927D02*
G01*
X90862812Y-107193624D01*
X91026784Y-107261544D01*
X91174354Y-107360147D01*
X91299853Y-107485646D01*
X91398456Y-107633216D01*
X91466376Y-107797188D01*
X91501000Y-107971259D01*
X91501000Y-108148741D01*
X91466376Y-108322812D01*
X91398456Y-108486784D01*
X91299853Y-108634354D01*
X91174354Y-108759853D01*
X91026784Y-108858456D01*
X90862812Y-108926376D01*
X90713512Y-108956073D01*
X90688742Y-108961000D01*
X90511258Y-108961000D01*
X90486488Y-108956073D01*
X90337188Y-108926376D01*
X90173216Y-108858456D01*
X90025646Y-108759853D01*
X89900147Y-108634354D01*
X89801544Y-108486784D01*
X89733624Y-108322812D01*
X89699000Y-108148741D01*
X89699000Y-107971259D01*
X89733624Y-107797188D01*
X89801544Y-107633216D01*
X89900147Y-107485646D01*
X90025646Y-107360147D01*
X90173216Y-107261544D01*
X90337188Y-107193624D01*
X90486488Y-107163927D01*
X90511258Y-107159000D01*
X90688742Y-107159000D01*
X90713512Y-107163927D01*
G37*
G36*
X152301000Y-108776000D02*
G01*
X149899000Y-108776000D01*
X149899000Y-108174000D01*
X152301000Y-108174000D01*
X152301000Y-108776000D01*
G37*
G36*
X108333642Y-107029781D02*
G01*
X108479414Y-107090162D01*
X108479416Y-107090163D01*
X108610608Y-107177822D01*
X108722178Y-107289392D01*
X108769455Y-107360148D01*
X108809838Y-107420586D01*
X108870219Y-107566358D01*
X108901000Y-107721107D01*
X108901000Y-107878893D01*
X108870219Y-108033642D01*
X108811252Y-108176000D01*
X108809837Y-108179416D01*
X108722178Y-108310608D01*
X108610608Y-108422178D01*
X108479416Y-108509837D01*
X108479415Y-108509838D01*
X108479414Y-108509838D01*
X108333642Y-108570219D01*
X108178893Y-108601000D01*
X108021107Y-108601000D01*
X107866358Y-108570219D01*
X107720586Y-108509838D01*
X107720585Y-108509838D01*
X107720584Y-108509837D01*
X107589392Y-108422178D01*
X107477822Y-108310608D01*
X107390163Y-108179416D01*
X107388748Y-108176000D01*
X107329781Y-108033642D01*
X107299000Y-107878893D01*
X107299000Y-107721107D01*
X107329781Y-107566358D01*
X107390162Y-107420586D01*
X107430545Y-107360148D01*
X107477822Y-107289392D01*
X107589392Y-107177822D01*
X107720584Y-107090163D01*
X107720586Y-107090162D01*
X107866358Y-107029781D01*
X108021107Y-106999000D01*
X108178893Y-106999000D01*
X108333642Y-107029781D01*
G37*
G36*
X146673642Y-106639781D02*
G01*
X146819414Y-106700162D01*
X146819416Y-106700163D01*
X146950608Y-106787822D01*
X147062178Y-106899392D01*
X147149300Y-107029781D01*
X147149838Y-107030586D01*
X147210219Y-107176358D01*
X147241000Y-107331107D01*
X147241000Y-107488893D01*
X147210219Y-107643642D01*
X147178131Y-107721108D01*
X147149837Y-107789416D01*
X147062178Y-107920608D01*
X146950608Y-108032178D01*
X146819416Y-108119837D01*
X146819415Y-108119838D01*
X146819414Y-108119838D01*
X146673642Y-108180219D01*
X146518893Y-108211000D01*
X146361107Y-108211000D01*
X146206358Y-108180219D01*
X146060586Y-108119838D01*
X146060585Y-108119838D01*
X146060584Y-108119837D01*
X145929392Y-108032178D01*
X145817822Y-107920608D01*
X145730163Y-107789416D01*
X145701869Y-107721108D01*
X145669781Y-107643642D01*
X145639000Y-107488893D01*
X145639000Y-107331107D01*
X145669781Y-107176358D01*
X145730162Y-107030586D01*
X145730700Y-107029781D01*
X145817822Y-106899392D01*
X145929392Y-106787822D01*
X146060584Y-106700163D01*
X146060586Y-106700162D01*
X146206358Y-106639781D01*
X146361107Y-106609000D01*
X146518893Y-106609000D01*
X146673642Y-106639781D01*
G37*
G36*
X115001000Y-107501000D02*
G01*
X113199000Y-107501000D01*
X113199000Y-105699000D01*
X115001000Y-105699000D01*
X115001000Y-107501000D01*
G37*
G36*
X146673642Y-104099781D02*
G01*
X146819414Y-104160162D01*
X146819416Y-104160163D01*
X146950608Y-104247822D01*
X147062178Y-104359392D01*
X147149067Y-104489432D01*
X147149838Y-104490586D01*
X147210219Y-104636358D01*
X147241000Y-104791107D01*
X147241000Y-104948893D01*
X147210219Y-105103642D01*
X147180247Y-105176000D01*
X147149837Y-105249416D01*
X147062178Y-105380608D01*
X146950608Y-105492178D01*
X146819416Y-105579837D01*
X146819415Y-105579838D01*
X146819414Y-105579838D01*
X146673642Y-105640219D01*
X146518893Y-105671000D01*
X146361107Y-105671000D01*
X146206358Y-105640219D01*
X146060586Y-105579838D01*
X146060585Y-105579838D01*
X146060584Y-105579837D01*
X145929392Y-105492178D01*
X145817822Y-105380608D01*
X145730163Y-105249416D01*
X145699753Y-105176000D01*
X145669781Y-105103642D01*
X145639000Y-104948893D01*
X145639000Y-104791107D01*
X145669781Y-104636358D01*
X145730162Y-104490586D01*
X145730933Y-104489432D01*
X145817822Y-104359392D01*
X145929392Y-104247822D01*
X146060584Y-104160163D01*
X146060586Y-104160162D01*
X146206358Y-104099781D01*
X146361107Y-104069000D01*
X146518893Y-104069000D01*
X146673642Y-104099781D01*
G37*
G36*
X138311098Y-103843447D02*
G01*
X138462812Y-103873624D01*
X138626784Y-103941544D01*
X138774354Y-104040147D01*
X138899853Y-104165646D01*
X138998456Y-104313216D01*
X139066376Y-104477188D01*
X139082052Y-104555999D01*
X139097638Y-104634354D01*
X139101000Y-104651259D01*
X139101000Y-104828741D01*
X139066376Y-105002812D01*
X138998456Y-105166784D01*
X138899853Y-105314354D01*
X138774354Y-105439853D01*
X138626784Y-105538456D01*
X138462812Y-105606376D01*
X138313512Y-105636073D01*
X138288742Y-105641000D01*
X138111258Y-105641000D01*
X138086488Y-105636073D01*
X137937188Y-105606376D01*
X137773216Y-105538456D01*
X137625646Y-105439853D01*
X137500147Y-105314354D01*
X137401544Y-105166784D01*
X137333624Y-105002812D01*
X137299000Y-104828741D01*
X137299000Y-104651259D01*
X137302363Y-104634354D01*
X137317948Y-104555999D01*
X137333624Y-104477188D01*
X137401544Y-104313216D01*
X137500147Y-104165646D01*
X137625646Y-104040147D01*
X137773216Y-103941544D01*
X137937188Y-103873624D01*
X138088902Y-103843447D01*
X138111258Y-103839000D01*
X138288742Y-103839000D01*
X138311098Y-103843447D01*
G37*
G36*
X154702585Y-101978802D02*
G01*
X154852410Y-102008604D01*
X155134674Y-102125521D01*
X155388705Y-102295259D01*
X155604741Y-102511295D01*
X155774479Y-102765326D01*
X155891396Y-103047590D01*
X155913557Y-103159000D01*
X155951000Y-103347239D01*
X155951000Y-103652761D01*
X155931734Y-103749615D01*
X155891396Y-103952410D01*
X155774479Y-104234674D01*
X155604741Y-104488705D01*
X155388705Y-104704741D01*
X155134674Y-104874479D01*
X154852410Y-104991396D01*
X154702585Y-105021198D01*
X154552761Y-105051000D01*
X154247239Y-105051000D01*
X154097415Y-105021198D01*
X153947590Y-104991396D01*
X153665326Y-104874479D01*
X153411295Y-104704741D01*
X153195259Y-104488705D01*
X153025521Y-104234674D01*
X152908604Y-103952410D01*
X152868266Y-103749615D01*
X152849000Y-103652761D01*
X152849000Y-103347239D01*
X152886443Y-103159000D01*
X152908604Y-103047590D01*
X153025521Y-102765326D01*
X153195259Y-102511295D01*
X153411295Y-102295259D01*
X153665326Y-102125521D01*
X153947590Y-102008604D01*
X154097415Y-101978802D01*
X154247239Y-101949000D01*
X154552761Y-101949000D01*
X154702585Y-101978802D01*
G37*
G36*
X114213512Y-103163927D02*
G01*
X114362812Y-103193624D01*
X114526784Y-103261544D01*
X114674354Y-103360147D01*
X114799853Y-103485646D01*
X114898456Y-103633216D01*
X114966376Y-103797188D01*
X114990792Y-103919939D01*
X115001000Y-103971258D01*
X115001000Y-104148742D01*
X114997637Y-104165647D01*
X114966376Y-104322812D01*
X114898456Y-104486784D01*
X114799853Y-104634354D01*
X114674354Y-104759853D01*
X114526784Y-104858456D01*
X114362812Y-104926376D01*
X114213512Y-104956073D01*
X114188742Y-104961000D01*
X114011258Y-104961000D01*
X113986488Y-104956073D01*
X113837188Y-104926376D01*
X113673216Y-104858456D01*
X113525646Y-104759853D01*
X113400147Y-104634354D01*
X113301544Y-104486784D01*
X113233624Y-104322812D01*
X113202363Y-104165647D01*
X113199000Y-104148742D01*
X113199000Y-103971258D01*
X113209208Y-103919939D01*
X113233624Y-103797188D01*
X113301544Y-103633216D01*
X113400147Y-103485646D01*
X113525646Y-103360147D01*
X113673216Y-103261544D01*
X113837188Y-103193624D01*
X113986488Y-103163927D01*
X114011258Y-103159000D01*
X114188742Y-103159000D01*
X114213512Y-103163927D01*
G37*
G36*
X52644072Y-101980918D02*
G01*
X52889939Y-102082759D01*
X52910291Y-102096358D01*
X53111211Y-102230609D01*
X53299391Y-102418789D01*
X53447242Y-102640063D01*
X53549082Y-102885928D01*
X53601000Y-103146937D01*
X53601000Y-103413063D01*
X53549082Y-103674072D01*
X53459856Y-103889485D01*
X53447241Y-103919939D01*
X53384579Y-104013719D01*
X53299391Y-104141211D01*
X53111211Y-104329391D01*
X53017697Y-104391875D01*
X52889939Y-104477241D01*
X52889938Y-104477242D01*
X52889937Y-104477242D01*
X52644072Y-104579082D01*
X52383063Y-104631000D01*
X52116937Y-104631000D01*
X51855928Y-104579082D01*
X51610063Y-104477242D01*
X51610062Y-104477242D01*
X51610061Y-104477241D01*
X51482303Y-104391875D01*
X51388789Y-104329391D01*
X51200609Y-104141211D01*
X51115421Y-104013719D01*
X51052759Y-103919939D01*
X51040145Y-103889485D01*
X50950918Y-103674072D01*
X50899000Y-103413063D01*
X50899000Y-103146937D01*
X50950918Y-102885928D01*
X51052758Y-102640063D01*
X51200609Y-102418789D01*
X51388789Y-102230609D01*
X51589709Y-102096358D01*
X51610061Y-102082759D01*
X51855928Y-101980918D01*
X52116937Y-101929000D01*
X52383063Y-101929000D01*
X52644072Y-101980918D01*
G37*
G36*
X146673642Y-101559781D02*
G01*
X146819414Y-101620162D01*
X146819416Y-101620163D01*
X146950608Y-101707822D01*
X147062178Y-101819392D01*
X147149837Y-101950584D01*
X147149838Y-101950586D01*
X147210219Y-102096358D01*
X147241000Y-102251107D01*
X147241000Y-102408893D01*
X147210219Y-102563642D01*
X147178565Y-102640061D01*
X147149837Y-102709416D01*
X147062178Y-102840608D01*
X146950608Y-102952178D01*
X146819416Y-103039837D01*
X146819415Y-103039838D01*
X146819414Y-103039838D01*
X146673642Y-103100219D01*
X146518893Y-103131000D01*
X146361107Y-103131000D01*
X146206358Y-103100219D01*
X146060586Y-103039838D01*
X146060585Y-103039838D01*
X146060584Y-103039837D01*
X145929392Y-102952178D01*
X145817822Y-102840608D01*
X145730163Y-102709416D01*
X145701435Y-102640061D01*
X145669781Y-102563642D01*
X145639000Y-102408893D01*
X145639000Y-102251107D01*
X145669781Y-102096358D01*
X145730162Y-101950586D01*
X145730163Y-101950584D01*
X145817822Y-101819392D01*
X145929392Y-101707822D01*
X146060584Y-101620163D01*
X146060586Y-101620162D01*
X146206358Y-101559781D01*
X146361107Y-101529000D01*
X146518893Y-101529000D01*
X146673642Y-101559781D01*
G37*
G36*
X139101000Y-103101000D02*
G01*
X137299000Y-103101000D01*
X137299000Y-101299000D01*
X139101000Y-101299000D01*
X139101000Y-103101000D01*
G37*
G36*
X62577395Y-99525546D02*
G01*
X62750466Y-99597234D01*
X62750467Y-99597235D01*
X62906227Y-99701310D01*
X63038690Y-99833773D01*
X63038691Y-99833775D01*
X63142766Y-99989534D01*
X63214454Y-100162605D01*
X63251000Y-100346333D01*
X63251000Y-100533667D01*
X63214454Y-100717395D01*
X63142766Y-100890466D01*
X63142765Y-100890467D01*
X63038690Y-101046227D01*
X62906227Y-101178690D01*
X62827818Y-101231081D01*
X62750466Y-101282766D01*
X62577395Y-101354454D01*
X62393667Y-101391000D01*
X62206333Y-101391000D01*
X62022605Y-101354454D01*
X61849534Y-101282766D01*
X61772182Y-101231081D01*
X61693773Y-101178690D01*
X61561310Y-101046227D01*
X61457235Y-100890467D01*
X61457234Y-100890466D01*
X61385546Y-100717395D01*
X61349000Y-100533667D01*
X61349000Y-100346333D01*
X61385546Y-100162605D01*
X61457234Y-99989534D01*
X61561309Y-99833775D01*
X61561310Y-99833773D01*
X61693773Y-99701310D01*
X61849533Y-99597235D01*
X61849534Y-99597234D01*
X62022605Y-99525546D01*
X62206333Y-99489000D01*
X62393667Y-99489000D01*
X62577395Y-99525546D01*
G37*
G36*
X141877395Y-97125546D02*
G01*
X142050466Y-97197234D01*
X142050467Y-97197235D01*
X142206227Y-97301310D01*
X142338690Y-97433773D01*
X142338691Y-97433775D01*
X142442766Y-97589534D01*
X142514454Y-97762605D01*
X142551000Y-97946333D01*
X142551000Y-98133667D01*
X142514454Y-98317395D01*
X142442766Y-98490466D01*
X142442765Y-98490467D01*
X142338690Y-98646227D01*
X142206227Y-98778690D01*
X142152702Y-98814454D01*
X142050466Y-98882766D01*
X141877395Y-98954454D01*
X141693667Y-98991000D01*
X141506333Y-98991000D01*
X141322605Y-98954454D01*
X141149534Y-98882766D01*
X141047298Y-98814454D01*
X140993773Y-98778690D01*
X140861310Y-98646227D01*
X140757235Y-98490467D01*
X140757234Y-98490466D01*
X140685546Y-98317395D01*
X140649000Y-98133667D01*
X140649000Y-97946333D01*
X140685546Y-97762605D01*
X140757234Y-97589534D01*
X140861309Y-97433775D01*
X140861310Y-97433773D01*
X140993773Y-97301310D01*
X141149533Y-97197235D01*
X141149534Y-97197234D01*
X141322605Y-97125546D01*
X141506333Y-97089000D01*
X141693667Y-97089000D01*
X141877395Y-97125546D01*
G37*
G36*
X62577395Y-96985546D02*
G01*
X62750466Y-97057234D01*
X62750467Y-97057235D01*
X62906227Y-97161310D01*
X63038690Y-97293773D01*
X63038691Y-97293775D01*
X63142766Y-97449534D01*
X63214454Y-97622605D01*
X63251000Y-97806333D01*
X63251000Y-97993667D01*
X63214454Y-98177395D01*
X63142766Y-98350466D01*
X63142765Y-98350467D01*
X63038690Y-98506227D01*
X62906227Y-98638690D01*
X62894950Y-98646225D01*
X62750466Y-98742766D01*
X62577395Y-98814454D01*
X62393667Y-98851000D01*
X62206333Y-98851000D01*
X62022605Y-98814454D01*
X61849534Y-98742766D01*
X61705050Y-98646225D01*
X61693773Y-98638690D01*
X61561310Y-98506227D01*
X61457235Y-98350467D01*
X61457234Y-98350466D01*
X61385546Y-98177395D01*
X61349000Y-97993667D01*
X61349000Y-97806333D01*
X61385546Y-97622605D01*
X61457234Y-97449534D01*
X61561309Y-97293775D01*
X61561310Y-97293773D01*
X61693773Y-97161310D01*
X61849533Y-97057235D01*
X61849534Y-97057234D01*
X62022605Y-96985546D01*
X62206333Y-96949000D01*
X62393667Y-96949000D01*
X62577395Y-96985546D01*
G37*
G36*
X141877395Y-94585546D02*
G01*
X142050466Y-94657234D01*
X142050467Y-94657235D01*
X142206227Y-94761310D01*
X142338690Y-94893773D01*
X142338691Y-94893775D01*
X142442766Y-95049534D01*
X142514454Y-95222605D01*
X142551000Y-95406333D01*
X142551000Y-95593667D01*
X142514454Y-95777395D01*
X142442766Y-95950466D01*
X142442765Y-95950467D01*
X142338690Y-96106227D01*
X142206227Y-96238690D01*
X142152702Y-96274454D01*
X142050466Y-96342766D01*
X141877395Y-96414454D01*
X141693667Y-96451000D01*
X141506333Y-96451000D01*
X141322605Y-96414454D01*
X141149534Y-96342766D01*
X141047298Y-96274454D01*
X140993773Y-96238690D01*
X140861310Y-96106227D01*
X140757235Y-95950467D01*
X140757234Y-95950466D01*
X140685546Y-95777395D01*
X140649000Y-95593667D01*
X140649000Y-95406333D01*
X140685546Y-95222605D01*
X140757234Y-95049534D01*
X140861309Y-94893775D01*
X140861310Y-94893773D01*
X140993773Y-94761310D01*
X141149533Y-94657235D01*
X141149534Y-94657234D01*
X141322605Y-94585546D01*
X141506333Y-94549000D01*
X141693667Y-94549000D01*
X141877395Y-94585546D01*
G37*
G36*
X155551000Y-96401000D02*
G01*
X154649000Y-96401000D01*
X154649000Y-94799000D01*
X155551000Y-94799000D01*
X155551000Y-96401000D01*
G37*
G36*
X154301000Y-96401000D02*
G01*
X153399000Y-96401000D01*
X153399000Y-94799000D01*
X154301000Y-94799000D01*
X154301000Y-96401000D01*
G37*
G36*
X150551000Y-96401000D02*
G01*
X149649000Y-96401000D01*
X149649000Y-94799000D01*
X150551000Y-94799000D01*
X150551000Y-96401000D01*
G37*
G36*
X153051000Y-96401000D02*
G01*
X152149000Y-96401000D01*
X152149000Y-94799000D01*
X153051000Y-94799000D01*
X153051000Y-96401000D01*
G37*
G36*
X151801000Y-96401000D02*
G01*
X150899000Y-96401000D01*
X150899000Y-94799000D01*
X151801000Y-94799000D01*
X151801000Y-96401000D01*
G37*
G36*
X62577395Y-94445546D02*
G01*
X62750466Y-94517234D01*
X62750467Y-94517235D01*
X62906227Y-94621310D01*
X63038690Y-94753773D01*
X63091081Y-94832182D01*
X63142766Y-94909534D01*
X63214454Y-95082605D01*
X63251000Y-95266333D01*
X63251000Y-95453667D01*
X63214454Y-95637395D01*
X63142766Y-95810466D01*
X63142765Y-95810467D01*
X63038690Y-95966227D01*
X62906227Y-96098690D01*
X62894950Y-96106225D01*
X62750466Y-96202766D01*
X62577395Y-96274454D01*
X62393667Y-96311000D01*
X62206333Y-96311000D01*
X62022605Y-96274454D01*
X61849534Y-96202766D01*
X61705050Y-96106225D01*
X61693773Y-96098690D01*
X61561310Y-95966227D01*
X61457235Y-95810467D01*
X61457234Y-95810466D01*
X61385546Y-95637395D01*
X61349000Y-95453667D01*
X61349000Y-95266333D01*
X61385546Y-95082605D01*
X61457234Y-94909534D01*
X61508919Y-94832182D01*
X61561310Y-94753773D01*
X61693773Y-94621310D01*
X61849533Y-94517235D01*
X61849534Y-94517234D01*
X62022605Y-94445546D01*
X62206333Y-94409000D01*
X62393667Y-94409000D01*
X62577395Y-94445546D01*
G37*
G36*
X157401000Y-94551000D02*
G01*
X155799000Y-94551000D01*
X155799000Y-93649000D01*
X157401000Y-93649000D01*
X157401000Y-94551000D01*
G37*
G36*
X149401000Y-94551000D02*
G01*
X147799000Y-94551000D01*
X147799000Y-93649000D01*
X149401000Y-93649000D01*
X149401000Y-94551000D01*
G37*
G36*
X155051000Y-94051000D02*
G01*
X150149000Y-94051000D01*
X150149000Y-89149000D01*
X155051000Y-89149000D01*
X155051000Y-94051000D01*
G37*
G36*
X141877395Y-92045546D02*
G01*
X142050466Y-92117234D01*
X142050467Y-92117235D01*
X142206227Y-92221310D01*
X142338690Y-92353773D01*
X142391081Y-92432182D01*
X142442766Y-92509534D01*
X142514454Y-92682605D01*
X142551000Y-92866333D01*
X142551000Y-93053667D01*
X142514454Y-93237395D01*
X142442766Y-93410466D01*
X142442765Y-93410467D01*
X142338690Y-93566227D01*
X142206227Y-93698690D01*
X142152702Y-93734454D01*
X142050466Y-93802766D01*
X141877395Y-93874454D01*
X141693667Y-93911000D01*
X141506333Y-93911000D01*
X141322605Y-93874454D01*
X141149534Y-93802766D01*
X141047298Y-93734454D01*
X140993773Y-93698690D01*
X140861310Y-93566227D01*
X140757235Y-93410467D01*
X140757234Y-93410466D01*
X140685546Y-93237395D01*
X140649000Y-93053667D01*
X140649000Y-92866333D01*
X140685546Y-92682605D01*
X140757234Y-92509534D01*
X140808919Y-92432182D01*
X140861310Y-92353773D01*
X140993773Y-92221310D01*
X141149533Y-92117235D01*
X141149534Y-92117234D01*
X141322605Y-92045546D01*
X141506333Y-92009000D01*
X141693667Y-92009000D01*
X141877395Y-92045546D01*
G37*
G36*
X62577395Y-91905546D02*
G01*
X62750466Y-91977234D01*
X62750467Y-91977235D01*
X62906227Y-92081310D01*
X63038690Y-92213773D01*
X63038691Y-92213775D01*
X63142766Y-92369534D01*
X63214454Y-92542605D01*
X63251000Y-92726333D01*
X63251000Y-92913667D01*
X63214454Y-93097395D01*
X63142766Y-93270466D01*
X63142765Y-93270467D01*
X63038690Y-93426227D01*
X62906227Y-93558690D01*
X62894950Y-93566225D01*
X62750466Y-93662766D01*
X62577395Y-93734454D01*
X62393667Y-93771000D01*
X62206333Y-93771000D01*
X62022605Y-93734454D01*
X61849534Y-93662766D01*
X61705050Y-93566225D01*
X61693773Y-93558690D01*
X61561310Y-93426227D01*
X61457235Y-93270467D01*
X61457234Y-93270466D01*
X61385546Y-93097395D01*
X61349000Y-92913667D01*
X61349000Y-92726333D01*
X61385546Y-92542605D01*
X61457234Y-92369534D01*
X61561309Y-92213775D01*
X61561310Y-92213773D01*
X61693773Y-92081310D01*
X61849533Y-91977235D01*
X61849534Y-91977234D01*
X62022605Y-91905546D01*
X62206333Y-91869000D01*
X62393667Y-91869000D01*
X62577395Y-91905546D01*
G37*
G36*
X55324549Y-91321116D02*
G01*
X55435734Y-91343232D01*
X55645203Y-91429997D01*
X55833720Y-91555960D01*
X55994040Y-91716280D01*
X56120003Y-91904797D01*
X56206768Y-92114266D01*
X56251000Y-92336636D01*
X56251000Y-92563364D01*
X56206768Y-92785734D01*
X56120003Y-92995203D01*
X55994040Y-93183720D01*
X55833720Y-93344040D01*
X55645203Y-93470003D01*
X55435734Y-93556768D01*
X55388190Y-93566225D01*
X55213365Y-93601000D01*
X54986635Y-93601000D01*
X54811810Y-93566225D01*
X54764266Y-93556768D01*
X54554797Y-93470003D01*
X54366280Y-93344040D01*
X54205960Y-93183720D01*
X54079997Y-92995203D01*
X53993232Y-92785734D01*
X53949000Y-92563364D01*
X53949000Y-92336636D01*
X53993232Y-92114266D01*
X54079997Y-91904797D01*
X54205960Y-91716280D01*
X54366280Y-91555960D01*
X54554797Y-91429997D01*
X54764266Y-91343232D01*
X54875451Y-91321116D01*
X54986635Y-91299000D01*
X55213365Y-91299000D01*
X55324549Y-91321116D01*
G37*
G36*
X149401000Y-93301000D02*
G01*
X147799000Y-93301000D01*
X147799000Y-92399000D01*
X149401000Y-92399000D01*
X149401000Y-93301000D01*
G37*
G36*
X157401000Y-93301000D02*
G01*
X155799000Y-93301000D01*
X155799000Y-92399000D01*
X157401000Y-92399000D01*
X157401000Y-93301000D01*
G37*
G36*
X52713512Y-90303927D02*
G01*
X52862812Y-90333624D01*
X53026784Y-90401544D01*
X53174354Y-90500147D01*
X53299853Y-90625646D01*
X53398456Y-90773216D01*
X53466376Y-90937188D01*
X53496073Y-91086488D01*
X53501000Y-91111258D01*
X53501000Y-91288742D01*
X53496073Y-91313512D01*
X53466376Y-91462812D01*
X53398456Y-91626784D01*
X53299853Y-91774354D01*
X53174354Y-91899853D01*
X53026784Y-91998456D01*
X52862812Y-92066376D01*
X52713512Y-92096073D01*
X52688742Y-92101000D01*
X52511258Y-92101000D01*
X52486488Y-92096073D01*
X52337188Y-92066376D01*
X52173216Y-91998456D01*
X52025646Y-91899853D01*
X51900147Y-91774354D01*
X51801544Y-91626784D01*
X51733624Y-91462812D01*
X51703927Y-91313512D01*
X51699000Y-91288742D01*
X51699000Y-91111258D01*
X51703927Y-91086488D01*
X51733624Y-90937188D01*
X51801544Y-90773216D01*
X51900147Y-90625646D01*
X52025646Y-90500147D01*
X52173216Y-90401544D01*
X52337188Y-90333624D01*
X52486488Y-90303927D01*
X52511258Y-90299000D01*
X52688742Y-90299000D01*
X52713512Y-90303927D01*
G37*
G36*
X149401000Y-92051000D02*
G01*
X147799000Y-92051000D01*
X147799000Y-91149000D01*
X149401000Y-91149000D01*
X149401000Y-92051000D01*
G37*
G36*
X157401000Y-92051000D02*
G01*
X155799000Y-92051000D01*
X155799000Y-91149000D01*
X157401000Y-91149000D01*
X157401000Y-92051000D01*
G37*
G36*
X141877395Y-89505546D02*
G01*
X142050466Y-89577234D01*
X142050467Y-89577235D01*
X142206227Y-89681310D01*
X142338690Y-89813773D01*
X142338691Y-89813775D01*
X142442766Y-89969534D01*
X142514454Y-90142605D01*
X142551000Y-90326333D01*
X142551000Y-90513667D01*
X142514454Y-90697395D01*
X142442766Y-90870466D01*
X142442765Y-90870467D01*
X142338690Y-91026227D01*
X142206227Y-91158690D01*
X142152702Y-91194454D01*
X142050466Y-91262766D01*
X141877395Y-91334454D01*
X141693667Y-91371000D01*
X141506333Y-91371000D01*
X141322605Y-91334454D01*
X141149534Y-91262766D01*
X141047298Y-91194454D01*
X140993773Y-91158690D01*
X140861310Y-91026227D01*
X140757235Y-90870467D01*
X140757234Y-90870466D01*
X140685546Y-90697395D01*
X140649000Y-90513667D01*
X140649000Y-90326333D01*
X140685546Y-90142605D01*
X140757234Y-89969534D01*
X140861309Y-89813775D01*
X140861310Y-89813773D01*
X140993773Y-89681310D01*
X141149533Y-89577235D01*
X141149534Y-89577234D01*
X141322605Y-89505546D01*
X141506333Y-89469000D01*
X141693667Y-89469000D01*
X141877395Y-89505546D01*
G37*
G36*
X62577395Y-89365546D02*
G01*
X62750466Y-89437234D01*
X62750467Y-89437235D01*
X62906227Y-89541310D01*
X63038690Y-89673773D01*
X63038691Y-89673775D01*
X63142766Y-89829534D01*
X63214454Y-90002605D01*
X63251000Y-90186333D01*
X63251000Y-90373667D01*
X63214454Y-90557395D01*
X63142766Y-90730466D01*
X63142765Y-90730467D01*
X63038690Y-90886227D01*
X62906227Y-91018690D01*
X62894950Y-91026225D01*
X62750466Y-91122766D01*
X62577395Y-91194454D01*
X62393667Y-91231000D01*
X62206333Y-91231000D01*
X62022605Y-91194454D01*
X61849534Y-91122766D01*
X61705050Y-91026225D01*
X61693773Y-91018690D01*
X61561310Y-90886227D01*
X61457235Y-90730467D01*
X61457234Y-90730466D01*
X61385546Y-90557395D01*
X61349000Y-90373667D01*
X61349000Y-90186333D01*
X61385546Y-90002605D01*
X61457234Y-89829534D01*
X61561309Y-89673775D01*
X61561310Y-89673773D01*
X61693773Y-89541310D01*
X61849533Y-89437235D01*
X61849534Y-89437234D01*
X62022605Y-89365546D01*
X62206333Y-89329000D01*
X62393667Y-89329000D01*
X62577395Y-89365546D01*
G37*
G36*
X149401000Y-90801000D02*
G01*
X147799000Y-90801000D01*
X147799000Y-89899000D01*
X149401000Y-89899000D01*
X149401000Y-90801000D01*
G37*
G36*
X157401000Y-90801000D02*
G01*
X155799000Y-90801000D01*
X155799000Y-89899000D01*
X157401000Y-89899000D01*
X157401000Y-90801000D01*
G37*
G36*
X157401000Y-89551000D02*
G01*
X155799000Y-89551000D01*
X155799000Y-88649000D01*
X157401000Y-88649000D01*
X157401000Y-89551000D01*
G37*
G36*
X149401000Y-89551000D02*
G01*
X147799000Y-89551000D01*
X147799000Y-88649000D01*
X149401000Y-88649000D01*
X149401000Y-89551000D01*
G37*
G36*
X141877395Y-86965546D02*
G01*
X142050466Y-87037234D01*
X142050467Y-87037235D01*
X142206227Y-87141310D01*
X142338690Y-87273773D01*
X142339078Y-87274354D01*
X142442766Y-87429534D01*
X142514454Y-87602605D01*
X142551000Y-87786333D01*
X142551000Y-87973667D01*
X142514454Y-88157395D01*
X142442766Y-88330466D01*
X142442765Y-88330467D01*
X142338690Y-88486227D01*
X142206227Y-88618690D01*
X142152702Y-88654454D01*
X142050466Y-88722766D01*
X141877395Y-88794454D01*
X141693667Y-88831000D01*
X141506333Y-88831000D01*
X141322605Y-88794454D01*
X141149534Y-88722766D01*
X141047298Y-88654454D01*
X140993773Y-88618690D01*
X140861310Y-88486227D01*
X140757235Y-88330467D01*
X140757234Y-88330466D01*
X140685546Y-88157395D01*
X140649000Y-87973667D01*
X140649000Y-87786333D01*
X140685546Y-87602605D01*
X140757234Y-87429534D01*
X140860922Y-87274354D01*
X140861310Y-87273773D01*
X140993773Y-87141310D01*
X141149533Y-87037235D01*
X141149534Y-87037234D01*
X141322605Y-86965546D01*
X141506333Y-86929000D01*
X141693667Y-86929000D01*
X141877395Y-86965546D01*
G37*
G36*
X62577395Y-86825546D02*
G01*
X62750466Y-86897234D01*
X62750467Y-86897235D01*
X62906227Y-87001310D01*
X63038690Y-87133773D01*
X63038691Y-87133775D01*
X63142766Y-87289534D01*
X63214454Y-87462605D01*
X63251000Y-87646333D01*
X63251000Y-87833667D01*
X63214454Y-88017395D01*
X63142766Y-88190466D01*
X63142765Y-88190467D01*
X63038690Y-88346227D01*
X62906227Y-88478690D01*
X62894950Y-88486225D01*
X62750466Y-88582766D01*
X62577395Y-88654454D01*
X62393667Y-88691000D01*
X62206333Y-88691000D01*
X62022605Y-88654454D01*
X61849534Y-88582766D01*
X61705050Y-88486225D01*
X61693773Y-88478690D01*
X61561310Y-88346227D01*
X61457235Y-88190467D01*
X61457234Y-88190466D01*
X61385546Y-88017395D01*
X61349000Y-87833667D01*
X61349000Y-87646333D01*
X61385546Y-87462605D01*
X61457234Y-87289534D01*
X61561309Y-87133775D01*
X61561310Y-87133773D01*
X61693773Y-87001310D01*
X61849533Y-86897235D01*
X61849534Y-86897234D01*
X62022605Y-86825546D01*
X62206333Y-86789000D01*
X62393667Y-86789000D01*
X62577395Y-86825546D01*
G37*
G36*
X153051000Y-88401000D02*
G01*
X152149000Y-88401000D01*
X152149000Y-86799000D01*
X153051000Y-86799000D01*
X153051000Y-88401000D01*
G37*
G36*
X154301000Y-88401000D02*
G01*
X153399000Y-88401000D01*
X153399000Y-86799000D01*
X154301000Y-86799000D01*
X154301000Y-88401000D01*
G37*
G36*
X151801000Y-88401000D02*
G01*
X150899000Y-88401000D01*
X150899000Y-86799000D01*
X151801000Y-86799000D01*
X151801000Y-88401000D01*
G37*
G36*
X150551000Y-88401000D02*
G01*
X149649000Y-88401000D01*
X149649000Y-86799000D01*
X150551000Y-86799000D01*
X150551000Y-88401000D01*
G37*
G36*
X155551000Y-88401000D02*
G01*
X154649000Y-88401000D01*
X154649000Y-86799000D01*
X155551000Y-86799000D01*
X155551000Y-88401000D01*
G37*
G36*
X52713512Y-85803927D02*
G01*
X52862812Y-85833624D01*
X53026784Y-85901544D01*
X53174354Y-86000147D01*
X53299853Y-86125646D01*
X53398456Y-86273216D01*
X53466376Y-86437188D01*
X53490161Y-86556768D01*
X53501000Y-86611258D01*
X53501000Y-86788742D01*
X53496073Y-86813512D01*
X53466376Y-86962812D01*
X53398456Y-87126784D01*
X53299853Y-87274354D01*
X53174354Y-87399853D01*
X53026784Y-87498456D01*
X52862812Y-87566376D01*
X52713512Y-87596073D01*
X52688742Y-87601000D01*
X52511258Y-87601000D01*
X52486488Y-87596073D01*
X52337188Y-87566376D01*
X52173216Y-87498456D01*
X52025646Y-87399853D01*
X51900147Y-87274354D01*
X51801544Y-87126784D01*
X51733624Y-86962812D01*
X51703927Y-86813512D01*
X51699000Y-86788742D01*
X51699000Y-86611258D01*
X51709839Y-86556768D01*
X51733624Y-86437188D01*
X51801544Y-86273216D01*
X51900147Y-86125646D01*
X52025646Y-86000147D01*
X52173216Y-85901544D01*
X52337188Y-85833624D01*
X52486488Y-85803927D01*
X52511258Y-85799000D01*
X52688742Y-85799000D01*
X52713512Y-85803927D01*
G37*
G36*
X55324549Y-84321116D02*
G01*
X55435734Y-84343232D01*
X55583850Y-84404584D01*
X55634458Y-84425546D01*
X55645203Y-84429997D01*
X55833720Y-84555960D01*
X55994040Y-84716280D01*
X56120003Y-84904797D01*
X56203483Y-85106335D01*
X56206768Y-85114267D01*
X56251000Y-85336635D01*
X56251000Y-85563365D01*
X56233674Y-85650466D01*
X56206768Y-85785734D01*
X56120003Y-85995203D01*
X55994040Y-86183720D01*
X55833720Y-86344040D01*
X55645203Y-86470003D01*
X55435734Y-86556768D01*
X55324549Y-86578884D01*
X55213365Y-86601000D01*
X54986635Y-86601000D01*
X54875451Y-86578884D01*
X54764266Y-86556768D01*
X54554797Y-86470003D01*
X54366280Y-86344040D01*
X54205960Y-86183720D01*
X54079997Y-85995203D01*
X53993232Y-85785734D01*
X53966326Y-85650466D01*
X53949000Y-85563365D01*
X53949000Y-85336635D01*
X53993232Y-85114267D01*
X53996518Y-85106335D01*
X54079997Y-84904797D01*
X54205960Y-84716280D01*
X54366280Y-84555960D01*
X54554797Y-84429997D01*
X54565543Y-84425546D01*
X54616150Y-84404584D01*
X54764266Y-84343232D01*
X54875451Y-84321116D01*
X54986635Y-84299000D01*
X55213365Y-84299000D01*
X55324549Y-84321116D01*
G37*
G36*
X141877395Y-84425546D02*
G01*
X142050466Y-84497234D01*
X142050467Y-84497235D01*
X142206227Y-84601310D01*
X142338690Y-84733773D01*
X142338691Y-84733775D01*
X142442766Y-84889534D01*
X142514454Y-85062605D01*
X142551000Y-85246333D01*
X142551000Y-85433667D01*
X142514454Y-85617395D01*
X142442766Y-85790466D01*
X142432236Y-85806225D01*
X142338690Y-85946227D01*
X142206227Y-86078690D01*
X142127818Y-86131081D01*
X142050466Y-86182766D01*
X141877395Y-86254454D01*
X141693667Y-86291000D01*
X141506333Y-86291000D01*
X141322605Y-86254454D01*
X141149534Y-86182766D01*
X141072182Y-86131081D01*
X140993773Y-86078690D01*
X140861310Y-85946227D01*
X140767764Y-85806225D01*
X140757234Y-85790466D01*
X140685546Y-85617395D01*
X140649000Y-85433667D01*
X140649000Y-85246333D01*
X140685546Y-85062605D01*
X140757234Y-84889534D01*
X140861309Y-84733775D01*
X140861310Y-84733773D01*
X140993773Y-84601310D01*
X141149533Y-84497235D01*
X141149534Y-84497234D01*
X141322605Y-84425546D01*
X141506333Y-84389000D01*
X141693667Y-84389000D01*
X141877395Y-84425546D01*
G37*
G36*
X62577395Y-84285546D02*
G01*
X62750466Y-84357234D01*
X62750467Y-84357235D01*
X62906227Y-84461310D01*
X63038690Y-84593773D01*
X63038691Y-84593775D01*
X63142766Y-84749534D01*
X63214454Y-84922605D01*
X63251000Y-85106333D01*
X63251000Y-85293667D01*
X63214454Y-85477395D01*
X63142766Y-85650466D01*
X63142765Y-85650467D01*
X63038690Y-85806227D01*
X62906227Y-85938690D01*
X62894950Y-85946225D01*
X62750466Y-86042766D01*
X62577395Y-86114454D01*
X62393667Y-86151000D01*
X62206333Y-86151000D01*
X62022605Y-86114454D01*
X61849534Y-86042766D01*
X61705050Y-85946225D01*
X61693773Y-85938690D01*
X61561310Y-85806227D01*
X61457235Y-85650467D01*
X61457234Y-85650466D01*
X61385546Y-85477395D01*
X61349000Y-85293667D01*
X61349000Y-85106333D01*
X61385546Y-84922605D01*
X61457234Y-84749534D01*
X61561309Y-84593775D01*
X61561310Y-84593773D01*
X61693773Y-84461310D01*
X61849533Y-84357235D01*
X61849534Y-84357234D01*
X62022605Y-84285546D01*
X62206333Y-84249000D01*
X62393667Y-84249000D01*
X62577395Y-84285546D01*
G37*
G36*
X145879487Y-81648996D02*
G01*
X146112581Y-81745547D01*
X146116255Y-81747069D01*
X146221264Y-81817234D01*
X146329339Y-81889447D01*
X146510553Y-82070661D01*
X146652932Y-82283747D01*
X146751004Y-82520513D01*
X146801000Y-82771861D01*
X146801000Y-83028139D01*
X146751004Y-83279487D01*
X146652932Y-83516253D01*
X146652931Y-83516255D01*
X146510553Y-83729339D01*
X146329339Y-83910553D01*
X146116255Y-84052931D01*
X146116254Y-84052932D01*
X146116253Y-84052932D01*
X145879487Y-84151004D01*
X145628139Y-84201000D01*
X145371861Y-84201000D01*
X145120513Y-84151004D01*
X144883747Y-84052932D01*
X144883746Y-84052932D01*
X144883745Y-84052931D01*
X144670661Y-83910553D01*
X144489447Y-83729339D01*
X144347069Y-83516255D01*
X144347068Y-83516253D01*
X144248996Y-83279487D01*
X144199000Y-83028139D01*
X144199000Y-82771861D01*
X144248996Y-82520513D01*
X144347068Y-82283747D01*
X144489447Y-82070661D01*
X144670661Y-81889447D01*
X144778736Y-81817234D01*
X144883745Y-81747069D01*
X144887419Y-81745547D01*
X145120513Y-81648996D01*
X145371861Y-81599000D01*
X145628139Y-81599000D01*
X145879487Y-81648996D01*
G37*
G36*
X142551000Y-83751000D02*
G01*
X140649000Y-83751000D01*
X140649000Y-81849000D01*
X142551000Y-81849000D01*
X142551000Y-83751000D01*
G37*
G36*
X62577395Y-81745546D02*
G01*
X62750466Y-81817234D01*
X62750467Y-81817235D01*
X62906227Y-81921310D01*
X63038690Y-82053773D01*
X63038691Y-82053775D01*
X63142766Y-82209534D01*
X63214454Y-82382605D01*
X63251000Y-82566333D01*
X63251000Y-82753667D01*
X63214454Y-82937395D01*
X63142766Y-83110466D01*
X63142765Y-83110467D01*
X63038690Y-83266227D01*
X62906227Y-83398690D01*
X62827818Y-83451081D01*
X62750466Y-83502766D01*
X62577395Y-83574454D01*
X62393667Y-83611000D01*
X62206333Y-83611000D01*
X62022605Y-83574454D01*
X61849534Y-83502766D01*
X61772182Y-83451081D01*
X61693773Y-83398690D01*
X61561310Y-83266227D01*
X61457235Y-83110467D01*
X61457234Y-83110466D01*
X61385546Y-82937395D01*
X61349000Y-82753667D01*
X61349000Y-82566333D01*
X61385546Y-82382605D01*
X61457234Y-82209534D01*
X61561309Y-82053775D01*
X61561310Y-82053773D01*
X61693773Y-81921310D01*
X61849533Y-81817235D01*
X61849534Y-81817234D01*
X62022605Y-81745546D01*
X62206333Y-81709000D01*
X62393667Y-81709000D01*
X62577395Y-81745546D01*
G37*
G36*
X142501000Y-79401000D02*
G01*
X140699000Y-79401000D01*
X140699000Y-77599000D01*
X142501000Y-77599000D01*
X142501000Y-79401000D01*
G37*
G36*
X141713512Y-75063927D02*
G01*
X141862812Y-75093624D01*
X142026784Y-75161544D01*
X142174354Y-75260147D01*
X142299853Y-75385646D01*
X142398456Y-75533216D01*
X142466376Y-75697188D01*
X142501000Y-75871259D01*
X142501000Y-76048741D01*
X142466376Y-76222812D01*
X142398456Y-76386784D01*
X142299853Y-76534354D01*
X142174354Y-76659853D01*
X142026784Y-76758456D01*
X141862812Y-76826376D01*
X141713512Y-76856073D01*
X141688742Y-76861000D01*
X141511258Y-76861000D01*
X141486488Y-76856073D01*
X141337188Y-76826376D01*
X141173216Y-76758456D01*
X141025646Y-76659853D01*
X140900147Y-76534354D01*
X140801544Y-76386784D01*
X140733624Y-76222812D01*
X140699000Y-76048741D01*
X140699000Y-75871259D01*
X140733624Y-75697188D01*
X140801544Y-75533216D01*
X140900147Y-75385646D01*
X141025646Y-75260147D01*
X141173216Y-75161544D01*
X141337188Y-75093624D01*
X141486488Y-75063927D01*
X141511258Y-75059000D01*
X141688742Y-75059000D01*
X141713512Y-75063927D01*
G37*
G36*
X91501000Y-75901000D02*
G01*
X89699000Y-75901000D01*
X89699000Y-74099000D01*
X91501000Y-74099000D01*
X91501000Y-75901000D01*
G37*
G36*
X90713512Y-71563927D02*
G01*
X90862812Y-71593624D01*
X91026784Y-71661544D01*
X91174354Y-71760147D01*
X91299853Y-71885646D01*
X91398456Y-72033216D01*
X91466376Y-72197188D01*
X91501000Y-72371259D01*
X91501000Y-72548741D01*
X91466376Y-72722812D01*
X91398456Y-72886784D01*
X91299853Y-73034354D01*
X91174354Y-73159853D01*
X91026784Y-73258456D01*
X90862812Y-73326376D01*
X90713512Y-73356073D01*
X90688742Y-73361000D01*
X90511258Y-73361000D01*
X90486488Y-73356073D01*
X90337188Y-73326376D01*
X90173216Y-73258456D01*
X90025646Y-73159853D01*
X89900147Y-73034354D01*
X89801544Y-72886784D01*
X89733624Y-72722812D01*
X89699000Y-72548741D01*
X89699000Y-72371259D01*
X89733624Y-72197188D01*
X89801544Y-72033216D01*
X89900147Y-71885646D01*
X90025646Y-71760147D01*
X90173216Y-71661544D01*
X90337188Y-71593624D01*
X90486488Y-71563927D01*
X90511258Y-71559000D01*
X90688742Y-71559000D01*
X90713512Y-71563927D01*
G37*
G36*
X87518039Y-67892250D02*
G01*
X87707372Y-67970675D01*
X87841251Y-68026129D01*
X88132134Y-68220491D01*
X88379509Y-68467866D01*
X88573871Y-68758749D01*
X88573871Y-68758750D01*
X88707750Y-69081961D01*
X88776000Y-69425078D01*
X88776000Y-69774922D01*
X88707750Y-70118039D01*
X88629325Y-70307372D01*
X88573871Y-70441251D01*
X88379509Y-70732134D01*
X88132134Y-70979509D01*
X87841251Y-71173871D01*
X87707372Y-71229325D01*
X87518039Y-71307750D01*
X87174922Y-71376000D01*
X86825078Y-71376000D01*
X86481961Y-71307750D01*
X86292628Y-71229325D01*
X86158749Y-71173871D01*
X85867866Y-70979509D01*
X85620491Y-70732134D01*
X85426129Y-70441251D01*
X85370675Y-70307372D01*
X85292250Y-70118039D01*
X85224000Y-69774922D01*
X85224000Y-69425078D01*
X85292250Y-69081961D01*
X85426129Y-68758750D01*
X85426129Y-68758749D01*
X85620491Y-68467866D01*
X85867866Y-68220491D01*
X86158749Y-68026129D01*
X86292628Y-67970675D01*
X86481961Y-67892250D01*
X86825078Y-67824000D01*
X87174922Y-67824000D01*
X87518039Y-67892250D01*
G37*
G36*
X110718039Y-67892250D02*
G01*
X110907372Y-67970675D01*
X111041251Y-68026129D01*
X111332134Y-68220491D01*
X111579509Y-68467866D01*
X111773871Y-68758749D01*
X111773871Y-68758750D01*
X111907750Y-69081961D01*
X111976000Y-69425078D01*
X111976000Y-69774922D01*
X111907750Y-70118039D01*
X111829325Y-70307372D01*
X111773871Y-70441251D01*
X111579509Y-70732134D01*
X111332134Y-70979509D01*
X111041251Y-71173871D01*
X110907372Y-71229325D01*
X110718039Y-71307750D01*
X110374922Y-71376000D01*
X110025078Y-71376000D01*
X109681961Y-71307750D01*
X109492628Y-71229325D01*
X109358749Y-71173871D01*
X109067866Y-70979509D01*
X108820491Y-70732134D01*
X108626129Y-70441251D01*
X108570675Y-70307372D01*
X108492250Y-70118039D01*
X108424000Y-69774922D01*
X108424000Y-69425078D01*
X108492250Y-69081961D01*
X108626129Y-68758750D01*
X108626129Y-68758749D01*
X108820491Y-68467866D01*
X109067866Y-68220491D01*
X109358749Y-68026129D01*
X109492628Y-67970675D01*
X109681961Y-67892250D01*
X110025078Y-67824000D01*
X110374922Y-67824000D01*
X110718039Y-67892250D01*
G37*
G36*
X134118039Y-67892250D02*
G01*
X134307372Y-67970675D01*
X134441251Y-68026129D01*
X134732134Y-68220491D01*
X134979509Y-68467866D01*
X135173871Y-68758749D01*
X135173871Y-68758750D01*
X135307750Y-69081961D01*
X135376000Y-69425078D01*
X135376000Y-69774922D01*
X135307750Y-70118039D01*
X135229325Y-70307372D01*
X135173871Y-70441251D01*
X134979509Y-70732134D01*
X134732134Y-70979509D01*
X134441251Y-71173871D01*
X134307372Y-71229325D01*
X134118039Y-71307750D01*
X133774922Y-71376000D01*
X133425078Y-71376000D01*
X133081961Y-71307750D01*
X132892628Y-71229325D01*
X132758749Y-71173871D01*
X132467866Y-70979509D01*
X132220491Y-70732134D01*
X132026129Y-70441251D01*
X131970675Y-70307372D01*
X131892250Y-70118039D01*
X131824000Y-69774922D01*
X131824000Y-69425078D01*
X131892250Y-69081961D01*
X132026129Y-68758750D01*
X132026129Y-68758749D01*
X132220491Y-68467866D01*
X132467866Y-68220491D01*
X132758749Y-68026129D01*
X132892628Y-67970675D01*
X133081961Y-67892250D01*
X133425078Y-67824000D01*
X133774922Y-67824000D01*
X134118039Y-67892250D01*
G37*
G36*
X94477395Y-60355546D02*
G01*
X94650466Y-60427234D01*
X94650467Y-60427235D01*
X94806227Y-60531310D01*
X94938690Y-60663773D01*
X94938691Y-60663775D01*
X95042766Y-60819534D01*
X95114454Y-60992605D01*
X95151000Y-61176333D01*
X95151000Y-61363667D01*
X95114454Y-61547395D01*
X95042766Y-61720466D01*
X95042765Y-61720467D01*
X94938690Y-61876227D01*
X94806227Y-62008690D01*
X94727818Y-62061081D01*
X94650466Y-62112766D01*
X94477395Y-62184454D01*
X94293667Y-62221000D01*
X94106333Y-62221000D01*
X93922605Y-62184454D01*
X93749534Y-62112766D01*
X93672182Y-62061081D01*
X93593773Y-62008690D01*
X93461310Y-61876227D01*
X93357235Y-61720467D01*
X93357234Y-61720466D01*
X93285546Y-61547395D01*
X93249000Y-61363667D01*
X93249000Y-61176333D01*
X93285546Y-60992605D01*
X93357234Y-60819534D01*
X93461309Y-60663775D01*
X93461310Y-60663773D01*
X93593773Y-60531310D01*
X93749533Y-60427235D01*
X93749534Y-60427234D01*
X93922605Y-60355546D01*
X94106333Y-60319000D01*
X94293667Y-60319000D01*
X94477395Y-60355546D01*
G37*
G36*
X71277395Y-60355546D02*
G01*
X71450466Y-60427234D01*
X71450467Y-60427235D01*
X71606227Y-60531310D01*
X71738690Y-60663773D01*
X71738691Y-60663775D01*
X71842766Y-60819534D01*
X71914454Y-60992605D01*
X71951000Y-61176333D01*
X71951000Y-61363667D01*
X71914454Y-61547395D01*
X71842766Y-61720466D01*
X71842765Y-61720467D01*
X71738690Y-61876227D01*
X71606227Y-62008690D01*
X71527818Y-62061081D01*
X71450466Y-62112766D01*
X71277395Y-62184454D01*
X71093667Y-62221000D01*
X70906333Y-62221000D01*
X70722605Y-62184454D01*
X70549534Y-62112766D01*
X70472182Y-62061081D01*
X70393773Y-62008690D01*
X70261310Y-61876227D01*
X70157235Y-61720467D01*
X70157234Y-61720466D01*
X70085546Y-61547395D01*
X70049000Y-61363667D01*
X70049000Y-61176333D01*
X70085546Y-60992605D01*
X70157234Y-60819534D01*
X70261309Y-60663775D01*
X70261310Y-60663773D01*
X70393773Y-60531310D01*
X70549533Y-60427235D01*
X70549534Y-60427234D01*
X70722605Y-60355546D01*
X70906333Y-60319000D01*
X71093667Y-60319000D01*
X71277395Y-60355546D01*
G37*
G36*
X117877395Y-60355546D02*
G01*
X118050466Y-60427234D01*
X118050467Y-60427235D01*
X118206227Y-60531310D01*
X118338690Y-60663773D01*
X118338691Y-60663775D01*
X118442766Y-60819534D01*
X118514454Y-60992605D01*
X118551000Y-61176333D01*
X118551000Y-61363667D01*
X118514454Y-61547395D01*
X118442766Y-61720466D01*
X118442765Y-61720467D01*
X118338690Y-61876227D01*
X118206227Y-62008690D01*
X118127818Y-62061081D01*
X118050466Y-62112766D01*
X117877395Y-62184454D01*
X117693667Y-62221000D01*
X117506333Y-62221000D01*
X117322605Y-62184454D01*
X117149534Y-62112766D01*
X117072182Y-62061081D01*
X116993773Y-62008690D01*
X116861310Y-61876227D01*
X116757235Y-61720467D01*
X116757234Y-61720466D01*
X116685546Y-61547395D01*
X116649000Y-61363667D01*
X116649000Y-61176333D01*
X116685546Y-60992605D01*
X116757234Y-60819534D01*
X116861309Y-60663775D01*
X116861310Y-60663773D01*
X116993773Y-60531310D01*
X117149533Y-60427235D01*
X117149534Y-60427234D01*
X117322605Y-60355546D01*
X117506333Y-60319000D01*
X117693667Y-60319000D01*
X117877395Y-60355546D01*
G37*
G36*
X105751000Y-61591000D02*
G01*
X98649000Y-61591000D01*
X98649000Y-53249000D01*
X105751000Y-53249000D01*
X105751000Y-61591000D01*
G37*
G36*
X129151000Y-61591000D02*
G01*
X122049000Y-61591000D01*
X122049000Y-53249000D01*
X129151000Y-53249000D01*
X129151000Y-61591000D01*
G37*
G36*
X82551000Y-61591000D02*
G01*
X75449000Y-61591000D01*
X75449000Y-53249000D01*
X82551000Y-53249000D01*
X82551000Y-61591000D01*
G37*
G36*
X159574502Y-53773216D02*
G01*
X159752410Y-53808604D01*
X160034674Y-53925521D01*
X160288705Y-54095259D01*
X160504741Y-54311295D01*
X160674479Y-54565326D01*
X160791396Y-54847590D01*
X160851000Y-55147240D01*
X160851000Y-55452760D01*
X160791396Y-55752410D01*
X160674479Y-56034674D01*
X160504741Y-56288705D01*
X160288705Y-56504741D01*
X160034674Y-56674479D01*
X159752410Y-56791396D01*
X159602585Y-56821198D01*
X159452761Y-56851000D01*
X159147239Y-56851000D01*
X158997415Y-56821198D01*
X158847590Y-56791396D01*
X158565326Y-56674479D01*
X158311295Y-56504741D01*
X158095259Y-56288705D01*
X157925521Y-56034674D01*
X157808604Y-55752410D01*
X157749000Y-55452760D01*
X157749000Y-55147240D01*
X157808604Y-54847590D01*
X157925521Y-54565326D01*
X158095259Y-54311295D01*
X158311295Y-54095259D01*
X158565326Y-53925521D01*
X158847590Y-53808604D01*
X159025498Y-53773216D01*
X159147239Y-53749000D01*
X159452761Y-53749000D01*
X159574502Y-53773216D01*
G37*
G36*
X62574502Y-53773216D02*
G01*
X62752410Y-53808604D01*
X63034674Y-53925521D01*
X63288705Y-54095259D01*
X63504741Y-54311295D01*
X63674479Y-54565326D01*
X63791396Y-54847590D01*
X63851000Y-55147240D01*
X63851000Y-55452760D01*
X63791396Y-55752410D01*
X63674479Y-56034674D01*
X63504741Y-56288705D01*
X63288705Y-56504741D01*
X63034674Y-56674479D01*
X62752410Y-56791396D01*
X62602585Y-56821198D01*
X62452761Y-56851000D01*
X62147239Y-56851000D01*
X61997415Y-56821198D01*
X61847590Y-56791396D01*
X61565326Y-56674479D01*
X61311295Y-56504741D01*
X61095259Y-56288705D01*
X60925521Y-56034674D01*
X60808604Y-55752410D01*
X60749000Y-55452760D01*
X60749000Y-55147240D01*
X60808604Y-54847590D01*
X60925521Y-54565326D01*
X61095259Y-54311295D01*
X61311295Y-54095259D01*
X61565326Y-53925521D01*
X61847590Y-53808604D01*
X62025498Y-53773216D01*
X62147239Y-53749000D01*
X62452761Y-53749000D01*
X62574502Y-53773216D01*
G37*
G36*
X54575256Y-52591298D02*
G01*
X54681579Y-52612447D01*
X54982042Y-52736903D01*
X55252451Y-52917585D01*
X55482415Y-53147549D01*
X55663097Y-53417958D01*
X55787553Y-53718421D01*
X55798452Y-53773216D01*
X55851000Y-54037389D01*
X55851000Y-54362611D01*
X55810677Y-54565326D01*
X55787553Y-54681579D01*
X55663097Y-54982042D01*
X55482415Y-55252451D01*
X55252451Y-55482415D01*
X54982042Y-55663097D01*
X54681579Y-55787553D01*
X54575256Y-55808702D01*
X54362611Y-55851000D01*
X54037389Y-55851000D01*
X53824744Y-55808702D01*
X53718421Y-55787553D01*
X53417958Y-55663097D01*
X53147549Y-55482415D01*
X52917585Y-55252451D01*
X52736903Y-54982042D01*
X52612447Y-54681579D01*
X52589323Y-54565326D01*
X52549000Y-54362611D01*
X52549000Y-54037389D01*
X52601548Y-53773216D01*
X52612447Y-53718421D01*
X52736903Y-53417958D01*
X52917585Y-53147549D01*
X53147549Y-52917585D01*
X53417958Y-52736903D01*
X53718421Y-52612447D01*
X53824744Y-52591298D01*
X54037389Y-52549000D01*
X54362611Y-52549000D01*
X54575256Y-52591298D01*
G37*
G36*
X166575256Y-52191298D02*
G01*
X166681579Y-52212447D01*
X166982042Y-52336903D01*
X167252451Y-52517585D01*
X167482415Y-52747549D01*
X167663097Y-53017958D01*
X167779509Y-53299000D01*
X167787553Y-53318422D01*
X167851000Y-53637389D01*
X167851000Y-53962611D01*
X167836125Y-54037391D01*
X167787553Y-54281579D01*
X167663097Y-54582042D01*
X167482415Y-54852451D01*
X167252451Y-55082415D01*
X166982042Y-55263097D01*
X166681579Y-55387553D01*
X166575256Y-55408702D01*
X166362611Y-55451000D01*
X166037389Y-55451000D01*
X165824744Y-55408702D01*
X165718421Y-55387553D01*
X165417958Y-55263097D01*
X165147549Y-55082415D01*
X164917585Y-54852451D01*
X164736903Y-54582042D01*
X164612447Y-54281579D01*
X164563875Y-54037391D01*
X164549000Y-53962611D01*
X164549000Y-53637389D01*
X164612447Y-53318422D01*
X164620492Y-53299000D01*
X164736903Y-53017958D01*
X164917585Y-52747549D01*
X165147549Y-52517585D01*
X165417958Y-52336903D01*
X165718421Y-52212447D01*
X165824744Y-52191298D01*
X166037389Y-52149000D01*
X166362611Y-52149000D01*
X166575256Y-52191298D01*
G37*
G36*
X112693512Y-53303927D02*
G01*
X112842812Y-53333624D01*
X113006784Y-53401544D01*
X113154354Y-53500147D01*
X113279853Y-53625646D01*
X113378456Y-53773216D01*
X113446376Y-53937188D01*
X113466307Y-54037391D01*
X113477818Y-54095259D01*
X113481000Y-54111259D01*
X113481000Y-54288741D01*
X113446376Y-54462812D01*
X113378456Y-54626784D01*
X113279853Y-54774354D01*
X113154354Y-54899853D01*
X113006784Y-54998456D01*
X112842812Y-55066376D01*
X112693512Y-55096073D01*
X112668742Y-55101000D01*
X112491258Y-55101000D01*
X112466488Y-55096073D01*
X112317188Y-55066376D01*
X112153216Y-54998456D01*
X112005646Y-54899853D01*
X111880147Y-54774354D01*
X111781544Y-54626784D01*
X111713624Y-54462812D01*
X111679000Y-54288741D01*
X111679000Y-54111259D01*
X111682183Y-54095259D01*
X111693693Y-54037391D01*
X111713624Y-53937188D01*
X111781544Y-53773216D01*
X111880147Y-53625646D01*
X112005646Y-53500147D01*
X112153216Y-53401544D01*
X112317188Y-53333624D01*
X112466488Y-53303927D01*
X112491258Y-53299000D01*
X112668742Y-53299000D01*
X112693512Y-53303927D01*
G37*
G36*
X115233512Y-53303927D02*
G01*
X115382812Y-53333624D01*
X115546784Y-53401544D01*
X115694354Y-53500147D01*
X115819853Y-53625646D01*
X115918456Y-53773216D01*
X115986376Y-53937188D01*
X116006307Y-54037391D01*
X116017818Y-54095259D01*
X116021000Y-54111259D01*
X116021000Y-54288741D01*
X115986376Y-54462812D01*
X115918456Y-54626784D01*
X115819853Y-54774354D01*
X115694354Y-54899853D01*
X115546784Y-54998456D01*
X115382812Y-55066376D01*
X115233512Y-55096073D01*
X115208742Y-55101000D01*
X115031258Y-55101000D01*
X115006488Y-55096073D01*
X114857188Y-55066376D01*
X114693216Y-54998456D01*
X114545646Y-54899853D01*
X114420147Y-54774354D01*
X114321544Y-54626784D01*
X114253624Y-54462812D01*
X114219000Y-54288741D01*
X114219000Y-54111259D01*
X114222183Y-54095259D01*
X114233693Y-54037391D01*
X114253624Y-53937188D01*
X114321544Y-53773216D01*
X114420147Y-53625646D01*
X114545646Y-53500147D01*
X114693216Y-53401544D01*
X114857188Y-53333624D01*
X115006488Y-53303927D01*
X115031258Y-53299000D01*
X115208742Y-53299000D01*
X115233512Y-53303927D01*
G37*
G36*
X117773512Y-53303927D02*
G01*
X117922812Y-53333624D01*
X118086784Y-53401544D01*
X118234354Y-53500147D01*
X118359853Y-53625646D01*
X118458456Y-53773216D01*
X118526376Y-53937188D01*
X118546307Y-54037391D01*
X118557818Y-54095259D01*
X118561000Y-54111259D01*
X118561000Y-54288741D01*
X118526376Y-54462812D01*
X118458456Y-54626784D01*
X118359853Y-54774354D01*
X118234354Y-54899853D01*
X118086784Y-54998456D01*
X117922812Y-55066376D01*
X117773512Y-55096073D01*
X117748742Y-55101000D01*
X117571258Y-55101000D01*
X117546488Y-55096073D01*
X117397188Y-55066376D01*
X117233216Y-54998456D01*
X117085646Y-54899853D01*
X116960147Y-54774354D01*
X116861544Y-54626784D01*
X116793624Y-54462812D01*
X116759000Y-54288741D01*
X116759000Y-54111259D01*
X116762183Y-54095259D01*
X116773693Y-54037391D01*
X116793624Y-53937188D01*
X116861544Y-53773216D01*
X116960147Y-53625646D01*
X117085646Y-53500147D01*
X117233216Y-53401544D01*
X117397188Y-53333624D01*
X117546488Y-53303927D01*
X117571258Y-53299000D01*
X117748742Y-53299000D01*
X117773512Y-53303927D01*
G37*
G36*
X139701000Y-55101000D02*
G01*
X137899000Y-55101000D01*
X137899000Y-53299000D01*
X139701000Y-53299000D01*
X139701000Y-55101000D01*
G37*
G36*
X107613512Y-53303927D02*
G01*
X107762812Y-53333624D01*
X107926784Y-53401544D01*
X108074354Y-53500147D01*
X108199853Y-53625646D01*
X108298456Y-53773216D01*
X108366376Y-53937188D01*
X108386307Y-54037391D01*
X108397818Y-54095259D01*
X108401000Y-54111259D01*
X108401000Y-54288741D01*
X108366376Y-54462812D01*
X108298456Y-54626784D01*
X108199853Y-54774354D01*
X108074354Y-54899853D01*
X107926784Y-54998456D01*
X107762812Y-55066376D01*
X107613512Y-55096073D01*
X107588742Y-55101000D01*
X107411258Y-55101000D01*
X107386488Y-55096073D01*
X107237188Y-55066376D01*
X107073216Y-54998456D01*
X106925646Y-54899853D01*
X106800147Y-54774354D01*
X106701544Y-54626784D01*
X106633624Y-54462812D01*
X106599000Y-54288741D01*
X106599000Y-54111259D01*
X106602183Y-54095259D01*
X106613693Y-54037391D01*
X106633624Y-53937188D01*
X106701544Y-53773216D01*
X106800147Y-53625646D01*
X106925646Y-53500147D01*
X107073216Y-53401544D01*
X107237188Y-53333624D01*
X107386488Y-53303927D01*
X107411258Y-53299000D01*
X107588742Y-53299000D01*
X107613512Y-53303927D01*
G37*
G36*
X121101000Y-55101000D02*
G01*
X119299000Y-55101000D01*
X119299000Y-53299000D01*
X121101000Y-53299000D01*
X121101000Y-55101000D01*
G37*
G36*
X136373512Y-53303927D02*
G01*
X136522812Y-53333624D01*
X136686784Y-53401544D01*
X136834354Y-53500147D01*
X136959853Y-53625646D01*
X137058456Y-53773216D01*
X137126376Y-53937188D01*
X137146307Y-54037391D01*
X137157818Y-54095259D01*
X137161000Y-54111259D01*
X137161000Y-54288741D01*
X137126376Y-54462812D01*
X137058456Y-54626784D01*
X136959853Y-54774354D01*
X136834354Y-54899853D01*
X136686784Y-54998456D01*
X136522812Y-55066376D01*
X136373512Y-55096073D01*
X136348742Y-55101000D01*
X136171258Y-55101000D01*
X136146488Y-55096073D01*
X135997188Y-55066376D01*
X135833216Y-54998456D01*
X135685646Y-54899853D01*
X135560147Y-54774354D01*
X135461544Y-54626784D01*
X135393624Y-54462812D01*
X135359000Y-54288741D01*
X135359000Y-54111259D01*
X135362183Y-54095259D01*
X135373693Y-54037391D01*
X135393624Y-53937188D01*
X135461544Y-53773216D01*
X135560147Y-53625646D01*
X135685646Y-53500147D01*
X135833216Y-53401544D01*
X135997188Y-53333624D01*
X136146488Y-53303927D01*
X136171258Y-53299000D01*
X136348742Y-53299000D01*
X136373512Y-53303927D01*
G37*
G36*
X133833512Y-53303927D02*
G01*
X133982812Y-53333624D01*
X134146784Y-53401544D01*
X134294354Y-53500147D01*
X134419853Y-53625646D01*
X134518456Y-53773216D01*
X134586376Y-53937188D01*
X134606307Y-54037391D01*
X134617818Y-54095259D01*
X134621000Y-54111259D01*
X134621000Y-54288741D01*
X134586376Y-54462812D01*
X134518456Y-54626784D01*
X134419853Y-54774354D01*
X134294354Y-54899853D01*
X134146784Y-54998456D01*
X133982812Y-55066376D01*
X133833512Y-55096073D01*
X133808742Y-55101000D01*
X133631258Y-55101000D01*
X133606488Y-55096073D01*
X133457188Y-55066376D01*
X133293216Y-54998456D01*
X133145646Y-54899853D01*
X133020147Y-54774354D01*
X132921544Y-54626784D01*
X132853624Y-54462812D01*
X132819000Y-54288741D01*
X132819000Y-54111259D01*
X132822183Y-54095259D01*
X132833693Y-54037391D01*
X132853624Y-53937188D01*
X132921544Y-53773216D01*
X133020147Y-53625646D01*
X133145646Y-53500147D01*
X133293216Y-53401544D01*
X133457188Y-53333624D01*
X133606488Y-53303927D01*
X133631258Y-53299000D01*
X133808742Y-53299000D01*
X133833512Y-53303927D01*
G37*
G36*
X131293512Y-53303927D02*
G01*
X131442812Y-53333624D01*
X131606784Y-53401544D01*
X131754354Y-53500147D01*
X131879853Y-53625646D01*
X131978456Y-53773216D01*
X132046376Y-53937188D01*
X132066307Y-54037391D01*
X132077818Y-54095259D01*
X132081000Y-54111259D01*
X132081000Y-54288741D01*
X132046376Y-54462812D01*
X131978456Y-54626784D01*
X131879853Y-54774354D01*
X131754354Y-54899853D01*
X131606784Y-54998456D01*
X131442812Y-55066376D01*
X131293512Y-55096073D01*
X131268742Y-55101000D01*
X131091258Y-55101000D01*
X131066488Y-55096073D01*
X130917188Y-55066376D01*
X130753216Y-54998456D01*
X130605646Y-54899853D01*
X130480147Y-54774354D01*
X130381544Y-54626784D01*
X130313624Y-54462812D01*
X130279000Y-54288741D01*
X130279000Y-54111259D01*
X130282183Y-54095259D01*
X130293693Y-54037391D01*
X130313624Y-53937188D01*
X130381544Y-53773216D01*
X130480147Y-53625646D01*
X130605646Y-53500147D01*
X130753216Y-53401544D01*
X130917188Y-53333624D01*
X131066488Y-53303927D01*
X131091258Y-53299000D01*
X131268742Y-53299000D01*
X131293512Y-53303927D01*
G37*
G36*
X110153512Y-53303927D02*
G01*
X110302812Y-53333624D01*
X110466784Y-53401544D01*
X110614354Y-53500147D01*
X110739853Y-53625646D01*
X110838456Y-53773216D01*
X110906376Y-53937188D01*
X110926307Y-54037391D01*
X110937818Y-54095259D01*
X110941000Y-54111259D01*
X110941000Y-54288741D01*
X110906376Y-54462812D01*
X110838456Y-54626784D01*
X110739853Y-54774354D01*
X110614354Y-54899853D01*
X110466784Y-54998456D01*
X110302812Y-55066376D01*
X110153512Y-55096073D01*
X110128742Y-55101000D01*
X109951258Y-55101000D01*
X109926488Y-55096073D01*
X109777188Y-55066376D01*
X109613216Y-54998456D01*
X109465646Y-54899853D01*
X109340147Y-54774354D01*
X109241544Y-54626784D01*
X109173624Y-54462812D01*
X109139000Y-54288741D01*
X109139000Y-54111259D01*
X109142183Y-54095259D01*
X109153693Y-54037391D01*
X109173624Y-53937188D01*
X109241544Y-53773216D01*
X109340147Y-53625646D01*
X109465646Y-53500147D01*
X109613216Y-53401544D01*
X109777188Y-53333624D01*
X109926488Y-53303927D01*
X109951258Y-53299000D01*
X110128742Y-53299000D01*
X110153512Y-53303927D01*
G37*
G36*
X95701000Y-55101000D02*
G01*
X93899000Y-55101000D01*
X93899000Y-53299000D01*
X95701000Y-53299000D01*
X95701000Y-55101000D01*
G37*
G36*
X92373512Y-53303927D02*
G01*
X92522812Y-53333624D01*
X92686784Y-53401544D01*
X92834354Y-53500147D01*
X92959853Y-53625646D01*
X93058456Y-53773216D01*
X93126376Y-53937188D01*
X93146307Y-54037391D01*
X93157818Y-54095259D01*
X93161000Y-54111259D01*
X93161000Y-54288741D01*
X93126376Y-54462812D01*
X93058456Y-54626784D01*
X92959853Y-54774354D01*
X92834354Y-54899853D01*
X92686784Y-54998456D01*
X92522812Y-55066376D01*
X92373512Y-55096073D01*
X92348742Y-55101000D01*
X92171258Y-55101000D01*
X92146488Y-55096073D01*
X91997188Y-55066376D01*
X91833216Y-54998456D01*
X91685646Y-54899853D01*
X91560147Y-54774354D01*
X91461544Y-54626784D01*
X91393624Y-54462812D01*
X91359000Y-54288741D01*
X91359000Y-54111259D01*
X91362183Y-54095259D01*
X91373693Y-54037391D01*
X91393624Y-53937188D01*
X91461544Y-53773216D01*
X91560147Y-53625646D01*
X91685646Y-53500147D01*
X91833216Y-53401544D01*
X91997188Y-53333624D01*
X92146488Y-53303927D01*
X92171258Y-53299000D01*
X92348742Y-53299000D01*
X92373512Y-53303927D01*
G37*
G36*
X89833512Y-53303927D02*
G01*
X89982812Y-53333624D01*
X90146784Y-53401544D01*
X90294354Y-53500147D01*
X90419853Y-53625646D01*
X90518456Y-53773216D01*
X90586376Y-53937188D01*
X90606307Y-54037391D01*
X90617818Y-54095259D01*
X90621000Y-54111259D01*
X90621000Y-54288741D01*
X90586376Y-54462812D01*
X90518456Y-54626784D01*
X90419853Y-54774354D01*
X90294354Y-54899853D01*
X90146784Y-54998456D01*
X89982812Y-55066376D01*
X89833512Y-55096073D01*
X89808742Y-55101000D01*
X89631258Y-55101000D01*
X89606488Y-55096073D01*
X89457188Y-55066376D01*
X89293216Y-54998456D01*
X89145646Y-54899853D01*
X89020147Y-54774354D01*
X88921544Y-54626784D01*
X88853624Y-54462812D01*
X88819000Y-54288741D01*
X88819000Y-54111259D01*
X88822183Y-54095259D01*
X88833693Y-54037391D01*
X88853624Y-53937188D01*
X88921544Y-53773216D01*
X89020147Y-53625646D01*
X89145646Y-53500147D01*
X89293216Y-53401544D01*
X89457188Y-53333624D01*
X89606488Y-53303927D01*
X89631258Y-53299000D01*
X89808742Y-53299000D01*
X89833512Y-53303927D01*
G37*
G36*
X87293512Y-53303927D02*
G01*
X87442812Y-53333624D01*
X87606784Y-53401544D01*
X87754354Y-53500147D01*
X87879853Y-53625646D01*
X87978456Y-53773216D01*
X88046376Y-53937188D01*
X88066307Y-54037391D01*
X88077818Y-54095259D01*
X88081000Y-54111259D01*
X88081000Y-54288741D01*
X88046376Y-54462812D01*
X87978456Y-54626784D01*
X87879853Y-54774354D01*
X87754354Y-54899853D01*
X87606784Y-54998456D01*
X87442812Y-55066376D01*
X87293512Y-55096073D01*
X87268742Y-55101000D01*
X87091258Y-55101000D01*
X87066488Y-55096073D01*
X86917188Y-55066376D01*
X86753216Y-54998456D01*
X86605646Y-54899853D01*
X86480147Y-54774354D01*
X86381544Y-54626784D01*
X86313624Y-54462812D01*
X86279000Y-54288741D01*
X86279000Y-54111259D01*
X86282183Y-54095259D01*
X86293693Y-54037391D01*
X86313624Y-53937188D01*
X86381544Y-53773216D01*
X86480147Y-53625646D01*
X86605646Y-53500147D01*
X86753216Y-53401544D01*
X86917188Y-53333624D01*
X87066488Y-53303927D01*
X87091258Y-53299000D01*
X87268742Y-53299000D01*
X87293512Y-53303927D01*
G37*
M02*
