M48
; DRILL file {KiCad (5.1.5)-3} date 2021-11-16 22:17:12
; FORMAT={-:-/ absolute / metric / decimal}
; #@! TF.CreationDate,2021-11-16T22:17:12+01:00
; #@! TF.GenerationSoftware,Kicad,Pcbnew,(5.1.5)-3
; #@! TF.FileFunction,NonPlated,1,2,NPTH
FMAT,2
METRIC
T1C0.500
T2C1.800
T3C2.500
T4C3.000
T5C3.200
T6C3.450
%
G90
G05
T1
X55.65Y-104.2
X55.65Y-111.0
T2
X71.0Y-61.27
X94.2Y-61.27
X117.6Y-61.27
T3
X145.5Y-82.9
X161.7Y-114.9
T4
X154.4Y-103.5
X154.4Y-114.1
X62.3Y-55.3
X62.3Y-127.8
X159.3Y-55.3
X159.3Y-127.8
T5
X54.2Y-54.2
X165.0Y-145.5
X166.2Y-53.8
X54.5Y-146.0
T6
X71.0Y-124.8
X87.0Y-69.6
X94.2Y-124.8
X110.2Y-69.6
X117.6Y-124.8
X133.6Y-69.6
T0
M30
