G04 #@! TF.GenerationSoftware,KiCad,Pcbnew,(5.1.5)-3*
G04 #@! TF.CreationDate,2021-11-16T22:17:10+01:00*
G04 #@! TF.ProjectId,EnvSensor-v2,456e7653-656e-4736-9f72-2d76322e6b69,rev?*
G04 #@! TF.SameCoordinates,Original*
G04 #@! TF.FileFunction,Legend,Top*
G04 #@! TF.FilePolarity,Positive*
%FSLAX46Y46*%
G04 Gerber Fmt 4.6, Leading zero omitted, Abs format (unit mm)*
G04 Created by KiCad (PCBNEW (5.1.5)-3) date 2021-11-16 22:17:10*
%MOMM*%
%LPD*%
G04 APERTURE LIST*
%ADD10C,0.150000*%
%ADD11C,0.120000*%
G04 APERTURE END LIST*
D10*
X88919047Y-96204761D02*
X89061904Y-96252380D01*
X89300000Y-96252380D01*
X89395238Y-96204761D01*
X89442857Y-96157142D01*
X89490476Y-96061904D01*
X89490476Y-95966666D01*
X89442857Y-95871428D01*
X89395238Y-95823809D01*
X89300000Y-95776190D01*
X89109523Y-95728571D01*
X89014285Y-95680952D01*
X88966666Y-95633333D01*
X88919047Y-95538095D01*
X88919047Y-95442857D01*
X88966666Y-95347619D01*
X89014285Y-95300000D01*
X89109523Y-95252380D01*
X89347619Y-95252380D01*
X89490476Y-95300000D01*
X89776190Y-95252380D02*
X90347619Y-95252380D01*
X90061904Y-96252380D02*
X90061904Y-95252380D01*
X90680952Y-96252380D02*
X90680952Y-95252380D01*
X91014285Y-95966666D01*
X91347619Y-95252380D01*
X91347619Y-96252380D01*
X91728571Y-95252380D02*
X92347619Y-95252380D01*
X92014285Y-95633333D01*
X92157142Y-95633333D01*
X92252380Y-95680952D01*
X92300000Y-95728571D01*
X92347619Y-95823809D01*
X92347619Y-96061904D01*
X92300000Y-96157142D01*
X92252380Y-96204761D01*
X92157142Y-96252380D01*
X91871428Y-96252380D01*
X91776190Y-96204761D01*
X91728571Y-96157142D01*
X92728571Y-95347619D02*
X92776190Y-95300000D01*
X92871428Y-95252380D01*
X93109523Y-95252380D01*
X93204761Y-95300000D01*
X93252380Y-95347619D01*
X93300000Y-95442857D01*
X93300000Y-95538095D01*
X93252380Y-95680952D01*
X92680952Y-96252380D01*
X93300000Y-96252380D01*
X94204761Y-96252380D02*
X93728571Y-96252380D01*
X93728571Y-95252380D01*
X94966666Y-95585714D02*
X94966666Y-96252380D01*
X94728571Y-95204761D02*
X94490476Y-95919047D01*
X95109523Y-95919047D01*
X95966666Y-95252380D02*
X95490476Y-95252380D01*
X95442857Y-95728571D01*
X95490476Y-95680952D01*
X95585714Y-95633333D01*
X95823809Y-95633333D01*
X95919047Y-95680952D01*
X95966666Y-95728571D01*
X96014285Y-95823809D01*
X96014285Y-96061904D01*
X95966666Y-96157142D01*
X95919047Y-96204761D01*
X95823809Y-96252380D01*
X95585714Y-96252380D01*
X95490476Y-96204761D01*
X95442857Y-96157142D01*
X96966666Y-96252380D02*
X96395238Y-96252380D01*
X96680952Y-96252380D02*
X96680952Y-95252380D01*
X96585714Y-95395238D01*
X96490476Y-95490476D01*
X96395238Y-95538095D01*
X97966666Y-96252380D02*
X97633333Y-95776190D01*
X97395238Y-96252380D02*
X97395238Y-95252380D01*
X97776190Y-95252380D01*
X97871428Y-95300000D01*
X97919047Y-95347619D01*
X97966666Y-95442857D01*
X97966666Y-95585714D01*
X97919047Y-95680952D01*
X97871428Y-95728571D01*
X97776190Y-95776190D01*
X97395238Y-95776190D01*
X98966666Y-96157142D02*
X98919047Y-96204761D01*
X98776190Y-96252380D01*
X98680952Y-96252380D01*
X98538095Y-96204761D01*
X98442857Y-96109523D01*
X98395238Y-96014285D01*
X98347619Y-95823809D01*
X98347619Y-95680952D01*
X98395238Y-95490476D01*
X98442857Y-95395238D01*
X98538095Y-95300000D01*
X98680952Y-95252380D01*
X98776190Y-95252380D01*
X98919047Y-95300000D01*
X98966666Y-95347619D01*
X99252380Y-95252380D02*
X99823809Y-95252380D01*
X99538095Y-96252380D02*
X99538095Y-95252380D01*
X100585714Y-95252380D02*
X100395238Y-95252380D01*
X100300000Y-95300000D01*
X100252380Y-95347619D01*
X100157142Y-95490476D01*
X100109523Y-95680952D01*
X100109523Y-96061904D01*
X100157142Y-96157142D01*
X100204761Y-96204761D01*
X100300000Y-96252380D01*
X100490476Y-96252380D01*
X100585714Y-96204761D01*
X100633333Y-96157142D01*
X100680952Y-96061904D01*
X100680952Y-95823809D01*
X100633333Y-95728571D01*
X100585714Y-95680952D01*
X100490476Y-95633333D01*
X100300000Y-95633333D01*
X100204761Y-95680952D01*
X100157142Y-95728571D01*
X100109523Y-95823809D01*
D11*
X67885000Y-75475000D02*
X67885000Y-77395000D01*
X67885000Y-77395000D02*
X53875000Y-77395000D01*
X67885000Y-63875000D02*
X67885000Y-63425000D01*
X67885000Y-63425000D02*
X64275000Y-63425000D01*
X51615000Y-75715000D02*
X51615000Y-73405000D01*
X51615000Y-64455000D02*
X51615000Y-66315000D01*
X51615000Y-64455000D02*
X51815000Y-64255000D01*
X62575000Y-63425000D02*
X57875000Y-63425000D01*
X56575000Y-63425000D02*
X54775000Y-63425000D01*
X51965000Y-66525000D02*
X51965000Y-72895000D01*
X51965000Y-66525000D02*
X51815000Y-66525000D01*
X51615000Y-66315000D02*
X51815000Y-66525000D01*
X51615000Y-75715000D02*
X51815000Y-75915000D01*
X51815000Y-75915000D02*
X51815000Y-76175000D01*
X51615000Y-73405000D02*
X51965000Y-72895000D01*
X67090000Y-133720000D02*
X67090000Y-136150000D01*
X70160000Y-135480000D02*
X70160000Y-133720000D01*
X79710000Y-71680000D02*
X79710000Y-69250000D01*
X76640000Y-69920000D02*
X76640000Y-71680000D01*
X114020000Y-86560000D02*
X114020000Y-85100000D01*
X117180000Y-86560000D02*
X117180000Y-84400000D01*
X117180000Y-86560000D02*
X116250000Y-86560000D01*
X114020000Y-86560000D02*
X114950000Y-86560000D01*
X63762779Y-117890000D02*
X63437221Y-117890000D01*
X63762779Y-118910000D02*
X63437221Y-118910000D01*
X103110000Y-109058578D02*
X103110000Y-108541422D01*
X101690000Y-109058578D02*
X101690000Y-108541422D01*
X105500000Y-121350000D02*
X108650000Y-121350000D01*
X105500000Y-123050000D02*
X108650000Y-123050000D01*
X105500000Y-121350000D02*
X105500000Y-123050000D01*
X108141422Y-110710000D02*
X108658578Y-110710000D01*
X108141422Y-109290000D02*
X108658578Y-109290000D01*
X111641422Y-85610000D02*
X112158578Y-85610000D01*
X111641422Y-84190000D02*
X112158578Y-84190000D01*
X73110000Y-64858578D02*
X73110000Y-64341422D01*
X71690000Y-64858578D02*
X71690000Y-64341422D01*
X123502064Y-110790000D02*
X122297936Y-110790000D01*
X123502064Y-112610000D02*
X122297936Y-112610000D01*
X102300000Y-121400000D02*
X103700000Y-121400000D01*
X104400000Y-122100000D02*
X104400000Y-122700000D01*
X103700000Y-123400000D02*
X102300000Y-123400000D01*
X101600000Y-122700000D02*
X101600000Y-122100000D01*
X101600000Y-122100000D02*
G75*
G02X102300000Y-121400000I700000J0D01*
G01*
X102300000Y-123400000D02*
G75*
G02X101600000Y-122700000I0J700000D01*
G01*
X104400000Y-122700000D02*
G75*
G02X103700000Y-123400000I-700000J0D01*
G01*
X103700000Y-121400000D02*
G75*
G02X104400000Y-122100000I0J-700000D01*
G01*
X103960000Y-80990000D02*
X103960000Y-79650000D01*
X104910000Y-80990000D02*
X103960000Y-80990000D01*
X104910000Y-81940000D02*
X104910000Y-80990000D01*
X104910000Y-91210000D02*
X103960000Y-91210000D01*
X104910000Y-90260000D02*
X104910000Y-91210000D01*
X94690000Y-80990000D02*
X95640000Y-80990000D01*
X94690000Y-81940000D02*
X94690000Y-80990000D01*
X94690000Y-91210000D02*
X95640000Y-91210000D01*
X94690000Y-90260000D02*
X94690000Y-91210000D01*
D10*
X59200000Y-52200000D02*
X59200000Y-130900000D01*
X162400000Y-52200000D02*
X59200000Y-52200000D01*
X162400000Y-130900000D02*
X162400000Y-52200000D01*
X59200000Y-130900000D02*
X162400000Y-130900000D01*
D11*
X83237221Y-140310000D02*
X83562779Y-140310000D01*
X83237221Y-139290000D02*
X83562779Y-139290000D01*
X92710000Y-90062779D02*
X92710000Y-89737221D01*
X91690000Y-90062779D02*
X91690000Y-89737221D01*
X85690000Y-116997936D02*
X85690000Y-118202064D01*
X87510000Y-116997936D02*
X87510000Y-118202064D01*
X121610000Y-93058578D02*
X121610000Y-92541422D01*
X120190000Y-93058578D02*
X120190000Y-92541422D01*
X123510000Y-93058578D02*
X123510000Y-92541422D01*
X122090000Y-93058578D02*
X122090000Y-92541422D01*
X101050000Y-126250000D02*
X101050000Y-123250000D01*
X101050000Y-123250000D02*
X104050000Y-123250000D01*
X101430000Y-123630000D02*
X111770000Y-123630000D01*
X111770000Y-123630000D02*
X111770000Y-126950000D01*
X111770000Y-130650000D02*
X111770000Y-133970000D01*
X101430000Y-133970000D02*
X111770000Y-133970000D01*
X101430000Y-123630000D02*
X101430000Y-126950000D01*
X101430000Y-130650000D02*
X101430000Y-133970000D01*
X102741422Y-118510000D02*
X103258578Y-118510000D01*
X102741422Y-117090000D02*
X103258578Y-117090000D01*
X105900000Y-79750000D02*
X107700000Y-79750000D01*
X107750000Y-78350000D02*
X107750000Y-77250000D01*
X105850000Y-78350000D02*
X105850000Y-77250000D01*
X103950000Y-70000000D02*
X103550000Y-70000000D01*
X103550000Y-70000000D02*
X103550000Y-70800000D01*
X98150000Y-70800000D02*
X98150000Y-70000000D01*
X101750000Y-72200000D02*
X99950000Y-72200000D01*
X99950000Y-68600000D02*
X101750000Y-68600000D01*
X101750000Y-68600000D02*
X101750000Y-68360000D01*
X127000000Y-119910000D02*
X120990000Y-119910000D01*
X124750000Y-113090000D02*
X120990000Y-113090000D01*
X120990000Y-119910000D02*
X120990000Y-118650000D01*
X120990000Y-113090000D02*
X120990000Y-114350000D01*
X78990000Y-114500000D02*
X78990000Y-108490000D01*
X85810000Y-112250000D02*
X85810000Y-108490000D01*
X78990000Y-108490000D02*
X80250000Y-108490000D01*
X85810000Y-108490000D02*
X84550000Y-108490000D01*
D10*
X105350000Y-119475000D02*
X105350000Y-120700000D01*
X108475000Y-119475000D02*
X108475000Y-116125000D01*
X105125000Y-119475000D02*
X105125000Y-116125000D01*
X108475000Y-119475000D02*
X108175000Y-119475000D01*
X108475000Y-116125000D02*
X108175000Y-116125000D01*
X105125000Y-116125000D02*
X105425000Y-116125000D01*
X105125000Y-119475000D02*
X105350000Y-119475000D01*
D11*
X83700000Y-123610000D02*
X86150000Y-123610000D01*
X85500000Y-120390000D02*
X83700000Y-120390000D01*
X66200000Y-113990000D02*
X63275000Y-113990000D01*
X66200000Y-113990000D02*
X67700000Y-113990000D01*
X66200000Y-117210000D02*
X64700000Y-117210000D01*
X66200000Y-117210000D02*
X67700000Y-117210000D01*
X68500000Y-128990000D02*
X66050000Y-128990000D01*
X66700000Y-132210000D02*
X68500000Y-132210000D01*
X112250000Y-115000000D02*
G75*
G03X112250000Y-115000000I-950000J0D01*
G01*
X91450000Y-113800000D02*
G75*
G03X91450000Y-113800000I-950000J0D01*
G01*
X114750000Y-128800000D02*
G75*
G03X114750000Y-128800000I-950000J0D01*
G01*
X101150000Y-128800000D02*
G75*
G03X101150000Y-128800000I-950000J0D01*
G01*
X91550000Y-124200000D02*
G75*
G03X91550000Y-124200000I-950000J0D01*
G01*
X109050000Y-107800000D02*
G75*
G03X109050000Y-107800000I-950000J0D01*
G01*
X78650000Y-129900000D02*
G75*
G03X78650000Y-129900000I-950000J0D01*
G01*
X118770000Y-144230000D02*
X125230000Y-144230000D01*
X118770000Y-139700000D02*
X118770000Y-142300000D01*
X118770000Y-137770000D02*
X125230000Y-137770000D01*
X125230000Y-139700000D02*
X125230000Y-142300000D01*
X118770000Y-137800000D02*
X118770000Y-137770000D01*
X118770000Y-144230000D02*
X118770000Y-144200000D01*
X125230000Y-144230000D02*
X125230000Y-144200000D01*
X125230000Y-137770000D02*
X125230000Y-137800000D01*
X102770000Y-144230000D02*
X109230000Y-144230000D01*
X102770000Y-139700000D02*
X102770000Y-142300000D01*
X102770000Y-137770000D02*
X109230000Y-137770000D01*
X109230000Y-139700000D02*
X109230000Y-142300000D01*
X102770000Y-137800000D02*
X102770000Y-137770000D01*
X102770000Y-144230000D02*
X102770000Y-144200000D01*
X109230000Y-144230000D02*
X109230000Y-144200000D01*
X109230000Y-137770000D02*
X109230000Y-137800000D01*
X86770000Y-144230000D02*
X93230000Y-144230000D01*
X86770000Y-139700000D02*
X86770000Y-142300000D01*
X86770000Y-137770000D02*
X93230000Y-137770000D01*
X93230000Y-139700000D02*
X93230000Y-142300000D01*
X86770000Y-137800000D02*
X86770000Y-137770000D01*
X86770000Y-144230000D02*
X86770000Y-144200000D01*
X93230000Y-144230000D02*
X93230000Y-144200000D01*
X93230000Y-137770000D02*
X93230000Y-137800000D01*
X56420000Y-92820000D02*
X56720000Y-92820000D01*
X56720000Y-91930000D02*
X56370000Y-91930000D01*
X56720000Y-91930000D02*
X56720000Y-92820000D01*
X54170000Y-91440000D02*
X54170000Y-86460000D01*
X49930000Y-92820000D02*
X53780000Y-92820000D01*
X49930000Y-85080000D02*
X49930000Y-92820000D01*
X53780000Y-85080000D02*
X49930000Y-85080000D01*
X56420000Y-85080000D02*
X56720000Y-85080000D01*
X56720000Y-85080000D02*
X56720000Y-85970000D01*
X56720000Y-85970000D02*
X56370000Y-85970000D01*
X70770000Y-144230000D02*
X77230000Y-144230000D01*
X70770000Y-139700000D02*
X70770000Y-142300000D01*
X70770000Y-137770000D02*
X77230000Y-137770000D01*
X77230000Y-139700000D02*
X77230000Y-142300000D01*
X70770000Y-137800000D02*
X70770000Y-137770000D01*
X70770000Y-144230000D02*
X70770000Y-144200000D01*
X77230000Y-144230000D02*
X77230000Y-144200000D01*
X77230000Y-137770000D02*
X77230000Y-137800000D01*
X104810000Y-109258578D02*
X104810000Y-108741422D01*
X103390000Y-109258578D02*
X103390000Y-108741422D01*
X92158578Y-121290000D02*
X91641422Y-121290000D01*
X92158578Y-122710000D02*
X91641422Y-122710000D01*
X105258578Y-110890000D02*
X104741422Y-110890000D01*
X105258578Y-112310000D02*
X104741422Y-112310000D01*
X105290000Y-108741422D02*
X105290000Y-109258578D01*
X106710000Y-108741422D02*
X106710000Y-109258578D01*
X104741422Y-114310000D02*
X105258578Y-114310000D01*
X104741422Y-112890000D02*
X105258578Y-112890000D01*
X91641422Y-120910000D02*
X92158578Y-120910000D01*
X91641422Y-119490000D02*
X92158578Y-119490000D01*
X89641422Y-116710000D02*
X90158578Y-116710000D01*
X89641422Y-115290000D02*
X90158578Y-115290000D01*
X103110000Y-112058578D02*
X103110000Y-111541422D01*
X101690000Y-112058578D02*
X101690000Y-111541422D01*
X79090000Y-121341422D02*
X79090000Y-121858578D01*
X80510000Y-121341422D02*
X80510000Y-121858578D01*
X55910000Y-135858578D02*
X55910000Y-135341422D01*
X54490000Y-135858578D02*
X54490000Y-135341422D01*
X59890000Y-111997936D02*
X59890000Y-113202064D01*
X61710000Y-111997936D02*
X61710000Y-113202064D01*
X67341422Y-128510000D02*
X67858578Y-128510000D01*
X67341422Y-127090000D02*
X67858578Y-127090000D01*
X63890000Y-130141422D02*
X63890000Y-130658578D01*
X65310000Y-130141422D02*
X65310000Y-130658578D01*
X70890000Y-75341422D02*
X70890000Y-75858578D01*
X72310000Y-75341422D02*
X72310000Y-75858578D01*
X72690000Y-75341422D02*
X72690000Y-75858578D01*
X74110000Y-75341422D02*
X74110000Y-75858578D01*
X78458578Y-68110000D02*
X77941422Y-68110000D01*
X78458578Y-66690000D02*
X77941422Y-66690000D01*
X74490000Y-75341422D02*
X74490000Y-75858578D01*
X75910000Y-75341422D02*
X75910000Y-75858578D01*
X74910000Y-64858578D02*
X74910000Y-64341422D01*
X73490000Y-64858578D02*
X73490000Y-64341422D01*
X111641422Y-87510000D02*
X112158578Y-87510000D01*
X111641422Y-86090000D02*
X112158578Y-86090000D01*
X112158578Y-82290000D02*
X111641422Y-82290000D01*
X112158578Y-83710000D02*
X111641422Y-83710000D01*
X115858578Y-82290000D02*
X115341422Y-82290000D01*
X115858578Y-83710000D02*
X115341422Y-83710000D01*
X115337221Y-140590000D02*
X115662779Y-140590000D01*
X115337221Y-141610000D02*
X115662779Y-141610000D01*
X115337221Y-143010000D02*
X115662779Y-143010000D01*
X115337221Y-141990000D02*
X115662779Y-141990000D01*
X154490000Y-134441422D02*
X154490000Y-134958578D01*
X155910000Y-134441422D02*
X155910000Y-134958578D01*
X112562779Y-140590000D02*
X112237221Y-140590000D01*
X112562779Y-141610000D02*
X112237221Y-141610000D01*
X112562779Y-141990000D02*
X112237221Y-141990000D01*
X112562779Y-143010000D02*
X112237221Y-143010000D01*
X154490000Y-144441422D02*
X154490000Y-144958578D01*
X155910000Y-144441422D02*
X155910000Y-144958578D01*
X83237221Y-141710000D02*
X83562779Y-141710000D01*
X83237221Y-140690000D02*
X83562779Y-140690000D01*
X83237221Y-143110000D02*
X83562779Y-143110000D01*
X83237221Y-142090000D02*
X83562779Y-142090000D01*
X144490000Y-134441422D02*
X144490000Y-134958578D01*
X145910000Y-134441422D02*
X145910000Y-134958578D01*
X100710000Y-76258578D02*
X100710000Y-75741422D01*
X99290000Y-76258578D02*
X99290000Y-75741422D01*
X144490000Y-144441422D02*
X144490000Y-144958578D01*
X145910000Y-144441422D02*
X145910000Y-144958578D01*
X80562779Y-140690000D02*
X80237221Y-140690000D01*
X80562779Y-141710000D02*
X80237221Y-141710000D01*
X80562779Y-142090000D02*
X80237221Y-142090000D01*
X80562779Y-143110000D02*
X80237221Y-143110000D01*
X65130000Y-112980000D02*
X64030000Y-112980000D01*
X65130000Y-113250000D02*
X65130000Y-112980000D01*
X66630000Y-113250000D02*
X65130000Y-113250000D01*
X65130000Y-106620000D02*
X62300000Y-106620000D01*
X65130000Y-106350000D02*
X65130000Y-106620000D01*
X66630000Y-106350000D02*
X65130000Y-106350000D01*
X82400000Y-126233333D02*
X82400000Y-123900000D01*
X82400000Y-123900000D02*
X84733333Y-123900000D01*
X82780000Y-124280000D02*
X90020000Y-124280000D01*
X90020000Y-124280000D02*
X90020000Y-126550000D01*
X90020000Y-129250000D02*
X90020000Y-131520000D01*
X82780000Y-131520000D02*
X90020000Y-131520000D01*
X82780000Y-124280000D02*
X82780000Y-126550000D01*
X82780000Y-129250000D02*
X82780000Y-131520000D01*
X94490000Y-73541422D02*
X94490000Y-74058578D01*
X95910000Y-73541422D02*
X95910000Y-74058578D01*
X92200000Y-110100000D02*
X92200000Y-108700000D01*
X92900000Y-108000000D02*
X93500000Y-108000000D01*
X94200000Y-108700000D02*
X94200000Y-110100000D01*
X93500000Y-110800000D02*
X92900000Y-110800000D01*
X92900000Y-110800000D02*
G75*
G02X92200000Y-110100000I0J700000D01*
G01*
X94200000Y-110100000D02*
G75*
G02X93500000Y-110800000I-700000J0D01*
G01*
X93500000Y-108000000D02*
G75*
G02X94200000Y-108700000I0J-700000D01*
G01*
X92200000Y-108700000D02*
G75*
G02X92900000Y-108000000I700000J0D01*
G01*
X115600000Y-106100000D02*
X115600000Y-104700000D01*
X116300000Y-104000000D02*
X116900000Y-104000000D01*
X117600000Y-104700000D02*
X117600000Y-106100000D01*
X116900000Y-106800000D02*
X116300000Y-106800000D01*
X116300000Y-106800000D02*
G75*
G02X115600000Y-106100000I0J700000D01*
G01*
X117600000Y-106100000D02*
G75*
G02X116900000Y-106800000I-700000J0D01*
G01*
X116900000Y-104000000D02*
G75*
G02X117600000Y-104700000I0J-700000D01*
G01*
X115600000Y-104700000D02*
G75*
G02X116300000Y-104000000I700000J0D01*
G01*
X103700000Y-121200000D02*
X102300000Y-121200000D01*
X101600000Y-120500000D02*
X101600000Y-119900000D01*
X102300000Y-119200000D02*
X103700000Y-119200000D01*
X104400000Y-119900000D02*
X104400000Y-120500000D01*
X104400000Y-120500000D02*
G75*
G02X103700000Y-121200000I-700000J0D01*
G01*
X103700000Y-119200000D02*
G75*
G02X104400000Y-119900000I0J-700000D01*
G01*
X101600000Y-119900000D02*
G75*
G02X102300000Y-119200000I700000J0D01*
G01*
X102300000Y-121200000D02*
G75*
G02X101600000Y-120500000I0J700000D01*
G01*
X136600000Y-102700000D02*
X136600000Y-104100000D01*
X135900000Y-104800000D02*
X135300000Y-104800000D01*
X134600000Y-104100000D02*
X134600000Y-102700000D01*
X135300000Y-102000000D02*
X135900000Y-102000000D01*
X135900000Y-102000000D02*
G75*
G02X136600000Y-102700000I0J-700000D01*
G01*
X134600000Y-102700000D02*
G75*
G02X135300000Y-102000000I700000J0D01*
G01*
X135300000Y-104800000D02*
G75*
G02X134600000Y-104100000I0J700000D01*
G01*
X136600000Y-104100000D02*
G75*
G02X135900000Y-104800000I-700000J0D01*
G01*
X87000000Y-73900000D02*
X87000000Y-72500000D01*
X87700000Y-71800000D02*
X88300000Y-71800000D01*
X89000000Y-72500000D02*
X89000000Y-73900000D01*
X88300000Y-74600000D02*
X87700000Y-74600000D01*
X87700000Y-74600000D02*
G75*
G02X87000000Y-73900000I0J700000D01*
G01*
X89000000Y-73900000D02*
G75*
G02X88300000Y-74600000I-700000J0D01*
G01*
X88300000Y-71800000D02*
G75*
G02X89000000Y-72500000I0J-700000D01*
G01*
X87000000Y-72500000D02*
G75*
G02X87700000Y-71800000I700000J0D01*
G01*
X137900000Y-78000000D02*
X137900000Y-76600000D01*
X138600000Y-75900000D02*
X139200000Y-75900000D01*
X139900000Y-76600000D02*
X139900000Y-78000000D01*
X139200000Y-78700000D02*
X138600000Y-78700000D01*
X138600000Y-78700000D02*
G75*
G02X137900000Y-78000000I0J700000D01*
G01*
X139900000Y-78000000D02*
G75*
G02X139200000Y-78700000I-700000J0D01*
G01*
X139200000Y-75900000D02*
G75*
G02X139900000Y-76600000I0J-700000D01*
G01*
X137900000Y-76600000D02*
G75*
G02X138600000Y-75900000I700000J0D01*
G01*
X91930000Y-111930000D02*
X90600000Y-111930000D01*
X91930000Y-110600000D02*
X91930000Y-111930000D01*
X91930000Y-109330000D02*
X89270000Y-109330000D01*
X89270000Y-109330000D02*
X89270000Y-106730000D01*
X91930000Y-109330000D02*
X91930000Y-106730000D01*
X91930000Y-106730000D02*
X89270000Y-106730000D01*
X115430000Y-107930000D02*
X114100000Y-107930000D01*
X115430000Y-106600000D02*
X115430000Y-107930000D01*
X115430000Y-105330000D02*
X112770000Y-105330000D01*
X112770000Y-105330000D02*
X112770000Y-102730000D01*
X115430000Y-105330000D02*
X115430000Y-102730000D01*
X115430000Y-102730000D02*
X112770000Y-102730000D01*
X136870000Y-100870000D02*
X138200000Y-100870000D01*
X136870000Y-102200000D02*
X136870000Y-100870000D01*
X136870000Y-103470000D02*
X139530000Y-103470000D01*
X139530000Y-103470000D02*
X139530000Y-106070000D01*
X136870000Y-103470000D02*
X136870000Y-106070000D01*
X136870000Y-106070000D02*
X139530000Y-106070000D01*
X91930000Y-76330000D02*
X90600000Y-76330000D01*
X91930000Y-75000000D02*
X91930000Y-76330000D01*
X91930000Y-73730000D02*
X89270000Y-73730000D01*
X89270000Y-73730000D02*
X89270000Y-71130000D01*
X91930000Y-73730000D02*
X91930000Y-71130000D01*
X91930000Y-71130000D02*
X89270000Y-71130000D01*
X142930000Y-79830000D02*
X141600000Y-79830000D01*
X142930000Y-78500000D02*
X142930000Y-79830000D01*
X142930000Y-77230000D02*
X140270000Y-77230000D01*
X140270000Y-77230000D02*
X140270000Y-74630000D01*
X142930000Y-77230000D02*
X142930000Y-74630000D01*
X142930000Y-74630000D02*
X140270000Y-74630000D01*
X111300000Y-115750000D02*
X111300000Y-119650000D01*
X109300000Y-115750000D02*
X109300000Y-119650000D01*
X111300000Y-115750000D02*
X109300000Y-115750000D01*
X89900000Y-119250000D02*
X89900000Y-123150000D01*
X87900000Y-119250000D02*
X87900000Y-123150000D01*
X89900000Y-119250000D02*
X87900000Y-119250000D01*
X52160000Y-137285000D02*
X52160000Y-134600000D01*
X50240000Y-137285000D02*
X52160000Y-137285000D01*
X50240000Y-134600000D02*
X50240000Y-137285000D01*
X61800000Y-116950000D02*
X61800000Y-120850000D01*
X59800000Y-116950000D02*
X59800000Y-120850000D01*
X61800000Y-116950000D02*
X59800000Y-116950000D01*
X51960000Y-130085000D02*
X51960000Y-127400000D01*
X50040000Y-130085000D02*
X51960000Y-130085000D01*
X50040000Y-127400000D02*
X50040000Y-130085000D01*
X153290000Y-133620000D02*
X153290000Y-133464000D01*
X153290000Y-135936000D02*
X153290000Y-135780000D01*
X150688870Y-133620163D02*
G75*
G02X152770961Y-133620000I1041130J-1079837D01*
G01*
X150688870Y-135779837D02*
G75*
G03X152770961Y-135780000I1041130J1079837D01*
G01*
X150057665Y-133621392D02*
G75*
G02X153290000Y-133464484I1672335J-1078608D01*
G01*
X150057665Y-135778608D02*
G75*
G03X153290000Y-135935516I1672335J1078608D01*
G01*
X153285000Y-131540000D02*
X150600000Y-131540000D01*
X153285000Y-133460000D02*
X153285000Y-131540000D01*
X150600000Y-133460000D02*
X153285000Y-133460000D01*
X153290000Y-143620000D02*
X153290000Y-143464000D01*
X153290000Y-145936000D02*
X153290000Y-145780000D01*
X150688870Y-143620163D02*
G75*
G02X152770961Y-143620000I1041130J-1079837D01*
G01*
X150688870Y-145779837D02*
G75*
G03X152770961Y-145780000I1041130J1079837D01*
G01*
X150057665Y-143621392D02*
G75*
G02X153290000Y-143464484I1672335J-1078608D01*
G01*
X150057665Y-145778608D02*
G75*
G03X153290000Y-145935516I1672335J1078608D01*
G01*
X153285000Y-141540000D02*
X150600000Y-141540000D01*
X153285000Y-143460000D02*
X153285000Y-141540000D01*
X150600000Y-143460000D02*
X153285000Y-143460000D01*
X143290000Y-133620000D02*
X143290000Y-133464000D01*
X143290000Y-135936000D02*
X143290000Y-135780000D01*
X140688870Y-133620163D02*
G75*
G02X142770961Y-133620000I1041130J-1079837D01*
G01*
X140688870Y-135779837D02*
G75*
G03X142770961Y-135780000I1041130J1079837D01*
G01*
X140057665Y-133621392D02*
G75*
G02X143290000Y-133464484I1672335J-1078608D01*
G01*
X140057665Y-135778608D02*
G75*
G03X143290000Y-135935516I1672335J1078608D01*
G01*
X143285000Y-131540000D02*
X140600000Y-131540000D01*
X143285000Y-133460000D02*
X143285000Y-131540000D01*
X140600000Y-133460000D02*
X143285000Y-133460000D01*
X143290000Y-143620000D02*
X143290000Y-143464000D01*
X143290000Y-145936000D02*
X143290000Y-145780000D01*
X140688870Y-143620163D02*
G75*
G02X142770961Y-143620000I1041130J-1079837D01*
G01*
X140688870Y-145779837D02*
G75*
G03X142770961Y-145780000I1041130J1079837D01*
G01*
X140057665Y-143621392D02*
G75*
G02X143290000Y-143464484I1672335J-1078608D01*
G01*
X140057665Y-145778608D02*
G75*
G03X143290000Y-145935516I1672335J1078608D01*
G01*
X143285000Y-141540000D02*
X140600000Y-141540000D01*
X143285000Y-143460000D02*
X143285000Y-141540000D01*
X140600000Y-143460000D02*
X143285000Y-143460000D01*
X71310000Y-117058578D02*
X71310000Y-116541422D01*
X69890000Y-117058578D02*
X69890000Y-116541422D01*
X88310000Y-111102064D02*
X88310000Y-109897936D01*
X86490000Y-111102064D02*
X86490000Y-109897936D01*
X113497936Y-113610000D02*
X114702064Y-113610000D01*
X113497936Y-111790000D02*
X114702064Y-111790000D01*
X113497936Y-115810000D02*
X114702064Y-115810000D01*
X113497936Y-113990000D02*
X114702064Y-113990000D01*
X113497936Y-118010000D02*
X114702064Y-118010000D01*
X113497936Y-116190000D02*
X114702064Y-116190000D01*
X113497936Y-120210000D02*
X114702064Y-120210000D01*
X113497936Y-118390000D02*
X114702064Y-118390000D01*
X81290000Y-116997936D02*
X81290000Y-118202064D01*
X83110000Y-116997936D02*
X83110000Y-118202064D01*
X79090000Y-116997936D02*
X79090000Y-118202064D01*
X80910000Y-116997936D02*
X80910000Y-118202064D01*
X83490000Y-116997936D02*
X83490000Y-118202064D01*
X85310000Y-116997936D02*
X85310000Y-118202064D01*
X102741422Y-116510000D02*
X103258578Y-116510000D01*
X102741422Y-115090000D02*
X103258578Y-115090000D01*
X89641422Y-118510000D02*
X90158578Y-118510000D01*
X89641422Y-117090000D02*
X90158578Y-117090000D01*
X108141422Y-114310000D02*
X108658578Y-114310000D01*
X108141422Y-112890000D02*
X108658578Y-112890000D01*
X108141422Y-112510000D02*
X108658578Y-112510000D01*
X108141422Y-111090000D02*
X108658578Y-111090000D01*
X80758578Y-127490000D02*
X80241422Y-127490000D01*
X80758578Y-128910000D02*
X80241422Y-128910000D01*
X80758578Y-125490000D02*
X80241422Y-125490000D01*
X80758578Y-126910000D02*
X80241422Y-126910000D01*
X80758578Y-123490000D02*
X80241422Y-123490000D01*
X80758578Y-124910000D02*
X80241422Y-124910000D01*
X71341422Y-114910000D02*
X71858578Y-114910000D01*
X71341422Y-113490000D02*
X71858578Y-113490000D01*
X73310000Y-117058578D02*
X73310000Y-116541422D01*
X71890000Y-117058578D02*
X71890000Y-116541422D01*
X60658578Y-115090000D02*
X60141422Y-115090000D01*
X60658578Y-116510000D02*
X60141422Y-116510000D01*
X65237221Y-133710000D02*
X65562779Y-133710000D01*
X65237221Y-132690000D02*
X65562779Y-132690000D01*
X73110000Y-69058578D02*
X73110000Y-68541422D01*
X71690000Y-69058578D02*
X71690000Y-68541422D01*
X74510000Y-68962779D02*
X74510000Y-68637221D01*
X73490000Y-68962779D02*
X73490000Y-68637221D01*
X115337221Y-139190000D02*
X115662779Y-139190000D01*
X115337221Y-140210000D02*
X115662779Y-140210000D01*
X112562779Y-139190000D02*
X112237221Y-139190000D01*
X112562779Y-140210000D02*
X112237221Y-140210000D01*
X96437221Y-78510000D02*
X96762779Y-78510000D01*
X96437221Y-77490000D02*
X96762779Y-77490000D01*
X96141422Y-77310000D02*
X96658578Y-77310000D01*
X96141422Y-75890000D02*
X96658578Y-75890000D01*
X115915000Y-75725000D02*
X117165000Y-75725000D01*
X116540000Y-76350000D02*
X116540000Y-75100000D01*
X123195563Y-74860000D02*
X124260000Y-73795563D01*
X114804437Y-74860000D02*
X113740000Y-73795563D01*
X114804437Y-74860000D02*
X117790000Y-74860000D01*
X123195563Y-74860000D02*
X120210000Y-74860000D01*
X124260000Y-73795563D02*
X124260000Y-64340000D01*
X113740000Y-73795563D02*
X113740000Y-64340000D01*
X113740000Y-64340000D02*
X117790000Y-64340000D01*
X124260000Y-64340000D02*
X120210000Y-64340000D01*
X103862779Y-93690000D02*
X103537221Y-93690000D01*
X103862779Y-94710000D02*
X103537221Y-94710000D01*
X107690000Y-83037221D02*
X107690000Y-83362779D01*
X108710000Y-83037221D02*
X108710000Y-83362779D01*
X86941422Y-76910000D02*
X87458578Y-76910000D01*
X86941422Y-75490000D02*
X87458578Y-75490000D01*
X92510000Y-82962779D02*
X92510000Y-82637221D01*
X91490000Y-82962779D02*
X91490000Y-82637221D01*
X80562779Y-139290000D02*
X80237221Y-139290000D01*
X80562779Y-140310000D02*
X80237221Y-140310000D01*
X109441422Y-77510000D02*
X109958578Y-77510000D01*
X109441422Y-76090000D02*
X109958578Y-76090000D01*
X109441422Y-79610000D02*
X109958578Y-79610000D01*
X109441422Y-78190000D02*
X109958578Y-78190000D01*
X91110000Y-83058578D02*
X91110000Y-82541422D01*
X89690000Y-83058578D02*
X89690000Y-82541422D01*
X98941422Y-74110000D02*
X99458578Y-74110000D01*
X98941422Y-72690000D02*
X99458578Y-72690000D01*
X102341422Y-74110000D02*
X102858578Y-74110000D01*
X102341422Y-72690000D02*
X102858578Y-72690000D01*
D10*
X66866666Y-77852380D02*
X66866666Y-78566666D01*
X66819047Y-78709523D01*
X66723809Y-78804761D01*
X66580952Y-78852380D01*
X66485714Y-78852380D01*
X67819047Y-77852380D02*
X67342857Y-77852380D01*
X67295238Y-78328571D01*
X67342857Y-78280952D01*
X67438095Y-78233333D01*
X67676190Y-78233333D01*
X67771428Y-78280952D01*
X67819047Y-78328571D01*
X67866666Y-78423809D01*
X67866666Y-78661904D01*
X67819047Y-78757142D01*
X67771428Y-78804761D01*
X67676190Y-78852380D01*
X67438095Y-78852380D01*
X67342857Y-78804761D01*
X67295238Y-78757142D01*
X66697619Y-134695238D02*
X66650000Y-134790476D01*
X66554761Y-134885714D01*
X66411904Y-135028571D01*
X66364285Y-135123809D01*
X66364285Y-135219047D01*
X66602380Y-135171428D02*
X66554761Y-135266666D01*
X66459523Y-135361904D01*
X66269047Y-135409523D01*
X65935714Y-135409523D01*
X65745238Y-135361904D01*
X65650000Y-135266666D01*
X65602380Y-135171428D01*
X65602380Y-134980952D01*
X65650000Y-134885714D01*
X65745238Y-134790476D01*
X65935714Y-134742857D01*
X66269047Y-134742857D01*
X66459523Y-134790476D01*
X66554761Y-134885714D01*
X66602380Y-134980952D01*
X66602380Y-135171428D01*
X65935714Y-133885714D02*
X66602380Y-133885714D01*
X65554761Y-134123809D02*
X66269047Y-134361904D01*
X66269047Y-133742857D01*
X80704761Y-71347619D02*
X80609523Y-71300000D01*
X80514285Y-71204761D01*
X80371428Y-71061904D01*
X80276190Y-71014285D01*
X80180952Y-71014285D01*
X80228571Y-71252380D02*
X80133333Y-71204761D01*
X80038095Y-71109523D01*
X79990476Y-70919047D01*
X79990476Y-70585714D01*
X80038095Y-70395238D01*
X80133333Y-70300000D01*
X80228571Y-70252380D01*
X80419047Y-70252380D01*
X80514285Y-70300000D01*
X80609523Y-70395238D01*
X80657142Y-70585714D01*
X80657142Y-70919047D01*
X80609523Y-71109523D01*
X80514285Y-71204761D01*
X80419047Y-71252380D01*
X80228571Y-71252380D01*
X81038095Y-70347619D02*
X81085714Y-70300000D01*
X81180952Y-70252380D01*
X81419047Y-70252380D01*
X81514285Y-70300000D01*
X81561904Y-70347619D01*
X81609523Y-70442857D01*
X81609523Y-70538095D01*
X81561904Y-70680952D01*
X80990476Y-71252380D01*
X81609523Y-71252380D01*
X118647619Y-85895238D02*
X118600000Y-85990476D01*
X118504761Y-86085714D01*
X118361904Y-86228571D01*
X118314285Y-86323809D01*
X118314285Y-86419047D01*
X118552380Y-86371428D02*
X118504761Y-86466666D01*
X118409523Y-86561904D01*
X118219047Y-86609523D01*
X117885714Y-86609523D01*
X117695238Y-86561904D01*
X117600000Y-86466666D01*
X117552380Y-86371428D01*
X117552380Y-86180952D01*
X117600000Y-86085714D01*
X117695238Y-85990476D01*
X117885714Y-85942857D01*
X118219047Y-85942857D01*
X118409523Y-85990476D01*
X118504761Y-86085714D01*
X118552380Y-86180952D01*
X118552380Y-86371428D01*
X118552380Y-84990476D02*
X118552380Y-85561904D01*
X118552380Y-85276190D02*
X117552380Y-85276190D01*
X117695238Y-85371428D01*
X117790476Y-85466666D01*
X117838095Y-85561904D01*
X62957142Y-120282380D02*
X62623809Y-119806190D01*
X62385714Y-120282380D02*
X62385714Y-119282380D01*
X62766666Y-119282380D01*
X62861904Y-119330000D01*
X62909523Y-119377619D01*
X62957142Y-119472857D01*
X62957142Y-119615714D01*
X62909523Y-119710952D01*
X62861904Y-119758571D01*
X62766666Y-119806190D01*
X62385714Y-119806190D01*
X63338095Y-119377619D02*
X63385714Y-119330000D01*
X63480952Y-119282380D01*
X63719047Y-119282380D01*
X63814285Y-119330000D01*
X63861904Y-119377619D01*
X63909523Y-119472857D01*
X63909523Y-119568095D01*
X63861904Y-119710952D01*
X63290476Y-120282380D01*
X63909523Y-120282380D01*
X64480952Y-119710952D02*
X64385714Y-119663333D01*
X64338095Y-119615714D01*
X64290476Y-119520476D01*
X64290476Y-119472857D01*
X64338095Y-119377619D01*
X64385714Y-119330000D01*
X64480952Y-119282380D01*
X64671428Y-119282380D01*
X64766666Y-119330000D01*
X64814285Y-119377619D01*
X64861904Y-119472857D01*
X64861904Y-119520476D01*
X64814285Y-119615714D01*
X64766666Y-119663333D01*
X64671428Y-119710952D01*
X64480952Y-119710952D01*
X64385714Y-119758571D01*
X64338095Y-119806190D01*
X64290476Y-119901428D01*
X64290476Y-120091904D01*
X64338095Y-120187142D01*
X64385714Y-120234761D01*
X64480952Y-120282380D01*
X64671428Y-120282380D01*
X64766666Y-120234761D01*
X64814285Y-120187142D01*
X64861904Y-120091904D01*
X64861904Y-119901428D01*
X64814285Y-119806190D01*
X64766666Y-119758571D01*
X64671428Y-119710952D01*
X98452380Y-108842857D02*
X97976190Y-109176190D01*
X98452380Y-109414285D02*
X97452380Y-109414285D01*
X97452380Y-109033333D01*
X97500000Y-108938095D01*
X97547619Y-108890476D01*
X97642857Y-108842857D01*
X97785714Y-108842857D01*
X97880952Y-108890476D01*
X97928571Y-108938095D01*
X97976190Y-109033333D01*
X97976190Y-109414285D01*
X97785714Y-107985714D02*
X98452380Y-107985714D01*
X97404761Y-108223809D02*
X98119047Y-108461904D01*
X98119047Y-107842857D01*
X97452380Y-107271428D02*
X97452380Y-107176190D01*
X97500000Y-107080952D01*
X97547619Y-107033333D01*
X97642857Y-106985714D01*
X97833333Y-106938095D01*
X98071428Y-106938095D01*
X98261904Y-106985714D01*
X98357142Y-107033333D01*
X98404761Y-107080952D01*
X98452380Y-107176190D01*
X98452380Y-107271428D01*
X98404761Y-107366666D01*
X98357142Y-107414285D01*
X98261904Y-107461904D01*
X98071428Y-107509523D01*
X97833333Y-107509523D01*
X97642857Y-107461904D01*
X97547619Y-107414285D01*
X97500000Y-107366666D01*
X97452380Y-107271428D01*
X106185714Y-120802380D02*
X106185714Y-119802380D01*
X106423809Y-119802380D01*
X106566666Y-119850000D01*
X106661904Y-119945238D01*
X106709523Y-120040476D01*
X106757142Y-120230952D01*
X106757142Y-120373809D01*
X106709523Y-120564285D01*
X106661904Y-120659523D01*
X106566666Y-120754761D01*
X106423809Y-120802380D01*
X106185714Y-120802380D01*
X107709523Y-120802380D02*
X107138095Y-120802380D01*
X107423809Y-120802380D02*
X107423809Y-119802380D01*
X107328571Y-119945238D01*
X107233333Y-120040476D01*
X107138095Y-120088095D01*
X108566666Y-120135714D02*
X108566666Y-120802380D01*
X108328571Y-119754761D02*
X108090476Y-120469047D01*
X108709523Y-120469047D01*
X111157142Y-109157142D02*
X111109523Y-109204761D01*
X110966666Y-109252380D01*
X110871428Y-109252380D01*
X110728571Y-109204761D01*
X110633333Y-109109523D01*
X110585714Y-109014285D01*
X110538095Y-108823809D01*
X110538095Y-108680952D01*
X110585714Y-108490476D01*
X110633333Y-108395238D01*
X110728571Y-108300000D01*
X110871428Y-108252380D01*
X110966666Y-108252380D01*
X111109523Y-108300000D01*
X111157142Y-108347619D01*
X112014285Y-108585714D02*
X112014285Y-109252380D01*
X111776190Y-108204761D02*
X111538095Y-108919047D01*
X112157142Y-108919047D01*
X112966666Y-108252380D02*
X112776190Y-108252380D01*
X112680952Y-108300000D01*
X112633333Y-108347619D01*
X112538095Y-108490476D01*
X112490476Y-108680952D01*
X112490476Y-109061904D01*
X112538095Y-109157142D01*
X112585714Y-109204761D01*
X112680952Y-109252380D01*
X112871428Y-109252380D01*
X112966666Y-109204761D01*
X113014285Y-109157142D01*
X113061904Y-109061904D01*
X113061904Y-108823809D01*
X113014285Y-108728571D01*
X112966666Y-108680952D01*
X112871428Y-108633333D01*
X112680952Y-108633333D01*
X112585714Y-108680952D01*
X112538095Y-108728571D01*
X112490476Y-108823809D01*
X108157142Y-85757142D02*
X108109523Y-85804761D01*
X107966666Y-85852380D01*
X107871428Y-85852380D01*
X107728571Y-85804761D01*
X107633333Y-85709523D01*
X107585714Y-85614285D01*
X107538095Y-85423809D01*
X107538095Y-85280952D01*
X107585714Y-85090476D01*
X107633333Y-84995238D01*
X107728571Y-84900000D01*
X107871428Y-84852380D01*
X107966666Y-84852380D01*
X108109523Y-84900000D01*
X108157142Y-84947619D01*
X109014285Y-85185714D02*
X109014285Y-85852380D01*
X108776190Y-84804761D02*
X108538095Y-85519047D01*
X109157142Y-85519047D01*
X110014285Y-84852380D02*
X109538095Y-84852380D01*
X109490476Y-85328571D01*
X109538095Y-85280952D01*
X109633333Y-85233333D01*
X109871428Y-85233333D01*
X109966666Y-85280952D01*
X110014285Y-85328571D01*
X110061904Y-85423809D01*
X110061904Y-85661904D01*
X110014285Y-85757142D01*
X109966666Y-85804761D01*
X109871428Y-85852380D01*
X109633333Y-85852380D01*
X109538095Y-85804761D01*
X109490476Y-85757142D01*
X69557142Y-63652380D02*
X69223809Y-63176190D01*
X68985714Y-63652380D02*
X68985714Y-62652380D01*
X69366666Y-62652380D01*
X69461904Y-62700000D01*
X69509523Y-62747619D01*
X69557142Y-62842857D01*
X69557142Y-62985714D01*
X69509523Y-63080952D01*
X69461904Y-63128571D01*
X69366666Y-63176190D01*
X68985714Y-63176190D01*
X70509523Y-63652380D02*
X69938095Y-63652380D01*
X70223809Y-63652380D02*
X70223809Y-62652380D01*
X70128571Y-62795238D01*
X70033333Y-62890476D01*
X69938095Y-62938095D01*
X70985714Y-63652380D02*
X71176190Y-63652380D01*
X71271428Y-63604761D01*
X71319047Y-63557142D01*
X71414285Y-63414285D01*
X71461904Y-63223809D01*
X71461904Y-62842857D01*
X71414285Y-62747619D01*
X71366666Y-62700000D01*
X71271428Y-62652380D01*
X71080952Y-62652380D01*
X70985714Y-62700000D01*
X70938095Y-62747619D01*
X70890476Y-62842857D01*
X70890476Y-63080952D01*
X70938095Y-63176190D01*
X70985714Y-63223809D01*
X71080952Y-63271428D01*
X71271428Y-63271428D01*
X71366666Y-63223809D01*
X71414285Y-63176190D01*
X71461904Y-63080952D01*
X122157142Y-110157142D02*
X122109523Y-110204761D01*
X121966666Y-110252380D01*
X121871428Y-110252380D01*
X121728571Y-110204761D01*
X121633333Y-110109523D01*
X121585714Y-110014285D01*
X121538095Y-109823809D01*
X121538095Y-109680952D01*
X121585714Y-109490476D01*
X121633333Y-109395238D01*
X121728571Y-109300000D01*
X121871428Y-109252380D01*
X121966666Y-109252380D01*
X122109523Y-109300000D01*
X122157142Y-109347619D01*
X123014285Y-109585714D02*
X123014285Y-110252380D01*
X122776190Y-109204761D02*
X122538095Y-109919047D01*
X123157142Y-109919047D01*
X123966666Y-109585714D02*
X123966666Y-110252380D01*
X123728571Y-109204761D02*
X123490476Y-109919047D01*
X124109523Y-109919047D01*
X98966666Y-121852380D02*
X98966666Y-122566666D01*
X98919047Y-122709523D01*
X98823809Y-122804761D01*
X98680952Y-122852380D01*
X98585714Y-122852380D01*
X99442857Y-122852380D02*
X99442857Y-121852380D01*
X99823809Y-121852380D01*
X99919047Y-121900000D01*
X99966666Y-121947619D01*
X100014285Y-122042857D01*
X100014285Y-122185714D01*
X99966666Y-122280952D01*
X99919047Y-122328571D01*
X99823809Y-122376190D01*
X99442857Y-122376190D01*
X100871428Y-122185714D02*
X100871428Y-122852380D01*
X100633333Y-121804761D02*
X100395238Y-122519047D01*
X101014285Y-122519047D01*
X95838095Y-93452380D02*
X95838095Y-94261904D01*
X95885714Y-94357142D01*
X95933333Y-94404761D01*
X96028571Y-94452380D01*
X96219047Y-94452380D01*
X96314285Y-94404761D01*
X96361904Y-94357142D01*
X96409523Y-94261904D01*
X96409523Y-93452380D01*
X97409523Y-94452380D02*
X96838095Y-94452380D01*
X97123809Y-94452380D02*
X97123809Y-93452380D01*
X97028571Y-93595238D01*
X96933333Y-93690476D01*
X96838095Y-93738095D01*
X57438095Y-129652380D02*
X57438095Y-130461904D01*
X57485714Y-130557142D01*
X57533333Y-130604761D01*
X57628571Y-130652380D01*
X57819047Y-130652380D01*
X57914285Y-130604761D01*
X57961904Y-130557142D01*
X58009523Y-130461904D01*
X58009523Y-129652380D01*
X58438095Y-129747619D02*
X58485714Y-129700000D01*
X58580952Y-129652380D01*
X58819047Y-129652380D01*
X58914285Y-129700000D01*
X58961904Y-129747619D01*
X59009523Y-129842857D01*
X59009523Y-129938095D01*
X58961904Y-130080952D01*
X58390476Y-130652380D01*
X59009523Y-130652380D01*
X82557142Y-144557142D02*
X82509523Y-144604761D01*
X82366666Y-144652380D01*
X82271428Y-144652380D01*
X82128571Y-144604761D01*
X82033333Y-144509523D01*
X81985714Y-144414285D01*
X81938095Y-144223809D01*
X81938095Y-144080952D01*
X81985714Y-143890476D01*
X82033333Y-143795238D01*
X82128571Y-143700000D01*
X82271428Y-143652380D01*
X82366666Y-143652380D01*
X82509523Y-143700000D01*
X82557142Y-143747619D01*
X83509523Y-144652380D02*
X82938095Y-144652380D01*
X83223809Y-144652380D02*
X83223809Y-143652380D01*
X83128571Y-143795238D01*
X83033333Y-143890476D01*
X82938095Y-143938095D01*
X83842857Y-143652380D02*
X84461904Y-143652380D01*
X84128571Y-144033333D01*
X84271428Y-144033333D01*
X84366666Y-144080952D01*
X84414285Y-144128571D01*
X84461904Y-144223809D01*
X84461904Y-144461904D01*
X84414285Y-144557142D01*
X84366666Y-144604761D01*
X84271428Y-144652380D01*
X83985714Y-144652380D01*
X83890476Y-144604761D01*
X83842857Y-144557142D01*
X91557142Y-92957142D02*
X91509523Y-93004761D01*
X91366666Y-93052380D01*
X91271428Y-93052380D01*
X91128571Y-93004761D01*
X91033333Y-92909523D01*
X90985714Y-92814285D01*
X90938095Y-92623809D01*
X90938095Y-92480952D01*
X90985714Y-92290476D01*
X91033333Y-92195238D01*
X91128571Y-92100000D01*
X91271428Y-92052380D01*
X91366666Y-92052380D01*
X91509523Y-92100000D01*
X91557142Y-92147619D01*
X92509523Y-93052380D02*
X91938095Y-93052380D01*
X92223809Y-93052380D02*
X92223809Y-92052380D01*
X92128571Y-92195238D01*
X92033333Y-92290476D01*
X91938095Y-92338095D01*
X92890476Y-92147619D02*
X92938095Y-92100000D01*
X93033333Y-92052380D01*
X93271428Y-92052380D01*
X93366666Y-92100000D01*
X93414285Y-92147619D01*
X93461904Y-92242857D01*
X93461904Y-92338095D01*
X93414285Y-92480952D01*
X92842857Y-93052380D01*
X93461904Y-93052380D01*
X76957142Y-119557142D02*
X76909523Y-119604761D01*
X76766666Y-119652380D01*
X76671428Y-119652380D01*
X76528571Y-119604761D01*
X76433333Y-119509523D01*
X76385714Y-119414285D01*
X76338095Y-119223809D01*
X76338095Y-119080952D01*
X76385714Y-118890476D01*
X76433333Y-118795238D01*
X76528571Y-118700000D01*
X76671428Y-118652380D01*
X76766666Y-118652380D01*
X76909523Y-118700000D01*
X76957142Y-118747619D01*
X77290476Y-118652380D02*
X77909523Y-118652380D01*
X77576190Y-119033333D01*
X77719047Y-119033333D01*
X77814285Y-119080952D01*
X77861904Y-119128571D01*
X77909523Y-119223809D01*
X77909523Y-119461904D01*
X77861904Y-119557142D01*
X77814285Y-119604761D01*
X77719047Y-119652380D01*
X77433333Y-119652380D01*
X77338095Y-119604761D01*
X77290476Y-119557142D01*
X78290476Y-118747619D02*
X78338095Y-118700000D01*
X78433333Y-118652380D01*
X78671428Y-118652380D01*
X78766666Y-118700000D01*
X78814285Y-118747619D01*
X78861904Y-118842857D01*
X78861904Y-118938095D01*
X78814285Y-119080952D01*
X78242857Y-119652380D01*
X78861904Y-119652380D01*
X119702380Y-93442857D02*
X119226190Y-93776190D01*
X119702380Y-94014285D02*
X118702380Y-94014285D01*
X118702380Y-93633333D01*
X118750000Y-93538095D01*
X118797619Y-93490476D01*
X118892857Y-93442857D01*
X119035714Y-93442857D01*
X119130952Y-93490476D01*
X119178571Y-93538095D01*
X119226190Y-93633333D01*
X119226190Y-94014285D01*
X119702380Y-92490476D02*
X119702380Y-93061904D01*
X119702380Y-92776190D02*
X118702380Y-92776190D01*
X118845238Y-92871428D01*
X118940476Y-92966666D01*
X118988095Y-93061904D01*
X118702380Y-92157142D02*
X118702380Y-91538095D01*
X119083333Y-91871428D01*
X119083333Y-91728571D01*
X119130952Y-91633333D01*
X119178571Y-91585714D01*
X119273809Y-91538095D01*
X119511904Y-91538095D01*
X119607142Y-91585714D01*
X119654761Y-91633333D01*
X119702380Y-91728571D01*
X119702380Y-92014285D01*
X119654761Y-92109523D01*
X119607142Y-92157142D01*
X121602380Y-93442857D02*
X121126190Y-93776190D01*
X121602380Y-94014285D02*
X120602380Y-94014285D01*
X120602380Y-93633333D01*
X120650000Y-93538095D01*
X120697619Y-93490476D01*
X120792857Y-93442857D01*
X120935714Y-93442857D01*
X121030952Y-93490476D01*
X121078571Y-93538095D01*
X121126190Y-93633333D01*
X121126190Y-94014285D01*
X121602380Y-92490476D02*
X121602380Y-93061904D01*
X121602380Y-92776190D02*
X120602380Y-92776190D01*
X120745238Y-92871428D01*
X120840476Y-92966666D01*
X120888095Y-93061904D01*
X120697619Y-92109523D02*
X120650000Y-92061904D01*
X120602380Y-91966666D01*
X120602380Y-91728571D01*
X120650000Y-91633333D01*
X120697619Y-91585714D01*
X120792857Y-91538095D01*
X120888095Y-91538095D01*
X121030952Y-91585714D01*
X121602380Y-92157142D01*
X121602380Y-91538095D01*
X106433333Y-135452380D02*
X105957142Y-135452380D01*
X105957142Y-134452380D01*
X106671428Y-134452380D02*
X107290476Y-134452380D01*
X106957142Y-134833333D01*
X107100000Y-134833333D01*
X107195238Y-134880952D01*
X107242857Y-134928571D01*
X107290476Y-135023809D01*
X107290476Y-135261904D01*
X107242857Y-135357142D01*
X107195238Y-135404761D01*
X107100000Y-135452380D01*
X106814285Y-135452380D01*
X106719047Y-135404761D01*
X106671428Y-135357142D01*
X99157142Y-118157142D02*
X99109523Y-118204761D01*
X98966666Y-118252380D01*
X98871428Y-118252380D01*
X98728571Y-118204761D01*
X98633333Y-118109523D01*
X98585714Y-118014285D01*
X98538095Y-117823809D01*
X98538095Y-117680952D01*
X98585714Y-117490476D01*
X98633333Y-117395238D01*
X98728571Y-117300000D01*
X98871428Y-117252380D01*
X98966666Y-117252380D01*
X99109523Y-117300000D01*
X99157142Y-117347619D01*
X100014285Y-117585714D02*
X100014285Y-118252380D01*
X99776190Y-117204761D02*
X99538095Y-117919047D01*
X100157142Y-117919047D01*
X100442857Y-117252380D02*
X101061904Y-117252380D01*
X100728571Y-117633333D01*
X100871428Y-117633333D01*
X100966666Y-117680952D01*
X101014285Y-117728571D01*
X101061904Y-117823809D01*
X101061904Y-118061904D01*
X101014285Y-118157142D01*
X100966666Y-118204761D01*
X100871428Y-118252380D01*
X100585714Y-118252380D01*
X100490476Y-118204761D01*
X100442857Y-118157142D01*
X104123809Y-77776190D02*
X104123809Y-78252380D01*
X103790476Y-77252380D02*
X104123809Y-77776190D01*
X104457142Y-77252380D01*
X104742857Y-77347619D02*
X104790476Y-77300000D01*
X104885714Y-77252380D01*
X105123809Y-77252380D01*
X105219047Y-77300000D01*
X105266666Y-77347619D01*
X105314285Y-77442857D01*
X105314285Y-77538095D01*
X105266666Y-77680952D01*
X104695238Y-78252380D01*
X105314285Y-78252380D01*
X100323809Y-67576190D02*
X100323809Y-68052380D01*
X99990476Y-67052380D02*
X100323809Y-67576190D01*
X100657142Y-67052380D01*
X101514285Y-68052380D02*
X100942857Y-68052380D01*
X101228571Y-68052380D02*
X101228571Y-67052380D01*
X101133333Y-67195238D01*
X101038095Y-67290476D01*
X100942857Y-67338095D01*
X121661904Y-120452380D02*
X121661904Y-121261904D01*
X121709523Y-121357142D01*
X121757142Y-121404761D01*
X121852380Y-121452380D01*
X122042857Y-121452380D01*
X122138095Y-121404761D01*
X122185714Y-121357142D01*
X122233333Y-121261904D01*
X122233333Y-120452380D01*
X123233333Y-121452380D02*
X122661904Y-121452380D01*
X122947619Y-121452380D02*
X122947619Y-120452380D01*
X122852380Y-120595238D01*
X122757142Y-120690476D01*
X122661904Y-120738095D01*
X123614285Y-120547619D02*
X123661904Y-120500000D01*
X123757142Y-120452380D01*
X123995238Y-120452380D01*
X124090476Y-120500000D01*
X124138095Y-120547619D01*
X124185714Y-120642857D01*
X124185714Y-120738095D01*
X124138095Y-120880952D01*
X123566666Y-121452380D01*
X124185714Y-121452380D01*
X81161904Y-104652380D02*
X81161904Y-105461904D01*
X81209523Y-105557142D01*
X81257142Y-105604761D01*
X81352380Y-105652380D01*
X81542857Y-105652380D01*
X81638095Y-105604761D01*
X81685714Y-105557142D01*
X81733333Y-105461904D01*
X81733333Y-104652380D01*
X82733333Y-105652380D02*
X82161904Y-105652380D01*
X82447619Y-105652380D02*
X82447619Y-104652380D01*
X82352380Y-104795238D01*
X82257142Y-104890476D01*
X82161904Y-104938095D01*
X83685714Y-105652380D02*
X83114285Y-105652380D01*
X83400000Y-105652380D02*
X83400000Y-104652380D01*
X83304761Y-104795238D01*
X83209523Y-104890476D01*
X83114285Y-104938095D01*
X112961904Y-121852380D02*
X112961904Y-122661904D01*
X113009523Y-122757142D01*
X113057142Y-122804761D01*
X113152380Y-122852380D01*
X113342857Y-122852380D01*
X113438095Y-122804761D01*
X113485714Y-122757142D01*
X113533333Y-122661904D01*
X113533333Y-121852380D01*
X114533333Y-122852380D02*
X113961904Y-122852380D01*
X114247619Y-122852380D02*
X114247619Y-121852380D01*
X114152380Y-121995238D01*
X114057142Y-122090476D01*
X113961904Y-122138095D01*
X115152380Y-121852380D02*
X115247619Y-121852380D01*
X115342857Y-121900000D01*
X115390476Y-121947619D01*
X115438095Y-122042857D01*
X115485714Y-122233333D01*
X115485714Y-122471428D01*
X115438095Y-122661904D01*
X115390476Y-122757142D01*
X115342857Y-122804761D01*
X115247619Y-122852380D01*
X115152380Y-122852380D01*
X115057142Y-122804761D01*
X115009523Y-122757142D01*
X114961904Y-122661904D01*
X114914285Y-122471428D01*
X114914285Y-122233333D01*
X114961904Y-122042857D01*
X115009523Y-121947619D01*
X115057142Y-121900000D01*
X115152380Y-121852380D01*
X81038095Y-121452380D02*
X81038095Y-122261904D01*
X81085714Y-122357142D01*
X81133333Y-122404761D01*
X81228571Y-122452380D01*
X81419047Y-122452380D01*
X81514285Y-122404761D01*
X81561904Y-122357142D01*
X81609523Y-122261904D01*
X81609523Y-121452380D01*
X82133333Y-122452380D02*
X82323809Y-122452380D01*
X82419047Y-122404761D01*
X82466666Y-122357142D01*
X82561904Y-122214285D01*
X82609523Y-122023809D01*
X82609523Y-121642857D01*
X82561904Y-121547619D01*
X82514285Y-121500000D01*
X82419047Y-121452380D01*
X82228571Y-121452380D01*
X82133333Y-121500000D01*
X82085714Y-121547619D01*
X82038095Y-121642857D01*
X82038095Y-121880952D01*
X82085714Y-121976190D01*
X82133333Y-122023809D01*
X82228571Y-122071428D01*
X82419047Y-122071428D01*
X82514285Y-122023809D01*
X82561904Y-121976190D01*
X82609523Y-121880952D01*
X67638095Y-117652380D02*
X67638095Y-118461904D01*
X67685714Y-118557142D01*
X67733333Y-118604761D01*
X67828571Y-118652380D01*
X68019047Y-118652380D01*
X68114285Y-118604761D01*
X68161904Y-118557142D01*
X68209523Y-118461904D01*
X68209523Y-117652380D01*
X68590476Y-117652380D02*
X69257142Y-117652380D01*
X68828571Y-118652380D01*
X69838095Y-130052380D02*
X69838095Y-130861904D01*
X69885714Y-130957142D01*
X69933333Y-131004761D01*
X70028571Y-131052380D01*
X70219047Y-131052380D01*
X70314285Y-131004761D01*
X70361904Y-130957142D01*
X70409523Y-130861904D01*
X70409523Y-130052380D01*
X71314285Y-130052380D02*
X71123809Y-130052380D01*
X71028571Y-130100000D01*
X70980952Y-130147619D01*
X70885714Y-130290476D01*
X70838095Y-130480952D01*
X70838095Y-130861904D01*
X70885714Y-130957142D01*
X70933333Y-131004761D01*
X71028571Y-131052380D01*
X71219047Y-131052380D01*
X71314285Y-131004761D01*
X71361904Y-130957142D01*
X71409523Y-130861904D01*
X71409523Y-130623809D01*
X71361904Y-130528571D01*
X71314285Y-130480952D01*
X71219047Y-130433333D01*
X71028571Y-130433333D01*
X70933333Y-130480952D01*
X70885714Y-130528571D01*
X70838095Y-130623809D01*
X113338095Y-110452380D02*
X113909523Y-110452380D01*
X113623809Y-111452380D02*
X113623809Y-110452380D01*
X114242857Y-111452380D02*
X114242857Y-110452380D01*
X114623809Y-110452380D01*
X114719047Y-110500000D01*
X114766666Y-110547619D01*
X114814285Y-110642857D01*
X114814285Y-110785714D01*
X114766666Y-110880952D01*
X114719047Y-110928571D01*
X114623809Y-110976190D01*
X114242857Y-110976190D01*
X115147619Y-110452380D02*
X115814285Y-110452380D01*
X115385714Y-111452380D01*
X92138095Y-113252380D02*
X92709523Y-113252380D01*
X92423809Y-114252380D02*
X92423809Y-113252380D01*
X93042857Y-114252380D02*
X93042857Y-113252380D01*
X93423809Y-113252380D01*
X93519047Y-113300000D01*
X93566666Y-113347619D01*
X93614285Y-113442857D01*
X93614285Y-113585714D01*
X93566666Y-113680952D01*
X93519047Y-113728571D01*
X93423809Y-113776190D01*
X93042857Y-113776190D01*
X94471428Y-113252380D02*
X94280952Y-113252380D01*
X94185714Y-113300000D01*
X94138095Y-113347619D01*
X94042857Y-113490476D01*
X93995238Y-113680952D01*
X93995238Y-114061904D01*
X94042857Y-114157142D01*
X94090476Y-114204761D01*
X94185714Y-114252380D01*
X94376190Y-114252380D01*
X94471428Y-114204761D01*
X94519047Y-114157142D01*
X94566666Y-114061904D01*
X94566666Y-113823809D01*
X94519047Y-113728571D01*
X94471428Y-113680952D01*
X94376190Y-113633333D01*
X94185714Y-113633333D01*
X94090476Y-113680952D01*
X94042857Y-113728571D01*
X93995238Y-113823809D01*
X112738095Y-130452380D02*
X113309523Y-130452380D01*
X113023809Y-131452380D02*
X113023809Y-130452380D01*
X113642857Y-131452380D02*
X113642857Y-130452380D01*
X114023809Y-130452380D01*
X114119047Y-130500000D01*
X114166666Y-130547619D01*
X114214285Y-130642857D01*
X114214285Y-130785714D01*
X114166666Y-130880952D01*
X114119047Y-130928571D01*
X114023809Y-130976190D01*
X113642857Y-130976190D01*
X115119047Y-130452380D02*
X114642857Y-130452380D01*
X114595238Y-130928571D01*
X114642857Y-130880952D01*
X114738095Y-130833333D01*
X114976190Y-130833333D01*
X115071428Y-130880952D01*
X115119047Y-130928571D01*
X115166666Y-131023809D01*
X115166666Y-131261904D01*
X115119047Y-131357142D01*
X115071428Y-131404761D01*
X114976190Y-131452380D01*
X114738095Y-131452380D01*
X114642857Y-131404761D01*
X114595238Y-131357142D01*
X98938095Y-126604380D02*
X99509523Y-126604380D01*
X99223809Y-127604380D02*
X99223809Y-126604380D01*
X99842857Y-127604380D02*
X99842857Y-126604380D01*
X100223809Y-126604380D01*
X100319047Y-126652000D01*
X100366666Y-126699619D01*
X100414285Y-126794857D01*
X100414285Y-126937714D01*
X100366666Y-127032952D01*
X100319047Y-127080571D01*
X100223809Y-127128190D01*
X99842857Y-127128190D01*
X101271428Y-126937714D02*
X101271428Y-127604380D01*
X101033333Y-126556761D02*
X100795238Y-127271047D01*
X101414285Y-127271047D01*
X90738095Y-126652380D02*
X91309523Y-126652380D01*
X91023809Y-127652380D02*
X91023809Y-126652380D01*
X91642857Y-127652380D02*
X91642857Y-126652380D01*
X92023809Y-126652380D01*
X92119047Y-126700000D01*
X92166666Y-126747619D01*
X92214285Y-126842857D01*
X92214285Y-126985714D01*
X92166666Y-127080952D01*
X92119047Y-127128571D01*
X92023809Y-127176190D01*
X91642857Y-127176190D01*
X92547619Y-126652380D02*
X93166666Y-126652380D01*
X92833333Y-127033333D01*
X92976190Y-127033333D01*
X93071428Y-127080952D01*
X93119047Y-127128571D01*
X93166666Y-127223809D01*
X93166666Y-127461904D01*
X93119047Y-127557142D01*
X93071428Y-127604761D01*
X92976190Y-127652380D01*
X92690476Y-127652380D01*
X92595238Y-127604761D01*
X92547619Y-127557142D01*
X108938095Y-105652380D02*
X109509523Y-105652380D01*
X109223809Y-106652380D02*
X109223809Y-105652380D01*
X109842857Y-106652380D02*
X109842857Y-105652380D01*
X110223809Y-105652380D01*
X110319047Y-105700000D01*
X110366666Y-105747619D01*
X110414285Y-105842857D01*
X110414285Y-105985714D01*
X110366666Y-106080952D01*
X110319047Y-106128571D01*
X110223809Y-106176190D01*
X109842857Y-106176190D01*
X110795238Y-105747619D02*
X110842857Y-105700000D01*
X110938095Y-105652380D01*
X111176190Y-105652380D01*
X111271428Y-105700000D01*
X111319047Y-105747619D01*
X111366666Y-105842857D01*
X111366666Y-105938095D01*
X111319047Y-106080952D01*
X110747619Y-106652380D01*
X111366666Y-106652380D01*
X79138095Y-129452380D02*
X79709523Y-129452380D01*
X79423809Y-130452380D02*
X79423809Y-129452380D01*
X80042857Y-130452380D02*
X80042857Y-129452380D01*
X80423809Y-129452380D01*
X80519047Y-129500000D01*
X80566666Y-129547619D01*
X80614285Y-129642857D01*
X80614285Y-129785714D01*
X80566666Y-129880952D01*
X80519047Y-129928571D01*
X80423809Y-129976190D01*
X80042857Y-129976190D01*
X81566666Y-130452380D02*
X80995238Y-130452380D01*
X81280952Y-130452380D02*
X81280952Y-129452380D01*
X81185714Y-129595238D01*
X81090476Y-129690476D01*
X80995238Y-129738095D01*
X120666666Y-146004761D02*
X120809523Y-146052380D01*
X121047619Y-146052380D01*
X121142857Y-146004761D01*
X121190476Y-145957142D01*
X121238095Y-145861904D01*
X121238095Y-145766666D01*
X121190476Y-145671428D01*
X121142857Y-145623809D01*
X121047619Y-145576190D01*
X120857142Y-145528571D01*
X120761904Y-145480952D01*
X120714285Y-145433333D01*
X120666666Y-145338095D01*
X120666666Y-145242857D01*
X120714285Y-145147619D01*
X120761904Y-145100000D01*
X120857142Y-145052380D01*
X121095238Y-145052380D01*
X121238095Y-145100000D01*
X121571428Y-145052380D02*
X121809523Y-146052380D01*
X122000000Y-145338095D01*
X122190476Y-146052380D01*
X122428571Y-145052380D01*
X123285714Y-145052380D02*
X122809523Y-145052380D01*
X122761904Y-145528571D01*
X122809523Y-145480952D01*
X122904761Y-145433333D01*
X123142857Y-145433333D01*
X123238095Y-145480952D01*
X123285714Y-145528571D01*
X123333333Y-145623809D01*
X123333333Y-145861904D01*
X123285714Y-145957142D01*
X123238095Y-146004761D01*
X123142857Y-146052380D01*
X122904761Y-146052380D01*
X122809523Y-146004761D01*
X122761904Y-145957142D01*
X104666666Y-146004761D02*
X104809523Y-146052380D01*
X105047619Y-146052380D01*
X105142857Y-146004761D01*
X105190476Y-145957142D01*
X105238095Y-145861904D01*
X105238095Y-145766666D01*
X105190476Y-145671428D01*
X105142857Y-145623809D01*
X105047619Y-145576190D01*
X104857142Y-145528571D01*
X104761904Y-145480952D01*
X104714285Y-145433333D01*
X104666666Y-145338095D01*
X104666666Y-145242857D01*
X104714285Y-145147619D01*
X104761904Y-145100000D01*
X104857142Y-145052380D01*
X105095238Y-145052380D01*
X105238095Y-145100000D01*
X105571428Y-145052380D02*
X105809523Y-146052380D01*
X106000000Y-145338095D01*
X106190476Y-146052380D01*
X106428571Y-145052380D01*
X107238095Y-145385714D02*
X107238095Y-146052380D01*
X107000000Y-145004761D02*
X106761904Y-145719047D01*
X107380952Y-145719047D01*
X88666666Y-146004761D02*
X88809523Y-146052380D01*
X89047619Y-146052380D01*
X89142857Y-146004761D01*
X89190476Y-145957142D01*
X89238095Y-145861904D01*
X89238095Y-145766666D01*
X89190476Y-145671428D01*
X89142857Y-145623809D01*
X89047619Y-145576190D01*
X88857142Y-145528571D01*
X88761904Y-145480952D01*
X88714285Y-145433333D01*
X88666666Y-145338095D01*
X88666666Y-145242857D01*
X88714285Y-145147619D01*
X88761904Y-145100000D01*
X88857142Y-145052380D01*
X89095238Y-145052380D01*
X89238095Y-145100000D01*
X89571428Y-145052380D02*
X89809523Y-146052380D01*
X90000000Y-145338095D01*
X90190476Y-146052380D01*
X90428571Y-145052380D01*
X90714285Y-145052380D02*
X91333333Y-145052380D01*
X91000000Y-145433333D01*
X91142857Y-145433333D01*
X91238095Y-145480952D01*
X91285714Y-145528571D01*
X91333333Y-145623809D01*
X91333333Y-145861904D01*
X91285714Y-145957142D01*
X91238095Y-146004761D01*
X91142857Y-146052380D01*
X90857142Y-146052380D01*
X90761904Y-146004761D01*
X90714285Y-145957142D01*
X50866666Y-94804761D02*
X51009523Y-94852380D01*
X51247619Y-94852380D01*
X51342857Y-94804761D01*
X51390476Y-94757142D01*
X51438095Y-94661904D01*
X51438095Y-94566666D01*
X51390476Y-94471428D01*
X51342857Y-94423809D01*
X51247619Y-94376190D01*
X51057142Y-94328571D01*
X50961904Y-94280952D01*
X50914285Y-94233333D01*
X50866666Y-94138095D01*
X50866666Y-94042857D01*
X50914285Y-93947619D01*
X50961904Y-93900000D01*
X51057142Y-93852380D01*
X51295238Y-93852380D01*
X51438095Y-93900000D01*
X51771428Y-93852380D02*
X52009523Y-94852380D01*
X52200000Y-94138095D01*
X52390476Y-94852380D01*
X52628571Y-93852380D01*
X52961904Y-93947619D02*
X53009523Y-93900000D01*
X53104761Y-93852380D01*
X53342857Y-93852380D01*
X53438095Y-93900000D01*
X53485714Y-93947619D01*
X53533333Y-94042857D01*
X53533333Y-94138095D01*
X53485714Y-94280952D01*
X52914285Y-94852380D01*
X53533333Y-94852380D01*
X72666666Y-146004761D02*
X72809523Y-146052380D01*
X73047619Y-146052380D01*
X73142857Y-146004761D01*
X73190476Y-145957142D01*
X73238095Y-145861904D01*
X73238095Y-145766666D01*
X73190476Y-145671428D01*
X73142857Y-145623809D01*
X73047619Y-145576190D01*
X72857142Y-145528571D01*
X72761904Y-145480952D01*
X72714285Y-145433333D01*
X72666666Y-145338095D01*
X72666666Y-145242857D01*
X72714285Y-145147619D01*
X72761904Y-145100000D01*
X72857142Y-145052380D01*
X73095238Y-145052380D01*
X73238095Y-145100000D01*
X73571428Y-145052380D02*
X73809523Y-146052380D01*
X74000000Y-145338095D01*
X74190476Y-146052380D01*
X74428571Y-145052380D01*
X75333333Y-146052380D02*
X74761904Y-146052380D01*
X75047619Y-146052380D02*
X75047619Y-145052380D01*
X74952380Y-145195238D01*
X74857142Y-145290476D01*
X74761904Y-145338095D01*
X99852380Y-109642857D02*
X99376190Y-109976190D01*
X99852380Y-110214285D02*
X98852380Y-110214285D01*
X98852380Y-109833333D01*
X98900000Y-109738095D01*
X98947619Y-109690476D01*
X99042857Y-109642857D01*
X99185714Y-109642857D01*
X99280952Y-109690476D01*
X99328571Y-109738095D01*
X99376190Y-109833333D01*
X99376190Y-110214285D01*
X98852380Y-109309523D02*
X98852380Y-108690476D01*
X99233333Y-109023809D01*
X99233333Y-108880952D01*
X99280952Y-108785714D01*
X99328571Y-108738095D01*
X99423809Y-108690476D01*
X99661904Y-108690476D01*
X99757142Y-108738095D01*
X99804761Y-108785714D01*
X99852380Y-108880952D01*
X99852380Y-109166666D01*
X99804761Y-109261904D01*
X99757142Y-109309523D01*
X99852380Y-108214285D02*
X99852380Y-108023809D01*
X99804761Y-107928571D01*
X99757142Y-107880952D01*
X99614285Y-107785714D01*
X99423809Y-107738095D01*
X99042857Y-107738095D01*
X98947619Y-107785714D01*
X98900000Y-107833333D01*
X98852380Y-107928571D01*
X98852380Y-108119047D01*
X98900000Y-108214285D01*
X98947619Y-108261904D01*
X99042857Y-108309523D01*
X99280952Y-108309523D01*
X99376190Y-108261904D01*
X99423809Y-108214285D01*
X99471428Y-108119047D01*
X99471428Y-107928571D01*
X99423809Y-107833333D01*
X99376190Y-107785714D01*
X99280952Y-107738095D01*
X94557142Y-122452380D02*
X94223809Y-121976190D01*
X93985714Y-122452380D02*
X93985714Y-121452380D01*
X94366666Y-121452380D01*
X94461904Y-121500000D01*
X94509523Y-121547619D01*
X94557142Y-121642857D01*
X94557142Y-121785714D01*
X94509523Y-121880952D01*
X94461904Y-121928571D01*
X94366666Y-121976190D01*
X93985714Y-121976190D01*
X94890476Y-121452380D02*
X95509523Y-121452380D01*
X95176190Y-121833333D01*
X95319047Y-121833333D01*
X95414285Y-121880952D01*
X95461904Y-121928571D01*
X95509523Y-122023809D01*
X95509523Y-122261904D01*
X95461904Y-122357142D01*
X95414285Y-122404761D01*
X95319047Y-122452380D01*
X95033333Y-122452380D01*
X94938095Y-122404761D01*
X94890476Y-122357142D01*
X96080952Y-121880952D02*
X95985714Y-121833333D01*
X95938095Y-121785714D01*
X95890476Y-121690476D01*
X95890476Y-121642857D01*
X95938095Y-121547619D01*
X95985714Y-121500000D01*
X96080952Y-121452380D01*
X96271428Y-121452380D01*
X96366666Y-121500000D01*
X96414285Y-121547619D01*
X96461904Y-121642857D01*
X96461904Y-121690476D01*
X96414285Y-121785714D01*
X96366666Y-121833333D01*
X96271428Y-121880952D01*
X96080952Y-121880952D01*
X95985714Y-121928571D01*
X95938095Y-121976190D01*
X95890476Y-122071428D01*
X95890476Y-122261904D01*
X95938095Y-122357142D01*
X95985714Y-122404761D01*
X96080952Y-122452380D01*
X96271428Y-122452380D01*
X96366666Y-122404761D01*
X96414285Y-122357142D01*
X96461904Y-122261904D01*
X96461904Y-122071428D01*
X96414285Y-121976190D01*
X96366666Y-121928571D01*
X96271428Y-121880952D01*
X99357142Y-113052380D02*
X99023809Y-112576190D01*
X98785714Y-113052380D02*
X98785714Y-112052380D01*
X99166666Y-112052380D01*
X99261904Y-112100000D01*
X99309523Y-112147619D01*
X99357142Y-112242857D01*
X99357142Y-112385714D01*
X99309523Y-112480952D01*
X99261904Y-112528571D01*
X99166666Y-112576190D01*
X98785714Y-112576190D01*
X99690476Y-112052380D02*
X100309523Y-112052380D01*
X99976190Y-112433333D01*
X100119047Y-112433333D01*
X100214285Y-112480952D01*
X100261904Y-112528571D01*
X100309523Y-112623809D01*
X100309523Y-112861904D01*
X100261904Y-112957142D01*
X100214285Y-113004761D01*
X100119047Y-113052380D01*
X99833333Y-113052380D01*
X99738095Y-113004761D01*
X99690476Y-112957142D01*
X100642857Y-112052380D02*
X101309523Y-112052380D01*
X100880952Y-113052380D01*
X101252380Y-109642857D02*
X100776190Y-109976190D01*
X101252380Y-110214285D02*
X100252380Y-110214285D01*
X100252380Y-109833333D01*
X100300000Y-109738095D01*
X100347619Y-109690476D01*
X100442857Y-109642857D01*
X100585714Y-109642857D01*
X100680952Y-109690476D01*
X100728571Y-109738095D01*
X100776190Y-109833333D01*
X100776190Y-110214285D01*
X100252380Y-109309523D02*
X100252380Y-108690476D01*
X100633333Y-109023809D01*
X100633333Y-108880952D01*
X100680952Y-108785714D01*
X100728571Y-108738095D01*
X100823809Y-108690476D01*
X101061904Y-108690476D01*
X101157142Y-108738095D01*
X101204761Y-108785714D01*
X101252380Y-108880952D01*
X101252380Y-109166666D01*
X101204761Y-109261904D01*
X101157142Y-109309523D01*
X100252380Y-107833333D02*
X100252380Y-108023809D01*
X100300000Y-108119047D01*
X100347619Y-108166666D01*
X100490476Y-108261904D01*
X100680952Y-108309523D01*
X101061904Y-108309523D01*
X101157142Y-108261904D01*
X101204761Y-108214285D01*
X101252380Y-108119047D01*
X101252380Y-107928571D01*
X101204761Y-107833333D01*
X101157142Y-107785714D01*
X101061904Y-107738095D01*
X100823809Y-107738095D01*
X100728571Y-107785714D01*
X100680952Y-107833333D01*
X100633333Y-107928571D01*
X100633333Y-108119047D01*
X100680952Y-108214285D01*
X100728571Y-108261904D01*
X100823809Y-108309523D01*
X99357142Y-111652380D02*
X99023809Y-111176190D01*
X98785714Y-111652380D02*
X98785714Y-110652380D01*
X99166666Y-110652380D01*
X99261904Y-110700000D01*
X99309523Y-110747619D01*
X99357142Y-110842857D01*
X99357142Y-110985714D01*
X99309523Y-111080952D01*
X99261904Y-111128571D01*
X99166666Y-111176190D01*
X98785714Y-111176190D01*
X99690476Y-110652380D02*
X100309523Y-110652380D01*
X99976190Y-111033333D01*
X100119047Y-111033333D01*
X100214285Y-111080952D01*
X100261904Y-111128571D01*
X100309523Y-111223809D01*
X100309523Y-111461904D01*
X100261904Y-111557142D01*
X100214285Y-111604761D01*
X100119047Y-111652380D01*
X99833333Y-111652380D01*
X99738095Y-111604761D01*
X99690476Y-111557142D01*
X101214285Y-110652380D02*
X100738095Y-110652380D01*
X100690476Y-111128571D01*
X100738095Y-111080952D01*
X100833333Y-111033333D01*
X101071428Y-111033333D01*
X101166666Y-111080952D01*
X101214285Y-111128571D01*
X101261904Y-111223809D01*
X101261904Y-111461904D01*
X101214285Y-111557142D01*
X101166666Y-111604761D01*
X101071428Y-111652380D01*
X100833333Y-111652380D01*
X100738095Y-111604761D01*
X100690476Y-111557142D01*
X94557142Y-120652380D02*
X94223809Y-120176190D01*
X93985714Y-120652380D02*
X93985714Y-119652380D01*
X94366666Y-119652380D01*
X94461904Y-119700000D01*
X94509523Y-119747619D01*
X94557142Y-119842857D01*
X94557142Y-119985714D01*
X94509523Y-120080952D01*
X94461904Y-120128571D01*
X94366666Y-120176190D01*
X93985714Y-120176190D01*
X94890476Y-119652380D02*
X95509523Y-119652380D01*
X95176190Y-120033333D01*
X95319047Y-120033333D01*
X95414285Y-120080952D01*
X95461904Y-120128571D01*
X95509523Y-120223809D01*
X95509523Y-120461904D01*
X95461904Y-120557142D01*
X95414285Y-120604761D01*
X95319047Y-120652380D01*
X95033333Y-120652380D01*
X94938095Y-120604761D01*
X94890476Y-120557142D01*
X96366666Y-119985714D02*
X96366666Y-120652380D01*
X96128571Y-119604761D02*
X95890476Y-120319047D01*
X96509523Y-120319047D01*
X92757142Y-116452380D02*
X92423809Y-115976190D01*
X92185714Y-116452380D02*
X92185714Y-115452380D01*
X92566666Y-115452380D01*
X92661904Y-115500000D01*
X92709523Y-115547619D01*
X92757142Y-115642857D01*
X92757142Y-115785714D01*
X92709523Y-115880952D01*
X92661904Y-115928571D01*
X92566666Y-115976190D01*
X92185714Y-115976190D01*
X93090476Y-115452380D02*
X93709523Y-115452380D01*
X93376190Y-115833333D01*
X93519047Y-115833333D01*
X93614285Y-115880952D01*
X93661904Y-115928571D01*
X93709523Y-116023809D01*
X93709523Y-116261904D01*
X93661904Y-116357142D01*
X93614285Y-116404761D01*
X93519047Y-116452380D01*
X93233333Y-116452380D01*
X93138095Y-116404761D01*
X93090476Y-116357142D01*
X94042857Y-115452380D02*
X94661904Y-115452380D01*
X94328571Y-115833333D01*
X94471428Y-115833333D01*
X94566666Y-115880952D01*
X94614285Y-115928571D01*
X94661904Y-116023809D01*
X94661904Y-116261904D01*
X94614285Y-116357142D01*
X94566666Y-116404761D01*
X94471428Y-116452380D01*
X94185714Y-116452380D01*
X94090476Y-116404761D01*
X94042857Y-116357142D01*
X98452380Y-111842857D02*
X97976190Y-112176190D01*
X98452380Y-112414285D02*
X97452380Y-112414285D01*
X97452380Y-112033333D01*
X97500000Y-111938095D01*
X97547619Y-111890476D01*
X97642857Y-111842857D01*
X97785714Y-111842857D01*
X97880952Y-111890476D01*
X97928571Y-111938095D01*
X97976190Y-112033333D01*
X97976190Y-112414285D01*
X97452380Y-111509523D02*
X97452380Y-110890476D01*
X97833333Y-111223809D01*
X97833333Y-111080952D01*
X97880952Y-110985714D01*
X97928571Y-110938095D01*
X98023809Y-110890476D01*
X98261904Y-110890476D01*
X98357142Y-110938095D01*
X98404761Y-110985714D01*
X98452380Y-111080952D01*
X98452380Y-111366666D01*
X98404761Y-111461904D01*
X98357142Y-111509523D01*
X97547619Y-110509523D02*
X97500000Y-110461904D01*
X97452380Y-110366666D01*
X97452380Y-110128571D01*
X97500000Y-110033333D01*
X97547619Y-109985714D01*
X97642857Y-109938095D01*
X97738095Y-109938095D01*
X97880952Y-109985714D01*
X98452380Y-110557142D01*
X98452380Y-109938095D01*
X76557142Y-121252380D02*
X76223809Y-120776190D01*
X75985714Y-121252380D02*
X75985714Y-120252380D01*
X76366666Y-120252380D01*
X76461904Y-120300000D01*
X76509523Y-120347619D01*
X76557142Y-120442857D01*
X76557142Y-120585714D01*
X76509523Y-120680952D01*
X76461904Y-120728571D01*
X76366666Y-120776190D01*
X75985714Y-120776190D01*
X76890476Y-120252380D02*
X77509523Y-120252380D01*
X77176190Y-120633333D01*
X77319047Y-120633333D01*
X77414285Y-120680952D01*
X77461904Y-120728571D01*
X77509523Y-120823809D01*
X77509523Y-121061904D01*
X77461904Y-121157142D01*
X77414285Y-121204761D01*
X77319047Y-121252380D01*
X77033333Y-121252380D01*
X76938095Y-121204761D01*
X76890476Y-121157142D01*
X78461904Y-121252380D02*
X77890476Y-121252380D01*
X78176190Y-121252380D02*
X78176190Y-120252380D01*
X78080952Y-120395238D01*
X77985714Y-120490476D01*
X77890476Y-120538095D01*
X54957142Y-138452380D02*
X54623809Y-137976190D01*
X54385714Y-138452380D02*
X54385714Y-137452380D01*
X54766666Y-137452380D01*
X54861904Y-137500000D01*
X54909523Y-137547619D01*
X54957142Y-137642857D01*
X54957142Y-137785714D01*
X54909523Y-137880952D01*
X54861904Y-137928571D01*
X54766666Y-137976190D01*
X54385714Y-137976190D01*
X55290476Y-137452380D02*
X55909523Y-137452380D01*
X55576190Y-137833333D01*
X55719047Y-137833333D01*
X55814285Y-137880952D01*
X55861904Y-137928571D01*
X55909523Y-138023809D01*
X55909523Y-138261904D01*
X55861904Y-138357142D01*
X55814285Y-138404761D01*
X55719047Y-138452380D01*
X55433333Y-138452380D01*
X55338095Y-138404761D01*
X55290476Y-138357142D01*
X56528571Y-137452380D02*
X56623809Y-137452380D01*
X56719047Y-137500000D01*
X56766666Y-137547619D01*
X56814285Y-137642857D01*
X56861904Y-137833333D01*
X56861904Y-138071428D01*
X56814285Y-138261904D01*
X56766666Y-138357142D01*
X56719047Y-138404761D01*
X56623809Y-138452380D01*
X56528571Y-138452380D01*
X56433333Y-138404761D01*
X56385714Y-138357142D01*
X56338095Y-138261904D01*
X56290476Y-138071428D01*
X56290476Y-137833333D01*
X56338095Y-137642857D01*
X56385714Y-137547619D01*
X56433333Y-137500000D01*
X56528571Y-137452380D01*
X60357142Y-109952380D02*
X60023809Y-109476190D01*
X59785714Y-109952380D02*
X59785714Y-108952380D01*
X60166666Y-108952380D01*
X60261904Y-109000000D01*
X60309523Y-109047619D01*
X60357142Y-109142857D01*
X60357142Y-109285714D01*
X60309523Y-109380952D01*
X60261904Y-109428571D01*
X60166666Y-109476190D01*
X59785714Y-109476190D01*
X60738095Y-109047619D02*
X60785714Y-109000000D01*
X60880952Y-108952380D01*
X61119047Y-108952380D01*
X61214285Y-109000000D01*
X61261904Y-109047619D01*
X61309523Y-109142857D01*
X61309523Y-109238095D01*
X61261904Y-109380952D01*
X60690476Y-109952380D01*
X61309523Y-109952380D01*
X61785714Y-109952380D02*
X61976190Y-109952380D01*
X62071428Y-109904761D01*
X62119047Y-109857142D01*
X62214285Y-109714285D01*
X62261904Y-109523809D01*
X62261904Y-109142857D01*
X62214285Y-109047619D01*
X62166666Y-109000000D01*
X62071428Y-108952380D01*
X61880952Y-108952380D01*
X61785714Y-109000000D01*
X61738095Y-109047619D01*
X61690476Y-109142857D01*
X61690476Y-109380952D01*
X61738095Y-109476190D01*
X61785714Y-109523809D01*
X61880952Y-109571428D01*
X62071428Y-109571428D01*
X62166666Y-109523809D01*
X62214285Y-109476190D01*
X62261904Y-109380952D01*
X66957142Y-126602380D02*
X66623809Y-126126190D01*
X66385714Y-126602380D02*
X66385714Y-125602380D01*
X66766666Y-125602380D01*
X66861904Y-125650000D01*
X66909523Y-125697619D01*
X66957142Y-125792857D01*
X66957142Y-125935714D01*
X66909523Y-126030952D01*
X66861904Y-126078571D01*
X66766666Y-126126190D01*
X66385714Y-126126190D01*
X67338095Y-125697619D02*
X67385714Y-125650000D01*
X67480952Y-125602380D01*
X67719047Y-125602380D01*
X67814285Y-125650000D01*
X67861904Y-125697619D01*
X67909523Y-125792857D01*
X67909523Y-125888095D01*
X67861904Y-126030952D01*
X67290476Y-126602380D01*
X67909523Y-126602380D01*
X68242857Y-125602380D02*
X68909523Y-125602380D01*
X68480952Y-126602380D01*
X61557142Y-132052380D02*
X61223809Y-131576190D01*
X60985714Y-132052380D02*
X60985714Y-131052380D01*
X61366666Y-131052380D01*
X61461904Y-131100000D01*
X61509523Y-131147619D01*
X61557142Y-131242857D01*
X61557142Y-131385714D01*
X61509523Y-131480952D01*
X61461904Y-131528571D01*
X61366666Y-131576190D01*
X60985714Y-131576190D01*
X61938095Y-131147619D02*
X61985714Y-131100000D01*
X62080952Y-131052380D01*
X62319047Y-131052380D01*
X62414285Y-131100000D01*
X62461904Y-131147619D01*
X62509523Y-131242857D01*
X62509523Y-131338095D01*
X62461904Y-131480952D01*
X61890476Y-132052380D01*
X62509523Y-132052380D01*
X63366666Y-131052380D02*
X63176190Y-131052380D01*
X63080952Y-131100000D01*
X63033333Y-131147619D01*
X62938095Y-131290476D01*
X62890476Y-131480952D01*
X62890476Y-131861904D01*
X62938095Y-131957142D01*
X62985714Y-132004761D01*
X63080952Y-132052380D01*
X63271428Y-132052380D01*
X63366666Y-132004761D01*
X63414285Y-131957142D01*
X63461904Y-131861904D01*
X63461904Y-131623809D01*
X63414285Y-131528571D01*
X63366666Y-131480952D01*
X63271428Y-131433333D01*
X63080952Y-131433333D01*
X62985714Y-131480952D01*
X62938095Y-131528571D01*
X62890476Y-131623809D01*
X70957142Y-78452380D02*
X70623809Y-77976190D01*
X70385714Y-78452380D02*
X70385714Y-77452380D01*
X70766666Y-77452380D01*
X70861904Y-77500000D01*
X70909523Y-77547619D01*
X70957142Y-77642857D01*
X70957142Y-77785714D01*
X70909523Y-77880952D01*
X70861904Y-77928571D01*
X70766666Y-77976190D01*
X70385714Y-77976190D01*
X71338095Y-77547619D02*
X71385714Y-77500000D01*
X71480952Y-77452380D01*
X71719047Y-77452380D01*
X71814285Y-77500000D01*
X71861904Y-77547619D01*
X71909523Y-77642857D01*
X71909523Y-77738095D01*
X71861904Y-77880952D01*
X71290476Y-78452380D01*
X71909523Y-78452380D01*
X72766666Y-77785714D02*
X72766666Y-78452380D01*
X72528571Y-77404761D02*
X72290476Y-78119047D01*
X72909523Y-78119047D01*
X72757142Y-73052380D02*
X72423809Y-72576190D01*
X72185714Y-73052380D02*
X72185714Y-72052380D01*
X72566666Y-72052380D01*
X72661904Y-72100000D01*
X72709523Y-72147619D01*
X72757142Y-72242857D01*
X72757142Y-72385714D01*
X72709523Y-72480952D01*
X72661904Y-72528571D01*
X72566666Y-72576190D01*
X72185714Y-72576190D01*
X73138095Y-72147619D02*
X73185714Y-72100000D01*
X73280952Y-72052380D01*
X73519047Y-72052380D01*
X73614285Y-72100000D01*
X73661904Y-72147619D01*
X73709523Y-72242857D01*
X73709523Y-72338095D01*
X73661904Y-72480952D01*
X73090476Y-73052380D01*
X73709523Y-73052380D01*
X74042857Y-72052380D02*
X74661904Y-72052380D01*
X74328571Y-72433333D01*
X74471428Y-72433333D01*
X74566666Y-72480952D01*
X74614285Y-72528571D01*
X74661904Y-72623809D01*
X74661904Y-72861904D01*
X74614285Y-72957142D01*
X74566666Y-73004761D01*
X74471428Y-73052380D01*
X74185714Y-73052380D01*
X74090476Y-73004761D01*
X74042857Y-72957142D01*
X77557142Y-66252380D02*
X77223809Y-65776190D01*
X76985714Y-66252380D02*
X76985714Y-65252380D01*
X77366666Y-65252380D01*
X77461904Y-65300000D01*
X77509523Y-65347619D01*
X77557142Y-65442857D01*
X77557142Y-65585714D01*
X77509523Y-65680952D01*
X77461904Y-65728571D01*
X77366666Y-65776190D01*
X76985714Y-65776190D01*
X77938095Y-65347619D02*
X77985714Y-65300000D01*
X78080952Y-65252380D01*
X78319047Y-65252380D01*
X78414285Y-65300000D01*
X78461904Y-65347619D01*
X78509523Y-65442857D01*
X78509523Y-65538095D01*
X78461904Y-65680952D01*
X77890476Y-66252380D01*
X78509523Y-66252380D01*
X78890476Y-65347619D02*
X78938095Y-65300000D01*
X79033333Y-65252380D01*
X79271428Y-65252380D01*
X79366666Y-65300000D01*
X79414285Y-65347619D01*
X79461904Y-65442857D01*
X79461904Y-65538095D01*
X79414285Y-65680952D01*
X78842857Y-66252380D01*
X79461904Y-66252380D01*
X74557142Y-78452380D02*
X74223809Y-77976190D01*
X73985714Y-78452380D02*
X73985714Y-77452380D01*
X74366666Y-77452380D01*
X74461904Y-77500000D01*
X74509523Y-77547619D01*
X74557142Y-77642857D01*
X74557142Y-77785714D01*
X74509523Y-77880952D01*
X74461904Y-77928571D01*
X74366666Y-77976190D01*
X73985714Y-77976190D01*
X74938095Y-77547619D02*
X74985714Y-77500000D01*
X75080952Y-77452380D01*
X75319047Y-77452380D01*
X75414285Y-77500000D01*
X75461904Y-77547619D01*
X75509523Y-77642857D01*
X75509523Y-77738095D01*
X75461904Y-77880952D01*
X74890476Y-78452380D01*
X75509523Y-78452380D01*
X76461904Y-78452380D02*
X75890476Y-78452380D01*
X76176190Y-78452380D02*
X76176190Y-77452380D01*
X76080952Y-77595238D01*
X75985714Y-77690476D01*
X75890476Y-77738095D01*
X74157142Y-62652380D02*
X73823809Y-62176190D01*
X73585714Y-62652380D02*
X73585714Y-61652380D01*
X73966666Y-61652380D01*
X74061904Y-61700000D01*
X74109523Y-61747619D01*
X74157142Y-61842857D01*
X74157142Y-61985714D01*
X74109523Y-62080952D01*
X74061904Y-62128571D01*
X73966666Y-62176190D01*
X73585714Y-62176190D01*
X74538095Y-61747619D02*
X74585714Y-61700000D01*
X74680952Y-61652380D01*
X74919047Y-61652380D01*
X75014285Y-61700000D01*
X75061904Y-61747619D01*
X75109523Y-61842857D01*
X75109523Y-61938095D01*
X75061904Y-62080952D01*
X74490476Y-62652380D01*
X75109523Y-62652380D01*
X75728571Y-61652380D02*
X75823809Y-61652380D01*
X75919047Y-61700000D01*
X75966666Y-61747619D01*
X76014285Y-61842857D01*
X76061904Y-62033333D01*
X76061904Y-62271428D01*
X76014285Y-62461904D01*
X75966666Y-62557142D01*
X75919047Y-62604761D01*
X75823809Y-62652380D01*
X75728571Y-62652380D01*
X75633333Y-62604761D01*
X75585714Y-62557142D01*
X75538095Y-62461904D01*
X75490476Y-62271428D01*
X75490476Y-62033333D01*
X75538095Y-61842857D01*
X75585714Y-61747619D01*
X75633333Y-61700000D01*
X75728571Y-61652380D01*
X108157142Y-87252380D02*
X107823809Y-86776190D01*
X107585714Y-87252380D02*
X107585714Y-86252380D01*
X107966666Y-86252380D01*
X108061904Y-86300000D01*
X108109523Y-86347619D01*
X108157142Y-86442857D01*
X108157142Y-86585714D01*
X108109523Y-86680952D01*
X108061904Y-86728571D01*
X107966666Y-86776190D01*
X107585714Y-86776190D01*
X109109523Y-87252380D02*
X108538095Y-87252380D01*
X108823809Y-87252380D02*
X108823809Y-86252380D01*
X108728571Y-86395238D01*
X108633333Y-86490476D01*
X108538095Y-86538095D01*
X109680952Y-86680952D02*
X109585714Y-86633333D01*
X109538095Y-86585714D01*
X109490476Y-86490476D01*
X109490476Y-86442857D01*
X109538095Y-86347619D01*
X109585714Y-86300000D01*
X109680952Y-86252380D01*
X109871428Y-86252380D01*
X109966666Y-86300000D01*
X110014285Y-86347619D01*
X110061904Y-86442857D01*
X110061904Y-86490476D01*
X110014285Y-86585714D01*
X109966666Y-86633333D01*
X109871428Y-86680952D01*
X109680952Y-86680952D01*
X109585714Y-86728571D01*
X109538095Y-86776190D01*
X109490476Y-86871428D01*
X109490476Y-87061904D01*
X109538095Y-87157142D01*
X109585714Y-87204761D01*
X109680952Y-87252380D01*
X109871428Y-87252380D01*
X109966666Y-87204761D01*
X110014285Y-87157142D01*
X110061904Y-87061904D01*
X110061904Y-86871428D01*
X110014285Y-86776190D01*
X109966666Y-86728571D01*
X109871428Y-86680952D01*
X111257142Y-82052380D02*
X110923809Y-81576190D01*
X110685714Y-82052380D02*
X110685714Y-81052380D01*
X111066666Y-81052380D01*
X111161904Y-81100000D01*
X111209523Y-81147619D01*
X111257142Y-81242857D01*
X111257142Y-81385714D01*
X111209523Y-81480952D01*
X111161904Y-81528571D01*
X111066666Y-81576190D01*
X110685714Y-81576190D01*
X112209523Y-82052380D02*
X111638095Y-82052380D01*
X111923809Y-82052380D02*
X111923809Y-81052380D01*
X111828571Y-81195238D01*
X111733333Y-81290476D01*
X111638095Y-81338095D01*
X112542857Y-81052380D02*
X113209523Y-81052380D01*
X112780952Y-82052380D01*
X118157142Y-83452380D02*
X117823809Y-82976190D01*
X117585714Y-83452380D02*
X117585714Y-82452380D01*
X117966666Y-82452380D01*
X118061904Y-82500000D01*
X118109523Y-82547619D01*
X118157142Y-82642857D01*
X118157142Y-82785714D01*
X118109523Y-82880952D01*
X118061904Y-82928571D01*
X117966666Y-82976190D01*
X117585714Y-82976190D01*
X119109523Y-83452380D02*
X118538095Y-83452380D01*
X118823809Y-83452380D02*
X118823809Y-82452380D01*
X118728571Y-82595238D01*
X118633333Y-82690476D01*
X118538095Y-82738095D01*
X119966666Y-82452380D02*
X119776190Y-82452380D01*
X119680952Y-82500000D01*
X119633333Y-82547619D01*
X119538095Y-82690476D01*
X119490476Y-82880952D01*
X119490476Y-83261904D01*
X119538095Y-83357142D01*
X119585714Y-83404761D01*
X119680952Y-83452380D01*
X119871428Y-83452380D01*
X119966666Y-83404761D01*
X120014285Y-83357142D01*
X120061904Y-83261904D01*
X120061904Y-83023809D01*
X120014285Y-82928571D01*
X119966666Y-82880952D01*
X119871428Y-82833333D01*
X119680952Y-82833333D01*
X119585714Y-82880952D01*
X119538095Y-82928571D01*
X119490476Y-83023809D01*
X114857142Y-146052380D02*
X114523809Y-145576190D01*
X114285714Y-146052380D02*
X114285714Y-145052380D01*
X114666666Y-145052380D01*
X114761904Y-145100000D01*
X114809523Y-145147619D01*
X114857142Y-145242857D01*
X114857142Y-145385714D01*
X114809523Y-145480952D01*
X114761904Y-145528571D01*
X114666666Y-145576190D01*
X114285714Y-145576190D01*
X115809523Y-146052380D02*
X115238095Y-146052380D01*
X115523809Y-146052380D02*
X115523809Y-145052380D01*
X115428571Y-145195238D01*
X115333333Y-145290476D01*
X115238095Y-145338095D01*
X116714285Y-145052380D02*
X116238095Y-145052380D01*
X116190476Y-145528571D01*
X116238095Y-145480952D01*
X116333333Y-145433333D01*
X116571428Y-145433333D01*
X116666666Y-145480952D01*
X116714285Y-145528571D01*
X116761904Y-145623809D01*
X116761904Y-145861904D01*
X116714285Y-145957142D01*
X116666666Y-146004761D01*
X116571428Y-146052380D01*
X116333333Y-146052380D01*
X116238095Y-146004761D01*
X116190476Y-145957142D01*
X114857142Y-147452380D02*
X114523809Y-146976190D01*
X114285714Y-147452380D02*
X114285714Y-146452380D01*
X114666666Y-146452380D01*
X114761904Y-146500000D01*
X114809523Y-146547619D01*
X114857142Y-146642857D01*
X114857142Y-146785714D01*
X114809523Y-146880952D01*
X114761904Y-146928571D01*
X114666666Y-146976190D01*
X114285714Y-146976190D01*
X115809523Y-147452380D02*
X115238095Y-147452380D01*
X115523809Y-147452380D02*
X115523809Y-146452380D01*
X115428571Y-146595238D01*
X115333333Y-146690476D01*
X115238095Y-146738095D01*
X116666666Y-146785714D02*
X116666666Y-147452380D01*
X116428571Y-146404761D02*
X116190476Y-147119047D01*
X116809523Y-147119047D01*
X156957142Y-135152380D02*
X156623809Y-134676190D01*
X156385714Y-135152380D02*
X156385714Y-134152380D01*
X156766666Y-134152380D01*
X156861904Y-134200000D01*
X156909523Y-134247619D01*
X156957142Y-134342857D01*
X156957142Y-134485714D01*
X156909523Y-134580952D01*
X156861904Y-134628571D01*
X156766666Y-134676190D01*
X156385714Y-134676190D01*
X157909523Y-135152380D02*
X157338095Y-135152380D01*
X157623809Y-135152380D02*
X157623809Y-134152380D01*
X157528571Y-134295238D01*
X157433333Y-134390476D01*
X157338095Y-134438095D01*
X158861904Y-135152380D02*
X158290476Y-135152380D01*
X158576190Y-135152380D02*
X158576190Y-134152380D01*
X158480952Y-134295238D01*
X158385714Y-134390476D01*
X158290476Y-134438095D01*
X111757142Y-146052380D02*
X111423809Y-145576190D01*
X111185714Y-146052380D02*
X111185714Y-145052380D01*
X111566666Y-145052380D01*
X111661904Y-145100000D01*
X111709523Y-145147619D01*
X111757142Y-145242857D01*
X111757142Y-145385714D01*
X111709523Y-145480952D01*
X111661904Y-145528571D01*
X111566666Y-145576190D01*
X111185714Y-145576190D01*
X112709523Y-146052380D02*
X112138095Y-146052380D01*
X112423809Y-146052380D02*
X112423809Y-145052380D01*
X112328571Y-145195238D01*
X112233333Y-145290476D01*
X112138095Y-145338095D01*
X113328571Y-145052380D02*
X113423809Y-145052380D01*
X113519047Y-145100000D01*
X113566666Y-145147619D01*
X113614285Y-145242857D01*
X113661904Y-145433333D01*
X113661904Y-145671428D01*
X113614285Y-145861904D01*
X113566666Y-145957142D01*
X113519047Y-146004761D01*
X113423809Y-146052380D01*
X113328571Y-146052380D01*
X113233333Y-146004761D01*
X113185714Y-145957142D01*
X113138095Y-145861904D01*
X113090476Y-145671428D01*
X113090476Y-145433333D01*
X113138095Y-145242857D01*
X113185714Y-145147619D01*
X113233333Y-145100000D01*
X113328571Y-145052380D01*
X112233333Y-147452380D02*
X111900000Y-146976190D01*
X111661904Y-147452380D02*
X111661904Y-146452380D01*
X112042857Y-146452380D01*
X112138095Y-146500000D01*
X112185714Y-146547619D01*
X112233333Y-146642857D01*
X112233333Y-146785714D01*
X112185714Y-146880952D01*
X112138095Y-146928571D01*
X112042857Y-146976190D01*
X111661904Y-146976190D01*
X112709523Y-147452380D02*
X112900000Y-147452380D01*
X112995238Y-147404761D01*
X113042857Y-147357142D01*
X113138095Y-147214285D01*
X113185714Y-147023809D01*
X113185714Y-146642857D01*
X113138095Y-146547619D01*
X113090476Y-146500000D01*
X112995238Y-146452380D01*
X112804761Y-146452380D01*
X112709523Y-146500000D01*
X112661904Y-146547619D01*
X112614285Y-146642857D01*
X112614285Y-146880952D01*
X112661904Y-146976190D01*
X112709523Y-147023809D01*
X112804761Y-147071428D01*
X112995238Y-147071428D01*
X113090476Y-147023809D01*
X113138095Y-146976190D01*
X113185714Y-146880952D01*
X157033333Y-145152380D02*
X156700000Y-144676190D01*
X156461904Y-145152380D02*
X156461904Y-144152380D01*
X156842857Y-144152380D01*
X156938095Y-144200000D01*
X156985714Y-144247619D01*
X157033333Y-144342857D01*
X157033333Y-144485714D01*
X156985714Y-144580952D01*
X156938095Y-144628571D01*
X156842857Y-144676190D01*
X156461904Y-144676190D01*
X157604761Y-144580952D02*
X157509523Y-144533333D01*
X157461904Y-144485714D01*
X157414285Y-144390476D01*
X157414285Y-144342857D01*
X157461904Y-144247619D01*
X157509523Y-144200000D01*
X157604761Y-144152380D01*
X157795238Y-144152380D01*
X157890476Y-144200000D01*
X157938095Y-144247619D01*
X157985714Y-144342857D01*
X157985714Y-144390476D01*
X157938095Y-144485714D01*
X157890476Y-144533333D01*
X157795238Y-144580952D01*
X157604761Y-144580952D01*
X157509523Y-144628571D01*
X157461904Y-144676190D01*
X157414285Y-144771428D01*
X157414285Y-144961904D01*
X157461904Y-145057142D01*
X157509523Y-145104761D01*
X157604761Y-145152380D01*
X157795238Y-145152380D01*
X157890476Y-145104761D01*
X157938095Y-145057142D01*
X157985714Y-144961904D01*
X157985714Y-144771428D01*
X157938095Y-144676190D01*
X157890476Y-144628571D01*
X157795238Y-144580952D01*
X83233333Y-146052380D02*
X82900000Y-145576190D01*
X82661904Y-146052380D02*
X82661904Y-145052380D01*
X83042857Y-145052380D01*
X83138095Y-145100000D01*
X83185714Y-145147619D01*
X83233333Y-145242857D01*
X83233333Y-145385714D01*
X83185714Y-145480952D01*
X83138095Y-145528571D01*
X83042857Y-145576190D01*
X82661904Y-145576190D01*
X83566666Y-145052380D02*
X84233333Y-145052380D01*
X83804761Y-146052380D01*
X83233333Y-147452380D02*
X82900000Y-146976190D01*
X82661904Y-147452380D02*
X82661904Y-146452380D01*
X83042857Y-146452380D01*
X83138095Y-146500000D01*
X83185714Y-146547619D01*
X83233333Y-146642857D01*
X83233333Y-146785714D01*
X83185714Y-146880952D01*
X83138095Y-146928571D01*
X83042857Y-146976190D01*
X82661904Y-146976190D01*
X84090476Y-146452380D02*
X83900000Y-146452380D01*
X83804761Y-146500000D01*
X83757142Y-146547619D01*
X83661904Y-146690476D01*
X83614285Y-146880952D01*
X83614285Y-147261904D01*
X83661904Y-147357142D01*
X83709523Y-147404761D01*
X83804761Y-147452380D01*
X83995238Y-147452380D01*
X84090476Y-147404761D01*
X84138095Y-147357142D01*
X84185714Y-147261904D01*
X84185714Y-147023809D01*
X84138095Y-146928571D01*
X84090476Y-146880952D01*
X83995238Y-146833333D01*
X83804761Y-146833333D01*
X83709523Y-146880952D01*
X83661904Y-146928571D01*
X83614285Y-147023809D01*
X147033333Y-135152380D02*
X146700000Y-134676190D01*
X146461904Y-135152380D02*
X146461904Y-134152380D01*
X146842857Y-134152380D01*
X146938095Y-134200000D01*
X146985714Y-134247619D01*
X147033333Y-134342857D01*
X147033333Y-134485714D01*
X146985714Y-134580952D01*
X146938095Y-134628571D01*
X146842857Y-134676190D01*
X146461904Y-134676190D01*
X147938095Y-134152380D02*
X147461904Y-134152380D01*
X147414285Y-134628571D01*
X147461904Y-134580952D01*
X147557142Y-134533333D01*
X147795238Y-134533333D01*
X147890476Y-134580952D01*
X147938095Y-134628571D01*
X147985714Y-134723809D01*
X147985714Y-134961904D01*
X147938095Y-135057142D01*
X147890476Y-135104761D01*
X147795238Y-135152380D01*
X147557142Y-135152380D01*
X147461904Y-135104761D01*
X147414285Y-135057142D01*
X101633333Y-75852380D02*
X101300000Y-75376190D01*
X101061904Y-75852380D02*
X101061904Y-74852380D01*
X101442857Y-74852380D01*
X101538095Y-74900000D01*
X101585714Y-74947619D01*
X101633333Y-75042857D01*
X101633333Y-75185714D01*
X101585714Y-75280952D01*
X101538095Y-75328571D01*
X101442857Y-75376190D01*
X101061904Y-75376190D01*
X102490476Y-75185714D02*
X102490476Y-75852380D01*
X102252380Y-74804761D02*
X102014285Y-75519047D01*
X102633333Y-75519047D01*
X147033333Y-145152380D02*
X146700000Y-144676190D01*
X146461904Y-145152380D02*
X146461904Y-144152380D01*
X146842857Y-144152380D01*
X146938095Y-144200000D01*
X146985714Y-144247619D01*
X147033333Y-144342857D01*
X147033333Y-144485714D01*
X146985714Y-144580952D01*
X146938095Y-144628571D01*
X146842857Y-144676190D01*
X146461904Y-144676190D01*
X147366666Y-144152380D02*
X147985714Y-144152380D01*
X147652380Y-144533333D01*
X147795238Y-144533333D01*
X147890476Y-144580952D01*
X147938095Y-144628571D01*
X147985714Y-144723809D01*
X147985714Y-144961904D01*
X147938095Y-145057142D01*
X147890476Y-145104761D01*
X147795238Y-145152380D01*
X147509523Y-145152380D01*
X147414285Y-145104761D01*
X147366666Y-145057142D01*
X80233333Y-146052380D02*
X79900000Y-145576190D01*
X79661904Y-146052380D02*
X79661904Y-145052380D01*
X80042857Y-145052380D01*
X80138095Y-145100000D01*
X80185714Y-145147619D01*
X80233333Y-145242857D01*
X80233333Y-145385714D01*
X80185714Y-145480952D01*
X80138095Y-145528571D01*
X80042857Y-145576190D01*
X79661904Y-145576190D01*
X80614285Y-145147619D02*
X80661904Y-145100000D01*
X80757142Y-145052380D01*
X80995238Y-145052380D01*
X81090476Y-145100000D01*
X81138095Y-145147619D01*
X81185714Y-145242857D01*
X81185714Y-145338095D01*
X81138095Y-145480952D01*
X80566666Y-146052380D01*
X81185714Y-146052380D01*
X80233333Y-147452380D02*
X79900000Y-146976190D01*
X79661904Y-147452380D02*
X79661904Y-146452380D01*
X80042857Y-146452380D01*
X80138095Y-146500000D01*
X80185714Y-146547619D01*
X80233333Y-146642857D01*
X80233333Y-146785714D01*
X80185714Y-146880952D01*
X80138095Y-146928571D01*
X80042857Y-146976190D01*
X79661904Y-146976190D01*
X81185714Y-147452380D02*
X80614285Y-147452380D01*
X80900000Y-147452380D02*
X80900000Y-146452380D01*
X80804761Y-146595238D01*
X80709523Y-146690476D01*
X80614285Y-146738095D01*
X67504761Y-105847619D02*
X67409523Y-105800000D01*
X67314285Y-105704761D01*
X67171428Y-105561904D01*
X67076190Y-105514285D01*
X66980952Y-105514285D01*
X67028571Y-105752380D02*
X66933333Y-105704761D01*
X66838095Y-105609523D01*
X66790476Y-105419047D01*
X66790476Y-105085714D01*
X66838095Y-104895238D01*
X66933333Y-104800000D01*
X67028571Y-104752380D01*
X67219047Y-104752380D01*
X67314285Y-104800000D01*
X67409523Y-104895238D01*
X67457142Y-105085714D01*
X67457142Y-105419047D01*
X67409523Y-105609523D01*
X67314285Y-105704761D01*
X67219047Y-105752380D01*
X67028571Y-105752380D01*
X67790476Y-104752380D02*
X68409523Y-104752380D01*
X68076190Y-105133333D01*
X68219047Y-105133333D01*
X68314285Y-105180952D01*
X68361904Y-105228571D01*
X68409523Y-105323809D01*
X68409523Y-105561904D01*
X68361904Y-105657142D01*
X68314285Y-105704761D01*
X68219047Y-105752380D01*
X67933333Y-105752380D01*
X67838095Y-105704761D01*
X67790476Y-105657142D01*
X86233333Y-133052380D02*
X85757142Y-133052380D01*
X85757142Y-132052380D01*
X86519047Y-132147619D02*
X86566666Y-132100000D01*
X86661904Y-132052380D01*
X86900000Y-132052380D01*
X86995238Y-132100000D01*
X87042857Y-132147619D01*
X87090476Y-132242857D01*
X87090476Y-132338095D01*
X87042857Y-132480952D01*
X86471428Y-133052380D01*
X87090476Y-133052380D01*
X93233333Y-74252380D02*
X92757142Y-74252380D01*
X92757142Y-73252380D01*
X94090476Y-74252380D02*
X93519047Y-74252380D01*
X93804761Y-74252380D02*
X93804761Y-73252380D01*
X93709523Y-73395238D01*
X93614285Y-73490476D01*
X93519047Y-73538095D01*
X94966666Y-108852380D02*
X94966666Y-109566666D01*
X94919047Y-109709523D01*
X94823809Y-109804761D01*
X94680952Y-109852380D01*
X94585714Y-109852380D01*
X95442857Y-109852380D02*
X95442857Y-108852380D01*
X95823809Y-108852380D01*
X95919047Y-108900000D01*
X95966666Y-108947619D01*
X96014285Y-109042857D01*
X96014285Y-109185714D01*
X95966666Y-109280952D01*
X95919047Y-109328571D01*
X95823809Y-109376190D01*
X95442857Y-109376190D01*
X96347619Y-108852380D02*
X97014285Y-108852380D01*
X96585714Y-109852380D01*
X118466666Y-104852380D02*
X118466666Y-105566666D01*
X118419047Y-105709523D01*
X118323809Y-105804761D01*
X118180952Y-105852380D01*
X118085714Y-105852380D01*
X118942857Y-105852380D02*
X118942857Y-104852380D01*
X119323809Y-104852380D01*
X119419047Y-104900000D01*
X119466666Y-104947619D01*
X119514285Y-105042857D01*
X119514285Y-105185714D01*
X119466666Y-105280952D01*
X119419047Y-105328571D01*
X119323809Y-105376190D01*
X118942857Y-105376190D01*
X120371428Y-104852380D02*
X120180952Y-104852380D01*
X120085714Y-104900000D01*
X120038095Y-104947619D01*
X119942857Y-105090476D01*
X119895238Y-105280952D01*
X119895238Y-105661904D01*
X119942857Y-105757142D01*
X119990476Y-105804761D01*
X120085714Y-105852380D01*
X120276190Y-105852380D01*
X120371428Y-105804761D01*
X120419047Y-105757142D01*
X120466666Y-105661904D01*
X120466666Y-105423809D01*
X120419047Y-105328571D01*
X120371428Y-105280952D01*
X120276190Y-105233333D01*
X120085714Y-105233333D01*
X119990476Y-105280952D01*
X119942857Y-105328571D01*
X119895238Y-105423809D01*
X98966666Y-119652380D02*
X98966666Y-120366666D01*
X98919047Y-120509523D01*
X98823809Y-120604761D01*
X98680952Y-120652380D01*
X98585714Y-120652380D01*
X99442857Y-120652380D02*
X99442857Y-119652380D01*
X99823809Y-119652380D01*
X99919047Y-119700000D01*
X99966666Y-119747619D01*
X100014285Y-119842857D01*
X100014285Y-119985714D01*
X99966666Y-120080952D01*
X99919047Y-120128571D01*
X99823809Y-120176190D01*
X99442857Y-120176190D01*
X100919047Y-119652380D02*
X100442857Y-119652380D01*
X100395238Y-120128571D01*
X100442857Y-120080952D01*
X100538095Y-120033333D01*
X100776190Y-120033333D01*
X100871428Y-120080952D01*
X100919047Y-120128571D01*
X100966666Y-120223809D01*
X100966666Y-120461904D01*
X100919047Y-120557142D01*
X100871428Y-120604761D01*
X100776190Y-120652380D01*
X100538095Y-120652380D01*
X100442857Y-120604761D01*
X100395238Y-120557142D01*
X134166666Y-100452380D02*
X134166666Y-101166666D01*
X134119047Y-101309523D01*
X134023809Y-101404761D01*
X133880952Y-101452380D01*
X133785714Y-101452380D01*
X134642857Y-101452380D02*
X134642857Y-100452380D01*
X135023809Y-100452380D01*
X135119047Y-100500000D01*
X135166666Y-100547619D01*
X135214285Y-100642857D01*
X135214285Y-100785714D01*
X135166666Y-100880952D01*
X135119047Y-100928571D01*
X135023809Y-100976190D01*
X134642857Y-100976190D01*
X135547619Y-100452380D02*
X136166666Y-100452380D01*
X135833333Y-100833333D01*
X135976190Y-100833333D01*
X136071428Y-100880952D01*
X136119047Y-100928571D01*
X136166666Y-101023809D01*
X136166666Y-101261904D01*
X136119047Y-101357142D01*
X136071428Y-101404761D01*
X135976190Y-101452380D01*
X135690476Y-101452380D01*
X135595238Y-101404761D01*
X135547619Y-101357142D01*
X84766666Y-71252380D02*
X84766666Y-71966666D01*
X84719047Y-72109523D01*
X84623809Y-72204761D01*
X84480952Y-72252380D01*
X84385714Y-72252380D01*
X85242857Y-72252380D02*
X85242857Y-71252380D01*
X85623809Y-71252380D01*
X85719047Y-71300000D01*
X85766666Y-71347619D01*
X85814285Y-71442857D01*
X85814285Y-71585714D01*
X85766666Y-71680952D01*
X85719047Y-71728571D01*
X85623809Y-71776190D01*
X85242857Y-71776190D01*
X86195238Y-71347619D02*
X86242857Y-71300000D01*
X86338095Y-71252380D01*
X86576190Y-71252380D01*
X86671428Y-71300000D01*
X86719047Y-71347619D01*
X86766666Y-71442857D01*
X86766666Y-71538095D01*
X86719047Y-71680952D01*
X86147619Y-72252380D01*
X86766666Y-72252380D01*
X137566666Y-74252380D02*
X137566666Y-74966666D01*
X137519047Y-75109523D01*
X137423809Y-75204761D01*
X137280952Y-75252380D01*
X137185714Y-75252380D01*
X138042857Y-75252380D02*
X138042857Y-74252380D01*
X138423809Y-74252380D01*
X138519047Y-74300000D01*
X138566666Y-74347619D01*
X138614285Y-74442857D01*
X138614285Y-74585714D01*
X138566666Y-74680952D01*
X138519047Y-74728571D01*
X138423809Y-74776190D01*
X138042857Y-74776190D01*
X139566666Y-75252380D02*
X138995238Y-75252380D01*
X139280952Y-75252380D02*
X139280952Y-74252380D01*
X139185714Y-74395238D01*
X139090476Y-74490476D01*
X138995238Y-74538095D01*
X92790476Y-106452380D02*
X92790476Y-107166666D01*
X92742857Y-107309523D01*
X92647619Y-107404761D01*
X92504761Y-107452380D01*
X92409523Y-107452380D01*
X93790476Y-107452380D02*
X93219047Y-107452380D01*
X93504761Y-107452380D02*
X93504761Y-106452380D01*
X93409523Y-106595238D01*
X93314285Y-106690476D01*
X93219047Y-106738095D01*
X94409523Y-106452380D02*
X94504761Y-106452380D01*
X94600000Y-106500000D01*
X94647619Y-106547619D01*
X94695238Y-106642857D01*
X94742857Y-106833333D01*
X94742857Y-107071428D01*
X94695238Y-107261904D01*
X94647619Y-107357142D01*
X94600000Y-107404761D01*
X94504761Y-107452380D01*
X94409523Y-107452380D01*
X94314285Y-107404761D01*
X94266666Y-107357142D01*
X94219047Y-107261904D01*
X94171428Y-107071428D01*
X94171428Y-106833333D01*
X94219047Y-106642857D01*
X94266666Y-106547619D01*
X94314285Y-106500000D01*
X94409523Y-106452380D01*
X116266666Y-102452380D02*
X116266666Y-103166666D01*
X116219047Y-103309523D01*
X116123809Y-103404761D01*
X115980952Y-103452380D01*
X115885714Y-103452380D01*
X116790476Y-103452380D02*
X116980952Y-103452380D01*
X117076190Y-103404761D01*
X117123809Y-103357142D01*
X117219047Y-103214285D01*
X117266666Y-103023809D01*
X117266666Y-102642857D01*
X117219047Y-102547619D01*
X117171428Y-102500000D01*
X117076190Y-102452380D01*
X116885714Y-102452380D01*
X116790476Y-102500000D01*
X116742857Y-102547619D01*
X116695238Y-102642857D01*
X116695238Y-102880952D01*
X116742857Y-102976190D01*
X116790476Y-103023809D01*
X116885714Y-103071428D01*
X117076190Y-103071428D01*
X117171428Y-103023809D01*
X117219047Y-102976190D01*
X117266666Y-102880952D01*
X137866666Y-99322380D02*
X137866666Y-100036666D01*
X137819047Y-100179523D01*
X137723809Y-100274761D01*
X137580952Y-100322380D01*
X137485714Y-100322380D01*
X138771428Y-99322380D02*
X138580952Y-99322380D01*
X138485714Y-99370000D01*
X138438095Y-99417619D01*
X138342857Y-99560476D01*
X138295238Y-99750952D01*
X138295238Y-100131904D01*
X138342857Y-100227142D01*
X138390476Y-100274761D01*
X138485714Y-100322380D01*
X138676190Y-100322380D01*
X138771428Y-100274761D01*
X138819047Y-100227142D01*
X138866666Y-100131904D01*
X138866666Y-99893809D01*
X138819047Y-99798571D01*
X138771428Y-99750952D01*
X138676190Y-99703333D01*
X138485714Y-99703333D01*
X138390476Y-99750952D01*
X138342857Y-99798571D01*
X138295238Y-99893809D01*
X90266666Y-69252380D02*
X90266666Y-69966666D01*
X90219047Y-70109523D01*
X90123809Y-70204761D01*
X89980952Y-70252380D01*
X89885714Y-70252380D01*
X91171428Y-69585714D02*
X91171428Y-70252380D01*
X90933333Y-69204761D02*
X90695238Y-69919047D01*
X91314285Y-69919047D01*
X141266666Y-72652380D02*
X141266666Y-73366666D01*
X141219047Y-73509523D01*
X141123809Y-73604761D01*
X140980952Y-73652380D01*
X140885714Y-73652380D01*
X141695238Y-72747619D02*
X141742857Y-72700000D01*
X141838095Y-72652380D01*
X142076190Y-72652380D01*
X142171428Y-72700000D01*
X142219047Y-72747619D01*
X142266666Y-72842857D01*
X142266666Y-72938095D01*
X142219047Y-73080952D01*
X141647619Y-73652380D01*
X142266666Y-73652380D01*
X113185714Y-121452380D02*
X113185714Y-120452380D01*
X113423809Y-120452380D01*
X113566666Y-120500000D01*
X113661904Y-120595238D01*
X113709523Y-120690476D01*
X113757142Y-120880952D01*
X113757142Y-121023809D01*
X113709523Y-121214285D01*
X113661904Y-121309523D01*
X113566666Y-121404761D01*
X113423809Y-121452380D01*
X113185714Y-121452380D01*
X114709523Y-121452380D02*
X114138095Y-121452380D01*
X114423809Y-121452380D02*
X114423809Y-120452380D01*
X114328571Y-120595238D01*
X114233333Y-120690476D01*
X114138095Y-120738095D01*
X115566666Y-120452380D02*
X115376190Y-120452380D01*
X115280952Y-120500000D01*
X115233333Y-120547619D01*
X115138095Y-120690476D01*
X115090476Y-120880952D01*
X115090476Y-121261904D01*
X115138095Y-121357142D01*
X115185714Y-121404761D01*
X115280952Y-121452380D01*
X115471428Y-121452380D01*
X115566666Y-121404761D01*
X115614285Y-121357142D01*
X115661904Y-121261904D01*
X115661904Y-121023809D01*
X115614285Y-120928571D01*
X115566666Y-120880952D01*
X115471428Y-120833333D01*
X115280952Y-120833333D01*
X115185714Y-120880952D01*
X115138095Y-120928571D01*
X115090476Y-121023809D01*
X91352380Y-122714285D02*
X90352380Y-122714285D01*
X90352380Y-122476190D01*
X90400000Y-122333333D01*
X90495238Y-122238095D01*
X90590476Y-122190476D01*
X90780952Y-122142857D01*
X90923809Y-122142857D01*
X91114285Y-122190476D01*
X91209523Y-122238095D01*
X91304761Y-122333333D01*
X91352380Y-122476190D01*
X91352380Y-122714285D01*
X91352380Y-121190476D02*
X91352380Y-121761904D01*
X91352380Y-121476190D02*
X90352380Y-121476190D01*
X90495238Y-121571428D01*
X90590476Y-121666666D01*
X90638095Y-121761904D01*
X90352380Y-120285714D02*
X90352380Y-120761904D01*
X90828571Y-120809523D01*
X90780952Y-120761904D01*
X90733333Y-120666666D01*
X90733333Y-120428571D01*
X90780952Y-120333333D01*
X90828571Y-120285714D01*
X90923809Y-120238095D01*
X91161904Y-120238095D01*
X91257142Y-120285714D01*
X91304761Y-120333333D01*
X91352380Y-120428571D01*
X91352380Y-120666666D01*
X91304761Y-120761904D01*
X91257142Y-120809523D01*
X50385714Y-139052380D02*
X50385714Y-138052380D01*
X50623809Y-138052380D01*
X50766666Y-138100000D01*
X50861904Y-138195238D01*
X50909523Y-138290476D01*
X50957142Y-138480952D01*
X50957142Y-138623809D01*
X50909523Y-138814285D01*
X50861904Y-138909523D01*
X50766666Y-139004761D01*
X50623809Y-139052380D01*
X50385714Y-139052380D01*
X51909523Y-139052380D02*
X51338095Y-139052380D01*
X51623809Y-139052380D02*
X51623809Y-138052380D01*
X51528571Y-138195238D01*
X51433333Y-138290476D01*
X51338095Y-138338095D01*
X52290476Y-138147619D02*
X52338095Y-138100000D01*
X52433333Y-138052380D01*
X52671428Y-138052380D01*
X52766666Y-138100000D01*
X52814285Y-138147619D01*
X52861904Y-138242857D01*
X52861904Y-138338095D01*
X52814285Y-138480952D01*
X52242857Y-139052380D01*
X52861904Y-139052380D01*
X59385714Y-122852380D02*
X59385714Y-121852380D01*
X59623809Y-121852380D01*
X59766666Y-121900000D01*
X59861904Y-121995238D01*
X59909523Y-122090476D01*
X59957142Y-122280952D01*
X59957142Y-122423809D01*
X59909523Y-122614285D01*
X59861904Y-122709523D01*
X59766666Y-122804761D01*
X59623809Y-122852380D01*
X59385714Y-122852380D01*
X60909523Y-122852380D02*
X60338095Y-122852380D01*
X60623809Y-122852380D02*
X60623809Y-121852380D01*
X60528571Y-121995238D01*
X60433333Y-122090476D01*
X60338095Y-122138095D01*
X61861904Y-122852380D02*
X61290476Y-122852380D01*
X61576190Y-122852380D02*
X61576190Y-121852380D01*
X61480952Y-121995238D01*
X61385714Y-122090476D01*
X61290476Y-122138095D01*
X50261904Y-131452380D02*
X50261904Y-130452380D01*
X50500000Y-130452380D01*
X50642857Y-130500000D01*
X50738095Y-130595238D01*
X50785714Y-130690476D01*
X50833333Y-130880952D01*
X50833333Y-131023809D01*
X50785714Y-131214285D01*
X50738095Y-131309523D01*
X50642857Y-131404761D01*
X50500000Y-131452380D01*
X50261904Y-131452380D01*
X51309523Y-131452380D02*
X51500000Y-131452380D01*
X51595238Y-131404761D01*
X51642857Y-131357142D01*
X51738095Y-131214285D01*
X51785714Y-131023809D01*
X51785714Y-130642857D01*
X51738095Y-130547619D01*
X51690476Y-130500000D01*
X51595238Y-130452380D01*
X51404761Y-130452380D01*
X51309523Y-130500000D01*
X51261904Y-130547619D01*
X51214285Y-130642857D01*
X51214285Y-130880952D01*
X51261904Y-130976190D01*
X51309523Y-131023809D01*
X51404761Y-131071428D01*
X51595238Y-131071428D01*
X51690476Y-131023809D01*
X51738095Y-130976190D01*
X51785714Y-130880952D01*
X150991904Y-138112380D02*
X150991904Y-137112380D01*
X151230000Y-137112380D01*
X151372857Y-137160000D01*
X151468095Y-137255238D01*
X151515714Y-137350476D01*
X151563333Y-137540952D01*
X151563333Y-137683809D01*
X151515714Y-137874285D01*
X151468095Y-137969523D01*
X151372857Y-138064761D01*
X151230000Y-138112380D01*
X150991904Y-138112380D01*
X152134761Y-137540952D02*
X152039523Y-137493333D01*
X151991904Y-137445714D01*
X151944285Y-137350476D01*
X151944285Y-137302857D01*
X151991904Y-137207619D01*
X152039523Y-137160000D01*
X152134761Y-137112380D01*
X152325238Y-137112380D01*
X152420476Y-137160000D01*
X152468095Y-137207619D01*
X152515714Y-137302857D01*
X152515714Y-137350476D01*
X152468095Y-137445714D01*
X152420476Y-137493333D01*
X152325238Y-137540952D01*
X152134761Y-137540952D01*
X152039523Y-137588571D01*
X151991904Y-137636190D01*
X151944285Y-137731428D01*
X151944285Y-137921904D01*
X151991904Y-138017142D01*
X152039523Y-138064761D01*
X152134761Y-138112380D01*
X152325238Y-138112380D01*
X152420476Y-138064761D01*
X152468095Y-138017142D01*
X152515714Y-137921904D01*
X152515714Y-137731428D01*
X152468095Y-137636190D01*
X152420476Y-137588571D01*
X152325238Y-137540952D01*
X150861904Y-131252380D02*
X150861904Y-130252380D01*
X151100000Y-130252380D01*
X151242857Y-130300000D01*
X151338095Y-130395238D01*
X151385714Y-130490476D01*
X151433333Y-130680952D01*
X151433333Y-130823809D01*
X151385714Y-131014285D01*
X151338095Y-131109523D01*
X151242857Y-131204761D01*
X151100000Y-131252380D01*
X150861904Y-131252380D01*
X151766666Y-130252380D02*
X152433333Y-130252380D01*
X152004761Y-131252380D01*
X150991904Y-148112380D02*
X150991904Y-147112380D01*
X151230000Y-147112380D01*
X151372857Y-147160000D01*
X151468095Y-147255238D01*
X151515714Y-147350476D01*
X151563333Y-147540952D01*
X151563333Y-147683809D01*
X151515714Y-147874285D01*
X151468095Y-147969523D01*
X151372857Y-148064761D01*
X151230000Y-148112380D01*
X150991904Y-148112380D01*
X152420476Y-147112380D02*
X152230000Y-147112380D01*
X152134761Y-147160000D01*
X152087142Y-147207619D01*
X151991904Y-147350476D01*
X151944285Y-147540952D01*
X151944285Y-147921904D01*
X151991904Y-148017142D01*
X152039523Y-148064761D01*
X152134761Y-148112380D01*
X152325238Y-148112380D01*
X152420476Y-148064761D01*
X152468095Y-148017142D01*
X152515714Y-147921904D01*
X152515714Y-147683809D01*
X152468095Y-147588571D01*
X152420476Y-147540952D01*
X152325238Y-147493333D01*
X152134761Y-147493333D01*
X152039523Y-147540952D01*
X151991904Y-147588571D01*
X151944285Y-147683809D01*
X150861904Y-141252380D02*
X150861904Y-140252380D01*
X151100000Y-140252380D01*
X151242857Y-140300000D01*
X151338095Y-140395238D01*
X151385714Y-140490476D01*
X151433333Y-140680952D01*
X151433333Y-140823809D01*
X151385714Y-141014285D01*
X151338095Y-141109523D01*
X151242857Y-141204761D01*
X151100000Y-141252380D01*
X150861904Y-141252380D01*
X152338095Y-140252380D02*
X151861904Y-140252380D01*
X151814285Y-140728571D01*
X151861904Y-140680952D01*
X151957142Y-140633333D01*
X152195238Y-140633333D01*
X152290476Y-140680952D01*
X152338095Y-140728571D01*
X152385714Y-140823809D01*
X152385714Y-141061904D01*
X152338095Y-141157142D01*
X152290476Y-141204761D01*
X152195238Y-141252380D01*
X151957142Y-141252380D01*
X151861904Y-141204761D01*
X151814285Y-141157142D01*
X140991904Y-138112380D02*
X140991904Y-137112380D01*
X141230000Y-137112380D01*
X141372857Y-137160000D01*
X141468095Y-137255238D01*
X141515714Y-137350476D01*
X141563333Y-137540952D01*
X141563333Y-137683809D01*
X141515714Y-137874285D01*
X141468095Y-137969523D01*
X141372857Y-138064761D01*
X141230000Y-138112380D01*
X140991904Y-138112380D01*
X142420476Y-137445714D02*
X142420476Y-138112380D01*
X142182380Y-137064761D02*
X141944285Y-137779047D01*
X142563333Y-137779047D01*
X140861904Y-131252380D02*
X140861904Y-130252380D01*
X141100000Y-130252380D01*
X141242857Y-130300000D01*
X141338095Y-130395238D01*
X141385714Y-130490476D01*
X141433333Y-130680952D01*
X141433333Y-130823809D01*
X141385714Y-131014285D01*
X141338095Y-131109523D01*
X141242857Y-131204761D01*
X141100000Y-131252380D01*
X140861904Y-131252380D01*
X141766666Y-130252380D02*
X142385714Y-130252380D01*
X142052380Y-130633333D01*
X142195238Y-130633333D01*
X142290476Y-130680952D01*
X142338095Y-130728571D01*
X142385714Y-130823809D01*
X142385714Y-131061904D01*
X142338095Y-131157142D01*
X142290476Y-131204761D01*
X142195238Y-131252380D01*
X141909523Y-131252380D01*
X141814285Y-131204761D01*
X141766666Y-131157142D01*
X140991904Y-148112380D02*
X140991904Y-147112380D01*
X141230000Y-147112380D01*
X141372857Y-147160000D01*
X141468095Y-147255238D01*
X141515714Y-147350476D01*
X141563333Y-147540952D01*
X141563333Y-147683809D01*
X141515714Y-147874285D01*
X141468095Y-147969523D01*
X141372857Y-148064761D01*
X141230000Y-148112380D01*
X140991904Y-148112380D01*
X141944285Y-147207619D02*
X141991904Y-147160000D01*
X142087142Y-147112380D01*
X142325238Y-147112380D01*
X142420476Y-147160000D01*
X142468095Y-147207619D01*
X142515714Y-147302857D01*
X142515714Y-147398095D01*
X142468095Y-147540952D01*
X141896666Y-148112380D01*
X142515714Y-148112380D01*
X140861904Y-141252380D02*
X140861904Y-140252380D01*
X141100000Y-140252380D01*
X141242857Y-140300000D01*
X141338095Y-140395238D01*
X141385714Y-140490476D01*
X141433333Y-140680952D01*
X141433333Y-140823809D01*
X141385714Y-141014285D01*
X141338095Y-141109523D01*
X141242857Y-141204761D01*
X141100000Y-141252380D01*
X140861904Y-141252380D01*
X142385714Y-141252380D02*
X141814285Y-141252380D01*
X142100000Y-141252380D02*
X142100000Y-140252380D01*
X142004761Y-140395238D01*
X141909523Y-140490476D01*
X141814285Y-140538095D01*
X69557142Y-119757142D02*
X69509523Y-119804761D01*
X69366666Y-119852380D01*
X69271428Y-119852380D01*
X69128571Y-119804761D01*
X69033333Y-119709523D01*
X68985714Y-119614285D01*
X68938095Y-119423809D01*
X68938095Y-119280952D01*
X68985714Y-119090476D01*
X69033333Y-118995238D01*
X69128571Y-118900000D01*
X69271428Y-118852380D01*
X69366666Y-118852380D01*
X69509523Y-118900000D01*
X69557142Y-118947619D01*
X70414285Y-119185714D02*
X70414285Y-119852380D01*
X70176190Y-118804761D02*
X69938095Y-119519047D01*
X70557142Y-119519047D01*
X70890476Y-118947619D02*
X70938095Y-118900000D01*
X71033333Y-118852380D01*
X71271428Y-118852380D01*
X71366666Y-118900000D01*
X71414285Y-118947619D01*
X71461904Y-119042857D01*
X71461904Y-119138095D01*
X71414285Y-119280952D01*
X70842857Y-119852380D01*
X71461904Y-119852380D01*
X86757142Y-107157142D02*
X86709523Y-107204761D01*
X86566666Y-107252380D01*
X86471428Y-107252380D01*
X86328571Y-107204761D01*
X86233333Y-107109523D01*
X86185714Y-107014285D01*
X86138095Y-106823809D01*
X86138095Y-106680952D01*
X86185714Y-106490476D01*
X86233333Y-106395238D01*
X86328571Y-106300000D01*
X86471428Y-106252380D01*
X86566666Y-106252380D01*
X86709523Y-106300000D01*
X86757142Y-106347619D01*
X87614285Y-106585714D02*
X87614285Y-107252380D01*
X87376190Y-106204761D02*
X87138095Y-106919047D01*
X87757142Y-106919047D01*
X88661904Y-107252380D02*
X88090476Y-107252380D01*
X88376190Y-107252380D02*
X88376190Y-106252380D01*
X88280952Y-106395238D01*
X88185714Y-106490476D01*
X88090476Y-106538095D01*
X117157142Y-112957142D02*
X117109523Y-113004761D01*
X116966666Y-113052380D01*
X116871428Y-113052380D01*
X116728571Y-113004761D01*
X116633333Y-112909523D01*
X116585714Y-112814285D01*
X116538095Y-112623809D01*
X116538095Y-112480952D01*
X116585714Y-112290476D01*
X116633333Y-112195238D01*
X116728571Y-112100000D01*
X116871428Y-112052380D01*
X116966666Y-112052380D01*
X117109523Y-112100000D01*
X117157142Y-112147619D01*
X118014285Y-112385714D02*
X118014285Y-113052380D01*
X117776190Y-112004761D02*
X117538095Y-112719047D01*
X118157142Y-112719047D01*
X118728571Y-112052380D02*
X118823809Y-112052380D01*
X118919047Y-112100000D01*
X118966666Y-112147619D01*
X119014285Y-112242857D01*
X119061904Y-112433333D01*
X119061904Y-112671428D01*
X119014285Y-112861904D01*
X118966666Y-112957142D01*
X118919047Y-113004761D01*
X118823809Y-113052380D01*
X118728571Y-113052380D01*
X118633333Y-113004761D01*
X118585714Y-112957142D01*
X118538095Y-112861904D01*
X118490476Y-112671428D01*
X118490476Y-112433333D01*
X118538095Y-112242857D01*
X118585714Y-112147619D01*
X118633333Y-112100000D01*
X118728571Y-112052380D01*
X117157142Y-114357142D02*
X117109523Y-114404761D01*
X116966666Y-114452380D01*
X116871428Y-114452380D01*
X116728571Y-114404761D01*
X116633333Y-114309523D01*
X116585714Y-114214285D01*
X116538095Y-114023809D01*
X116538095Y-113880952D01*
X116585714Y-113690476D01*
X116633333Y-113595238D01*
X116728571Y-113500000D01*
X116871428Y-113452380D01*
X116966666Y-113452380D01*
X117109523Y-113500000D01*
X117157142Y-113547619D01*
X117490476Y-113452380D02*
X118109523Y-113452380D01*
X117776190Y-113833333D01*
X117919047Y-113833333D01*
X118014285Y-113880952D01*
X118061904Y-113928571D01*
X118109523Y-114023809D01*
X118109523Y-114261904D01*
X118061904Y-114357142D01*
X118014285Y-114404761D01*
X117919047Y-114452380D01*
X117633333Y-114452380D01*
X117538095Y-114404761D01*
X117490476Y-114357142D01*
X118585714Y-114452380D02*
X118776190Y-114452380D01*
X118871428Y-114404761D01*
X118919047Y-114357142D01*
X119014285Y-114214285D01*
X119061904Y-114023809D01*
X119061904Y-113642857D01*
X119014285Y-113547619D01*
X118966666Y-113500000D01*
X118871428Y-113452380D01*
X118680952Y-113452380D01*
X118585714Y-113500000D01*
X118538095Y-113547619D01*
X118490476Y-113642857D01*
X118490476Y-113880952D01*
X118538095Y-113976190D01*
X118585714Y-114023809D01*
X118680952Y-114071428D01*
X118871428Y-114071428D01*
X118966666Y-114023809D01*
X119014285Y-113976190D01*
X119061904Y-113880952D01*
X117157142Y-119557142D02*
X117109523Y-119604761D01*
X116966666Y-119652380D01*
X116871428Y-119652380D01*
X116728571Y-119604761D01*
X116633333Y-119509523D01*
X116585714Y-119414285D01*
X116538095Y-119223809D01*
X116538095Y-119080952D01*
X116585714Y-118890476D01*
X116633333Y-118795238D01*
X116728571Y-118700000D01*
X116871428Y-118652380D01*
X116966666Y-118652380D01*
X117109523Y-118700000D01*
X117157142Y-118747619D01*
X117490476Y-118652380D02*
X118109523Y-118652380D01*
X117776190Y-119033333D01*
X117919047Y-119033333D01*
X118014285Y-119080952D01*
X118061904Y-119128571D01*
X118109523Y-119223809D01*
X118109523Y-119461904D01*
X118061904Y-119557142D01*
X118014285Y-119604761D01*
X117919047Y-119652380D01*
X117633333Y-119652380D01*
X117538095Y-119604761D01*
X117490476Y-119557142D01*
X118680952Y-119080952D02*
X118585714Y-119033333D01*
X118538095Y-118985714D01*
X118490476Y-118890476D01*
X118490476Y-118842857D01*
X118538095Y-118747619D01*
X118585714Y-118700000D01*
X118680952Y-118652380D01*
X118871428Y-118652380D01*
X118966666Y-118700000D01*
X119014285Y-118747619D01*
X119061904Y-118842857D01*
X119061904Y-118890476D01*
X119014285Y-118985714D01*
X118966666Y-119033333D01*
X118871428Y-119080952D01*
X118680952Y-119080952D01*
X118585714Y-119128571D01*
X118538095Y-119176190D01*
X118490476Y-119271428D01*
X118490476Y-119461904D01*
X118538095Y-119557142D01*
X118585714Y-119604761D01*
X118680952Y-119652380D01*
X118871428Y-119652380D01*
X118966666Y-119604761D01*
X119014285Y-119557142D01*
X119061904Y-119461904D01*
X119061904Y-119271428D01*
X119014285Y-119176190D01*
X118966666Y-119128571D01*
X118871428Y-119080952D01*
X117157142Y-120957142D02*
X117109523Y-121004761D01*
X116966666Y-121052380D01*
X116871428Y-121052380D01*
X116728571Y-121004761D01*
X116633333Y-120909523D01*
X116585714Y-120814285D01*
X116538095Y-120623809D01*
X116538095Y-120480952D01*
X116585714Y-120290476D01*
X116633333Y-120195238D01*
X116728571Y-120100000D01*
X116871428Y-120052380D01*
X116966666Y-120052380D01*
X117109523Y-120100000D01*
X117157142Y-120147619D01*
X117490476Y-120052380D02*
X118109523Y-120052380D01*
X117776190Y-120433333D01*
X117919047Y-120433333D01*
X118014285Y-120480952D01*
X118061904Y-120528571D01*
X118109523Y-120623809D01*
X118109523Y-120861904D01*
X118061904Y-120957142D01*
X118014285Y-121004761D01*
X117919047Y-121052380D01*
X117633333Y-121052380D01*
X117538095Y-121004761D01*
X117490476Y-120957142D01*
X118442857Y-120052380D02*
X119109523Y-120052380D01*
X118680952Y-121052380D01*
X76957142Y-115957142D02*
X76909523Y-116004761D01*
X76766666Y-116052380D01*
X76671428Y-116052380D01*
X76528571Y-116004761D01*
X76433333Y-115909523D01*
X76385714Y-115814285D01*
X76338095Y-115623809D01*
X76338095Y-115480952D01*
X76385714Y-115290476D01*
X76433333Y-115195238D01*
X76528571Y-115100000D01*
X76671428Y-115052380D01*
X76766666Y-115052380D01*
X76909523Y-115100000D01*
X76957142Y-115147619D01*
X77290476Y-115052380D02*
X77909523Y-115052380D01*
X77576190Y-115433333D01*
X77719047Y-115433333D01*
X77814285Y-115480952D01*
X77861904Y-115528571D01*
X77909523Y-115623809D01*
X77909523Y-115861904D01*
X77861904Y-115957142D01*
X77814285Y-116004761D01*
X77719047Y-116052380D01*
X77433333Y-116052380D01*
X77338095Y-116004761D01*
X77290476Y-115957142D01*
X78766666Y-115052380D02*
X78576190Y-115052380D01*
X78480952Y-115100000D01*
X78433333Y-115147619D01*
X78338095Y-115290476D01*
X78290476Y-115480952D01*
X78290476Y-115861904D01*
X78338095Y-115957142D01*
X78385714Y-116004761D01*
X78480952Y-116052380D01*
X78671428Y-116052380D01*
X78766666Y-116004761D01*
X78814285Y-115957142D01*
X78861904Y-115861904D01*
X78861904Y-115623809D01*
X78814285Y-115528571D01*
X78766666Y-115480952D01*
X78671428Y-115433333D01*
X78480952Y-115433333D01*
X78385714Y-115480952D01*
X78338095Y-115528571D01*
X78290476Y-115623809D01*
X76957142Y-117157142D02*
X76909523Y-117204761D01*
X76766666Y-117252380D01*
X76671428Y-117252380D01*
X76528571Y-117204761D01*
X76433333Y-117109523D01*
X76385714Y-117014285D01*
X76338095Y-116823809D01*
X76338095Y-116680952D01*
X76385714Y-116490476D01*
X76433333Y-116395238D01*
X76528571Y-116300000D01*
X76671428Y-116252380D01*
X76766666Y-116252380D01*
X76909523Y-116300000D01*
X76957142Y-116347619D01*
X77290476Y-116252380D02*
X77909523Y-116252380D01*
X77576190Y-116633333D01*
X77719047Y-116633333D01*
X77814285Y-116680952D01*
X77861904Y-116728571D01*
X77909523Y-116823809D01*
X77909523Y-117061904D01*
X77861904Y-117157142D01*
X77814285Y-117204761D01*
X77719047Y-117252380D01*
X77433333Y-117252380D01*
X77338095Y-117204761D01*
X77290476Y-117157142D01*
X78814285Y-116252380D02*
X78338095Y-116252380D01*
X78290476Y-116728571D01*
X78338095Y-116680952D01*
X78433333Y-116633333D01*
X78671428Y-116633333D01*
X78766666Y-116680952D01*
X78814285Y-116728571D01*
X78861904Y-116823809D01*
X78861904Y-117061904D01*
X78814285Y-117157142D01*
X78766666Y-117204761D01*
X78671428Y-117252380D01*
X78433333Y-117252380D01*
X78338095Y-117204761D01*
X78290476Y-117157142D01*
X76957142Y-118357142D02*
X76909523Y-118404761D01*
X76766666Y-118452380D01*
X76671428Y-118452380D01*
X76528571Y-118404761D01*
X76433333Y-118309523D01*
X76385714Y-118214285D01*
X76338095Y-118023809D01*
X76338095Y-117880952D01*
X76385714Y-117690476D01*
X76433333Y-117595238D01*
X76528571Y-117500000D01*
X76671428Y-117452380D01*
X76766666Y-117452380D01*
X76909523Y-117500000D01*
X76957142Y-117547619D01*
X77290476Y-117452380D02*
X77909523Y-117452380D01*
X77576190Y-117833333D01*
X77719047Y-117833333D01*
X77814285Y-117880952D01*
X77861904Y-117928571D01*
X77909523Y-118023809D01*
X77909523Y-118261904D01*
X77861904Y-118357142D01*
X77814285Y-118404761D01*
X77719047Y-118452380D01*
X77433333Y-118452380D01*
X77338095Y-118404761D01*
X77290476Y-118357142D01*
X78766666Y-117785714D02*
X78766666Y-118452380D01*
X78528571Y-117404761D02*
X78290476Y-118119047D01*
X78909523Y-118119047D01*
X99157142Y-116157142D02*
X99109523Y-116204761D01*
X98966666Y-116252380D01*
X98871428Y-116252380D01*
X98728571Y-116204761D01*
X98633333Y-116109523D01*
X98585714Y-116014285D01*
X98538095Y-115823809D01*
X98538095Y-115680952D01*
X98585714Y-115490476D01*
X98633333Y-115395238D01*
X98728571Y-115300000D01*
X98871428Y-115252380D01*
X98966666Y-115252380D01*
X99109523Y-115300000D01*
X99157142Y-115347619D01*
X99490476Y-115252380D02*
X100109523Y-115252380D01*
X99776190Y-115633333D01*
X99919047Y-115633333D01*
X100014285Y-115680952D01*
X100061904Y-115728571D01*
X100109523Y-115823809D01*
X100109523Y-116061904D01*
X100061904Y-116157142D01*
X100014285Y-116204761D01*
X99919047Y-116252380D01*
X99633333Y-116252380D01*
X99538095Y-116204761D01*
X99490476Y-116157142D01*
X100442857Y-115252380D02*
X101061904Y-115252380D01*
X100728571Y-115633333D01*
X100871428Y-115633333D01*
X100966666Y-115680952D01*
X101014285Y-115728571D01*
X101061904Y-115823809D01*
X101061904Y-116061904D01*
X101014285Y-116157142D01*
X100966666Y-116204761D01*
X100871428Y-116252380D01*
X100585714Y-116252380D01*
X100490476Y-116204761D01*
X100442857Y-116157142D01*
X92757142Y-118157142D02*
X92709523Y-118204761D01*
X92566666Y-118252380D01*
X92471428Y-118252380D01*
X92328571Y-118204761D01*
X92233333Y-118109523D01*
X92185714Y-118014285D01*
X92138095Y-117823809D01*
X92138095Y-117680952D01*
X92185714Y-117490476D01*
X92233333Y-117395238D01*
X92328571Y-117300000D01*
X92471428Y-117252380D01*
X92566666Y-117252380D01*
X92709523Y-117300000D01*
X92757142Y-117347619D01*
X93090476Y-117252380D02*
X93709523Y-117252380D01*
X93376190Y-117633333D01*
X93519047Y-117633333D01*
X93614285Y-117680952D01*
X93661904Y-117728571D01*
X93709523Y-117823809D01*
X93709523Y-118061904D01*
X93661904Y-118157142D01*
X93614285Y-118204761D01*
X93519047Y-118252380D01*
X93233333Y-118252380D01*
X93138095Y-118204761D01*
X93090476Y-118157142D01*
X94661904Y-118252380D02*
X94090476Y-118252380D01*
X94376190Y-118252380D02*
X94376190Y-117252380D01*
X94280952Y-117395238D01*
X94185714Y-117490476D01*
X94090476Y-117538095D01*
X111157142Y-111557142D02*
X111109523Y-111604761D01*
X110966666Y-111652380D01*
X110871428Y-111652380D01*
X110728571Y-111604761D01*
X110633333Y-111509523D01*
X110585714Y-111414285D01*
X110538095Y-111223809D01*
X110538095Y-111080952D01*
X110585714Y-110890476D01*
X110633333Y-110795238D01*
X110728571Y-110700000D01*
X110871428Y-110652380D01*
X110966666Y-110652380D01*
X111109523Y-110700000D01*
X111157142Y-110747619D01*
X111490476Y-110652380D02*
X112109523Y-110652380D01*
X111776190Y-111033333D01*
X111919047Y-111033333D01*
X112014285Y-111080952D01*
X112061904Y-111128571D01*
X112109523Y-111223809D01*
X112109523Y-111461904D01*
X112061904Y-111557142D01*
X112014285Y-111604761D01*
X111919047Y-111652380D01*
X111633333Y-111652380D01*
X111538095Y-111604761D01*
X111490476Y-111557142D01*
X112728571Y-110652380D02*
X112823809Y-110652380D01*
X112919047Y-110700000D01*
X112966666Y-110747619D01*
X113014285Y-110842857D01*
X113061904Y-111033333D01*
X113061904Y-111271428D01*
X113014285Y-111461904D01*
X112966666Y-111557142D01*
X112919047Y-111604761D01*
X112823809Y-111652380D01*
X112728571Y-111652380D01*
X112633333Y-111604761D01*
X112585714Y-111557142D01*
X112538095Y-111461904D01*
X112490476Y-111271428D01*
X112490476Y-111033333D01*
X112538095Y-110842857D01*
X112585714Y-110747619D01*
X112633333Y-110700000D01*
X112728571Y-110652380D01*
X111157142Y-110357142D02*
X111109523Y-110404761D01*
X110966666Y-110452380D01*
X110871428Y-110452380D01*
X110728571Y-110404761D01*
X110633333Y-110309523D01*
X110585714Y-110214285D01*
X110538095Y-110023809D01*
X110538095Y-109880952D01*
X110585714Y-109690476D01*
X110633333Y-109595238D01*
X110728571Y-109500000D01*
X110871428Y-109452380D01*
X110966666Y-109452380D01*
X111109523Y-109500000D01*
X111157142Y-109547619D01*
X111538095Y-109547619D02*
X111585714Y-109500000D01*
X111680952Y-109452380D01*
X111919047Y-109452380D01*
X112014285Y-109500000D01*
X112061904Y-109547619D01*
X112109523Y-109642857D01*
X112109523Y-109738095D01*
X112061904Y-109880952D01*
X111490476Y-110452380D01*
X112109523Y-110452380D01*
X112585714Y-110452380D02*
X112776190Y-110452380D01*
X112871428Y-110404761D01*
X112919047Y-110357142D01*
X113014285Y-110214285D01*
X113061904Y-110023809D01*
X113061904Y-109642857D01*
X113014285Y-109547619D01*
X112966666Y-109500000D01*
X112871428Y-109452380D01*
X112680952Y-109452380D01*
X112585714Y-109500000D01*
X112538095Y-109547619D01*
X112490476Y-109642857D01*
X112490476Y-109880952D01*
X112538095Y-109976190D01*
X112585714Y-110023809D01*
X112680952Y-110071428D01*
X112871428Y-110071428D01*
X112966666Y-110023809D01*
X113014285Y-109976190D01*
X113061904Y-109880952D01*
X76157142Y-128557142D02*
X76109523Y-128604761D01*
X75966666Y-128652380D01*
X75871428Y-128652380D01*
X75728571Y-128604761D01*
X75633333Y-128509523D01*
X75585714Y-128414285D01*
X75538095Y-128223809D01*
X75538095Y-128080952D01*
X75585714Y-127890476D01*
X75633333Y-127795238D01*
X75728571Y-127700000D01*
X75871428Y-127652380D01*
X75966666Y-127652380D01*
X76109523Y-127700000D01*
X76157142Y-127747619D01*
X76538095Y-127747619D02*
X76585714Y-127700000D01*
X76680952Y-127652380D01*
X76919047Y-127652380D01*
X77014285Y-127700000D01*
X77061904Y-127747619D01*
X77109523Y-127842857D01*
X77109523Y-127938095D01*
X77061904Y-128080952D01*
X76490476Y-128652380D01*
X77109523Y-128652380D01*
X77680952Y-128080952D02*
X77585714Y-128033333D01*
X77538095Y-127985714D01*
X77490476Y-127890476D01*
X77490476Y-127842857D01*
X77538095Y-127747619D01*
X77585714Y-127700000D01*
X77680952Y-127652380D01*
X77871428Y-127652380D01*
X77966666Y-127700000D01*
X78014285Y-127747619D01*
X78061904Y-127842857D01*
X78061904Y-127890476D01*
X78014285Y-127985714D01*
X77966666Y-128033333D01*
X77871428Y-128080952D01*
X77680952Y-128080952D01*
X77585714Y-128128571D01*
X77538095Y-128176190D01*
X77490476Y-128271428D01*
X77490476Y-128461904D01*
X77538095Y-128557142D01*
X77585714Y-128604761D01*
X77680952Y-128652380D01*
X77871428Y-128652380D01*
X77966666Y-128604761D01*
X78014285Y-128557142D01*
X78061904Y-128461904D01*
X78061904Y-128271428D01*
X78014285Y-128176190D01*
X77966666Y-128128571D01*
X77871428Y-128080952D01*
X76157142Y-126557142D02*
X76109523Y-126604761D01*
X75966666Y-126652380D01*
X75871428Y-126652380D01*
X75728571Y-126604761D01*
X75633333Y-126509523D01*
X75585714Y-126414285D01*
X75538095Y-126223809D01*
X75538095Y-126080952D01*
X75585714Y-125890476D01*
X75633333Y-125795238D01*
X75728571Y-125700000D01*
X75871428Y-125652380D01*
X75966666Y-125652380D01*
X76109523Y-125700000D01*
X76157142Y-125747619D01*
X76538095Y-125747619D02*
X76585714Y-125700000D01*
X76680952Y-125652380D01*
X76919047Y-125652380D01*
X77014285Y-125700000D01*
X77061904Y-125747619D01*
X77109523Y-125842857D01*
X77109523Y-125938095D01*
X77061904Y-126080952D01*
X76490476Y-126652380D01*
X77109523Y-126652380D01*
X77442857Y-125652380D02*
X78109523Y-125652380D01*
X77680952Y-126652380D01*
X76157142Y-124557142D02*
X76109523Y-124604761D01*
X75966666Y-124652380D01*
X75871428Y-124652380D01*
X75728571Y-124604761D01*
X75633333Y-124509523D01*
X75585714Y-124414285D01*
X75538095Y-124223809D01*
X75538095Y-124080952D01*
X75585714Y-123890476D01*
X75633333Y-123795238D01*
X75728571Y-123700000D01*
X75871428Y-123652380D01*
X75966666Y-123652380D01*
X76109523Y-123700000D01*
X76157142Y-123747619D01*
X76538095Y-123747619D02*
X76585714Y-123700000D01*
X76680952Y-123652380D01*
X76919047Y-123652380D01*
X77014285Y-123700000D01*
X77061904Y-123747619D01*
X77109523Y-123842857D01*
X77109523Y-123938095D01*
X77061904Y-124080952D01*
X76490476Y-124652380D01*
X77109523Y-124652380D01*
X77966666Y-123652380D02*
X77776190Y-123652380D01*
X77680952Y-123700000D01*
X77633333Y-123747619D01*
X77538095Y-123890476D01*
X77490476Y-124080952D01*
X77490476Y-124461904D01*
X77538095Y-124557142D01*
X77585714Y-124604761D01*
X77680952Y-124652380D01*
X77871428Y-124652380D01*
X77966666Y-124604761D01*
X78014285Y-124557142D01*
X78061904Y-124461904D01*
X78061904Y-124223809D01*
X78014285Y-124128571D01*
X77966666Y-124080952D01*
X77871428Y-124033333D01*
X77680952Y-124033333D01*
X77585714Y-124080952D01*
X77538095Y-124128571D01*
X77490476Y-124223809D01*
X74557142Y-114557142D02*
X74509523Y-114604761D01*
X74366666Y-114652380D01*
X74271428Y-114652380D01*
X74128571Y-114604761D01*
X74033333Y-114509523D01*
X73985714Y-114414285D01*
X73938095Y-114223809D01*
X73938095Y-114080952D01*
X73985714Y-113890476D01*
X74033333Y-113795238D01*
X74128571Y-113700000D01*
X74271428Y-113652380D01*
X74366666Y-113652380D01*
X74509523Y-113700000D01*
X74557142Y-113747619D01*
X74938095Y-113747619D02*
X74985714Y-113700000D01*
X75080952Y-113652380D01*
X75319047Y-113652380D01*
X75414285Y-113700000D01*
X75461904Y-113747619D01*
X75509523Y-113842857D01*
X75509523Y-113938095D01*
X75461904Y-114080952D01*
X74890476Y-114652380D01*
X75509523Y-114652380D01*
X76414285Y-113652380D02*
X75938095Y-113652380D01*
X75890476Y-114128571D01*
X75938095Y-114080952D01*
X76033333Y-114033333D01*
X76271428Y-114033333D01*
X76366666Y-114080952D01*
X76414285Y-114128571D01*
X76461904Y-114223809D01*
X76461904Y-114461904D01*
X76414285Y-114557142D01*
X76366666Y-114604761D01*
X76271428Y-114652380D01*
X76033333Y-114652380D01*
X75938095Y-114604761D01*
X75890476Y-114557142D01*
X72557142Y-119757142D02*
X72509523Y-119804761D01*
X72366666Y-119852380D01*
X72271428Y-119852380D01*
X72128571Y-119804761D01*
X72033333Y-119709523D01*
X71985714Y-119614285D01*
X71938095Y-119423809D01*
X71938095Y-119280952D01*
X71985714Y-119090476D01*
X72033333Y-118995238D01*
X72128571Y-118900000D01*
X72271428Y-118852380D01*
X72366666Y-118852380D01*
X72509523Y-118900000D01*
X72557142Y-118947619D01*
X72938095Y-118947619D02*
X72985714Y-118900000D01*
X73080952Y-118852380D01*
X73319047Y-118852380D01*
X73414285Y-118900000D01*
X73461904Y-118947619D01*
X73509523Y-119042857D01*
X73509523Y-119138095D01*
X73461904Y-119280952D01*
X72890476Y-119852380D01*
X73509523Y-119852380D01*
X74366666Y-119185714D02*
X74366666Y-119852380D01*
X74128571Y-118804761D02*
X73890476Y-119519047D01*
X74509523Y-119519047D01*
X56357142Y-116357142D02*
X56309523Y-116404761D01*
X56166666Y-116452380D01*
X56071428Y-116452380D01*
X55928571Y-116404761D01*
X55833333Y-116309523D01*
X55785714Y-116214285D01*
X55738095Y-116023809D01*
X55738095Y-115880952D01*
X55785714Y-115690476D01*
X55833333Y-115595238D01*
X55928571Y-115500000D01*
X56071428Y-115452380D01*
X56166666Y-115452380D01*
X56309523Y-115500000D01*
X56357142Y-115547619D01*
X56738095Y-115547619D02*
X56785714Y-115500000D01*
X56880952Y-115452380D01*
X57119047Y-115452380D01*
X57214285Y-115500000D01*
X57261904Y-115547619D01*
X57309523Y-115642857D01*
X57309523Y-115738095D01*
X57261904Y-115880952D01*
X56690476Y-116452380D01*
X57309523Y-116452380D01*
X57642857Y-115452380D02*
X58261904Y-115452380D01*
X57928571Y-115833333D01*
X58071428Y-115833333D01*
X58166666Y-115880952D01*
X58214285Y-115928571D01*
X58261904Y-116023809D01*
X58261904Y-116261904D01*
X58214285Y-116357142D01*
X58166666Y-116404761D01*
X58071428Y-116452380D01*
X57785714Y-116452380D01*
X57690476Y-116404761D01*
X57642857Y-116357142D01*
X61757142Y-133557142D02*
X61709523Y-133604761D01*
X61566666Y-133652380D01*
X61471428Y-133652380D01*
X61328571Y-133604761D01*
X61233333Y-133509523D01*
X61185714Y-133414285D01*
X61138095Y-133223809D01*
X61138095Y-133080952D01*
X61185714Y-132890476D01*
X61233333Y-132795238D01*
X61328571Y-132700000D01*
X61471428Y-132652380D01*
X61566666Y-132652380D01*
X61709523Y-132700000D01*
X61757142Y-132747619D01*
X62138095Y-132747619D02*
X62185714Y-132700000D01*
X62280952Y-132652380D01*
X62519047Y-132652380D01*
X62614285Y-132700000D01*
X62661904Y-132747619D01*
X62709523Y-132842857D01*
X62709523Y-132938095D01*
X62661904Y-133080952D01*
X62090476Y-133652380D01*
X62709523Y-133652380D01*
X63090476Y-132747619D02*
X63138095Y-132700000D01*
X63233333Y-132652380D01*
X63471428Y-132652380D01*
X63566666Y-132700000D01*
X63614285Y-132747619D01*
X63661904Y-132842857D01*
X63661904Y-132938095D01*
X63614285Y-133080952D01*
X63042857Y-133652380D01*
X63661904Y-133652380D01*
X71157142Y-71357142D02*
X71109523Y-71404761D01*
X70966666Y-71452380D01*
X70871428Y-71452380D01*
X70728571Y-71404761D01*
X70633333Y-71309523D01*
X70585714Y-71214285D01*
X70538095Y-71023809D01*
X70538095Y-70880952D01*
X70585714Y-70690476D01*
X70633333Y-70595238D01*
X70728571Y-70500000D01*
X70871428Y-70452380D01*
X70966666Y-70452380D01*
X71109523Y-70500000D01*
X71157142Y-70547619D01*
X72109523Y-71452380D02*
X71538095Y-71452380D01*
X71823809Y-71452380D02*
X71823809Y-70452380D01*
X71728571Y-70595238D01*
X71633333Y-70690476D01*
X71538095Y-70738095D01*
X72585714Y-71452380D02*
X72776190Y-71452380D01*
X72871428Y-71404761D01*
X72919047Y-71357142D01*
X73014285Y-71214285D01*
X73061904Y-71023809D01*
X73061904Y-70642857D01*
X73014285Y-70547619D01*
X72966666Y-70500000D01*
X72871428Y-70452380D01*
X72680952Y-70452380D01*
X72585714Y-70500000D01*
X72538095Y-70547619D01*
X72490476Y-70642857D01*
X72490476Y-70880952D01*
X72538095Y-70976190D01*
X72585714Y-71023809D01*
X72680952Y-71071428D01*
X72871428Y-71071428D01*
X72966666Y-71023809D01*
X73014285Y-70976190D01*
X73061904Y-70880952D01*
X74157142Y-71357142D02*
X74109523Y-71404761D01*
X73966666Y-71452380D01*
X73871428Y-71452380D01*
X73728571Y-71404761D01*
X73633333Y-71309523D01*
X73585714Y-71214285D01*
X73538095Y-71023809D01*
X73538095Y-70880952D01*
X73585714Y-70690476D01*
X73633333Y-70595238D01*
X73728571Y-70500000D01*
X73871428Y-70452380D01*
X73966666Y-70452380D01*
X74109523Y-70500000D01*
X74157142Y-70547619D01*
X75109523Y-71452380D02*
X74538095Y-71452380D01*
X74823809Y-71452380D02*
X74823809Y-70452380D01*
X74728571Y-70595238D01*
X74633333Y-70690476D01*
X74538095Y-70738095D01*
X75680952Y-70880952D02*
X75585714Y-70833333D01*
X75538095Y-70785714D01*
X75490476Y-70690476D01*
X75490476Y-70642857D01*
X75538095Y-70547619D01*
X75585714Y-70500000D01*
X75680952Y-70452380D01*
X75871428Y-70452380D01*
X75966666Y-70500000D01*
X76014285Y-70547619D01*
X76061904Y-70642857D01*
X76061904Y-70690476D01*
X76014285Y-70785714D01*
X75966666Y-70833333D01*
X75871428Y-70880952D01*
X75680952Y-70880952D01*
X75585714Y-70928571D01*
X75538095Y-70976190D01*
X75490476Y-71071428D01*
X75490476Y-71261904D01*
X75538095Y-71357142D01*
X75585714Y-71404761D01*
X75680952Y-71452380D01*
X75871428Y-71452380D01*
X75966666Y-71404761D01*
X76014285Y-71357142D01*
X76061904Y-71261904D01*
X76061904Y-71071428D01*
X76014285Y-70976190D01*
X75966666Y-70928571D01*
X75871428Y-70880952D01*
X114857142Y-144557142D02*
X114809523Y-144604761D01*
X114666666Y-144652380D01*
X114571428Y-144652380D01*
X114428571Y-144604761D01*
X114333333Y-144509523D01*
X114285714Y-144414285D01*
X114238095Y-144223809D01*
X114238095Y-144080952D01*
X114285714Y-143890476D01*
X114333333Y-143795238D01*
X114428571Y-143700000D01*
X114571428Y-143652380D01*
X114666666Y-143652380D01*
X114809523Y-143700000D01*
X114857142Y-143747619D01*
X115809523Y-144652380D02*
X115238095Y-144652380D01*
X115523809Y-144652380D02*
X115523809Y-143652380D01*
X115428571Y-143795238D01*
X115333333Y-143890476D01*
X115238095Y-143938095D01*
X116142857Y-143652380D02*
X116809523Y-143652380D01*
X116380952Y-144652380D01*
X111757142Y-144557142D02*
X111709523Y-144604761D01*
X111566666Y-144652380D01*
X111471428Y-144652380D01*
X111328571Y-144604761D01*
X111233333Y-144509523D01*
X111185714Y-144414285D01*
X111138095Y-144223809D01*
X111138095Y-144080952D01*
X111185714Y-143890476D01*
X111233333Y-143795238D01*
X111328571Y-143700000D01*
X111471428Y-143652380D01*
X111566666Y-143652380D01*
X111709523Y-143700000D01*
X111757142Y-143747619D01*
X112709523Y-144652380D02*
X112138095Y-144652380D01*
X112423809Y-144652380D02*
X112423809Y-143652380D01*
X112328571Y-143795238D01*
X112233333Y-143890476D01*
X112138095Y-143938095D01*
X113566666Y-143652380D02*
X113376190Y-143652380D01*
X113280952Y-143700000D01*
X113233333Y-143747619D01*
X113138095Y-143890476D01*
X113090476Y-144080952D01*
X113090476Y-144461904D01*
X113138095Y-144557142D01*
X113185714Y-144604761D01*
X113280952Y-144652380D01*
X113471428Y-144652380D01*
X113566666Y-144604761D01*
X113614285Y-144557142D01*
X113661904Y-144461904D01*
X113661904Y-144223809D01*
X113614285Y-144128571D01*
X113566666Y-144080952D01*
X113471428Y-144033333D01*
X113280952Y-144033333D01*
X113185714Y-144080952D01*
X113138095Y-144128571D01*
X113090476Y-144223809D01*
X92957142Y-78357142D02*
X92909523Y-78404761D01*
X92766666Y-78452380D01*
X92671428Y-78452380D01*
X92528571Y-78404761D01*
X92433333Y-78309523D01*
X92385714Y-78214285D01*
X92338095Y-78023809D01*
X92338095Y-77880952D01*
X92385714Y-77690476D01*
X92433333Y-77595238D01*
X92528571Y-77500000D01*
X92671428Y-77452380D01*
X92766666Y-77452380D01*
X92909523Y-77500000D01*
X92957142Y-77547619D01*
X93909523Y-78452380D02*
X93338095Y-78452380D01*
X93623809Y-78452380D02*
X93623809Y-77452380D01*
X93528571Y-77595238D01*
X93433333Y-77690476D01*
X93338095Y-77738095D01*
X94814285Y-77452380D02*
X94338095Y-77452380D01*
X94290476Y-77928571D01*
X94338095Y-77880952D01*
X94433333Y-77833333D01*
X94671428Y-77833333D01*
X94766666Y-77880952D01*
X94814285Y-77928571D01*
X94861904Y-78023809D01*
X94861904Y-78261904D01*
X94814285Y-78357142D01*
X94766666Y-78404761D01*
X94671428Y-78452380D01*
X94433333Y-78452380D01*
X94338095Y-78404761D01*
X94290476Y-78357142D01*
X92757142Y-76957142D02*
X92709523Y-77004761D01*
X92566666Y-77052380D01*
X92471428Y-77052380D01*
X92328571Y-77004761D01*
X92233333Y-76909523D01*
X92185714Y-76814285D01*
X92138095Y-76623809D01*
X92138095Y-76480952D01*
X92185714Y-76290476D01*
X92233333Y-76195238D01*
X92328571Y-76100000D01*
X92471428Y-76052380D01*
X92566666Y-76052380D01*
X92709523Y-76100000D01*
X92757142Y-76147619D01*
X93709523Y-77052380D02*
X93138095Y-77052380D01*
X93423809Y-77052380D02*
X93423809Y-76052380D01*
X93328571Y-76195238D01*
X93233333Y-76290476D01*
X93138095Y-76338095D01*
X94566666Y-76385714D02*
X94566666Y-77052380D01*
X94328571Y-76004761D02*
X94090476Y-76719047D01*
X94709523Y-76719047D01*
X114357142Y-63757142D02*
X114309523Y-63804761D01*
X114166666Y-63852380D01*
X114071428Y-63852380D01*
X113928571Y-63804761D01*
X113833333Y-63709523D01*
X113785714Y-63614285D01*
X113738095Y-63423809D01*
X113738095Y-63280952D01*
X113785714Y-63090476D01*
X113833333Y-62995238D01*
X113928571Y-62900000D01*
X114071428Y-62852380D01*
X114166666Y-62852380D01*
X114309523Y-62900000D01*
X114357142Y-62947619D01*
X115309523Y-63852380D02*
X114738095Y-63852380D01*
X115023809Y-63852380D02*
X115023809Y-62852380D01*
X114928571Y-62995238D01*
X114833333Y-63090476D01*
X114738095Y-63138095D01*
X116261904Y-63852380D02*
X115690476Y-63852380D01*
X115976190Y-63852380D02*
X115976190Y-62852380D01*
X115880952Y-62995238D01*
X115785714Y-63090476D01*
X115690476Y-63138095D01*
X103057142Y-95987142D02*
X103009523Y-96034761D01*
X102866666Y-96082380D01*
X102771428Y-96082380D01*
X102628571Y-96034761D01*
X102533333Y-95939523D01*
X102485714Y-95844285D01*
X102438095Y-95653809D01*
X102438095Y-95510952D01*
X102485714Y-95320476D01*
X102533333Y-95225238D01*
X102628571Y-95130000D01*
X102771428Y-95082380D01*
X102866666Y-95082380D01*
X103009523Y-95130000D01*
X103057142Y-95177619D01*
X104009523Y-96082380D02*
X103438095Y-96082380D01*
X103723809Y-96082380D02*
X103723809Y-95082380D01*
X103628571Y-95225238D01*
X103533333Y-95320476D01*
X103438095Y-95368095D01*
X104628571Y-95082380D02*
X104723809Y-95082380D01*
X104819047Y-95130000D01*
X104866666Y-95177619D01*
X104914285Y-95272857D01*
X104961904Y-95463333D01*
X104961904Y-95701428D01*
X104914285Y-95891904D01*
X104866666Y-95987142D01*
X104819047Y-96034761D01*
X104723809Y-96082380D01*
X104628571Y-96082380D01*
X104533333Y-96034761D01*
X104485714Y-95987142D01*
X104438095Y-95891904D01*
X104390476Y-95701428D01*
X104390476Y-95463333D01*
X104438095Y-95272857D01*
X104485714Y-95177619D01*
X104533333Y-95130000D01*
X104628571Y-95082380D01*
X108033333Y-81757142D02*
X107985714Y-81804761D01*
X107842857Y-81852380D01*
X107747619Y-81852380D01*
X107604761Y-81804761D01*
X107509523Y-81709523D01*
X107461904Y-81614285D01*
X107414285Y-81423809D01*
X107414285Y-81280952D01*
X107461904Y-81090476D01*
X107509523Y-80995238D01*
X107604761Y-80900000D01*
X107747619Y-80852380D01*
X107842857Y-80852380D01*
X107985714Y-80900000D01*
X108033333Y-80947619D01*
X108509523Y-81852380D02*
X108700000Y-81852380D01*
X108795238Y-81804761D01*
X108842857Y-81757142D01*
X108938095Y-81614285D01*
X108985714Y-81423809D01*
X108985714Y-81042857D01*
X108938095Y-80947619D01*
X108890476Y-80900000D01*
X108795238Y-80852380D01*
X108604761Y-80852380D01*
X108509523Y-80900000D01*
X108461904Y-80947619D01*
X108414285Y-81042857D01*
X108414285Y-81280952D01*
X108461904Y-81376190D01*
X108509523Y-81423809D01*
X108604761Y-81471428D01*
X108795238Y-81471428D01*
X108890476Y-81423809D01*
X108938095Y-81376190D01*
X108985714Y-81280952D01*
X87033333Y-78357142D02*
X86985714Y-78404761D01*
X86842857Y-78452380D01*
X86747619Y-78452380D01*
X86604761Y-78404761D01*
X86509523Y-78309523D01*
X86461904Y-78214285D01*
X86414285Y-78023809D01*
X86414285Y-77880952D01*
X86461904Y-77690476D01*
X86509523Y-77595238D01*
X86604761Y-77500000D01*
X86747619Y-77452380D01*
X86842857Y-77452380D01*
X86985714Y-77500000D01*
X87033333Y-77547619D01*
X87604761Y-77880952D02*
X87509523Y-77833333D01*
X87461904Y-77785714D01*
X87414285Y-77690476D01*
X87414285Y-77642857D01*
X87461904Y-77547619D01*
X87509523Y-77500000D01*
X87604761Y-77452380D01*
X87795238Y-77452380D01*
X87890476Y-77500000D01*
X87938095Y-77547619D01*
X87985714Y-77642857D01*
X87985714Y-77690476D01*
X87938095Y-77785714D01*
X87890476Y-77833333D01*
X87795238Y-77880952D01*
X87604761Y-77880952D01*
X87509523Y-77928571D01*
X87461904Y-77976190D01*
X87414285Y-78071428D01*
X87414285Y-78261904D01*
X87461904Y-78357142D01*
X87509523Y-78404761D01*
X87604761Y-78452380D01*
X87795238Y-78452380D01*
X87890476Y-78404761D01*
X87938095Y-78357142D01*
X87985714Y-78261904D01*
X87985714Y-78071428D01*
X87938095Y-77976190D01*
X87890476Y-77928571D01*
X87795238Y-77880952D01*
X91833333Y-85557142D02*
X91785714Y-85604761D01*
X91642857Y-85652380D01*
X91547619Y-85652380D01*
X91404761Y-85604761D01*
X91309523Y-85509523D01*
X91261904Y-85414285D01*
X91214285Y-85223809D01*
X91214285Y-85080952D01*
X91261904Y-84890476D01*
X91309523Y-84795238D01*
X91404761Y-84700000D01*
X91547619Y-84652380D01*
X91642857Y-84652380D01*
X91785714Y-84700000D01*
X91833333Y-84747619D01*
X92166666Y-84652380D02*
X92833333Y-84652380D01*
X92404761Y-85652380D01*
X80233333Y-144557142D02*
X80185714Y-144604761D01*
X80042857Y-144652380D01*
X79947619Y-144652380D01*
X79804761Y-144604761D01*
X79709523Y-144509523D01*
X79661904Y-144414285D01*
X79614285Y-144223809D01*
X79614285Y-144080952D01*
X79661904Y-143890476D01*
X79709523Y-143795238D01*
X79804761Y-143700000D01*
X79947619Y-143652380D01*
X80042857Y-143652380D01*
X80185714Y-143700000D01*
X80233333Y-143747619D01*
X81090476Y-143652380D02*
X80900000Y-143652380D01*
X80804761Y-143700000D01*
X80757142Y-143747619D01*
X80661904Y-143890476D01*
X80614285Y-144080952D01*
X80614285Y-144461904D01*
X80661904Y-144557142D01*
X80709523Y-144604761D01*
X80804761Y-144652380D01*
X80995238Y-144652380D01*
X81090476Y-144604761D01*
X81138095Y-144557142D01*
X81185714Y-144461904D01*
X81185714Y-144223809D01*
X81138095Y-144128571D01*
X81090476Y-144080952D01*
X80995238Y-144033333D01*
X80804761Y-144033333D01*
X80709523Y-144080952D01*
X80661904Y-144128571D01*
X80614285Y-144223809D01*
X112433333Y-77157142D02*
X112385714Y-77204761D01*
X112242857Y-77252380D01*
X112147619Y-77252380D01*
X112004761Y-77204761D01*
X111909523Y-77109523D01*
X111861904Y-77014285D01*
X111814285Y-76823809D01*
X111814285Y-76680952D01*
X111861904Y-76490476D01*
X111909523Y-76395238D01*
X112004761Y-76300000D01*
X112147619Y-76252380D01*
X112242857Y-76252380D01*
X112385714Y-76300000D01*
X112433333Y-76347619D01*
X113338095Y-76252380D02*
X112861904Y-76252380D01*
X112814285Y-76728571D01*
X112861904Y-76680952D01*
X112957142Y-76633333D01*
X113195238Y-76633333D01*
X113290476Y-76680952D01*
X113338095Y-76728571D01*
X113385714Y-76823809D01*
X113385714Y-77061904D01*
X113338095Y-77157142D01*
X113290476Y-77204761D01*
X113195238Y-77252380D01*
X112957142Y-77252380D01*
X112861904Y-77204761D01*
X112814285Y-77157142D01*
X112433333Y-79357142D02*
X112385714Y-79404761D01*
X112242857Y-79452380D01*
X112147619Y-79452380D01*
X112004761Y-79404761D01*
X111909523Y-79309523D01*
X111861904Y-79214285D01*
X111814285Y-79023809D01*
X111814285Y-78880952D01*
X111861904Y-78690476D01*
X111909523Y-78595238D01*
X112004761Y-78500000D01*
X112147619Y-78452380D01*
X112242857Y-78452380D01*
X112385714Y-78500000D01*
X112433333Y-78547619D01*
X113290476Y-78785714D02*
X113290476Y-79452380D01*
X113052380Y-78404761D02*
X112814285Y-79119047D01*
X113433333Y-79119047D01*
X90233333Y-80757142D02*
X90185714Y-80804761D01*
X90042857Y-80852380D01*
X89947619Y-80852380D01*
X89804761Y-80804761D01*
X89709523Y-80709523D01*
X89661904Y-80614285D01*
X89614285Y-80423809D01*
X89614285Y-80280952D01*
X89661904Y-80090476D01*
X89709523Y-79995238D01*
X89804761Y-79900000D01*
X89947619Y-79852380D01*
X90042857Y-79852380D01*
X90185714Y-79900000D01*
X90233333Y-79947619D01*
X90566666Y-79852380D02*
X91185714Y-79852380D01*
X90852380Y-80233333D01*
X90995238Y-80233333D01*
X91090476Y-80280952D01*
X91138095Y-80328571D01*
X91185714Y-80423809D01*
X91185714Y-80661904D01*
X91138095Y-80757142D01*
X91090476Y-80804761D01*
X90995238Y-80852380D01*
X90709523Y-80852380D01*
X90614285Y-80804761D01*
X90566666Y-80757142D01*
X97833333Y-75357142D02*
X97785714Y-75404761D01*
X97642857Y-75452380D01*
X97547619Y-75452380D01*
X97404761Y-75404761D01*
X97309523Y-75309523D01*
X97261904Y-75214285D01*
X97214285Y-75023809D01*
X97214285Y-74880952D01*
X97261904Y-74690476D01*
X97309523Y-74595238D01*
X97404761Y-74500000D01*
X97547619Y-74452380D01*
X97642857Y-74452380D01*
X97785714Y-74500000D01*
X97833333Y-74547619D01*
X98214285Y-74547619D02*
X98261904Y-74500000D01*
X98357142Y-74452380D01*
X98595238Y-74452380D01*
X98690476Y-74500000D01*
X98738095Y-74547619D01*
X98785714Y-74642857D01*
X98785714Y-74738095D01*
X98738095Y-74880952D01*
X98166666Y-75452380D01*
X98785714Y-75452380D01*
X105233333Y-73357142D02*
X105185714Y-73404761D01*
X105042857Y-73452380D01*
X104947619Y-73452380D01*
X104804761Y-73404761D01*
X104709523Y-73309523D01*
X104661904Y-73214285D01*
X104614285Y-73023809D01*
X104614285Y-72880952D01*
X104661904Y-72690476D01*
X104709523Y-72595238D01*
X104804761Y-72500000D01*
X104947619Y-72452380D01*
X105042857Y-72452380D01*
X105185714Y-72500000D01*
X105233333Y-72547619D01*
X106185714Y-73452380D02*
X105614285Y-73452380D01*
X105900000Y-73452380D02*
X105900000Y-72452380D01*
X105804761Y-72595238D01*
X105709523Y-72690476D01*
X105614285Y-72738095D01*
M02*
