G04 #@! TF.GenerationSoftware,KiCad,Pcbnew,(5.1.5)-3*
G04 #@! TF.CreationDate,2021-12-07T19:33:22+01:00*
G04 #@! TF.ProjectId,EnvSensor-v2,456e7653-656e-4736-9f72-2d76322e6b69,rev?*
G04 #@! TF.SameCoordinates,Original*
G04 #@! TF.FileFunction,Legend,Top*
G04 #@! TF.FilePolarity,Positive*
%FSLAX46Y46*%
G04 Gerber Fmt 4.6, Leading zero omitted, Abs format (unit mm)*
G04 Created by KiCad (PCBNEW (5.1.5)-3) date 2021-12-07 19:33:22*
%MOMM*%
%LPD*%
G04 APERTURE LIST*
%ADD10C,0.300000*%
%ADD11C,0.150000*%
%ADD12C,0.120000*%
G04 APERTURE END LIST*
D10*
X122885714Y-124807142D02*
X123552380Y-124807142D01*
X123838095Y-125854761D02*
X122885714Y-125854761D01*
X122885714Y-123854761D01*
X123838095Y-123854761D01*
X124695238Y-124521428D02*
X124695238Y-125854761D01*
X124695238Y-124711904D02*
X124790476Y-124616666D01*
X124980952Y-124521428D01*
X125266666Y-124521428D01*
X125457142Y-124616666D01*
X125552380Y-124807142D01*
X125552380Y-125854761D01*
X126314285Y-124521428D02*
X126790476Y-125854761D01*
X127266666Y-124521428D01*
X128028571Y-125854761D02*
X128028571Y-124521428D01*
X128028571Y-123854761D02*
X127933333Y-123950000D01*
X128028571Y-124045238D01*
X128123809Y-123950000D01*
X128028571Y-123854761D01*
X128028571Y-124045238D01*
X128980952Y-125854761D02*
X128980952Y-124521428D01*
X128980952Y-124902380D02*
X129076190Y-124711904D01*
X129171428Y-124616666D01*
X129361904Y-124521428D01*
X129552380Y-124521428D01*
X130504761Y-125854761D02*
X130314285Y-125759523D01*
X130219047Y-125664285D01*
X130123809Y-125473809D01*
X130123809Y-124902380D01*
X130219047Y-124711904D01*
X130314285Y-124616666D01*
X130504761Y-124521428D01*
X130790476Y-124521428D01*
X130980952Y-124616666D01*
X131076190Y-124711904D01*
X131171428Y-124902380D01*
X131171428Y-125473809D01*
X131076190Y-125664285D01*
X130980952Y-125759523D01*
X130790476Y-125854761D01*
X130504761Y-125854761D01*
X132028571Y-124521428D02*
X132028571Y-125854761D01*
X132028571Y-124711904D02*
X132123809Y-124616666D01*
X132314285Y-124521428D01*
X132600000Y-124521428D01*
X132790476Y-124616666D01*
X132885714Y-124807142D01*
X132885714Y-125854761D01*
X133838095Y-125854761D02*
X133838095Y-124521428D01*
X133838095Y-124711904D02*
X133933333Y-124616666D01*
X134123809Y-124521428D01*
X134409523Y-124521428D01*
X134600000Y-124616666D01*
X134695238Y-124807142D01*
X134695238Y-125854761D01*
X134695238Y-124807142D02*
X134790476Y-124616666D01*
X134980952Y-124521428D01*
X135266666Y-124521428D01*
X135457142Y-124616666D01*
X135552380Y-124807142D01*
X135552380Y-125854761D01*
X137266666Y-125759523D02*
X137076190Y-125854761D01*
X136695238Y-125854761D01*
X136504761Y-125759523D01*
X136409523Y-125569047D01*
X136409523Y-124807142D01*
X136504761Y-124616666D01*
X136695238Y-124521428D01*
X137076190Y-124521428D01*
X137266666Y-124616666D01*
X137361904Y-124807142D01*
X137361904Y-124997619D01*
X136409523Y-125188095D01*
X138219047Y-124521428D02*
X138219047Y-125854761D01*
X138219047Y-124711904D02*
X138314285Y-124616666D01*
X138504761Y-124521428D01*
X138790476Y-124521428D01*
X138980952Y-124616666D01*
X139076190Y-124807142D01*
X139076190Y-125854761D01*
X139742857Y-124521428D02*
X140504761Y-124521428D01*
X140028571Y-123854761D02*
X140028571Y-125569047D01*
X140123809Y-125759523D01*
X140314285Y-125854761D01*
X140504761Y-125854761D01*
X142028571Y-125854761D02*
X142028571Y-124807142D01*
X141933333Y-124616666D01*
X141742857Y-124521428D01*
X141361904Y-124521428D01*
X141171428Y-124616666D01*
X142028571Y-125759523D02*
X141838095Y-125854761D01*
X141361904Y-125854761D01*
X141171428Y-125759523D01*
X141076190Y-125569047D01*
X141076190Y-125378571D01*
X141171428Y-125188095D01*
X141361904Y-125092857D01*
X141838095Y-125092857D01*
X142028571Y-124997619D01*
X143266666Y-125854761D02*
X143076190Y-125759523D01*
X142980952Y-125569047D01*
X142980952Y-123854761D01*
X145457142Y-125759523D02*
X145742857Y-125854761D01*
X146219047Y-125854761D01*
X146409523Y-125759523D01*
X146504761Y-125664285D01*
X146600000Y-125473809D01*
X146600000Y-125283333D01*
X146504761Y-125092857D01*
X146409523Y-124997619D01*
X146219047Y-124902380D01*
X145838095Y-124807142D01*
X145647619Y-124711904D01*
X145552380Y-124616666D01*
X145457142Y-124426190D01*
X145457142Y-124235714D01*
X145552380Y-124045238D01*
X145647619Y-123950000D01*
X145838095Y-123854761D01*
X146314285Y-123854761D01*
X146600000Y-123950000D01*
X148219047Y-125759523D02*
X148028571Y-125854761D01*
X147647619Y-125854761D01*
X147457142Y-125759523D01*
X147361904Y-125569047D01*
X147361904Y-124807142D01*
X147457142Y-124616666D01*
X147647619Y-124521428D01*
X148028571Y-124521428D01*
X148219047Y-124616666D01*
X148314285Y-124807142D01*
X148314285Y-124997619D01*
X147361904Y-125188095D01*
X149171428Y-124521428D02*
X149171428Y-125854761D01*
X149171428Y-124711904D02*
X149266666Y-124616666D01*
X149457142Y-124521428D01*
X149742857Y-124521428D01*
X149933333Y-124616666D01*
X150028571Y-124807142D01*
X150028571Y-125854761D01*
X150885714Y-125759523D02*
X151076190Y-125854761D01*
X151457142Y-125854761D01*
X151647619Y-125759523D01*
X151742857Y-125569047D01*
X151742857Y-125473809D01*
X151647619Y-125283333D01*
X151457142Y-125188095D01*
X151171428Y-125188095D01*
X150980952Y-125092857D01*
X150885714Y-124902380D01*
X150885714Y-124807142D01*
X150980952Y-124616666D01*
X151171428Y-124521428D01*
X151457142Y-124521428D01*
X151647619Y-124616666D01*
X152885714Y-125854761D02*
X152695238Y-125759523D01*
X152600000Y-125664285D01*
X152504761Y-125473809D01*
X152504761Y-124902380D01*
X152600000Y-124711904D01*
X152695238Y-124616666D01*
X152885714Y-124521428D01*
X153171428Y-124521428D01*
X153361904Y-124616666D01*
X153457142Y-124711904D01*
X153552380Y-124902380D01*
X153552380Y-125473809D01*
X153457142Y-125664285D01*
X153361904Y-125759523D01*
X153171428Y-125854761D01*
X152885714Y-125854761D01*
X154409523Y-125854761D02*
X154409523Y-124521428D01*
X154409523Y-124902380D02*
X154504761Y-124711904D01*
X154600000Y-124616666D01*
X154790476Y-124521428D01*
X154980952Y-124521428D01*
X155552380Y-125759523D02*
X155742857Y-125854761D01*
X156123809Y-125854761D01*
X156314285Y-125759523D01*
X156409523Y-125569047D01*
X156409523Y-125473809D01*
X156314285Y-125283333D01*
X156123809Y-125188095D01*
X155838095Y-125188095D01*
X155647619Y-125092857D01*
X155552380Y-124902380D01*
X155552380Y-124807142D01*
X155647619Y-124616666D01*
X155838095Y-124521428D01*
X156123809Y-124521428D01*
X156314285Y-124616666D01*
X125361904Y-127821428D02*
X125838095Y-129154761D01*
X126314285Y-127821428D01*
X126980952Y-127345238D02*
X127076190Y-127250000D01*
X127266666Y-127154761D01*
X127742857Y-127154761D01*
X127933333Y-127250000D01*
X128028571Y-127345238D01*
X128123809Y-127535714D01*
X128123809Y-127726190D01*
X128028571Y-128011904D01*
X126885714Y-129154761D01*
X128123809Y-129154761D01*
X129076190Y-129059523D02*
X129076190Y-129154761D01*
X128980952Y-129345238D01*
X128885714Y-129440476D01*
X132028571Y-127154761D02*
X132028571Y-128583333D01*
X131933333Y-128869047D01*
X131742857Y-129059523D01*
X131457142Y-129154761D01*
X131266666Y-129154761D01*
X132980952Y-129154761D02*
X132980952Y-127154761D01*
X133742857Y-127154761D01*
X133933333Y-127250000D01*
X134028571Y-127345238D01*
X134123809Y-127535714D01*
X134123809Y-127821428D01*
X134028571Y-128011904D01*
X133933333Y-128107142D01*
X133742857Y-128202380D01*
X132980952Y-128202380D01*
X135076190Y-129059523D02*
X135076190Y-129154761D01*
X134980952Y-129345238D01*
X134885714Y-129440476D01*
X137361904Y-127345238D02*
X137457142Y-127250000D01*
X137647619Y-127154761D01*
X138123809Y-127154761D01*
X138314285Y-127250000D01*
X138409523Y-127345238D01*
X138504761Y-127535714D01*
X138504761Y-127726190D01*
X138409523Y-128011904D01*
X137266666Y-129154761D01*
X138504761Y-129154761D01*
X139742857Y-127154761D02*
X139933333Y-127154761D01*
X140123809Y-127250000D01*
X140219047Y-127345238D01*
X140314285Y-127535714D01*
X140409523Y-127916666D01*
X140409523Y-128392857D01*
X140314285Y-128773809D01*
X140219047Y-128964285D01*
X140123809Y-129059523D01*
X139933333Y-129154761D01*
X139742857Y-129154761D01*
X139552380Y-129059523D01*
X139457142Y-128964285D01*
X139361904Y-128773809D01*
X139266666Y-128392857D01*
X139266666Y-127916666D01*
X139361904Y-127535714D01*
X139457142Y-127345238D01*
X139552380Y-127250000D01*
X139742857Y-127154761D01*
X141171428Y-127345238D02*
X141266666Y-127250000D01*
X141457142Y-127154761D01*
X141933333Y-127154761D01*
X142123809Y-127250000D01*
X142219047Y-127345238D01*
X142314285Y-127535714D01*
X142314285Y-127726190D01*
X142219047Y-128011904D01*
X141076190Y-129154761D01*
X142314285Y-129154761D01*
X144219047Y-129154761D02*
X143076190Y-129154761D01*
X143647619Y-129154761D02*
X143647619Y-127154761D01*
X143457142Y-127440476D01*
X143266666Y-127630952D01*
X143076190Y-127726190D01*
X145076190Y-128964285D02*
X145171428Y-129059523D01*
X145076190Y-129154761D01*
X144980952Y-129059523D01*
X145076190Y-128964285D01*
X145076190Y-129154761D01*
X147076190Y-129154761D02*
X145933333Y-129154761D01*
X146504761Y-129154761D02*
X146504761Y-127154761D01*
X146314285Y-127440476D01*
X146123809Y-127630952D01*
X145933333Y-127726190D01*
X147838095Y-127345238D02*
X147933333Y-127250000D01*
X148123809Y-127154761D01*
X148600000Y-127154761D01*
X148790476Y-127250000D01*
X148885714Y-127345238D01*
X148980952Y-127535714D01*
X148980952Y-127726190D01*
X148885714Y-128011904D01*
X147742857Y-129154761D01*
X148980952Y-129154761D01*
X149838095Y-128964285D02*
X149933333Y-129059523D01*
X149838095Y-129154761D01*
X149742857Y-129059523D01*
X149838095Y-128964285D01*
X149838095Y-129154761D01*
X151171428Y-127154761D02*
X151361904Y-127154761D01*
X151552380Y-127250000D01*
X151647619Y-127345238D01*
X151742857Y-127535714D01*
X151838095Y-127916666D01*
X151838095Y-128392857D01*
X151742857Y-128773809D01*
X151647619Y-128964285D01*
X151552380Y-129059523D01*
X151361904Y-129154761D01*
X151171428Y-129154761D01*
X150980952Y-129059523D01*
X150885714Y-128964285D01*
X150790476Y-128773809D01*
X150695238Y-128392857D01*
X150695238Y-127916666D01*
X150790476Y-127535714D01*
X150885714Y-127345238D01*
X150980952Y-127250000D01*
X151171428Y-127154761D01*
X152504761Y-127154761D02*
X153838095Y-127154761D01*
X152980952Y-129154761D01*
D11*
X88919047Y-96204761D02*
X89061904Y-96252380D01*
X89300000Y-96252380D01*
X89395238Y-96204761D01*
X89442857Y-96157142D01*
X89490476Y-96061904D01*
X89490476Y-95966666D01*
X89442857Y-95871428D01*
X89395238Y-95823809D01*
X89300000Y-95776190D01*
X89109523Y-95728571D01*
X89014285Y-95680952D01*
X88966666Y-95633333D01*
X88919047Y-95538095D01*
X88919047Y-95442857D01*
X88966666Y-95347619D01*
X89014285Y-95300000D01*
X89109523Y-95252380D01*
X89347619Y-95252380D01*
X89490476Y-95300000D01*
X89776190Y-95252380D02*
X90347619Y-95252380D01*
X90061904Y-96252380D02*
X90061904Y-95252380D01*
X90680952Y-96252380D02*
X90680952Y-95252380D01*
X91014285Y-95966666D01*
X91347619Y-95252380D01*
X91347619Y-96252380D01*
X91728571Y-95252380D02*
X92347619Y-95252380D01*
X92014285Y-95633333D01*
X92157142Y-95633333D01*
X92252380Y-95680952D01*
X92300000Y-95728571D01*
X92347619Y-95823809D01*
X92347619Y-96061904D01*
X92300000Y-96157142D01*
X92252380Y-96204761D01*
X92157142Y-96252380D01*
X91871428Y-96252380D01*
X91776190Y-96204761D01*
X91728571Y-96157142D01*
X92728571Y-95347619D02*
X92776190Y-95300000D01*
X92871428Y-95252380D01*
X93109523Y-95252380D01*
X93204761Y-95300000D01*
X93252380Y-95347619D01*
X93300000Y-95442857D01*
X93300000Y-95538095D01*
X93252380Y-95680952D01*
X92680952Y-96252380D01*
X93300000Y-96252380D01*
X94204761Y-96252380D02*
X93728571Y-96252380D01*
X93728571Y-95252380D01*
X94966666Y-95585714D02*
X94966666Y-96252380D01*
X94728571Y-95204761D02*
X94490476Y-95919047D01*
X95109523Y-95919047D01*
X95966666Y-95252380D02*
X95490476Y-95252380D01*
X95442857Y-95728571D01*
X95490476Y-95680952D01*
X95585714Y-95633333D01*
X95823809Y-95633333D01*
X95919047Y-95680952D01*
X95966666Y-95728571D01*
X96014285Y-95823809D01*
X96014285Y-96061904D01*
X95966666Y-96157142D01*
X95919047Y-96204761D01*
X95823809Y-96252380D01*
X95585714Y-96252380D01*
X95490476Y-96204761D01*
X95442857Y-96157142D01*
X96966666Y-96252380D02*
X96395238Y-96252380D01*
X96680952Y-96252380D02*
X96680952Y-95252380D01*
X96585714Y-95395238D01*
X96490476Y-95490476D01*
X96395238Y-95538095D01*
X97966666Y-96252380D02*
X97633333Y-95776190D01*
X97395238Y-96252380D02*
X97395238Y-95252380D01*
X97776190Y-95252380D01*
X97871428Y-95300000D01*
X97919047Y-95347619D01*
X97966666Y-95442857D01*
X97966666Y-95585714D01*
X97919047Y-95680952D01*
X97871428Y-95728571D01*
X97776190Y-95776190D01*
X97395238Y-95776190D01*
X98966666Y-96157142D02*
X98919047Y-96204761D01*
X98776190Y-96252380D01*
X98680952Y-96252380D01*
X98538095Y-96204761D01*
X98442857Y-96109523D01*
X98395238Y-96014285D01*
X98347619Y-95823809D01*
X98347619Y-95680952D01*
X98395238Y-95490476D01*
X98442857Y-95395238D01*
X98538095Y-95300000D01*
X98680952Y-95252380D01*
X98776190Y-95252380D01*
X98919047Y-95300000D01*
X98966666Y-95347619D01*
X99252380Y-95252380D02*
X99823809Y-95252380D01*
X99538095Y-96252380D02*
X99538095Y-95252380D01*
X100585714Y-95252380D02*
X100395238Y-95252380D01*
X100300000Y-95300000D01*
X100252380Y-95347619D01*
X100157142Y-95490476D01*
X100109523Y-95680952D01*
X100109523Y-96061904D01*
X100157142Y-96157142D01*
X100204761Y-96204761D01*
X100300000Y-96252380D01*
X100490476Y-96252380D01*
X100585714Y-96204761D01*
X100633333Y-96157142D01*
X100680952Y-96061904D01*
X100680952Y-95823809D01*
X100633333Y-95728571D01*
X100585714Y-95680952D01*
X100490476Y-95633333D01*
X100300000Y-95633333D01*
X100204761Y-95680952D01*
X100157142Y-95728571D01*
X100109523Y-95823809D01*
D12*
X168500000Y-76700000D02*
X168500000Y-60500000D01*
X144280000Y-76700000D02*
X168500000Y-76700000D01*
X144280000Y-60500000D02*
X168500000Y-60500000D01*
X144280000Y-60500000D02*
X144280000Y-76700000D01*
D11*
X59200000Y-52200000D02*
X59200000Y-130900000D01*
X162400000Y-52200000D02*
X59200000Y-52200000D01*
X162400000Y-130900000D02*
X162400000Y-52200000D01*
X59200000Y-130900000D02*
X162400000Y-130900000D01*
D12*
X67885000Y-75475000D02*
X67885000Y-77395000D01*
X67885000Y-77395000D02*
X53875000Y-77395000D01*
X67885000Y-63875000D02*
X67885000Y-63425000D01*
X67885000Y-63425000D02*
X64275000Y-63425000D01*
X51615000Y-75715000D02*
X51615000Y-73405000D01*
X51615000Y-64455000D02*
X51615000Y-66315000D01*
X51615000Y-64455000D02*
X51815000Y-64255000D01*
X62575000Y-63425000D02*
X57875000Y-63425000D01*
X56575000Y-63425000D02*
X54775000Y-63425000D01*
X51965000Y-66525000D02*
X51965000Y-72895000D01*
X51965000Y-66525000D02*
X51815000Y-66525000D01*
X51615000Y-66315000D02*
X51815000Y-66525000D01*
X51615000Y-75715000D02*
X51815000Y-75915000D01*
X51815000Y-75915000D02*
X51815000Y-76175000D01*
X51615000Y-73405000D02*
X51965000Y-72895000D01*
X70490000Y-131720000D02*
X70490000Y-134150000D01*
X73560000Y-133480000D02*
X73560000Y-131720000D01*
X79710000Y-71680000D02*
X79710000Y-69250000D01*
X76640000Y-69920000D02*
X76640000Y-71680000D01*
X114420000Y-87160000D02*
X114420000Y-85700000D01*
X117580000Y-87160000D02*
X117580000Y-85000000D01*
X117580000Y-87160000D02*
X116650000Y-87160000D01*
X114420000Y-87160000D02*
X115350000Y-87160000D01*
X63762779Y-117890000D02*
X63437221Y-117890000D01*
X63762779Y-118910000D02*
X63437221Y-118910000D01*
X103110000Y-109058578D02*
X103110000Y-108541422D01*
X101690000Y-109058578D02*
X101690000Y-108541422D01*
X105500000Y-121350000D02*
X108650000Y-121350000D01*
X105500000Y-123050000D02*
X108650000Y-123050000D01*
X105500000Y-121350000D02*
X105500000Y-123050000D01*
X108141422Y-110710000D02*
X108658578Y-110710000D01*
X108141422Y-109290000D02*
X108658578Y-109290000D01*
X112041422Y-86210000D02*
X112558578Y-86210000D01*
X112041422Y-84790000D02*
X112558578Y-84790000D01*
X73110000Y-64858578D02*
X73110000Y-64341422D01*
X71690000Y-64858578D02*
X71690000Y-64341422D01*
X123502064Y-112790000D02*
X122297936Y-112790000D01*
X123502064Y-114610000D02*
X122297936Y-114610000D01*
X102300000Y-121400000D02*
X103700000Y-121400000D01*
X104400000Y-122100000D02*
X104400000Y-122700000D01*
X103700000Y-123400000D02*
X102300000Y-123400000D01*
X101600000Y-122700000D02*
X101600000Y-122100000D01*
X101600000Y-122100000D02*
G75*
G02X102300000Y-121400000I700000J0D01*
G01*
X102300000Y-123400000D02*
G75*
G02X101600000Y-122700000I0J700000D01*
G01*
X104400000Y-122700000D02*
G75*
G02X103700000Y-123400000I-700000J0D01*
G01*
X103700000Y-121400000D02*
G75*
G02X104400000Y-122100000I0J-700000D01*
G01*
X103960000Y-80990000D02*
X103960000Y-79650000D01*
X104910000Y-80990000D02*
X103960000Y-80990000D01*
X104910000Y-81940000D02*
X104910000Y-80990000D01*
X104910000Y-91210000D02*
X103960000Y-91210000D01*
X104910000Y-90260000D02*
X104910000Y-91210000D01*
X94690000Y-80990000D02*
X95640000Y-80990000D01*
X94690000Y-81940000D02*
X94690000Y-80990000D01*
X94690000Y-91210000D02*
X95640000Y-91210000D01*
X94690000Y-90260000D02*
X94690000Y-91210000D01*
X83237221Y-140310000D02*
X83562779Y-140310000D01*
X83237221Y-139290000D02*
X83562779Y-139290000D01*
X92710000Y-90062779D02*
X92710000Y-89737221D01*
X91690000Y-90062779D02*
X91690000Y-89737221D01*
X85690000Y-116997936D02*
X85690000Y-118202064D01*
X87510000Y-116997936D02*
X87510000Y-118202064D01*
X122510000Y-94258578D02*
X122510000Y-93741422D01*
X121090000Y-94258578D02*
X121090000Y-93741422D01*
X124510000Y-94258578D02*
X124510000Y-93741422D01*
X123090000Y-94258578D02*
X123090000Y-93741422D01*
X101050000Y-126250000D02*
X101050000Y-123250000D01*
X101050000Y-123250000D02*
X104050000Y-123250000D01*
X101430000Y-123630000D02*
X111770000Y-123630000D01*
X111770000Y-123630000D02*
X111770000Y-126950000D01*
X111770000Y-130650000D02*
X111770000Y-133970000D01*
X101430000Y-133970000D02*
X111770000Y-133970000D01*
X101430000Y-123630000D02*
X101430000Y-126950000D01*
X101430000Y-130650000D02*
X101430000Y-133970000D01*
X102741422Y-118510000D02*
X103258578Y-118510000D01*
X102741422Y-117090000D02*
X103258578Y-117090000D01*
X105900000Y-78950000D02*
X107700000Y-78950000D01*
X107750000Y-77550000D02*
X107750000Y-76450000D01*
X105850000Y-77550000D02*
X105850000Y-76450000D01*
X103950000Y-69200000D02*
X103550000Y-69200000D01*
X103550000Y-69200000D02*
X103550000Y-70000000D01*
X98150000Y-70000000D02*
X98150000Y-69200000D01*
X101750000Y-71400000D02*
X99950000Y-71400000D01*
X99950000Y-67800000D02*
X101750000Y-67800000D01*
X101750000Y-67800000D02*
X101750000Y-67560000D01*
X127000000Y-121910000D02*
X120990000Y-121910000D01*
X124750000Y-115090000D02*
X120990000Y-115090000D01*
X120990000Y-121910000D02*
X120990000Y-120650000D01*
X120990000Y-115090000D02*
X120990000Y-116350000D01*
X78990000Y-114500000D02*
X78990000Y-108490000D01*
X85810000Y-112250000D02*
X85810000Y-108490000D01*
X78990000Y-108490000D02*
X80250000Y-108490000D01*
X85810000Y-108490000D02*
X84550000Y-108490000D01*
D11*
X105350000Y-119475000D02*
X105350000Y-120700000D01*
X108475000Y-119475000D02*
X108475000Y-116125000D01*
X105125000Y-119475000D02*
X105125000Y-116125000D01*
X108475000Y-119475000D02*
X108175000Y-119475000D01*
X108475000Y-116125000D02*
X108175000Y-116125000D01*
X105125000Y-116125000D02*
X105425000Y-116125000D01*
X105125000Y-119475000D02*
X105350000Y-119475000D01*
D12*
X83700000Y-123610000D02*
X86150000Y-123610000D01*
X85500000Y-120390000D02*
X83700000Y-120390000D01*
X66200000Y-113990000D02*
X63275000Y-113990000D01*
X66200000Y-113990000D02*
X67700000Y-113990000D01*
X66200000Y-117210000D02*
X64700000Y-117210000D01*
X66200000Y-117210000D02*
X67700000Y-117210000D01*
X69100000Y-130790000D02*
X66650000Y-130790000D01*
X67300000Y-134010000D02*
X69100000Y-134010000D01*
X112250000Y-115000000D02*
G75*
G03X112250000Y-115000000I-950000J0D01*
G01*
X91450000Y-113800000D02*
G75*
G03X91450000Y-113800000I-950000J0D01*
G01*
X114750000Y-128800000D02*
G75*
G03X114750000Y-128800000I-950000J0D01*
G01*
X101150000Y-128800000D02*
G75*
G03X101150000Y-128800000I-950000J0D01*
G01*
X91550000Y-124200000D02*
G75*
G03X91550000Y-124200000I-950000J0D01*
G01*
X109050000Y-107800000D02*
G75*
G03X109050000Y-107800000I-950000J0D01*
G01*
X78650000Y-129900000D02*
G75*
G03X78650000Y-129900000I-950000J0D01*
G01*
X118770000Y-144230000D02*
X125230000Y-144230000D01*
X118770000Y-139700000D02*
X118770000Y-142300000D01*
X118770000Y-137770000D02*
X125230000Y-137770000D01*
X125230000Y-139700000D02*
X125230000Y-142300000D01*
X118770000Y-137800000D02*
X118770000Y-137770000D01*
X118770000Y-144230000D02*
X118770000Y-144200000D01*
X125230000Y-144230000D02*
X125230000Y-144200000D01*
X125230000Y-137770000D02*
X125230000Y-137800000D01*
X102770000Y-144230000D02*
X109230000Y-144230000D01*
X102770000Y-139700000D02*
X102770000Y-142300000D01*
X102770000Y-137770000D02*
X109230000Y-137770000D01*
X109230000Y-139700000D02*
X109230000Y-142300000D01*
X102770000Y-137800000D02*
X102770000Y-137770000D01*
X102770000Y-144230000D02*
X102770000Y-144200000D01*
X109230000Y-144230000D02*
X109230000Y-144200000D01*
X109230000Y-137770000D02*
X109230000Y-137800000D01*
X86770000Y-144230000D02*
X93230000Y-144230000D01*
X86770000Y-139700000D02*
X86770000Y-142300000D01*
X86770000Y-137770000D02*
X93230000Y-137770000D01*
X93230000Y-139700000D02*
X93230000Y-142300000D01*
X86770000Y-137800000D02*
X86770000Y-137770000D01*
X86770000Y-144230000D02*
X86770000Y-144200000D01*
X93230000Y-144230000D02*
X93230000Y-144200000D01*
X93230000Y-137770000D02*
X93230000Y-137800000D01*
X56420000Y-92820000D02*
X56720000Y-92820000D01*
X56720000Y-91930000D02*
X56370000Y-91930000D01*
X56720000Y-91930000D02*
X56720000Y-92820000D01*
X54170000Y-91440000D02*
X54170000Y-86460000D01*
X49930000Y-92820000D02*
X53780000Y-92820000D01*
X49930000Y-85080000D02*
X49930000Y-92820000D01*
X53780000Y-85080000D02*
X49930000Y-85080000D01*
X56420000Y-85080000D02*
X56720000Y-85080000D01*
X56720000Y-85080000D02*
X56720000Y-85970000D01*
X56720000Y-85970000D02*
X56370000Y-85970000D01*
X70770000Y-144230000D02*
X77230000Y-144230000D01*
X70770000Y-139700000D02*
X70770000Y-142300000D01*
X70770000Y-137770000D02*
X77230000Y-137770000D01*
X77230000Y-139700000D02*
X77230000Y-142300000D01*
X70770000Y-137800000D02*
X70770000Y-137770000D01*
X70770000Y-144230000D02*
X70770000Y-144200000D01*
X77230000Y-144230000D02*
X77230000Y-144200000D01*
X77230000Y-137770000D02*
X77230000Y-137800000D01*
X104810000Y-109258578D02*
X104810000Y-108741422D01*
X103390000Y-109258578D02*
X103390000Y-108741422D01*
X92158578Y-121290000D02*
X91641422Y-121290000D01*
X92158578Y-122710000D02*
X91641422Y-122710000D01*
X105258578Y-110890000D02*
X104741422Y-110890000D01*
X105258578Y-112310000D02*
X104741422Y-112310000D01*
X105290000Y-108741422D02*
X105290000Y-109258578D01*
X106710000Y-108741422D02*
X106710000Y-109258578D01*
X104741422Y-114310000D02*
X105258578Y-114310000D01*
X104741422Y-112890000D02*
X105258578Y-112890000D01*
X91641422Y-120910000D02*
X92158578Y-120910000D01*
X91641422Y-119490000D02*
X92158578Y-119490000D01*
X89641422Y-116710000D02*
X90158578Y-116710000D01*
X89641422Y-115290000D02*
X90158578Y-115290000D01*
X103110000Y-112058578D02*
X103110000Y-111541422D01*
X101690000Y-112058578D02*
X101690000Y-111541422D01*
X79090000Y-121341422D02*
X79090000Y-121858578D01*
X80510000Y-121341422D02*
X80510000Y-121858578D01*
X55910000Y-135858578D02*
X55910000Y-135341422D01*
X54490000Y-135858578D02*
X54490000Y-135341422D01*
X59890000Y-111997936D02*
X59890000Y-113202064D01*
X61710000Y-111997936D02*
X61710000Y-113202064D01*
X67141422Y-130310000D02*
X67658578Y-130310000D01*
X67141422Y-128890000D02*
X67658578Y-128890000D01*
X67658578Y-126890000D02*
X67141422Y-126890000D01*
X67658578Y-128310000D02*
X67141422Y-128310000D01*
X70890000Y-75341422D02*
X70890000Y-75858578D01*
X72310000Y-75341422D02*
X72310000Y-75858578D01*
X72690000Y-75341422D02*
X72690000Y-75858578D01*
X74110000Y-75341422D02*
X74110000Y-75858578D01*
X78458578Y-68110000D02*
X77941422Y-68110000D01*
X78458578Y-66690000D02*
X77941422Y-66690000D01*
X74490000Y-75341422D02*
X74490000Y-75858578D01*
X75910000Y-75341422D02*
X75910000Y-75858578D01*
X74910000Y-64858578D02*
X74910000Y-64341422D01*
X73490000Y-64858578D02*
X73490000Y-64341422D01*
X112041422Y-88110000D02*
X112558578Y-88110000D01*
X112041422Y-86690000D02*
X112558578Y-86690000D01*
X112558578Y-82890000D02*
X112041422Y-82890000D01*
X112558578Y-84310000D02*
X112041422Y-84310000D01*
X116258578Y-82890000D02*
X115741422Y-82890000D01*
X116258578Y-84310000D02*
X115741422Y-84310000D01*
X115337221Y-140590000D02*
X115662779Y-140590000D01*
X115337221Y-141610000D02*
X115662779Y-141610000D01*
X115337221Y-143010000D02*
X115662779Y-143010000D01*
X115337221Y-141990000D02*
X115662779Y-141990000D01*
X154490000Y-134441422D02*
X154490000Y-134958578D01*
X155910000Y-134441422D02*
X155910000Y-134958578D01*
X112562779Y-140590000D02*
X112237221Y-140590000D01*
X112562779Y-141610000D02*
X112237221Y-141610000D01*
X112562779Y-141990000D02*
X112237221Y-141990000D01*
X112562779Y-143010000D02*
X112237221Y-143010000D01*
X154490000Y-144441422D02*
X154490000Y-144958578D01*
X155910000Y-144441422D02*
X155910000Y-144958578D01*
X83237221Y-141710000D02*
X83562779Y-141710000D01*
X83237221Y-140690000D02*
X83562779Y-140690000D01*
X83237221Y-143110000D02*
X83562779Y-143110000D01*
X83237221Y-142090000D02*
X83562779Y-142090000D01*
X144490000Y-134441422D02*
X144490000Y-134958578D01*
X145910000Y-134441422D02*
X145910000Y-134958578D01*
X100710000Y-75458578D02*
X100710000Y-74941422D01*
X99290000Y-75458578D02*
X99290000Y-74941422D01*
X144490000Y-144441422D02*
X144490000Y-144958578D01*
X145910000Y-144441422D02*
X145910000Y-144958578D01*
X80562779Y-140690000D02*
X80237221Y-140690000D01*
X80562779Y-141710000D02*
X80237221Y-141710000D01*
X80562779Y-142090000D02*
X80237221Y-142090000D01*
X80562779Y-143110000D02*
X80237221Y-143110000D01*
X65130000Y-112980000D02*
X64030000Y-112980000D01*
X65130000Y-113250000D02*
X65130000Y-112980000D01*
X66630000Y-113250000D02*
X65130000Y-113250000D01*
X65130000Y-106620000D02*
X62300000Y-106620000D01*
X65130000Y-106350000D02*
X65130000Y-106620000D01*
X66630000Y-106350000D02*
X65130000Y-106350000D01*
X82400000Y-126233333D02*
X82400000Y-123900000D01*
X82400000Y-123900000D02*
X84733333Y-123900000D01*
X82780000Y-124280000D02*
X90020000Y-124280000D01*
X90020000Y-124280000D02*
X90020000Y-126550000D01*
X90020000Y-129250000D02*
X90020000Y-131520000D01*
X82780000Y-131520000D02*
X90020000Y-131520000D01*
X82780000Y-124280000D02*
X82780000Y-126550000D01*
X82780000Y-129250000D02*
X82780000Y-131520000D01*
X94490000Y-73541422D02*
X94490000Y-74058578D01*
X95910000Y-73541422D02*
X95910000Y-74058578D01*
X92200000Y-110100000D02*
X92200000Y-108700000D01*
X92900000Y-108000000D02*
X93500000Y-108000000D01*
X94200000Y-108700000D02*
X94200000Y-110100000D01*
X93500000Y-110800000D02*
X92900000Y-110800000D01*
X92900000Y-110800000D02*
G75*
G02X92200000Y-110100000I0J700000D01*
G01*
X94200000Y-110100000D02*
G75*
G02X93500000Y-110800000I-700000J0D01*
G01*
X93500000Y-108000000D02*
G75*
G02X94200000Y-108700000I0J-700000D01*
G01*
X92200000Y-108700000D02*
G75*
G02X92900000Y-108000000I700000J0D01*
G01*
X115600000Y-106100000D02*
X115600000Y-104700000D01*
X116300000Y-104000000D02*
X116900000Y-104000000D01*
X117600000Y-104700000D02*
X117600000Y-106100000D01*
X116900000Y-106800000D02*
X116300000Y-106800000D01*
X116300000Y-106800000D02*
G75*
G02X115600000Y-106100000I0J700000D01*
G01*
X117600000Y-106100000D02*
G75*
G02X116900000Y-106800000I-700000J0D01*
G01*
X116900000Y-104000000D02*
G75*
G02X117600000Y-104700000I0J-700000D01*
G01*
X115600000Y-104700000D02*
G75*
G02X116300000Y-104000000I700000J0D01*
G01*
X103700000Y-121200000D02*
X102300000Y-121200000D01*
X101600000Y-120500000D02*
X101600000Y-119900000D01*
X102300000Y-119200000D02*
X103700000Y-119200000D01*
X104400000Y-119900000D02*
X104400000Y-120500000D01*
X104400000Y-120500000D02*
G75*
G02X103700000Y-121200000I-700000J0D01*
G01*
X103700000Y-119200000D02*
G75*
G02X104400000Y-119900000I0J-700000D01*
G01*
X101600000Y-119900000D02*
G75*
G02X102300000Y-119200000I700000J0D01*
G01*
X102300000Y-121200000D02*
G75*
G02X101600000Y-120500000I0J700000D01*
G01*
X134600000Y-104500000D02*
X134600000Y-103100000D01*
X135300000Y-102400000D02*
X135900000Y-102400000D01*
X136600000Y-103100000D02*
X136600000Y-104500000D01*
X135900000Y-105200000D02*
X135300000Y-105200000D01*
X135300000Y-105200000D02*
G75*
G02X134600000Y-104500000I0J700000D01*
G01*
X136600000Y-104500000D02*
G75*
G02X135900000Y-105200000I-700000J0D01*
G01*
X135900000Y-102400000D02*
G75*
G02X136600000Y-103100000I0J-700000D01*
G01*
X134600000Y-103100000D02*
G75*
G02X135300000Y-102400000I700000J0D01*
G01*
X87000000Y-73900000D02*
X87000000Y-72500000D01*
X87700000Y-71800000D02*
X88300000Y-71800000D01*
X89000000Y-72500000D02*
X89000000Y-73900000D01*
X88300000Y-74600000D02*
X87700000Y-74600000D01*
X87700000Y-74600000D02*
G75*
G02X87000000Y-73900000I0J700000D01*
G01*
X89000000Y-73900000D02*
G75*
G02X88300000Y-74600000I-700000J0D01*
G01*
X88300000Y-71800000D02*
G75*
G02X89000000Y-72500000I0J-700000D01*
G01*
X87000000Y-72500000D02*
G75*
G02X87700000Y-71800000I700000J0D01*
G01*
X137900000Y-78000000D02*
X137900000Y-76600000D01*
X138600000Y-75900000D02*
X139200000Y-75900000D01*
X139900000Y-76600000D02*
X139900000Y-78000000D01*
X139200000Y-78700000D02*
X138600000Y-78700000D01*
X138600000Y-78700000D02*
G75*
G02X137900000Y-78000000I0J700000D01*
G01*
X139900000Y-78000000D02*
G75*
G02X139200000Y-78700000I-700000J0D01*
G01*
X139200000Y-75900000D02*
G75*
G02X139900000Y-76600000I0J-700000D01*
G01*
X137900000Y-76600000D02*
G75*
G02X138600000Y-75900000I700000J0D01*
G01*
X91930000Y-111930000D02*
X90600000Y-111930000D01*
X91930000Y-110600000D02*
X91930000Y-111930000D01*
X91930000Y-109330000D02*
X89270000Y-109330000D01*
X89270000Y-109330000D02*
X89270000Y-106730000D01*
X91930000Y-109330000D02*
X91930000Y-106730000D01*
X91930000Y-106730000D02*
X89270000Y-106730000D01*
X115430000Y-107930000D02*
X114100000Y-107930000D01*
X115430000Y-106600000D02*
X115430000Y-107930000D01*
X115430000Y-105330000D02*
X112770000Y-105330000D01*
X112770000Y-105330000D02*
X112770000Y-102730000D01*
X115430000Y-105330000D02*
X115430000Y-102730000D01*
X115430000Y-102730000D02*
X112770000Y-102730000D01*
X139530000Y-106130000D02*
X138200000Y-106130000D01*
X139530000Y-104800000D02*
X139530000Y-106130000D01*
X139530000Y-103530000D02*
X136870000Y-103530000D01*
X136870000Y-103530000D02*
X136870000Y-100930000D01*
X139530000Y-103530000D02*
X139530000Y-100930000D01*
X139530000Y-100930000D02*
X136870000Y-100930000D01*
X91930000Y-76330000D02*
X90600000Y-76330000D01*
X91930000Y-75000000D02*
X91930000Y-76330000D01*
X91930000Y-73730000D02*
X89270000Y-73730000D01*
X89270000Y-73730000D02*
X89270000Y-71130000D01*
X91930000Y-73730000D02*
X91930000Y-71130000D01*
X91930000Y-71130000D02*
X89270000Y-71130000D01*
X142930000Y-79830000D02*
X141600000Y-79830000D01*
X142930000Y-78500000D02*
X142930000Y-79830000D01*
X142930000Y-77230000D02*
X140270000Y-77230000D01*
X140270000Y-77230000D02*
X140270000Y-74630000D01*
X142930000Y-77230000D02*
X142930000Y-74630000D01*
X142930000Y-74630000D02*
X140270000Y-74630000D01*
X111300000Y-115750000D02*
X111300000Y-119650000D01*
X109300000Y-115750000D02*
X109300000Y-119650000D01*
X111300000Y-115750000D02*
X109300000Y-115750000D01*
X89900000Y-119250000D02*
X89900000Y-123150000D01*
X87900000Y-119250000D02*
X87900000Y-123150000D01*
X89900000Y-119250000D02*
X87900000Y-119250000D01*
X52160000Y-137285000D02*
X52160000Y-134600000D01*
X50240000Y-137285000D02*
X52160000Y-137285000D01*
X50240000Y-134600000D02*
X50240000Y-137285000D01*
X61800000Y-116950000D02*
X61800000Y-120850000D01*
X59800000Y-116950000D02*
X59800000Y-120850000D01*
X61800000Y-116950000D02*
X59800000Y-116950000D01*
X51960000Y-130085000D02*
X51960000Y-127400000D01*
X50040000Y-130085000D02*
X51960000Y-130085000D01*
X50040000Y-127400000D02*
X50040000Y-130085000D01*
X153290000Y-133620000D02*
X153290000Y-133464000D01*
X153290000Y-135936000D02*
X153290000Y-135780000D01*
X150688870Y-133620163D02*
G75*
G02X152770961Y-133620000I1041130J-1079837D01*
G01*
X150688870Y-135779837D02*
G75*
G03X152770961Y-135780000I1041130J1079837D01*
G01*
X150057665Y-133621392D02*
G75*
G02X153290000Y-133464484I1672335J-1078608D01*
G01*
X150057665Y-135778608D02*
G75*
G03X153290000Y-135935516I1672335J1078608D01*
G01*
X153285000Y-131540000D02*
X150600000Y-131540000D01*
X153285000Y-133460000D02*
X153285000Y-131540000D01*
X150600000Y-133460000D02*
X153285000Y-133460000D01*
X153290000Y-143620000D02*
X153290000Y-143464000D01*
X153290000Y-145936000D02*
X153290000Y-145780000D01*
X150688870Y-143620163D02*
G75*
G02X152770961Y-143620000I1041130J-1079837D01*
G01*
X150688870Y-145779837D02*
G75*
G03X152770961Y-145780000I1041130J1079837D01*
G01*
X150057665Y-143621392D02*
G75*
G02X153290000Y-143464484I1672335J-1078608D01*
G01*
X150057665Y-145778608D02*
G75*
G03X153290000Y-145935516I1672335J1078608D01*
G01*
X153285000Y-141540000D02*
X150600000Y-141540000D01*
X153285000Y-143460000D02*
X153285000Y-141540000D01*
X150600000Y-143460000D02*
X153285000Y-143460000D01*
X143290000Y-133620000D02*
X143290000Y-133464000D01*
X143290000Y-135936000D02*
X143290000Y-135780000D01*
X140688870Y-133620163D02*
G75*
G02X142770961Y-133620000I1041130J-1079837D01*
G01*
X140688870Y-135779837D02*
G75*
G03X142770961Y-135780000I1041130J1079837D01*
G01*
X140057665Y-133621392D02*
G75*
G02X143290000Y-133464484I1672335J-1078608D01*
G01*
X140057665Y-135778608D02*
G75*
G03X143290000Y-135935516I1672335J1078608D01*
G01*
X143285000Y-131540000D02*
X140600000Y-131540000D01*
X143285000Y-133460000D02*
X143285000Y-131540000D01*
X140600000Y-133460000D02*
X143285000Y-133460000D01*
X143290000Y-143620000D02*
X143290000Y-143464000D01*
X143290000Y-145936000D02*
X143290000Y-145780000D01*
X140688870Y-143620163D02*
G75*
G02X142770961Y-143620000I1041130J-1079837D01*
G01*
X140688870Y-145779837D02*
G75*
G03X142770961Y-145780000I1041130J1079837D01*
G01*
X140057665Y-143621392D02*
G75*
G02X143290000Y-143464484I1672335J-1078608D01*
G01*
X140057665Y-145778608D02*
G75*
G03X143290000Y-145935516I1672335J1078608D01*
G01*
X143285000Y-141540000D02*
X140600000Y-141540000D01*
X143285000Y-143460000D02*
X143285000Y-141540000D01*
X140600000Y-143460000D02*
X143285000Y-143460000D01*
X71310000Y-117058578D02*
X71310000Y-116541422D01*
X69890000Y-117058578D02*
X69890000Y-116541422D01*
X88310000Y-111102064D02*
X88310000Y-109897936D01*
X86490000Y-111102064D02*
X86490000Y-109897936D01*
X113497936Y-113610000D02*
X114702064Y-113610000D01*
X113497936Y-111790000D02*
X114702064Y-111790000D01*
X113497936Y-115810000D02*
X114702064Y-115810000D01*
X113497936Y-113990000D02*
X114702064Y-113990000D01*
X113497936Y-118010000D02*
X114702064Y-118010000D01*
X113497936Y-116190000D02*
X114702064Y-116190000D01*
X113497936Y-120210000D02*
X114702064Y-120210000D01*
X113497936Y-118390000D02*
X114702064Y-118390000D01*
X81290000Y-116997936D02*
X81290000Y-118202064D01*
X83110000Y-116997936D02*
X83110000Y-118202064D01*
X79090000Y-116997936D02*
X79090000Y-118202064D01*
X80910000Y-116997936D02*
X80910000Y-118202064D01*
X83490000Y-116997936D02*
X83490000Y-118202064D01*
X85310000Y-116997936D02*
X85310000Y-118202064D01*
X102741422Y-116510000D02*
X103258578Y-116510000D01*
X102741422Y-115090000D02*
X103258578Y-115090000D01*
X89641422Y-118510000D02*
X90158578Y-118510000D01*
X89641422Y-117090000D02*
X90158578Y-117090000D01*
X108141422Y-114310000D02*
X108658578Y-114310000D01*
X108141422Y-112890000D02*
X108658578Y-112890000D01*
X108141422Y-112510000D02*
X108658578Y-112510000D01*
X108141422Y-111090000D02*
X108658578Y-111090000D01*
X80758578Y-127490000D02*
X80241422Y-127490000D01*
X80758578Y-128910000D02*
X80241422Y-128910000D01*
X80758578Y-125490000D02*
X80241422Y-125490000D01*
X80758578Y-126910000D02*
X80241422Y-126910000D01*
X80758578Y-123490000D02*
X80241422Y-123490000D01*
X80758578Y-124910000D02*
X80241422Y-124910000D01*
X71341422Y-114910000D02*
X71858578Y-114910000D01*
X71341422Y-113490000D02*
X71858578Y-113490000D01*
X73310000Y-117058578D02*
X73310000Y-116541422D01*
X71890000Y-117058578D02*
X71890000Y-116541422D01*
X60658578Y-115090000D02*
X60141422Y-115090000D01*
X60658578Y-116510000D02*
X60141422Y-116510000D01*
X64890000Y-132437221D02*
X64890000Y-132762779D01*
X65910000Y-132437221D02*
X65910000Y-132762779D01*
X73110000Y-69058578D02*
X73110000Y-68541422D01*
X71690000Y-69058578D02*
X71690000Y-68541422D01*
X74510000Y-68962779D02*
X74510000Y-68637221D01*
X73490000Y-68962779D02*
X73490000Y-68637221D01*
X115337221Y-139190000D02*
X115662779Y-139190000D01*
X115337221Y-140210000D02*
X115662779Y-140210000D01*
X112562779Y-139190000D02*
X112237221Y-139190000D01*
X112562779Y-140210000D02*
X112237221Y-140210000D01*
X96437221Y-78510000D02*
X96762779Y-78510000D01*
X96437221Y-77490000D02*
X96762779Y-77490000D01*
X96141422Y-77310000D02*
X96658578Y-77310000D01*
X96141422Y-75890000D02*
X96658578Y-75890000D01*
X115915000Y-75725000D02*
X117165000Y-75725000D01*
X116540000Y-76350000D02*
X116540000Y-75100000D01*
X123195563Y-74860000D02*
X124260000Y-73795563D01*
X114804437Y-74860000D02*
X113740000Y-73795563D01*
X114804437Y-74860000D02*
X117790000Y-74860000D01*
X123195563Y-74860000D02*
X120210000Y-74860000D01*
X124260000Y-73795563D02*
X124260000Y-64340000D01*
X113740000Y-73795563D02*
X113740000Y-64340000D01*
X113740000Y-64340000D02*
X117790000Y-64340000D01*
X124260000Y-64340000D02*
X120210000Y-64340000D01*
X103862779Y-93690000D02*
X103537221Y-93690000D01*
X103862779Y-94710000D02*
X103537221Y-94710000D01*
X107290000Y-83037221D02*
X107290000Y-83362779D01*
X108310000Y-83037221D02*
X108310000Y-83362779D01*
X95710000Y-67858578D02*
X95710000Y-67341422D01*
X94290000Y-67858578D02*
X94290000Y-67341422D01*
X92510000Y-82962779D02*
X92510000Y-82637221D01*
X91490000Y-82962779D02*
X91490000Y-82637221D01*
X80562779Y-139290000D02*
X80237221Y-139290000D01*
X80562779Y-140310000D02*
X80237221Y-140310000D01*
X109441422Y-76710000D02*
X109958578Y-76710000D01*
X109441422Y-75290000D02*
X109958578Y-75290000D01*
X109441422Y-78810000D02*
X109958578Y-78810000D01*
X109441422Y-77390000D02*
X109958578Y-77390000D01*
X91110000Y-83058578D02*
X91110000Y-82541422D01*
X89690000Y-83058578D02*
X89690000Y-82541422D01*
X98941422Y-73310000D02*
X99458578Y-73310000D01*
X98941422Y-71890000D02*
X99458578Y-71890000D01*
X102341422Y-73310000D02*
X102858578Y-73310000D01*
X102341422Y-71890000D02*
X102858578Y-71890000D01*
D11*
X141161904Y-60452380D02*
X141161904Y-61261904D01*
X141209523Y-61357142D01*
X141257142Y-61404761D01*
X141352380Y-61452380D01*
X141542857Y-61452380D01*
X141638095Y-61404761D01*
X141685714Y-61357142D01*
X141733333Y-61261904D01*
X141733333Y-60452380D01*
X142733333Y-61452380D02*
X142161904Y-61452380D01*
X142447619Y-61452380D02*
X142447619Y-60452380D01*
X142352380Y-60595238D01*
X142257142Y-60690476D01*
X142161904Y-60738095D01*
X143066666Y-60452380D02*
X143685714Y-60452380D01*
X143352380Y-60833333D01*
X143495238Y-60833333D01*
X143590476Y-60880952D01*
X143638095Y-60928571D01*
X143685714Y-61023809D01*
X143685714Y-61261904D01*
X143638095Y-61357142D01*
X143590476Y-61404761D01*
X143495238Y-61452380D01*
X143209523Y-61452380D01*
X143114285Y-61404761D01*
X143066666Y-61357142D01*
X57438095Y-129652380D02*
X57438095Y-130461904D01*
X57485714Y-130557142D01*
X57533333Y-130604761D01*
X57628571Y-130652380D01*
X57819047Y-130652380D01*
X57914285Y-130604761D01*
X57961904Y-130557142D01*
X58009523Y-130461904D01*
X58009523Y-129652380D01*
X58438095Y-129747619D02*
X58485714Y-129700000D01*
X58580952Y-129652380D01*
X58819047Y-129652380D01*
X58914285Y-129700000D01*
X58961904Y-129747619D01*
X59009523Y-129842857D01*
X59009523Y-129938095D01*
X58961904Y-130080952D01*
X58390476Y-130652380D01*
X59009523Y-130652380D01*
X66866666Y-77852380D02*
X66866666Y-78566666D01*
X66819047Y-78709523D01*
X66723809Y-78804761D01*
X66580952Y-78852380D01*
X66485714Y-78852380D01*
X67819047Y-77852380D02*
X67342857Y-77852380D01*
X67295238Y-78328571D01*
X67342857Y-78280952D01*
X67438095Y-78233333D01*
X67676190Y-78233333D01*
X67771428Y-78280952D01*
X67819047Y-78328571D01*
X67866666Y-78423809D01*
X67866666Y-78661904D01*
X67819047Y-78757142D01*
X67771428Y-78804761D01*
X67676190Y-78852380D01*
X67438095Y-78852380D01*
X67342857Y-78804761D01*
X67295238Y-78757142D01*
X72504761Y-136147619D02*
X72409523Y-136100000D01*
X72314285Y-136004761D01*
X72171428Y-135861904D01*
X72076190Y-135814285D01*
X71980952Y-135814285D01*
X72028571Y-136052380D02*
X71933333Y-136004761D01*
X71838095Y-135909523D01*
X71790476Y-135719047D01*
X71790476Y-135385714D01*
X71838095Y-135195238D01*
X71933333Y-135100000D01*
X72028571Y-135052380D01*
X72219047Y-135052380D01*
X72314285Y-135100000D01*
X72409523Y-135195238D01*
X72457142Y-135385714D01*
X72457142Y-135719047D01*
X72409523Y-135909523D01*
X72314285Y-136004761D01*
X72219047Y-136052380D01*
X72028571Y-136052380D01*
X73314285Y-135385714D02*
X73314285Y-136052380D01*
X73076190Y-135004761D02*
X72838095Y-135719047D01*
X73457142Y-135719047D01*
X80704761Y-71347619D02*
X80609523Y-71300000D01*
X80514285Y-71204761D01*
X80371428Y-71061904D01*
X80276190Y-71014285D01*
X80180952Y-71014285D01*
X80228571Y-71252380D02*
X80133333Y-71204761D01*
X80038095Y-71109523D01*
X79990476Y-70919047D01*
X79990476Y-70585714D01*
X80038095Y-70395238D01*
X80133333Y-70300000D01*
X80228571Y-70252380D01*
X80419047Y-70252380D01*
X80514285Y-70300000D01*
X80609523Y-70395238D01*
X80657142Y-70585714D01*
X80657142Y-70919047D01*
X80609523Y-71109523D01*
X80514285Y-71204761D01*
X80419047Y-71252380D01*
X80228571Y-71252380D01*
X81038095Y-70347619D02*
X81085714Y-70300000D01*
X81180952Y-70252380D01*
X81419047Y-70252380D01*
X81514285Y-70300000D01*
X81561904Y-70347619D01*
X81609523Y-70442857D01*
X81609523Y-70538095D01*
X81561904Y-70680952D01*
X80990476Y-71252380D01*
X81609523Y-71252380D01*
X119047619Y-86495238D02*
X119000000Y-86590476D01*
X118904761Y-86685714D01*
X118761904Y-86828571D01*
X118714285Y-86923809D01*
X118714285Y-87019047D01*
X118952380Y-86971428D02*
X118904761Y-87066666D01*
X118809523Y-87161904D01*
X118619047Y-87209523D01*
X118285714Y-87209523D01*
X118095238Y-87161904D01*
X118000000Y-87066666D01*
X117952380Y-86971428D01*
X117952380Y-86780952D01*
X118000000Y-86685714D01*
X118095238Y-86590476D01*
X118285714Y-86542857D01*
X118619047Y-86542857D01*
X118809523Y-86590476D01*
X118904761Y-86685714D01*
X118952380Y-86780952D01*
X118952380Y-86971428D01*
X118952380Y-85590476D02*
X118952380Y-86161904D01*
X118952380Y-85876190D02*
X117952380Y-85876190D01*
X118095238Y-85971428D01*
X118190476Y-86066666D01*
X118238095Y-86161904D01*
X62957142Y-120282380D02*
X62623809Y-119806190D01*
X62385714Y-120282380D02*
X62385714Y-119282380D01*
X62766666Y-119282380D01*
X62861904Y-119330000D01*
X62909523Y-119377619D01*
X62957142Y-119472857D01*
X62957142Y-119615714D01*
X62909523Y-119710952D01*
X62861904Y-119758571D01*
X62766666Y-119806190D01*
X62385714Y-119806190D01*
X63338095Y-119377619D02*
X63385714Y-119330000D01*
X63480952Y-119282380D01*
X63719047Y-119282380D01*
X63814285Y-119330000D01*
X63861904Y-119377619D01*
X63909523Y-119472857D01*
X63909523Y-119568095D01*
X63861904Y-119710952D01*
X63290476Y-120282380D01*
X63909523Y-120282380D01*
X64480952Y-119710952D02*
X64385714Y-119663333D01*
X64338095Y-119615714D01*
X64290476Y-119520476D01*
X64290476Y-119472857D01*
X64338095Y-119377619D01*
X64385714Y-119330000D01*
X64480952Y-119282380D01*
X64671428Y-119282380D01*
X64766666Y-119330000D01*
X64814285Y-119377619D01*
X64861904Y-119472857D01*
X64861904Y-119520476D01*
X64814285Y-119615714D01*
X64766666Y-119663333D01*
X64671428Y-119710952D01*
X64480952Y-119710952D01*
X64385714Y-119758571D01*
X64338095Y-119806190D01*
X64290476Y-119901428D01*
X64290476Y-120091904D01*
X64338095Y-120187142D01*
X64385714Y-120234761D01*
X64480952Y-120282380D01*
X64671428Y-120282380D01*
X64766666Y-120234761D01*
X64814285Y-120187142D01*
X64861904Y-120091904D01*
X64861904Y-119901428D01*
X64814285Y-119806190D01*
X64766666Y-119758571D01*
X64671428Y-119710952D01*
X98452380Y-108842857D02*
X97976190Y-109176190D01*
X98452380Y-109414285D02*
X97452380Y-109414285D01*
X97452380Y-109033333D01*
X97500000Y-108938095D01*
X97547619Y-108890476D01*
X97642857Y-108842857D01*
X97785714Y-108842857D01*
X97880952Y-108890476D01*
X97928571Y-108938095D01*
X97976190Y-109033333D01*
X97976190Y-109414285D01*
X97785714Y-107985714D02*
X98452380Y-107985714D01*
X97404761Y-108223809D02*
X98119047Y-108461904D01*
X98119047Y-107842857D01*
X97452380Y-107271428D02*
X97452380Y-107176190D01*
X97500000Y-107080952D01*
X97547619Y-107033333D01*
X97642857Y-106985714D01*
X97833333Y-106938095D01*
X98071428Y-106938095D01*
X98261904Y-106985714D01*
X98357142Y-107033333D01*
X98404761Y-107080952D01*
X98452380Y-107176190D01*
X98452380Y-107271428D01*
X98404761Y-107366666D01*
X98357142Y-107414285D01*
X98261904Y-107461904D01*
X98071428Y-107509523D01*
X97833333Y-107509523D01*
X97642857Y-107461904D01*
X97547619Y-107414285D01*
X97500000Y-107366666D01*
X97452380Y-107271428D01*
X106185714Y-120802380D02*
X106185714Y-119802380D01*
X106423809Y-119802380D01*
X106566666Y-119850000D01*
X106661904Y-119945238D01*
X106709523Y-120040476D01*
X106757142Y-120230952D01*
X106757142Y-120373809D01*
X106709523Y-120564285D01*
X106661904Y-120659523D01*
X106566666Y-120754761D01*
X106423809Y-120802380D01*
X106185714Y-120802380D01*
X107709523Y-120802380D02*
X107138095Y-120802380D01*
X107423809Y-120802380D02*
X107423809Y-119802380D01*
X107328571Y-119945238D01*
X107233333Y-120040476D01*
X107138095Y-120088095D01*
X108566666Y-120135714D02*
X108566666Y-120802380D01*
X108328571Y-119754761D02*
X108090476Y-120469047D01*
X108709523Y-120469047D01*
X111157142Y-108757142D02*
X111109523Y-108804761D01*
X110966666Y-108852380D01*
X110871428Y-108852380D01*
X110728571Y-108804761D01*
X110633333Y-108709523D01*
X110585714Y-108614285D01*
X110538095Y-108423809D01*
X110538095Y-108280952D01*
X110585714Y-108090476D01*
X110633333Y-107995238D01*
X110728571Y-107900000D01*
X110871428Y-107852380D01*
X110966666Y-107852380D01*
X111109523Y-107900000D01*
X111157142Y-107947619D01*
X112014285Y-108185714D02*
X112014285Y-108852380D01*
X111776190Y-107804761D02*
X111538095Y-108519047D01*
X112157142Y-108519047D01*
X112966666Y-107852380D02*
X112776190Y-107852380D01*
X112680952Y-107900000D01*
X112633333Y-107947619D01*
X112538095Y-108090476D01*
X112490476Y-108280952D01*
X112490476Y-108661904D01*
X112538095Y-108757142D01*
X112585714Y-108804761D01*
X112680952Y-108852380D01*
X112871428Y-108852380D01*
X112966666Y-108804761D01*
X113014285Y-108757142D01*
X113061904Y-108661904D01*
X113061904Y-108423809D01*
X113014285Y-108328571D01*
X112966666Y-108280952D01*
X112871428Y-108233333D01*
X112680952Y-108233333D01*
X112585714Y-108280952D01*
X112538095Y-108328571D01*
X112490476Y-108423809D01*
X108557142Y-86357142D02*
X108509523Y-86404761D01*
X108366666Y-86452380D01*
X108271428Y-86452380D01*
X108128571Y-86404761D01*
X108033333Y-86309523D01*
X107985714Y-86214285D01*
X107938095Y-86023809D01*
X107938095Y-85880952D01*
X107985714Y-85690476D01*
X108033333Y-85595238D01*
X108128571Y-85500000D01*
X108271428Y-85452380D01*
X108366666Y-85452380D01*
X108509523Y-85500000D01*
X108557142Y-85547619D01*
X109414285Y-85785714D02*
X109414285Y-86452380D01*
X109176190Y-85404761D02*
X108938095Y-86119047D01*
X109557142Y-86119047D01*
X110414285Y-85452380D02*
X109938095Y-85452380D01*
X109890476Y-85928571D01*
X109938095Y-85880952D01*
X110033333Y-85833333D01*
X110271428Y-85833333D01*
X110366666Y-85880952D01*
X110414285Y-85928571D01*
X110461904Y-86023809D01*
X110461904Y-86261904D01*
X110414285Y-86357142D01*
X110366666Y-86404761D01*
X110271428Y-86452380D01*
X110033333Y-86452380D01*
X109938095Y-86404761D01*
X109890476Y-86357142D01*
X69557142Y-63652380D02*
X69223809Y-63176190D01*
X68985714Y-63652380D02*
X68985714Y-62652380D01*
X69366666Y-62652380D01*
X69461904Y-62700000D01*
X69509523Y-62747619D01*
X69557142Y-62842857D01*
X69557142Y-62985714D01*
X69509523Y-63080952D01*
X69461904Y-63128571D01*
X69366666Y-63176190D01*
X68985714Y-63176190D01*
X70509523Y-63652380D02*
X69938095Y-63652380D01*
X70223809Y-63652380D02*
X70223809Y-62652380D01*
X70128571Y-62795238D01*
X70033333Y-62890476D01*
X69938095Y-62938095D01*
X70985714Y-63652380D02*
X71176190Y-63652380D01*
X71271428Y-63604761D01*
X71319047Y-63557142D01*
X71414285Y-63414285D01*
X71461904Y-63223809D01*
X71461904Y-62842857D01*
X71414285Y-62747619D01*
X71366666Y-62700000D01*
X71271428Y-62652380D01*
X71080952Y-62652380D01*
X70985714Y-62700000D01*
X70938095Y-62747619D01*
X70890476Y-62842857D01*
X70890476Y-63080952D01*
X70938095Y-63176190D01*
X70985714Y-63223809D01*
X71080952Y-63271428D01*
X71271428Y-63271428D01*
X71366666Y-63223809D01*
X71414285Y-63176190D01*
X71461904Y-63080952D01*
X122157142Y-112157142D02*
X122109523Y-112204761D01*
X121966666Y-112252380D01*
X121871428Y-112252380D01*
X121728571Y-112204761D01*
X121633333Y-112109523D01*
X121585714Y-112014285D01*
X121538095Y-111823809D01*
X121538095Y-111680952D01*
X121585714Y-111490476D01*
X121633333Y-111395238D01*
X121728571Y-111300000D01*
X121871428Y-111252380D01*
X121966666Y-111252380D01*
X122109523Y-111300000D01*
X122157142Y-111347619D01*
X123014285Y-111585714D02*
X123014285Y-112252380D01*
X122776190Y-111204761D02*
X122538095Y-111919047D01*
X123157142Y-111919047D01*
X123966666Y-111585714D02*
X123966666Y-112252380D01*
X123728571Y-111204761D02*
X123490476Y-111919047D01*
X124109523Y-111919047D01*
X98966666Y-121852380D02*
X98966666Y-122566666D01*
X98919047Y-122709523D01*
X98823809Y-122804761D01*
X98680952Y-122852380D01*
X98585714Y-122852380D01*
X99442857Y-122852380D02*
X99442857Y-121852380D01*
X99823809Y-121852380D01*
X99919047Y-121900000D01*
X99966666Y-121947619D01*
X100014285Y-122042857D01*
X100014285Y-122185714D01*
X99966666Y-122280952D01*
X99919047Y-122328571D01*
X99823809Y-122376190D01*
X99442857Y-122376190D01*
X100871428Y-122185714D02*
X100871428Y-122852380D01*
X100633333Y-121804761D02*
X100395238Y-122519047D01*
X101014285Y-122519047D01*
X95838095Y-93452380D02*
X95838095Y-94261904D01*
X95885714Y-94357142D01*
X95933333Y-94404761D01*
X96028571Y-94452380D01*
X96219047Y-94452380D01*
X96314285Y-94404761D01*
X96361904Y-94357142D01*
X96409523Y-94261904D01*
X96409523Y-93452380D01*
X97409523Y-94452380D02*
X96838095Y-94452380D01*
X97123809Y-94452380D02*
X97123809Y-93452380D01*
X97028571Y-93595238D01*
X96933333Y-93690476D01*
X96838095Y-93738095D01*
X82557142Y-144557142D02*
X82509523Y-144604761D01*
X82366666Y-144652380D01*
X82271428Y-144652380D01*
X82128571Y-144604761D01*
X82033333Y-144509523D01*
X81985714Y-144414285D01*
X81938095Y-144223809D01*
X81938095Y-144080952D01*
X81985714Y-143890476D01*
X82033333Y-143795238D01*
X82128571Y-143700000D01*
X82271428Y-143652380D01*
X82366666Y-143652380D01*
X82509523Y-143700000D01*
X82557142Y-143747619D01*
X83509523Y-144652380D02*
X82938095Y-144652380D01*
X83223809Y-144652380D02*
X83223809Y-143652380D01*
X83128571Y-143795238D01*
X83033333Y-143890476D01*
X82938095Y-143938095D01*
X83842857Y-143652380D02*
X84461904Y-143652380D01*
X84128571Y-144033333D01*
X84271428Y-144033333D01*
X84366666Y-144080952D01*
X84414285Y-144128571D01*
X84461904Y-144223809D01*
X84461904Y-144461904D01*
X84414285Y-144557142D01*
X84366666Y-144604761D01*
X84271428Y-144652380D01*
X83985714Y-144652380D01*
X83890476Y-144604761D01*
X83842857Y-144557142D01*
X91557142Y-92957142D02*
X91509523Y-93004761D01*
X91366666Y-93052380D01*
X91271428Y-93052380D01*
X91128571Y-93004761D01*
X91033333Y-92909523D01*
X90985714Y-92814285D01*
X90938095Y-92623809D01*
X90938095Y-92480952D01*
X90985714Y-92290476D01*
X91033333Y-92195238D01*
X91128571Y-92100000D01*
X91271428Y-92052380D01*
X91366666Y-92052380D01*
X91509523Y-92100000D01*
X91557142Y-92147619D01*
X92509523Y-93052380D02*
X91938095Y-93052380D01*
X92223809Y-93052380D02*
X92223809Y-92052380D01*
X92128571Y-92195238D01*
X92033333Y-92290476D01*
X91938095Y-92338095D01*
X92890476Y-92147619D02*
X92938095Y-92100000D01*
X93033333Y-92052380D01*
X93271428Y-92052380D01*
X93366666Y-92100000D01*
X93414285Y-92147619D01*
X93461904Y-92242857D01*
X93461904Y-92338095D01*
X93414285Y-92480952D01*
X92842857Y-93052380D01*
X93461904Y-93052380D01*
X76957142Y-119757142D02*
X76909523Y-119804761D01*
X76766666Y-119852380D01*
X76671428Y-119852380D01*
X76528571Y-119804761D01*
X76433333Y-119709523D01*
X76385714Y-119614285D01*
X76338095Y-119423809D01*
X76338095Y-119280952D01*
X76385714Y-119090476D01*
X76433333Y-118995238D01*
X76528571Y-118900000D01*
X76671428Y-118852380D01*
X76766666Y-118852380D01*
X76909523Y-118900000D01*
X76957142Y-118947619D01*
X77290476Y-118852380D02*
X77909523Y-118852380D01*
X77576190Y-119233333D01*
X77719047Y-119233333D01*
X77814285Y-119280952D01*
X77861904Y-119328571D01*
X77909523Y-119423809D01*
X77909523Y-119661904D01*
X77861904Y-119757142D01*
X77814285Y-119804761D01*
X77719047Y-119852380D01*
X77433333Y-119852380D01*
X77338095Y-119804761D01*
X77290476Y-119757142D01*
X78290476Y-118947619D02*
X78338095Y-118900000D01*
X78433333Y-118852380D01*
X78671428Y-118852380D01*
X78766666Y-118900000D01*
X78814285Y-118947619D01*
X78861904Y-119042857D01*
X78861904Y-119138095D01*
X78814285Y-119280952D01*
X78242857Y-119852380D01*
X78861904Y-119852380D01*
X120557142Y-97052380D02*
X120223809Y-96576190D01*
X119985714Y-97052380D02*
X119985714Y-96052380D01*
X120366666Y-96052380D01*
X120461904Y-96100000D01*
X120509523Y-96147619D01*
X120557142Y-96242857D01*
X120557142Y-96385714D01*
X120509523Y-96480952D01*
X120461904Y-96528571D01*
X120366666Y-96576190D01*
X119985714Y-96576190D01*
X121509523Y-97052380D02*
X120938095Y-97052380D01*
X121223809Y-97052380D02*
X121223809Y-96052380D01*
X121128571Y-96195238D01*
X121033333Y-96290476D01*
X120938095Y-96338095D01*
X121842857Y-96052380D02*
X122461904Y-96052380D01*
X122128571Y-96433333D01*
X122271428Y-96433333D01*
X122366666Y-96480952D01*
X122414285Y-96528571D01*
X122461904Y-96623809D01*
X122461904Y-96861904D01*
X122414285Y-96957142D01*
X122366666Y-97004761D01*
X122271428Y-97052380D01*
X121985714Y-97052380D01*
X121890476Y-97004761D01*
X121842857Y-96957142D01*
X123757142Y-97052380D02*
X123423809Y-96576190D01*
X123185714Y-97052380D02*
X123185714Y-96052380D01*
X123566666Y-96052380D01*
X123661904Y-96100000D01*
X123709523Y-96147619D01*
X123757142Y-96242857D01*
X123757142Y-96385714D01*
X123709523Y-96480952D01*
X123661904Y-96528571D01*
X123566666Y-96576190D01*
X123185714Y-96576190D01*
X124709523Y-97052380D02*
X124138095Y-97052380D01*
X124423809Y-97052380D02*
X124423809Y-96052380D01*
X124328571Y-96195238D01*
X124233333Y-96290476D01*
X124138095Y-96338095D01*
X125090476Y-96147619D02*
X125138095Y-96100000D01*
X125233333Y-96052380D01*
X125471428Y-96052380D01*
X125566666Y-96100000D01*
X125614285Y-96147619D01*
X125661904Y-96242857D01*
X125661904Y-96338095D01*
X125614285Y-96480952D01*
X125042857Y-97052380D01*
X125661904Y-97052380D01*
X106433333Y-135452380D02*
X105957142Y-135452380D01*
X105957142Y-134452380D01*
X106671428Y-134452380D02*
X107290476Y-134452380D01*
X106957142Y-134833333D01*
X107100000Y-134833333D01*
X107195238Y-134880952D01*
X107242857Y-134928571D01*
X107290476Y-135023809D01*
X107290476Y-135261904D01*
X107242857Y-135357142D01*
X107195238Y-135404761D01*
X107100000Y-135452380D01*
X106814285Y-135452380D01*
X106719047Y-135404761D01*
X106671428Y-135357142D01*
X99157142Y-118157142D02*
X99109523Y-118204761D01*
X98966666Y-118252380D01*
X98871428Y-118252380D01*
X98728571Y-118204761D01*
X98633333Y-118109523D01*
X98585714Y-118014285D01*
X98538095Y-117823809D01*
X98538095Y-117680952D01*
X98585714Y-117490476D01*
X98633333Y-117395238D01*
X98728571Y-117300000D01*
X98871428Y-117252380D01*
X98966666Y-117252380D01*
X99109523Y-117300000D01*
X99157142Y-117347619D01*
X100014285Y-117585714D02*
X100014285Y-118252380D01*
X99776190Y-117204761D02*
X99538095Y-117919047D01*
X100157142Y-117919047D01*
X100442857Y-117252380D02*
X101061904Y-117252380D01*
X100728571Y-117633333D01*
X100871428Y-117633333D01*
X100966666Y-117680952D01*
X101014285Y-117728571D01*
X101061904Y-117823809D01*
X101061904Y-118061904D01*
X101014285Y-118157142D01*
X100966666Y-118204761D01*
X100871428Y-118252380D01*
X100585714Y-118252380D01*
X100490476Y-118204761D01*
X100442857Y-118157142D01*
X104123809Y-76976190D02*
X104123809Y-77452380D01*
X103790476Y-76452380D02*
X104123809Y-76976190D01*
X104457142Y-76452380D01*
X104742857Y-76547619D02*
X104790476Y-76500000D01*
X104885714Y-76452380D01*
X105123809Y-76452380D01*
X105219047Y-76500000D01*
X105266666Y-76547619D01*
X105314285Y-76642857D01*
X105314285Y-76738095D01*
X105266666Y-76880952D01*
X104695238Y-77452380D01*
X105314285Y-77452380D01*
X100323809Y-66776190D02*
X100323809Y-67252380D01*
X99990476Y-66252380D02*
X100323809Y-66776190D01*
X100657142Y-66252380D01*
X101514285Y-67252380D02*
X100942857Y-67252380D01*
X101228571Y-67252380D02*
X101228571Y-66252380D01*
X101133333Y-66395238D01*
X101038095Y-66490476D01*
X100942857Y-66538095D01*
X121661904Y-122452380D02*
X121661904Y-123261904D01*
X121709523Y-123357142D01*
X121757142Y-123404761D01*
X121852380Y-123452380D01*
X122042857Y-123452380D01*
X122138095Y-123404761D01*
X122185714Y-123357142D01*
X122233333Y-123261904D01*
X122233333Y-122452380D01*
X123233333Y-123452380D02*
X122661904Y-123452380D01*
X122947619Y-123452380D02*
X122947619Y-122452380D01*
X122852380Y-122595238D01*
X122757142Y-122690476D01*
X122661904Y-122738095D01*
X123614285Y-122547619D02*
X123661904Y-122500000D01*
X123757142Y-122452380D01*
X123995238Y-122452380D01*
X124090476Y-122500000D01*
X124138095Y-122547619D01*
X124185714Y-122642857D01*
X124185714Y-122738095D01*
X124138095Y-122880952D01*
X123566666Y-123452380D01*
X124185714Y-123452380D01*
X81161904Y-104652380D02*
X81161904Y-105461904D01*
X81209523Y-105557142D01*
X81257142Y-105604761D01*
X81352380Y-105652380D01*
X81542857Y-105652380D01*
X81638095Y-105604761D01*
X81685714Y-105557142D01*
X81733333Y-105461904D01*
X81733333Y-104652380D01*
X82733333Y-105652380D02*
X82161904Y-105652380D01*
X82447619Y-105652380D02*
X82447619Y-104652380D01*
X82352380Y-104795238D01*
X82257142Y-104890476D01*
X82161904Y-104938095D01*
X83685714Y-105652380D02*
X83114285Y-105652380D01*
X83400000Y-105652380D02*
X83400000Y-104652380D01*
X83304761Y-104795238D01*
X83209523Y-104890476D01*
X83114285Y-104938095D01*
X112961904Y-120652380D02*
X112961904Y-121461904D01*
X113009523Y-121557142D01*
X113057142Y-121604761D01*
X113152380Y-121652380D01*
X113342857Y-121652380D01*
X113438095Y-121604761D01*
X113485714Y-121557142D01*
X113533333Y-121461904D01*
X113533333Y-120652380D01*
X114533333Y-121652380D02*
X113961904Y-121652380D01*
X114247619Y-121652380D02*
X114247619Y-120652380D01*
X114152380Y-120795238D01*
X114057142Y-120890476D01*
X113961904Y-120938095D01*
X115152380Y-120652380D02*
X115247619Y-120652380D01*
X115342857Y-120700000D01*
X115390476Y-120747619D01*
X115438095Y-120842857D01*
X115485714Y-121033333D01*
X115485714Y-121271428D01*
X115438095Y-121461904D01*
X115390476Y-121557142D01*
X115342857Y-121604761D01*
X115247619Y-121652380D01*
X115152380Y-121652380D01*
X115057142Y-121604761D01*
X115009523Y-121557142D01*
X114961904Y-121461904D01*
X114914285Y-121271428D01*
X114914285Y-121033333D01*
X114961904Y-120842857D01*
X115009523Y-120747619D01*
X115057142Y-120700000D01*
X115152380Y-120652380D01*
X81038095Y-121452380D02*
X81038095Y-122261904D01*
X81085714Y-122357142D01*
X81133333Y-122404761D01*
X81228571Y-122452380D01*
X81419047Y-122452380D01*
X81514285Y-122404761D01*
X81561904Y-122357142D01*
X81609523Y-122261904D01*
X81609523Y-121452380D01*
X82133333Y-122452380D02*
X82323809Y-122452380D01*
X82419047Y-122404761D01*
X82466666Y-122357142D01*
X82561904Y-122214285D01*
X82609523Y-122023809D01*
X82609523Y-121642857D01*
X82561904Y-121547619D01*
X82514285Y-121500000D01*
X82419047Y-121452380D01*
X82228571Y-121452380D01*
X82133333Y-121500000D01*
X82085714Y-121547619D01*
X82038095Y-121642857D01*
X82038095Y-121880952D01*
X82085714Y-121976190D01*
X82133333Y-122023809D01*
X82228571Y-122071428D01*
X82419047Y-122071428D01*
X82514285Y-122023809D01*
X82561904Y-121976190D01*
X82609523Y-121880952D01*
X65438095Y-117652380D02*
X65438095Y-118461904D01*
X65485714Y-118557142D01*
X65533333Y-118604761D01*
X65628571Y-118652380D01*
X65819047Y-118652380D01*
X65914285Y-118604761D01*
X65961904Y-118557142D01*
X66009523Y-118461904D01*
X66009523Y-117652380D01*
X66390476Y-117652380D02*
X67057142Y-117652380D01*
X66628571Y-118652380D01*
X67438095Y-134652380D02*
X67438095Y-135461904D01*
X67485714Y-135557142D01*
X67533333Y-135604761D01*
X67628571Y-135652380D01*
X67819047Y-135652380D01*
X67914285Y-135604761D01*
X67961904Y-135557142D01*
X68009523Y-135461904D01*
X68009523Y-134652380D01*
X68914285Y-134652380D02*
X68723809Y-134652380D01*
X68628571Y-134700000D01*
X68580952Y-134747619D01*
X68485714Y-134890476D01*
X68438095Y-135080952D01*
X68438095Y-135461904D01*
X68485714Y-135557142D01*
X68533333Y-135604761D01*
X68628571Y-135652380D01*
X68819047Y-135652380D01*
X68914285Y-135604761D01*
X68961904Y-135557142D01*
X69009523Y-135461904D01*
X69009523Y-135223809D01*
X68961904Y-135128571D01*
X68914285Y-135080952D01*
X68819047Y-135033333D01*
X68628571Y-135033333D01*
X68533333Y-135080952D01*
X68485714Y-135128571D01*
X68438095Y-135223809D01*
X113338095Y-110452380D02*
X113909523Y-110452380D01*
X113623809Y-111452380D02*
X113623809Y-110452380D01*
X114242857Y-111452380D02*
X114242857Y-110452380D01*
X114623809Y-110452380D01*
X114719047Y-110500000D01*
X114766666Y-110547619D01*
X114814285Y-110642857D01*
X114814285Y-110785714D01*
X114766666Y-110880952D01*
X114719047Y-110928571D01*
X114623809Y-110976190D01*
X114242857Y-110976190D01*
X115147619Y-110452380D02*
X115814285Y-110452380D01*
X115385714Y-111452380D01*
X92138095Y-113252380D02*
X92709523Y-113252380D01*
X92423809Y-114252380D02*
X92423809Y-113252380D01*
X93042857Y-114252380D02*
X93042857Y-113252380D01*
X93423809Y-113252380D01*
X93519047Y-113300000D01*
X93566666Y-113347619D01*
X93614285Y-113442857D01*
X93614285Y-113585714D01*
X93566666Y-113680952D01*
X93519047Y-113728571D01*
X93423809Y-113776190D01*
X93042857Y-113776190D01*
X94471428Y-113252380D02*
X94280952Y-113252380D01*
X94185714Y-113300000D01*
X94138095Y-113347619D01*
X94042857Y-113490476D01*
X93995238Y-113680952D01*
X93995238Y-114061904D01*
X94042857Y-114157142D01*
X94090476Y-114204761D01*
X94185714Y-114252380D01*
X94376190Y-114252380D01*
X94471428Y-114204761D01*
X94519047Y-114157142D01*
X94566666Y-114061904D01*
X94566666Y-113823809D01*
X94519047Y-113728571D01*
X94471428Y-113680952D01*
X94376190Y-113633333D01*
X94185714Y-113633333D01*
X94090476Y-113680952D01*
X94042857Y-113728571D01*
X93995238Y-113823809D01*
X115138095Y-129452380D02*
X115709523Y-129452380D01*
X115423809Y-130452380D02*
X115423809Y-129452380D01*
X116042857Y-130452380D02*
X116042857Y-129452380D01*
X116423809Y-129452380D01*
X116519047Y-129500000D01*
X116566666Y-129547619D01*
X116614285Y-129642857D01*
X116614285Y-129785714D01*
X116566666Y-129880952D01*
X116519047Y-129928571D01*
X116423809Y-129976190D01*
X116042857Y-129976190D01*
X117519047Y-129452380D02*
X117042857Y-129452380D01*
X116995238Y-129928571D01*
X117042857Y-129880952D01*
X117138095Y-129833333D01*
X117376190Y-129833333D01*
X117471428Y-129880952D01*
X117519047Y-129928571D01*
X117566666Y-130023809D01*
X117566666Y-130261904D01*
X117519047Y-130357142D01*
X117471428Y-130404761D01*
X117376190Y-130452380D01*
X117138095Y-130452380D01*
X117042857Y-130404761D01*
X116995238Y-130357142D01*
X96138095Y-129452380D02*
X96709523Y-129452380D01*
X96423809Y-130452380D02*
X96423809Y-129452380D01*
X97042857Y-130452380D02*
X97042857Y-129452380D01*
X97423809Y-129452380D01*
X97519047Y-129500000D01*
X97566666Y-129547619D01*
X97614285Y-129642857D01*
X97614285Y-129785714D01*
X97566666Y-129880952D01*
X97519047Y-129928571D01*
X97423809Y-129976190D01*
X97042857Y-129976190D01*
X98471428Y-129785714D02*
X98471428Y-130452380D01*
X98233333Y-129404761D02*
X97995238Y-130119047D01*
X98614285Y-130119047D01*
X90738095Y-126652380D02*
X91309523Y-126652380D01*
X91023809Y-127652380D02*
X91023809Y-126652380D01*
X91642857Y-127652380D02*
X91642857Y-126652380D01*
X92023809Y-126652380D01*
X92119047Y-126700000D01*
X92166666Y-126747619D01*
X92214285Y-126842857D01*
X92214285Y-126985714D01*
X92166666Y-127080952D01*
X92119047Y-127128571D01*
X92023809Y-127176190D01*
X91642857Y-127176190D01*
X92547619Y-126652380D02*
X93166666Y-126652380D01*
X92833333Y-127033333D01*
X92976190Y-127033333D01*
X93071428Y-127080952D01*
X93119047Y-127128571D01*
X93166666Y-127223809D01*
X93166666Y-127461904D01*
X93119047Y-127557142D01*
X93071428Y-127604761D01*
X92976190Y-127652380D01*
X92690476Y-127652380D01*
X92595238Y-127604761D01*
X92547619Y-127557142D01*
X108938095Y-105652380D02*
X109509523Y-105652380D01*
X109223809Y-106652380D02*
X109223809Y-105652380D01*
X109842857Y-106652380D02*
X109842857Y-105652380D01*
X110223809Y-105652380D01*
X110319047Y-105700000D01*
X110366666Y-105747619D01*
X110414285Y-105842857D01*
X110414285Y-105985714D01*
X110366666Y-106080952D01*
X110319047Y-106128571D01*
X110223809Y-106176190D01*
X109842857Y-106176190D01*
X110795238Y-105747619D02*
X110842857Y-105700000D01*
X110938095Y-105652380D01*
X111176190Y-105652380D01*
X111271428Y-105700000D01*
X111319047Y-105747619D01*
X111366666Y-105842857D01*
X111366666Y-105938095D01*
X111319047Y-106080952D01*
X110747619Y-106652380D01*
X111366666Y-106652380D01*
X79138095Y-129452380D02*
X79709523Y-129452380D01*
X79423809Y-130452380D02*
X79423809Y-129452380D01*
X80042857Y-130452380D02*
X80042857Y-129452380D01*
X80423809Y-129452380D01*
X80519047Y-129500000D01*
X80566666Y-129547619D01*
X80614285Y-129642857D01*
X80614285Y-129785714D01*
X80566666Y-129880952D01*
X80519047Y-129928571D01*
X80423809Y-129976190D01*
X80042857Y-129976190D01*
X81566666Y-130452380D02*
X80995238Y-130452380D01*
X81280952Y-130452380D02*
X81280952Y-129452380D01*
X81185714Y-129595238D01*
X81090476Y-129690476D01*
X80995238Y-129738095D01*
X120666666Y-146004761D02*
X120809523Y-146052380D01*
X121047619Y-146052380D01*
X121142857Y-146004761D01*
X121190476Y-145957142D01*
X121238095Y-145861904D01*
X121238095Y-145766666D01*
X121190476Y-145671428D01*
X121142857Y-145623809D01*
X121047619Y-145576190D01*
X120857142Y-145528571D01*
X120761904Y-145480952D01*
X120714285Y-145433333D01*
X120666666Y-145338095D01*
X120666666Y-145242857D01*
X120714285Y-145147619D01*
X120761904Y-145100000D01*
X120857142Y-145052380D01*
X121095238Y-145052380D01*
X121238095Y-145100000D01*
X121571428Y-145052380D02*
X121809523Y-146052380D01*
X122000000Y-145338095D01*
X122190476Y-146052380D01*
X122428571Y-145052380D01*
X123285714Y-145052380D02*
X122809523Y-145052380D01*
X122761904Y-145528571D01*
X122809523Y-145480952D01*
X122904761Y-145433333D01*
X123142857Y-145433333D01*
X123238095Y-145480952D01*
X123285714Y-145528571D01*
X123333333Y-145623809D01*
X123333333Y-145861904D01*
X123285714Y-145957142D01*
X123238095Y-146004761D01*
X123142857Y-146052380D01*
X122904761Y-146052380D01*
X122809523Y-146004761D01*
X122761904Y-145957142D01*
X104666666Y-146004761D02*
X104809523Y-146052380D01*
X105047619Y-146052380D01*
X105142857Y-146004761D01*
X105190476Y-145957142D01*
X105238095Y-145861904D01*
X105238095Y-145766666D01*
X105190476Y-145671428D01*
X105142857Y-145623809D01*
X105047619Y-145576190D01*
X104857142Y-145528571D01*
X104761904Y-145480952D01*
X104714285Y-145433333D01*
X104666666Y-145338095D01*
X104666666Y-145242857D01*
X104714285Y-145147619D01*
X104761904Y-145100000D01*
X104857142Y-145052380D01*
X105095238Y-145052380D01*
X105238095Y-145100000D01*
X105571428Y-145052380D02*
X105809523Y-146052380D01*
X106000000Y-145338095D01*
X106190476Y-146052380D01*
X106428571Y-145052380D01*
X107238095Y-145385714D02*
X107238095Y-146052380D01*
X107000000Y-145004761D02*
X106761904Y-145719047D01*
X107380952Y-145719047D01*
X88666666Y-146004761D02*
X88809523Y-146052380D01*
X89047619Y-146052380D01*
X89142857Y-146004761D01*
X89190476Y-145957142D01*
X89238095Y-145861904D01*
X89238095Y-145766666D01*
X89190476Y-145671428D01*
X89142857Y-145623809D01*
X89047619Y-145576190D01*
X88857142Y-145528571D01*
X88761904Y-145480952D01*
X88714285Y-145433333D01*
X88666666Y-145338095D01*
X88666666Y-145242857D01*
X88714285Y-145147619D01*
X88761904Y-145100000D01*
X88857142Y-145052380D01*
X89095238Y-145052380D01*
X89238095Y-145100000D01*
X89571428Y-145052380D02*
X89809523Y-146052380D01*
X90000000Y-145338095D01*
X90190476Y-146052380D01*
X90428571Y-145052380D01*
X90714285Y-145052380D02*
X91333333Y-145052380D01*
X91000000Y-145433333D01*
X91142857Y-145433333D01*
X91238095Y-145480952D01*
X91285714Y-145528571D01*
X91333333Y-145623809D01*
X91333333Y-145861904D01*
X91285714Y-145957142D01*
X91238095Y-146004761D01*
X91142857Y-146052380D01*
X90857142Y-146052380D01*
X90761904Y-146004761D01*
X90714285Y-145957142D01*
X50866666Y-94804761D02*
X51009523Y-94852380D01*
X51247619Y-94852380D01*
X51342857Y-94804761D01*
X51390476Y-94757142D01*
X51438095Y-94661904D01*
X51438095Y-94566666D01*
X51390476Y-94471428D01*
X51342857Y-94423809D01*
X51247619Y-94376190D01*
X51057142Y-94328571D01*
X50961904Y-94280952D01*
X50914285Y-94233333D01*
X50866666Y-94138095D01*
X50866666Y-94042857D01*
X50914285Y-93947619D01*
X50961904Y-93900000D01*
X51057142Y-93852380D01*
X51295238Y-93852380D01*
X51438095Y-93900000D01*
X51771428Y-93852380D02*
X52009523Y-94852380D01*
X52200000Y-94138095D01*
X52390476Y-94852380D01*
X52628571Y-93852380D01*
X52961904Y-93947619D02*
X53009523Y-93900000D01*
X53104761Y-93852380D01*
X53342857Y-93852380D01*
X53438095Y-93900000D01*
X53485714Y-93947619D01*
X53533333Y-94042857D01*
X53533333Y-94138095D01*
X53485714Y-94280952D01*
X52914285Y-94852380D01*
X53533333Y-94852380D01*
X72666666Y-146004761D02*
X72809523Y-146052380D01*
X73047619Y-146052380D01*
X73142857Y-146004761D01*
X73190476Y-145957142D01*
X73238095Y-145861904D01*
X73238095Y-145766666D01*
X73190476Y-145671428D01*
X73142857Y-145623809D01*
X73047619Y-145576190D01*
X72857142Y-145528571D01*
X72761904Y-145480952D01*
X72714285Y-145433333D01*
X72666666Y-145338095D01*
X72666666Y-145242857D01*
X72714285Y-145147619D01*
X72761904Y-145100000D01*
X72857142Y-145052380D01*
X73095238Y-145052380D01*
X73238095Y-145100000D01*
X73571428Y-145052380D02*
X73809523Y-146052380D01*
X74000000Y-145338095D01*
X74190476Y-146052380D01*
X74428571Y-145052380D01*
X75333333Y-146052380D02*
X74761904Y-146052380D01*
X75047619Y-146052380D02*
X75047619Y-145052380D01*
X74952380Y-145195238D01*
X74857142Y-145290476D01*
X74761904Y-145338095D01*
X99852380Y-109642857D02*
X99376190Y-109976190D01*
X99852380Y-110214285D02*
X98852380Y-110214285D01*
X98852380Y-109833333D01*
X98900000Y-109738095D01*
X98947619Y-109690476D01*
X99042857Y-109642857D01*
X99185714Y-109642857D01*
X99280952Y-109690476D01*
X99328571Y-109738095D01*
X99376190Y-109833333D01*
X99376190Y-110214285D01*
X98852380Y-109309523D02*
X98852380Y-108690476D01*
X99233333Y-109023809D01*
X99233333Y-108880952D01*
X99280952Y-108785714D01*
X99328571Y-108738095D01*
X99423809Y-108690476D01*
X99661904Y-108690476D01*
X99757142Y-108738095D01*
X99804761Y-108785714D01*
X99852380Y-108880952D01*
X99852380Y-109166666D01*
X99804761Y-109261904D01*
X99757142Y-109309523D01*
X99852380Y-108214285D02*
X99852380Y-108023809D01*
X99804761Y-107928571D01*
X99757142Y-107880952D01*
X99614285Y-107785714D01*
X99423809Y-107738095D01*
X99042857Y-107738095D01*
X98947619Y-107785714D01*
X98900000Y-107833333D01*
X98852380Y-107928571D01*
X98852380Y-108119047D01*
X98900000Y-108214285D01*
X98947619Y-108261904D01*
X99042857Y-108309523D01*
X99280952Y-108309523D01*
X99376190Y-108261904D01*
X99423809Y-108214285D01*
X99471428Y-108119047D01*
X99471428Y-107928571D01*
X99423809Y-107833333D01*
X99376190Y-107785714D01*
X99280952Y-107738095D01*
X95557142Y-122452380D02*
X95223809Y-121976190D01*
X94985714Y-122452380D02*
X94985714Y-121452380D01*
X95366666Y-121452380D01*
X95461904Y-121500000D01*
X95509523Y-121547619D01*
X95557142Y-121642857D01*
X95557142Y-121785714D01*
X95509523Y-121880952D01*
X95461904Y-121928571D01*
X95366666Y-121976190D01*
X94985714Y-121976190D01*
X95890476Y-121452380D02*
X96509523Y-121452380D01*
X96176190Y-121833333D01*
X96319047Y-121833333D01*
X96414285Y-121880952D01*
X96461904Y-121928571D01*
X96509523Y-122023809D01*
X96509523Y-122261904D01*
X96461904Y-122357142D01*
X96414285Y-122404761D01*
X96319047Y-122452380D01*
X96033333Y-122452380D01*
X95938095Y-122404761D01*
X95890476Y-122357142D01*
X97080952Y-121880952D02*
X96985714Y-121833333D01*
X96938095Y-121785714D01*
X96890476Y-121690476D01*
X96890476Y-121642857D01*
X96938095Y-121547619D01*
X96985714Y-121500000D01*
X97080952Y-121452380D01*
X97271428Y-121452380D01*
X97366666Y-121500000D01*
X97414285Y-121547619D01*
X97461904Y-121642857D01*
X97461904Y-121690476D01*
X97414285Y-121785714D01*
X97366666Y-121833333D01*
X97271428Y-121880952D01*
X97080952Y-121880952D01*
X96985714Y-121928571D01*
X96938095Y-121976190D01*
X96890476Y-122071428D01*
X96890476Y-122261904D01*
X96938095Y-122357142D01*
X96985714Y-122404761D01*
X97080952Y-122452380D01*
X97271428Y-122452380D01*
X97366666Y-122404761D01*
X97414285Y-122357142D01*
X97461904Y-122261904D01*
X97461904Y-122071428D01*
X97414285Y-121976190D01*
X97366666Y-121928571D01*
X97271428Y-121880952D01*
X99357142Y-113052380D02*
X99023809Y-112576190D01*
X98785714Y-113052380D02*
X98785714Y-112052380D01*
X99166666Y-112052380D01*
X99261904Y-112100000D01*
X99309523Y-112147619D01*
X99357142Y-112242857D01*
X99357142Y-112385714D01*
X99309523Y-112480952D01*
X99261904Y-112528571D01*
X99166666Y-112576190D01*
X98785714Y-112576190D01*
X99690476Y-112052380D02*
X100309523Y-112052380D01*
X99976190Y-112433333D01*
X100119047Y-112433333D01*
X100214285Y-112480952D01*
X100261904Y-112528571D01*
X100309523Y-112623809D01*
X100309523Y-112861904D01*
X100261904Y-112957142D01*
X100214285Y-113004761D01*
X100119047Y-113052380D01*
X99833333Y-113052380D01*
X99738095Y-113004761D01*
X99690476Y-112957142D01*
X100642857Y-112052380D02*
X101309523Y-112052380D01*
X100880952Y-113052380D01*
X101252380Y-109642857D02*
X100776190Y-109976190D01*
X101252380Y-110214285D02*
X100252380Y-110214285D01*
X100252380Y-109833333D01*
X100300000Y-109738095D01*
X100347619Y-109690476D01*
X100442857Y-109642857D01*
X100585714Y-109642857D01*
X100680952Y-109690476D01*
X100728571Y-109738095D01*
X100776190Y-109833333D01*
X100776190Y-110214285D01*
X100252380Y-109309523D02*
X100252380Y-108690476D01*
X100633333Y-109023809D01*
X100633333Y-108880952D01*
X100680952Y-108785714D01*
X100728571Y-108738095D01*
X100823809Y-108690476D01*
X101061904Y-108690476D01*
X101157142Y-108738095D01*
X101204761Y-108785714D01*
X101252380Y-108880952D01*
X101252380Y-109166666D01*
X101204761Y-109261904D01*
X101157142Y-109309523D01*
X100252380Y-107833333D02*
X100252380Y-108023809D01*
X100300000Y-108119047D01*
X100347619Y-108166666D01*
X100490476Y-108261904D01*
X100680952Y-108309523D01*
X101061904Y-108309523D01*
X101157142Y-108261904D01*
X101204761Y-108214285D01*
X101252380Y-108119047D01*
X101252380Y-107928571D01*
X101204761Y-107833333D01*
X101157142Y-107785714D01*
X101061904Y-107738095D01*
X100823809Y-107738095D01*
X100728571Y-107785714D01*
X100680952Y-107833333D01*
X100633333Y-107928571D01*
X100633333Y-108119047D01*
X100680952Y-108214285D01*
X100728571Y-108261904D01*
X100823809Y-108309523D01*
X99357142Y-111652380D02*
X99023809Y-111176190D01*
X98785714Y-111652380D02*
X98785714Y-110652380D01*
X99166666Y-110652380D01*
X99261904Y-110700000D01*
X99309523Y-110747619D01*
X99357142Y-110842857D01*
X99357142Y-110985714D01*
X99309523Y-111080952D01*
X99261904Y-111128571D01*
X99166666Y-111176190D01*
X98785714Y-111176190D01*
X99690476Y-110652380D02*
X100309523Y-110652380D01*
X99976190Y-111033333D01*
X100119047Y-111033333D01*
X100214285Y-111080952D01*
X100261904Y-111128571D01*
X100309523Y-111223809D01*
X100309523Y-111461904D01*
X100261904Y-111557142D01*
X100214285Y-111604761D01*
X100119047Y-111652380D01*
X99833333Y-111652380D01*
X99738095Y-111604761D01*
X99690476Y-111557142D01*
X101214285Y-110652380D02*
X100738095Y-110652380D01*
X100690476Y-111128571D01*
X100738095Y-111080952D01*
X100833333Y-111033333D01*
X101071428Y-111033333D01*
X101166666Y-111080952D01*
X101214285Y-111128571D01*
X101261904Y-111223809D01*
X101261904Y-111461904D01*
X101214285Y-111557142D01*
X101166666Y-111604761D01*
X101071428Y-111652380D01*
X100833333Y-111652380D01*
X100738095Y-111604761D01*
X100690476Y-111557142D01*
X95557142Y-120652380D02*
X95223809Y-120176190D01*
X94985714Y-120652380D02*
X94985714Y-119652380D01*
X95366666Y-119652380D01*
X95461904Y-119700000D01*
X95509523Y-119747619D01*
X95557142Y-119842857D01*
X95557142Y-119985714D01*
X95509523Y-120080952D01*
X95461904Y-120128571D01*
X95366666Y-120176190D01*
X94985714Y-120176190D01*
X95890476Y-119652380D02*
X96509523Y-119652380D01*
X96176190Y-120033333D01*
X96319047Y-120033333D01*
X96414285Y-120080952D01*
X96461904Y-120128571D01*
X96509523Y-120223809D01*
X96509523Y-120461904D01*
X96461904Y-120557142D01*
X96414285Y-120604761D01*
X96319047Y-120652380D01*
X96033333Y-120652380D01*
X95938095Y-120604761D01*
X95890476Y-120557142D01*
X97366666Y-119985714D02*
X97366666Y-120652380D01*
X97128571Y-119604761D02*
X96890476Y-120319047D01*
X97509523Y-120319047D01*
X92757142Y-116452380D02*
X92423809Y-115976190D01*
X92185714Y-116452380D02*
X92185714Y-115452380D01*
X92566666Y-115452380D01*
X92661904Y-115500000D01*
X92709523Y-115547619D01*
X92757142Y-115642857D01*
X92757142Y-115785714D01*
X92709523Y-115880952D01*
X92661904Y-115928571D01*
X92566666Y-115976190D01*
X92185714Y-115976190D01*
X93090476Y-115452380D02*
X93709523Y-115452380D01*
X93376190Y-115833333D01*
X93519047Y-115833333D01*
X93614285Y-115880952D01*
X93661904Y-115928571D01*
X93709523Y-116023809D01*
X93709523Y-116261904D01*
X93661904Y-116357142D01*
X93614285Y-116404761D01*
X93519047Y-116452380D01*
X93233333Y-116452380D01*
X93138095Y-116404761D01*
X93090476Y-116357142D01*
X94042857Y-115452380D02*
X94661904Y-115452380D01*
X94328571Y-115833333D01*
X94471428Y-115833333D01*
X94566666Y-115880952D01*
X94614285Y-115928571D01*
X94661904Y-116023809D01*
X94661904Y-116261904D01*
X94614285Y-116357142D01*
X94566666Y-116404761D01*
X94471428Y-116452380D01*
X94185714Y-116452380D01*
X94090476Y-116404761D01*
X94042857Y-116357142D01*
X98452380Y-111842857D02*
X97976190Y-112176190D01*
X98452380Y-112414285D02*
X97452380Y-112414285D01*
X97452380Y-112033333D01*
X97500000Y-111938095D01*
X97547619Y-111890476D01*
X97642857Y-111842857D01*
X97785714Y-111842857D01*
X97880952Y-111890476D01*
X97928571Y-111938095D01*
X97976190Y-112033333D01*
X97976190Y-112414285D01*
X97452380Y-111509523D02*
X97452380Y-110890476D01*
X97833333Y-111223809D01*
X97833333Y-111080952D01*
X97880952Y-110985714D01*
X97928571Y-110938095D01*
X98023809Y-110890476D01*
X98261904Y-110890476D01*
X98357142Y-110938095D01*
X98404761Y-110985714D01*
X98452380Y-111080952D01*
X98452380Y-111366666D01*
X98404761Y-111461904D01*
X98357142Y-111509523D01*
X97547619Y-110509523D02*
X97500000Y-110461904D01*
X97452380Y-110366666D01*
X97452380Y-110128571D01*
X97500000Y-110033333D01*
X97547619Y-109985714D01*
X97642857Y-109938095D01*
X97738095Y-109938095D01*
X97880952Y-109985714D01*
X98452380Y-110557142D01*
X98452380Y-109938095D01*
X76557142Y-121252380D02*
X76223809Y-120776190D01*
X75985714Y-121252380D02*
X75985714Y-120252380D01*
X76366666Y-120252380D01*
X76461904Y-120300000D01*
X76509523Y-120347619D01*
X76557142Y-120442857D01*
X76557142Y-120585714D01*
X76509523Y-120680952D01*
X76461904Y-120728571D01*
X76366666Y-120776190D01*
X75985714Y-120776190D01*
X76890476Y-120252380D02*
X77509523Y-120252380D01*
X77176190Y-120633333D01*
X77319047Y-120633333D01*
X77414285Y-120680952D01*
X77461904Y-120728571D01*
X77509523Y-120823809D01*
X77509523Y-121061904D01*
X77461904Y-121157142D01*
X77414285Y-121204761D01*
X77319047Y-121252380D01*
X77033333Y-121252380D01*
X76938095Y-121204761D01*
X76890476Y-121157142D01*
X78461904Y-121252380D02*
X77890476Y-121252380D01*
X78176190Y-121252380D02*
X78176190Y-120252380D01*
X78080952Y-120395238D01*
X77985714Y-120490476D01*
X77890476Y-120538095D01*
X54957142Y-138452380D02*
X54623809Y-137976190D01*
X54385714Y-138452380D02*
X54385714Y-137452380D01*
X54766666Y-137452380D01*
X54861904Y-137500000D01*
X54909523Y-137547619D01*
X54957142Y-137642857D01*
X54957142Y-137785714D01*
X54909523Y-137880952D01*
X54861904Y-137928571D01*
X54766666Y-137976190D01*
X54385714Y-137976190D01*
X55290476Y-137452380D02*
X55909523Y-137452380D01*
X55576190Y-137833333D01*
X55719047Y-137833333D01*
X55814285Y-137880952D01*
X55861904Y-137928571D01*
X55909523Y-138023809D01*
X55909523Y-138261904D01*
X55861904Y-138357142D01*
X55814285Y-138404761D01*
X55719047Y-138452380D01*
X55433333Y-138452380D01*
X55338095Y-138404761D01*
X55290476Y-138357142D01*
X56528571Y-137452380D02*
X56623809Y-137452380D01*
X56719047Y-137500000D01*
X56766666Y-137547619D01*
X56814285Y-137642857D01*
X56861904Y-137833333D01*
X56861904Y-138071428D01*
X56814285Y-138261904D01*
X56766666Y-138357142D01*
X56719047Y-138404761D01*
X56623809Y-138452380D01*
X56528571Y-138452380D01*
X56433333Y-138404761D01*
X56385714Y-138357142D01*
X56338095Y-138261904D01*
X56290476Y-138071428D01*
X56290476Y-137833333D01*
X56338095Y-137642857D01*
X56385714Y-137547619D01*
X56433333Y-137500000D01*
X56528571Y-137452380D01*
X60357142Y-109952380D02*
X60023809Y-109476190D01*
X59785714Y-109952380D02*
X59785714Y-108952380D01*
X60166666Y-108952380D01*
X60261904Y-109000000D01*
X60309523Y-109047619D01*
X60357142Y-109142857D01*
X60357142Y-109285714D01*
X60309523Y-109380952D01*
X60261904Y-109428571D01*
X60166666Y-109476190D01*
X59785714Y-109476190D01*
X60738095Y-109047619D02*
X60785714Y-109000000D01*
X60880952Y-108952380D01*
X61119047Y-108952380D01*
X61214285Y-109000000D01*
X61261904Y-109047619D01*
X61309523Y-109142857D01*
X61309523Y-109238095D01*
X61261904Y-109380952D01*
X60690476Y-109952380D01*
X61309523Y-109952380D01*
X61785714Y-109952380D02*
X61976190Y-109952380D01*
X62071428Y-109904761D01*
X62119047Y-109857142D01*
X62214285Y-109714285D01*
X62261904Y-109523809D01*
X62261904Y-109142857D01*
X62214285Y-109047619D01*
X62166666Y-109000000D01*
X62071428Y-108952380D01*
X61880952Y-108952380D01*
X61785714Y-109000000D01*
X61738095Y-109047619D01*
X61690476Y-109142857D01*
X61690476Y-109380952D01*
X61738095Y-109476190D01*
X61785714Y-109523809D01*
X61880952Y-109571428D01*
X62071428Y-109571428D01*
X62166666Y-109523809D01*
X62214285Y-109476190D01*
X62261904Y-109380952D01*
X70357142Y-130052380D02*
X70023809Y-129576190D01*
X69785714Y-130052380D02*
X69785714Y-129052380D01*
X70166666Y-129052380D01*
X70261904Y-129100000D01*
X70309523Y-129147619D01*
X70357142Y-129242857D01*
X70357142Y-129385714D01*
X70309523Y-129480952D01*
X70261904Y-129528571D01*
X70166666Y-129576190D01*
X69785714Y-129576190D01*
X70738095Y-129147619D02*
X70785714Y-129100000D01*
X70880952Y-129052380D01*
X71119047Y-129052380D01*
X71214285Y-129100000D01*
X71261904Y-129147619D01*
X71309523Y-129242857D01*
X71309523Y-129338095D01*
X71261904Y-129480952D01*
X70690476Y-130052380D01*
X71309523Y-130052380D01*
X71642857Y-129052380D02*
X72309523Y-129052380D01*
X71880952Y-130052380D01*
X69957142Y-128052380D02*
X69623809Y-127576190D01*
X69385714Y-128052380D02*
X69385714Y-127052380D01*
X69766666Y-127052380D01*
X69861904Y-127100000D01*
X69909523Y-127147619D01*
X69957142Y-127242857D01*
X69957142Y-127385714D01*
X69909523Y-127480952D01*
X69861904Y-127528571D01*
X69766666Y-127576190D01*
X69385714Y-127576190D01*
X70338095Y-127147619D02*
X70385714Y-127100000D01*
X70480952Y-127052380D01*
X70719047Y-127052380D01*
X70814285Y-127100000D01*
X70861904Y-127147619D01*
X70909523Y-127242857D01*
X70909523Y-127338095D01*
X70861904Y-127480952D01*
X70290476Y-128052380D01*
X70909523Y-128052380D01*
X71766666Y-127052380D02*
X71576190Y-127052380D01*
X71480952Y-127100000D01*
X71433333Y-127147619D01*
X71338095Y-127290476D01*
X71290476Y-127480952D01*
X71290476Y-127861904D01*
X71338095Y-127957142D01*
X71385714Y-128004761D01*
X71480952Y-128052380D01*
X71671428Y-128052380D01*
X71766666Y-128004761D01*
X71814285Y-127957142D01*
X71861904Y-127861904D01*
X71861904Y-127623809D01*
X71814285Y-127528571D01*
X71766666Y-127480952D01*
X71671428Y-127433333D01*
X71480952Y-127433333D01*
X71385714Y-127480952D01*
X71338095Y-127528571D01*
X71290476Y-127623809D01*
X70957142Y-78452380D02*
X70623809Y-77976190D01*
X70385714Y-78452380D02*
X70385714Y-77452380D01*
X70766666Y-77452380D01*
X70861904Y-77500000D01*
X70909523Y-77547619D01*
X70957142Y-77642857D01*
X70957142Y-77785714D01*
X70909523Y-77880952D01*
X70861904Y-77928571D01*
X70766666Y-77976190D01*
X70385714Y-77976190D01*
X71338095Y-77547619D02*
X71385714Y-77500000D01*
X71480952Y-77452380D01*
X71719047Y-77452380D01*
X71814285Y-77500000D01*
X71861904Y-77547619D01*
X71909523Y-77642857D01*
X71909523Y-77738095D01*
X71861904Y-77880952D01*
X71290476Y-78452380D01*
X71909523Y-78452380D01*
X72766666Y-77785714D02*
X72766666Y-78452380D01*
X72528571Y-77404761D02*
X72290476Y-78119047D01*
X72909523Y-78119047D01*
X72757142Y-73052380D02*
X72423809Y-72576190D01*
X72185714Y-73052380D02*
X72185714Y-72052380D01*
X72566666Y-72052380D01*
X72661904Y-72100000D01*
X72709523Y-72147619D01*
X72757142Y-72242857D01*
X72757142Y-72385714D01*
X72709523Y-72480952D01*
X72661904Y-72528571D01*
X72566666Y-72576190D01*
X72185714Y-72576190D01*
X73138095Y-72147619D02*
X73185714Y-72100000D01*
X73280952Y-72052380D01*
X73519047Y-72052380D01*
X73614285Y-72100000D01*
X73661904Y-72147619D01*
X73709523Y-72242857D01*
X73709523Y-72338095D01*
X73661904Y-72480952D01*
X73090476Y-73052380D01*
X73709523Y-73052380D01*
X74042857Y-72052380D02*
X74661904Y-72052380D01*
X74328571Y-72433333D01*
X74471428Y-72433333D01*
X74566666Y-72480952D01*
X74614285Y-72528571D01*
X74661904Y-72623809D01*
X74661904Y-72861904D01*
X74614285Y-72957142D01*
X74566666Y-73004761D01*
X74471428Y-73052380D01*
X74185714Y-73052380D01*
X74090476Y-73004761D01*
X74042857Y-72957142D01*
X77557142Y-66252380D02*
X77223809Y-65776190D01*
X76985714Y-66252380D02*
X76985714Y-65252380D01*
X77366666Y-65252380D01*
X77461904Y-65300000D01*
X77509523Y-65347619D01*
X77557142Y-65442857D01*
X77557142Y-65585714D01*
X77509523Y-65680952D01*
X77461904Y-65728571D01*
X77366666Y-65776190D01*
X76985714Y-65776190D01*
X77938095Y-65347619D02*
X77985714Y-65300000D01*
X78080952Y-65252380D01*
X78319047Y-65252380D01*
X78414285Y-65300000D01*
X78461904Y-65347619D01*
X78509523Y-65442857D01*
X78509523Y-65538095D01*
X78461904Y-65680952D01*
X77890476Y-66252380D01*
X78509523Y-66252380D01*
X78890476Y-65347619D02*
X78938095Y-65300000D01*
X79033333Y-65252380D01*
X79271428Y-65252380D01*
X79366666Y-65300000D01*
X79414285Y-65347619D01*
X79461904Y-65442857D01*
X79461904Y-65538095D01*
X79414285Y-65680952D01*
X78842857Y-66252380D01*
X79461904Y-66252380D01*
X74557142Y-78452380D02*
X74223809Y-77976190D01*
X73985714Y-78452380D02*
X73985714Y-77452380D01*
X74366666Y-77452380D01*
X74461904Y-77500000D01*
X74509523Y-77547619D01*
X74557142Y-77642857D01*
X74557142Y-77785714D01*
X74509523Y-77880952D01*
X74461904Y-77928571D01*
X74366666Y-77976190D01*
X73985714Y-77976190D01*
X74938095Y-77547619D02*
X74985714Y-77500000D01*
X75080952Y-77452380D01*
X75319047Y-77452380D01*
X75414285Y-77500000D01*
X75461904Y-77547619D01*
X75509523Y-77642857D01*
X75509523Y-77738095D01*
X75461904Y-77880952D01*
X74890476Y-78452380D01*
X75509523Y-78452380D01*
X76461904Y-78452380D02*
X75890476Y-78452380D01*
X76176190Y-78452380D02*
X76176190Y-77452380D01*
X76080952Y-77595238D01*
X75985714Y-77690476D01*
X75890476Y-77738095D01*
X74157142Y-62652380D02*
X73823809Y-62176190D01*
X73585714Y-62652380D02*
X73585714Y-61652380D01*
X73966666Y-61652380D01*
X74061904Y-61700000D01*
X74109523Y-61747619D01*
X74157142Y-61842857D01*
X74157142Y-61985714D01*
X74109523Y-62080952D01*
X74061904Y-62128571D01*
X73966666Y-62176190D01*
X73585714Y-62176190D01*
X74538095Y-61747619D02*
X74585714Y-61700000D01*
X74680952Y-61652380D01*
X74919047Y-61652380D01*
X75014285Y-61700000D01*
X75061904Y-61747619D01*
X75109523Y-61842857D01*
X75109523Y-61938095D01*
X75061904Y-62080952D01*
X74490476Y-62652380D01*
X75109523Y-62652380D01*
X75728571Y-61652380D02*
X75823809Y-61652380D01*
X75919047Y-61700000D01*
X75966666Y-61747619D01*
X76014285Y-61842857D01*
X76061904Y-62033333D01*
X76061904Y-62271428D01*
X76014285Y-62461904D01*
X75966666Y-62557142D01*
X75919047Y-62604761D01*
X75823809Y-62652380D01*
X75728571Y-62652380D01*
X75633333Y-62604761D01*
X75585714Y-62557142D01*
X75538095Y-62461904D01*
X75490476Y-62271428D01*
X75490476Y-62033333D01*
X75538095Y-61842857D01*
X75585714Y-61747619D01*
X75633333Y-61700000D01*
X75728571Y-61652380D01*
X108557142Y-87852380D02*
X108223809Y-87376190D01*
X107985714Y-87852380D02*
X107985714Y-86852380D01*
X108366666Y-86852380D01*
X108461904Y-86900000D01*
X108509523Y-86947619D01*
X108557142Y-87042857D01*
X108557142Y-87185714D01*
X108509523Y-87280952D01*
X108461904Y-87328571D01*
X108366666Y-87376190D01*
X107985714Y-87376190D01*
X109509523Y-87852380D02*
X108938095Y-87852380D01*
X109223809Y-87852380D02*
X109223809Y-86852380D01*
X109128571Y-86995238D01*
X109033333Y-87090476D01*
X108938095Y-87138095D01*
X110080952Y-87280952D02*
X109985714Y-87233333D01*
X109938095Y-87185714D01*
X109890476Y-87090476D01*
X109890476Y-87042857D01*
X109938095Y-86947619D01*
X109985714Y-86900000D01*
X110080952Y-86852380D01*
X110271428Y-86852380D01*
X110366666Y-86900000D01*
X110414285Y-86947619D01*
X110461904Y-87042857D01*
X110461904Y-87090476D01*
X110414285Y-87185714D01*
X110366666Y-87233333D01*
X110271428Y-87280952D01*
X110080952Y-87280952D01*
X109985714Y-87328571D01*
X109938095Y-87376190D01*
X109890476Y-87471428D01*
X109890476Y-87661904D01*
X109938095Y-87757142D01*
X109985714Y-87804761D01*
X110080952Y-87852380D01*
X110271428Y-87852380D01*
X110366666Y-87804761D01*
X110414285Y-87757142D01*
X110461904Y-87661904D01*
X110461904Y-87471428D01*
X110414285Y-87376190D01*
X110366666Y-87328571D01*
X110271428Y-87280952D01*
X111657142Y-82652380D02*
X111323809Y-82176190D01*
X111085714Y-82652380D02*
X111085714Y-81652380D01*
X111466666Y-81652380D01*
X111561904Y-81700000D01*
X111609523Y-81747619D01*
X111657142Y-81842857D01*
X111657142Y-81985714D01*
X111609523Y-82080952D01*
X111561904Y-82128571D01*
X111466666Y-82176190D01*
X111085714Y-82176190D01*
X112609523Y-82652380D02*
X112038095Y-82652380D01*
X112323809Y-82652380D02*
X112323809Y-81652380D01*
X112228571Y-81795238D01*
X112133333Y-81890476D01*
X112038095Y-81938095D01*
X112942857Y-81652380D02*
X113609523Y-81652380D01*
X113180952Y-82652380D01*
X118557142Y-84052380D02*
X118223809Y-83576190D01*
X117985714Y-84052380D02*
X117985714Y-83052380D01*
X118366666Y-83052380D01*
X118461904Y-83100000D01*
X118509523Y-83147619D01*
X118557142Y-83242857D01*
X118557142Y-83385714D01*
X118509523Y-83480952D01*
X118461904Y-83528571D01*
X118366666Y-83576190D01*
X117985714Y-83576190D01*
X119509523Y-84052380D02*
X118938095Y-84052380D01*
X119223809Y-84052380D02*
X119223809Y-83052380D01*
X119128571Y-83195238D01*
X119033333Y-83290476D01*
X118938095Y-83338095D01*
X120366666Y-83052380D02*
X120176190Y-83052380D01*
X120080952Y-83100000D01*
X120033333Y-83147619D01*
X119938095Y-83290476D01*
X119890476Y-83480952D01*
X119890476Y-83861904D01*
X119938095Y-83957142D01*
X119985714Y-84004761D01*
X120080952Y-84052380D01*
X120271428Y-84052380D01*
X120366666Y-84004761D01*
X120414285Y-83957142D01*
X120461904Y-83861904D01*
X120461904Y-83623809D01*
X120414285Y-83528571D01*
X120366666Y-83480952D01*
X120271428Y-83433333D01*
X120080952Y-83433333D01*
X119985714Y-83480952D01*
X119938095Y-83528571D01*
X119890476Y-83623809D01*
X114857142Y-146052380D02*
X114523809Y-145576190D01*
X114285714Y-146052380D02*
X114285714Y-145052380D01*
X114666666Y-145052380D01*
X114761904Y-145100000D01*
X114809523Y-145147619D01*
X114857142Y-145242857D01*
X114857142Y-145385714D01*
X114809523Y-145480952D01*
X114761904Y-145528571D01*
X114666666Y-145576190D01*
X114285714Y-145576190D01*
X115809523Y-146052380D02*
X115238095Y-146052380D01*
X115523809Y-146052380D02*
X115523809Y-145052380D01*
X115428571Y-145195238D01*
X115333333Y-145290476D01*
X115238095Y-145338095D01*
X116714285Y-145052380D02*
X116238095Y-145052380D01*
X116190476Y-145528571D01*
X116238095Y-145480952D01*
X116333333Y-145433333D01*
X116571428Y-145433333D01*
X116666666Y-145480952D01*
X116714285Y-145528571D01*
X116761904Y-145623809D01*
X116761904Y-145861904D01*
X116714285Y-145957142D01*
X116666666Y-146004761D01*
X116571428Y-146052380D01*
X116333333Y-146052380D01*
X116238095Y-146004761D01*
X116190476Y-145957142D01*
X114857142Y-147452380D02*
X114523809Y-146976190D01*
X114285714Y-147452380D02*
X114285714Y-146452380D01*
X114666666Y-146452380D01*
X114761904Y-146500000D01*
X114809523Y-146547619D01*
X114857142Y-146642857D01*
X114857142Y-146785714D01*
X114809523Y-146880952D01*
X114761904Y-146928571D01*
X114666666Y-146976190D01*
X114285714Y-146976190D01*
X115809523Y-147452380D02*
X115238095Y-147452380D01*
X115523809Y-147452380D02*
X115523809Y-146452380D01*
X115428571Y-146595238D01*
X115333333Y-146690476D01*
X115238095Y-146738095D01*
X116666666Y-146785714D02*
X116666666Y-147452380D01*
X116428571Y-146404761D02*
X116190476Y-147119047D01*
X116809523Y-147119047D01*
X156957142Y-135152380D02*
X156623809Y-134676190D01*
X156385714Y-135152380D02*
X156385714Y-134152380D01*
X156766666Y-134152380D01*
X156861904Y-134200000D01*
X156909523Y-134247619D01*
X156957142Y-134342857D01*
X156957142Y-134485714D01*
X156909523Y-134580952D01*
X156861904Y-134628571D01*
X156766666Y-134676190D01*
X156385714Y-134676190D01*
X157909523Y-135152380D02*
X157338095Y-135152380D01*
X157623809Y-135152380D02*
X157623809Y-134152380D01*
X157528571Y-134295238D01*
X157433333Y-134390476D01*
X157338095Y-134438095D01*
X158861904Y-135152380D02*
X158290476Y-135152380D01*
X158576190Y-135152380D02*
X158576190Y-134152380D01*
X158480952Y-134295238D01*
X158385714Y-134390476D01*
X158290476Y-134438095D01*
X111757142Y-146052380D02*
X111423809Y-145576190D01*
X111185714Y-146052380D02*
X111185714Y-145052380D01*
X111566666Y-145052380D01*
X111661904Y-145100000D01*
X111709523Y-145147619D01*
X111757142Y-145242857D01*
X111757142Y-145385714D01*
X111709523Y-145480952D01*
X111661904Y-145528571D01*
X111566666Y-145576190D01*
X111185714Y-145576190D01*
X112709523Y-146052380D02*
X112138095Y-146052380D01*
X112423809Y-146052380D02*
X112423809Y-145052380D01*
X112328571Y-145195238D01*
X112233333Y-145290476D01*
X112138095Y-145338095D01*
X113328571Y-145052380D02*
X113423809Y-145052380D01*
X113519047Y-145100000D01*
X113566666Y-145147619D01*
X113614285Y-145242857D01*
X113661904Y-145433333D01*
X113661904Y-145671428D01*
X113614285Y-145861904D01*
X113566666Y-145957142D01*
X113519047Y-146004761D01*
X113423809Y-146052380D01*
X113328571Y-146052380D01*
X113233333Y-146004761D01*
X113185714Y-145957142D01*
X113138095Y-145861904D01*
X113090476Y-145671428D01*
X113090476Y-145433333D01*
X113138095Y-145242857D01*
X113185714Y-145147619D01*
X113233333Y-145100000D01*
X113328571Y-145052380D01*
X112233333Y-147452380D02*
X111900000Y-146976190D01*
X111661904Y-147452380D02*
X111661904Y-146452380D01*
X112042857Y-146452380D01*
X112138095Y-146500000D01*
X112185714Y-146547619D01*
X112233333Y-146642857D01*
X112233333Y-146785714D01*
X112185714Y-146880952D01*
X112138095Y-146928571D01*
X112042857Y-146976190D01*
X111661904Y-146976190D01*
X112709523Y-147452380D02*
X112900000Y-147452380D01*
X112995238Y-147404761D01*
X113042857Y-147357142D01*
X113138095Y-147214285D01*
X113185714Y-147023809D01*
X113185714Y-146642857D01*
X113138095Y-146547619D01*
X113090476Y-146500000D01*
X112995238Y-146452380D01*
X112804761Y-146452380D01*
X112709523Y-146500000D01*
X112661904Y-146547619D01*
X112614285Y-146642857D01*
X112614285Y-146880952D01*
X112661904Y-146976190D01*
X112709523Y-147023809D01*
X112804761Y-147071428D01*
X112995238Y-147071428D01*
X113090476Y-147023809D01*
X113138095Y-146976190D01*
X113185714Y-146880952D01*
X157033333Y-145152380D02*
X156700000Y-144676190D01*
X156461904Y-145152380D02*
X156461904Y-144152380D01*
X156842857Y-144152380D01*
X156938095Y-144200000D01*
X156985714Y-144247619D01*
X157033333Y-144342857D01*
X157033333Y-144485714D01*
X156985714Y-144580952D01*
X156938095Y-144628571D01*
X156842857Y-144676190D01*
X156461904Y-144676190D01*
X157604761Y-144580952D02*
X157509523Y-144533333D01*
X157461904Y-144485714D01*
X157414285Y-144390476D01*
X157414285Y-144342857D01*
X157461904Y-144247619D01*
X157509523Y-144200000D01*
X157604761Y-144152380D01*
X157795238Y-144152380D01*
X157890476Y-144200000D01*
X157938095Y-144247619D01*
X157985714Y-144342857D01*
X157985714Y-144390476D01*
X157938095Y-144485714D01*
X157890476Y-144533333D01*
X157795238Y-144580952D01*
X157604761Y-144580952D01*
X157509523Y-144628571D01*
X157461904Y-144676190D01*
X157414285Y-144771428D01*
X157414285Y-144961904D01*
X157461904Y-145057142D01*
X157509523Y-145104761D01*
X157604761Y-145152380D01*
X157795238Y-145152380D01*
X157890476Y-145104761D01*
X157938095Y-145057142D01*
X157985714Y-144961904D01*
X157985714Y-144771428D01*
X157938095Y-144676190D01*
X157890476Y-144628571D01*
X157795238Y-144580952D01*
X83233333Y-146052380D02*
X82900000Y-145576190D01*
X82661904Y-146052380D02*
X82661904Y-145052380D01*
X83042857Y-145052380D01*
X83138095Y-145100000D01*
X83185714Y-145147619D01*
X83233333Y-145242857D01*
X83233333Y-145385714D01*
X83185714Y-145480952D01*
X83138095Y-145528571D01*
X83042857Y-145576190D01*
X82661904Y-145576190D01*
X83566666Y-145052380D02*
X84233333Y-145052380D01*
X83804761Y-146052380D01*
X83233333Y-147452380D02*
X82900000Y-146976190D01*
X82661904Y-147452380D02*
X82661904Y-146452380D01*
X83042857Y-146452380D01*
X83138095Y-146500000D01*
X83185714Y-146547619D01*
X83233333Y-146642857D01*
X83233333Y-146785714D01*
X83185714Y-146880952D01*
X83138095Y-146928571D01*
X83042857Y-146976190D01*
X82661904Y-146976190D01*
X84090476Y-146452380D02*
X83900000Y-146452380D01*
X83804761Y-146500000D01*
X83757142Y-146547619D01*
X83661904Y-146690476D01*
X83614285Y-146880952D01*
X83614285Y-147261904D01*
X83661904Y-147357142D01*
X83709523Y-147404761D01*
X83804761Y-147452380D01*
X83995238Y-147452380D01*
X84090476Y-147404761D01*
X84138095Y-147357142D01*
X84185714Y-147261904D01*
X84185714Y-147023809D01*
X84138095Y-146928571D01*
X84090476Y-146880952D01*
X83995238Y-146833333D01*
X83804761Y-146833333D01*
X83709523Y-146880952D01*
X83661904Y-146928571D01*
X83614285Y-147023809D01*
X147033333Y-135152380D02*
X146700000Y-134676190D01*
X146461904Y-135152380D02*
X146461904Y-134152380D01*
X146842857Y-134152380D01*
X146938095Y-134200000D01*
X146985714Y-134247619D01*
X147033333Y-134342857D01*
X147033333Y-134485714D01*
X146985714Y-134580952D01*
X146938095Y-134628571D01*
X146842857Y-134676190D01*
X146461904Y-134676190D01*
X147938095Y-134152380D02*
X147461904Y-134152380D01*
X147414285Y-134628571D01*
X147461904Y-134580952D01*
X147557142Y-134533333D01*
X147795238Y-134533333D01*
X147890476Y-134580952D01*
X147938095Y-134628571D01*
X147985714Y-134723809D01*
X147985714Y-134961904D01*
X147938095Y-135057142D01*
X147890476Y-135104761D01*
X147795238Y-135152380D01*
X147557142Y-135152380D01*
X147461904Y-135104761D01*
X147414285Y-135057142D01*
X101633333Y-75052380D02*
X101300000Y-74576190D01*
X101061904Y-75052380D02*
X101061904Y-74052380D01*
X101442857Y-74052380D01*
X101538095Y-74100000D01*
X101585714Y-74147619D01*
X101633333Y-74242857D01*
X101633333Y-74385714D01*
X101585714Y-74480952D01*
X101538095Y-74528571D01*
X101442857Y-74576190D01*
X101061904Y-74576190D01*
X102490476Y-74385714D02*
X102490476Y-75052380D01*
X102252380Y-74004761D02*
X102014285Y-74719047D01*
X102633333Y-74719047D01*
X147033333Y-145152380D02*
X146700000Y-144676190D01*
X146461904Y-145152380D02*
X146461904Y-144152380D01*
X146842857Y-144152380D01*
X146938095Y-144200000D01*
X146985714Y-144247619D01*
X147033333Y-144342857D01*
X147033333Y-144485714D01*
X146985714Y-144580952D01*
X146938095Y-144628571D01*
X146842857Y-144676190D01*
X146461904Y-144676190D01*
X147366666Y-144152380D02*
X147985714Y-144152380D01*
X147652380Y-144533333D01*
X147795238Y-144533333D01*
X147890476Y-144580952D01*
X147938095Y-144628571D01*
X147985714Y-144723809D01*
X147985714Y-144961904D01*
X147938095Y-145057142D01*
X147890476Y-145104761D01*
X147795238Y-145152380D01*
X147509523Y-145152380D01*
X147414285Y-145104761D01*
X147366666Y-145057142D01*
X80233333Y-146052380D02*
X79900000Y-145576190D01*
X79661904Y-146052380D02*
X79661904Y-145052380D01*
X80042857Y-145052380D01*
X80138095Y-145100000D01*
X80185714Y-145147619D01*
X80233333Y-145242857D01*
X80233333Y-145385714D01*
X80185714Y-145480952D01*
X80138095Y-145528571D01*
X80042857Y-145576190D01*
X79661904Y-145576190D01*
X80614285Y-145147619D02*
X80661904Y-145100000D01*
X80757142Y-145052380D01*
X80995238Y-145052380D01*
X81090476Y-145100000D01*
X81138095Y-145147619D01*
X81185714Y-145242857D01*
X81185714Y-145338095D01*
X81138095Y-145480952D01*
X80566666Y-146052380D01*
X81185714Y-146052380D01*
X80233333Y-147452380D02*
X79900000Y-146976190D01*
X79661904Y-147452380D02*
X79661904Y-146452380D01*
X80042857Y-146452380D01*
X80138095Y-146500000D01*
X80185714Y-146547619D01*
X80233333Y-146642857D01*
X80233333Y-146785714D01*
X80185714Y-146880952D01*
X80138095Y-146928571D01*
X80042857Y-146976190D01*
X79661904Y-146976190D01*
X81185714Y-147452380D02*
X80614285Y-147452380D01*
X80900000Y-147452380D02*
X80900000Y-146452380D01*
X80804761Y-146595238D01*
X80709523Y-146690476D01*
X80614285Y-146738095D01*
X67504761Y-105847619D02*
X67409523Y-105800000D01*
X67314285Y-105704761D01*
X67171428Y-105561904D01*
X67076190Y-105514285D01*
X66980952Y-105514285D01*
X67028571Y-105752380D02*
X66933333Y-105704761D01*
X66838095Y-105609523D01*
X66790476Y-105419047D01*
X66790476Y-105085714D01*
X66838095Y-104895238D01*
X66933333Y-104800000D01*
X67028571Y-104752380D01*
X67219047Y-104752380D01*
X67314285Y-104800000D01*
X67409523Y-104895238D01*
X67457142Y-105085714D01*
X67457142Y-105419047D01*
X67409523Y-105609523D01*
X67314285Y-105704761D01*
X67219047Y-105752380D01*
X67028571Y-105752380D01*
X67790476Y-104752380D02*
X68409523Y-104752380D01*
X68076190Y-105133333D01*
X68219047Y-105133333D01*
X68314285Y-105180952D01*
X68361904Y-105228571D01*
X68409523Y-105323809D01*
X68409523Y-105561904D01*
X68361904Y-105657142D01*
X68314285Y-105704761D01*
X68219047Y-105752380D01*
X67933333Y-105752380D01*
X67838095Y-105704761D01*
X67790476Y-105657142D01*
X86233333Y-133052380D02*
X85757142Y-133052380D01*
X85757142Y-132052380D01*
X86519047Y-132147619D02*
X86566666Y-132100000D01*
X86661904Y-132052380D01*
X86900000Y-132052380D01*
X86995238Y-132100000D01*
X87042857Y-132147619D01*
X87090476Y-132242857D01*
X87090476Y-132338095D01*
X87042857Y-132480952D01*
X86471428Y-133052380D01*
X87090476Y-133052380D01*
X93233333Y-74252380D02*
X92757142Y-74252380D01*
X92757142Y-73252380D01*
X94090476Y-74252380D02*
X93519047Y-74252380D01*
X93804761Y-74252380D02*
X93804761Y-73252380D01*
X93709523Y-73395238D01*
X93614285Y-73490476D01*
X93519047Y-73538095D01*
X94966666Y-108852380D02*
X94966666Y-109566666D01*
X94919047Y-109709523D01*
X94823809Y-109804761D01*
X94680952Y-109852380D01*
X94585714Y-109852380D01*
X95442857Y-109852380D02*
X95442857Y-108852380D01*
X95823809Y-108852380D01*
X95919047Y-108900000D01*
X95966666Y-108947619D01*
X96014285Y-109042857D01*
X96014285Y-109185714D01*
X95966666Y-109280952D01*
X95919047Y-109328571D01*
X95823809Y-109376190D01*
X95442857Y-109376190D01*
X96347619Y-108852380D02*
X97014285Y-108852380D01*
X96585714Y-109852380D01*
X118466666Y-104852380D02*
X118466666Y-105566666D01*
X118419047Y-105709523D01*
X118323809Y-105804761D01*
X118180952Y-105852380D01*
X118085714Y-105852380D01*
X118942857Y-105852380D02*
X118942857Y-104852380D01*
X119323809Y-104852380D01*
X119419047Y-104900000D01*
X119466666Y-104947619D01*
X119514285Y-105042857D01*
X119514285Y-105185714D01*
X119466666Y-105280952D01*
X119419047Y-105328571D01*
X119323809Y-105376190D01*
X118942857Y-105376190D01*
X120371428Y-104852380D02*
X120180952Y-104852380D01*
X120085714Y-104900000D01*
X120038095Y-104947619D01*
X119942857Y-105090476D01*
X119895238Y-105280952D01*
X119895238Y-105661904D01*
X119942857Y-105757142D01*
X119990476Y-105804761D01*
X120085714Y-105852380D01*
X120276190Y-105852380D01*
X120371428Y-105804761D01*
X120419047Y-105757142D01*
X120466666Y-105661904D01*
X120466666Y-105423809D01*
X120419047Y-105328571D01*
X120371428Y-105280952D01*
X120276190Y-105233333D01*
X120085714Y-105233333D01*
X119990476Y-105280952D01*
X119942857Y-105328571D01*
X119895238Y-105423809D01*
X98966666Y-119652380D02*
X98966666Y-120366666D01*
X98919047Y-120509523D01*
X98823809Y-120604761D01*
X98680952Y-120652380D01*
X98585714Y-120652380D01*
X99442857Y-120652380D02*
X99442857Y-119652380D01*
X99823809Y-119652380D01*
X99919047Y-119700000D01*
X99966666Y-119747619D01*
X100014285Y-119842857D01*
X100014285Y-119985714D01*
X99966666Y-120080952D01*
X99919047Y-120128571D01*
X99823809Y-120176190D01*
X99442857Y-120176190D01*
X100919047Y-119652380D02*
X100442857Y-119652380D01*
X100395238Y-120128571D01*
X100442857Y-120080952D01*
X100538095Y-120033333D01*
X100776190Y-120033333D01*
X100871428Y-120080952D01*
X100919047Y-120128571D01*
X100966666Y-120223809D01*
X100966666Y-120461904D01*
X100919047Y-120557142D01*
X100871428Y-120604761D01*
X100776190Y-120652380D01*
X100538095Y-120652380D01*
X100442857Y-120604761D01*
X100395238Y-120557142D01*
X134766666Y-105852380D02*
X134766666Y-106566666D01*
X134719047Y-106709523D01*
X134623809Y-106804761D01*
X134480952Y-106852380D01*
X134385714Y-106852380D01*
X135242857Y-106852380D02*
X135242857Y-105852380D01*
X135623809Y-105852380D01*
X135719047Y-105900000D01*
X135766666Y-105947619D01*
X135814285Y-106042857D01*
X135814285Y-106185714D01*
X135766666Y-106280952D01*
X135719047Y-106328571D01*
X135623809Y-106376190D01*
X135242857Y-106376190D01*
X136147619Y-105852380D02*
X136766666Y-105852380D01*
X136433333Y-106233333D01*
X136576190Y-106233333D01*
X136671428Y-106280952D01*
X136719047Y-106328571D01*
X136766666Y-106423809D01*
X136766666Y-106661904D01*
X136719047Y-106757142D01*
X136671428Y-106804761D01*
X136576190Y-106852380D01*
X136290476Y-106852380D01*
X136195238Y-106804761D01*
X136147619Y-106757142D01*
X84566666Y-72652380D02*
X84566666Y-73366666D01*
X84519047Y-73509523D01*
X84423809Y-73604761D01*
X84280952Y-73652380D01*
X84185714Y-73652380D01*
X85042857Y-73652380D02*
X85042857Y-72652380D01*
X85423809Y-72652380D01*
X85519047Y-72700000D01*
X85566666Y-72747619D01*
X85614285Y-72842857D01*
X85614285Y-72985714D01*
X85566666Y-73080952D01*
X85519047Y-73128571D01*
X85423809Y-73176190D01*
X85042857Y-73176190D01*
X85995238Y-72747619D02*
X86042857Y-72700000D01*
X86138095Y-72652380D01*
X86376190Y-72652380D01*
X86471428Y-72700000D01*
X86519047Y-72747619D01*
X86566666Y-72842857D01*
X86566666Y-72938095D01*
X86519047Y-73080952D01*
X85947619Y-73652380D01*
X86566666Y-73652380D01*
X137566666Y-74252380D02*
X137566666Y-74966666D01*
X137519047Y-75109523D01*
X137423809Y-75204761D01*
X137280952Y-75252380D01*
X137185714Y-75252380D01*
X138042857Y-75252380D02*
X138042857Y-74252380D01*
X138423809Y-74252380D01*
X138519047Y-74300000D01*
X138566666Y-74347619D01*
X138614285Y-74442857D01*
X138614285Y-74585714D01*
X138566666Y-74680952D01*
X138519047Y-74728571D01*
X138423809Y-74776190D01*
X138042857Y-74776190D01*
X139566666Y-75252380D02*
X138995238Y-75252380D01*
X139280952Y-75252380D02*
X139280952Y-74252380D01*
X139185714Y-74395238D01*
X139090476Y-74490476D01*
X138995238Y-74538095D01*
X92790476Y-106452380D02*
X92790476Y-107166666D01*
X92742857Y-107309523D01*
X92647619Y-107404761D01*
X92504761Y-107452380D01*
X92409523Y-107452380D01*
X93790476Y-107452380D02*
X93219047Y-107452380D01*
X93504761Y-107452380D02*
X93504761Y-106452380D01*
X93409523Y-106595238D01*
X93314285Y-106690476D01*
X93219047Y-106738095D01*
X94409523Y-106452380D02*
X94504761Y-106452380D01*
X94600000Y-106500000D01*
X94647619Y-106547619D01*
X94695238Y-106642857D01*
X94742857Y-106833333D01*
X94742857Y-107071428D01*
X94695238Y-107261904D01*
X94647619Y-107357142D01*
X94600000Y-107404761D01*
X94504761Y-107452380D01*
X94409523Y-107452380D01*
X94314285Y-107404761D01*
X94266666Y-107357142D01*
X94219047Y-107261904D01*
X94171428Y-107071428D01*
X94171428Y-106833333D01*
X94219047Y-106642857D01*
X94266666Y-106547619D01*
X94314285Y-106500000D01*
X94409523Y-106452380D01*
X116266666Y-102452380D02*
X116266666Y-103166666D01*
X116219047Y-103309523D01*
X116123809Y-103404761D01*
X115980952Y-103452380D01*
X115885714Y-103452380D01*
X116790476Y-103452380D02*
X116980952Y-103452380D01*
X117076190Y-103404761D01*
X117123809Y-103357142D01*
X117219047Y-103214285D01*
X117266666Y-103023809D01*
X117266666Y-102642857D01*
X117219047Y-102547619D01*
X117171428Y-102500000D01*
X117076190Y-102452380D01*
X116885714Y-102452380D01*
X116790476Y-102500000D01*
X116742857Y-102547619D01*
X116695238Y-102642857D01*
X116695238Y-102880952D01*
X116742857Y-102976190D01*
X116790476Y-103023809D01*
X116885714Y-103071428D01*
X117076190Y-103071428D01*
X117171428Y-103023809D01*
X117219047Y-102976190D01*
X117266666Y-102880952D01*
X137866666Y-106582380D02*
X137866666Y-107296666D01*
X137819047Y-107439523D01*
X137723809Y-107534761D01*
X137580952Y-107582380D01*
X137485714Y-107582380D01*
X138771428Y-106582380D02*
X138580952Y-106582380D01*
X138485714Y-106630000D01*
X138438095Y-106677619D01*
X138342857Y-106820476D01*
X138295238Y-107010952D01*
X138295238Y-107391904D01*
X138342857Y-107487142D01*
X138390476Y-107534761D01*
X138485714Y-107582380D01*
X138676190Y-107582380D01*
X138771428Y-107534761D01*
X138819047Y-107487142D01*
X138866666Y-107391904D01*
X138866666Y-107153809D01*
X138819047Y-107058571D01*
X138771428Y-107010952D01*
X138676190Y-106963333D01*
X138485714Y-106963333D01*
X138390476Y-107010952D01*
X138342857Y-107058571D01*
X138295238Y-107153809D01*
X90266666Y-69252380D02*
X90266666Y-69966666D01*
X90219047Y-70109523D01*
X90123809Y-70204761D01*
X89980952Y-70252380D01*
X89885714Y-70252380D01*
X91171428Y-69585714D02*
X91171428Y-70252380D01*
X90933333Y-69204761D02*
X90695238Y-69919047D01*
X91314285Y-69919047D01*
X141266666Y-72652380D02*
X141266666Y-73366666D01*
X141219047Y-73509523D01*
X141123809Y-73604761D01*
X140980952Y-73652380D01*
X140885714Y-73652380D01*
X141695238Y-72747619D02*
X141742857Y-72700000D01*
X141838095Y-72652380D01*
X142076190Y-72652380D01*
X142171428Y-72700000D01*
X142219047Y-72747619D01*
X142266666Y-72842857D01*
X142266666Y-72938095D01*
X142219047Y-73080952D01*
X141647619Y-73652380D01*
X142266666Y-73652380D01*
X115985714Y-121652380D02*
X115985714Y-120652380D01*
X116223809Y-120652380D01*
X116366666Y-120700000D01*
X116461904Y-120795238D01*
X116509523Y-120890476D01*
X116557142Y-121080952D01*
X116557142Y-121223809D01*
X116509523Y-121414285D01*
X116461904Y-121509523D01*
X116366666Y-121604761D01*
X116223809Y-121652380D01*
X115985714Y-121652380D01*
X117509523Y-121652380D02*
X116938095Y-121652380D01*
X117223809Y-121652380D02*
X117223809Y-120652380D01*
X117128571Y-120795238D01*
X117033333Y-120890476D01*
X116938095Y-120938095D01*
X118366666Y-120652380D02*
X118176190Y-120652380D01*
X118080952Y-120700000D01*
X118033333Y-120747619D01*
X117938095Y-120890476D01*
X117890476Y-121080952D01*
X117890476Y-121461904D01*
X117938095Y-121557142D01*
X117985714Y-121604761D01*
X118080952Y-121652380D01*
X118271428Y-121652380D01*
X118366666Y-121604761D01*
X118414285Y-121557142D01*
X118461904Y-121461904D01*
X118461904Y-121223809D01*
X118414285Y-121128571D01*
X118366666Y-121080952D01*
X118271428Y-121033333D01*
X118080952Y-121033333D01*
X117985714Y-121080952D01*
X117938095Y-121128571D01*
X117890476Y-121223809D01*
X94652380Y-122414285D02*
X93652380Y-122414285D01*
X93652380Y-122176190D01*
X93700000Y-122033333D01*
X93795238Y-121938095D01*
X93890476Y-121890476D01*
X94080952Y-121842857D01*
X94223809Y-121842857D01*
X94414285Y-121890476D01*
X94509523Y-121938095D01*
X94604761Y-122033333D01*
X94652380Y-122176190D01*
X94652380Y-122414285D01*
X94652380Y-120890476D02*
X94652380Y-121461904D01*
X94652380Y-121176190D02*
X93652380Y-121176190D01*
X93795238Y-121271428D01*
X93890476Y-121366666D01*
X93938095Y-121461904D01*
X93652380Y-119985714D02*
X93652380Y-120461904D01*
X94128571Y-120509523D01*
X94080952Y-120461904D01*
X94033333Y-120366666D01*
X94033333Y-120128571D01*
X94080952Y-120033333D01*
X94128571Y-119985714D01*
X94223809Y-119938095D01*
X94461904Y-119938095D01*
X94557142Y-119985714D01*
X94604761Y-120033333D01*
X94652380Y-120128571D01*
X94652380Y-120366666D01*
X94604761Y-120461904D01*
X94557142Y-120509523D01*
X50385714Y-139052380D02*
X50385714Y-138052380D01*
X50623809Y-138052380D01*
X50766666Y-138100000D01*
X50861904Y-138195238D01*
X50909523Y-138290476D01*
X50957142Y-138480952D01*
X50957142Y-138623809D01*
X50909523Y-138814285D01*
X50861904Y-138909523D01*
X50766666Y-139004761D01*
X50623809Y-139052380D01*
X50385714Y-139052380D01*
X51909523Y-139052380D02*
X51338095Y-139052380D01*
X51623809Y-139052380D02*
X51623809Y-138052380D01*
X51528571Y-138195238D01*
X51433333Y-138290476D01*
X51338095Y-138338095D01*
X52290476Y-138147619D02*
X52338095Y-138100000D01*
X52433333Y-138052380D01*
X52671428Y-138052380D01*
X52766666Y-138100000D01*
X52814285Y-138147619D01*
X52861904Y-138242857D01*
X52861904Y-138338095D01*
X52814285Y-138480952D01*
X52242857Y-139052380D01*
X52861904Y-139052380D01*
X59385714Y-122852380D02*
X59385714Y-121852380D01*
X59623809Y-121852380D01*
X59766666Y-121900000D01*
X59861904Y-121995238D01*
X59909523Y-122090476D01*
X59957142Y-122280952D01*
X59957142Y-122423809D01*
X59909523Y-122614285D01*
X59861904Y-122709523D01*
X59766666Y-122804761D01*
X59623809Y-122852380D01*
X59385714Y-122852380D01*
X60909523Y-122852380D02*
X60338095Y-122852380D01*
X60623809Y-122852380D02*
X60623809Y-121852380D01*
X60528571Y-121995238D01*
X60433333Y-122090476D01*
X60338095Y-122138095D01*
X61861904Y-122852380D02*
X61290476Y-122852380D01*
X61576190Y-122852380D02*
X61576190Y-121852380D01*
X61480952Y-121995238D01*
X61385714Y-122090476D01*
X61290476Y-122138095D01*
X50261904Y-131452380D02*
X50261904Y-130452380D01*
X50500000Y-130452380D01*
X50642857Y-130500000D01*
X50738095Y-130595238D01*
X50785714Y-130690476D01*
X50833333Y-130880952D01*
X50833333Y-131023809D01*
X50785714Y-131214285D01*
X50738095Y-131309523D01*
X50642857Y-131404761D01*
X50500000Y-131452380D01*
X50261904Y-131452380D01*
X51309523Y-131452380D02*
X51500000Y-131452380D01*
X51595238Y-131404761D01*
X51642857Y-131357142D01*
X51738095Y-131214285D01*
X51785714Y-131023809D01*
X51785714Y-130642857D01*
X51738095Y-130547619D01*
X51690476Y-130500000D01*
X51595238Y-130452380D01*
X51404761Y-130452380D01*
X51309523Y-130500000D01*
X51261904Y-130547619D01*
X51214285Y-130642857D01*
X51214285Y-130880952D01*
X51261904Y-130976190D01*
X51309523Y-131023809D01*
X51404761Y-131071428D01*
X51595238Y-131071428D01*
X51690476Y-131023809D01*
X51738095Y-130976190D01*
X51785714Y-130880952D01*
X150991904Y-138112380D02*
X150991904Y-137112380D01*
X151230000Y-137112380D01*
X151372857Y-137160000D01*
X151468095Y-137255238D01*
X151515714Y-137350476D01*
X151563333Y-137540952D01*
X151563333Y-137683809D01*
X151515714Y-137874285D01*
X151468095Y-137969523D01*
X151372857Y-138064761D01*
X151230000Y-138112380D01*
X150991904Y-138112380D01*
X152134761Y-137540952D02*
X152039523Y-137493333D01*
X151991904Y-137445714D01*
X151944285Y-137350476D01*
X151944285Y-137302857D01*
X151991904Y-137207619D01*
X152039523Y-137160000D01*
X152134761Y-137112380D01*
X152325238Y-137112380D01*
X152420476Y-137160000D01*
X152468095Y-137207619D01*
X152515714Y-137302857D01*
X152515714Y-137350476D01*
X152468095Y-137445714D01*
X152420476Y-137493333D01*
X152325238Y-137540952D01*
X152134761Y-137540952D01*
X152039523Y-137588571D01*
X151991904Y-137636190D01*
X151944285Y-137731428D01*
X151944285Y-137921904D01*
X151991904Y-138017142D01*
X152039523Y-138064761D01*
X152134761Y-138112380D01*
X152325238Y-138112380D01*
X152420476Y-138064761D01*
X152468095Y-138017142D01*
X152515714Y-137921904D01*
X152515714Y-137731428D01*
X152468095Y-137636190D01*
X152420476Y-137588571D01*
X152325238Y-137540952D01*
X150861904Y-131252380D02*
X150861904Y-130252380D01*
X151100000Y-130252380D01*
X151242857Y-130300000D01*
X151338095Y-130395238D01*
X151385714Y-130490476D01*
X151433333Y-130680952D01*
X151433333Y-130823809D01*
X151385714Y-131014285D01*
X151338095Y-131109523D01*
X151242857Y-131204761D01*
X151100000Y-131252380D01*
X150861904Y-131252380D01*
X151766666Y-130252380D02*
X152433333Y-130252380D01*
X152004761Y-131252380D01*
X150991904Y-148112380D02*
X150991904Y-147112380D01*
X151230000Y-147112380D01*
X151372857Y-147160000D01*
X151468095Y-147255238D01*
X151515714Y-147350476D01*
X151563333Y-147540952D01*
X151563333Y-147683809D01*
X151515714Y-147874285D01*
X151468095Y-147969523D01*
X151372857Y-148064761D01*
X151230000Y-148112380D01*
X150991904Y-148112380D01*
X152420476Y-147112380D02*
X152230000Y-147112380D01*
X152134761Y-147160000D01*
X152087142Y-147207619D01*
X151991904Y-147350476D01*
X151944285Y-147540952D01*
X151944285Y-147921904D01*
X151991904Y-148017142D01*
X152039523Y-148064761D01*
X152134761Y-148112380D01*
X152325238Y-148112380D01*
X152420476Y-148064761D01*
X152468095Y-148017142D01*
X152515714Y-147921904D01*
X152515714Y-147683809D01*
X152468095Y-147588571D01*
X152420476Y-147540952D01*
X152325238Y-147493333D01*
X152134761Y-147493333D01*
X152039523Y-147540952D01*
X151991904Y-147588571D01*
X151944285Y-147683809D01*
X150861904Y-141252380D02*
X150861904Y-140252380D01*
X151100000Y-140252380D01*
X151242857Y-140300000D01*
X151338095Y-140395238D01*
X151385714Y-140490476D01*
X151433333Y-140680952D01*
X151433333Y-140823809D01*
X151385714Y-141014285D01*
X151338095Y-141109523D01*
X151242857Y-141204761D01*
X151100000Y-141252380D01*
X150861904Y-141252380D01*
X152338095Y-140252380D02*
X151861904Y-140252380D01*
X151814285Y-140728571D01*
X151861904Y-140680952D01*
X151957142Y-140633333D01*
X152195238Y-140633333D01*
X152290476Y-140680952D01*
X152338095Y-140728571D01*
X152385714Y-140823809D01*
X152385714Y-141061904D01*
X152338095Y-141157142D01*
X152290476Y-141204761D01*
X152195238Y-141252380D01*
X151957142Y-141252380D01*
X151861904Y-141204761D01*
X151814285Y-141157142D01*
X140991904Y-138112380D02*
X140991904Y-137112380D01*
X141230000Y-137112380D01*
X141372857Y-137160000D01*
X141468095Y-137255238D01*
X141515714Y-137350476D01*
X141563333Y-137540952D01*
X141563333Y-137683809D01*
X141515714Y-137874285D01*
X141468095Y-137969523D01*
X141372857Y-138064761D01*
X141230000Y-138112380D01*
X140991904Y-138112380D01*
X142420476Y-137445714D02*
X142420476Y-138112380D01*
X142182380Y-137064761D02*
X141944285Y-137779047D01*
X142563333Y-137779047D01*
X140861904Y-131252380D02*
X140861904Y-130252380D01*
X141100000Y-130252380D01*
X141242857Y-130300000D01*
X141338095Y-130395238D01*
X141385714Y-130490476D01*
X141433333Y-130680952D01*
X141433333Y-130823809D01*
X141385714Y-131014285D01*
X141338095Y-131109523D01*
X141242857Y-131204761D01*
X141100000Y-131252380D01*
X140861904Y-131252380D01*
X141766666Y-130252380D02*
X142385714Y-130252380D01*
X142052380Y-130633333D01*
X142195238Y-130633333D01*
X142290476Y-130680952D01*
X142338095Y-130728571D01*
X142385714Y-130823809D01*
X142385714Y-131061904D01*
X142338095Y-131157142D01*
X142290476Y-131204761D01*
X142195238Y-131252380D01*
X141909523Y-131252380D01*
X141814285Y-131204761D01*
X141766666Y-131157142D01*
X140991904Y-148112380D02*
X140991904Y-147112380D01*
X141230000Y-147112380D01*
X141372857Y-147160000D01*
X141468095Y-147255238D01*
X141515714Y-147350476D01*
X141563333Y-147540952D01*
X141563333Y-147683809D01*
X141515714Y-147874285D01*
X141468095Y-147969523D01*
X141372857Y-148064761D01*
X141230000Y-148112380D01*
X140991904Y-148112380D01*
X141944285Y-147207619D02*
X141991904Y-147160000D01*
X142087142Y-147112380D01*
X142325238Y-147112380D01*
X142420476Y-147160000D01*
X142468095Y-147207619D01*
X142515714Y-147302857D01*
X142515714Y-147398095D01*
X142468095Y-147540952D01*
X141896666Y-148112380D01*
X142515714Y-148112380D01*
X140861904Y-141252380D02*
X140861904Y-140252380D01*
X141100000Y-140252380D01*
X141242857Y-140300000D01*
X141338095Y-140395238D01*
X141385714Y-140490476D01*
X141433333Y-140680952D01*
X141433333Y-140823809D01*
X141385714Y-141014285D01*
X141338095Y-141109523D01*
X141242857Y-141204761D01*
X141100000Y-141252380D01*
X140861904Y-141252380D01*
X142385714Y-141252380D02*
X141814285Y-141252380D01*
X142100000Y-141252380D02*
X142100000Y-140252380D01*
X142004761Y-140395238D01*
X141909523Y-140490476D01*
X141814285Y-140538095D01*
X69557142Y-119757142D02*
X69509523Y-119804761D01*
X69366666Y-119852380D01*
X69271428Y-119852380D01*
X69128571Y-119804761D01*
X69033333Y-119709523D01*
X68985714Y-119614285D01*
X68938095Y-119423809D01*
X68938095Y-119280952D01*
X68985714Y-119090476D01*
X69033333Y-118995238D01*
X69128571Y-118900000D01*
X69271428Y-118852380D01*
X69366666Y-118852380D01*
X69509523Y-118900000D01*
X69557142Y-118947619D01*
X70414285Y-119185714D02*
X70414285Y-119852380D01*
X70176190Y-118804761D02*
X69938095Y-119519047D01*
X70557142Y-119519047D01*
X70890476Y-118947619D02*
X70938095Y-118900000D01*
X71033333Y-118852380D01*
X71271428Y-118852380D01*
X71366666Y-118900000D01*
X71414285Y-118947619D01*
X71461904Y-119042857D01*
X71461904Y-119138095D01*
X71414285Y-119280952D01*
X70842857Y-119852380D01*
X71461904Y-119852380D01*
X86757142Y-107157142D02*
X86709523Y-107204761D01*
X86566666Y-107252380D01*
X86471428Y-107252380D01*
X86328571Y-107204761D01*
X86233333Y-107109523D01*
X86185714Y-107014285D01*
X86138095Y-106823809D01*
X86138095Y-106680952D01*
X86185714Y-106490476D01*
X86233333Y-106395238D01*
X86328571Y-106300000D01*
X86471428Y-106252380D01*
X86566666Y-106252380D01*
X86709523Y-106300000D01*
X86757142Y-106347619D01*
X87614285Y-106585714D02*
X87614285Y-107252380D01*
X87376190Y-106204761D02*
X87138095Y-106919047D01*
X87757142Y-106919047D01*
X88661904Y-107252380D02*
X88090476Y-107252380D01*
X88376190Y-107252380D02*
X88376190Y-106252380D01*
X88280952Y-106395238D01*
X88185714Y-106490476D01*
X88090476Y-106538095D01*
X117157142Y-112157142D02*
X117109523Y-112204761D01*
X116966666Y-112252380D01*
X116871428Y-112252380D01*
X116728571Y-112204761D01*
X116633333Y-112109523D01*
X116585714Y-112014285D01*
X116538095Y-111823809D01*
X116538095Y-111680952D01*
X116585714Y-111490476D01*
X116633333Y-111395238D01*
X116728571Y-111300000D01*
X116871428Y-111252380D01*
X116966666Y-111252380D01*
X117109523Y-111300000D01*
X117157142Y-111347619D01*
X118014285Y-111585714D02*
X118014285Y-112252380D01*
X117776190Y-111204761D02*
X117538095Y-111919047D01*
X118157142Y-111919047D01*
X118728571Y-111252380D02*
X118823809Y-111252380D01*
X118919047Y-111300000D01*
X118966666Y-111347619D01*
X119014285Y-111442857D01*
X119061904Y-111633333D01*
X119061904Y-111871428D01*
X119014285Y-112061904D01*
X118966666Y-112157142D01*
X118919047Y-112204761D01*
X118823809Y-112252380D01*
X118728571Y-112252380D01*
X118633333Y-112204761D01*
X118585714Y-112157142D01*
X118538095Y-112061904D01*
X118490476Y-111871428D01*
X118490476Y-111633333D01*
X118538095Y-111442857D01*
X118585714Y-111347619D01*
X118633333Y-111300000D01*
X118728571Y-111252380D01*
X117157142Y-113557142D02*
X117109523Y-113604761D01*
X116966666Y-113652380D01*
X116871428Y-113652380D01*
X116728571Y-113604761D01*
X116633333Y-113509523D01*
X116585714Y-113414285D01*
X116538095Y-113223809D01*
X116538095Y-113080952D01*
X116585714Y-112890476D01*
X116633333Y-112795238D01*
X116728571Y-112700000D01*
X116871428Y-112652380D01*
X116966666Y-112652380D01*
X117109523Y-112700000D01*
X117157142Y-112747619D01*
X117490476Y-112652380D02*
X118109523Y-112652380D01*
X117776190Y-113033333D01*
X117919047Y-113033333D01*
X118014285Y-113080952D01*
X118061904Y-113128571D01*
X118109523Y-113223809D01*
X118109523Y-113461904D01*
X118061904Y-113557142D01*
X118014285Y-113604761D01*
X117919047Y-113652380D01*
X117633333Y-113652380D01*
X117538095Y-113604761D01*
X117490476Y-113557142D01*
X118585714Y-113652380D02*
X118776190Y-113652380D01*
X118871428Y-113604761D01*
X118919047Y-113557142D01*
X119014285Y-113414285D01*
X119061904Y-113223809D01*
X119061904Y-112842857D01*
X119014285Y-112747619D01*
X118966666Y-112700000D01*
X118871428Y-112652380D01*
X118680952Y-112652380D01*
X118585714Y-112700000D01*
X118538095Y-112747619D01*
X118490476Y-112842857D01*
X118490476Y-113080952D01*
X118538095Y-113176190D01*
X118585714Y-113223809D01*
X118680952Y-113271428D01*
X118871428Y-113271428D01*
X118966666Y-113223809D01*
X119014285Y-113176190D01*
X119061904Y-113080952D01*
X117157142Y-114957142D02*
X117109523Y-115004761D01*
X116966666Y-115052380D01*
X116871428Y-115052380D01*
X116728571Y-115004761D01*
X116633333Y-114909523D01*
X116585714Y-114814285D01*
X116538095Y-114623809D01*
X116538095Y-114480952D01*
X116585714Y-114290476D01*
X116633333Y-114195238D01*
X116728571Y-114100000D01*
X116871428Y-114052380D01*
X116966666Y-114052380D01*
X117109523Y-114100000D01*
X117157142Y-114147619D01*
X117490476Y-114052380D02*
X118109523Y-114052380D01*
X117776190Y-114433333D01*
X117919047Y-114433333D01*
X118014285Y-114480952D01*
X118061904Y-114528571D01*
X118109523Y-114623809D01*
X118109523Y-114861904D01*
X118061904Y-114957142D01*
X118014285Y-115004761D01*
X117919047Y-115052380D01*
X117633333Y-115052380D01*
X117538095Y-115004761D01*
X117490476Y-114957142D01*
X118680952Y-114480952D02*
X118585714Y-114433333D01*
X118538095Y-114385714D01*
X118490476Y-114290476D01*
X118490476Y-114242857D01*
X118538095Y-114147619D01*
X118585714Y-114100000D01*
X118680952Y-114052380D01*
X118871428Y-114052380D01*
X118966666Y-114100000D01*
X119014285Y-114147619D01*
X119061904Y-114242857D01*
X119061904Y-114290476D01*
X119014285Y-114385714D01*
X118966666Y-114433333D01*
X118871428Y-114480952D01*
X118680952Y-114480952D01*
X118585714Y-114528571D01*
X118538095Y-114576190D01*
X118490476Y-114671428D01*
X118490476Y-114861904D01*
X118538095Y-114957142D01*
X118585714Y-115004761D01*
X118680952Y-115052380D01*
X118871428Y-115052380D01*
X118966666Y-115004761D01*
X119014285Y-114957142D01*
X119061904Y-114861904D01*
X119061904Y-114671428D01*
X119014285Y-114576190D01*
X118966666Y-114528571D01*
X118871428Y-114480952D01*
X117157142Y-116357142D02*
X117109523Y-116404761D01*
X116966666Y-116452380D01*
X116871428Y-116452380D01*
X116728571Y-116404761D01*
X116633333Y-116309523D01*
X116585714Y-116214285D01*
X116538095Y-116023809D01*
X116538095Y-115880952D01*
X116585714Y-115690476D01*
X116633333Y-115595238D01*
X116728571Y-115500000D01*
X116871428Y-115452380D01*
X116966666Y-115452380D01*
X117109523Y-115500000D01*
X117157142Y-115547619D01*
X117490476Y-115452380D02*
X118109523Y-115452380D01*
X117776190Y-115833333D01*
X117919047Y-115833333D01*
X118014285Y-115880952D01*
X118061904Y-115928571D01*
X118109523Y-116023809D01*
X118109523Y-116261904D01*
X118061904Y-116357142D01*
X118014285Y-116404761D01*
X117919047Y-116452380D01*
X117633333Y-116452380D01*
X117538095Y-116404761D01*
X117490476Y-116357142D01*
X118442857Y-115452380D02*
X119109523Y-115452380D01*
X118680952Y-116452380D01*
X76957142Y-115557142D02*
X76909523Y-115604761D01*
X76766666Y-115652380D01*
X76671428Y-115652380D01*
X76528571Y-115604761D01*
X76433333Y-115509523D01*
X76385714Y-115414285D01*
X76338095Y-115223809D01*
X76338095Y-115080952D01*
X76385714Y-114890476D01*
X76433333Y-114795238D01*
X76528571Y-114700000D01*
X76671428Y-114652380D01*
X76766666Y-114652380D01*
X76909523Y-114700000D01*
X76957142Y-114747619D01*
X77290476Y-114652380D02*
X77909523Y-114652380D01*
X77576190Y-115033333D01*
X77719047Y-115033333D01*
X77814285Y-115080952D01*
X77861904Y-115128571D01*
X77909523Y-115223809D01*
X77909523Y-115461904D01*
X77861904Y-115557142D01*
X77814285Y-115604761D01*
X77719047Y-115652380D01*
X77433333Y-115652380D01*
X77338095Y-115604761D01*
X77290476Y-115557142D01*
X78766666Y-114652380D02*
X78576190Y-114652380D01*
X78480952Y-114700000D01*
X78433333Y-114747619D01*
X78338095Y-114890476D01*
X78290476Y-115080952D01*
X78290476Y-115461904D01*
X78338095Y-115557142D01*
X78385714Y-115604761D01*
X78480952Y-115652380D01*
X78671428Y-115652380D01*
X78766666Y-115604761D01*
X78814285Y-115557142D01*
X78861904Y-115461904D01*
X78861904Y-115223809D01*
X78814285Y-115128571D01*
X78766666Y-115080952D01*
X78671428Y-115033333D01*
X78480952Y-115033333D01*
X78385714Y-115080952D01*
X78338095Y-115128571D01*
X78290476Y-115223809D01*
X76957142Y-116957142D02*
X76909523Y-117004761D01*
X76766666Y-117052380D01*
X76671428Y-117052380D01*
X76528571Y-117004761D01*
X76433333Y-116909523D01*
X76385714Y-116814285D01*
X76338095Y-116623809D01*
X76338095Y-116480952D01*
X76385714Y-116290476D01*
X76433333Y-116195238D01*
X76528571Y-116100000D01*
X76671428Y-116052380D01*
X76766666Y-116052380D01*
X76909523Y-116100000D01*
X76957142Y-116147619D01*
X77290476Y-116052380D02*
X77909523Y-116052380D01*
X77576190Y-116433333D01*
X77719047Y-116433333D01*
X77814285Y-116480952D01*
X77861904Y-116528571D01*
X77909523Y-116623809D01*
X77909523Y-116861904D01*
X77861904Y-116957142D01*
X77814285Y-117004761D01*
X77719047Y-117052380D01*
X77433333Y-117052380D01*
X77338095Y-117004761D01*
X77290476Y-116957142D01*
X78814285Y-116052380D02*
X78338095Y-116052380D01*
X78290476Y-116528571D01*
X78338095Y-116480952D01*
X78433333Y-116433333D01*
X78671428Y-116433333D01*
X78766666Y-116480952D01*
X78814285Y-116528571D01*
X78861904Y-116623809D01*
X78861904Y-116861904D01*
X78814285Y-116957142D01*
X78766666Y-117004761D01*
X78671428Y-117052380D01*
X78433333Y-117052380D01*
X78338095Y-117004761D01*
X78290476Y-116957142D01*
X76957142Y-118357142D02*
X76909523Y-118404761D01*
X76766666Y-118452380D01*
X76671428Y-118452380D01*
X76528571Y-118404761D01*
X76433333Y-118309523D01*
X76385714Y-118214285D01*
X76338095Y-118023809D01*
X76338095Y-117880952D01*
X76385714Y-117690476D01*
X76433333Y-117595238D01*
X76528571Y-117500000D01*
X76671428Y-117452380D01*
X76766666Y-117452380D01*
X76909523Y-117500000D01*
X76957142Y-117547619D01*
X77290476Y-117452380D02*
X77909523Y-117452380D01*
X77576190Y-117833333D01*
X77719047Y-117833333D01*
X77814285Y-117880952D01*
X77861904Y-117928571D01*
X77909523Y-118023809D01*
X77909523Y-118261904D01*
X77861904Y-118357142D01*
X77814285Y-118404761D01*
X77719047Y-118452380D01*
X77433333Y-118452380D01*
X77338095Y-118404761D01*
X77290476Y-118357142D01*
X78766666Y-117785714D02*
X78766666Y-118452380D01*
X78528571Y-117404761D02*
X78290476Y-118119047D01*
X78909523Y-118119047D01*
X99157142Y-116157142D02*
X99109523Y-116204761D01*
X98966666Y-116252380D01*
X98871428Y-116252380D01*
X98728571Y-116204761D01*
X98633333Y-116109523D01*
X98585714Y-116014285D01*
X98538095Y-115823809D01*
X98538095Y-115680952D01*
X98585714Y-115490476D01*
X98633333Y-115395238D01*
X98728571Y-115300000D01*
X98871428Y-115252380D01*
X98966666Y-115252380D01*
X99109523Y-115300000D01*
X99157142Y-115347619D01*
X99490476Y-115252380D02*
X100109523Y-115252380D01*
X99776190Y-115633333D01*
X99919047Y-115633333D01*
X100014285Y-115680952D01*
X100061904Y-115728571D01*
X100109523Y-115823809D01*
X100109523Y-116061904D01*
X100061904Y-116157142D01*
X100014285Y-116204761D01*
X99919047Y-116252380D01*
X99633333Y-116252380D01*
X99538095Y-116204761D01*
X99490476Y-116157142D01*
X100442857Y-115252380D02*
X101061904Y-115252380D01*
X100728571Y-115633333D01*
X100871428Y-115633333D01*
X100966666Y-115680952D01*
X101014285Y-115728571D01*
X101061904Y-115823809D01*
X101061904Y-116061904D01*
X101014285Y-116157142D01*
X100966666Y-116204761D01*
X100871428Y-116252380D01*
X100585714Y-116252380D01*
X100490476Y-116204761D01*
X100442857Y-116157142D01*
X92757142Y-118157142D02*
X92709523Y-118204761D01*
X92566666Y-118252380D01*
X92471428Y-118252380D01*
X92328571Y-118204761D01*
X92233333Y-118109523D01*
X92185714Y-118014285D01*
X92138095Y-117823809D01*
X92138095Y-117680952D01*
X92185714Y-117490476D01*
X92233333Y-117395238D01*
X92328571Y-117300000D01*
X92471428Y-117252380D01*
X92566666Y-117252380D01*
X92709523Y-117300000D01*
X92757142Y-117347619D01*
X93090476Y-117252380D02*
X93709523Y-117252380D01*
X93376190Y-117633333D01*
X93519047Y-117633333D01*
X93614285Y-117680952D01*
X93661904Y-117728571D01*
X93709523Y-117823809D01*
X93709523Y-118061904D01*
X93661904Y-118157142D01*
X93614285Y-118204761D01*
X93519047Y-118252380D01*
X93233333Y-118252380D01*
X93138095Y-118204761D01*
X93090476Y-118157142D01*
X94661904Y-118252380D02*
X94090476Y-118252380D01*
X94376190Y-118252380D02*
X94376190Y-117252380D01*
X94280952Y-117395238D01*
X94185714Y-117490476D01*
X94090476Y-117538095D01*
X111157142Y-111557142D02*
X111109523Y-111604761D01*
X110966666Y-111652380D01*
X110871428Y-111652380D01*
X110728571Y-111604761D01*
X110633333Y-111509523D01*
X110585714Y-111414285D01*
X110538095Y-111223809D01*
X110538095Y-111080952D01*
X110585714Y-110890476D01*
X110633333Y-110795238D01*
X110728571Y-110700000D01*
X110871428Y-110652380D01*
X110966666Y-110652380D01*
X111109523Y-110700000D01*
X111157142Y-110747619D01*
X111490476Y-110652380D02*
X112109523Y-110652380D01*
X111776190Y-111033333D01*
X111919047Y-111033333D01*
X112014285Y-111080952D01*
X112061904Y-111128571D01*
X112109523Y-111223809D01*
X112109523Y-111461904D01*
X112061904Y-111557142D01*
X112014285Y-111604761D01*
X111919047Y-111652380D01*
X111633333Y-111652380D01*
X111538095Y-111604761D01*
X111490476Y-111557142D01*
X112728571Y-110652380D02*
X112823809Y-110652380D01*
X112919047Y-110700000D01*
X112966666Y-110747619D01*
X113014285Y-110842857D01*
X113061904Y-111033333D01*
X113061904Y-111271428D01*
X113014285Y-111461904D01*
X112966666Y-111557142D01*
X112919047Y-111604761D01*
X112823809Y-111652380D01*
X112728571Y-111652380D01*
X112633333Y-111604761D01*
X112585714Y-111557142D01*
X112538095Y-111461904D01*
X112490476Y-111271428D01*
X112490476Y-111033333D01*
X112538095Y-110842857D01*
X112585714Y-110747619D01*
X112633333Y-110700000D01*
X112728571Y-110652380D01*
X111157142Y-110157142D02*
X111109523Y-110204761D01*
X110966666Y-110252380D01*
X110871428Y-110252380D01*
X110728571Y-110204761D01*
X110633333Y-110109523D01*
X110585714Y-110014285D01*
X110538095Y-109823809D01*
X110538095Y-109680952D01*
X110585714Y-109490476D01*
X110633333Y-109395238D01*
X110728571Y-109300000D01*
X110871428Y-109252380D01*
X110966666Y-109252380D01*
X111109523Y-109300000D01*
X111157142Y-109347619D01*
X111538095Y-109347619D02*
X111585714Y-109300000D01*
X111680952Y-109252380D01*
X111919047Y-109252380D01*
X112014285Y-109300000D01*
X112061904Y-109347619D01*
X112109523Y-109442857D01*
X112109523Y-109538095D01*
X112061904Y-109680952D01*
X111490476Y-110252380D01*
X112109523Y-110252380D01*
X112585714Y-110252380D02*
X112776190Y-110252380D01*
X112871428Y-110204761D01*
X112919047Y-110157142D01*
X113014285Y-110014285D01*
X113061904Y-109823809D01*
X113061904Y-109442857D01*
X113014285Y-109347619D01*
X112966666Y-109300000D01*
X112871428Y-109252380D01*
X112680952Y-109252380D01*
X112585714Y-109300000D01*
X112538095Y-109347619D01*
X112490476Y-109442857D01*
X112490476Y-109680952D01*
X112538095Y-109776190D01*
X112585714Y-109823809D01*
X112680952Y-109871428D01*
X112871428Y-109871428D01*
X112966666Y-109823809D01*
X113014285Y-109776190D01*
X113061904Y-109680952D01*
X76157142Y-128557142D02*
X76109523Y-128604761D01*
X75966666Y-128652380D01*
X75871428Y-128652380D01*
X75728571Y-128604761D01*
X75633333Y-128509523D01*
X75585714Y-128414285D01*
X75538095Y-128223809D01*
X75538095Y-128080952D01*
X75585714Y-127890476D01*
X75633333Y-127795238D01*
X75728571Y-127700000D01*
X75871428Y-127652380D01*
X75966666Y-127652380D01*
X76109523Y-127700000D01*
X76157142Y-127747619D01*
X76538095Y-127747619D02*
X76585714Y-127700000D01*
X76680952Y-127652380D01*
X76919047Y-127652380D01*
X77014285Y-127700000D01*
X77061904Y-127747619D01*
X77109523Y-127842857D01*
X77109523Y-127938095D01*
X77061904Y-128080952D01*
X76490476Y-128652380D01*
X77109523Y-128652380D01*
X77680952Y-128080952D02*
X77585714Y-128033333D01*
X77538095Y-127985714D01*
X77490476Y-127890476D01*
X77490476Y-127842857D01*
X77538095Y-127747619D01*
X77585714Y-127700000D01*
X77680952Y-127652380D01*
X77871428Y-127652380D01*
X77966666Y-127700000D01*
X78014285Y-127747619D01*
X78061904Y-127842857D01*
X78061904Y-127890476D01*
X78014285Y-127985714D01*
X77966666Y-128033333D01*
X77871428Y-128080952D01*
X77680952Y-128080952D01*
X77585714Y-128128571D01*
X77538095Y-128176190D01*
X77490476Y-128271428D01*
X77490476Y-128461904D01*
X77538095Y-128557142D01*
X77585714Y-128604761D01*
X77680952Y-128652380D01*
X77871428Y-128652380D01*
X77966666Y-128604761D01*
X78014285Y-128557142D01*
X78061904Y-128461904D01*
X78061904Y-128271428D01*
X78014285Y-128176190D01*
X77966666Y-128128571D01*
X77871428Y-128080952D01*
X76157142Y-126557142D02*
X76109523Y-126604761D01*
X75966666Y-126652380D01*
X75871428Y-126652380D01*
X75728571Y-126604761D01*
X75633333Y-126509523D01*
X75585714Y-126414285D01*
X75538095Y-126223809D01*
X75538095Y-126080952D01*
X75585714Y-125890476D01*
X75633333Y-125795238D01*
X75728571Y-125700000D01*
X75871428Y-125652380D01*
X75966666Y-125652380D01*
X76109523Y-125700000D01*
X76157142Y-125747619D01*
X76538095Y-125747619D02*
X76585714Y-125700000D01*
X76680952Y-125652380D01*
X76919047Y-125652380D01*
X77014285Y-125700000D01*
X77061904Y-125747619D01*
X77109523Y-125842857D01*
X77109523Y-125938095D01*
X77061904Y-126080952D01*
X76490476Y-126652380D01*
X77109523Y-126652380D01*
X77442857Y-125652380D02*
X78109523Y-125652380D01*
X77680952Y-126652380D01*
X76157142Y-124557142D02*
X76109523Y-124604761D01*
X75966666Y-124652380D01*
X75871428Y-124652380D01*
X75728571Y-124604761D01*
X75633333Y-124509523D01*
X75585714Y-124414285D01*
X75538095Y-124223809D01*
X75538095Y-124080952D01*
X75585714Y-123890476D01*
X75633333Y-123795238D01*
X75728571Y-123700000D01*
X75871428Y-123652380D01*
X75966666Y-123652380D01*
X76109523Y-123700000D01*
X76157142Y-123747619D01*
X76538095Y-123747619D02*
X76585714Y-123700000D01*
X76680952Y-123652380D01*
X76919047Y-123652380D01*
X77014285Y-123700000D01*
X77061904Y-123747619D01*
X77109523Y-123842857D01*
X77109523Y-123938095D01*
X77061904Y-124080952D01*
X76490476Y-124652380D01*
X77109523Y-124652380D01*
X77966666Y-123652380D02*
X77776190Y-123652380D01*
X77680952Y-123700000D01*
X77633333Y-123747619D01*
X77538095Y-123890476D01*
X77490476Y-124080952D01*
X77490476Y-124461904D01*
X77538095Y-124557142D01*
X77585714Y-124604761D01*
X77680952Y-124652380D01*
X77871428Y-124652380D01*
X77966666Y-124604761D01*
X78014285Y-124557142D01*
X78061904Y-124461904D01*
X78061904Y-124223809D01*
X78014285Y-124128571D01*
X77966666Y-124080952D01*
X77871428Y-124033333D01*
X77680952Y-124033333D01*
X77585714Y-124080952D01*
X77538095Y-124128571D01*
X77490476Y-124223809D01*
X74557142Y-114557142D02*
X74509523Y-114604761D01*
X74366666Y-114652380D01*
X74271428Y-114652380D01*
X74128571Y-114604761D01*
X74033333Y-114509523D01*
X73985714Y-114414285D01*
X73938095Y-114223809D01*
X73938095Y-114080952D01*
X73985714Y-113890476D01*
X74033333Y-113795238D01*
X74128571Y-113700000D01*
X74271428Y-113652380D01*
X74366666Y-113652380D01*
X74509523Y-113700000D01*
X74557142Y-113747619D01*
X74938095Y-113747619D02*
X74985714Y-113700000D01*
X75080952Y-113652380D01*
X75319047Y-113652380D01*
X75414285Y-113700000D01*
X75461904Y-113747619D01*
X75509523Y-113842857D01*
X75509523Y-113938095D01*
X75461904Y-114080952D01*
X74890476Y-114652380D01*
X75509523Y-114652380D01*
X76414285Y-113652380D02*
X75938095Y-113652380D01*
X75890476Y-114128571D01*
X75938095Y-114080952D01*
X76033333Y-114033333D01*
X76271428Y-114033333D01*
X76366666Y-114080952D01*
X76414285Y-114128571D01*
X76461904Y-114223809D01*
X76461904Y-114461904D01*
X76414285Y-114557142D01*
X76366666Y-114604761D01*
X76271428Y-114652380D01*
X76033333Y-114652380D01*
X75938095Y-114604761D01*
X75890476Y-114557142D01*
X72557142Y-119757142D02*
X72509523Y-119804761D01*
X72366666Y-119852380D01*
X72271428Y-119852380D01*
X72128571Y-119804761D01*
X72033333Y-119709523D01*
X71985714Y-119614285D01*
X71938095Y-119423809D01*
X71938095Y-119280952D01*
X71985714Y-119090476D01*
X72033333Y-118995238D01*
X72128571Y-118900000D01*
X72271428Y-118852380D01*
X72366666Y-118852380D01*
X72509523Y-118900000D01*
X72557142Y-118947619D01*
X72938095Y-118947619D02*
X72985714Y-118900000D01*
X73080952Y-118852380D01*
X73319047Y-118852380D01*
X73414285Y-118900000D01*
X73461904Y-118947619D01*
X73509523Y-119042857D01*
X73509523Y-119138095D01*
X73461904Y-119280952D01*
X72890476Y-119852380D01*
X73509523Y-119852380D01*
X74366666Y-119185714D02*
X74366666Y-119852380D01*
X74128571Y-118804761D02*
X73890476Y-119519047D01*
X74509523Y-119519047D01*
X56357142Y-116357142D02*
X56309523Y-116404761D01*
X56166666Y-116452380D01*
X56071428Y-116452380D01*
X55928571Y-116404761D01*
X55833333Y-116309523D01*
X55785714Y-116214285D01*
X55738095Y-116023809D01*
X55738095Y-115880952D01*
X55785714Y-115690476D01*
X55833333Y-115595238D01*
X55928571Y-115500000D01*
X56071428Y-115452380D01*
X56166666Y-115452380D01*
X56309523Y-115500000D01*
X56357142Y-115547619D01*
X56738095Y-115547619D02*
X56785714Y-115500000D01*
X56880952Y-115452380D01*
X57119047Y-115452380D01*
X57214285Y-115500000D01*
X57261904Y-115547619D01*
X57309523Y-115642857D01*
X57309523Y-115738095D01*
X57261904Y-115880952D01*
X56690476Y-116452380D01*
X57309523Y-116452380D01*
X57642857Y-115452380D02*
X58261904Y-115452380D01*
X57928571Y-115833333D01*
X58071428Y-115833333D01*
X58166666Y-115880952D01*
X58214285Y-115928571D01*
X58261904Y-116023809D01*
X58261904Y-116261904D01*
X58214285Y-116357142D01*
X58166666Y-116404761D01*
X58071428Y-116452380D01*
X57785714Y-116452380D01*
X57690476Y-116404761D01*
X57642857Y-116357142D01*
X64157142Y-135157142D02*
X64109523Y-135204761D01*
X63966666Y-135252380D01*
X63871428Y-135252380D01*
X63728571Y-135204761D01*
X63633333Y-135109523D01*
X63585714Y-135014285D01*
X63538095Y-134823809D01*
X63538095Y-134680952D01*
X63585714Y-134490476D01*
X63633333Y-134395238D01*
X63728571Y-134300000D01*
X63871428Y-134252380D01*
X63966666Y-134252380D01*
X64109523Y-134300000D01*
X64157142Y-134347619D01*
X64538095Y-134347619D02*
X64585714Y-134300000D01*
X64680952Y-134252380D01*
X64919047Y-134252380D01*
X65014285Y-134300000D01*
X65061904Y-134347619D01*
X65109523Y-134442857D01*
X65109523Y-134538095D01*
X65061904Y-134680952D01*
X64490476Y-135252380D01*
X65109523Y-135252380D01*
X65490476Y-134347619D02*
X65538095Y-134300000D01*
X65633333Y-134252380D01*
X65871428Y-134252380D01*
X65966666Y-134300000D01*
X66014285Y-134347619D01*
X66061904Y-134442857D01*
X66061904Y-134538095D01*
X66014285Y-134680952D01*
X65442857Y-135252380D01*
X66061904Y-135252380D01*
X71157142Y-71357142D02*
X71109523Y-71404761D01*
X70966666Y-71452380D01*
X70871428Y-71452380D01*
X70728571Y-71404761D01*
X70633333Y-71309523D01*
X70585714Y-71214285D01*
X70538095Y-71023809D01*
X70538095Y-70880952D01*
X70585714Y-70690476D01*
X70633333Y-70595238D01*
X70728571Y-70500000D01*
X70871428Y-70452380D01*
X70966666Y-70452380D01*
X71109523Y-70500000D01*
X71157142Y-70547619D01*
X72109523Y-71452380D02*
X71538095Y-71452380D01*
X71823809Y-71452380D02*
X71823809Y-70452380D01*
X71728571Y-70595238D01*
X71633333Y-70690476D01*
X71538095Y-70738095D01*
X72585714Y-71452380D02*
X72776190Y-71452380D01*
X72871428Y-71404761D01*
X72919047Y-71357142D01*
X73014285Y-71214285D01*
X73061904Y-71023809D01*
X73061904Y-70642857D01*
X73014285Y-70547619D01*
X72966666Y-70500000D01*
X72871428Y-70452380D01*
X72680952Y-70452380D01*
X72585714Y-70500000D01*
X72538095Y-70547619D01*
X72490476Y-70642857D01*
X72490476Y-70880952D01*
X72538095Y-70976190D01*
X72585714Y-71023809D01*
X72680952Y-71071428D01*
X72871428Y-71071428D01*
X72966666Y-71023809D01*
X73014285Y-70976190D01*
X73061904Y-70880952D01*
X74157142Y-71357142D02*
X74109523Y-71404761D01*
X73966666Y-71452380D01*
X73871428Y-71452380D01*
X73728571Y-71404761D01*
X73633333Y-71309523D01*
X73585714Y-71214285D01*
X73538095Y-71023809D01*
X73538095Y-70880952D01*
X73585714Y-70690476D01*
X73633333Y-70595238D01*
X73728571Y-70500000D01*
X73871428Y-70452380D01*
X73966666Y-70452380D01*
X74109523Y-70500000D01*
X74157142Y-70547619D01*
X75109523Y-71452380D02*
X74538095Y-71452380D01*
X74823809Y-71452380D02*
X74823809Y-70452380D01*
X74728571Y-70595238D01*
X74633333Y-70690476D01*
X74538095Y-70738095D01*
X75680952Y-70880952D02*
X75585714Y-70833333D01*
X75538095Y-70785714D01*
X75490476Y-70690476D01*
X75490476Y-70642857D01*
X75538095Y-70547619D01*
X75585714Y-70500000D01*
X75680952Y-70452380D01*
X75871428Y-70452380D01*
X75966666Y-70500000D01*
X76014285Y-70547619D01*
X76061904Y-70642857D01*
X76061904Y-70690476D01*
X76014285Y-70785714D01*
X75966666Y-70833333D01*
X75871428Y-70880952D01*
X75680952Y-70880952D01*
X75585714Y-70928571D01*
X75538095Y-70976190D01*
X75490476Y-71071428D01*
X75490476Y-71261904D01*
X75538095Y-71357142D01*
X75585714Y-71404761D01*
X75680952Y-71452380D01*
X75871428Y-71452380D01*
X75966666Y-71404761D01*
X76014285Y-71357142D01*
X76061904Y-71261904D01*
X76061904Y-71071428D01*
X76014285Y-70976190D01*
X75966666Y-70928571D01*
X75871428Y-70880952D01*
X114857142Y-144557142D02*
X114809523Y-144604761D01*
X114666666Y-144652380D01*
X114571428Y-144652380D01*
X114428571Y-144604761D01*
X114333333Y-144509523D01*
X114285714Y-144414285D01*
X114238095Y-144223809D01*
X114238095Y-144080952D01*
X114285714Y-143890476D01*
X114333333Y-143795238D01*
X114428571Y-143700000D01*
X114571428Y-143652380D01*
X114666666Y-143652380D01*
X114809523Y-143700000D01*
X114857142Y-143747619D01*
X115809523Y-144652380D02*
X115238095Y-144652380D01*
X115523809Y-144652380D02*
X115523809Y-143652380D01*
X115428571Y-143795238D01*
X115333333Y-143890476D01*
X115238095Y-143938095D01*
X116142857Y-143652380D02*
X116809523Y-143652380D01*
X116380952Y-144652380D01*
X111757142Y-144557142D02*
X111709523Y-144604761D01*
X111566666Y-144652380D01*
X111471428Y-144652380D01*
X111328571Y-144604761D01*
X111233333Y-144509523D01*
X111185714Y-144414285D01*
X111138095Y-144223809D01*
X111138095Y-144080952D01*
X111185714Y-143890476D01*
X111233333Y-143795238D01*
X111328571Y-143700000D01*
X111471428Y-143652380D01*
X111566666Y-143652380D01*
X111709523Y-143700000D01*
X111757142Y-143747619D01*
X112709523Y-144652380D02*
X112138095Y-144652380D01*
X112423809Y-144652380D02*
X112423809Y-143652380D01*
X112328571Y-143795238D01*
X112233333Y-143890476D01*
X112138095Y-143938095D01*
X113566666Y-143652380D02*
X113376190Y-143652380D01*
X113280952Y-143700000D01*
X113233333Y-143747619D01*
X113138095Y-143890476D01*
X113090476Y-144080952D01*
X113090476Y-144461904D01*
X113138095Y-144557142D01*
X113185714Y-144604761D01*
X113280952Y-144652380D01*
X113471428Y-144652380D01*
X113566666Y-144604761D01*
X113614285Y-144557142D01*
X113661904Y-144461904D01*
X113661904Y-144223809D01*
X113614285Y-144128571D01*
X113566666Y-144080952D01*
X113471428Y-144033333D01*
X113280952Y-144033333D01*
X113185714Y-144080952D01*
X113138095Y-144128571D01*
X113090476Y-144223809D01*
X92957142Y-78357142D02*
X92909523Y-78404761D01*
X92766666Y-78452380D01*
X92671428Y-78452380D01*
X92528571Y-78404761D01*
X92433333Y-78309523D01*
X92385714Y-78214285D01*
X92338095Y-78023809D01*
X92338095Y-77880952D01*
X92385714Y-77690476D01*
X92433333Y-77595238D01*
X92528571Y-77500000D01*
X92671428Y-77452380D01*
X92766666Y-77452380D01*
X92909523Y-77500000D01*
X92957142Y-77547619D01*
X93909523Y-78452380D02*
X93338095Y-78452380D01*
X93623809Y-78452380D02*
X93623809Y-77452380D01*
X93528571Y-77595238D01*
X93433333Y-77690476D01*
X93338095Y-77738095D01*
X94814285Y-77452380D02*
X94338095Y-77452380D01*
X94290476Y-77928571D01*
X94338095Y-77880952D01*
X94433333Y-77833333D01*
X94671428Y-77833333D01*
X94766666Y-77880952D01*
X94814285Y-77928571D01*
X94861904Y-78023809D01*
X94861904Y-78261904D01*
X94814285Y-78357142D01*
X94766666Y-78404761D01*
X94671428Y-78452380D01*
X94433333Y-78452380D01*
X94338095Y-78404761D01*
X94290476Y-78357142D01*
X92757142Y-76957142D02*
X92709523Y-77004761D01*
X92566666Y-77052380D01*
X92471428Y-77052380D01*
X92328571Y-77004761D01*
X92233333Y-76909523D01*
X92185714Y-76814285D01*
X92138095Y-76623809D01*
X92138095Y-76480952D01*
X92185714Y-76290476D01*
X92233333Y-76195238D01*
X92328571Y-76100000D01*
X92471428Y-76052380D01*
X92566666Y-76052380D01*
X92709523Y-76100000D01*
X92757142Y-76147619D01*
X93709523Y-77052380D02*
X93138095Y-77052380D01*
X93423809Y-77052380D02*
X93423809Y-76052380D01*
X93328571Y-76195238D01*
X93233333Y-76290476D01*
X93138095Y-76338095D01*
X94566666Y-76385714D02*
X94566666Y-77052380D01*
X94328571Y-76004761D02*
X94090476Y-76719047D01*
X94709523Y-76719047D01*
X114357142Y-63757142D02*
X114309523Y-63804761D01*
X114166666Y-63852380D01*
X114071428Y-63852380D01*
X113928571Y-63804761D01*
X113833333Y-63709523D01*
X113785714Y-63614285D01*
X113738095Y-63423809D01*
X113738095Y-63280952D01*
X113785714Y-63090476D01*
X113833333Y-62995238D01*
X113928571Y-62900000D01*
X114071428Y-62852380D01*
X114166666Y-62852380D01*
X114309523Y-62900000D01*
X114357142Y-62947619D01*
X115309523Y-63852380D02*
X114738095Y-63852380D01*
X115023809Y-63852380D02*
X115023809Y-62852380D01*
X114928571Y-62995238D01*
X114833333Y-63090476D01*
X114738095Y-63138095D01*
X116261904Y-63852380D02*
X115690476Y-63852380D01*
X115976190Y-63852380D02*
X115976190Y-62852380D01*
X115880952Y-62995238D01*
X115785714Y-63090476D01*
X115690476Y-63138095D01*
X103057142Y-95987142D02*
X103009523Y-96034761D01*
X102866666Y-96082380D01*
X102771428Y-96082380D01*
X102628571Y-96034761D01*
X102533333Y-95939523D01*
X102485714Y-95844285D01*
X102438095Y-95653809D01*
X102438095Y-95510952D01*
X102485714Y-95320476D01*
X102533333Y-95225238D01*
X102628571Y-95130000D01*
X102771428Y-95082380D01*
X102866666Y-95082380D01*
X103009523Y-95130000D01*
X103057142Y-95177619D01*
X104009523Y-96082380D02*
X103438095Y-96082380D01*
X103723809Y-96082380D02*
X103723809Y-95082380D01*
X103628571Y-95225238D01*
X103533333Y-95320476D01*
X103438095Y-95368095D01*
X104628571Y-95082380D02*
X104723809Y-95082380D01*
X104819047Y-95130000D01*
X104866666Y-95177619D01*
X104914285Y-95272857D01*
X104961904Y-95463333D01*
X104961904Y-95701428D01*
X104914285Y-95891904D01*
X104866666Y-95987142D01*
X104819047Y-96034761D01*
X104723809Y-96082380D01*
X104628571Y-96082380D01*
X104533333Y-96034761D01*
X104485714Y-95987142D01*
X104438095Y-95891904D01*
X104390476Y-95701428D01*
X104390476Y-95463333D01*
X104438095Y-95272857D01*
X104485714Y-95177619D01*
X104533333Y-95130000D01*
X104628571Y-95082380D01*
X107633333Y-81757142D02*
X107585714Y-81804761D01*
X107442857Y-81852380D01*
X107347619Y-81852380D01*
X107204761Y-81804761D01*
X107109523Y-81709523D01*
X107061904Y-81614285D01*
X107014285Y-81423809D01*
X107014285Y-81280952D01*
X107061904Y-81090476D01*
X107109523Y-80995238D01*
X107204761Y-80900000D01*
X107347619Y-80852380D01*
X107442857Y-80852380D01*
X107585714Y-80900000D01*
X107633333Y-80947619D01*
X108109523Y-81852380D02*
X108300000Y-81852380D01*
X108395238Y-81804761D01*
X108442857Y-81757142D01*
X108538095Y-81614285D01*
X108585714Y-81423809D01*
X108585714Y-81042857D01*
X108538095Y-80947619D01*
X108490476Y-80900000D01*
X108395238Y-80852380D01*
X108204761Y-80852380D01*
X108109523Y-80900000D01*
X108061904Y-80947619D01*
X108014285Y-81042857D01*
X108014285Y-81280952D01*
X108061904Y-81376190D01*
X108109523Y-81423809D01*
X108204761Y-81471428D01*
X108395238Y-81471428D01*
X108490476Y-81423809D01*
X108538095Y-81376190D01*
X108585714Y-81280952D01*
X94833333Y-70757142D02*
X94785714Y-70804761D01*
X94642857Y-70852380D01*
X94547619Y-70852380D01*
X94404761Y-70804761D01*
X94309523Y-70709523D01*
X94261904Y-70614285D01*
X94214285Y-70423809D01*
X94214285Y-70280952D01*
X94261904Y-70090476D01*
X94309523Y-69995238D01*
X94404761Y-69900000D01*
X94547619Y-69852380D01*
X94642857Y-69852380D01*
X94785714Y-69900000D01*
X94833333Y-69947619D01*
X95404761Y-70280952D02*
X95309523Y-70233333D01*
X95261904Y-70185714D01*
X95214285Y-70090476D01*
X95214285Y-70042857D01*
X95261904Y-69947619D01*
X95309523Y-69900000D01*
X95404761Y-69852380D01*
X95595238Y-69852380D01*
X95690476Y-69900000D01*
X95738095Y-69947619D01*
X95785714Y-70042857D01*
X95785714Y-70090476D01*
X95738095Y-70185714D01*
X95690476Y-70233333D01*
X95595238Y-70280952D01*
X95404761Y-70280952D01*
X95309523Y-70328571D01*
X95261904Y-70376190D01*
X95214285Y-70471428D01*
X95214285Y-70661904D01*
X95261904Y-70757142D01*
X95309523Y-70804761D01*
X95404761Y-70852380D01*
X95595238Y-70852380D01*
X95690476Y-70804761D01*
X95738095Y-70757142D01*
X95785714Y-70661904D01*
X95785714Y-70471428D01*
X95738095Y-70376190D01*
X95690476Y-70328571D01*
X95595238Y-70280952D01*
X91833333Y-85557142D02*
X91785714Y-85604761D01*
X91642857Y-85652380D01*
X91547619Y-85652380D01*
X91404761Y-85604761D01*
X91309523Y-85509523D01*
X91261904Y-85414285D01*
X91214285Y-85223809D01*
X91214285Y-85080952D01*
X91261904Y-84890476D01*
X91309523Y-84795238D01*
X91404761Y-84700000D01*
X91547619Y-84652380D01*
X91642857Y-84652380D01*
X91785714Y-84700000D01*
X91833333Y-84747619D01*
X92166666Y-84652380D02*
X92833333Y-84652380D01*
X92404761Y-85652380D01*
X80233333Y-144557142D02*
X80185714Y-144604761D01*
X80042857Y-144652380D01*
X79947619Y-144652380D01*
X79804761Y-144604761D01*
X79709523Y-144509523D01*
X79661904Y-144414285D01*
X79614285Y-144223809D01*
X79614285Y-144080952D01*
X79661904Y-143890476D01*
X79709523Y-143795238D01*
X79804761Y-143700000D01*
X79947619Y-143652380D01*
X80042857Y-143652380D01*
X80185714Y-143700000D01*
X80233333Y-143747619D01*
X81090476Y-143652380D02*
X80900000Y-143652380D01*
X80804761Y-143700000D01*
X80757142Y-143747619D01*
X80661904Y-143890476D01*
X80614285Y-144080952D01*
X80614285Y-144461904D01*
X80661904Y-144557142D01*
X80709523Y-144604761D01*
X80804761Y-144652380D01*
X80995238Y-144652380D01*
X81090476Y-144604761D01*
X81138095Y-144557142D01*
X81185714Y-144461904D01*
X81185714Y-144223809D01*
X81138095Y-144128571D01*
X81090476Y-144080952D01*
X80995238Y-144033333D01*
X80804761Y-144033333D01*
X80709523Y-144080952D01*
X80661904Y-144128571D01*
X80614285Y-144223809D01*
X112433333Y-76357142D02*
X112385714Y-76404761D01*
X112242857Y-76452380D01*
X112147619Y-76452380D01*
X112004761Y-76404761D01*
X111909523Y-76309523D01*
X111861904Y-76214285D01*
X111814285Y-76023809D01*
X111814285Y-75880952D01*
X111861904Y-75690476D01*
X111909523Y-75595238D01*
X112004761Y-75500000D01*
X112147619Y-75452380D01*
X112242857Y-75452380D01*
X112385714Y-75500000D01*
X112433333Y-75547619D01*
X113338095Y-75452380D02*
X112861904Y-75452380D01*
X112814285Y-75928571D01*
X112861904Y-75880952D01*
X112957142Y-75833333D01*
X113195238Y-75833333D01*
X113290476Y-75880952D01*
X113338095Y-75928571D01*
X113385714Y-76023809D01*
X113385714Y-76261904D01*
X113338095Y-76357142D01*
X113290476Y-76404761D01*
X113195238Y-76452380D01*
X112957142Y-76452380D01*
X112861904Y-76404761D01*
X112814285Y-76357142D01*
X112433333Y-78557142D02*
X112385714Y-78604761D01*
X112242857Y-78652380D01*
X112147619Y-78652380D01*
X112004761Y-78604761D01*
X111909523Y-78509523D01*
X111861904Y-78414285D01*
X111814285Y-78223809D01*
X111814285Y-78080952D01*
X111861904Y-77890476D01*
X111909523Y-77795238D01*
X112004761Y-77700000D01*
X112147619Y-77652380D01*
X112242857Y-77652380D01*
X112385714Y-77700000D01*
X112433333Y-77747619D01*
X113290476Y-77985714D02*
X113290476Y-78652380D01*
X113052380Y-77604761D02*
X112814285Y-78319047D01*
X113433333Y-78319047D01*
X89833333Y-85557142D02*
X89785714Y-85604761D01*
X89642857Y-85652380D01*
X89547619Y-85652380D01*
X89404761Y-85604761D01*
X89309523Y-85509523D01*
X89261904Y-85414285D01*
X89214285Y-85223809D01*
X89214285Y-85080952D01*
X89261904Y-84890476D01*
X89309523Y-84795238D01*
X89404761Y-84700000D01*
X89547619Y-84652380D01*
X89642857Y-84652380D01*
X89785714Y-84700000D01*
X89833333Y-84747619D01*
X90166666Y-84652380D02*
X90785714Y-84652380D01*
X90452380Y-85033333D01*
X90595238Y-85033333D01*
X90690476Y-85080952D01*
X90738095Y-85128571D01*
X90785714Y-85223809D01*
X90785714Y-85461904D01*
X90738095Y-85557142D01*
X90690476Y-85604761D01*
X90595238Y-85652380D01*
X90309523Y-85652380D01*
X90214285Y-85604761D01*
X90166666Y-85557142D01*
X97833333Y-74557142D02*
X97785714Y-74604761D01*
X97642857Y-74652380D01*
X97547619Y-74652380D01*
X97404761Y-74604761D01*
X97309523Y-74509523D01*
X97261904Y-74414285D01*
X97214285Y-74223809D01*
X97214285Y-74080952D01*
X97261904Y-73890476D01*
X97309523Y-73795238D01*
X97404761Y-73700000D01*
X97547619Y-73652380D01*
X97642857Y-73652380D01*
X97785714Y-73700000D01*
X97833333Y-73747619D01*
X98214285Y-73747619D02*
X98261904Y-73700000D01*
X98357142Y-73652380D01*
X98595238Y-73652380D01*
X98690476Y-73700000D01*
X98738095Y-73747619D01*
X98785714Y-73842857D01*
X98785714Y-73938095D01*
X98738095Y-74080952D01*
X98166666Y-74652380D01*
X98785714Y-74652380D01*
X105233333Y-72557142D02*
X105185714Y-72604761D01*
X105042857Y-72652380D01*
X104947619Y-72652380D01*
X104804761Y-72604761D01*
X104709523Y-72509523D01*
X104661904Y-72414285D01*
X104614285Y-72223809D01*
X104614285Y-72080952D01*
X104661904Y-71890476D01*
X104709523Y-71795238D01*
X104804761Y-71700000D01*
X104947619Y-71652380D01*
X105042857Y-71652380D01*
X105185714Y-71700000D01*
X105233333Y-71747619D01*
X106185714Y-72652380D02*
X105614285Y-72652380D01*
X105900000Y-72652380D02*
X105900000Y-71652380D01*
X105804761Y-71795238D01*
X105709523Y-71890476D01*
X105614285Y-71938095D01*
M02*
