M48
; DRILL file {KiCad 7.0.9} date Mon Jul 22 23:00:39 2024
; FORMAT={-:-/ absolute / metric / decimal}
; #@! TF.CreationDate,2024-07-22T23:00:39+02:00
; #@! TF.GenerationSoftware,Kicad,Pcbnew,7.0.9
; #@! TF.FileFunction,Plated,1,4,PTH
FMAT,2
METRIC
; #@! TA.AperFunction,Plated,PTH,ViaDrill
T1C0.300
; #@! TA.AperFunction,Plated,PTH,ViaDrill
T2C0.400
; #@! TA.AperFunction,Plated,PTH,ViaDrill
T3C0.500
; #@! TA.AperFunction,Plated,PTH,ComponentDrill
T4C0.700
; #@! TA.AperFunction,Plated,PTH,ComponentDrill
T5C0.800
; #@! TA.AperFunction,Plated,PTH,ComponentDrill
T6C0.900
; #@! TA.AperFunction,Plated,PTH,ComponentDrill
T7C0.990
; #@! TA.AperFunction,Plated,PTH,ComponentDrill
T8C1.000
; #@! TA.AperFunction,Plated,PTH,ComponentDrill
T9C1.300
%
G90
G05
T1
X46.6Y-64.2
X47.4Y-64.6
X47.4Y-66.8
X47.8Y-67.6
X57.898Y-24.4
X57.898Y-26.65
X57.898Y-28.9
X57.898Y-31.15
X59.398Y-34.4
X60.147Y-24.4
X60.397Y-30.062
X60.397Y-36.4
X61.147Y-26.062
X62.647Y-36.15
X62.717Y-28.062
X63.147Y-34.4
X63.647Y-31.9
X63.897Y-30.062
X64.147Y-34.4
X64.897Y-37.65
X65.897Y-26.65
X65.897Y-28.9
X65.897Y-31.65
X66.897Y-33.15
X66.897Y-38.15
X69.647Y-33.15
X69.647Y-38.15
X71.397Y-34.65
X71.397Y-36.65
X72.397Y-33.15
X72.397Y-35.4
X72.397Y-38.15
X73.6Y-50.4
X74.622Y-50.178
X75.8Y-49.9
X76.4Y-48.8
X77.0Y-49.8
T2
X30.2Y-51.4
X32.75Y-107.75
X32.75Y-118.25
X34.4Y-31.0
X35.887Y-31.337
X44.4Y-39.4
X44.75Y-107.75
X44.75Y-118.25
X45.0Y-53.4
X46.4Y-57.8
X47.4Y-45.4
X48.0Y-53.4
X49.0Y-39.35
X49.6Y-57.8
X51.2Y-53.4
X51.398Y-47.9
X52.8Y-39.8
X52.8Y-57.8
X53.775Y-54.0
X54.898Y-49.38
X55.6Y-109.0
X55.898Y-43.15
X56.0Y-57.8
X56.0Y-60.0
X56.75Y-118.25
X56.898Y-33.0
X56.898Y-41.9
X57.2Y-45.65
X57.2Y-72.6
X57.4Y-54.0
X57.8Y-40.35
X58.4Y-42.0
X58.8Y-35.2
X58.8Y-36.2
X58.969Y-83.4
X59.148Y-37.4
X59.4Y-42.6
X60.4Y-42.0
X60.4Y-72.2
X61.4Y-41.4
X61.8Y-57.2
X61.8Y-59.4
X61.8Y-84.6
X62.4Y-44.2
X62.4Y-56.4
X62.6Y-45.2
X62.6Y-58.6
X62.6Y-60.4
X63.0Y-76.8
X63.0Y-78.0
X63.0Y-84.0
X63.2Y-42.2
X63.395Y-53.6
X63.4Y-86.503
X63.6Y-43.2
X63.8Y-71.8
X64.0Y-87.4
X64.6Y-71.0
X64.8Y-68.4
X64.841Y-53.6
X65.0Y-67.0
X65.6Y-69.2
X66.8Y-83.5
X67.0Y-73.8
X67.0Y-80.2
X67.2Y-40.2
X67.4Y-42.2
X67.4Y-82.4
X67.6Y-71.0
X67.6Y-109.0
X67.8Y-75.0
X67.8Y-80.8
X67.975Y-73.375
X68.2Y-71.8
X68.4Y-75.8
X68.6Y-83.6
X68.75Y-118.25
X72.0Y-44.8
X72.0Y-65.0
X72.4Y-66.0
X73.2Y-43.4
X75.965Y-88.525
X78.8Y-108.8
X89.8Y-33.4
X90.8Y-56.2
X91.4Y-57.17
X93.0Y-58.6
X94.0Y-59.2
X94.6Y-43.0
X96.2Y-104.0
X96.2Y-111.737
X102.5Y-57.75
X102.8Y-58.8
X104.25Y-60.25
X109.2Y-99.0
X109.6Y-102.2
X110.0Y-94.5
X114.4Y-62.4
T3
X23.55Y-92.0
X26.6Y-63.2
X27.6Y-64.2
X28.2Y-91.2
X29.4Y-95.2
X32.65Y-44.4
X38.15Y-44.4
X39.0Y-36.2
X40.4Y-29.35
X42.2Y-76.8
X45.8Y-41.8
X47.2Y-97.6
X50.148Y-42.15
X51.898Y-42.15
X52.398Y-50.4
X55.197Y-37.55
X58.2Y-88.0
X58.4Y-81.6
T4
X22.2Y-81.5
X22.2Y-100.7
T5
X104.052Y-89.242
X104.052Y-91.782
X104.052Y-94.322
X104.052Y-96.862
X104.052Y-99.402
X104.052Y-101.942
T6
X84.0Y-109.735
X84.0Y-112.275
X91.8Y-109.66
X91.8Y-112.2
X99.912Y-109.66
X99.912Y-112.2
X108.136Y-109.735
X108.136Y-112.275
T7
X21.675Y-50.05
X21.675Y-54.55
T8
X22.5Y-59.4
X22.5Y-61.94
X22.5Y-64.48
X22.5Y-67.02
X22.5Y-69.56
X22.5Y-72.1
X22.5Y-74.64
X22.5Y-77.18
X68.8Y-91.46
X68.8Y-94.0
X91.86Y-49.4
X94.4Y-49.4
X95.725Y-89.175
X95.76Y-115.0
X95.76Y-117.54
X98.265Y-89.175
X98.3Y-115.0
X98.3Y-117.54
X98.65Y-49.55
X98.65Y-52.09
X98.65Y-54.63
X98.65Y-57.17
X98.65Y-59.71
X98.65Y-62.25
X98.65Y-64.79
X100.84Y-115.0
X100.84Y-117.54
X103.38Y-115.0
X103.38Y-117.54
X105.92Y-115.0
X105.92Y-117.54
X108.46Y-115.0
X108.46Y-117.54
X111.0Y-115.0
X111.0Y-117.54
T9
X24.165Y-48.79
X24.165Y-55.8
T0
M30
