%TF.GenerationSoftware,KiCad,Pcbnew,7.0.9*%
%TF.CreationDate,2024-07-22T23:00:39+02:00*%
%TF.ProjectId,EnvSensor-Main-v2.1,456e7653-656e-4736-9f72-2d4d61696e2d,rev?*%
%TF.SameCoordinates,Original*%
%TF.FileFunction,Legend,Bot*%
%TF.FilePolarity,Positive*%
%FSLAX46Y46*%
G04 Gerber Fmt 4.6, Leading zero omitted, Abs format (unit mm)*
G04 Created by KiCad (PCBNEW 7.0.9) date 2024-07-22 23:00:39*
%MOMM*%
%LPD*%
G01*
G04 APERTURE LIST*
%ADD10C,0.200000*%
%ADD11C,0.150000*%
%ADD12C,0.120000*%
%ADD13C,0.100000*%
%ADD14C,0.350000*%
%ADD15C,0.300000*%
G04 APERTURE END LIST*
D10*
X104790000Y-119540000D02*
X106540000Y-119540000D01*
X121000000Y-30000000D02*
X101000000Y-30000000D01*
X102600000Y-113400000D02*
X106700000Y-113400000D01*
X107800000Y-113400000D02*
X111800000Y-113400000D01*
D11*
X101000000Y-30000000D02*
X101000000Y-108000000D01*
X121000000Y-108000000D02*
X121000000Y-30000000D01*
D10*
X94290000Y-119540000D02*
X100540000Y-119540000D01*
D11*
X101000000Y-108000000D02*
X121000000Y-108000000D01*
D10*
X102455257Y-112111279D02*
X102455257Y-112682707D01*
X102455257Y-112682707D02*
X101883828Y-112739850D01*
X101883828Y-112739850D02*
X101940971Y-112682707D01*
X101940971Y-112682707D02*
X101998114Y-112568422D01*
X101998114Y-112568422D02*
X101998114Y-112282707D01*
X101998114Y-112282707D02*
X101940971Y-112168422D01*
X101940971Y-112168422D02*
X101883828Y-112111279D01*
X101883828Y-112111279D02*
X101769542Y-112054136D01*
X101769542Y-112054136D02*
X101483828Y-112054136D01*
X101483828Y-112054136D02*
X101369542Y-112111279D01*
X101369542Y-112111279D02*
X101312400Y-112168422D01*
X101312400Y-112168422D02*
X101255257Y-112282707D01*
X101255257Y-112282707D02*
X101255257Y-112568422D01*
X101255257Y-112568422D02*
X101312400Y-112682707D01*
X101312400Y-112682707D02*
X101369542Y-112739850D01*
X102455257Y-111711279D02*
X101255257Y-111311279D01*
X101255257Y-111311279D02*
X102455257Y-110911279D01*
X101883828Y-109596993D02*
X101883828Y-109196993D01*
X101255257Y-109025565D02*
X101255257Y-109596993D01*
X101255257Y-109596993D02*
X102455257Y-109596993D01*
X102455257Y-109596993D02*
X102455257Y-109025565D01*
X102055257Y-108511279D02*
X101255257Y-108511279D01*
X101940971Y-108511279D02*
X101998114Y-108454136D01*
X101998114Y-108454136D02*
X102055257Y-108339851D01*
X102055257Y-108339851D02*
X102055257Y-108168422D01*
X102055257Y-108168422D02*
X101998114Y-108054136D01*
X101998114Y-108054136D02*
X101883828Y-107996994D01*
X101883828Y-107996994D02*
X101255257Y-107996994D01*
G36*
X109923472Y-52484070D02*
G01*
X109957663Y-52518262D01*
X110002641Y-52608219D01*
X110054136Y-52814195D01*
X110054136Y-53075289D01*
X110002641Y-53281265D01*
X109957663Y-53371222D01*
X109923472Y-53405413D01*
X109844815Y-53444742D01*
X109777743Y-53444742D01*
X109699086Y-53405414D01*
X109664894Y-53371222D01*
X109619916Y-53281266D01*
X109568422Y-53075290D01*
X109568422Y-52814195D01*
X109619916Y-52608219D01*
X109664894Y-52518263D01*
X109699086Y-52484070D01*
X109777744Y-52444742D01*
X109844815Y-52444742D01*
X109923472Y-52484070D01*
G37*
G36*
X112339850Y-53444742D02*
G01*
X112170363Y-53444742D01*
X112036725Y-53400197D01*
X111950608Y-53314079D01*
X111905630Y-53224123D01*
X111854136Y-53018147D01*
X111854136Y-52871338D01*
X111905630Y-52665362D01*
X111950608Y-52575405D01*
X112036725Y-52489287D01*
X112170363Y-52444742D01*
X112339850Y-52444742D01*
X112339850Y-53444742D01*
G37*
G36*
X115111279Y-53816171D02*
G01*
X109196993Y-53816171D01*
X109196993Y-53087600D01*
X109368422Y-53087600D01*
X109372268Y-53099437D01*
X109371408Y-53111854D01*
X109428551Y-53340425D01*
X109434462Y-53349871D01*
X109436122Y-53360892D01*
X109493265Y-53475179D01*
X109504639Y-53486727D01*
X109511997Y-53501167D01*
X109569139Y-53558310D01*
X109583579Y-53565668D01*
X109595129Y-53577043D01*
X109709415Y-53634185D01*
X109732212Y-53637618D01*
X109754136Y-53644742D01*
X109868422Y-53644742D01*
X109890345Y-53637618D01*
X109913143Y-53634185D01*
X110027429Y-53577043D01*
X110038978Y-53565668D01*
X110053419Y-53558310D01*
X110110562Y-53501167D01*
X110117920Y-53486724D01*
X110129293Y-53475178D01*
X110186436Y-53360892D01*
X110188095Y-53349871D01*
X110194007Y-53340425D01*
X110235202Y-53175644D01*
X110459030Y-53175644D01*
X110495357Y-53225644D01*
X110554136Y-53244742D01*
X110625565Y-53244742D01*
X110625565Y-53544742D01*
X110644663Y-53603521D01*
X110694663Y-53639848D01*
X110756467Y-53639848D01*
X110806467Y-53603521D01*
X110825565Y-53544742D01*
X110825565Y-53244742D01*
X111296993Y-53244742D01*
X111297370Y-53244619D01*
X111297752Y-53244740D01*
X111326739Y-53235077D01*
X111355772Y-53225644D01*
X111356006Y-53225320D01*
X111356384Y-53225195D01*
X111374124Y-53200383D01*
X111392099Y-53175644D01*
X111392099Y-53175245D01*
X111392331Y-53174921D01*
X111392099Y-53144414D01*
X111392099Y-53113840D01*
X111391864Y-53113516D01*
X111391861Y-53113119D01*
X111364307Y-53030457D01*
X111654136Y-53030457D01*
X111657982Y-53042294D01*
X111657122Y-53054711D01*
X111714265Y-53283282D01*
X111720176Y-53292728D01*
X111721836Y-53303749D01*
X111778979Y-53418036D01*
X111790353Y-53429584D01*
X111797711Y-53444024D01*
X111911996Y-53558310D01*
X111932537Y-53568776D01*
X111951085Y-53582468D01*
X112122514Y-53639611D01*
X112138722Y-53639734D01*
X112154136Y-53644742D01*
X112439850Y-53644742D01*
X112454913Y-53639848D01*
X112470752Y-53639848D01*
X112483565Y-53630538D01*
X112498629Y-53625644D01*
X112507938Y-53612830D01*
X112520752Y-53603521D01*
X112525646Y-53588457D01*
X112534956Y-53575644D01*
X112534956Y-53559804D01*
X112539850Y-53544742D01*
X112539850Y-53446100D01*
X112855367Y-53446100D01*
X112883425Y-53501168D01*
X112940568Y-53558310D01*
X112961109Y-53568776D01*
X112979657Y-53582468D01*
X113151085Y-53639611D01*
X113167293Y-53639734D01*
X113182707Y-53644742D01*
X113296993Y-53644742D01*
X113312408Y-53639733D01*
X113328615Y-53639610D01*
X113500045Y-53582468D01*
X113518593Y-53568775D01*
X113539133Y-53558310D01*
X113653418Y-53444024D01*
X113660775Y-53429583D01*
X113672150Y-53418035D01*
X113723082Y-53316171D01*
X114054136Y-53316171D01*
X114061259Y-53338094D01*
X114064693Y-53360892D01*
X114121836Y-53475179D01*
X114133210Y-53486726D01*
X114140568Y-53501168D01*
X114197711Y-53558310D01*
X114212152Y-53565668D01*
X114223701Y-53577043D01*
X114337986Y-53634185D01*
X114360783Y-53637618D01*
X114382707Y-53644742D01*
X114668422Y-53644742D01*
X114683837Y-53639733D01*
X114700044Y-53639610D01*
X114871473Y-53582468D01*
X114921196Y-53545763D01*
X114939848Y-53486841D01*
X114920304Y-53428209D01*
X114870030Y-53392262D01*
X114808228Y-53392731D01*
X114652196Y-53444742D01*
X114406314Y-53444742D01*
X114327657Y-53405414D01*
X114293464Y-53371220D01*
X114254136Y-53292564D01*
X114254136Y-53225493D01*
X114293464Y-53146836D01*
X114327656Y-53112643D01*
X114417609Y-53067665D01*
X114635533Y-53013185D01*
X114644979Y-53007274D01*
X114656001Y-53005614D01*
X114770286Y-52948470D01*
X114781832Y-52937097D01*
X114796275Y-52929739D01*
X114853417Y-52872596D01*
X114860774Y-52858156D01*
X114872150Y-52846607D01*
X114929293Y-52732321D01*
X114932726Y-52709523D01*
X114939850Y-52687600D01*
X114939850Y-52573314D01*
X114932726Y-52551390D01*
X114929293Y-52528593D01*
X114872150Y-52414307D01*
X114860775Y-52402758D01*
X114853417Y-52388317D01*
X114796275Y-52331174D01*
X114781832Y-52323815D01*
X114770286Y-52312443D01*
X114656001Y-52255299D01*
X114633202Y-52251865D01*
X114611279Y-52244742D01*
X114325564Y-52244742D01*
X114310148Y-52249750D01*
X114293941Y-52249874D01*
X114122513Y-52307017D01*
X114072790Y-52343722D01*
X114054138Y-52402644D01*
X114073683Y-52461277D01*
X114123957Y-52497223D01*
X114185759Y-52496753D01*
X114341791Y-52444742D01*
X114587671Y-52444742D01*
X114666327Y-52484070D01*
X114700521Y-52518263D01*
X114739850Y-52596921D01*
X114739850Y-52663993D01*
X114700520Y-52742650D01*
X114666327Y-52776842D01*
X114576372Y-52821820D01*
X114358453Y-52876300D01*
X114349006Y-52882211D01*
X114337986Y-52883871D01*
X114223700Y-52941014D01*
X114212150Y-52952389D01*
X114197711Y-52959747D01*
X114140568Y-53016889D01*
X114133209Y-53031331D01*
X114121837Y-53042878D01*
X114064693Y-53157163D01*
X114061259Y-53179961D01*
X114054136Y-53201885D01*
X114054136Y-53316171D01*
X113723082Y-53316171D01*
X113729293Y-53303749D01*
X113730952Y-53292728D01*
X113736864Y-53283282D01*
X113794007Y-53054710D01*
X113793146Y-53042294D01*
X113796993Y-53030457D01*
X113796993Y-52859028D01*
X113793146Y-52847190D01*
X113794007Y-52834775D01*
X113736864Y-52606203D01*
X113730952Y-52596756D01*
X113729293Y-52585736D01*
X113672150Y-52471450D01*
X113660775Y-52459901D01*
X113653418Y-52445461D01*
X113539133Y-52331175D01*
X113518593Y-52320709D01*
X113500045Y-52307017D01*
X113328616Y-52249874D01*
X113312408Y-52249750D01*
X113296993Y-52244742D01*
X113182707Y-52244742D01*
X113167291Y-52249750D01*
X113151084Y-52249874D01*
X112979656Y-52307017D01*
X112961107Y-52320709D01*
X112940568Y-52331175D01*
X112883425Y-52388317D01*
X112855367Y-52443385D01*
X112865035Y-52504427D01*
X112908737Y-52548129D01*
X112969779Y-52557797D01*
X113024847Y-52529739D01*
X113065297Y-52489287D01*
X113198934Y-52444742D01*
X113280766Y-52444742D01*
X113414403Y-52489287D01*
X113500520Y-52575405D01*
X113545498Y-52665362D01*
X113596993Y-52871338D01*
X113596993Y-53018146D01*
X113545498Y-53224122D01*
X113500520Y-53314079D01*
X113414404Y-53400196D01*
X113280767Y-53444742D01*
X113198934Y-53444742D01*
X113065297Y-53400197D01*
X113024847Y-53359746D01*
X112969779Y-53331688D01*
X112908737Y-53341356D01*
X112865035Y-53385058D01*
X112855367Y-53446100D01*
X112539850Y-53446100D01*
X112539850Y-52344742D01*
X112534956Y-52329679D01*
X112534956Y-52313840D01*
X112525646Y-52301026D01*
X112520752Y-52285963D01*
X112507938Y-52276653D01*
X112498629Y-52263840D01*
X112483565Y-52258945D01*
X112470752Y-52249636D01*
X112454913Y-52249636D01*
X112439850Y-52244742D01*
X112154136Y-52244742D01*
X112138720Y-52249750D01*
X112122513Y-52249874D01*
X111951084Y-52307017D01*
X111932535Y-52320709D01*
X111911996Y-52331175D01*
X111797711Y-52445461D01*
X111790353Y-52459900D01*
X111778979Y-52471449D01*
X111721836Y-52585736D01*
X111720176Y-52596756D01*
X111714265Y-52606203D01*
X111657122Y-52834774D01*
X111657982Y-52847190D01*
X111654136Y-52859028D01*
X111654136Y-53030457D01*
X111364307Y-53030457D01*
X111106147Y-52255977D01*
X111069442Y-52206254D01*
X111010520Y-52187602D01*
X110951888Y-52207147D01*
X110915941Y-52257421D01*
X110916411Y-52319223D01*
X111158251Y-53044742D01*
X110825565Y-53044742D01*
X110825565Y-52744742D01*
X110806467Y-52685963D01*
X110756467Y-52649636D01*
X110694663Y-52649636D01*
X110644663Y-52685963D01*
X110625565Y-52744742D01*
X110625565Y-53044742D01*
X110554136Y-53044742D01*
X110495357Y-53063840D01*
X110459030Y-53113840D01*
X110459030Y-53175644D01*
X110235202Y-53175644D01*
X110251150Y-53111853D01*
X110250289Y-53099437D01*
X110254136Y-53087600D01*
X110254136Y-52801885D01*
X110250289Y-52790047D01*
X110251150Y-52777632D01*
X110194007Y-52549060D01*
X110188095Y-52539613D01*
X110186436Y-52528593D01*
X110129293Y-52414307D01*
X110117920Y-52402760D01*
X110110562Y-52388318D01*
X110053419Y-52331175D01*
X110038979Y-52323817D01*
X110027430Y-52312442D01*
X109913143Y-52255299D01*
X109890345Y-52251865D01*
X109868422Y-52244742D01*
X109754136Y-52244742D01*
X109732212Y-52251865D01*
X109709415Y-52255299D01*
X109595129Y-52312442D01*
X109583580Y-52323816D01*
X109569139Y-52331175D01*
X109511997Y-52388318D01*
X109504639Y-52402757D01*
X109493265Y-52414306D01*
X109436122Y-52528593D01*
X109434462Y-52539613D01*
X109428551Y-52549060D01*
X109371408Y-52777631D01*
X109372268Y-52790047D01*
X109368422Y-52801885D01*
X109368422Y-53087600D01*
X109196993Y-53087600D01*
X109196993Y-52016173D01*
X115111279Y-52016173D01*
X115111279Y-53816171D01*
G37*
G36*
X25168421Y-82244742D02*
G01*
X24998934Y-82244742D01*
X24865296Y-82200197D01*
X24779179Y-82114079D01*
X24734201Y-82024123D01*
X24682707Y-81818147D01*
X24682707Y-81671338D01*
X24734201Y-81465362D01*
X24779179Y-81375405D01*
X24865296Y-81289287D01*
X24998934Y-81244742D01*
X25168421Y-81244742D01*
X25168421Y-82244742D01*
G37*
G36*
X28111279Y-82616171D02*
G01*
X24311278Y-82616171D01*
X24311278Y-81830457D01*
X24482707Y-81830457D01*
X24486553Y-81842294D01*
X24485693Y-81854711D01*
X24542836Y-82083282D01*
X24548747Y-82092728D01*
X24550407Y-82103749D01*
X24607550Y-82218036D01*
X24618924Y-82229584D01*
X24626282Y-82244024D01*
X24740567Y-82358310D01*
X24761108Y-82368776D01*
X24779656Y-82382468D01*
X24951085Y-82439611D01*
X24967293Y-82439734D01*
X24982707Y-82444742D01*
X25268421Y-82444742D01*
X25283484Y-82439848D01*
X25299323Y-82439848D01*
X25312136Y-82430538D01*
X25327200Y-82425644D01*
X25336509Y-82412830D01*
X25349323Y-82403521D01*
X25354217Y-82388457D01*
X25363527Y-82375644D01*
X25363527Y-82359804D01*
X25368421Y-82344742D01*
X25368421Y-81167904D01*
X25628284Y-81167904D01*
X25913998Y-82367904D01*
X25917594Y-82373797D01*
X25917964Y-82380691D01*
X25933419Y-82399730D01*
X25946192Y-82420661D01*
X25952564Y-82423314D01*
X25956915Y-82428674D01*
X25980604Y-82434991D01*
X26003246Y-82444420D01*
X26009963Y-82442820D01*
X26016632Y-82444599D01*
X26039514Y-82435784D01*
X26063369Y-82430104D01*
X26067861Y-82424863D01*
X26074304Y-82422382D01*
X26087633Y-82401801D01*
X26103595Y-82383184D01*
X26104149Y-82376301D01*
X26107902Y-82370508D01*
X26239850Y-81875702D01*
X26371799Y-82370508D01*
X26375551Y-82376301D01*
X26376106Y-82383184D01*
X26392067Y-82401801D01*
X26405397Y-82422382D01*
X26411839Y-82424863D01*
X26416332Y-82430104D01*
X26440184Y-82435783D01*
X26463069Y-82444599D01*
X26469739Y-82442820D01*
X26476455Y-82444419D01*
X26499093Y-82434992D01*
X26522786Y-82428674D01*
X26527136Y-82423315D01*
X26533510Y-82420661D01*
X26546282Y-82399730D01*
X26561738Y-82380691D01*
X26562107Y-82373796D01*
X26565703Y-82367904D01*
X26625639Y-82116171D01*
X27054136Y-82116171D01*
X27061259Y-82138094D01*
X27064693Y-82160892D01*
X27121836Y-82275179D01*
X27133210Y-82286726D01*
X27140568Y-82301168D01*
X27197711Y-82358310D01*
X27212152Y-82365668D01*
X27223701Y-82377043D01*
X27337986Y-82434185D01*
X27360783Y-82437618D01*
X27382707Y-82444742D01*
X27668422Y-82444742D01*
X27683837Y-82439733D01*
X27700044Y-82439610D01*
X27871473Y-82382468D01*
X27921196Y-82345763D01*
X27939848Y-82286841D01*
X27920304Y-82228209D01*
X27870030Y-82192262D01*
X27808228Y-82192731D01*
X27652196Y-82244742D01*
X27406314Y-82244742D01*
X27327657Y-82205414D01*
X27293464Y-82171220D01*
X27254136Y-82092564D01*
X27254136Y-82025493D01*
X27293464Y-81946836D01*
X27327656Y-81912643D01*
X27417609Y-81867665D01*
X27635533Y-81813185D01*
X27644979Y-81807274D01*
X27656001Y-81805614D01*
X27770286Y-81748470D01*
X27781832Y-81737097D01*
X27796275Y-81729739D01*
X27853417Y-81672596D01*
X27860774Y-81658156D01*
X27872150Y-81646607D01*
X27929293Y-81532321D01*
X27932726Y-81509523D01*
X27939850Y-81487600D01*
X27939850Y-81373314D01*
X27932726Y-81351390D01*
X27929293Y-81328593D01*
X27872150Y-81214307D01*
X27860775Y-81202758D01*
X27853417Y-81188317D01*
X27796275Y-81131174D01*
X27781832Y-81123815D01*
X27770286Y-81112443D01*
X27656001Y-81055299D01*
X27633202Y-81051865D01*
X27611279Y-81044742D01*
X27325564Y-81044742D01*
X27310148Y-81049750D01*
X27293941Y-81049874D01*
X27122513Y-81107017D01*
X27072790Y-81143722D01*
X27054138Y-81202644D01*
X27073683Y-81261277D01*
X27123957Y-81297223D01*
X27185759Y-81296753D01*
X27341791Y-81244742D01*
X27587671Y-81244742D01*
X27666327Y-81284070D01*
X27700521Y-81318263D01*
X27739850Y-81396921D01*
X27739850Y-81463993D01*
X27700520Y-81542650D01*
X27666327Y-81576842D01*
X27576372Y-81621820D01*
X27358453Y-81676300D01*
X27349006Y-81682211D01*
X27337986Y-81683871D01*
X27223700Y-81741014D01*
X27212150Y-81752389D01*
X27197711Y-81759747D01*
X27140568Y-81816889D01*
X27133209Y-81831331D01*
X27121837Y-81842878D01*
X27064693Y-81957163D01*
X27061259Y-81979961D01*
X27054136Y-82001885D01*
X27054136Y-82116171D01*
X26625639Y-82116171D01*
X26851417Y-81167904D01*
X26846452Y-81106300D01*
X26806226Y-81059380D01*
X26746103Y-81045064D01*
X26689049Y-81068823D01*
X26656855Y-81121580D01*
X26462932Y-81936055D01*
X26336473Y-81461834D01*
X26333462Y-81457186D01*
X26333166Y-81451651D01*
X26316897Y-81431610D01*
X26302875Y-81409960D01*
X26297706Y-81407968D01*
X26294214Y-81403667D01*
X26269279Y-81397018D01*
X26245203Y-81387743D01*
X26239850Y-81389170D01*
X26234497Y-81387743D01*
X26210415Y-81397019D01*
X26185486Y-81403668D01*
X26181995Y-81407968D01*
X26176825Y-81409960D01*
X26162801Y-81431612D01*
X26146534Y-81451651D01*
X26146237Y-81457186D01*
X26143227Y-81461834D01*
X26016768Y-81936054D01*
X25822846Y-81121580D01*
X25790653Y-81068823D01*
X25733598Y-81045065D01*
X25673475Y-81059380D01*
X25633249Y-81106300D01*
X25628284Y-81167904D01*
X25368421Y-81167904D01*
X25368421Y-81144742D01*
X25363527Y-81129679D01*
X25363527Y-81113840D01*
X25354217Y-81101026D01*
X25349323Y-81085963D01*
X25336509Y-81076653D01*
X25327200Y-81063840D01*
X25312136Y-81058945D01*
X25299323Y-81049636D01*
X25283484Y-81049636D01*
X25268421Y-81044742D01*
X24982707Y-81044742D01*
X24967291Y-81049750D01*
X24951084Y-81049874D01*
X24779655Y-81107017D01*
X24761106Y-81120709D01*
X24740567Y-81131175D01*
X24626282Y-81245461D01*
X24618924Y-81259900D01*
X24607550Y-81271449D01*
X24550407Y-81385736D01*
X24548747Y-81396756D01*
X24542836Y-81406203D01*
X24485693Y-81634774D01*
X24486553Y-81647190D01*
X24482707Y-81659028D01*
X24482707Y-81830457D01*
X24311278Y-81830457D01*
X24311278Y-80873313D01*
X28111279Y-80873313D01*
X28111279Y-82616171D01*
G37*
X31274434Y-95444742D02*
X30531577Y-95444742D01*
X30531577Y-95444742D02*
X30931577Y-95901885D01*
X30931577Y-95901885D02*
X30760148Y-95901885D01*
X30760148Y-95901885D02*
X30645863Y-95959028D01*
X30645863Y-95959028D02*
X30588720Y-96016171D01*
X30588720Y-96016171D02*
X30531577Y-96130457D01*
X30531577Y-96130457D02*
X30531577Y-96416171D01*
X30531577Y-96416171D02*
X30588720Y-96530457D01*
X30588720Y-96530457D02*
X30645863Y-96587600D01*
X30645863Y-96587600D02*
X30760148Y-96644742D01*
X30760148Y-96644742D02*
X31103005Y-96644742D01*
X31103005Y-96644742D02*
X31217291Y-96587600D01*
X31217291Y-96587600D02*
X31274434Y-96530457D01*
X30188720Y-95444742D02*
X29788720Y-96644742D01*
X29788720Y-96644742D02*
X29388720Y-95444742D01*
X29103006Y-95444742D02*
X28360149Y-95444742D01*
X28360149Y-95444742D02*
X28760149Y-95901885D01*
X28760149Y-95901885D02*
X28588720Y-95901885D01*
X28588720Y-95901885D02*
X28474435Y-95959028D01*
X28474435Y-95959028D02*
X28417292Y-96016171D01*
X28417292Y-96016171D02*
X28360149Y-96130457D01*
X28360149Y-96130457D02*
X28360149Y-96416171D01*
X28360149Y-96416171D02*
X28417292Y-96530457D01*
X28417292Y-96530457D02*
X28474435Y-96587600D01*
X28474435Y-96587600D02*
X28588720Y-96644742D01*
X28588720Y-96644742D02*
X28931577Y-96644742D01*
X28931577Y-96644742D02*
X29045863Y-96587600D01*
X29045863Y-96587600D02*
X29103006Y-96530457D01*
X33788721Y-94487600D02*
X33617293Y-94544742D01*
X33617293Y-94544742D02*
X33331578Y-94544742D01*
X33331578Y-94544742D02*
X33217293Y-94487600D01*
X33217293Y-94487600D02*
X33160150Y-94430457D01*
X33160150Y-94430457D02*
X33103007Y-94316171D01*
X33103007Y-94316171D02*
X33103007Y-94201885D01*
X33103007Y-94201885D02*
X33160150Y-94087600D01*
X33160150Y-94087600D02*
X33217293Y-94030457D01*
X33217293Y-94030457D02*
X33331578Y-93973314D01*
X33331578Y-93973314D02*
X33560150Y-93916171D01*
X33560150Y-93916171D02*
X33674435Y-93859028D01*
X33674435Y-93859028D02*
X33731578Y-93801885D01*
X33731578Y-93801885D02*
X33788721Y-93687600D01*
X33788721Y-93687600D02*
X33788721Y-93573314D01*
X33788721Y-93573314D02*
X33731578Y-93459028D01*
X33731578Y-93459028D02*
X33674435Y-93401885D01*
X33674435Y-93401885D02*
X33560150Y-93344742D01*
X33560150Y-93344742D02*
X33274435Y-93344742D01*
X33274435Y-93344742D02*
X33103007Y-93401885D01*
X32703007Y-93344742D02*
X32417293Y-94544742D01*
X32417293Y-94544742D02*
X32188721Y-93687600D01*
X32188721Y-93687600D02*
X31960150Y-94544742D01*
X31960150Y-94544742D02*
X31674436Y-93344742D01*
X30531578Y-94430457D02*
X30588721Y-94487600D01*
X30588721Y-94487600D02*
X30760149Y-94544742D01*
X30760149Y-94544742D02*
X30874435Y-94544742D01*
X30874435Y-94544742D02*
X31045864Y-94487600D01*
X31045864Y-94487600D02*
X31160149Y-94373314D01*
X31160149Y-94373314D02*
X31217292Y-94259028D01*
X31217292Y-94259028D02*
X31274435Y-94030457D01*
X31274435Y-94030457D02*
X31274435Y-93859028D01*
X31274435Y-93859028D02*
X31217292Y-93630457D01*
X31217292Y-93630457D02*
X31160149Y-93516171D01*
X31160149Y-93516171D02*
X31045864Y-93401885D01*
X31045864Y-93401885D02*
X30874435Y-93344742D01*
X30874435Y-93344742D02*
X30760149Y-93344742D01*
X30760149Y-93344742D02*
X30588721Y-93401885D01*
X30588721Y-93401885D02*
X30531578Y-93459028D01*
X29445864Y-94544742D02*
X30017292Y-94544742D01*
X30017292Y-94544742D02*
X30017292Y-93344742D01*
X29045863Y-94544742D02*
X29045863Y-93344742D01*
X28360149Y-94544742D02*
X28874435Y-93859028D01*
X28360149Y-93344742D02*
X29045863Y-94030457D01*
X97983828Y-112382707D02*
X97926685Y-112211279D01*
X97926685Y-112211279D02*
X97869542Y-112154136D01*
X97869542Y-112154136D02*
X97755257Y-112096993D01*
X97755257Y-112096993D02*
X97583828Y-112096993D01*
X97583828Y-112096993D02*
X97469542Y-112154136D01*
X97469542Y-112154136D02*
X97412400Y-112211279D01*
X97412400Y-112211279D02*
X97355257Y-112325564D01*
X97355257Y-112325564D02*
X97355257Y-112782707D01*
X97355257Y-112782707D02*
X98555257Y-112782707D01*
X98555257Y-112782707D02*
X98555257Y-112382707D01*
X98555257Y-112382707D02*
X98498114Y-112268422D01*
X98498114Y-112268422D02*
X98440971Y-112211279D01*
X98440971Y-112211279D02*
X98326685Y-112154136D01*
X98326685Y-112154136D02*
X98212400Y-112154136D01*
X98212400Y-112154136D02*
X98098114Y-112211279D01*
X98098114Y-112211279D02*
X98040971Y-112268422D01*
X98040971Y-112268422D02*
X97983828Y-112382707D01*
X97983828Y-112382707D02*
X97983828Y-112782707D01*
X97355257Y-111068422D02*
X97983828Y-111068422D01*
X97983828Y-111068422D02*
X98098114Y-111125564D01*
X98098114Y-111125564D02*
X98155257Y-111239850D01*
X98155257Y-111239850D02*
X98155257Y-111468422D01*
X98155257Y-111468422D02*
X98098114Y-111582707D01*
X97412400Y-111068422D02*
X97355257Y-111182707D01*
X97355257Y-111182707D02*
X97355257Y-111468422D01*
X97355257Y-111468422D02*
X97412400Y-111582707D01*
X97412400Y-111582707D02*
X97526685Y-111639850D01*
X97526685Y-111639850D02*
X97640971Y-111639850D01*
X97640971Y-111639850D02*
X97755257Y-111582707D01*
X97755257Y-111582707D02*
X97812400Y-111468422D01*
X97812400Y-111468422D02*
X97812400Y-111182707D01*
X97812400Y-111182707D02*
X97869542Y-111068422D01*
X98155257Y-110668422D02*
X98155257Y-110211279D01*
X98555257Y-110496993D02*
X97526685Y-110496993D01*
X97526685Y-110496993D02*
X97412400Y-110439850D01*
X97412400Y-110439850D02*
X97355257Y-110325565D01*
X97355257Y-110325565D02*
X97355257Y-110211279D01*
X98155257Y-109982708D02*
X98155257Y-109525565D01*
X98555257Y-109811279D02*
X97526685Y-109811279D01*
X97526685Y-109811279D02*
X97412400Y-109754136D01*
X97412400Y-109754136D02*
X97355257Y-109639851D01*
X97355257Y-109639851D02*
X97355257Y-109525565D01*
X97812400Y-109125565D02*
X97812400Y-108211280D01*
X97355257Y-108668422D02*
X98269542Y-108668422D01*
G36*
X103037757Y-86284070D02*
G01*
X103071948Y-86318262D01*
X103116926Y-86408219D01*
X103168421Y-86614195D01*
X103168421Y-86875289D01*
X103116926Y-87081265D01*
X103071948Y-87171222D01*
X103037757Y-87205413D01*
X102959100Y-87244742D01*
X102892028Y-87244742D01*
X102813371Y-87205414D01*
X102779179Y-87171222D01*
X102734201Y-87081266D01*
X102682707Y-86875290D01*
X102682707Y-86614195D01*
X102734201Y-86408219D01*
X102779179Y-86318263D01*
X102813371Y-86284070D01*
X102892029Y-86244742D01*
X102959100Y-86244742D01*
X103037757Y-86284070D01*
G37*
G36*
X104237755Y-86798356D02*
G01*
X104271949Y-86832549D01*
X104311278Y-86911207D01*
X104311278Y-87092563D01*
X104271949Y-87171221D01*
X104237755Y-87205414D01*
X104159100Y-87244742D01*
X103977742Y-87244742D01*
X103899085Y-87205414D01*
X103864892Y-87171220D01*
X103825564Y-87092564D01*
X103825564Y-86911207D01*
X103864892Y-86832550D01*
X103899084Y-86798357D01*
X103977742Y-86759028D01*
X104159099Y-86759028D01*
X104237755Y-86798356D01*
G37*
G36*
X104237755Y-86284070D02*
G01*
X104271949Y-86318263D01*
X104311278Y-86396921D01*
X104311278Y-86406850D01*
X104271948Y-86485507D01*
X104237755Y-86519699D01*
X104159099Y-86559028D01*
X103977742Y-86559028D01*
X103899084Y-86519698D01*
X103864892Y-86485505D01*
X103825564Y-86406849D01*
X103825564Y-86396921D01*
X103864892Y-86318264D01*
X103899084Y-86284071D01*
X103977742Y-86244742D01*
X104159099Y-86244742D01*
X104237755Y-86284070D01*
G37*
G36*
X109054135Y-87244742D02*
G01*
X108720599Y-87244742D01*
X108641942Y-87205414D01*
X108607749Y-87171220D01*
X108568421Y-87092564D01*
X108568421Y-86968350D01*
X108607749Y-86889693D01*
X108636725Y-86860716D01*
X108770362Y-86816171D01*
X109054135Y-86816171D01*
X109054135Y-87244742D01*
G37*
G36*
X109054135Y-86616171D02*
G01*
X108777742Y-86616171D01*
X108699084Y-86576841D01*
X108664892Y-86542648D01*
X108625564Y-86463992D01*
X108625564Y-86396921D01*
X108664892Y-86318264D01*
X108699084Y-86284071D01*
X108777742Y-86244742D01*
X109054135Y-86244742D01*
X109054135Y-86616171D01*
G37*
G36*
X114082707Y-87244742D02*
G01*
X113749171Y-87244742D01*
X113670514Y-87205414D01*
X113636321Y-87171220D01*
X113596993Y-87092564D01*
X113596993Y-86968350D01*
X113636321Y-86889693D01*
X113665297Y-86860716D01*
X113798934Y-86816171D01*
X114082707Y-86816171D01*
X114082707Y-87244742D01*
G37*
G36*
X114082707Y-86616171D02*
G01*
X113806314Y-86616171D01*
X113727656Y-86576841D01*
X113693464Y-86542648D01*
X113654136Y-86463992D01*
X113654136Y-86396921D01*
X113693464Y-86318264D01*
X113727656Y-86284071D01*
X113806314Y-86244742D01*
X114082707Y-86244742D01*
X114082707Y-86616171D01*
G37*
G36*
X111511278Y-86673314D02*
G01*
X111177742Y-86673314D01*
X111099084Y-86633984D01*
X111064892Y-86599791D01*
X111025564Y-86521135D01*
X111025564Y-86396921D01*
X111064892Y-86318264D01*
X111099084Y-86284071D01*
X111177742Y-86244742D01*
X111511278Y-86244742D01*
X111511278Y-86673314D01*
G37*
G36*
X114454136Y-87898161D02*
G01*
X102311278Y-87898161D01*
X102311278Y-86887600D01*
X102482707Y-86887600D01*
X102486553Y-86899437D01*
X102485693Y-86911854D01*
X102542836Y-87140425D01*
X102548747Y-87149871D01*
X102550407Y-87160892D01*
X102607550Y-87275179D01*
X102618924Y-87286727D01*
X102626282Y-87301167D01*
X102683424Y-87358310D01*
X102697864Y-87365668D01*
X102709414Y-87377043D01*
X102823700Y-87434185D01*
X102846497Y-87437618D01*
X102868421Y-87444742D01*
X102982707Y-87444742D01*
X103004630Y-87437618D01*
X103027428Y-87434185D01*
X103141714Y-87377043D01*
X103153263Y-87365668D01*
X103167704Y-87358310D01*
X103224847Y-87301167D01*
X103232205Y-87286724D01*
X103243578Y-87275178D01*
X103300721Y-87160892D01*
X103302380Y-87149871D01*
X103308292Y-87140425D01*
X103314356Y-87116171D01*
X103625564Y-87116171D01*
X103632687Y-87138094D01*
X103636121Y-87160892D01*
X103693264Y-87275179D01*
X103704638Y-87286726D01*
X103711996Y-87301168D01*
X103769139Y-87358310D01*
X103783580Y-87365668D01*
X103795129Y-87377043D01*
X103909414Y-87434185D01*
X103932211Y-87437618D01*
X103954135Y-87444742D01*
X104182707Y-87444742D01*
X104204630Y-87437618D01*
X104227428Y-87434185D01*
X104341713Y-87377043D01*
X104353260Y-87365669D01*
X104367703Y-87358311D01*
X104424845Y-87301168D01*
X104432203Y-87286726D01*
X104443578Y-87275178D01*
X104500721Y-87160892D01*
X104504154Y-87138094D01*
X104511278Y-87116171D01*
X104511278Y-86887600D01*
X104504154Y-86865676D01*
X104500721Y-86842879D01*
X104443578Y-86728593D01*
X104432203Y-86717044D01*
X104424845Y-86702603D01*
X104381270Y-86659028D01*
X104424845Y-86615453D01*
X104432202Y-86601013D01*
X104443578Y-86589464D01*
X104494510Y-86487600D01*
X104768421Y-86487600D01*
X104773429Y-86503015D01*
X104773553Y-86519223D01*
X104830696Y-86690651D01*
X104844386Y-86709197D01*
X104854853Y-86729739D01*
X105369856Y-87244742D01*
X104868421Y-87244742D01*
X104809642Y-87263840D01*
X104773315Y-87313840D01*
X104773315Y-87375644D01*
X104809642Y-87425644D01*
X104868421Y-87444742D01*
X105611278Y-87444742D01*
X105633547Y-87437506D01*
X105656677Y-87433843D01*
X105662382Y-87428137D01*
X105670057Y-87425644D01*
X105683822Y-87406697D01*
X105700379Y-87390141D01*
X105701641Y-87382171D01*
X105706384Y-87375644D01*
X105916172Y-87375644D01*
X105952499Y-87425644D01*
X106011278Y-87444742D01*
X106582706Y-87444742D01*
X106597769Y-87439848D01*
X106613608Y-87439848D01*
X106626421Y-87430538D01*
X106641485Y-87425644D01*
X106650794Y-87412830D01*
X106663608Y-87403521D01*
X106668502Y-87388457D01*
X106677812Y-87375644D01*
X106677812Y-87359804D01*
X106682706Y-87344742D01*
X107054135Y-87344742D01*
X107073233Y-87403521D01*
X107123233Y-87439848D01*
X107185037Y-87439848D01*
X107235037Y-87403521D01*
X107254135Y-87344742D01*
X107254135Y-86595498D01*
X107463517Y-87044174D01*
X107476611Y-87058207D01*
X107485913Y-87075000D01*
X107497189Y-87080262D01*
X107505680Y-87089362D01*
X107524527Y-87093019D01*
X107541919Y-87101136D01*
X107554132Y-87098765D01*
X107566351Y-87101137D01*
X107583747Y-87093018D01*
X107602590Y-87089362D01*
X107611078Y-87080264D01*
X107622357Y-87075001D01*
X107631660Y-87058206D01*
X107644753Y-87044174D01*
X107854135Y-86595497D01*
X107854135Y-87344742D01*
X107873233Y-87403521D01*
X107923233Y-87439848D01*
X107985037Y-87439848D01*
X108035037Y-87403521D01*
X108054135Y-87344742D01*
X108054135Y-87116171D01*
X108368421Y-87116171D01*
X108375544Y-87138094D01*
X108378978Y-87160892D01*
X108436121Y-87275179D01*
X108447495Y-87286726D01*
X108454853Y-87301168D01*
X108511996Y-87358310D01*
X108526437Y-87365668D01*
X108537986Y-87377043D01*
X108652271Y-87434185D01*
X108675068Y-87437618D01*
X108696992Y-87444742D01*
X109154135Y-87444742D01*
X109169198Y-87439848D01*
X109185037Y-87439848D01*
X109197850Y-87430538D01*
X109212914Y-87425644D01*
X109222223Y-87412830D01*
X109235037Y-87403521D01*
X109239931Y-87388457D01*
X109249241Y-87375644D01*
X109249241Y-87359804D01*
X109254135Y-87344742D01*
X109254135Y-86144742D01*
X109249241Y-86129679D01*
X109249241Y-86113840D01*
X109239931Y-86101026D01*
X109235037Y-86085963D01*
X109231742Y-86083569D01*
X109454216Y-86083569D01*
X109470930Y-86143070D01*
X110499502Y-87685927D01*
X110547997Y-87724241D01*
X110609750Y-87726732D01*
X110661175Y-87692449D01*
X110682626Y-87634488D01*
X110665912Y-87574987D01*
X109979082Y-86544742D01*
X110825564Y-86544742D01*
X110832687Y-86566665D01*
X110836121Y-86589463D01*
X110893264Y-86703750D01*
X110904638Y-86715297D01*
X110911996Y-86729739D01*
X110969139Y-86786881D01*
X110983578Y-86794238D01*
X110995128Y-86805614D01*
X111109414Y-86862757D01*
X111132211Y-86866190D01*
X111154135Y-86873314D01*
X111511278Y-86873314D01*
X111511278Y-87344742D01*
X111530376Y-87403521D01*
X111580376Y-87439848D01*
X111642180Y-87439848D01*
X111692180Y-87403521D01*
X111711278Y-87344742D01*
X112082707Y-87344742D01*
X112101805Y-87403521D01*
X112151805Y-87439848D01*
X112213609Y-87439848D01*
X112263609Y-87403521D01*
X112282707Y-87344742D01*
X112282707Y-86595498D01*
X112492089Y-87044174D01*
X112505183Y-87058207D01*
X112514485Y-87075000D01*
X112525761Y-87080262D01*
X112534252Y-87089362D01*
X112553099Y-87093019D01*
X112570491Y-87101136D01*
X112582704Y-87098765D01*
X112594923Y-87101137D01*
X112612319Y-87093018D01*
X112631162Y-87089362D01*
X112639650Y-87080264D01*
X112650929Y-87075001D01*
X112660232Y-87058206D01*
X112673325Y-87044174D01*
X112882707Y-86595497D01*
X112882707Y-87344742D01*
X112901805Y-87403521D01*
X112951805Y-87439848D01*
X113013609Y-87439848D01*
X113063609Y-87403521D01*
X113082707Y-87344742D01*
X113082707Y-87116171D01*
X113396993Y-87116171D01*
X113404116Y-87138094D01*
X113407550Y-87160892D01*
X113464693Y-87275179D01*
X113476067Y-87286726D01*
X113483425Y-87301168D01*
X113540568Y-87358310D01*
X113555009Y-87365668D01*
X113566558Y-87377043D01*
X113680843Y-87434185D01*
X113703640Y-87437618D01*
X113725564Y-87444742D01*
X114182707Y-87444742D01*
X114197770Y-87439848D01*
X114213609Y-87439848D01*
X114226422Y-87430538D01*
X114241486Y-87425644D01*
X114250795Y-87412830D01*
X114263609Y-87403521D01*
X114268503Y-87388457D01*
X114277813Y-87375644D01*
X114277813Y-87359804D01*
X114282707Y-87344742D01*
X114282707Y-86144742D01*
X114277813Y-86129679D01*
X114277813Y-86113840D01*
X114268503Y-86101026D01*
X114263609Y-86085963D01*
X114250795Y-86076653D01*
X114241486Y-86063840D01*
X114226422Y-86058945D01*
X114213609Y-86049636D01*
X114197770Y-86049636D01*
X114182707Y-86044742D01*
X113782707Y-86044742D01*
X113760783Y-86051865D01*
X113737986Y-86055299D01*
X113623700Y-86112442D01*
X113612150Y-86123817D01*
X113597711Y-86131175D01*
X113540568Y-86188317D01*
X113533210Y-86202758D01*
X113521836Y-86214306D01*
X113464693Y-86328593D01*
X113461259Y-86351390D01*
X113454136Y-86373314D01*
X113454136Y-86487600D01*
X113461259Y-86509523D01*
X113464693Y-86532322D01*
X113521837Y-86646607D01*
X113533209Y-86658153D01*
X113540568Y-86672596D01*
X113560447Y-86692474D01*
X113540568Y-86702604D01*
X113483425Y-86759746D01*
X113476066Y-86774188D01*
X113464694Y-86785735D01*
X113407550Y-86900020D01*
X113404116Y-86922818D01*
X113396993Y-86944742D01*
X113396993Y-87116171D01*
X113082707Y-87116171D01*
X113082707Y-86144742D01*
X113079678Y-86135419D01*
X113080876Y-86125689D01*
X113070331Y-86106652D01*
X113063609Y-86085963D01*
X113055679Y-86080201D01*
X113050929Y-86071626D01*
X113031210Y-86062423D01*
X113013609Y-86049636D01*
X113003807Y-86049636D01*
X112994923Y-86045490D01*
X112973561Y-86049636D01*
X112951805Y-86049636D01*
X112943875Y-86055397D01*
X112934252Y-86057265D01*
X112919408Y-86073173D01*
X112901805Y-86085963D01*
X112898775Y-86095286D01*
X112892089Y-86102453D01*
X112582706Y-86765414D01*
X112273325Y-86102453D01*
X112266638Y-86095286D01*
X112263609Y-86085963D01*
X112246005Y-86073173D01*
X112231162Y-86057265D01*
X112221539Y-86055397D01*
X112213609Y-86049636D01*
X112191850Y-86049636D01*
X112170491Y-86045491D01*
X112161609Y-86049636D01*
X112151805Y-86049636D01*
X112134200Y-86062426D01*
X112114485Y-86071627D01*
X112109735Y-86080201D01*
X112101805Y-86085963D01*
X112095081Y-86106655D01*
X112084538Y-86125690D01*
X112085735Y-86135420D01*
X112082707Y-86144742D01*
X112082707Y-87344742D01*
X111711278Y-87344742D01*
X111711278Y-86144742D01*
X111706384Y-86129679D01*
X111706384Y-86113840D01*
X111697074Y-86101026D01*
X111692180Y-86085963D01*
X111679366Y-86076653D01*
X111670057Y-86063840D01*
X111654993Y-86058945D01*
X111642180Y-86049636D01*
X111626341Y-86049636D01*
X111611278Y-86044742D01*
X111154135Y-86044742D01*
X111132211Y-86051865D01*
X111109414Y-86055299D01*
X110995128Y-86112442D01*
X110983578Y-86123817D01*
X110969139Y-86131175D01*
X110911996Y-86188317D01*
X110904638Y-86202758D01*
X110893264Y-86214306D01*
X110836121Y-86328593D01*
X110832687Y-86351390D01*
X110825564Y-86373314D01*
X110825564Y-86544742D01*
X109979082Y-86544742D01*
X109637340Y-86032130D01*
X109588845Y-85993817D01*
X109527092Y-85991326D01*
X109475668Y-86025608D01*
X109454216Y-86083569D01*
X109231742Y-86083569D01*
X109222223Y-86076653D01*
X109212914Y-86063840D01*
X109197850Y-86058945D01*
X109185037Y-86049636D01*
X109169198Y-86049636D01*
X109154135Y-86044742D01*
X108754135Y-86044742D01*
X108732211Y-86051865D01*
X108709414Y-86055299D01*
X108595128Y-86112442D01*
X108583578Y-86123817D01*
X108569139Y-86131175D01*
X108511996Y-86188317D01*
X108504638Y-86202758D01*
X108493264Y-86214306D01*
X108436121Y-86328593D01*
X108432687Y-86351390D01*
X108425564Y-86373314D01*
X108425564Y-86487600D01*
X108432687Y-86509523D01*
X108436121Y-86532322D01*
X108493265Y-86646607D01*
X108504637Y-86658153D01*
X108511996Y-86672596D01*
X108531875Y-86692474D01*
X108511996Y-86702604D01*
X108454853Y-86759746D01*
X108447494Y-86774188D01*
X108436122Y-86785735D01*
X108378978Y-86900020D01*
X108375544Y-86922818D01*
X108368421Y-86944742D01*
X108368421Y-87116171D01*
X108054135Y-87116171D01*
X108054135Y-86144742D01*
X108051106Y-86135419D01*
X108052304Y-86125689D01*
X108041759Y-86106652D01*
X108035037Y-86085963D01*
X108027107Y-86080201D01*
X108022357Y-86071626D01*
X108002638Y-86062423D01*
X107985037Y-86049636D01*
X107975235Y-86049636D01*
X107966351Y-86045490D01*
X107944989Y-86049636D01*
X107923233Y-86049636D01*
X107915303Y-86055397D01*
X107905680Y-86057265D01*
X107890836Y-86073173D01*
X107873233Y-86085963D01*
X107870203Y-86095286D01*
X107863517Y-86102453D01*
X107554134Y-86765414D01*
X107244753Y-86102453D01*
X107238066Y-86095286D01*
X107235037Y-86085963D01*
X107217433Y-86073173D01*
X107202590Y-86057265D01*
X107192967Y-86055397D01*
X107185037Y-86049636D01*
X107163278Y-86049636D01*
X107141919Y-86045491D01*
X107133037Y-86049636D01*
X107123233Y-86049636D01*
X107105628Y-86062426D01*
X107085913Y-86071627D01*
X107081163Y-86080201D01*
X107073233Y-86085963D01*
X107066509Y-86106655D01*
X107055966Y-86125690D01*
X107057163Y-86135420D01*
X107054135Y-86144742D01*
X107054135Y-87344742D01*
X106682706Y-87344742D01*
X106682706Y-86144742D01*
X106677812Y-86129679D01*
X106677812Y-86113840D01*
X106668502Y-86101026D01*
X106663608Y-86085963D01*
X106650794Y-86076653D01*
X106641485Y-86063840D01*
X106626421Y-86058945D01*
X106613608Y-86049636D01*
X106597769Y-86049636D01*
X106582706Y-86044742D01*
X106011278Y-86044742D01*
X105952499Y-86063840D01*
X105916172Y-86113840D01*
X105916172Y-86175644D01*
X105952499Y-86225644D01*
X106011278Y-86244742D01*
X106482706Y-86244742D01*
X106482706Y-86616171D01*
X106182706Y-86616171D01*
X106123927Y-86635269D01*
X106087600Y-86685269D01*
X106087600Y-86747073D01*
X106123927Y-86797073D01*
X106182706Y-86816171D01*
X106482706Y-86816171D01*
X106482706Y-87244742D01*
X106011278Y-87244742D01*
X105952499Y-87263840D01*
X105916172Y-87313840D01*
X105916172Y-87375644D01*
X105706384Y-87375644D01*
X105706384Y-87352226D01*
X105710047Y-87329099D01*
X105706384Y-87321909D01*
X105706384Y-87313840D01*
X105692619Y-87294894D01*
X105681989Y-87274031D01*
X105012966Y-86605008D01*
X104968421Y-86471372D01*
X104968421Y-86396921D01*
X105007749Y-86318264D01*
X105041941Y-86284071D01*
X105120599Y-86244742D01*
X105359099Y-86244742D01*
X105437755Y-86284070D01*
X105483424Y-86329738D01*
X105538491Y-86357797D01*
X105599534Y-86348129D01*
X105643236Y-86304427D01*
X105652904Y-86243384D01*
X105624845Y-86188317D01*
X105567703Y-86131174D01*
X105553260Y-86123815D01*
X105541714Y-86112443D01*
X105427429Y-86055299D01*
X105404630Y-86051865D01*
X105382707Y-86044742D01*
X105096992Y-86044742D01*
X105075068Y-86051865D01*
X105052271Y-86055299D01*
X104937985Y-86112442D01*
X104926435Y-86123817D01*
X104911996Y-86131175D01*
X104854853Y-86188317D01*
X104847495Y-86202758D01*
X104836121Y-86214306D01*
X104778978Y-86328593D01*
X104775544Y-86351390D01*
X104768421Y-86373314D01*
X104768421Y-86487600D01*
X104494510Y-86487600D01*
X104500721Y-86475178D01*
X104504154Y-86452380D01*
X104511278Y-86430457D01*
X104511278Y-86373314D01*
X104504154Y-86351390D01*
X104500721Y-86328593D01*
X104443578Y-86214307D01*
X104432203Y-86202758D01*
X104424845Y-86188317D01*
X104367703Y-86131174D01*
X104353260Y-86123815D01*
X104341714Y-86112443D01*
X104227429Y-86055299D01*
X104204630Y-86051865D01*
X104182707Y-86044742D01*
X103954135Y-86044742D01*
X103932211Y-86051865D01*
X103909414Y-86055299D01*
X103795128Y-86112442D01*
X103783578Y-86123817D01*
X103769139Y-86131175D01*
X103711996Y-86188317D01*
X103704638Y-86202758D01*
X103693264Y-86214306D01*
X103636121Y-86328593D01*
X103632687Y-86351390D01*
X103625564Y-86373314D01*
X103625564Y-86430457D01*
X103632687Y-86452380D01*
X103636121Y-86475179D01*
X103693265Y-86589464D01*
X103704637Y-86601010D01*
X103711996Y-86615453D01*
X103755571Y-86659028D01*
X103711996Y-86702603D01*
X103704638Y-86717044D01*
X103693264Y-86728592D01*
X103636121Y-86842879D01*
X103632687Y-86865676D01*
X103625564Y-86887600D01*
X103625564Y-87116171D01*
X103314356Y-87116171D01*
X103365435Y-86911853D01*
X103364574Y-86899437D01*
X103368421Y-86887600D01*
X103368421Y-86601885D01*
X103364574Y-86590047D01*
X103365435Y-86577632D01*
X103308292Y-86349060D01*
X103302380Y-86339613D01*
X103300721Y-86328593D01*
X103243578Y-86214307D01*
X103232205Y-86202760D01*
X103224847Y-86188318D01*
X103167704Y-86131175D01*
X103153264Y-86123817D01*
X103141715Y-86112442D01*
X103027428Y-86055299D01*
X103004630Y-86051865D01*
X102982707Y-86044742D01*
X102868421Y-86044742D01*
X102846497Y-86051865D01*
X102823700Y-86055299D01*
X102709414Y-86112442D01*
X102697865Y-86123816D01*
X102683424Y-86131175D01*
X102626282Y-86188318D01*
X102618924Y-86202757D01*
X102607550Y-86214306D01*
X102550407Y-86328593D01*
X102548747Y-86339613D01*
X102542836Y-86349060D01*
X102485693Y-86577631D01*
X102486553Y-86590047D01*
X102482707Y-86601885D01*
X102482707Y-86887600D01*
X102311278Y-86887600D01*
X102311278Y-85819897D01*
X114454136Y-85819897D01*
X114454136Y-87898161D01*
G37*
X30674435Y-91401885D02*
X30788721Y-91344742D01*
X30788721Y-91344742D02*
X30960149Y-91344742D01*
X30960149Y-91344742D02*
X31131578Y-91401885D01*
X31131578Y-91401885D02*
X31245863Y-91516171D01*
X31245863Y-91516171D02*
X31303006Y-91630457D01*
X31303006Y-91630457D02*
X31360149Y-91859028D01*
X31360149Y-91859028D02*
X31360149Y-92030457D01*
X31360149Y-92030457D02*
X31303006Y-92259028D01*
X31303006Y-92259028D02*
X31245863Y-92373314D01*
X31245863Y-92373314D02*
X31131578Y-92487600D01*
X31131578Y-92487600D02*
X30960149Y-92544742D01*
X30960149Y-92544742D02*
X30845863Y-92544742D01*
X30845863Y-92544742D02*
X30674435Y-92487600D01*
X30674435Y-92487600D02*
X30617292Y-92430457D01*
X30617292Y-92430457D02*
X30617292Y-92030457D01*
X30617292Y-92030457D02*
X30845863Y-92030457D01*
X30103006Y-92544742D02*
X30103006Y-91344742D01*
X30103006Y-91344742D02*
X29417292Y-92544742D01*
X29417292Y-92544742D02*
X29417292Y-91344742D01*
X28845863Y-92544742D02*
X28845863Y-91344742D01*
X28845863Y-91344742D02*
X28560149Y-91344742D01*
X28560149Y-91344742D02*
X28388720Y-91401885D01*
X28388720Y-91401885D02*
X28274435Y-91516171D01*
X28274435Y-91516171D02*
X28217292Y-91630457D01*
X28217292Y-91630457D02*
X28160149Y-91859028D01*
X28160149Y-91859028D02*
X28160149Y-92030457D01*
X28160149Y-92030457D02*
X28217292Y-92259028D01*
X28217292Y-92259028D02*
X28274435Y-92373314D01*
X28274435Y-92373314D02*
X28388720Y-92487600D01*
X28388720Y-92487600D02*
X28560149Y-92544742D01*
X28560149Y-92544742D02*
X28845863Y-92544742D01*
X110306517Y-104099838D02*
X110401755Y-104052219D01*
X110401755Y-104052219D02*
X110544612Y-104052219D01*
X110544612Y-104052219D02*
X110687469Y-104099838D01*
X110687469Y-104099838D02*
X110782707Y-104195076D01*
X110782707Y-104195076D02*
X110830326Y-104290314D01*
X110830326Y-104290314D02*
X110877945Y-104480790D01*
X110877945Y-104480790D02*
X110877945Y-104623647D01*
X110877945Y-104623647D02*
X110830326Y-104814123D01*
X110830326Y-104814123D02*
X110782707Y-104909361D01*
X110782707Y-104909361D02*
X110687469Y-105004600D01*
X110687469Y-105004600D02*
X110544612Y-105052219D01*
X110544612Y-105052219D02*
X110449374Y-105052219D01*
X110449374Y-105052219D02*
X110306517Y-105004600D01*
X110306517Y-105004600D02*
X110258898Y-104956980D01*
X110258898Y-104956980D02*
X110258898Y-104623647D01*
X110258898Y-104623647D02*
X110449374Y-104623647D01*
X109830326Y-105052219D02*
X109830326Y-104052219D01*
X109830326Y-104052219D02*
X109258898Y-105052219D01*
X109258898Y-105052219D02*
X109258898Y-104052219D01*
X108782707Y-105052219D02*
X108782707Y-104052219D01*
X108782707Y-104052219D02*
X108544612Y-104052219D01*
X108544612Y-104052219D02*
X108401755Y-104099838D01*
X108401755Y-104099838D02*
X108306517Y-104195076D01*
X108306517Y-104195076D02*
X108258898Y-104290314D01*
X108258898Y-104290314D02*
X108211279Y-104480790D01*
X108211279Y-104480790D02*
X108211279Y-104623647D01*
X108211279Y-104623647D02*
X108258898Y-104814123D01*
X108258898Y-104814123D02*
X108306517Y-104909361D01*
X108306517Y-104909361D02*
X108401755Y-105004600D01*
X108401755Y-105004600D02*
X108544612Y-105052219D01*
X108544612Y-105052219D02*
X108782707Y-105052219D01*
X92854136Y-117101885D02*
X92968422Y-117044742D01*
X92968422Y-117044742D02*
X93139850Y-117044742D01*
X93139850Y-117044742D02*
X93311279Y-117101885D01*
X93311279Y-117101885D02*
X93425564Y-117216171D01*
X93425564Y-117216171D02*
X93482707Y-117330457D01*
X93482707Y-117330457D02*
X93539850Y-117559028D01*
X93539850Y-117559028D02*
X93539850Y-117730457D01*
X93539850Y-117730457D02*
X93482707Y-117959028D01*
X93482707Y-117959028D02*
X93425564Y-118073314D01*
X93425564Y-118073314D02*
X93311279Y-118187600D01*
X93311279Y-118187600D02*
X93139850Y-118244742D01*
X93139850Y-118244742D02*
X93025564Y-118244742D01*
X93025564Y-118244742D02*
X92854136Y-118187600D01*
X92854136Y-118187600D02*
X92796993Y-118130457D01*
X92796993Y-118130457D02*
X92796993Y-117730457D01*
X92796993Y-117730457D02*
X93025564Y-117730457D01*
X92282707Y-118244742D02*
X92282707Y-117044742D01*
X92282707Y-117044742D02*
X91596993Y-118244742D01*
X91596993Y-118244742D02*
X91596993Y-117044742D01*
X91025564Y-118244742D02*
X91025564Y-117044742D01*
X91025564Y-117044742D02*
X90739850Y-117044742D01*
X90739850Y-117044742D02*
X90568421Y-117101885D01*
X90568421Y-117101885D02*
X90454136Y-117216171D01*
X90454136Y-117216171D02*
X90396993Y-117330457D01*
X90396993Y-117330457D02*
X90339850Y-117559028D01*
X90339850Y-117559028D02*
X90339850Y-117730457D01*
X90339850Y-117730457D02*
X90396993Y-117959028D01*
X90396993Y-117959028D02*
X90454136Y-118073314D01*
X90454136Y-118073314D02*
X90568421Y-118187600D01*
X90568421Y-118187600D02*
X90739850Y-118244742D01*
X90739850Y-118244742D02*
X91025564Y-118244742D01*
X32360149Y-88544742D02*
X32360149Y-87344742D01*
X32360149Y-87344742D02*
X31674435Y-88544742D01*
X31674435Y-88544742D02*
X31674435Y-87344742D01*
X30417292Y-88544742D02*
X30817292Y-87973314D01*
X31103006Y-88544742D02*
X31103006Y-87344742D01*
X31103006Y-87344742D02*
X30645863Y-87344742D01*
X30645863Y-87344742D02*
X30531578Y-87401885D01*
X30531578Y-87401885D02*
X30474435Y-87459028D01*
X30474435Y-87459028D02*
X30417292Y-87573314D01*
X30417292Y-87573314D02*
X30417292Y-87744742D01*
X30417292Y-87744742D02*
X30474435Y-87859028D01*
X30474435Y-87859028D02*
X30531578Y-87916171D01*
X30531578Y-87916171D02*
X30645863Y-87973314D01*
X30645863Y-87973314D02*
X31103006Y-87973314D01*
X29960149Y-88487600D02*
X29788721Y-88544742D01*
X29788721Y-88544742D02*
X29503006Y-88544742D01*
X29503006Y-88544742D02*
X29388721Y-88487600D01*
X29388721Y-88487600D02*
X29331578Y-88430457D01*
X29331578Y-88430457D02*
X29274435Y-88316171D01*
X29274435Y-88316171D02*
X29274435Y-88201885D01*
X29274435Y-88201885D02*
X29331578Y-88087600D01*
X29331578Y-88087600D02*
X29388721Y-88030457D01*
X29388721Y-88030457D02*
X29503006Y-87973314D01*
X29503006Y-87973314D02*
X29731578Y-87916171D01*
X29731578Y-87916171D02*
X29845863Y-87859028D01*
X29845863Y-87859028D02*
X29903006Y-87801885D01*
X29903006Y-87801885D02*
X29960149Y-87687600D01*
X29960149Y-87687600D02*
X29960149Y-87573314D01*
X29960149Y-87573314D02*
X29903006Y-87459028D01*
X29903006Y-87459028D02*
X29845863Y-87401885D01*
X29845863Y-87401885D02*
X29731578Y-87344742D01*
X29731578Y-87344742D02*
X29445863Y-87344742D01*
X29445863Y-87344742D02*
X29274435Y-87401885D01*
X28931578Y-87344742D02*
X28245864Y-87344742D01*
X28588721Y-88544742D02*
X28588721Y-87344742D01*
X111655257Y-112696993D02*
X111655257Y-111954136D01*
X111655257Y-111954136D02*
X111198114Y-112354136D01*
X111198114Y-112354136D02*
X111198114Y-112182707D01*
X111198114Y-112182707D02*
X111140971Y-112068422D01*
X111140971Y-112068422D02*
X111083828Y-112011279D01*
X111083828Y-112011279D02*
X110969542Y-111954136D01*
X110969542Y-111954136D02*
X110683828Y-111954136D01*
X110683828Y-111954136D02*
X110569542Y-112011279D01*
X110569542Y-112011279D02*
X110512400Y-112068422D01*
X110512400Y-112068422D02*
X110455257Y-112182707D01*
X110455257Y-112182707D02*
X110455257Y-112525564D01*
X110455257Y-112525564D02*
X110512400Y-112639850D01*
X110512400Y-112639850D02*
X110569542Y-112696993D01*
X111655257Y-111611279D02*
X110455257Y-111211279D01*
X110455257Y-111211279D02*
X111655257Y-110811279D01*
X111655257Y-110525565D02*
X111655257Y-109782708D01*
X111655257Y-109782708D02*
X111198114Y-110182708D01*
X111198114Y-110182708D02*
X111198114Y-110011279D01*
X111198114Y-110011279D02*
X111140971Y-109896994D01*
X111140971Y-109896994D02*
X111083828Y-109839851D01*
X111083828Y-109839851D02*
X110969542Y-109782708D01*
X110969542Y-109782708D02*
X110683828Y-109782708D01*
X110683828Y-109782708D02*
X110569542Y-109839851D01*
X110569542Y-109839851D02*
X110512400Y-109896994D01*
X110512400Y-109896994D02*
X110455257Y-110011279D01*
X110455257Y-110011279D02*
X110455257Y-110354136D01*
X110455257Y-110354136D02*
X110512400Y-110468422D01*
X110512400Y-110468422D02*
X110569542Y-110525565D01*
X105155257Y-112111279D02*
X105155257Y-112682707D01*
X105155257Y-112682707D02*
X104583828Y-112739850D01*
X104583828Y-112739850D02*
X104640971Y-112682707D01*
X104640971Y-112682707D02*
X104698114Y-112568422D01*
X104698114Y-112568422D02*
X104698114Y-112282707D01*
X104698114Y-112282707D02*
X104640971Y-112168422D01*
X104640971Y-112168422D02*
X104583828Y-112111279D01*
X104583828Y-112111279D02*
X104469542Y-112054136D01*
X104469542Y-112054136D02*
X104183828Y-112054136D01*
X104183828Y-112054136D02*
X104069542Y-112111279D01*
X104069542Y-112111279D02*
X104012400Y-112168422D01*
X104012400Y-112168422D02*
X103955257Y-112282707D01*
X103955257Y-112282707D02*
X103955257Y-112568422D01*
X103955257Y-112568422D02*
X104012400Y-112682707D01*
X104012400Y-112682707D02*
X104069542Y-112739850D01*
X105155257Y-111711279D02*
X103955257Y-111311279D01*
X103955257Y-111311279D02*
X105155257Y-110911279D01*
X33445864Y-90487600D02*
X33274436Y-90544742D01*
X33274436Y-90544742D02*
X32988721Y-90544742D01*
X32988721Y-90544742D02*
X32874436Y-90487600D01*
X32874436Y-90487600D02*
X32817293Y-90430457D01*
X32817293Y-90430457D02*
X32760150Y-90316171D01*
X32760150Y-90316171D02*
X32760150Y-90201885D01*
X32760150Y-90201885D02*
X32817293Y-90087600D01*
X32817293Y-90087600D02*
X32874436Y-90030457D01*
X32874436Y-90030457D02*
X32988721Y-89973314D01*
X32988721Y-89973314D02*
X33217293Y-89916171D01*
X33217293Y-89916171D02*
X33331578Y-89859028D01*
X33331578Y-89859028D02*
X33388721Y-89801885D01*
X33388721Y-89801885D02*
X33445864Y-89687600D01*
X33445864Y-89687600D02*
X33445864Y-89573314D01*
X33445864Y-89573314D02*
X33388721Y-89459028D01*
X33388721Y-89459028D02*
X33331578Y-89401885D01*
X33331578Y-89401885D02*
X33217293Y-89344742D01*
X33217293Y-89344742D02*
X32931578Y-89344742D01*
X32931578Y-89344742D02*
X32760150Y-89401885D01*
X32360150Y-89344742D02*
X32074436Y-90544742D01*
X32074436Y-90544742D02*
X31845864Y-89687600D01*
X31845864Y-89687600D02*
X31617293Y-90544742D01*
X31617293Y-90544742D02*
X31331579Y-89344742D01*
X30874435Y-90544742D02*
X30874435Y-89344742D01*
X30874435Y-89344742D02*
X30588721Y-89344742D01*
X30588721Y-89344742D02*
X30417292Y-89401885D01*
X30417292Y-89401885D02*
X30303007Y-89516171D01*
X30303007Y-89516171D02*
X30245864Y-89630457D01*
X30245864Y-89630457D02*
X30188721Y-89859028D01*
X30188721Y-89859028D02*
X30188721Y-90030457D01*
X30188721Y-90030457D02*
X30245864Y-90259028D01*
X30245864Y-90259028D02*
X30303007Y-90373314D01*
X30303007Y-90373314D02*
X30417292Y-90487600D01*
X30417292Y-90487600D02*
X30588721Y-90544742D01*
X30588721Y-90544742D02*
X30874435Y-90544742D01*
X29674435Y-90544742D02*
X29674435Y-89344742D01*
X28874435Y-89344742D02*
X28645863Y-89344742D01*
X28645863Y-89344742D02*
X28531578Y-89401885D01*
X28531578Y-89401885D02*
X28417292Y-89516171D01*
X28417292Y-89516171D02*
X28360149Y-89744742D01*
X28360149Y-89744742D02*
X28360149Y-90144742D01*
X28360149Y-90144742D02*
X28417292Y-90373314D01*
X28417292Y-90373314D02*
X28531578Y-90487600D01*
X28531578Y-90487600D02*
X28645863Y-90544742D01*
X28645863Y-90544742D02*
X28874435Y-90544742D01*
X28874435Y-90544742D02*
X28988721Y-90487600D01*
X28988721Y-90487600D02*
X29103006Y-90373314D01*
X29103006Y-90373314D02*
X29160149Y-90144742D01*
X29160149Y-90144742D02*
X29160149Y-89744742D01*
X29160149Y-89744742D02*
X29103006Y-89516171D01*
X29103006Y-89516171D02*
X28988721Y-89401885D01*
X28988721Y-89401885D02*
X28874435Y-89344742D01*
X96355257Y-112754136D02*
X95155257Y-112354136D01*
X95155257Y-112354136D02*
X96355257Y-111954136D01*
X95955257Y-111039851D02*
X95155257Y-111039851D01*
X95955257Y-111554136D02*
X95326685Y-111554136D01*
X95326685Y-111554136D02*
X95212400Y-111496993D01*
X95212400Y-111496993D02*
X95155257Y-111382708D01*
X95155257Y-111382708D02*
X95155257Y-111211279D01*
X95155257Y-111211279D02*
X95212400Y-111096993D01*
X95212400Y-111096993D02*
X95269542Y-111039851D01*
X95212400Y-110525565D02*
X95155257Y-110411279D01*
X95155257Y-110411279D02*
X95155257Y-110182708D01*
X95155257Y-110182708D02*
X95212400Y-110068422D01*
X95212400Y-110068422D02*
X95326685Y-110011279D01*
X95326685Y-110011279D02*
X95383828Y-110011279D01*
X95383828Y-110011279D02*
X95498114Y-110068422D01*
X95498114Y-110068422D02*
X95555257Y-110182708D01*
X95555257Y-110182708D02*
X95555257Y-110354137D01*
X95555257Y-110354137D02*
X95612400Y-110468422D01*
X95612400Y-110468422D02*
X95726685Y-110525565D01*
X95726685Y-110525565D02*
X95783828Y-110525565D01*
X95783828Y-110525565D02*
X95898114Y-110468422D01*
X95898114Y-110468422D02*
X95955257Y-110354137D01*
X95955257Y-110354137D02*
X95955257Y-110182708D01*
X95955257Y-110182708D02*
X95898114Y-110068422D01*
X95155257Y-109496993D02*
X96355257Y-109496993D01*
X95898114Y-109496993D02*
X95955257Y-109382708D01*
X95955257Y-109382708D02*
X95955257Y-109154136D01*
X95955257Y-109154136D02*
X95898114Y-109039850D01*
X95898114Y-109039850D02*
X95840971Y-108982708D01*
X95840971Y-108982708D02*
X95726685Y-108925565D01*
X95726685Y-108925565D02*
X95383828Y-108925565D01*
X95383828Y-108925565D02*
X95269542Y-108982708D01*
X95269542Y-108982708D02*
X95212400Y-109039850D01*
X95212400Y-109039850D02*
X95155257Y-109154136D01*
X95155257Y-109154136D02*
X95155257Y-109382708D01*
X95155257Y-109382708D02*
X95212400Y-109496993D01*
G36*
X115323472Y-46484070D02*
G01*
X115357663Y-46518262D01*
X115402641Y-46608219D01*
X115454136Y-46814195D01*
X115454136Y-47075289D01*
X115402641Y-47281265D01*
X115357663Y-47371222D01*
X115323472Y-47405413D01*
X115244815Y-47444742D01*
X115177743Y-47444742D01*
X115099086Y-47405414D01*
X115064894Y-47371222D01*
X115019916Y-47281266D01*
X114968422Y-47075290D01*
X114968422Y-46814195D01*
X115019916Y-46608219D01*
X115064894Y-46518263D01*
X115099086Y-46484070D01*
X115177744Y-46444742D01*
X115244815Y-46444742D01*
X115323472Y-46484070D01*
G37*
G36*
X117739850Y-47444742D02*
G01*
X117570363Y-47444742D01*
X117436725Y-47400197D01*
X117350608Y-47314079D01*
X117305630Y-47224123D01*
X117254136Y-47018147D01*
X117254136Y-46871338D01*
X117305630Y-46665362D01*
X117350608Y-46575405D01*
X117436725Y-46489287D01*
X117570363Y-46444742D01*
X117739850Y-46444742D01*
X117739850Y-47444742D01*
G37*
G36*
X120511279Y-47816171D02*
G01*
X114596993Y-47816171D01*
X114596993Y-47087600D01*
X114768422Y-47087600D01*
X114772268Y-47099437D01*
X114771408Y-47111854D01*
X114828551Y-47340425D01*
X114834462Y-47349871D01*
X114836122Y-47360892D01*
X114893265Y-47475179D01*
X114904639Y-47486727D01*
X114911997Y-47501167D01*
X114969139Y-47558310D01*
X114983579Y-47565668D01*
X114995129Y-47577043D01*
X115109415Y-47634185D01*
X115132212Y-47637618D01*
X115154136Y-47644742D01*
X115268422Y-47644742D01*
X115290345Y-47637618D01*
X115313143Y-47634185D01*
X115427429Y-47577043D01*
X115438978Y-47565668D01*
X115453419Y-47558310D01*
X115510562Y-47501167D01*
X115517920Y-47486724D01*
X115529293Y-47475178D01*
X115586436Y-47360892D01*
X115588095Y-47349871D01*
X115594007Y-47340425D01*
X115600071Y-47316171D01*
X115911279Y-47316171D01*
X115918402Y-47338094D01*
X115921836Y-47360892D01*
X115978979Y-47475179D01*
X115990353Y-47486726D01*
X115997711Y-47501168D01*
X116054854Y-47558310D01*
X116069295Y-47565668D01*
X116080844Y-47577043D01*
X116195129Y-47634185D01*
X116217926Y-47637618D01*
X116239850Y-47644742D01*
X116582707Y-47644742D01*
X116604630Y-47637618D01*
X116627428Y-47634185D01*
X116741714Y-47577043D01*
X116753261Y-47565669D01*
X116767704Y-47558311D01*
X116824846Y-47501168D01*
X116852905Y-47446101D01*
X116843237Y-47385058D01*
X116799535Y-47341356D01*
X116738492Y-47331688D01*
X116683425Y-47359747D01*
X116637756Y-47405414D01*
X116559100Y-47444742D01*
X116263457Y-47444742D01*
X116184800Y-47405414D01*
X116150607Y-47371220D01*
X116111279Y-47292564D01*
X116111279Y-47054064D01*
X116123082Y-47030457D01*
X117054136Y-47030457D01*
X117057982Y-47042294D01*
X117057122Y-47054711D01*
X117114265Y-47283282D01*
X117120176Y-47292728D01*
X117121836Y-47303749D01*
X117178979Y-47418036D01*
X117190353Y-47429584D01*
X117197711Y-47444024D01*
X117311996Y-47558310D01*
X117332537Y-47568776D01*
X117351085Y-47582468D01*
X117522514Y-47639611D01*
X117538722Y-47639734D01*
X117554136Y-47644742D01*
X117839850Y-47644742D01*
X117854913Y-47639848D01*
X117870752Y-47639848D01*
X117883565Y-47630538D01*
X117898629Y-47625644D01*
X117907938Y-47612830D01*
X117920752Y-47603521D01*
X117925646Y-47588457D01*
X117934956Y-47575644D01*
X117934956Y-47559804D01*
X117939850Y-47544742D01*
X117939850Y-47446100D01*
X118255367Y-47446100D01*
X118283425Y-47501168D01*
X118340568Y-47558310D01*
X118361109Y-47568776D01*
X118379657Y-47582468D01*
X118551085Y-47639611D01*
X118567293Y-47639734D01*
X118582707Y-47644742D01*
X118696993Y-47644742D01*
X118712408Y-47639733D01*
X118728615Y-47639610D01*
X118900045Y-47582468D01*
X118918593Y-47568775D01*
X118939133Y-47558310D01*
X119053418Y-47444024D01*
X119060775Y-47429583D01*
X119072150Y-47418035D01*
X119123082Y-47316171D01*
X119454136Y-47316171D01*
X119461259Y-47338094D01*
X119464693Y-47360892D01*
X119521836Y-47475179D01*
X119533210Y-47486726D01*
X119540568Y-47501168D01*
X119597711Y-47558310D01*
X119612152Y-47565668D01*
X119623701Y-47577043D01*
X119737986Y-47634185D01*
X119760783Y-47637618D01*
X119782707Y-47644742D01*
X120068422Y-47644742D01*
X120083837Y-47639733D01*
X120100044Y-47639610D01*
X120271473Y-47582468D01*
X120321196Y-47545763D01*
X120339848Y-47486841D01*
X120320304Y-47428209D01*
X120270030Y-47392262D01*
X120208228Y-47392731D01*
X120052196Y-47444742D01*
X119806314Y-47444742D01*
X119727657Y-47405414D01*
X119693464Y-47371220D01*
X119654136Y-47292564D01*
X119654136Y-47225493D01*
X119693464Y-47146836D01*
X119727656Y-47112643D01*
X119817609Y-47067665D01*
X120035533Y-47013185D01*
X120044979Y-47007274D01*
X120056001Y-47005614D01*
X120170286Y-46948470D01*
X120181832Y-46937097D01*
X120196275Y-46929739D01*
X120253417Y-46872596D01*
X120260774Y-46858156D01*
X120272150Y-46846607D01*
X120329293Y-46732321D01*
X120332726Y-46709523D01*
X120339850Y-46687600D01*
X120339850Y-46573314D01*
X120332726Y-46551390D01*
X120329293Y-46528593D01*
X120272150Y-46414307D01*
X120260775Y-46402758D01*
X120253417Y-46388317D01*
X120196275Y-46331174D01*
X120181832Y-46323815D01*
X120170286Y-46312443D01*
X120056001Y-46255299D01*
X120033202Y-46251865D01*
X120011279Y-46244742D01*
X119725564Y-46244742D01*
X119710148Y-46249750D01*
X119693941Y-46249874D01*
X119522513Y-46307017D01*
X119472790Y-46343722D01*
X119454138Y-46402644D01*
X119473683Y-46461277D01*
X119523957Y-46497223D01*
X119585759Y-46496753D01*
X119741791Y-46444742D01*
X119987671Y-46444742D01*
X120066327Y-46484070D01*
X120100521Y-46518263D01*
X120139850Y-46596921D01*
X120139850Y-46663993D01*
X120100520Y-46742650D01*
X120066327Y-46776842D01*
X119976372Y-46821820D01*
X119758453Y-46876300D01*
X119749006Y-46882211D01*
X119737986Y-46883871D01*
X119623700Y-46941014D01*
X119612150Y-46952389D01*
X119597711Y-46959747D01*
X119540568Y-47016889D01*
X119533209Y-47031331D01*
X119521837Y-47042878D01*
X119464693Y-47157163D01*
X119461259Y-47179961D01*
X119454136Y-47201885D01*
X119454136Y-47316171D01*
X119123082Y-47316171D01*
X119129293Y-47303749D01*
X119130952Y-47292728D01*
X119136864Y-47283282D01*
X119194007Y-47054710D01*
X119193146Y-47042294D01*
X119196993Y-47030457D01*
X119196993Y-46859028D01*
X119193146Y-46847190D01*
X119194007Y-46834775D01*
X119136864Y-46606203D01*
X119130952Y-46596756D01*
X119129293Y-46585736D01*
X119072150Y-46471450D01*
X119060775Y-46459901D01*
X119053418Y-46445461D01*
X118939133Y-46331175D01*
X118918593Y-46320709D01*
X118900045Y-46307017D01*
X118728616Y-46249874D01*
X118712408Y-46249750D01*
X118696993Y-46244742D01*
X118582707Y-46244742D01*
X118567291Y-46249750D01*
X118551084Y-46249874D01*
X118379656Y-46307017D01*
X118361107Y-46320709D01*
X118340568Y-46331175D01*
X118283425Y-46388317D01*
X118255367Y-46443385D01*
X118265035Y-46504427D01*
X118308737Y-46548129D01*
X118369779Y-46557797D01*
X118424847Y-46529739D01*
X118465297Y-46489287D01*
X118598934Y-46444742D01*
X118680766Y-46444742D01*
X118814403Y-46489287D01*
X118900520Y-46575405D01*
X118945498Y-46665362D01*
X118996993Y-46871338D01*
X118996993Y-47018146D01*
X118945498Y-47224122D01*
X118900520Y-47314079D01*
X118814404Y-47400196D01*
X118680767Y-47444742D01*
X118598934Y-47444742D01*
X118465297Y-47400197D01*
X118424847Y-47359746D01*
X118369779Y-47331688D01*
X118308737Y-47341356D01*
X118265035Y-47385058D01*
X118255367Y-47446100D01*
X117939850Y-47446100D01*
X117939850Y-46344742D01*
X117934956Y-46329679D01*
X117934956Y-46313840D01*
X117925646Y-46301026D01*
X117920752Y-46285963D01*
X117907938Y-46276653D01*
X117898629Y-46263840D01*
X117883565Y-46258945D01*
X117870752Y-46249636D01*
X117854913Y-46249636D01*
X117839850Y-46244742D01*
X117554136Y-46244742D01*
X117538720Y-46249750D01*
X117522513Y-46249874D01*
X117351084Y-46307017D01*
X117332535Y-46320709D01*
X117311996Y-46331175D01*
X117197711Y-46445461D01*
X117190353Y-46459900D01*
X117178979Y-46471449D01*
X117121836Y-46585736D01*
X117120176Y-46596756D01*
X117114265Y-46606203D01*
X117057122Y-46834774D01*
X117057982Y-46847190D01*
X117054136Y-46859028D01*
X117054136Y-47030457D01*
X116123082Y-47030457D01*
X116150607Y-46975407D01*
X116184799Y-46941214D01*
X116263457Y-46901885D01*
X116411279Y-46901885D01*
X116430508Y-46895636D01*
X116450651Y-46893809D01*
X116459224Y-46886306D01*
X116470058Y-46882787D01*
X116481944Y-46866426D01*
X116497163Y-46853110D01*
X116499689Y-46842002D01*
X116506385Y-46832787D01*
X116506385Y-46812564D01*
X116510870Y-46792846D01*
X116506385Y-46782374D01*
X116506385Y-46770983D01*
X116494498Y-46754622D01*
X116486537Y-46736035D01*
X116231656Y-46444742D01*
X116754136Y-46444742D01*
X116812915Y-46425644D01*
X116849242Y-46375644D01*
X116849242Y-46313840D01*
X116812915Y-46263840D01*
X116754136Y-46244742D01*
X116011279Y-46244742D01*
X115992049Y-46250990D01*
X115971907Y-46252818D01*
X115963333Y-46260320D01*
X115952500Y-46263840D01*
X115940613Y-46280200D01*
X115925395Y-46293517D01*
X115922868Y-46304624D01*
X115916173Y-46313840D01*
X115916173Y-46334062D01*
X115911688Y-46353781D01*
X115916173Y-46364252D01*
X115916173Y-46375644D01*
X115928059Y-46392004D01*
X115936021Y-46410592D01*
X116199556Y-46711775D01*
X116195129Y-46712442D01*
X116080843Y-46769585D01*
X116069293Y-46780960D01*
X116054854Y-46788318D01*
X115997711Y-46845460D01*
X115990353Y-46859901D01*
X115978979Y-46871449D01*
X115921836Y-46985736D01*
X115918402Y-47008533D01*
X115911279Y-47030457D01*
X115911279Y-47316171D01*
X115600071Y-47316171D01*
X115651150Y-47111853D01*
X115650289Y-47099437D01*
X115654136Y-47087600D01*
X115654136Y-46801885D01*
X115650289Y-46790047D01*
X115651150Y-46777632D01*
X115594007Y-46549060D01*
X115588095Y-46539613D01*
X115586436Y-46528593D01*
X115529293Y-46414307D01*
X115517920Y-46402760D01*
X115510562Y-46388318D01*
X115453419Y-46331175D01*
X115438979Y-46323817D01*
X115427430Y-46312442D01*
X115313143Y-46255299D01*
X115290345Y-46251865D01*
X115268422Y-46244742D01*
X115154136Y-46244742D01*
X115132212Y-46251865D01*
X115109415Y-46255299D01*
X114995129Y-46312442D01*
X114983580Y-46323816D01*
X114969139Y-46331175D01*
X114911997Y-46388318D01*
X114904639Y-46402757D01*
X114893265Y-46414306D01*
X114836122Y-46528593D01*
X114834462Y-46539613D01*
X114828551Y-46549060D01*
X114771408Y-46777631D01*
X114772268Y-46790047D01*
X114768422Y-46801885D01*
X114768422Y-47087600D01*
X114596993Y-47087600D01*
X114596993Y-46073313D01*
X120511279Y-46073313D01*
X120511279Y-47816171D01*
G37*
X31674435Y-86487600D02*
X31503007Y-86544742D01*
X31503007Y-86544742D02*
X31217292Y-86544742D01*
X31217292Y-86544742D02*
X31103007Y-86487600D01*
X31103007Y-86487600D02*
X31045864Y-86430457D01*
X31045864Y-86430457D02*
X30988721Y-86316171D01*
X30988721Y-86316171D02*
X30988721Y-86201885D01*
X30988721Y-86201885D02*
X31045864Y-86087600D01*
X31045864Y-86087600D02*
X31103007Y-86030457D01*
X31103007Y-86030457D02*
X31217292Y-85973314D01*
X31217292Y-85973314D02*
X31445864Y-85916171D01*
X31445864Y-85916171D02*
X31560149Y-85859028D01*
X31560149Y-85859028D02*
X31617292Y-85801885D01*
X31617292Y-85801885D02*
X31674435Y-85687600D01*
X31674435Y-85687600D02*
X31674435Y-85573314D01*
X31674435Y-85573314D02*
X31617292Y-85459028D01*
X31617292Y-85459028D02*
X31560149Y-85401885D01*
X31560149Y-85401885D02*
X31445864Y-85344742D01*
X31445864Y-85344742D02*
X31160149Y-85344742D01*
X31160149Y-85344742D02*
X30988721Y-85401885D01*
X30588721Y-85344742D02*
X30303007Y-86544742D01*
X30303007Y-86544742D02*
X30074435Y-85687600D01*
X30074435Y-85687600D02*
X29845864Y-86544742D01*
X29845864Y-86544742D02*
X29560150Y-85344742D01*
X28874435Y-85344742D02*
X28645863Y-85344742D01*
X28645863Y-85344742D02*
X28531578Y-85401885D01*
X28531578Y-85401885D02*
X28417292Y-85516171D01*
X28417292Y-85516171D02*
X28360149Y-85744742D01*
X28360149Y-85744742D02*
X28360149Y-86144742D01*
X28360149Y-86144742D02*
X28417292Y-86373314D01*
X28417292Y-86373314D02*
X28531578Y-86487600D01*
X28531578Y-86487600D02*
X28645863Y-86544742D01*
X28645863Y-86544742D02*
X28874435Y-86544742D01*
X28874435Y-86544742D02*
X28988721Y-86487600D01*
X28988721Y-86487600D02*
X29103006Y-86373314D01*
X29103006Y-86373314D02*
X29160149Y-86144742D01*
X29160149Y-86144742D02*
X29160149Y-85744742D01*
X29160149Y-85744742D02*
X29103006Y-85516171D01*
X29103006Y-85516171D02*
X28988721Y-85401885D01*
X28988721Y-85401885D02*
X28874435Y-85344742D01*
G36*
X101860148Y-45673314D02*
G01*
X101526612Y-45673314D01*
X101447954Y-45633984D01*
X101413762Y-45599791D01*
X101374434Y-45521135D01*
X101374434Y-45396921D01*
X101413762Y-45318264D01*
X101447954Y-45284071D01*
X101526612Y-45244742D01*
X101860148Y-45244742D01*
X101860148Y-45673314D01*
G37*
G36*
X104460148Y-46616171D02*
G01*
X96088720Y-46616171D01*
X96088720Y-46116171D01*
X96260149Y-46116171D01*
X96267272Y-46138094D01*
X96270706Y-46160892D01*
X96327849Y-46275179D01*
X96339223Y-46286726D01*
X96346581Y-46301168D01*
X96403724Y-46358310D01*
X96418165Y-46365668D01*
X96429714Y-46377043D01*
X96543999Y-46434185D01*
X96566796Y-46437618D01*
X96588720Y-46444742D01*
X96874435Y-46444742D01*
X96889850Y-46439733D01*
X96906057Y-46439610D01*
X97077486Y-46382468D01*
X97127209Y-46345763D01*
X97145861Y-46286841D01*
X97126317Y-46228209D01*
X97076043Y-46192262D01*
X97014241Y-46192731D01*
X96858209Y-46244742D01*
X96612327Y-46244742D01*
X96533670Y-46205414D01*
X96499477Y-46171220D01*
X96460149Y-46092564D01*
X96460149Y-46025493D01*
X96499477Y-45946836D01*
X96533669Y-45912643D01*
X96623622Y-45867665D01*
X96841546Y-45813185D01*
X96850992Y-45807274D01*
X96862014Y-45805614D01*
X96976299Y-45748470D01*
X96987845Y-45737097D01*
X97002288Y-45729739D01*
X97059430Y-45672596D01*
X97066787Y-45658156D01*
X97078163Y-45646607D01*
X97135306Y-45532321D01*
X97138739Y-45509523D01*
X97145863Y-45487600D01*
X97403006Y-45487600D01*
X97408014Y-45503015D01*
X97408138Y-45519223D01*
X97465281Y-45690651D01*
X97478971Y-45709197D01*
X97489438Y-45729739D01*
X98004441Y-46244742D01*
X97503006Y-46244742D01*
X97444227Y-46263840D01*
X97407900Y-46313840D01*
X97407900Y-46375644D01*
X97444227Y-46425644D01*
X97503006Y-46444742D01*
X98245863Y-46444742D01*
X98268132Y-46437506D01*
X98291262Y-46433843D01*
X98296967Y-46428137D01*
X98304642Y-46425644D01*
X98318407Y-46406697D01*
X98334964Y-46390141D01*
X98336226Y-46382171D01*
X98340969Y-46375644D01*
X98550757Y-46375644D01*
X98587084Y-46425644D01*
X98645863Y-46444742D01*
X99331577Y-46444742D01*
X99390356Y-46425644D01*
X99426683Y-46375644D01*
X99426683Y-46313840D01*
X99390356Y-46263840D01*
X99331577Y-46244742D01*
X99088720Y-46244742D01*
X99088720Y-45918502D01*
X99750757Y-45918502D01*
X99787084Y-45968502D01*
X99845863Y-45987600D01*
X100760148Y-45987600D01*
X100818927Y-45968502D01*
X100855254Y-45918502D01*
X100855254Y-45856698D01*
X100818927Y-45806698D01*
X100760148Y-45787600D01*
X99845863Y-45787600D01*
X99787084Y-45806698D01*
X99750757Y-45856698D01*
X99750757Y-45918502D01*
X99088720Y-45918502D01*
X99088720Y-45443306D01*
X99146580Y-45501167D01*
X99161021Y-45508525D01*
X99172570Y-45519900D01*
X99286856Y-45577043D01*
X99347970Y-45586248D01*
X99402823Y-45557772D01*
X99409338Y-45544742D01*
X101174434Y-45544742D01*
X101181557Y-45566665D01*
X101184991Y-45589463D01*
X101242134Y-45703750D01*
X101253508Y-45715297D01*
X101260866Y-45729739D01*
X101318009Y-45786881D01*
X101332448Y-45794238D01*
X101343998Y-45805614D01*
X101458284Y-45862757D01*
X101481081Y-45866190D01*
X101503005Y-45873314D01*
X101860148Y-45873314D01*
X101860148Y-46344742D01*
X101879246Y-46403521D01*
X101929246Y-46439848D01*
X101991050Y-46439848D01*
X102041050Y-46403521D01*
X102060148Y-46344742D01*
X102060148Y-46116171D01*
X102374434Y-46116171D01*
X102381557Y-46138094D01*
X102384991Y-46160892D01*
X102442134Y-46275179D01*
X102453508Y-46286726D01*
X102460866Y-46301168D01*
X102518009Y-46358310D01*
X102532450Y-46365668D01*
X102543999Y-46377043D01*
X102658284Y-46434185D01*
X102681081Y-46437618D01*
X102703005Y-46444742D01*
X102988720Y-46444742D01*
X103004135Y-46439733D01*
X103020342Y-46439610D01*
X103191771Y-46382468D01*
X103201015Y-46375644D01*
X103522185Y-46375644D01*
X103558512Y-46425644D01*
X103617291Y-46444742D01*
X104188719Y-46444742D01*
X104203782Y-46439848D01*
X104219621Y-46439848D01*
X104232434Y-46430538D01*
X104247498Y-46425644D01*
X104256807Y-46412830D01*
X104269621Y-46403521D01*
X104274515Y-46388457D01*
X104283825Y-46375644D01*
X104283825Y-46359804D01*
X104288719Y-46344742D01*
X104288719Y-45144742D01*
X104283825Y-45129679D01*
X104283825Y-45113840D01*
X104274515Y-45101026D01*
X104269621Y-45085963D01*
X104256807Y-45076653D01*
X104247498Y-45063840D01*
X104232434Y-45058945D01*
X104219621Y-45049636D01*
X104203782Y-45049636D01*
X104188719Y-45044742D01*
X103617291Y-45044742D01*
X103558512Y-45063840D01*
X103522185Y-45113840D01*
X103522185Y-45175644D01*
X103558512Y-45225644D01*
X103617291Y-45244742D01*
X104088719Y-45244742D01*
X104088719Y-45616171D01*
X103788719Y-45616171D01*
X103729940Y-45635269D01*
X103693613Y-45685269D01*
X103693613Y-45747073D01*
X103729940Y-45797073D01*
X103788719Y-45816171D01*
X104088719Y-45816171D01*
X104088719Y-46244742D01*
X103617291Y-46244742D01*
X103558512Y-46263840D01*
X103522185Y-46313840D01*
X103522185Y-46375644D01*
X103201015Y-46375644D01*
X103241494Y-46345763D01*
X103260146Y-46286841D01*
X103240602Y-46228209D01*
X103190328Y-46192262D01*
X103128526Y-46192731D01*
X102972494Y-46244742D01*
X102726612Y-46244742D01*
X102647955Y-46205414D01*
X102613762Y-46171220D01*
X102574434Y-46092564D01*
X102574434Y-46025493D01*
X102613762Y-45946836D01*
X102647954Y-45912643D01*
X102737907Y-45867665D01*
X102955831Y-45813185D01*
X102965277Y-45807274D01*
X102976299Y-45805614D01*
X103090584Y-45748470D01*
X103102130Y-45737097D01*
X103116573Y-45729739D01*
X103173715Y-45672596D01*
X103181072Y-45658156D01*
X103192448Y-45646607D01*
X103249591Y-45532321D01*
X103253024Y-45509523D01*
X103260148Y-45487600D01*
X103260148Y-45373314D01*
X103253024Y-45351390D01*
X103249591Y-45328593D01*
X103192448Y-45214307D01*
X103181073Y-45202758D01*
X103173715Y-45188317D01*
X103116573Y-45131174D01*
X103102130Y-45123815D01*
X103090584Y-45112443D01*
X102976299Y-45055299D01*
X102953500Y-45051865D01*
X102931577Y-45044742D01*
X102645862Y-45044742D01*
X102630446Y-45049750D01*
X102614239Y-45049874D01*
X102442811Y-45107017D01*
X102393088Y-45143722D01*
X102374436Y-45202644D01*
X102393981Y-45261277D01*
X102444255Y-45297223D01*
X102506057Y-45296753D01*
X102662089Y-45244742D01*
X102907969Y-45244742D01*
X102986625Y-45284070D01*
X103020819Y-45318263D01*
X103060148Y-45396921D01*
X103060148Y-45463993D01*
X103020818Y-45542650D01*
X102986625Y-45576842D01*
X102896670Y-45621820D01*
X102678751Y-45676300D01*
X102669304Y-45682211D01*
X102658284Y-45683871D01*
X102543998Y-45741014D01*
X102532448Y-45752389D01*
X102518009Y-45759747D01*
X102460866Y-45816889D01*
X102453507Y-45831331D01*
X102442135Y-45842878D01*
X102384991Y-45957163D01*
X102381557Y-45979961D01*
X102374434Y-46001885D01*
X102374434Y-46116171D01*
X102060148Y-46116171D01*
X102060148Y-45144742D01*
X102055254Y-45129679D01*
X102055254Y-45113840D01*
X102045944Y-45101026D01*
X102041050Y-45085963D01*
X102028236Y-45076653D01*
X102018927Y-45063840D01*
X102003863Y-45058945D01*
X101991050Y-45049636D01*
X101975211Y-45049636D01*
X101960148Y-45044742D01*
X101503005Y-45044742D01*
X101481081Y-45051865D01*
X101458284Y-45055299D01*
X101343998Y-45112442D01*
X101332448Y-45123817D01*
X101318009Y-45131175D01*
X101260866Y-45188317D01*
X101253508Y-45202758D01*
X101242134Y-45214306D01*
X101184991Y-45328593D01*
X101181557Y-45351390D01*
X101174434Y-45373314D01*
X101174434Y-45544742D01*
X99409338Y-45544742D01*
X99430463Y-45502493D01*
X99420331Y-45441526D01*
X99376299Y-45398157D01*
X99276526Y-45348270D01*
X99180719Y-45252463D01*
X99071925Y-45089272D01*
X99070273Y-45087966D01*
X99069622Y-45085963D01*
X99046164Y-45068920D01*
X99023430Y-45050959D01*
X99021326Y-45050874D01*
X99019622Y-45049636D01*
X98990632Y-45049636D01*
X98961677Y-45048468D01*
X98959925Y-45049636D01*
X98957818Y-45049636D01*
X98934363Y-45066676D01*
X98910253Y-45082750D01*
X98909522Y-45084724D01*
X98907818Y-45085963D01*
X98898862Y-45113526D01*
X98888801Y-45140711D01*
X98889370Y-45142739D01*
X98888720Y-45144742D01*
X98888720Y-46244742D01*
X98645863Y-46244742D01*
X98587084Y-46263840D01*
X98550757Y-46313840D01*
X98550757Y-46375644D01*
X98340969Y-46375644D01*
X98340969Y-46352226D01*
X98344632Y-46329099D01*
X98340969Y-46321909D01*
X98340969Y-46313840D01*
X98327204Y-46294894D01*
X98316574Y-46274031D01*
X97647551Y-45605008D01*
X97603006Y-45471372D01*
X97603006Y-45396921D01*
X97642334Y-45318264D01*
X97676526Y-45284071D01*
X97755184Y-45244742D01*
X97993684Y-45244742D01*
X98072340Y-45284070D01*
X98118009Y-45329738D01*
X98173076Y-45357797D01*
X98234119Y-45348129D01*
X98277821Y-45304427D01*
X98287489Y-45243384D01*
X98259430Y-45188317D01*
X98202288Y-45131174D01*
X98187845Y-45123815D01*
X98176299Y-45112443D01*
X98062014Y-45055299D01*
X98039215Y-45051865D01*
X98017292Y-45044742D01*
X97731577Y-45044742D01*
X97709653Y-45051865D01*
X97686856Y-45055299D01*
X97572570Y-45112442D01*
X97561020Y-45123817D01*
X97546581Y-45131175D01*
X97489438Y-45188317D01*
X97482080Y-45202758D01*
X97470706Y-45214306D01*
X97413563Y-45328593D01*
X97410129Y-45351390D01*
X97403006Y-45373314D01*
X97403006Y-45487600D01*
X97145863Y-45487600D01*
X97145863Y-45373314D01*
X97138739Y-45351390D01*
X97135306Y-45328593D01*
X97078163Y-45214307D01*
X97066788Y-45202758D01*
X97059430Y-45188317D01*
X97002288Y-45131174D01*
X96987845Y-45123815D01*
X96976299Y-45112443D01*
X96862014Y-45055299D01*
X96839215Y-45051865D01*
X96817292Y-45044742D01*
X96531577Y-45044742D01*
X96516161Y-45049750D01*
X96499954Y-45049874D01*
X96328526Y-45107017D01*
X96278803Y-45143722D01*
X96260151Y-45202644D01*
X96279696Y-45261277D01*
X96329970Y-45297223D01*
X96391772Y-45296753D01*
X96547804Y-45244742D01*
X96793684Y-45244742D01*
X96872340Y-45284070D01*
X96906534Y-45318263D01*
X96945863Y-45396921D01*
X96945863Y-45463993D01*
X96906533Y-45542650D01*
X96872340Y-45576842D01*
X96782385Y-45621820D01*
X96564466Y-45676300D01*
X96555019Y-45682211D01*
X96543999Y-45683871D01*
X96429713Y-45741014D01*
X96418163Y-45752389D01*
X96403724Y-45759747D01*
X96346581Y-45816889D01*
X96339222Y-45831331D01*
X96327850Y-45842878D01*
X96270706Y-45957163D01*
X96267272Y-45979961D01*
X96260149Y-46001885D01*
X96260149Y-46116171D01*
X96088720Y-46116171D01*
X96088720Y-44873313D01*
X104460148Y-44873313D01*
X104460148Y-46616171D01*
G37*
X107173183Y-104052219D02*
X106839850Y-105052219D01*
X106839850Y-105052219D02*
X106506517Y-104052219D01*
X105744612Y-105052219D02*
X105744612Y-104052219D01*
X105744612Y-105004600D02*
X105839850Y-105052219D01*
X105839850Y-105052219D02*
X106030326Y-105052219D01*
X106030326Y-105052219D02*
X106125564Y-105004600D01*
X106125564Y-105004600D02*
X106173183Y-104956980D01*
X106173183Y-104956980D02*
X106220802Y-104861742D01*
X106220802Y-104861742D02*
X106220802Y-104576028D01*
X106220802Y-104576028D02*
X106173183Y-104480790D01*
X106173183Y-104480790D02*
X106125564Y-104433171D01*
X106125564Y-104433171D02*
X106030326Y-104385552D01*
X106030326Y-104385552D02*
X105839850Y-104385552D01*
X105839850Y-104385552D02*
X105744612Y-104433171D01*
X104839850Y-105052219D02*
X104839850Y-104052219D01*
X104839850Y-105004600D02*
X104935088Y-105052219D01*
X104935088Y-105052219D02*
X105125564Y-105052219D01*
X105125564Y-105052219D02*
X105220802Y-105004600D01*
X105220802Y-105004600D02*
X105268421Y-104956980D01*
X105268421Y-104956980D02*
X105316040Y-104861742D01*
X105316040Y-104861742D02*
X105316040Y-104576028D01*
X105316040Y-104576028D02*
X105268421Y-104480790D01*
X105268421Y-104480790D02*
X105220802Y-104433171D01*
X105220802Y-104433171D02*
X105125564Y-104385552D01*
X105125564Y-104385552D02*
X104935088Y-104385552D01*
X104935088Y-104385552D02*
X104839850Y-104433171D01*
G36*
X90065314Y-114676420D02*
G01*
X90096993Y-114739778D01*
X90096993Y-114822761D01*
X89725565Y-114748476D01*
X89725565Y-114739777D01*
X89757242Y-114676420D01*
X89820601Y-114644742D01*
X90001957Y-114644742D01*
X90065314Y-114676420D01*
G37*
G36*
X92366327Y-114684070D02*
G01*
X92400521Y-114718263D01*
X92439850Y-114796921D01*
X92439850Y-115092563D01*
X92400521Y-115171221D01*
X92366327Y-115205414D01*
X92287672Y-115244742D01*
X92163457Y-115244742D01*
X92084800Y-115205414D01*
X92050608Y-115171222D01*
X92011279Y-115092564D01*
X92011279Y-114796921D01*
X92050608Y-114718263D01*
X92084800Y-114684070D01*
X92163458Y-114644742D01*
X92287671Y-114644742D01*
X92366327Y-114684070D01*
G37*
G36*
X93582707Y-114673314D02*
G01*
X93249171Y-114673314D01*
X93170513Y-114633984D01*
X93136321Y-114599791D01*
X93096993Y-114521135D01*
X93096993Y-114396921D01*
X93136321Y-114318264D01*
X93170513Y-114284071D01*
X93249171Y-114244742D01*
X93582707Y-114244742D01*
X93582707Y-114673314D01*
G37*
G36*
X93954136Y-115616171D02*
G01*
X88501887Y-115616171D01*
X88501887Y-114575644D01*
X88673316Y-114575644D01*
X88709643Y-114625644D01*
X88768422Y-114644742D01*
X88859101Y-114644742D01*
X88937758Y-114684070D01*
X88971949Y-114718262D01*
X89011279Y-114796921D01*
X89011279Y-115344742D01*
X89030377Y-115403521D01*
X89080377Y-115439848D01*
X89142181Y-115439848D01*
X89192181Y-115403521D01*
X89211279Y-115344742D01*
X89211279Y-114830457D01*
X89525565Y-114830457D01*
X89527428Y-114836193D01*
X89526246Y-114842107D01*
X89536832Y-114865134D01*
X89544663Y-114889236D01*
X89549541Y-114892780D01*
X89552061Y-114898261D01*
X89574161Y-114910667D01*
X89594663Y-114925563D01*
X89600695Y-114925563D01*
X89605953Y-114928515D01*
X90096993Y-115026722D01*
X90096993Y-115149706D01*
X90065314Y-115213064D01*
X90001958Y-115244742D01*
X89820600Y-115244742D01*
X89727428Y-115198157D01*
X89666313Y-115188952D01*
X89611461Y-115217428D01*
X89583822Y-115272708D01*
X89593953Y-115333675D01*
X89637986Y-115377043D01*
X89752272Y-115434185D01*
X89775069Y-115437618D01*
X89796993Y-115444742D01*
X90025565Y-115444742D01*
X90047488Y-115437618D01*
X90070286Y-115434185D01*
X90184571Y-115377043D01*
X90185137Y-115376484D01*
X90185924Y-115376354D01*
X90207085Y-115354868D01*
X90228604Y-115333675D01*
X90228734Y-115332887D01*
X90229293Y-115332321D01*
X90286436Y-115218035D01*
X90289869Y-115195237D01*
X90296993Y-115173314D01*
X90296993Y-114716171D01*
X90289869Y-114694247D01*
X90286436Y-114671450D01*
X90236818Y-114572214D01*
X90500841Y-114572214D01*
X90729413Y-115372214D01*
X90745844Y-115396625D01*
X90761552Y-115421569D01*
X90763033Y-115422161D01*
X90763924Y-115423485D01*
X90791596Y-115433586D01*
X90818935Y-115444522D01*
X90820481Y-115444130D01*
X90821980Y-115444678D01*
X90850313Y-115436582D01*
X90878851Y-115429363D01*
X90879871Y-115428138D01*
X90881406Y-115427700D01*
X90899570Y-115404495D01*
X90918413Y-115381881D01*
X91054136Y-115042572D01*
X91189860Y-115381881D01*
X91208709Y-115404503D01*
X91226867Y-115427699D01*
X91228400Y-115428137D01*
X91229422Y-115429363D01*
X91257973Y-115436586D01*
X91286293Y-115444678D01*
X91287791Y-115444130D01*
X91289338Y-115444522D01*
X91316676Y-115433586D01*
X91344349Y-115423485D01*
X91345239Y-115422161D01*
X91346721Y-115421569D01*
X91362423Y-115396632D01*
X91378860Y-115372214D01*
X91452015Y-115116171D01*
X91811279Y-115116171D01*
X91818402Y-115138094D01*
X91821836Y-115160892D01*
X91878979Y-115275179D01*
X91890353Y-115286727D01*
X91897711Y-115301167D01*
X91954853Y-115358310D01*
X91969293Y-115365668D01*
X91980843Y-115377043D01*
X92095129Y-115434185D01*
X92117926Y-115437618D01*
X92139850Y-115444742D01*
X92311279Y-115444742D01*
X92333202Y-115437618D01*
X92356000Y-115434185D01*
X92470285Y-115377043D01*
X92481832Y-115365669D01*
X92496275Y-115358311D01*
X92553417Y-115301168D01*
X92560775Y-115286726D01*
X92572150Y-115275178D01*
X92629293Y-115160892D01*
X92632726Y-115138094D01*
X92639850Y-115116171D01*
X92639850Y-114773314D01*
X92632726Y-114751390D01*
X92629293Y-114728593D01*
X92572150Y-114614307D01*
X92560775Y-114602758D01*
X92553417Y-114588317D01*
X92509843Y-114544742D01*
X92896993Y-114544742D01*
X92904116Y-114566665D01*
X92907550Y-114589463D01*
X92964693Y-114703750D01*
X92976067Y-114715297D01*
X92983425Y-114729739D01*
X93040568Y-114786881D01*
X93055007Y-114794238D01*
X93066557Y-114805614D01*
X93180843Y-114862757D01*
X93203640Y-114866190D01*
X93225564Y-114873314D01*
X93582707Y-114873314D01*
X93582707Y-115344742D01*
X93601805Y-115403521D01*
X93651805Y-115439848D01*
X93713609Y-115439848D01*
X93763609Y-115403521D01*
X93782707Y-115344742D01*
X93782707Y-114144742D01*
X93777813Y-114129679D01*
X93777813Y-114113840D01*
X93768503Y-114101026D01*
X93763609Y-114085963D01*
X93750795Y-114076653D01*
X93741486Y-114063840D01*
X93726422Y-114058945D01*
X93713609Y-114049636D01*
X93697770Y-114049636D01*
X93682707Y-114044742D01*
X93225564Y-114044742D01*
X93203640Y-114051865D01*
X93180843Y-114055299D01*
X93066557Y-114112442D01*
X93055007Y-114123817D01*
X93040568Y-114131175D01*
X92983425Y-114188317D01*
X92976067Y-114202758D01*
X92964693Y-114214306D01*
X92907550Y-114328593D01*
X92904116Y-114351390D01*
X92896993Y-114373314D01*
X92896993Y-114544742D01*
X92509843Y-114544742D01*
X92496275Y-114531174D01*
X92481832Y-114523815D01*
X92470286Y-114512443D01*
X92356001Y-114455299D01*
X92333202Y-114451865D01*
X92311279Y-114444742D01*
X92139850Y-114444742D01*
X92117926Y-114451865D01*
X92095129Y-114455299D01*
X91980843Y-114512442D01*
X91969294Y-114523816D01*
X91954853Y-114531175D01*
X91897711Y-114588318D01*
X91890353Y-114602757D01*
X91878979Y-114614306D01*
X91821836Y-114728593D01*
X91818402Y-114751390D01*
X91811279Y-114773314D01*
X91811279Y-115116171D01*
X91452015Y-115116171D01*
X91607431Y-114572214D01*
X91605216Y-114510450D01*
X91567119Y-114461785D01*
X91507693Y-114444806D01*
X91449637Y-114466000D01*
X91415126Y-114517270D01*
X91266916Y-115036005D01*
X91146984Y-114736175D01*
X91131249Y-114717290D01*
X91118149Y-114696487D01*
X91111799Y-114693947D01*
X91107422Y-114688693D01*
X91083593Y-114682664D01*
X91060766Y-114673533D01*
X91054134Y-114675210D01*
X91047506Y-114673534D01*
X91024685Y-114682662D01*
X91000850Y-114688693D01*
X90996472Y-114693947D01*
X90990123Y-114696487D01*
X90977022Y-114717290D01*
X90961288Y-114736175D01*
X90841355Y-115036006D01*
X90693145Y-114517270D01*
X90658634Y-114465999D01*
X90600578Y-114444806D01*
X90541152Y-114461785D01*
X90503056Y-114510450D01*
X90500841Y-114572214D01*
X90236818Y-114572214D01*
X90229293Y-114557164D01*
X90228734Y-114556597D01*
X90228604Y-114555811D01*
X90207102Y-114534633D01*
X90185924Y-114513131D01*
X90185137Y-114513000D01*
X90184572Y-114512443D01*
X90070287Y-114455299D01*
X90047488Y-114451865D01*
X90025565Y-114444742D01*
X89796993Y-114444742D01*
X89775069Y-114451865D01*
X89752272Y-114455299D01*
X89637986Y-114512442D01*
X89637419Y-114513000D01*
X89636632Y-114513131D01*
X89615438Y-114534649D01*
X89593953Y-114555811D01*
X89593822Y-114556597D01*
X89593264Y-114557164D01*
X89536122Y-114671450D01*
X89532688Y-114694247D01*
X89525565Y-114716171D01*
X89525565Y-114830457D01*
X89211279Y-114830457D01*
X89211279Y-114544742D01*
X89192181Y-114485963D01*
X89142181Y-114449636D01*
X89080377Y-114449636D01*
X89030377Y-114485963D01*
X89024560Y-114503864D01*
X88927429Y-114455299D01*
X88904631Y-114451865D01*
X88882708Y-114444742D01*
X88768422Y-114444742D01*
X88709643Y-114463840D01*
X88673316Y-114513840D01*
X88673316Y-114575644D01*
X88501887Y-114575644D01*
X88501887Y-113873313D01*
X93954136Y-113873313D01*
X93954136Y-115616171D01*
G37*
D11*
X48692738Y-42900057D02*
X48787976Y-42852438D01*
X48787976Y-42852438D02*
X48883214Y-42757200D01*
X48883214Y-42757200D02*
X49026071Y-42614342D01*
X49026071Y-42614342D02*
X49121309Y-42566723D01*
X49121309Y-42566723D02*
X49216547Y-42566723D01*
X49168928Y-42804819D02*
X49264166Y-42757200D01*
X49264166Y-42757200D02*
X49359404Y-42661961D01*
X49359404Y-42661961D02*
X49407023Y-42471485D01*
X49407023Y-42471485D02*
X49407023Y-42138152D01*
X49407023Y-42138152D02*
X49359404Y-41947676D01*
X49359404Y-41947676D02*
X49264166Y-41852438D01*
X49264166Y-41852438D02*
X49168928Y-41804819D01*
X49168928Y-41804819D02*
X48978452Y-41804819D01*
X48978452Y-41804819D02*
X48883214Y-41852438D01*
X48883214Y-41852438D02*
X48787976Y-41947676D01*
X48787976Y-41947676D02*
X48740357Y-42138152D01*
X48740357Y-42138152D02*
X48740357Y-42471485D01*
X48740357Y-42471485D02*
X48787976Y-42661961D01*
X48787976Y-42661961D02*
X48883214Y-42757200D01*
X48883214Y-42757200D02*
X48978452Y-42804819D01*
X48978452Y-42804819D02*
X49168928Y-42804819D01*
X48359404Y-41900057D02*
X48311785Y-41852438D01*
X48311785Y-41852438D02*
X48216547Y-41804819D01*
X48216547Y-41804819D02*
X47978452Y-41804819D01*
X47978452Y-41804819D02*
X47883214Y-41852438D01*
X47883214Y-41852438D02*
X47835595Y-41900057D01*
X47835595Y-41900057D02*
X47787976Y-41995295D01*
X47787976Y-41995295D02*
X47787976Y-42090533D01*
X47787976Y-42090533D02*
X47835595Y-42233390D01*
X47835595Y-42233390D02*
X48407023Y-42804819D01*
X48407023Y-42804819D02*
X47787976Y-42804819D01*
X108961904Y-93454819D02*
X108961904Y-94264342D01*
X108961904Y-94264342D02*
X108914285Y-94359580D01*
X108914285Y-94359580D02*
X108866666Y-94407200D01*
X108866666Y-94407200D02*
X108771428Y-94454819D01*
X108771428Y-94454819D02*
X108580952Y-94454819D01*
X108580952Y-94454819D02*
X108485714Y-94407200D01*
X108485714Y-94407200D02*
X108438095Y-94359580D01*
X108438095Y-94359580D02*
X108390476Y-94264342D01*
X108390476Y-94264342D02*
X108390476Y-93454819D01*
X107961904Y-93550057D02*
X107914285Y-93502438D01*
X107914285Y-93502438D02*
X107819047Y-93454819D01*
X107819047Y-93454819D02*
X107580952Y-93454819D01*
X107580952Y-93454819D02*
X107485714Y-93502438D01*
X107485714Y-93502438D02*
X107438095Y-93550057D01*
X107438095Y-93550057D02*
X107390476Y-93645295D01*
X107390476Y-93645295D02*
X107390476Y-93740533D01*
X107390476Y-93740533D02*
X107438095Y-93883390D01*
X107438095Y-93883390D02*
X108009523Y-94454819D01*
X108009523Y-94454819D02*
X107390476Y-94454819D01*
X108233333Y-99854819D02*
X108233333Y-100569104D01*
X108233333Y-100569104D02*
X108280952Y-100711961D01*
X108280952Y-100711961D02*
X108376190Y-100807200D01*
X108376190Y-100807200D02*
X108519047Y-100854819D01*
X108519047Y-100854819D02*
X108614285Y-100854819D01*
X107757142Y-100854819D02*
X107757142Y-99854819D01*
X107757142Y-99854819D02*
X107376190Y-99854819D01*
X107376190Y-99854819D02*
X107280952Y-99902438D01*
X107280952Y-99902438D02*
X107233333Y-99950057D01*
X107233333Y-99950057D02*
X107185714Y-100045295D01*
X107185714Y-100045295D02*
X107185714Y-100188152D01*
X107185714Y-100188152D02*
X107233333Y-100283390D01*
X107233333Y-100283390D02*
X107280952Y-100331009D01*
X107280952Y-100331009D02*
X107376190Y-100378628D01*
X107376190Y-100378628D02*
X107757142Y-100378628D01*
X106852380Y-99854819D02*
X106233333Y-99854819D01*
X106233333Y-99854819D02*
X106566666Y-100235771D01*
X106566666Y-100235771D02*
X106423809Y-100235771D01*
X106423809Y-100235771D02*
X106328571Y-100283390D01*
X106328571Y-100283390D02*
X106280952Y-100331009D01*
X106280952Y-100331009D02*
X106233333Y-100426247D01*
X106233333Y-100426247D02*
X106233333Y-100664342D01*
X106233333Y-100664342D02*
X106280952Y-100759580D01*
X106280952Y-100759580D02*
X106328571Y-100807200D01*
X106328571Y-100807200D02*
X106423809Y-100854819D01*
X106423809Y-100854819D02*
X106709523Y-100854819D01*
X106709523Y-100854819D02*
X106804761Y-100807200D01*
X106804761Y-100807200D02*
X106852380Y-100759580D01*
X54877857Y-50104819D02*
X55211190Y-49628628D01*
X55449285Y-50104819D02*
X55449285Y-49104819D01*
X55449285Y-49104819D02*
X55068333Y-49104819D01*
X55068333Y-49104819D02*
X54973095Y-49152438D01*
X54973095Y-49152438D02*
X54925476Y-49200057D01*
X54925476Y-49200057D02*
X54877857Y-49295295D01*
X54877857Y-49295295D02*
X54877857Y-49438152D01*
X54877857Y-49438152D02*
X54925476Y-49533390D01*
X54925476Y-49533390D02*
X54973095Y-49581009D01*
X54973095Y-49581009D02*
X55068333Y-49628628D01*
X55068333Y-49628628D02*
X55449285Y-49628628D01*
X54496904Y-49200057D02*
X54449285Y-49152438D01*
X54449285Y-49152438D02*
X54354047Y-49104819D01*
X54354047Y-49104819D02*
X54115952Y-49104819D01*
X54115952Y-49104819D02*
X54020714Y-49152438D01*
X54020714Y-49152438D02*
X53973095Y-49200057D01*
X53973095Y-49200057D02*
X53925476Y-49295295D01*
X53925476Y-49295295D02*
X53925476Y-49390533D01*
X53925476Y-49390533D02*
X53973095Y-49533390D01*
X53973095Y-49533390D02*
X54544523Y-50104819D01*
X54544523Y-50104819D02*
X53925476Y-50104819D01*
X53544523Y-49200057D02*
X53496904Y-49152438D01*
X53496904Y-49152438D02*
X53401666Y-49104819D01*
X53401666Y-49104819D02*
X53163571Y-49104819D01*
X53163571Y-49104819D02*
X53068333Y-49152438D01*
X53068333Y-49152438D02*
X53020714Y-49200057D01*
X53020714Y-49200057D02*
X52973095Y-49295295D01*
X52973095Y-49295295D02*
X52973095Y-49390533D01*
X52973095Y-49390533D02*
X53020714Y-49533390D01*
X53020714Y-49533390D02*
X53592142Y-50104819D01*
X53592142Y-50104819D02*
X52973095Y-50104819D01*
X65914819Y-88866666D02*
X66629104Y-88866666D01*
X66629104Y-88866666D02*
X66771961Y-88819047D01*
X66771961Y-88819047D02*
X66867200Y-88723809D01*
X66867200Y-88723809D02*
X66914819Y-88580952D01*
X66914819Y-88580952D02*
X66914819Y-88485714D01*
X66914819Y-89342857D02*
X65914819Y-89342857D01*
X65914819Y-89342857D02*
X65914819Y-89723809D01*
X65914819Y-89723809D02*
X65962438Y-89819047D01*
X65962438Y-89819047D02*
X66010057Y-89866666D01*
X66010057Y-89866666D02*
X66105295Y-89914285D01*
X66105295Y-89914285D02*
X66248152Y-89914285D01*
X66248152Y-89914285D02*
X66343390Y-89866666D01*
X66343390Y-89866666D02*
X66391009Y-89819047D01*
X66391009Y-89819047D02*
X66438628Y-89723809D01*
X66438628Y-89723809D02*
X66438628Y-89342857D01*
X66248152Y-90771428D02*
X66914819Y-90771428D01*
X65867200Y-90533333D02*
X66581485Y-90295238D01*
X66581485Y-90295238D02*
X66581485Y-90914285D01*
X54290357Y-43104819D02*
X54623690Y-42628628D01*
X54861785Y-43104819D02*
X54861785Y-42104819D01*
X54861785Y-42104819D02*
X54480833Y-42104819D01*
X54480833Y-42104819D02*
X54385595Y-42152438D01*
X54385595Y-42152438D02*
X54337976Y-42200057D01*
X54337976Y-42200057D02*
X54290357Y-42295295D01*
X54290357Y-42295295D02*
X54290357Y-42438152D01*
X54290357Y-42438152D02*
X54337976Y-42533390D01*
X54337976Y-42533390D02*
X54385595Y-42581009D01*
X54385595Y-42581009D02*
X54480833Y-42628628D01*
X54480833Y-42628628D02*
X54861785Y-42628628D01*
X53909404Y-42200057D02*
X53861785Y-42152438D01*
X53861785Y-42152438D02*
X53766547Y-42104819D01*
X53766547Y-42104819D02*
X53528452Y-42104819D01*
X53528452Y-42104819D02*
X53433214Y-42152438D01*
X53433214Y-42152438D02*
X53385595Y-42200057D01*
X53385595Y-42200057D02*
X53337976Y-42295295D01*
X53337976Y-42295295D02*
X53337976Y-42390533D01*
X53337976Y-42390533D02*
X53385595Y-42533390D01*
X53385595Y-42533390D02*
X53957023Y-43104819D01*
X53957023Y-43104819D02*
X53337976Y-43104819D01*
X53004642Y-42104819D02*
X52385595Y-42104819D01*
X52385595Y-42104819D02*
X52718928Y-42485771D01*
X52718928Y-42485771D02*
X52576071Y-42485771D01*
X52576071Y-42485771D02*
X52480833Y-42533390D01*
X52480833Y-42533390D02*
X52433214Y-42581009D01*
X52433214Y-42581009D02*
X52385595Y-42676247D01*
X52385595Y-42676247D02*
X52385595Y-42914342D01*
X52385595Y-42914342D02*
X52433214Y-43009580D01*
X52433214Y-43009580D02*
X52480833Y-43057200D01*
X52480833Y-43057200D02*
X52576071Y-43104819D01*
X52576071Y-43104819D02*
X52861785Y-43104819D01*
X52861785Y-43104819D02*
X52957023Y-43057200D01*
X52957023Y-43057200D02*
X53004642Y-43009580D01*
X57540357Y-37759580D02*
X57587976Y-37807200D01*
X57587976Y-37807200D02*
X57730833Y-37854819D01*
X57730833Y-37854819D02*
X57826071Y-37854819D01*
X57826071Y-37854819D02*
X57968928Y-37807200D01*
X57968928Y-37807200D02*
X58064166Y-37711961D01*
X58064166Y-37711961D02*
X58111785Y-37616723D01*
X58111785Y-37616723D02*
X58159404Y-37426247D01*
X58159404Y-37426247D02*
X58159404Y-37283390D01*
X58159404Y-37283390D02*
X58111785Y-37092914D01*
X58111785Y-37092914D02*
X58064166Y-36997676D01*
X58064166Y-36997676D02*
X57968928Y-36902438D01*
X57968928Y-36902438D02*
X57826071Y-36854819D01*
X57826071Y-36854819D02*
X57730833Y-36854819D01*
X57730833Y-36854819D02*
X57587976Y-36902438D01*
X57587976Y-36902438D02*
X57540357Y-36950057D01*
X56587976Y-37854819D02*
X57159404Y-37854819D01*
X56873690Y-37854819D02*
X56873690Y-36854819D01*
X56873690Y-36854819D02*
X56968928Y-36997676D01*
X56968928Y-36997676D02*
X57064166Y-37092914D01*
X57064166Y-37092914D02*
X57159404Y-37140533D01*
X55635595Y-37854819D02*
X56207023Y-37854819D01*
X55921309Y-37854819D02*
X55921309Y-36854819D01*
X55921309Y-36854819D02*
X56016547Y-36997676D01*
X56016547Y-36997676D02*
X56111785Y-37092914D01*
X56111785Y-37092914D02*
X56207023Y-37140533D01*
X58040357Y-45259580D02*
X58087976Y-45307200D01*
X58087976Y-45307200D02*
X58230833Y-45354819D01*
X58230833Y-45354819D02*
X58326071Y-45354819D01*
X58326071Y-45354819D02*
X58468928Y-45307200D01*
X58468928Y-45307200D02*
X58564166Y-45211961D01*
X58564166Y-45211961D02*
X58611785Y-45116723D01*
X58611785Y-45116723D02*
X58659404Y-44926247D01*
X58659404Y-44926247D02*
X58659404Y-44783390D01*
X58659404Y-44783390D02*
X58611785Y-44592914D01*
X58611785Y-44592914D02*
X58564166Y-44497676D01*
X58564166Y-44497676D02*
X58468928Y-44402438D01*
X58468928Y-44402438D02*
X58326071Y-44354819D01*
X58326071Y-44354819D02*
X58230833Y-44354819D01*
X58230833Y-44354819D02*
X58087976Y-44402438D01*
X58087976Y-44402438D02*
X58040357Y-44450057D01*
X57659404Y-44450057D02*
X57611785Y-44402438D01*
X57611785Y-44402438D02*
X57516547Y-44354819D01*
X57516547Y-44354819D02*
X57278452Y-44354819D01*
X57278452Y-44354819D02*
X57183214Y-44402438D01*
X57183214Y-44402438D02*
X57135595Y-44450057D01*
X57135595Y-44450057D02*
X57087976Y-44545295D01*
X57087976Y-44545295D02*
X57087976Y-44640533D01*
X57087976Y-44640533D02*
X57135595Y-44783390D01*
X57135595Y-44783390D02*
X57707023Y-45354819D01*
X57707023Y-45354819D02*
X57087976Y-45354819D01*
X56707023Y-44450057D02*
X56659404Y-44402438D01*
X56659404Y-44402438D02*
X56564166Y-44354819D01*
X56564166Y-44354819D02*
X56326071Y-44354819D01*
X56326071Y-44354819D02*
X56230833Y-44402438D01*
X56230833Y-44402438D02*
X56183214Y-44450057D01*
X56183214Y-44450057D02*
X56135595Y-44545295D01*
X56135595Y-44545295D02*
X56135595Y-44640533D01*
X56135595Y-44640533D02*
X56183214Y-44783390D01*
X56183214Y-44783390D02*
X56754642Y-45354819D01*
X56754642Y-45354819D02*
X56135595Y-45354819D01*
X98811904Y-83604819D02*
X98811904Y-84414342D01*
X98811904Y-84414342D02*
X98764285Y-84509580D01*
X98764285Y-84509580D02*
X98716666Y-84557200D01*
X98716666Y-84557200D02*
X98621428Y-84604819D01*
X98621428Y-84604819D02*
X98430952Y-84604819D01*
X98430952Y-84604819D02*
X98335714Y-84557200D01*
X98335714Y-84557200D02*
X98288095Y-84509580D01*
X98288095Y-84509580D02*
X98240476Y-84414342D01*
X98240476Y-84414342D02*
X98240476Y-83604819D01*
X97859523Y-83604819D02*
X97240476Y-83604819D01*
X97240476Y-83604819D02*
X97573809Y-83985771D01*
X97573809Y-83985771D02*
X97430952Y-83985771D01*
X97430952Y-83985771D02*
X97335714Y-84033390D01*
X97335714Y-84033390D02*
X97288095Y-84081009D01*
X97288095Y-84081009D02*
X97240476Y-84176247D01*
X97240476Y-84176247D02*
X97240476Y-84414342D01*
X97240476Y-84414342D02*
X97288095Y-84509580D01*
X97288095Y-84509580D02*
X97335714Y-84557200D01*
X97335714Y-84557200D02*
X97430952Y-84604819D01*
X97430952Y-84604819D02*
X97716666Y-84604819D01*
X97716666Y-84604819D02*
X97811904Y-84557200D01*
X97811904Y-84557200D02*
X97859523Y-84509580D01*
X53966666Y-62054819D02*
X54299999Y-61578628D01*
X54538094Y-62054819D02*
X54538094Y-61054819D01*
X54538094Y-61054819D02*
X54157142Y-61054819D01*
X54157142Y-61054819D02*
X54061904Y-61102438D01*
X54061904Y-61102438D02*
X54014285Y-61150057D01*
X54014285Y-61150057D02*
X53966666Y-61245295D01*
X53966666Y-61245295D02*
X53966666Y-61388152D01*
X53966666Y-61388152D02*
X54014285Y-61483390D01*
X54014285Y-61483390D02*
X54061904Y-61531009D01*
X54061904Y-61531009D02*
X54157142Y-61578628D01*
X54157142Y-61578628D02*
X54538094Y-61578628D01*
X53490475Y-62054819D02*
X53299999Y-62054819D01*
X53299999Y-62054819D02*
X53204761Y-62007200D01*
X53204761Y-62007200D02*
X53157142Y-61959580D01*
X53157142Y-61959580D02*
X53061904Y-61816723D01*
X53061904Y-61816723D02*
X53014285Y-61626247D01*
X53014285Y-61626247D02*
X53014285Y-61245295D01*
X53014285Y-61245295D02*
X53061904Y-61150057D01*
X53061904Y-61150057D02*
X53109523Y-61102438D01*
X53109523Y-61102438D02*
X53204761Y-61054819D01*
X53204761Y-61054819D02*
X53395237Y-61054819D01*
X53395237Y-61054819D02*
X53490475Y-61102438D01*
X53490475Y-61102438D02*
X53538094Y-61150057D01*
X53538094Y-61150057D02*
X53585713Y-61245295D01*
X53585713Y-61245295D02*
X53585713Y-61483390D01*
X53585713Y-61483390D02*
X53538094Y-61578628D01*
X53538094Y-61578628D02*
X53490475Y-61626247D01*
X53490475Y-61626247D02*
X53395237Y-61673866D01*
X53395237Y-61673866D02*
X53204761Y-61673866D01*
X53204761Y-61673866D02*
X53109523Y-61626247D01*
X53109523Y-61626247D02*
X53061904Y-61578628D01*
X53061904Y-61578628D02*
X53014285Y-61483390D01*
X25333333Y-99454819D02*
X25333333Y-100169104D01*
X25333333Y-100169104D02*
X25380952Y-100311961D01*
X25380952Y-100311961D02*
X25476190Y-100407200D01*
X25476190Y-100407200D02*
X25619047Y-100454819D01*
X25619047Y-100454819D02*
X25714285Y-100454819D01*
X24428571Y-99454819D02*
X24619047Y-99454819D01*
X24619047Y-99454819D02*
X24714285Y-99502438D01*
X24714285Y-99502438D02*
X24761904Y-99550057D01*
X24761904Y-99550057D02*
X24857142Y-99692914D01*
X24857142Y-99692914D02*
X24904761Y-99883390D01*
X24904761Y-99883390D02*
X24904761Y-100264342D01*
X24904761Y-100264342D02*
X24857142Y-100359580D01*
X24857142Y-100359580D02*
X24809523Y-100407200D01*
X24809523Y-100407200D02*
X24714285Y-100454819D01*
X24714285Y-100454819D02*
X24523809Y-100454819D01*
X24523809Y-100454819D02*
X24428571Y-100407200D01*
X24428571Y-100407200D02*
X24380952Y-100359580D01*
X24380952Y-100359580D02*
X24333333Y-100264342D01*
X24333333Y-100264342D02*
X24333333Y-100026247D01*
X24333333Y-100026247D02*
X24380952Y-99931009D01*
X24380952Y-99931009D02*
X24428571Y-99883390D01*
X24428571Y-99883390D02*
X24523809Y-99835771D01*
X24523809Y-99835771D02*
X24714285Y-99835771D01*
X24714285Y-99835771D02*
X24809523Y-99883390D01*
X24809523Y-99883390D02*
X24857142Y-99931009D01*
X24857142Y-99931009D02*
X24904761Y-100026247D01*
X58166666Y-59454819D02*
X58499999Y-58978628D01*
X58738094Y-59454819D02*
X58738094Y-58454819D01*
X58738094Y-58454819D02*
X58357142Y-58454819D01*
X58357142Y-58454819D02*
X58261904Y-58502438D01*
X58261904Y-58502438D02*
X58214285Y-58550057D01*
X58214285Y-58550057D02*
X58166666Y-58645295D01*
X58166666Y-58645295D02*
X58166666Y-58788152D01*
X58166666Y-58788152D02*
X58214285Y-58883390D01*
X58214285Y-58883390D02*
X58261904Y-58931009D01*
X58261904Y-58931009D02*
X58357142Y-58978628D01*
X58357142Y-58978628D02*
X58738094Y-58978628D01*
X57595237Y-58883390D02*
X57690475Y-58835771D01*
X57690475Y-58835771D02*
X57738094Y-58788152D01*
X57738094Y-58788152D02*
X57785713Y-58692914D01*
X57785713Y-58692914D02*
X57785713Y-58645295D01*
X57785713Y-58645295D02*
X57738094Y-58550057D01*
X57738094Y-58550057D02*
X57690475Y-58502438D01*
X57690475Y-58502438D02*
X57595237Y-58454819D01*
X57595237Y-58454819D02*
X57404761Y-58454819D01*
X57404761Y-58454819D02*
X57309523Y-58502438D01*
X57309523Y-58502438D02*
X57261904Y-58550057D01*
X57261904Y-58550057D02*
X57214285Y-58645295D01*
X57214285Y-58645295D02*
X57214285Y-58692914D01*
X57214285Y-58692914D02*
X57261904Y-58788152D01*
X57261904Y-58788152D02*
X57309523Y-58835771D01*
X57309523Y-58835771D02*
X57404761Y-58883390D01*
X57404761Y-58883390D02*
X57595237Y-58883390D01*
X57595237Y-58883390D02*
X57690475Y-58931009D01*
X57690475Y-58931009D02*
X57738094Y-58978628D01*
X57738094Y-58978628D02*
X57785713Y-59073866D01*
X57785713Y-59073866D02*
X57785713Y-59264342D01*
X57785713Y-59264342D02*
X57738094Y-59359580D01*
X57738094Y-59359580D02*
X57690475Y-59407200D01*
X57690475Y-59407200D02*
X57595237Y-59454819D01*
X57595237Y-59454819D02*
X57404761Y-59454819D01*
X57404761Y-59454819D02*
X57309523Y-59407200D01*
X57309523Y-59407200D02*
X57261904Y-59359580D01*
X57261904Y-59359580D02*
X57214285Y-59264342D01*
X57214285Y-59264342D02*
X57214285Y-59073866D01*
X57214285Y-59073866D02*
X57261904Y-58978628D01*
X57261904Y-58978628D02*
X57309523Y-58931009D01*
X57309523Y-58931009D02*
X57404761Y-58883390D01*
X110761904Y-64454819D02*
X110761904Y-65264342D01*
X110761904Y-65264342D02*
X110714285Y-65359580D01*
X110714285Y-65359580D02*
X110666666Y-65407200D01*
X110666666Y-65407200D02*
X110571428Y-65454819D01*
X110571428Y-65454819D02*
X110380952Y-65454819D01*
X110380952Y-65454819D02*
X110285714Y-65407200D01*
X110285714Y-65407200D02*
X110238095Y-65359580D01*
X110238095Y-65359580D02*
X110190476Y-65264342D01*
X110190476Y-65264342D02*
X110190476Y-64454819D01*
X109285714Y-64788152D02*
X109285714Y-65454819D01*
X109523809Y-64407200D02*
X109761904Y-65121485D01*
X109761904Y-65121485D02*
X109142857Y-65121485D01*
X111966666Y-96584580D02*
X112014285Y-96632200D01*
X112014285Y-96632200D02*
X112157142Y-96679819D01*
X112157142Y-96679819D02*
X112252380Y-96679819D01*
X112252380Y-96679819D02*
X112395237Y-96632200D01*
X112395237Y-96632200D02*
X112490475Y-96536961D01*
X112490475Y-96536961D02*
X112538094Y-96441723D01*
X112538094Y-96441723D02*
X112585713Y-96251247D01*
X112585713Y-96251247D02*
X112585713Y-96108390D01*
X112585713Y-96108390D02*
X112538094Y-95917914D01*
X112538094Y-95917914D02*
X112490475Y-95822676D01*
X112490475Y-95822676D02*
X112395237Y-95727438D01*
X112395237Y-95727438D02*
X112252380Y-95679819D01*
X112252380Y-95679819D02*
X112157142Y-95679819D01*
X112157142Y-95679819D02*
X112014285Y-95727438D01*
X112014285Y-95727438D02*
X111966666Y-95775057D01*
X111395237Y-96108390D02*
X111490475Y-96060771D01*
X111490475Y-96060771D02*
X111538094Y-96013152D01*
X111538094Y-96013152D02*
X111585713Y-95917914D01*
X111585713Y-95917914D02*
X111585713Y-95870295D01*
X111585713Y-95870295D02*
X111538094Y-95775057D01*
X111538094Y-95775057D02*
X111490475Y-95727438D01*
X111490475Y-95727438D02*
X111395237Y-95679819D01*
X111395237Y-95679819D02*
X111204761Y-95679819D01*
X111204761Y-95679819D02*
X111109523Y-95727438D01*
X111109523Y-95727438D02*
X111061904Y-95775057D01*
X111061904Y-95775057D02*
X111014285Y-95870295D01*
X111014285Y-95870295D02*
X111014285Y-95917914D01*
X111014285Y-95917914D02*
X111061904Y-96013152D01*
X111061904Y-96013152D02*
X111109523Y-96060771D01*
X111109523Y-96060771D02*
X111204761Y-96108390D01*
X111204761Y-96108390D02*
X111395237Y-96108390D01*
X111395237Y-96108390D02*
X111490475Y-96156009D01*
X111490475Y-96156009D02*
X111538094Y-96203628D01*
X111538094Y-96203628D02*
X111585713Y-96298866D01*
X111585713Y-96298866D02*
X111585713Y-96489342D01*
X111585713Y-96489342D02*
X111538094Y-96584580D01*
X111538094Y-96584580D02*
X111490475Y-96632200D01*
X111490475Y-96632200D02*
X111395237Y-96679819D01*
X111395237Y-96679819D02*
X111204761Y-96679819D01*
X111204761Y-96679819D02*
X111109523Y-96632200D01*
X111109523Y-96632200D02*
X111061904Y-96584580D01*
X111061904Y-96584580D02*
X111014285Y-96489342D01*
X111014285Y-96489342D02*
X111014285Y-96298866D01*
X111014285Y-96298866D02*
X111061904Y-96203628D01*
X111061904Y-96203628D02*
X111109523Y-96156009D01*
X111109523Y-96156009D02*
X111204761Y-96108390D01*
X110566666Y-99359580D02*
X110614285Y-99407200D01*
X110614285Y-99407200D02*
X110757142Y-99454819D01*
X110757142Y-99454819D02*
X110852380Y-99454819D01*
X110852380Y-99454819D02*
X110995237Y-99407200D01*
X110995237Y-99407200D02*
X111090475Y-99311961D01*
X111090475Y-99311961D02*
X111138094Y-99216723D01*
X111138094Y-99216723D02*
X111185713Y-99026247D01*
X111185713Y-99026247D02*
X111185713Y-98883390D01*
X111185713Y-98883390D02*
X111138094Y-98692914D01*
X111138094Y-98692914D02*
X111090475Y-98597676D01*
X111090475Y-98597676D02*
X110995237Y-98502438D01*
X110995237Y-98502438D02*
X110852380Y-98454819D01*
X110852380Y-98454819D02*
X110757142Y-98454819D01*
X110757142Y-98454819D02*
X110614285Y-98502438D01*
X110614285Y-98502438D02*
X110566666Y-98550057D01*
X110090475Y-99454819D02*
X109899999Y-99454819D01*
X109899999Y-99454819D02*
X109804761Y-99407200D01*
X109804761Y-99407200D02*
X109757142Y-99359580D01*
X109757142Y-99359580D02*
X109661904Y-99216723D01*
X109661904Y-99216723D02*
X109614285Y-99026247D01*
X109614285Y-99026247D02*
X109614285Y-98645295D01*
X109614285Y-98645295D02*
X109661904Y-98550057D01*
X109661904Y-98550057D02*
X109709523Y-98502438D01*
X109709523Y-98502438D02*
X109804761Y-98454819D01*
X109804761Y-98454819D02*
X109995237Y-98454819D01*
X109995237Y-98454819D02*
X110090475Y-98502438D01*
X110090475Y-98502438D02*
X110138094Y-98550057D01*
X110138094Y-98550057D02*
X110185713Y-98645295D01*
X110185713Y-98645295D02*
X110185713Y-98883390D01*
X110185713Y-98883390D02*
X110138094Y-98978628D01*
X110138094Y-98978628D02*
X110090475Y-99026247D01*
X110090475Y-99026247D02*
X109995237Y-99073866D01*
X109995237Y-99073866D02*
X109804761Y-99073866D01*
X109804761Y-99073866D02*
X109709523Y-99026247D01*
X109709523Y-99026247D02*
X109661904Y-98978628D01*
X109661904Y-98978628D02*
X109614285Y-98883390D01*
X114261904Y-103767319D02*
X114261904Y-104576842D01*
X114261904Y-104576842D02*
X114214285Y-104672080D01*
X114214285Y-104672080D02*
X114166666Y-104719700D01*
X114166666Y-104719700D02*
X114071428Y-104767319D01*
X114071428Y-104767319D02*
X113880952Y-104767319D01*
X113880952Y-104767319D02*
X113785714Y-104719700D01*
X113785714Y-104719700D02*
X113738095Y-104672080D01*
X113738095Y-104672080D02*
X113690476Y-104576842D01*
X113690476Y-104576842D02*
X113690476Y-103767319D01*
X112690476Y-104767319D02*
X113261904Y-104767319D01*
X112976190Y-104767319D02*
X112976190Y-103767319D01*
X112976190Y-103767319D02*
X113071428Y-103910176D01*
X113071428Y-103910176D02*
X113166666Y-104005414D01*
X113166666Y-104005414D02*
X113261904Y-104053033D01*
X50290357Y-50104819D02*
X50623690Y-49628628D01*
X50861785Y-50104819D02*
X50861785Y-49104819D01*
X50861785Y-49104819D02*
X50480833Y-49104819D01*
X50480833Y-49104819D02*
X50385595Y-49152438D01*
X50385595Y-49152438D02*
X50337976Y-49200057D01*
X50337976Y-49200057D02*
X50290357Y-49295295D01*
X50290357Y-49295295D02*
X50290357Y-49438152D01*
X50290357Y-49438152D02*
X50337976Y-49533390D01*
X50337976Y-49533390D02*
X50385595Y-49581009D01*
X50385595Y-49581009D02*
X50480833Y-49628628D01*
X50480833Y-49628628D02*
X50861785Y-49628628D01*
X49909404Y-49200057D02*
X49861785Y-49152438D01*
X49861785Y-49152438D02*
X49766547Y-49104819D01*
X49766547Y-49104819D02*
X49528452Y-49104819D01*
X49528452Y-49104819D02*
X49433214Y-49152438D01*
X49433214Y-49152438D02*
X49385595Y-49200057D01*
X49385595Y-49200057D02*
X49337976Y-49295295D01*
X49337976Y-49295295D02*
X49337976Y-49390533D01*
X49337976Y-49390533D02*
X49385595Y-49533390D01*
X49385595Y-49533390D02*
X49957023Y-50104819D01*
X49957023Y-50104819D02*
X49337976Y-50104819D01*
X48480833Y-49438152D02*
X48480833Y-50104819D01*
X48718928Y-49057200D02*
X48957023Y-49771485D01*
X48957023Y-49771485D02*
X48337976Y-49771485D01*
X112261904Y-45204819D02*
X112261904Y-46014342D01*
X112261904Y-46014342D02*
X112214285Y-46109580D01*
X112214285Y-46109580D02*
X112166666Y-46157200D01*
X112166666Y-46157200D02*
X112071428Y-46204819D01*
X112071428Y-46204819D02*
X111880952Y-46204819D01*
X111880952Y-46204819D02*
X111785714Y-46157200D01*
X111785714Y-46157200D02*
X111738095Y-46109580D01*
X111738095Y-46109580D02*
X111690476Y-46014342D01*
X111690476Y-46014342D02*
X111690476Y-45204819D01*
X110785714Y-45204819D02*
X110976190Y-45204819D01*
X110976190Y-45204819D02*
X111071428Y-45252438D01*
X111071428Y-45252438D02*
X111119047Y-45300057D01*
X111119047Y-45300057D02*
X111214285Y-45442914D01*
X111214285Y-45442914D02*
X111261904Y-45633390D01*
X111261904Y-45633390D02*
X111261904Y-46014342D01*
X111261904Y-46014342D02*
X111214285Y-46109580D01*
X111214285Y-46109580D02*
X111166666Y-46157200D01*
X111166666Y-46157200D02*
X111071428Y-46204819D01*
X111071428Y-46204819D02*
X110880952Y-46204819D01*
X110880952Y-46204819D02*
X110785714Y-46157200D01*
X110785714Y-46157200D02*
X110738095Y-46109580D01*
X110738095Y-46109580D02*
X110690476Y-46014342D01*
X110690476Y-46014342D02*
X110690476Y-45776247D01*
X110690476Y-45776247D02*
X110738095Y-45681009D01*
X110738095Y-45681009D02*
X110785714Y-45633390D01*
X110785714Y-45633390D02*
X110880952Y-45585771D01*
X110880952Y-45585771D02*
X111071428Y-45585771D01*
X111071428Y-45585771D02*
X111166666Y-45633390D01*
X111166666Y-45633390D02*
X111214285Y-45681009D01*
X111214285Y-45681009D02*
X111261904Y-45776247D01*
X114133333Y-117054819D02*
X114133333Y-117769104D01*
X114133333Y-117769104D02*
X114180952Y-117911961D01*
X114180952Y-117911961D02*
X114276190Y-118007200D01*
X114276190Y-118007200D02*
X114419047Y-118054819D01*
X114419047Y-118054819D02*
X114514285Y-118054819D01*
X113514285Y-117483390D02*
X113609523Y-117435771D01*
X113609523Y-117435771D02*
X113657142Y-117388152D01*
X113657142Y-117388152D02*
X113704761Y-117292914D01*
X113704761Y-117292914D02*
X113704761Y-117245295D01*
X113704761Y-117245295D02*
X113657142Y-117150057D01*
X113657142Y-117150057D02*
X113609523Y-117102438D01*
X113609523Y-117102438D02*
X113514285Y-117054819D01*
X113514285Y-117054819D02*
X113323809Y-117054819D01*
X113323809Y-117054819D02*
X113228571Y-117102438D01*
X113228571Y-117102438D02*
X113180952Y-117150057D01*
X113180952Y-117150057D02*
X113133333Y-117245295D01*
X113133333Y-117245295D02*
X113133333Y-117292914D01*
X113133333Y-117292914D02*
X113180952Y-117388152D01*
X113180952Y-117388152D02*
X113228571Y-117435771D01*
X113228571Y-117435771D02*
X113323809Y-117483390D01*
X113323809Y-117483390D02*
X113514285Y-117483390D01*
X113514285Y-117483390D02*
X113609523Y-117531009D01*
X113609523Y-117531009D02*
X113657142Y-117578628D01*
X113657142Y-117578628D02*
X113704761Y-117673866D01*
X113704761Y-117673866D02*
X113704761Y-117864342D01*
X113704761Y-117864342D02*
X113657142Y-117959580D01*
X113657142Y-117959580D02*
X113609523Y-118007200D01*
X113609523Y-118007200D02*
X113514285Y-118054819D01*
X113514285Y-118054819D02*
X113323809Y-118054819D01*
X113323809Y-118054819D02*
X113228571Y-118007200D01*
X113228571Y-118007200D02*
X113180952Y-117959580D01*
X113180952Y-117959580D02*
X113133333Y-117864342D01*
X113133333Y-117864342D02*
X113133333Y-117673866D01*
X113133333Y-117673866D02*
X113180952Y-117578628D01*
X113180952Y-117578628D02*
X113228571Y-117531009D01*
X113228571Y-117531009D02*
X113323809Y-117483390D01*
D12*
%TO.C,Q2*%
X49997500Y-43340000D02*
X49197500Y-43340000D01*
X49997500Y-43340000D02*
X50797500Y-43340000D01*
X49997500Y-46460000D02*
X48197500Y-46460000D01*
X49997500Y-46460000D02*
X50797500Y-46460000D01*
D13*
%TO.C,U2*%
X108875000Y-97610000D02*
X108725000Y-97610000D01*
X108875000Y-97600000D02*
X108875000Y-97450000D01*
X108875000Y-95050000D02*
X108875000Y-94800000D01*
X106325000Y-94900000D02*
X106175000Y-94900000D01*
X106175000Y-97600000D02*
X106325000Y-97600000D01*
X106175000Y-97600000D02*
X106175000Y-97450000D01*
X106175000Y-94900000D02*
X106175000Y-95050000D01*
D12*
%TO.C,JP3*%
X109500000Y-102500000D02*
X109500000Y-101900000D01*
X108950000Y-103700000D02*
X108350000Y-103700000D01*
X108850000Y-101200000D02*
X106050000Y-101200000D01*
X108650000Y-103400000D02*
X108950000Y-103700000D01*
X108650000Y-103400000D02*
X108350000Y-103700000D01*
X106050000Y-103200000D02*
X108850000Y-103200000D01*
X105400000Y-101900000D02*
X105400000Y-102500000D01*
X108800000Y-103200000D02*
G75*
G03*
X109500000Y-102500000I1J699999D01*
G01*
X109500000Y-101900000D02*
G75*
G03*
X108800000Y-101200000I-699999J1D01*
G01*
X105400000Y-102500000D02*
G75*
G03*
X106100000Y-103200000I700000J0D01*
G01*
X106100000Y-101200000D02*
G75*
G03*
X105400000Y-101900000I0J-700000D01*
G01*
%TO.C,R22*%
X54374564Y-48635000D02*
X53920436Y-48635000D01*
X54374564Y-47165000D02*
X53920436Y-47165000D01*
%TO.C,JP4*%
X66100000Y-94150000D02*
X66700000Y-94150000D01*
X67400000Y-93450000D02*
X67400000Y-92050000D01*
X65400000Y-92050000D02*
X65400000Y-93450000D01*
X66700000Y-91350000D02*
X66100000Y-91350000D01*
X65400000Y-93450000D02*
G75*
G03*
X66100000Y-94150000I699999J-1D01*
G01*
X66700000Y-94150000D02*
G75*
G03*
X67400000Y-93450000I1J699999D01*
G01*
X66100000Y-91350000D02*
G75*
G03*
X65400000Y-92050000I0J-700000D01*
G01*
X67400000Y-92050000D02*
G75*
G03*
X66700000Y-91350000I-700000J0D01*
G01*
%TO.C,R23*%
X52662500Y-45377064D02*
X52662500Y-44922936D01*
X54132500Y-45377064D02*
X54132500Y-44922936D01*
%TO.C,C11*%
X57632500Y-34638748D02*
X57632500Y-35161252D01*
X56162500Y-34638748D02*
X56162500Y-35161252D01*
%TO.C,C22*%
X54887500Y-45090580D02*
X54887500Y-44809420D01*
X55907500Y-45090580D02*
X55907500Y-44809420D01*
D11*
%TO.C,U3*%
X97150000Y-48050000D02*
X120350000Y-48050000D01*
X97150000Y-83250000D02*
X97150000Y-48050000D01*
X120350000Y-48050000D02*
X120350000Y-83250000D01*
X120350000Y-83250000D02*
X97150000Y-83250000D01*
D12*
%TO.C,R9*%
X53572936Y-59065000D02*
X54027064Y-59065000D01*
X53572936Y-60535000D02*
X54027064Y-60535000D01*
%TO.C,J6*%
X21610000Y-99060000D02*
X25860000Y-99060000D01*
X25860000Y-99060000D02*
X25860000Y-98040000D01*
X24260000Y-98040000D02*
X24260000Y-96760000D01*
X25860000Y-98040000D02*
X24260000Y-98040000D01*
X18040000Y-97340000D02*
X18040000Y-84660000D01*
X24260000Y-96760000D02*
X27150000Y-96760000D01*
X24260000Y-83960000D02*
X24260000Y-85240000D01*
X25860000Y-83960000D02*
X24260000Y-83960000D01*
X21610000Y-82940000D02*
X25860000Y-82940000D01*
X25860000Y-82940000D02*
X25860000Y-83960000D01*
%TO.C,R8*%
X58227064Y-61335000D02*
X57772936Y-61335000D01*
X58227064Y-59865000D02*
X57772936Y-59865000D01*
D11*
%TO.C,U4*%
X104950000Y-64050000D02*
X104950000Y-53950000D01*
X115050000Y-64050000D02*
X104950000Y-64050000D01*
X115050000Y-64050000D02*
X115050000Y-53950000D01*
X104950000Y-53950000D02*
X115050000Y-53950000D01*
D12*
%TO.C,C8*%
X109490000Y-96365580D02*
X109490000Y-96084420D01*
X110510000Y-96365580D02*
X110510000Y-96084420D01*
%TO.C,C9*%
X107384420Y-98465000D02*
X107665580Y-98465000D01*
X107384420Y-99485000D02*
X107665580Y-99485000D01*
D11*
%TO.C,U1*%
X114312500Y-103312500D02*
X102612500Y-103312500D01*
X114312500Y-88112500D02*
X114312500Y-103312500D01*
X102612500Y-103312500D02*
X102612500Y-88112500D01*
X102612500Y-88112500D02*
X114312500Y-88112500D01*
D12*
%TO.C,R24*%
X49420436Y-47165000D02*
X49874564Y-47165000D01*
X49420436Y-48635000D02*
X49874564Y-48635000D01*
%TO.C,U6*%
X112350000Y-44620000D02*
X112350000Y-20400000D01*
X112350000Y-44620000D02*
X96150000Y-44620000D01*
X96150000Y-44620000D02*
X96150000Y-20400000D01*
X96150000Y-20400000D02*
X112350000Y-20400000D01*
%TO.C,J8*%
X94430000Y-118870000D02*
X94430000Y-113670000D01*
X112330000Y-118870000D02*
X94430000Y-118870000D01*
X112330000Y-118870000D02*
X112330000Y-116270000D01*
X109730000Y-116270000D02*
X109730000Y-113670000D01*
X112330000Y-116270000D02*
X109730000Y-116270000D01*
X112330000Y-115000000D02*
X112330000Y-113670000D01*
X109730000Y-113670000D02*
X94430000Y-113670000D01*
X112330000Y-113670000D02*
X111000000Y-113670000D01*
%TD*%
D14*
X52397500Y-50400000D03*
X67200000Y-40200000D03*
X51897500Y-42150000D03*
X45800000Y-41800000D03*
X52800000Y-57800000D03*
X50147500Y-42150000D03*
X55197500Y-37550000D03*
X46400000Y-57800000D03*
X49600000Y-57800000D03*
X64841117Y-53600000D03*
X56000000Y-57800000D03*
X56000000Y-60000000D03*
X29400000Y-95200000D03*
X109600000Y-102200000D03*
X56897500Y-33000000D03*
D15*
X72397500Y-33150000D03*
D14*
X114400000Y-62400000D03*
X90800000Y-56200000D03*
X58800000Y-35200000D03*
X109200000Y-99000000D03*
D15*
X63647500Y-31900000D03*
D14*
X27600000Y-64200000D03*
D15*
X65897500Y-26650000D03*
D14*
X57800000Y-40350000D03*
D15*
X72397500Y-35400000D03*
X57897500Y-26650000D03*
D14*
X63800000Y-71800000D03*
D15*
X46600000Y-64200000D03*
D14*
X63000000Y-84000000D03*
D15*
X63147500Y-34400000D03*
D14*
X63000000Y-76800000D03*
X72400000Y-66000000D03*
D15*
X47800000Y-67600000D03*
X71397500Y-34650000D03*
D14*
X102800000Y-58800000D03*
X67000000Y-73800000D03*
X68400000Y-75800000D03*
D15*
X66897500Y-38150000D03*
D14*
X110000000Y-94500000D03*
X49000000Y-39350000D03*
X62600000Y-45200000D03*
X34400000Y-31000000D03*
D15*
X65897500Y-31650000D03*
X61147500Y-26062500D03*
X60147500Y-24400000D03*
D14*
X51397500Y-47900000D03*
X78800000Y-108800000D03*
D15*
X71397500Y-36650000D03*
D14*
X48000000Y-53400000D03*
D15*
X60397500Y-36400000D03*
D14*
X38150000Y-44400000D03*
X28200000Y-91200000D03*
X67800000Y-80800000D03*
X58800000Y-36200000D03*
X62400000Y-56400000D03*
X94600000Y-43000000D03*
X61800000Y-59400000D03*
X94000000Y-59200000D03*
D15*
X62717000Y-28062500D03*
X69647500Y-38150000D03*
X59397500Y-34400000D03*
D14*
X55600000Y-109000000D03*
D15*
X72397500Y-38150000D03*
X57897500Y-28900000D03*
D14*
X55897500Y-43150000D03*
X68750000Y-118250000D03*
X67600000Y-109000000D03*
X67400000Y-42200000D03*
X32650000Y-44400000D03*
X64000000Y-87400000D03*
X40400000Y-29350000D03*
D15*
X65897500Y-28900000D03*
D14*
X89800000Y-33400000D03*
D15*
X57897500Y-24400000D03*
X63897500Y-30062500D03*
D14*
X56750000Y-118250000D03*
D15*
X60397500Y-30062500D03*
X64147500Y-34400000D03*
D14*
X32750000Y-118250000D03*
X53775000Y-54000000D03*
X75965000Y-88525000D03*
D15*
X66897500Y-33150000D03*
D14*
X44750000Y-118250000D03*
X64800000Y-68400000D03*
X45000000Y-53400000D03*
X47400000Y-45400000D03*
D15*
X64897500Y-37650000D03*
D14*
X51200000Y-53400000D03*
X52800000Y-39800000D03*
D15*
X57897500Y-31150000D03*
D14*
X23550000Y-92000000D03*
X44750000Y-107750000D03*
X66800000Y-83500000D03*
X32750000Y-107750000D03*
X63200000Y-42200000D03*
X35887500Y-31337500D03*
D15*
X62647500Y-36150000D03*
D14*
X58969500Y-83400000D03*
X67600000Y-71000000D03*
D15*
X69647500Y-33150000D03*
D14*
X63395217Y-53600000D03*
X44400000Y-39400000D03*
X30200000Y-51400000D03*
X59147500Y-37400000D03*
X58400000Y-81600000D03*
X58200000Y-88000000D03*
X58400000Y-42000000D03*
D15*
X73600000Y-50400000D03*
X74622222Y-50177778D03*
D14*
X59400000Y-42600000D03*
D15*
X75800000Y-49900000D03*
D14*
X60400000Y-42000000D03*
D15*
X76400000Y-48800000D03*
D14*
X61400000Y-41400000D03*
X104250000Y-60250000D03*
X42200000Y-76800000D03*
X39000000Y-36200000D03*
X47200000Y-97600000D03*
X68200000Y-71800000D03*
X63000000Y-78000000D03*
X67800000Y-75000000D03*
X67000000Y-80200000D03*
X67400000Y-82400000D03*
X67975000Y-73375000D03*
X61800000Y-84600000D03*
X63400000Y-86502817D03*
X65000000Y-67000000D03*
X68600000Y-83600000D03*
X64600000Y-71000000D03*
X65600000Y-69200000D03*
X72000000Y-65000000D03*
X61800000Y-57200000D03*
X91400000Y-57170000D03*
D15*
X47400000Y-64600000D03*
D14*
X93000000Y-58600000D03*
X102500000Y-57750000D03*
D15*
X47400000Y-66800000D03*
D14*
X62600000Y-58600000D03*
X60400000Y-72200000D03*
X57200000Y-72600000D03*
X62600000Y-60400000D03*
X26600000Y-63200000D03*
D15*
X77000000Y-49800000D03*
D14*
X57200000Y-45650000D03*
X62400000Y-44200000D03*
X63600000Y-43200000D03*
X73200000Y-43400000D03*
X72000000Y-44800000D03*
X54897500Y-49380001D03*
X57400000Y-54000000D03*
X56897500Y-41900000D03*
X96200000Y-104000000D03*
X96200000Y-111737500D03*
X95725000Y-89175000D03*
X98265000Y-89175000D03*
X68800000Y-91460000D03*
X68800000Y-94000000D03*
X84000000Y-112275000D03*
X84000000Y-109735000D03*
X22200000Y-100700000D03*
X24165000Y-55800000D03*
X24165000Y-48790000D03*
X21675000Y-54550000D03*
X21675000Y-50050000D03*
X118000000Y-116000000D03*
X118000000Y-24000000D03*
X91800000Y-112200000D03*
X91800000Y-109660000D03*
X22200000Y-81500000D03*
X22500000Y-77180000D03*
X22500000Y-74640000D03*
X22500000Y-72100000D03*
X22500000Y-69560000D03*
X22500000Y-67020000D03*
X22500000Y-64480000D03*
X22500000Y-61940000D03*
X22500000Y-59400000D03*
X119500000Y-104540000D03*
X119500000Y-32040000D03*
X22500000Y-104540000D03*
X22500000Y-32040000D03*
X94400000Y-49400000D03*
X91860000Y-49400000D03*
X99912500Y-112200000D03*
X99912500Y-109660000D03*
X24000000Y-24000000D03*
X24000000Y-116000000D03*
X108136250Y-112275000D03*
X108136250Y-109735000D03*
X102550000Y-49650000D03*
X118750000Y-81650000D03*
X98650000Y-49550000D03*
X98650000Y-52090000D03*
X98650000Y-54630000D03*
X98650000Y-57170000D03*
X98650000Y-59710000D03*
X98650000Y-62250000D03*
X98650000Y-64790000D03*
X112012500Y-101012500D03*
X112012500Y-90412500D03*
X104052500Y-89242500D03*
X104052500Y-91782500D03*
X104052500Y-94322500D03*
X104052500Y-96862500D03*
X104052500Y-99402500D03*
X104052500Y-101942500D03*
X111000000Y-115000000D03*
X111000000Y-117540000D03*
X108460000Y-115000000D03*
X108460000Y-117540000D03*
X105920000Y-115000000D03*
X105920000Y-117540000D03*
X103380000Y-115000000D03*
X103380000Y-117540000D03*
X100840000Y-115000000D03*
X100840000Y-117540000D03*
X98300000Y-115000000D03*
X98300000Y-117540000D03*
X95760000Y-115000000D03*
X95760000Y-117540000D03*
M02*
