%TF.GenerationSoftware,KiCad,Pcbnew,7.0.9*%
%TF.CreationDate,2024-07-22T23:00:39+02:00*%
%TF.ProjectId,EnvSensor-Main-v2.1,456e7653-656e-4736-9f72-2d4d61696e2d,rev?*%
%TF.SameCoordinates,Original*%
%TF.FileFunction,Soldermask,Top*%
%TF.FilePolarity,Negative*%
%FSLAX46Y46*%
G04 Gerber Fmt 4.6, Leading zero omitted, Abs format (unit mm)*
G04 Created by KiCad (PCBNEW 7.0.9) date 2024-07-22 23:00:39*
%MOMM*%
%LPD*%
G01*
G04 APERTURE LIST*
G04 Aperture macros list*
%AMRoundRect*
0 Rectangle with rounded corners*
0 $1 Rounding radius*
0 $2 $3 $4 $5 $6 $7 $8 $9 X,Y pos of 4 corners*
0 Add a 4 corners polygon primitive as box body*
4,1,4,$2,$3,$4,$5,$6,$7,$8,$9,$2,$3,0*
0 Add four circle primitives for the rounded corners*
1,1,$1+$1,$2,$3*
1,1,$1+$1,$4,$5*
1,1,$1+$1,$6,$7*
1,1,$1+$1,$8,$9*
0 Add four rect primitives between the rounded corners*
20,1,$1+$1,$2,$3,$4,$5,0*
20,1,$1+$1,$4,$5,$6,$7,0*
20,1,$1+$1,$6,$7,$8,$9,0*
20,1,$1+$1,$8,$9,$2,$3,0*%
%AMFreePoly0*
4,1,19,0.500000,-0.750000,0.000000,-0.750000,0.000000,-0.744911,-0.071157,-0.744911,-0.207708,-0.704816,-0.327430,-0.627875,-0.420627,-0.520320,-0.479746,-0.390866,-0.500000,-0.250000,-0.500000,0.250000,-0.479746,0.390866,-0.420627,0.520320,-0.327430,0.627875,-0.207708,0.704816,-0.071157,0.744911,0.000000,0.744911,0.000000,0.750000,0.500000,0.750000,0.500000,-0.750000,0.500000,-0.750000,
$1*%
%AMFreePoly1*
4,1,19,0.000000,0.744911,0.071157,0.744911,0.207708,0.704816,0.327430,0.627875,0.420627,0.520320,0.479746,0.390866,0.500000,0.250000,0.500000,-0.250000,0.479746,-0.390866,0.420627,-0.520320,0.327430,-0.627875,0.207708,-0.704816,0.071157,-0.744911,0.000000,-0.744911,0.000000,-0.750000,-0.500000,-0.750000,-0.500000,0.750000,0.000000,0.750000,0.000000,0.744911,0.000000,0.744911,
$1*%
G04 Aperture macros list end*
%ADD10RoundRect,0.250000X-0.262500X-0.450000X0.262500X-0.450000X0.262500X0.450000X-0.262500X0.450000X0*%
%ADD11R,1.700000X1.700000*%
%ADD12O,1.700000X1.700000*%
%ADD13RoundRect,0.250000X0.262500X0.450000X-0.262500X0.450000X-0.262500X-0.450000X0.262500X-0.450000X0*%
%ADD14RoundRect,0.225000X0.250000X-0.225000X0.250000X0.225000X-0.250000X0.225000X-0.250000X-0.225000X0*%
%ADD15R,1.800000X1.800000*%
%ADD16C,1.800000*%
%ADD17FreePoly0,90.000000*%
%ADD18FreePoly1,90.000000*%
%ADD19RoundRect,0.243750X0.456250X-0.243750X0.456250X0.243750X-0.456250X0.243750X-0.456250X-0.243750X0*%
%ADD20C,1.500000*%
%ADD21RoundRect,0.250000X-0.250000X-0.475000X0.250000X-0.475000X0.250000X0.475000X-0.250000X0.475000X0*%
%ADD22R,1.800000X1.000000*%
%ADD23RoundRect,0.250000X-0.450000X0.262500X-0.450000X-0.262500X0.450000X-0.262500X0.450000X0.262500X0*%
%ADD24RoundRect,0.200000X0.200000X0.275000X-0.200000X0.275000X-0.200000X-0.275000X0.200000X-0.275000X0*%
%ADD25C,2.100000*%
%ADD26C,1.750000*%
%ADD27C,3.200000*%
%ADD28RoundRect,0.250000X0.550000X-1.050000X0.550000X1.050000X-0.550000X1.050000X-0.550000X-1.050000X0*%
%ADD29RoundRect,0.250000X-1.500000X0.250000X-1.500000X-0.250000X1.500000X-0.250000X1.500000X0.250000X0*%
%ADD30RoundRect,0.250001X-1.449999X0.499999X-1.449999X-0.499999X1.449999X-0.499999X1.449999X0.499999X0*%
%ADD31FreePoly0,180.000000*%
%ADD32FreePoly1,180.000000*%
%ADD33RoundRect,0.225000X-0.225000X-0.250000X0.225000X-0.250000X0.225000X0.250000X-0.225000X0.250000X0*%
%ADD34C,3.000000*%
%ADD35R,1.300000X1.550000*%
%ADD36RoundRect,0.075000X-0.075000X0.700000X-0.075000X-0.700000X0.075000X-0.700000X0.075000X0.700000X0*%
%ADD37RoundRect,0.075000X-0.700000X0.075000X-0.700000X-0.075000X0.700000X-0.075000X0.700000X0.075000X0*%
%ADD38R,1.800000X1.200000*%
%ADD39RoundRect,0.250000X0.475000X-0.250000X0.475000X0.250000X-0.475000X0.250000X-0.475000X-0.250000X0*%
%ADD40RoundRect,0.225000X-0.250000X0.225000X-0.250000X-0.225000X0.250000X-0.225000X0.250000X0.225000X0*%
%ADD41R,1.900000X1.300000*%
%ADD42R,1.200000X1.000000*%
%ADD43R,2.800000X1.000000*%
%ADD44R,0.800000X1.000000*%
%ADD45R,1.200000X0.700000*%
%ADD46RoundRect,0.225000X0.225000X0.250000X-0.225000X0.250000X-0.225000X-0.250000X0.225000X-0.250000X0*%
%ADD47RoundRect,0.250000X-1.950000X-0.700000X1.950000X-0.700000X1.950000X0.700000X-1.950000X0.700000X0*%
%ADD48RoundRect,0.250000X1.075000X-0.375000X1.075000X0.375000X-1.075000X0.375000X-1.075000X-0.375000X0*%
%ADD49RoundRect,0.150000X-0.512500X-0.150000X0.512500X-0.150000X0.512500X0.150000X-0.512500X0.150000X0*%
%ADD50R,2.000000X1.000000*%
%ADD51RoundRect,0.250000X0.450000X-0.262500X0.450000X0.262500X-0.450000X0.262500X-0.450000X-0.262500X0*%
%ADD52C,2.500000*%
G04 APERTURE END LIST*
D10*
%TO.C,R18*%
X82175000Y-106600000D03*
X84000000Y-106600000D03*
%TD*%
D11*
%TO.C,J1*%
X95725000Y-89175000D03*
D12*
X98265000Y-89175000D03*
%TD*%
D10*
%TO.C,R20*%
X98087500Y-106600000D03*
X99912500Y-106600000D03*
%TD*%
D13*
%TO.C,R7*%
X61800000Y-75600000D03*
X59975000Y-75600000D03*
%TD*%
D11*
%TO.C,J4*%
X68800000Y-91460000D03*
D12*
X68800000Y-94000000D03*
%TD*%
D14*
%TO.C,C14*%
X61790000Y-83250000D03*
X61790000Y-81700000D03*
%TD*%
D15*
%TO.C,D2*%
X84000000Y-112275000D03*
D16*
X84000000Y-109735000D03*
%TD*%
D17*
%TO.C,C1*%
X50147500Y-41050000D03*
D18*
X50147500Y-39750000D03*
%TD*%
D19*
%TO.C,D5*%
X97512500Y-111737500D03*
X97512500Y-109862500D03*
%TD*%
D20*
%TO.C,H5*%
X22200000Y-100700000D03*
%TD*%
D21*
%TO.C,C6*%
X55947500Y-34650000D03*
X57847500Y-34650000D03*
%TD*%
D17*
%TO.C,JP5*%
X78800000Y-111500000D03*
D18*
X78800000Y-110200000D03*
%TD*%
D22*
%TO.C,Y2*%
X66647500Y-36900000D03*
X66647500Y-34400000D03*
%TD*%
D23*
%TO.C,R3*%
X61800000Y-86887500D03*
X61800000Y-88712500D03*
%TD*%
D24*
%TO.C,R13*%
X56025000Y-56900000D03*
X54375000Y-56900000D03*
%TD*%
D25*
%TO.C,SW1*%
X24165000Y-55800000D03*
X24165000Y-48790000D03*
D26*
X21675000Y-54550000D03*
X21675000Y-50050000D03*
%TD*%
D10*
%TO.C,R19*%
X89975000Y-106600000D03*
X91800000Y-106600000D03*
%TD*%
D21*
%TO.C,C12*%
X62697500Y-30062500D03*
X64597500Y-30062500D03*
%TD*%
D27*
%TO.C,H3*%
X118000000Y-116000000D03*
%TD*%
D24*
%TO.C,R14*%
X46275000Y-55640000D03*
X44625000Y-55640000D03*
%TD*%
D28*
%TO.C,C25*%
X40400000Y-34800000D03*
X40400000Y-31200000D03*
%TD*%
D29*
%TO.C,J3*%
X35600000Y-38400000D03*
X35600000Y-40400000D03*
X35600000Y-42400000D03*
X35600000Y-44400000D03*
D30*
X29850000Y-36050000D03*
X29850000Y-46750000D03*
%TD*%
D27*
%TO.C,H2*%
X118000000Y-24000000D03*
%TD*%
D23*
%TO.C,R4*%
X59800000Y-86887500D03*
X59800000Y-88712500D03*
%TD*%
D31*
%TO.C,JP1*%
X97650000Y-91400000D03*
D32*
X96350000Y-91400000D03*
%TD*%
D33*
%TO.C,C7*%
X56372500Y-36400000D03*
X57922500Y-36400000D03*
%TD*%
D15*
%TO.C,D4*%
X91800000Y-112200000D03*
D16*
X91800000Y-109660000D03*
%TD*%
D20*
%TO.C,H6*%
X22200000Y-81500000D03*
%TD*%
D14*
%TO.C,C2*%
X51897500Y-41400000D03*
X51897500Y-39850000D03*
%TD*%
D16*
%TO.C,U7*%
X22500000Y-77180000D03*
X22500000Y-74640000D03*
X22500000Y-72100000D03*
X22500000Y-69560000D03*
X22500000Y-67020000D03*
X22500000Y-64480000D03*
X22500000Y-61940000D03*
X22500000Y-59400000D03*
D34*
X119500000Y-104540000D03*
X119500000Y-32040000D03*
X22500000Y-104540000D03*
X22500000Y-32040000D03*
%TD*%
D35*
%TO.C,SW2*%
X32750000Y-116980000D03*
X32750000Y-109020000D03*
X37250000Y-116980000D03*
X37250000Y-109020000D03*
%TD*%
D36*
%TO.C,U5*%
X63825000Y-38875000D03*
X63325000Y-38875000D03*
X62825000Y-38875000D03*
X62325000Y-38875000D03*
X61825000Y-38875000D03*
X61325000Y-38875000D03*
X60825000Y-38875000D03*
X60325000Y-38875000D03*
X59825000Y-38875000D03*
X59325000Y-38875000D03*
X58825000Y-38875000D03*
X58325000Y-38875000D03*
X57825000Y-38875000D03*
X57325000Y-38875000D03*
X56825000Y-38875000D03*
X56325000Y-38875000D03*
D37*
X54400000Y-40800000D03*
X54400000Y-41300000D03*
X54400000Y-41800000D03*
X54400000Y-42300000D03*
X54400000Y-42800000D03*
X54400000Y-43300000D03*
X54400000Y-43800000D03*
X54400000Y-44300000D03*
X54400000Y-44800000D03*
X54400000Y-45300000D03*
X54400000Y-45800000D03*
X54400000Y-46300000D03*
X54400000Y-46800000D03*
X54400000Y-47300000D03*
X54400000Y-47800000D03*
X54400000Y-48300000D03*
D36*
X56325000Y-50225000D03*
X56825000Y-50225000D03*
X57325000Y-50225000D03*
X57825000Y-50225000D03*
X58325000Y-50225000D03*
X58825000Y-50225000D03*
X59325000Y-50225000D03*
X59825000Y-50225000D03*
X60325000Y-50225000D03*
X60825000Y-50225000D03*
X61325000Y-50225000D03*
X61825000Y-50225000D03*
X62325000Y-50225000D03*
X62825000Y-50225000D03*
X63325000Y-50225000D03*
X63825000Y-50225000D03*
D37*
X65750000Y-48300000D03*
X65750000Y-47800000D03*
X65750000Y-47300000D03*
X65750000Y-46800000D03*
X65750000Y-46300000D03*
X65750000Y-45800000D03*
X65750000Y-45300000D03*
X65750000Y-44800000D03*
X65750000Y-44300000D03*
X65750000Y-43800000D03*
X65750000Y-43300000D03*
X65750000Y-42800000D03*
X65750000Y-42300000D03*
X65750000Y-41800000D03*
X65750000Y-41300000D03*
X65750000Y-40800000D03*
%TD*%
D11*
%TO.C,J2*%
X94400000Y-49400000D03*
D12*
X91860000Y-49400000D03*
%TD*%
D38*
%TO.C,Y1*%
X63947500Y-25812500D03*
X59947500Y-25812500D03*
X59947500Y-28212500D03*
X63947500Y-28212500D03*
%TD*%
D24*
%TO.C,R17*%
X56050000Y-55650000D03*
X54400000Y-55650000D03*
%TD*%
%TO.C,R12*%
X52775000Y-56900000D03*
X51125000Y-56900000D03*
%TD*%
D15*
%TO.C,D6*%
X99912500Y-112200000D03*
D16*
X99912500Y-109660000D03*
%TD*%
D27*
%TO.C,H1*%
X24000000Y-24000000D03*
%TD*%
D39*
%TO.C,C24*%
X34287500Y-33900000D03*
X34287500Y-32000000D03*
%TD*%
D19*
%TO.C,D1*%
X81600000Y-111737500D03*
X81600000Y-109862500D03*
%TD*%
%TO.C,D3*%
X89400000Y-111737500D03*
X89400000Y-109862500D03*
%TD*%
D24*
%TO.C,R10*%
X46275000Y-56890000D03*
X44625000Y-56890000D03*
%TD*%
D39*
%TO.C,C15*%
X60040000Y-83475000D03*
X60040000Y-81575000D03*
%TD*%
D21*
%TO.C,C13*%
X59197500Y-30062500D03*
X61097500Y-30062500D03*
%TD*%
D24*
%TO.C,R16*%
X52775000Y-55650000D03*
X51125000Y-55650000D03*
%TD*%
D27*
%TO.C,H4*%
X24000000Y-116000000D03*
%TD*%
D14*
%TO.C,C23*%
X35887500Y-33712500D03*
X35887500Y-32162500D03*
%TD*%
D13*
%TO.C,R2*%
X61622500Y-94000000D03*
X59797500Y-94000000D03*
%TD*%
D40*
%TO.C,C3*%
X68147500Y-40350000D03*
X68147500Y-41900000D03*
%TD*%
D31*
%TO.C,JP2*%
X93800000Y-47000000D03*
D32*
X92500000Y-47000000D03*
%TD*%
D21*
%TO.C,C17*%
X68697500Y-34650000D03*
X70597500Y-34650000D03*
%TD*%
D15*
%TO.C,D8*%
X108136250Y-112275000D03*
D16*
X108136250Y-109735000D03*
%TD*%
D41*
%TO.C,J5*%
X80650000Y-74100000D03*
D42*
X65550000Y-76450000D03*
D43*
X80200000Y-87600000D03*
D42*
X69850000Y-87600000D03*
D44*
X76050000Y-87600000D03*
D45*
X65550000Y-86650000D03*
X65550000Y-85700000D03*
X65550000Y-84600000D03*
X65550000Y-83500000D03*
X65550000Y-82400000D03*
X65550000Y-81300000D03*
X65550000Y-80200000D03*
X65550000Y-79100000D03*
X65550000Y-78000000D03*
%TD*%
D46*
%TO.C,C18*%
X46225000Y-54390000D03*
X44675000Y-54390000D03*
%TD*%
%TO.C,C21*%
X56000000Y-54400000D03*
X54450000Y-54400000D03*
%TD*%
D24*
%TO.C,R11*%
X49525000Y-56900000D03*
X47875000Y-56900000D03*
%TD*%
D10*
%TO.C,R21*%
X106311250Y-106600000D03*
X108136250Y-106600000D03*
%TD*%
D13*
%TO.C,R6*%
X61800000Y-77600000D03*
X59975000Y-77600000D03*
%TD*%
D21*
%TO.C,C16*%
X68697500Y-36650000D03*
X70597500Y-36650000D03*
%TD*%
D13*
%TO.C,R5*%
X61800000Y-79600000D03*
X59975000Y-79600000D03*
%TD*%
D35*
%TO.C,SW4*%
X56750000Y-116980000D03*
X56750000Y-109020000D03*
X61250000Y-116980000D03*
X61250000Y-109020000D03*
%TD*%
D46*
%TO.C,C20*%
X52725000Y-54400000D03*
X51175000Y-54400000D03*
%TD*%
D47*
%TO.C,C10*%
X78447500Y-33400000D03*
X87147500Y-33400000D03*
%TD*%
D48*
%TO.C,L1*%
X53597500Y-36150000D03*
X53597500Y-33350000D03*
%TD*%
D49*
%TO.C,Q1*%
X59572500Y-90300000D03*
X59572500Y-91250000D03*
X59572500Y-92200000D03*
X61847500Y-92200000D03*
X61847500Y-91250000D03*
X61847500Y-90300000D03*
%TD*%
D14*
%TO.C,C5*%
X52147500Y-49425000D03*
X52147500Y-47875000D03*
%TD*%
D19*
%TO.C,D7*%
X105736250Y-111737500D03*
X105736250Y-109862500D03*
%TD*%
D46*
%TO.C,C19*%
X49475000Y-54390000D03*
X47925000Y-54390000D03*
%TD*%
D35*
%TO.C,SW3*%
X44750000Y-116980000D03*
X44750000Y-109020000D03*
X49250000Y-116980000D03*
X49250000Y-109020000D03*
%TD*%
D24*
%TO.C,R15*%
X49550000Y-55650000D03*
X47900000Y-55650000D03*
%TD*%
D35*
%TO.C,SW5*%
X68750000Y-116980000D03*
X68750000Y-109020000D03*
X73250000Y-116980000D03*
X73250000Y-109020000D03*
%TD*%
D50*
%TO.C,J7*%
X27787500Y-87300000D03*
X27787500Y-89840000D03*
X27787500Y-92380000D03*
X27787500Y-94920000D03*
%TD*%
D51*
%TO.C,R1*%
X60897500Y-33725000D03*
X60897500Y-31900000D03*
%TD*%
D46*
%TO.C,C4*%
X64922500Y-52650000D03*
X63372500Y-52650000D03*
%TD*%
D52*
%TO.C,U3*%
X102550000Y-49650000D03*
X118750000Y-81650000D03*
D15*
X98650000Y-49550000D03*
D16*
X98650000Y-52090000D03*
X98650000Y-54630000D03*
X98650000Y-57170000D03*
X98650000Y-59710000D03*
X98650000Y-62250000D03*
X98650000Y-64790000D03*
%TD*%
D34*
%TO.C,U1*%
X112012500Y-101012500D03*
X112012500Y-90412500D03*
D20*
X104052500Y-89242500D03*
X104052500Y-91782500D03*
X104052500Y-94322500D03*
X104052500Y-96862500D03*
X104052500Y-99402500D03*
X104052500Y-101942500D03*
%TD*%
D11*
%TO.C,J8*%
X111000000Y-115000000D03*
D12*
X111000000Y-117540000D03*
X108460000Y-115000000D03*
X108460000Y-117540000D03*
X105920000Y-115000000D03*
X105920000Y-117540000D03*
X103380000Y-115000000D03*
X103380000Y-117540000D03*
X100840000Y-115000000D03*
X100840000Y-117540000D03*
X98300000Y-115000000D03*
X98300000Y-117540000D03*
X95760000Y-115000000D03*
X95760000Y-117540000D03*
%TD*%
M02*
