%TF.GenerationSoftware,KiCad,Pcbnew,7.0.9*%
%TF.CreationDate,2024-06-04T23:52:15+02:00*%
%TF.ProjectId,EnvSensor-Main-v2.1,456e7653-656e-4736-9f72-2d4d61696e2d,rev?*%
%TF.SameCoordinates,Original*%
%TF.FileFunction,Soldermask,Bot*%
%TF.FilePolarity,Negative*%
%FSLAX46Y46*%
G04 Gerber Fmt 4.6, Leading zero omitted, Abs format (unit mm)*
G04 Created by KiCad (PCBNEW 7.0.9) date 2024-06-04 23:52:15*
%MOMM*%
%LPD*%
G01*
G04 APERTURE LIST*
G04 Aperture macros list*
%AMRoundRect*
0 Rectangle with rounded corners*
0 $1 Rounding radius*
0 $2 $3 $4 $5 $6 $7 $8 $9 X,Y pos of 4 corners*
0 Add a 4 corners polygon primitive as box body*
4,1,4,$2,$3,$4,$5,$6,$7,$8,$9,$2,$3,0*
0 Add four circle primitives for the rounded corners*
1,1,$1+$1,$2,$3*
1,1,$1+$1,$4,$5*
1,1,$1+$1,$6,$7*
1,1,$1+$1,$8,$9*
0 Add four rect primitives between the rounded corners*
20,1,$1+$1,$2,$3,$4,$5,0*
20,1,$1+$1,$4,$5,$6,$7,0*
20,1,$1+$1,$6,$7,$8,$9,0*
20,1,$1+$1,$8,$9,$2,$3,0*%
%AMFreePoly0*
4,1,19,0.550000,-0.750000,0.000000,-0.750000,0.000000,-0.744911,-0.071157,-0.744911,-0.207708,-0.704816,-0.327430,-0.627875,-0.420627,-0.520320,-0.479746,-0.390866,-0.500000,-0.250000,-0.500000,0.250000,-0.479746,0.390866,-0.420627,0.520320,-0.327430,0.627875,-0.207708,0.704816,-0.071157,0.744911,0.000000,0.744911,0.000000,0.750000,0.550000,0.750000,0.550000,-0.750000,0.550000,-0.750000,
$1*%
%AMFreePoly1*
4,1,19,0.000000,0.744911,0.071157,0.744911,0.207708,0.704816,0.327430,0.627875,0.420627,0.520320,0.479746,0.390866,0.500000,0.250000,0.500000,-0.250000,0.479746,-0.390866,0.420627,-0.520320,0.327430,-0.627875,0.207708,-0.704816,0.071157,-0.744911,0.000000,-0.744911,0.000000,-0.750000,-0.550000,-0.750000,-0.550000,0.750000,0.000000,0.750000,0.000000,0.744911,0.000000,0.744911,
$1*%
G04 Aperture macros list end*
%ADD10R,1.700000X1.700000*%
%ADD11O,1.700000X1.700000*%
%ADD12R,1.800000X1.800000*%
%ADD13C,1.800000*%
%ADD14C,1.500000*%
%ADD15C,2.100000*%
%ADD16C,1.750000*%
%ADD17C,3.200000*%
%ADD18C,3.000000*%
%ADD19RoundRect,0.150000X-0.512500X-0.150000X0.512500X-0.150000X0.512500X0.150000X-0.512500X0.150000X0*%
%ADD20R,0.350000X0.500000*%
%ADD21FreePoly0,180.000000*%
%ADD22R,1.000000X1.500000*%
%ADD23FreePoly1,180.000000*%
%ADD24RoundRect,0.250000X0.262500X0.450000X-0.262500X0.450000X-0.262500X-0.450000X0.262500X-0.450000X0*%
%ADD25RoundRect,0.250000X0.450000X-0.262500X0.450000X0.262500X-0.450000X0.262500X-0.450000X-0.262500X0*%
%ADD26RoundRect,0.250000X-0.475000X0.250000X-0.475000X-0.250000X0.475000X-0.250000X0.475000X0.250000X0*%
%ADD27RoundRect,0.225000X0.250000X-0.225000X0.250000X0.225000X-0.250000X0.225000X-0.250000X-0.225000X0*%
%ADD28C,2.500000*%
%ADD29R,0.800000X1.500000*%
%ADD30R,1.500000X0.800000*%
%ADD31R,4.800000X4.800000*%
%ADD32RoundRect,0.225000X-0.225000X-0.250000X0.225000X-0.250000X0.225000X0.250000X-0.225000X0.250000X0*%
%ADD33RoundRect,0.250000X-0.262500X-0.450000X0.262500X-0.450000X0.262500X0.450000X-0.262500X0.450000X0*%
%ADD34R,2.000000X1.200000*%
G04 APERTURE END LIST*
D10*
%TO.C,J1*%
X98250000Y-89250000D03*
D11*
X95710000Y-89250000D03*
%TD*%
D10*
%TO.C,J4*%
X32060000Y-81400000D03*
D11*
X34600000Y-81400000D03*
%TD*%
D12*
%TO.C,D2*%
X84000000Y-112275000D03*
D13*
X84000000Y-109735000D03*
%TD*%
D14*
%TO.C,H5*%
X78800000Y-23600000D03*
%TD*%
D15*
%TO.C,SW1*%
X24165000Y-47325000D03*
X24165000Y-40315000D03*
D16*
X21675000Y-46075000D03*
X21675000Y-41575000D03*
%TD*%
D17*
%TO.C,H3*%
X118000000Y-116000000D03*
%TD*%
%TO.C,H2*%
X118000000Y-24000000D03*
%TD*%
D12*
%TO.C,D4*%
X91800000Y-112200000D03*
D13*
X91800000Y-109660000D03*
%TD*%
D14*
%TO.C,H6*%
X92800000Y-23600000D03*
%TD*%
D18*
%TO.C,U7*%
X22500000Y-32040000D03*
X22500000Y-104540000D03*
X119500000Y-32040000D03*
X119500000Y-104540000D03*
D13*
X22500000Y-59400000D03*
X22500000Y-61940000D03*
X22500000Y-64480000D03*
X22500000Y-67020000D03*
X22500000Y-69560000D03*
X22500000Y-72100000D03*
X22500000Y-74640000D03*
X22500000Y-77180000D03*
%TD*%
D10*
%TO.C,J2*%
X94400000Y-49400000D03*
D11*
X91860000Y-49400000D03*
%TD*%
D12*
%TO.C,D6*%
X99912500Y-112200000D03*
D13*
X99912500Y-109660000D03*
%TD*%
D17*
%TO.C,H1*%
X24000000Y-24000000D03*
%TD*%
%TO.C,H4*%
X24000000Y-116000000D03*
%TD*%
D12*
%TO.C,D8*%
X108136250Y-112275000D03*
D13*
X108136250Y-109735000D03*
%TD*%
D10*
%TO.C,J7*%
X89600000Y-28400000D03*
D11*
X87060000Y-28400000D03*
X84520000Y-28400000D03*
X81980000Y-28400000D03*
%TD*%
D19*
%TO.C,Q2*%
X39462500Y-57700000D03*
X39462500Y-55800000D03*
X41737500Y-56750000D03*
%TD*%
D20*
%TO.C,U2*%
X108500000Y-95225000D03*
X107850000Y-95225000D03*
X107200000Y-95225000D03*
X106550000Y-95225000D03*
X106550000Y-97275000D03*
X107200000Y-97275000D03*
X107850000Y-97275000D03*
X108500000Y-97275000D03*
%TD*%
D21*
%TO.C,JP3*%
X108750000Y-102200000D03*
D22*
X107450000Y-102200000D03*
D23*
X106150000Y-102200000D03*
%TD*%
D24*
%TO.C,R22*%
X45662500Y-59750000D03*
X43837500Y-59750000D03*
%TD*%
D25*
%TO.C,R23*%
X44000000Y-57912500D03*
X44000000Y-56087500D03*
%TD*%
D26*
%TO.C,C11*%
X47500000Y-45800000D03*
X47500000Y-47700000D03*
%TD*%
D27*
%TO.C,C22*%
X46000000Y-57575000D03*
X46000000Y-56025000D03*
%TD*%
D28*
%TO.C,U3*%
X102550000Y-49650000D03*
X118750000Y-81650000D03*
D12*
X98650000Y-49550000D03*
D13*
X98650000Y-52090000D03*
X98650000Y-54630000D03*
X98650000Y-57170000D03*
X98650000Y-59710000D03*
X98650000Y-62250000D03*
X98650000Y-64790000D03*
%TD*%
D29*
%TO.C,U4*%
X112500000Y-63000000D03*
X111250000Y-63000000D03*
X110000000Y-63000000D03*
X108750000Y-63000000D03*
X107500000Y-63000000D03*
D30*
X106000000Y-61500000D03*
X106000000Y-60250000D03*
X106000000Y-59000000D03*
X106000000Y-57750000D03*
X106000000Y-56500000D03*
D29*
X107500000Y-55000000D03*
X108750000Y-55000000D03*
X110000000Y-55000000D03*
X111250000Y-55000000D03*
X112500000Y-55000000D03*
D30*
X114000000Y-56500000D03*
X114000000Y-57750000D03*
X114000000Y-59000000D03*
X114000000Y-60250000D03*
X114000000Y-61500000D03*
D31*
X110000000Y-59000000D03*
%TD*%
D27*
%TO.C,C8*%
X110000000Y-97000000D03*
X110000000Y-95450000D03*
%TD*%
D32*
%TO.C,C9*%
X106750000Y-98975000D03*
X108300000Y-98975000D03*
%TD*%
D18*
%TO.C,U1*%
X112012500Y-101012500D03*
X112012500Y-90412500D03*
D14*
X104052500Y-89242500D03*
X104052500Y-91782500D03*
X104052500Y-94322500D03*
X104052500Y-96862500D03*
X104052500Y-99402500D03*
X104052500Y-101942500D03*
%TD*%
D33*
%TO.C,R24*%
X39337500Y-59750000D03*
X41162500Y-59750000D03*
%TD*%
D34*
%TO.C,U6*%
X112250000Y-29000000D03*
X112250000Y-31000000D03*
X112250000Y-33000000D03*
X112250000Y-35000000D03*
X112250000Y-37000000D03*
X112250000Y-39000000D03*
X112250000Y-41000000D03*
X112250000Y-43000000D03*
X96250000Y-43000000D03*
X96250000Y-41000000D03*
X96250000Y-39000000D03*
X96250000Y-37000000D03*
X96250000Y-35000000D03*
X96250000Y-33000000D03*
X96250000Y-31000000D03*
X96250000Y-29000000D03*
%TD*%
D10*
%TO.C,J8*%
X111000000Y-115000000D03*
D11*
X111000000Y-117540000D03*
X108460000Y-115000000D03*
X108460000Y-117540000D03*
X105920000Y-115000000D03*
X105920000Y-117540000D03*
X103380000Y-115000000D03*
X103380000Y-117540000D03*
X100840000Y-115000000D03*
X100840000Y-117540000D03*
X98300000Y-115000000D03*
X98300000Y-117540000D03*
X95760000Y-115000000D03*
X95760000Y-117540000D03*
%TD*%
M02*
