%TF.GenerationSoftware,KiCad,Pcbnew,7.0.9*%
%TF.CreationDate,2024-06-04T23:52:15+02:00*%
%TF.ProjectId,EnvSensor-Main-v2.1,456e7653-656e-4736-9f72-2d4d61696e2d,rev?*%
%TF.SameCoordinates,Original*%
%TF.FileFunction,Copper,L3,Inr*%
%TF.FilePolarity,Positive*%
%FSLAX46Y46*%
G04 Gerber Fmt 4.6, Leading zero omitted, Abs format (unit mm)*
G04 Created by KiCad (PCBNEW 7.0.9) date 2024-06-04 23:52:15*
%MOMM*%
%LPD*%
G01*
G04 APERTURE LIST*
%TA.AperFunction,ComponentPad*%
%ADD10R,1.700000X1.700000*%
%TD*%
%TA.AperFunction,ComponentPad*%
%ADD11O,1.700000X1.700000*%
%TD*%
%TA.AperFunction,ComponentPad*%
%ADD12R,1.800000X1.800000*%
%TD*%
%TA.AperFunction,ComponentPad*%
%ADD13C,1.800000*%
%TD*%
%TA.AperFunction,ComponentPad*%
%ADD14C,1.500000*%
%TD*%
%TA.AperFunction,ComponentPad*%
%ADD15C,2.100000*%
%TD*%
%TA.AperFunction,ComponentPad*%
%ADD16C,1.750000*%
%TD*%
%TA.AperFunction,ViaPad*%
%ADD17C,0.800000*%
%TD*%
%TA.AperFunction,ViaPad*%
%ADD18C,0.600000*%
%TD*%
%ADD19C,0.350000*%
G04 APERTURE END LIST*
D10*
%TO.N,/BMP280_VCC*%
%TO.C,J1*%
X98250000Y-89250000D03*
D11*
%TO.N,+3V3*%
X95710000Y-89250000D03*
%TD*%
D10*
%TO.N,+3V3*%
%TO.C,J4*%
X32060000Y-81400000D03*
D11*
%TO.N,Net-(J4-Pin_2)*%
X34600000Y-81400000D03*
%TD*%
D12*
%TO.N,GND*%
%TO.C,D2*%
X84000000Y-112275000D03*
D13*
%TO.N,Net-(D1-A)*%
X84000000Y-109735000D03*
%TD*%
D14*
%TO.N,N/C*%
%TO.C,H5*%
X78800000Y-23600000D03*
%TD*%
D15*
%TO.N,*%
%TO.C,SW1*%
X24165000Y-47325000D03*
X24165000Y-40315000D03*
D16*
%TO.N,GND*%
X21675000Y-46075000D03*
%TO.N,NRST*%
X21675000Y-41575000D03*
%TD*%
D12*
%TO.N,GND*%
%TO.C,D4*%
X91800000Y-112200000D03*
D13*
%TO.N,Net-(D3-A)*%
X91800000Y-109660000D03*
%TD*%
D14*
%TO.N,N/C*%
%TO.C,H6*%
X92800000Y-23600000D03*
%TD*%
D13*
%TO.N,+3V3*%
%TO.C,U7*%
X22500000Y-59400000D03*
%TO.N,GND*%
X22500000Y-61940000D03*
%TO.N,MOSI*%
X22500000Y-64480000D03*
%TO.N,SCK*%
X22500000Y-67020000D03*
%TO.N,E_INK_SELECT*%
X22500000Y-69560000D03*
%TO.N,E_INK_DC*%
X22500000Y-72100000D03*
%TO.N,E_INK_RESET*%
X22500000Y-74640000D03*
%TO.N,E_INK_BUSY*%
X22500000Y-77180000D03*
%TD*%
D10*
%TO.N,/SCD_POWER*%
%TO.C,J2*%
X94400000Y-49400000D03*
D11*
%TO.N,+3V3*%
X91860000Y-49400000D03*
%TD*%
D12*
%TO.N,GND*%
%TO.C,D6*%
X99912500Y-112200000D03*
D13*
%TO.N,Net-(D5-A)*%
X99912500Y-109660000D03*
%TD*%
D12*
%TO.N,GND*%
%TO.C,D8*%
X108136250Y-112275000D03*
D13*
%TO.N,Net-(D7-A)*%
X108136250Y-109735000D03*
%TD*%
D10*
%TO.N,SDA*%
%TO.C,J7*%
X89600000Y-28400000D03*
D11*
%TO.N,SCL*%
X87060000Y-28400000D03*
%TO.N,GND*%
X84520000Y-28400000D03*
%TO.N,+3V3*%
X81980000Y-28400000D03*
%TD*%
D12*
%TO.N,/SCD_POWER*%
%TO.C,U3*%
X98650000Y-49550000D03*
D13*
%TO.N,GND*%
X98650000Y-52090000D03*
%TO.N,SCL*%
X98650000Y-54630000D03*
%TO.N,SDA*%
X98650000Y-57170000D03*
%TO.N,SCD30_READY*%
X98650000Y-59710000D03*
%TO.N,unconnected-(U3-PWM-Pad6)*%
X98650000Y-62250000D03*
%TO.N,GND*%
X98650000Y-64790000D03*
%TD*%
D14*
%TO.N,/BMP280_VCC*%
%TO.C,U1*%
X104052500Y-89242500D03*
%TO.N,GND*%
X104052500Y-91782500D03*
%TO.N,SCL*%
X104052500Y-94322500D03*
%TO.N,SDA*%
X104052500Y-96862500D03*
%TO.N,/BMP280_VCC*%
X104052500Y-99402500D03*
%TO.N,GND*%
X104052500Y-101942500D03*
%TD*%
D10*
%TO.N,+3V3*%
%TO.C,J8*%
X111000000Y-115000000D03*
D11*
%TO.N,GND*%
X111000000Y-117540000D03*
%TO.N,+3V3*%
X108460000Y-115000000D03*
%TO.N,GND*%
X108460000Y-117540000D03*
%TO.N,+5V*%
X105920000Y-115000000D03*
%TO.N,GND*%
X105920000Y-117540000D03*
%TO.N,+5V*%
X103380000Y-115000000D03*
%TO.N,GND*%
X103380000Y-117540000D03*
%TO.N,POWER_5V_ENABLE*%
X100840000Y-115000000D03*
%TO.N,GND*%
X100840000Y-117540000D03*
%TO.N,+BATT*%
X98300000Y-115000000D03*
%TO.N,GND*%
X98300000Y-117540000D03*
%TO.N,VBUS*%
X95760000Y-115000000D03*
%TO.N,GND*%
X95760000Y-117540000D03*
%TD*%
D17*
%TO.N,+3V3*%
X43000000Y-62250000D03*
D18*
X58750000Y-51750000D03*
D17*
X42500000Y-54250000D03*
X86400000Y-47200000D03*
X37000000Y-53655172D03*
D18*
X45500000Y-68750000D03*
D17*
X40750000Y-54250000D03*
X45800000Y-49400000D03*
X67000000Y-68000000D03*
D18*
X39000000Y-68750000D03*
X42250000Y-68750000D03*
D17*
X56000000Y-65500000D03*
X91000000Y-93000000D03*
D18*
X48000000Y-69600000D03*
%TO.N,GND*%
X109600000Y-102200000D03*
X47500000Y-45000000D03*
X63000000Y-45000000D03*
X115000000Y-61500000D03*
X49000000Y-46500000D03*
X109000000Y-99000000D03*
X54250000Y-43750000D03*
X53750000Y-36250000D03*
X56500000Y-36250000D03*
X27800000Y-63200000D03*
X56500000Y-38500000D03*
X48600000Y-52200000D03*
X63000000Y-47250000D03*
X48500000Y-38500000D03*
X40700000Y-90000000D03*
X53750000Y-46250000D03*
X53750000Y-52500000D03*
X62000000Y-46500000D03*
X103000000Y-58500000D03*
X57500000Y-50000000D03*
X110000000Y-94500000D03*
X53250000Y-54250000D03*
X40200000Y-50750000D03*
X43500000Y-34650000D03*
X56500000Y-43500000D03*
X51750000Y-37912500D03*
X50750000Y-36250000D03*
X42000000Y-59750000D03*
X62000000Y-48500000D03*
X39250000Y-66250000D03*
X51000000Y-48250000D03*
X77750000Y-44000000D03*
X36000000Y-30500000D03*
X65400000Y-29800000D03*
X49250000Y-48250000D03*
X95000000Y-43000000D03*
X53319500Y-39912500D03*
X60250000Y-50000000D03*
X50000000Y-46250000D03*
X55600000Y-109000000D03*
X63000000Y-50000000D03*
X86500000Y-56200000D03*
X48500000Y-40750000D03*
X46500000Y-55000000D03*
X68750000Y-118250000D03*
X67600000Y-109000000D03*
X58750000Y-54250000D03*
X36000000Y-25000000D03*
X50750000Y-24600000D03*
X56500000Y-40750000D03*
X48500000Y-36250000D03*
X54500000Y-41912500D03*
X56750000Y-118250000D03*
X51000000Y-41912500D03*
X54750000Y-46250000D03*
X32750000Y-118250000D03*
X45750000Y-66250000D03*
X25775000Y-85250000D03*
X57500000Y-45000000D03*
X44750000Y-118250000D03*
X36000000Y-66250000D03*
X38000000Y-57000000D03*
X55500000Y-49500000D03*
X88200000Y-58000000D03*
X42500000Y-66250000D03*
X42000000Y-51250000D03*
X48500000Y-43000000D03*
X65400000Y-25200000D03*
X44750000Y-107750000D03*
X37450000Y-90275000D03*
X32750000Y-107750000D03*
X52250000Y-55500000D03*
X42000000Y-34412500D03*
X53250000Y-48000000D03*
X60250000Y-45000000D03*
X54000000Y-65200000D03*
%TO.N,NRST*%
X46000000Y-42600000D03*
X36600000Y-42600000D03*
X49750000Y-49250000D03*
%TO.N,LED_1*%
X48500000Y-54750000D03*
X76600000Y-67400000D03*
%TO.N,LED_2*%
X77400000Y-66600000D03*
X49250000Y-54000000D03*
%TO.N,LED_3*%
X78400000Y-65800000D03*
X50000000Y-54750000D03*
%TO.N,LED_4*%
X79400000Y-65000000D03*
X50750000Y-54000000D03*
%TO.N,/SCD_POWER*%
X104250000Y-60250000D03*
D17*
%TO.N,+5V*%
X34000000Y-71250000D03*
X54800000Y-86600000D03*
X42000000Y-31250000D03*
D18*
%TO.N,SDIO_DATA2*%
X57000000Y-67400000D03*
X38950000Y-95500000D03*
%TO.N,SDIO_DATA3*%
X40700000Y-94500000D03*
X58000000Y-67415369D03*
%TO.N,SDIO_CMD*%
X42470313Y-93729687D03*
X60000000Y-67400000D03*
%TO.N,SDIO_CLK*%
X59000000Y-67400000D03*
X37950000Y-91375000D03*
%TO.N,SDIO_DATA0*%
X50050000Y-70450000D03*
X38275000Y-89175000D03*
%TO.N,SDIO_DATA1*%
X39200000Y-86500000D03*
X51400000Y-70400000D03*
%TO.N,SDIO_DETECT*%
X55200000Y-67400000D03*
X41200000Y-85250000D03*
%TO.N,SWCLK*%
X68500000Y-31500000D03*
X53875000Y-54875000D03*
%TO.N,SWDIO*%
X64400000Y-32400000D03*
X52500000Y-53500000D03*
%TO.N,SWO*%
X60450000Y-31950000D03*
X54500000Y-52500000D03*
%TO.N,SDA*%
X85800000Y-55800000D03*
%TO.N,SCL*%
X102500000Y-57750000D03*
X87250000Y-58000000D03*
%TO.N,SDIO_POWER_ENABLE*%
X44200000Y-82250000D03*
X54200000Y-67400000D03*
%TO.N,MOSI*%
X28750000Y-63250000D03*
%TO.N,POWER_5V_ENABLE*%
X75750000Y-68600000D03*
X75750000Y-88000000D03*
X47500000Y-57500000D03*
%TO.N,WIFI_RX*%
X51500000Y-56000000D03*
%TO.N,WFI_TX*%
X52500000Y-56229305D03*
%TO.N,WIFI_RESET*%
X62600000Y-58200000D03*
%TO.N,WIFI_ENABLE*%
X61800000Y-59000000D03*
%TO.N,BATTERY_MEASURE_ENABLE*%
X45500000Y-61230001D03*
%TO.N,+BATT*%
X49000000Y-65000000D03*
X72411056Y-89250000D03*
%TO.N,BATTERY_MEASURE_INPUT*%
X47500000Y-53750000D03*
%TD*%
%TA.AperFunction,Conductor*%
%TO.N,GND*%
G36*
X97840507Y-117330156D02*
G01*
X97800000Y-117468111D01*
X97800000Y-117611889D01*
X97840507Y-117749844D01*
X97866314Y-117790000D01*
X96193686Y-117790000D01*
X96219493Y-117749844D01*
X96260000Y-117611889D01*
X96260000Y-117468111D01*
X96219493Y-117330156D01*
X96193686Y-117290000D01*
X97866314Y-117290000D01*
X97840507Y-117330156D01*
G37*
%TD.AperFunction*%
%TA.AperFunction,Conductor*%
G36*
X100380507Y-117330156D02*
G01*
X100340000Y-117468111D01*
X100340000Y-117611889D01*
X100380507Y-117749844D01*
X100406314Y-117790000D01*
X98733686Y-117790000D01*
X98759493Y-117749844D01*
X98800000Y-117611889D01*
X98800000Y-117468111D01*
X98759493Y-117330156D01*
X98733686Y-117290000D01*
X100406314Y-117290000D01*
X100380507Y-117330156D01*
G37*
%TD.AperFunction*%
%TA.AperFunction,Conductor*%
G36*
X102920507Y-117330156D02*
G01*
X102880000Y-117468111D01*
X102880000Y-117611889D01*
X102920507Y-117749844D01*
X102946314Y-117790000D01*
X101273686Y-117790000D01*
X101299493Y-117749844D01*
X101340000Y-117611889D01*
X101340000Y-117468111D01*
X101299493Y-117330156D01*
X101273686Y-117290000D01*
X102946314Y-117290000D01*
X102920507Y-117330156D01*
G37*
%TD.AperFunction*%
%TA.AperFunction,Conductor*%
G36*
X105460507Y-117330156D02*
G01*
X105420000Y-117468111D01*
X105420000Y-117611889D01*
X105460507Y-117749844D01*
X105486314Y-117790000D01*
X103813686Y-117790000D01*
X103839493Y-117749844D01*
X103880000Y-117611889D01*
X103880000Y-117468111D01*
X103839493Y-117330156D01*
X103813686Y-117290000D01*
X105486314Y-117290000D01*
X105460507Y-117330156D01*
G37*
%TD.AperFunction*%
%TA.AperFunction,Conductor*%
G36*
X108000507Y-117330156D02*
G01*
X107960000Y-117468111D01*
X107960000Y-117611889D01*
X108000507Y-117749844D01*
X108026314Y-117790000D01*
X106353686Y-117790000D01*
X106379493Y-117749844D01*
X106420000Y-117611889D01*
X106420000Y-117468111D01*
X106379493Y-117330156D01*
X106353686Y-117290000D01*
X108026314Y-117290000D01*
X108000507Y-117330156D01*
G37*
%TD.AperFunction*%
%TA.AperFunction,Conductor*%
G36*
X110540507Y-117330156D02*
G01*
X110500000Y-117468111D01*
X110500000Y-117611889D01*
X110540507Y-117749844D01*
X110566314Y-117790000D01*
X108893686Y-117790000D01*
X108919493Y-117749844D01*
X108960000Y-117611889D01*
X108960000Y-117468111D01*
X108919493Y-117330156D01*
X108893686Y-117290000D01*
X110566314Y-117290000D01*
X110540507Y-117330156D01*
G37*
%TD.AperFunction*%
%TA.AperFunction,Conductor*%
G36*
X99802547Y-112685016D02*
G01*
X99932173Y-112725000D01*
X100033724Y-112725000D01*
X100134138Y-112709865D01*
X100250000Y-112654068D01*
X100250000Y-113706012D01*
X100230315Y-113773051D01*
X100178408Y-113818393D01*
X100162169Y-113825965D01*
X99968597Y-113961505D01*
X99801505Y-114128597D01*
X99671575Y-114314158D01*
X99616998Y-114357783D01*
X99547500Y-114364977D01*
X99485145Y-114333454D01*
X99468425Y-114314158D01*
X99338494Y-114128597D01*
X99171402Y-113961506D01*
X99171401Y-113961505D01*
X99084383Y-113900574D01*
X99040760Y-113845998D01*
X99033567Y-113776499D01*
X99065089Y-113714145D01*
X99125319Y-113678731D01*
X99155508Y-113675000D01*
X99750000Y-113675000D01*
X99750000Y-112649189D01*
X99802547Y-112685016D01*
G37*
%TD.AperFunction*%
%TA.AperFunction,Conductor*%
G36*
X121443039Y-20519685D02*
G01*
X121488794Y-20572489D01*
X121500000Y-20624000D01*
X121500000Y-119376000D01*
X121480315Y-119443039D01*
X121427511Y-119488794D01*
X121376000Y-119500000D01*
X20624000Y-119500000D01*
X20556961Y-119480315D01*
X20511206Y-119427511D01*
X20500000Y-119376000D01*
X20500000Y-116067763D01*
X22145787Y-116067763D01*
X22175413Y-116337013D01*
X22175415Y-116337024D01*
X22214243Y-116485542D01*
X22243928Y-116599088D01*
X22349870Y-116848390D01*
X22421998Y-116966575D01*
X22490979Y-117079605D01*
X22490986Y-117079615D01*
X22664253Y-117287819D01*
X22664259Y-117287824D01*
X22666688Y-117290000D01*
X22865998Y-117468582D01*
X23091910Y-117618044D01*
X23337176Y-117733020D01*
X23337183Y-117733022D01*
X23337185Y-117733023D01*
X23596557Y-117811057D01*
X23596564Y-117811058D01*
X23596569Y-117811060D01*
X23864561Y-117850500D01*
X23864566Y-117850500D01*
X24067636Y-117850500D01*
X24119133Y-117846730D01*
X24270156Y-117835677D01*
X24382758Y-117810593D01*
X24534546Y-117776782D01*
X24534548Y-117776781D01*
X24534553Y-117776780D01*
X24787558Y-117680014D01*
X25023777Y-117547441D01*
X25238177Y-117381888D01*
X25426186Y-117186881D01*
X25583799Y-116966579D01*
X25657787Y-116822669D01*
X25707649Y-116725690D01*
X25707651Y-116725684D01*
X25707656Y-116725675D01*
X25795118Y-116469305D01*
X25844319Y-116202933D01*
X25854212Y-115932235D01*
X25824586Y-115662982D01*
X25756072Y-115400912D01*
X25650130Y-115151610D01*
X25557603Y-115000000D01*
X94404341Y-115000000D01*
X94424936Y-115235403D01*
X94424938Y-115235413D01*
X94486094Y-115463655D01*
X94486096Y-115463659D01*
X94486097Y-115463663D01*
X94566004Y-115635023D01*
X94585965Y-115677830D01*
X94585967Y-115677834D01*
X94669456Y-115797067D01*
X94721501Y-115871396D01*
X94721506Y-115871402D01*
X94888597Y-116038493D01*
X94888603Y-116038498D01*
X95074594Y-116168730D01*
X95118219Y-116223307D01*
X95125413Y-116292805D01*
X95093890Y-116355160D01*
X95074595Y-116371880D01*
X94888922Y-116501890D01*
X94888920Y-116501891D01*
X94721891Y-116668920D01*
X94721886Y-116668926D01*
X94586400Y-116862420D01*
X94586399Y-116862422D01*
X94486570Y-117076507D01*
X94486567Y-117076513D01*
X94429364Y-117289999D01*
X94429364Y-117290000D01*
X95326314Y-117290000D01*
X95300507Y-117330156D01*
X95260000Y-117468111D01*
X95260000Y-117611889D01*
X95300507Y-117749844D01*
X95326314Y-117790000D01*
X94429364Y-117790000D01*
X94486567Y-118003486D01*
X94486570Y-118003492D01*
X94586399Y-118217578D01*
X94721894Y-118411082D01*
X94888917Y-118578105D01*
X95082421Y-118713600D01*
X95296507Y-118813429D01*
X95296516Y-118813433D01*
X95510000Y-118870634D01*
X95510000Y-117975501D01*
X95617685Y-118024680D01*
X95724237Y-118040000D01*
X95795763Y-118040000D01*
X95902315Y-118024680D01*
X96010000Y-117975501D01*
X96010000Y-118870633D01*
X96223483Y-118813433D01*
X96223492Y-118813429D01*
X96437578Y-118713600D01*
X96631082Y-118578105D01*
X96798105Y-118411082D01*
X96928425Y-118224968D01*
X96983002Y-118181344D01*
X97052501Y-118174151D01*
X97114855Y-118205673D01*
X97131575Y-118224968D01*
X97261894Y-118411082D01*
X97428917Y-118578105D01*
X97622421Y-118713600D01*
X97836507Y-118813429D01*
X97836516Y-118813433D01*
X98050000Y-118870634D01*
X98050000Y-117975501D01*
X98157685Y-118024680D01*
X98264237Y-118040000D01*
X98335763Y-118040000D01*
X98442315Y-118024680D01*
X98550000Y-117975501D01*
X98550000Y-118870633D01*
X98763483Y-118813433D01*
X98763492Y-118813429D01*
X98977578Y-118713600D01*
X99171082Y-118578105D01*
X99338105Y-118411082D01*
X99468425Y-118224968D01*
X99523002Y-118181344D01*
X99592501Y-118174151D01*
X99654855Y-118205673D01*
X99671575Y-118224968D01*
X99801894Y-118411082D01*
X99968917Y-118578105D01*
X100162421Y-118713600D01*
X100376507Y-118813429D01*
X100376516Y-118813433D01*
X100590000Y-118870634D01*
X100590000Y-117975501D01*
X100697685Y-118024680D01*
X100804237Y-118040000D01*
X100875763Y-118040000D01*
X100982315Y-118024680D01*
X101090000Y-117975501D01*
X101090000Y-118870633D01*
X101303483Y-118813433D01*
X101303492Y-118813429D01*
X101517578Y-118713600D01*
X101711082Y-118578105D01*
X101878105Y-118411082D01*
X102008425Y-118224968D01*
X102063002Y-118181344D01*
X102132501Y-118174151D01*
X102194855Y-118205673D01*
X102211575Y-118224968D01*
X102341894Y-118411082D01*
X102508917Y-118578105D01*
X102702421Y-118713600D01*
X102916507Y-118813429D01*
X102916516Y-118813433D01*
X103130000Y-118870634D01*
X103130000Y-117975501D01*
X103237685Y-118024680D01*
X103344237Y-118040000D01*
X103415763Y-118040000D01*
X103522315Y-118024680D01*
X103630000Y-117975501D01*
X103630000Y-118870633D01*
X103843483Y-118813433D01*
X103843492Y-118813429D01*
X104057578Y-118713600D01*
X104251082Y-118578105D01*
X104418105Y-118411082D01*
X104548425Y-118224968D01*
X104603002Y-118181344D01*
X104672501Y-118174151D01*
X104734855Y-118205673D01*
X104751575Y-118224968D01*
X104881894Y-118411082D01*
X105048917Y-118578105D01*
X105242421Y-118713600D01*
X105456507Y-118813429D01*
X105456516Y-118813433D01*
X105670000Y-118870634D01*
X105670000Y-117975501D01*
X105777685Y-118024680D01*
X105884237Y-118040000D01*
X105955763Y-118040000D01*
X106062315Y-118024680D01*
X106170000Y-117975501D01*
X106170000Y-118870633D01*
X106383483Y-118813433D01*
X106383492Y-118813429D01*
X106597578Y-118713600D01*
X106791082Y-118578105D01*
X106958105Y-118411082D01*
X107088425Y-118224968D01*
X107143002Y-118181344D01*
X107212501Y-118174151D01*
X107274855Y-118205673D01*
X107291575Y-118224968D01*
X107421894Y-118411082D01*
X107588917Y-118578105D01*
X107782421Y-118713600D01*
X107996507Y-118813429D01*
X107996516Y-118813433D01*
X108210000Y-118870634D01*
X108210000Y-117975501D01*
X108317685Y-118024680D01*
X108424237Y-118040000D01*
X108495763Y-118040000D01*
X108602315Y-118024680D01*
X108710000Y-117975501D01*
X108710000Y-118870633D01*
X108923483Y-118813433D01*
X108923492Y-118813429D01*
X109137578Y-118713600D01*
X109331082Y-118578105D01*
X109498105Y-118411082D01*
X109628425Y-118224968D01*
X109683002Y-118181344D01*
X109752501Y-118174151D01*
X109814855Y-118205673D01*
X109831575Y-118224968D01*
X109961894Y-118411082D01*
X110128917Y-118578105D01*
X110322421Y-118713600D01*
X110536507Y-118813429D01*
X110536516Y-118813433D01*
X110750000Y-118870634D01*
X110750000Y-117975501D01*
X110857685Y-118024680D01*
X110964237Y-118040000D01*
X111035763Y-118040000D01*
X111142315Y-118024680D01*
X111250000Y-117975501D01*
X111250000Y-118870633D01*
X111463483Y-118813433D01*
X111463492Y-118813429D01*
X111677578Y-118713600D01*
X111871082Y-118578105D01*
X112038105Y-118411082D01*
X112173600Y-118217578D01*
X112273429Y-118003492D01*
X112273432Y-118003486D01*
X112330636Y-117790000D01*
X111433686Y-117790000D01*
X111459493Y-117749844D01*
X111500000Y-117611889D01*
X111500000Y-117468111D01*
X111459493Y-117330156D01*
X111433686Y-117290000D01*
X112330636Y-117290000D01*
X112330635Y-117289999D01*
X112273432Y-117076513D01*
X112273429Y-117076507D01*
X112173600Y-116862422D01*
X112173599Y-116862420D01*
X112038113Y-116668926D01*
X112038108Y-116668920D01*
X111916053Y-116546865D01*
X111882568Y-116485542D01*
X111887552Y-116415850D01*
X111929424Y-116359917D01*
X111960400Y-116343002D01*
X112092331Y-116293796D01*
X112207546Y-116207546D01*
X112293796Y-116092331D01*
X112302959Y-116067763D01*
X116145787Y-116067763D01*
X116175413Y-116337013D01*
X116175415Y-116337024D01*
X116214243Y-116485542D01*
X116243928Y-116599088D01*
X116349870Y-116848390D01*
X116421998Y-116966575D01*
X116490979Y-117079605D01*
X116490986Y-117079615D01*
X116664253Y-117287819D01*
X116664259Y-117287824D01*
X116666688Y-117290000D01*
X116865998Y-117468582D01*
X117091910Y-117618044D01*
X117337176Y-117733020D01*
X117337183Y-117733022D01*
X117337185Y-117733023D01*
X117596557Y-117811057D01*
X117596564Y-117811058D01*
X117596569Y-117811060D01*
X117864561Y-117850500D01*
X117864566Y-117850500D01*
X118067636Y-117850500D01*
X118119133Y-117846730D01*
X118270156Y-117835677D01*
X118382758Y-117810593D01*
X118534546Y-117776782D01*
X118534548Y-117776781D01*
X118534553Y-117776780D01*
X118787558Y-117680014D01*
X119023777Y-117547441D01*
X119238177Y-117381888D01*
X119426186Y-117186881D01*
X119583799Y-116966579D01*
X119657787Y-116822669D01*
X119707649Y-116725690D01*
X119707651Y-116725684D01*
X119707656Y-116725675D01*
X119795118Y-116469305D01*
X119844319Y-116202933D01*
X119854212Y-115932235D01*
X119824586Y-115662982D01*
X119756072Y-115400912D01*
X119650130Y-115151610D01*
X119509018Y-114920390D01*
X119419747Y-114813119D01*
X119335746Y-114712180D01*
X119335740Y-114712175D01*
X119134002Y-114531418D01*
X118908092Y-114381957D01*
X118908090Y-114381956D01*
X118662824Y-114266980D01*
X118662819Y-114266978D01*
X118662814Y-114266976D01*
X118403442Y-114188942D01*
X118403428Y-114188939D01*
X118287791Y-114171921D01*
X118135439Y-114149500D01*
X117932369Y-114149500D01*
X117932364Y-114149500D01*
X117729844Y-114164323D01*
X117729831Y-114164325D01*
X117465453Y-114223217D01*
X117465446Y-114223220D01*
X117212439Y-114319987D01*
X116976226Y-114452557D01*
X116761822Y-114618112D01*
X116573822Y-114813109D01*
X116573816Y-114813116D01*
X116416202Y-115033419D01*
X116416199Y-115033424D01*
X116292350Y-115274309D01*
X116292343Y-115274327D01*
X116204884Y-115530685D01*
X116204881Y-115530699D01*
X116155681Y-115797068D01*
X116155680Y-115797075D01*
X116145787Y-116067763D01*
X112302959Y-116067763D01*
X112344091Y-115957483D01*
X112350500Y-115897873D01*
X112350499Y-114102128D01*
X112344091Y-114042517D01*
X112342810Y-114039083D01*
X112293797Y-113907671D01*
X112293793Y-113907664D01*
X112207547Y-113792455D01*
X112207544Y-113792452D01*
X112092335Y-113706206D01*
X112092328Y-113706202D01*
X111957482Y-113655908D01*
X111957483Y-113655908D01*
X111897883Y-113649501D01*
X111897881Y-113649500D01*
X111897873Y-113649500D01*
X111897864Y-113649500D01*
X110102129Y-113649500D01*
X110102123Y-113649501D01*
X110042516Y-113655908D01*
X109907671Y-113706202D01*
X109907664Y-113706206D01*
X109792455Y-113792452D01*
X109792452Y-113792455D01*
X109706206Y-113907664D01*
X109706203Y-113907669D01*
X109657189Y-114039083D01*
X109615317Y-114095016D01*
X109549853Y-114119433D01*
X109481580Y-114104581D01*
X109453326Y-114083430D01*
X109331402Y-113961506D01*
X109331395Y-113961501D01*
X109137834Y-113825967D01*
X109137831Y-113825965D01*
X109137830Y-113825965D01*
X109071293Y-113794938D01*
X109018854Y-113748765D01*
X108999702Y-113681571D01*
X109019918Y-113614690D01*
X109073084Y-113569356D01*
X109080366Y-113566374D01*
X109142084Y-113543355D01*
X109142093Y-113543350D01*
X109257187Y-113457190D01*
X109257190Y-113457187D01*
X109343350Y-113342093D01*
X109343354Y-113342086D01*
X109393596Y-113207379D01*
X109393598Y-113207372D01*
X109399999Y-113147844D01*
X109400000Y-113147827D01*
X109400000Y-112450000D01*
X108375278Y-112450000D01*
X108423625Y-112366260D01*
X108453810Y-112234008D01*
X108443673Y-112098735D01*
X108394113Y-111972459D01*
X108376203Y-111950000D01*
X109400000Y-111950000D01*
X109400000Y-111252172D01*
X109399999Y-111252155D01*
X109393598Y-111192627D01*
X109393596Y-111192620D01*
X109343354Y-111057913D01*
X109343350Y-111057906D01*
X109257190Y-110942812D01*
X109257187Y-110942809D01*
X109142093Y-110856649D01*
X109142086Y-110856645D01*
X109061729Y-110826674D01*
X109005795Y-110784803D01*
X108981378Y-110719338D01*
X108996230Y-110651065D01*
X109013826Y-110626516D01*
X109108979Y-110523153D01*
X109235924Y-110328849D01*
X109329157Y-110116300D01*
X109386134Y-109891305D01*
X109399085Y-109735006D01*
X109405300Y-109660006D01*
X109405300Y-109659993D01*
X109386135Y-109428702D01*
X109386133Y-109428691D01*
X109329157Y-109203699D01*
X109235924Y-108991151D01*
X109108983Y-108796852D01*
X109108980Y-108796849D01*
X109108979Y-108796847D01*
X108951784Y-108626087D01*
X108951779Y-108626083D01*
X108951777Y-108626081D01*
X108768634Y-108483535D01*
X108768628Y-108483531D01*
X108564504Y-108373064D01*
X108564495Y-108373061D01*
X108344984Y-108297702D01*
X108173282Y-108269050D01*
X108116049Y-108259500D01*
X107883951Y-108259500D01*
X107838164Y-108267140D01*
X107655015Y-108297702D01*
X107435504Y-108373061D01*
X107435495Y-108373064D01*
X107231371Y-108483531D01*
X107231365Y-108483535D01*
X107048222Y-108626081D01*
X107048219Y-108626084D01*
X106891016Y-108796852D01*
X106764075Y-108991151D01*
X106670842Y-109203699D01*
X106613866Y-109428691D01*
X106613864Y-109428702D01*
X106594700Y-109659993D01*
X106594700Y-109660006D01*
X106613864Y-109891297D01*
X106613866Y-109891308D01*
X106670842Y-110116300D01*
X106764075Y-110328848D01*
X106891018Y-110523150D01*
X106986167Y-110626510D01*
X107017089Y-110689164D01*
X107009228Y-110758590D01*
X106965081Y-110812746D01*
X106938271Y-110826674D01*
X106857911Y-110856646D01*
X106857906Y-110856649D01*
X106742812Y-110942809D01*
X106742809Y-110942812D01*
X106656649Y-111057906D01*
X106656645Y-111057913D01*
X106606403Y-111192620D01*
X106606401Y-111192627D01*
X106600000Y-111252155D01*
X106600000Y-111950000D01*
X107624722Y-111950000D01*
X107576375Y-112033740D01*
X107546190Y-112165992D01*
X107556327Y-112301265D01*
X107605887Y-112427541D01*
X107623797Y-112450000D01*
X106600000Y-112450000D01*
X106600000Y-113147844D01*
X106606401Y-113207372D01*
X106606403Y-113207379D01*
X106656645Y-113342086D01*
X106656649Y-113342093D01*
X106742809Y-113457187D01*
X106742812Y-113457190D01*
X106857906Y-113543350D01*
X106857913Y-113543354D01*
X106992620Y-113593596D01*
X106992627Y-113593598D01*
X107052155Y-113599999D01*
X107052172Y-113600000D01*
X107711605Y-113600000D01*
X107778644Y-113619685D01*
X107824399Y-113672489D01*
X107834343Y-113741647D01*
X107805318Y-113805203D01*
X107782728Y-113825575D01*
X107588596Y-113961506D01*
X107421505Y-114128597D01*
X107291575Y-114314158D01*
X107236998Y-114357783D01*
X107167500Y-114364977D01*
X107105145Y-114333454D01*
X107088425Y-114314158D01*
X106958494Y-114128597D01*
X106791402Y-113961506D01*
X106791395Y-113961501D01*
X106597834Y-113825967D01*
X106597830Y-113825965D01*
X106553306Y-113805203D01*
X106383663Y-113726097D01*
X106383659Y-113726096D01*
X106383655Y-113726094D01*
X106155413Y-113664938D01*
X106155403Y-113664936D01*
X105920001Y-113644341D01*
X105919999Y-113644341D01*
X105684596Y-113664936D01*
X105684586Y-113664938D01*
X105456344Y-113726094D01*
X105456335Y-113726098D01*
X105242171Y-113825964D01*
X105242169Y-113825965D01*
X105048597Y-113961505D01*
X104881505Y-114128597D01*
X104751575Y-114314158D01*
X104696998Y-114357783D01*
X104627500Y-114364977D01*
X104565145Y-114333454D01*
X104548425Y-114314158D01*
X104418494Y-114128597D01*
X104251402Y-113961506D01*
X104251395Y-113961501D01*
X104057834Y-113825967D01*
X104057830Y-113825965D01*
X104013306Y-113805203D01*
X103843663Y-113726097D01*
X103843659Y-113726096D01*
X103843655Y-113726094D01*
X103615413Y-113664938D01*
X103615403Y-113664936D01*
X103380001Y-113644341D01*
X103379999Y-113644341D01*
X103144596Y-113664936D01*
X103144586Y-113664938D01*
X102916344Y-113726094D01*
X102916335Y-113726098D01*
X102702171Y-113825964D01*
X102702169Y-113825965D01*
X102508597Y-113961505D01*
X102341505Y-114128597D01*
X102211575Y-114314158D01*
X102156998Y-114357783D01*
X102087500Y-114364977D01*
X102025145Y-114333454D01*
X102008425Y-114314158D01*
X101878494Y-114128597D01*
X101711402Y-113961506D01*
X101711395Y-113961501D01*
X101517834Y-113825967D01*
X101517830Y-113825965D01*
X101473306Y-113805203D01*
X101303663Y-113726097D01*
X101303661Y-113726096D01*
X101299946Y-113724364D01*
X101247507Y-113678192D01*
X101228355Y-113610998D01*
X101248571Y-113544117D01*
X101253085Y-113537670D01*
X101343352Y-113417089D01*
X101343354Y-113417086D01*
X101393596Y-113282379D01*
X101393598Y-113282372D01*
X101399999Y-113222844D01*
X101400000Y-113222827D01*
X101400000Y-112525000D01*
X100375278Y-112525000D01*
X100423625Y-112441260D01*
X100453810Y-112309008D01*
X100443673Y-112173735D01*
X100394113Y-112047459D01*
X100376203Y-112025000D01*
X101400000Y-112025000D01*
X101400000Y-111327172D01*
X101399999Y-111327155D01*
X101393598Y-111267627D01*
X101393596Y-111267620D01*
X101343354Y-111132913D01*
X101343350Y-111132906D01*
X101257190Y-111017812D01*
X101257187Y-111017809D01*
X101142093Y-110931649D01*
X101142086Y-110931645D01*
X101061729Y-110901674D01*
X101005795Y-110859803D01*
X100981378Y-110794338D01*
X100996230Y-110726065D01*
X101013826Y-110701516D01*
X101108979Y-110598153D01*
X101235924Y-110403849D01*
X101329157Y-110191300D01*
X101386134Y-109966305D01*
X101386135Y-109966297D01*
X101405300Y-109735006D01*
X101405300Y-109734993D01*
X101386135Y-109503702D01*
X101386133Y-109503691D01*
X101329157Y-109278699D01*
X101235924Y-109066151D01*
X101108983Y-108871852D01*
X101108980Y-108871849D01*
X101108979Y-108871847D01*
X100951784Y-108701087D01*
X100951779Y-108701083D01*
X100951777Y-108701081D01*
X100768634Y-108558535D01*
X100768628Y-108558531D01*
X100564504Y-108448064D01*
X100564495Y-108448061D01*
X100344984Y-108372702D01*
X100173282Y-108344050D01*
X100116049Y-108334500D01*
X99883951Y-108334500D01*
X99838164Y-108342140D01*
X99655015Y-108372702D01*
X99435504Y-108448061D01*
X99435495Y-108448064D01*
X99231371Y-108558531D01*
X99231365Y-108558535D01*
X99048222Y-108701081D01*
X99048219Y-108701084D01*
X98891016Y-108871852D01*
X98764075Y-109066151D01*
X98670842Y-109278699D01*
X98613866Y-109503691D01*
X98613864Y-109503702D01*
X98594700Y-109734993D01*
X98594700Y-109735006D01*
X98613864Y-109966297D01*
X98613866Y-109966308D01*
X98670842Y-110191300D01*
X98764075Y-110403848D01*
X98891018Y-110598150D01*
X98986167Y-110701510D01*
X99017089Y-110764164D01*
X99009228Y-110833590D01*
X98965081Y-110887746D01*
X98938271Y-110901674D01*
X98857911Y-110931646D01*
X98857906Y-110931649D01*
X98742812Y-111017809D01*
X98742809Y-111017812D01*
X98656649Y-111132906D01*
X98656645Y-111132913D01*
X98606403Y-111267620D01*
X98606401Y-111267627D01*
X98600000Y-111327155D01*
X98600000Y-112025000D01*
X99624722Y-112025000D01*
X99576375Y-112108740D01*
X99546190Y-112240992D01*
X99556327Y-112376265D01*
X99605887Y-112502541D01*
X99623797Y-112525000D01*
X98600000Y-112525000D01*
X98600000Y-113222844D01*
X98606401Y-113282372D01*
X98606403Y-113282379D01*
X98656645Y-113417086D01*
X98656646Y-113417088D01*
X98704452Y-113480948D01*
X98728869Y-113546412D01*
X98714018Y-113614685D01*
X98664613Y-113664091D01*
X98596340Y-113678943D01*
X98573093Y-113675034D01*
X98535416Y-113664939D01*
X98535412Y-113664938D01*
X98535408Y-113664937D01*
X98535406Y-113664936D01*
X98535403Y-113664936D01*
X98300001Y-113644341D01*
X98299999Y-113644341D01*
X98064596Y-113664936D01*
X98064586Y-113664938D01*
X97836344Y-113726094D01*
X97836335Y-113726098D01*
X97622171Y-113825964D01*
X97622169Y-113825965D01*
X97428597Y-113961505D01*
X97261505Y-114128597D01*
X97131575Y-114314158D01*
X97076998Y-114357783D01*
X97007500Y-114364977D01*
X96945145Y-114333454D01*
X96928425Y-114314158D01*
X96798494Y-114128597D01*
X96631402Y-113961506D01*
X96631395Y-113961501D01*
X96437834Y-113825967D01*
X96437830Y-113825965D01*
X96393306Y-113805203D01*
X96223663Y-113726097D01*
X96223659Y-113726096D01*
X96223655Y-113726094D01*
X95995413Y-113664938D01*
X95995403Y-113664936D01*
X95760001Y-113644341D01*
X95759999Y-113644341D01*
X95524596Y-113664936D01*
X95524586Y-113664938D01*
X95296344Y-113726094D01*
X95296335Y-113726098D01*
X95082171Y-113825964D01*
X95082169Y-113825965D01*
X94888597Y-113961505D01*
X94721505Y-114128597D01*
X94585965Y-114322169D01*
X94585964Y-114322171D01*
X94486098Y-114536335D01*
X94486094Y-114536344D01*
X94424938Y-114764586D01*
X94424936Y-114764596D01*
X94404341Y-114999999D01*
X94404341Y-115000000D01*
X25557603Y-115000000D01*
X25509018Y-114920390D01*
X25419747Y-114813119D01*
X25335746Y-114712180D01*
X25335740Y-114712175D01*
X25134002Y-114531418D01*
X24908092Y-114381957D01*
X24908090Y-114381956D01*
X24662824Y-114266980D01*
X24662819Y-114266978D01*
X24662814Y-114266976D01*
X24403442Y-114188942D01*
X24403428Y-114188939D01*
X24287791Y-114171921D01*
X24135439Y-114149500D01*
X23932369Y-114149500D01*
X23932364Y-114149500D01*
X23729844Y-114164323D01*
X23729831Y-114164325D01*
X23465453Y-114223217D01*
X23465446Y-114223220D01*
X23212439Y-114319987D01*
X22976226Y-114452557D01*
X22761822Y-114618112D01*
X22573822Y-114813109D01*
X22573816Y-114813116D01*
X22416202Y-115033419D01*
X22416199Y-115033424D01*
X22292350Y-115274309D01*
X22292343Y-115274327D01*
X22204884Y-115530685D01*
X22204881Y-115530699D01*
X22155681Y-115797068D01*
X22155680Y-115797075D01*
X22145787Y-116067763D01*
X20500000Y-116067763D01*
X20500000Y-109660006D01*
X82594700Y-109660006D01*
X82613864Y-109891297D01*
X82613866Y-109891308D01*
X82670842Y-110116300D01*
X82764075Y-110328848D01*
X82891018Y-110523150D01*
X82986167Y-110626510D01*
X83017089Y-110689164D01*
X83009228Y-110758590D01*
X82965081Y-110812746D01*
X82938271Y-110826674D01*
X82857911Y-110856646D01*
X82857906Y-110856649D01*
X82742812Y-110942809D01*
X82742809Y-110942812D01*
X82656649Y-111057906D01*
X82656645Y-111057913D01*
X82606403Y-111192620D01*
X82606401Y-111192627D01*
X82600000Y-111252155D01*
X82600000Y-111950000D01*
X83624722Y-111950000D01*
X83576375Y-112033740D01*
X83546190Y-112165992D01*
X83556327Y-112301265D01*
X83605887Y-112427541D01*
X83623797Y-112450000D01*
X82600000Y-112450000D01*
X82600000Y-113147844D01*
X82606401Y-113207372D01*
X82606403Y-113207379D01*
X82656645Y-113342086D01*
X82656649Y-113342093D01*
X82742809Y-113457187D01*
X82742812Y-113457190D01*
X82857906Y-113543350D01*
X82857913Y-113543354D01*
X82992620Y-113593596D01*
X82992627Y-113593598D01*
X83052155Y-113599999D01*
X83052172Y-113600000D01*
X83750000Y-113600000D01*
X83750000Y-112574189D01*
X83802547Y-112610016D01*
X83932173Y-112650000D01*
X84033724Y-112650000D01*
X84134138Y-112634865D01*
X84250000Y-112579068D01*
X84250000Y-113600000D01*
X84947828Y-113600000D01*
X84947844Y-113599999D01*
X85007372Y-113593598D01*
X85007379Y-113593596D01*
X85142086Y-113543354D01*
X85142093Y-113543350D01*
X85257187Y-113457190D01*
X85257190Y-113457187D01*
X85343350Y-113342093D01*
X85343354Y-113342086D01*
X85393596Y-113207379D01*
X85393598Y-113207372D01*
X85399999Y-113147844D01*
X85400000Y-113147827D01*
X85400000Y-112450000D01*
X84375278Y-112450000D01*
X84423625Y-112366260D01*
X84453810Y-112234008D01*
X84443673Y-112098735D01*
X84394113Y-111972459D01*
X84376203Y-111950000D01*
X85400000Y-111950000D01*
X85400000Y-111252172D01*
X85399999Y-111252155D01*
X85393598Y-111192627D01*
X85393596Y-111192620D01*
X85343354Y-111057913D01*
X85343350Y-111057906D01*
X85257190Y-110942812D01*
X85257187Y-110942809D01*
X85142093Y-110856649D01*
X85142086Y-110856645D01*
X85061729Y-110826674D01*
X85005795Y-110784803D01*
X84981378Y-110719338D01*
X84996230Y-110651065D01*
X85013826Y-110626516D01*
X85108979Y-110523153D01*
X85235924Y-110328849D01*
X85329157Y-110116300D01*
X85386134Y-109891305D01*
X85399085Y-109735006D01*
X90594700Y-109735006D01*
X90613864Y-109966297D01*
X90613866Y-109966308D01*
X90670842Y-110191300D01*
X90764075Y-110403848D01*
X90891018Y-110598150D01*
X90986167Y-110701510D01*
X91017089Y-110764164D01*
X91009228Y-110833590D01*
X90965081Y-110887746D01*
X90938271Y-110901674D01*
X90857911Y-110931646D01*
X90857906Y-110931649D01*
X90742812Y-111017809D01*
X90742809Y-111017812D01*
X90656649Y-111132906D01*
X90656645Y-111132913D01*
X90606403Y-111267620D01*
X90606401Y-111267627D01*
X90600000Y-111327155D01*
X90600000Y-112025000D01*
X91624722Y-112025000D01*
X91576375Y-112108740D01*
X91546190Y-112240992D01*
X91556327Y-112376265D01*
X91605887Y-112502541D01*
X91623797Y-112525000D01*
X90600000Y-112525000D01*
X90600000Y-113222844D01*
X90606401Y-113282372D01*
X90606403Y-113282379D01*
X90656645Y-113417086D01*
X90656649Y-113417093D01*
X90742809Y-113532187D01*
X90742812Y-113532190D01*
X90857906Y-113618350D01*
X90857913Y-113618354D01*
X90992620Y-113668596D01*
X90992627Y-113668598D01*
X91052155Y-113674999D01*
X91052172Y-113675000D01*
X91750000Y-113675000D01*
X91750000Y-112649189D01*
X91802547Y-112685016D01*
X91932173Y-112725000D01*
X92033724Y-112725000D01*
X92134138Y-112709865D01*
X92250000Y-112654068D01*
X92250000Y-113675000D01*
X92947828Y-113675000D01*
X92947844Y-113674999D01*
X93007372Y-113668598D01*
X93007379Y-113668596D01*
X93142086Y-113618354D01*
X93142093Y-113618350D01*
X93257187Y-113532190D01*
X93257190Y-113532187D01*
X93343350Y-113417093D01*
X93343354Y-113417086D01*
X93393596Y-113282379D01*
X93393598Y-113282372D01*
X93399999Y-113222844D01*
X93400000Y-113222827D01*
X93400000Y-112525000D01*
X92375278Y-112525000D01*
X92423625Y-112441260D01*
X92453810Y-112309008D01*
X92443673Y-112173735D01*
X92394113Y-112047459D01*
X92376203Y-112025000D01*
X93400000Y-112025000D01*
X93400000Y-111327172D01*
X93399999Y-111327155D01*
X93393598Y-111267627D01*
X93393596Y-111267620D01*
X93343354Y-111132913D01*
X93343350Y-111132906D01*
X93257190Y-111017812D01*
X93257187Y-111017809D01*
X93142093Y-110931649D01*
X93142086Y-110931645D01*
X93061729Y-110901674D01*
X93005795Y-110859803D01*
X92981378Y-110794338D01*
X92996230Y-110726065D01*
X93013826Y-110701516D01*
X93108979Y-110598153D01*
X93235924Y-110403849D01*
X93329157Y-110191300D01*
X93386134Y-109966305D01*
X93386135Y-109966297D01*
X93405300Y-109735006D01*
X93405300Y-109734993D01*
X93386135Y-109503702D01*
X93386133Y-109503691D01*
X93329157Y-109278699D01*
X93235924Y-109066151D01*
X93108983Y-108871852D01*
X93108980Y-108871849D01*
X93108979Y-108871847D01*
X92951784Y-108701087D01*
X92951779Y-108701083D01*
X92951777Y-108701081D01*
X92768634Y-108558535D01*
X92768628Y-108558531D01*
X92564504Y-108448064D01*
X92564495Y-108448061D01*
X92344984Y-108372702D01*
X92173282Y-108344050D01*
X92116049Y-108334500D01*
X91883951Y-108334500D01*
X91838164Y-108342140D01*
X91655015Y-108372702D01*
X91435504Y-108448061D01*
X91435495Y-108448064D01*
X91231371Y-108558531D01*
X91231365Y-108558535D01*
X91048222Y-108701081D01*
X91048219Y-108701084D01*
X90891016Y-108871852D01*
X90764075Y-109066151D01*
X90670842Y-109278699D01*
X90613866Y-109503691D01*
X90613864Y-109503702D01*
X90594700Y-109734993D01*
X90594700Y-109735006D01*
X85399085Y-109735006D01*
X85405300Y-109660006D01*
X85405300Y-109659993D01*
X85386135Y-109428702D01*
X85386133Y-109428691D01*
X85329157Y-109203699D01*
X85235924Y-108991151D01*
X85108983Y-108796852D01*
X85108980Y-108796849D01*
X85108979Y-108796847D01*
X84951784Y-108626087D01*
X84951779Y-108626083D01*
X84951777Y-108626081D01*
X84768634Y-108483535D01*
X84768628Y-108483531D01*
X84564504Y-108373064D01*
X84564495Y-108373061D01*
X84344984Y-108297702D01*
X84173282Y-108269050D01*
X84116049Y-108259500D01*
X83883951Y-108259500D01*
X83838164Y-108267140D01*
X83655015Y-108297702D01*
X83435504Y-108373061D01*
X83435495Y-108373064D01*
X83231371Y-108483531D01*
X83231365Y-108483535D01*
X83048222Y-108626081D01*
X83048219Y-108626084D01*
X82891016Y-108796852D01*
X82764075Y-108991151D01*
X82670842Y-109203699D01*
X82613866Y-109428691D01*
X82613864Y-109428702D01*
X82594700Y-109659993D01*
X82594700Y-109660006D01*
X20500000Y-109660006D01*
X20500000Y-104671187D01*
X20749500Y-104671187D01*
X20769794Y-104805823D01*
X20788604Y-104930615D01*
X20788605Y-104930617D01*
X20788606Y-104930623D01*
X20865938Y-105181326D01*
X20979767Y-105417696D01*
X20979768Y-105417697D01*
X20979770Y-105417700D01*
X20979772Y-105417704D01*
X21127567Y-105634479D01*
X21306014Y-105826801D01*
X21306018Y-105826804D01*
X21306019Y-105826805D01*
X21511143Y-105990386D01*
X21738357Y-106121568D01*
X21982584Y-106217420D01*
X22238370Y-106275802D01*
X22238376Y-106275802D01*
X22238379Y-106275803D01*
X22434500Y-106290500D01*
X22434506Y-106290500D01*
X22565500Y-106290500D01*
X22761620Y-106275803D01*
X22761622Y-106275802D01*
X22761630Y-106275802D01*
X23017416Y-106217420D01*
X23261643Y-106121568D01*
X23488857Y-105990386D01*
X23693981Y-105826805D01*
X23872433Y-105634479D01*
X24020228Y-105417704D01*
X24134063Y-105181323D01*
X24211396Y-104930615D01*
X24250499Y-104671187D01*
X117749500Y-104671187D01*
X117769794Y-104805823D01*
X117788604Y-104930615D01*
X117788605Y-104930617D01*
X117788606Y-104930623D01*
X117865938Y-105181326D01*
X117979767Y-105417696D01*
X117979768Y-105417697D01*
X117979770Y-105417700D01*
X117979772Y-105417704D01*
X118127567Y-105634479D01*
X118306014Y-105826801D01*
X118306018Y-105826804D01*
X118306019Y-105826805D01*
X118511143Y-105990386D01*
X118738357Y-106121568D01*
X118982584Y-106217420D01*
X119238370Y-106275802D01*
X119238376Y-106275802D01*
X119238379Y-106275803D01*
X119434500Y-106290500D01*
X119434506Y-106290500D01*
X119565500Y-106290500D01*
X119761620Y-106275803D01*
X119761622Y-106275802D01*
X119761630Y-106275802D01*
X120017416Y-106217420D01*
X120261643Y-106121568D01*
X120488857Y-105990386D01*
X120693981Y-105826805D01*
X120872433Y-105634479D01*
X121020228Y-105417704D01*
X121134063Y-105181323D01*
X121211396Y-104930615D01*
X121250500Y-104671182D01*
X121250500Y-104408818D01*
X121211396Y-104149385D01*
X121134063Y-103898677D01*
X121122121Y-103873880D01*
X121020232Y-103662303D01*
X121020231Y-103662302D01*
X121020230Y-103662301D01*
X121020228Y-103662296D01*
X120872433Y-103445521D01*
X120862441Y-103434753D01*
X120693985Y-103253198D01*
X120654533Y-103221736D01*
X120488857Y-103089614D01*
X120261643Y-102958432D01*
X120017416Y-102862580D01*
X120017411Y-102862578D01*
X120017402Y-102862576D01*
X119799818Y-102812914D01*
X119761630Y-102804198D01*
X119761629Y-102804197D01*
X119761625Y-102804197D01*
X119761620Y-102804196D01*
X119565500Y-102789500D01*
X119565494Y-102789500D01*
X119434506Y-102789500D01*
X119434500Y-102789500D01*
X119238379Y-102804196D01*
X119238374Y-102804197D01*
X118982597Y-102862576D01*
X118982578Y-102862582D01*
X118738356Y-102958432D01*
X118511143Y-103089614D01*
X118306014Y-103253198D01*
X118127567Y-103445520D01*
X117979768Y-103662302D01*
X117979767Y-103662303D01*
X117865938Y-103898673D01*
X117788606Y-104149376D01*
X117788605Y-104149381D01*
X117788604Y-104149385D01*
X117773853Y-104247247D01*
X117749500Y-104408812D01*
X117749500Y-104671187D01*
X24250499Y-104671187D01*
X24250500Y-104671182D01*
X24250500Y-104408818D01*
X24211396Y-104149385D01*
X24134063Y-103898677D01*
X24122121Y-103873880D01*
X24020232Y-103662303D01*
X24020231Y-103662302D01*
X24020230Y-103662301D01*
X24020228Y-103662296D01*
X23872433Y-103445521D01*
X23862441Y-103434753D01*
X23693985Y-103253198D01*
X23654533Y-103221736D01*
X23488857Y-103089614D01*
X23261643Y-102958432D01*
X23017416Y-102862580D01*
X23017411Y-102862578D01*
X23017402Y-102862576D01*
X22799818Y-102812914D01*
X22761630Y-102804198D01*
X22761629Y-102804197D01*
X22761625Y-102804197D01*
X22761620Y-102804196D01*
X22565500Y-102789500D01*
X22565494Y-102789500D01*
X22434506Y-102789500D01*
X22434500Y-102789500D01*
X22238379Y-102804196D01*
X22238374Y-102804197D01*
X21982597Y-102862576D01*
X21982578Y-102862582D01*
X21738356Y-102958432D01*
X21511143Y-103089614D01*
X21306014Y-103253198D01*
X21127567Y-103445520D01*
X20979768Y-103662302D01*
X20979767Y-103662303D01*
X20865938Y-103898673D01*
X20788606Y-104149376D01*
X20788605Y-104149381D01*
X20788604Y-104149385D01*
X20773853Y-104247247D01*
X20749500Y-104408812D01*
X20749500Y-104671187D01*
X20500000Y-104671187D01*
X20500000Y-99402502D01*
X102797223Y-99402502D01*
X102816293Y-99620475D01*
X102816293Y-99620479D01*
X102872922Y-99831822D01*
X102872924Y-99831826D01*
X102872925Y-99831830D01*
X102913116Y-99918020D01*
X102965397Y-100030138D01*
X102965398Y-100030139D01*
X103090902Y-100209377D01*
X103245623Y-100364098D01*
X103424860Y-100489601D01*
X103424861Y-100489602D01*
X103576675Y-100560394D01*
X103629114Y-100606566D01*
X103648266Y-100673760D01*
X103628050Y-100740641D01*
X103576675Y-100785158D01*
X103425114Y-100855832D01*
X103425112Y-100855833D01*
X103362928Y-100899375D01*
X103362927Y-100899375D01*
X104008099Y-101544546D01*
X103927352Y-101557335D01*
X103814455Y-101614859D01*
X103724859Y-101704455D01*
X103667335Y-101817352D01*
X103654546Y-101898098D01*
X103009375Y-101252927D01*
X103009375Y-101252928D01*
X102965833Y-101315112D01*
X102965832Y-101315114D01*
X102873398Y-101513340D01*
X102873394Y-101513349D01*
X102816789Y-101724605D01*
X102816787Y-101724615D01*
X102797725Y-101942499D01*
X102797725Y-101942500D01*
X102816787Y-102160384D01*
X102816789Y-102160394D01*
X102873394Y-102371650D01*
X102873398Y-102371659D01*
X102965835Y-102569891D01*
X103009373Y-102632071D01*
X103009375Y-102632072D01*
X103654546Y-101986900D01*
X103667335Y-102067648D01*
X103724859Y-102180545D01*
X103814455Y-102270141D01*
X103927352Y-102327665D01*
X104008099Y-102340453D01*
X103362926Y-102985624D01*
X103425111Y-103029166D01*
X103425113Y-103029167D01*
X103623340Y-103121601D01*
X103623349Y-103121605D01*
X103834605Y-103178210D01*
X103834615Y-103178212D01*
X104052499Y-103197275D01*
X104052501Y-103197275D01*
X104270384Y-103178212D01*
X104270394Y-103178210D01*
X104481650Y-103121605D01*
X104481659Y-103121601D01*
X104679887Y-103029166D01*
X104742072Y-102985624D01*
X104096901Y-102340453D01*
X104177648Y-102327665D01*
X104290545Y-102270141D01*
X104380141Y-102180545D01*
X104437665Y-102067648D01*
X104450453Y-101986900D01*
X105095624Y-102632072D01*
X105139166Y-102569887D01*
X105231601Y-102371659D01*
X105231605Y-102371650D01*
X105288210Y-102160394D01*
X105288212Y-102160384D01*
X105307275Y-101942500D01*
X105307275Y-101942499D01*
X105288212Y-101724615D01*
X105288210Y-101724605D01*
X105231605Y-101513349D01*
X105231601Y-101513340D01*
X105139168Y-101315115D01*
X105095623Y-101252928D01*
X104450453Y-101898098D01*
X104437665Y-101817352D01*
X104380141Y-101704455D01*
X104290545Y-101614859D01*
X104177648Y-101557335D01*
X104096901Y-101544546D01*
X104497760Y-101143687D01*
X110262000Y-101143687D01*
X110282294Y-101278323D01*
X110301104Y-101403115D01*
X110301105Y-101403117D01*
X110301106Y-101403123D01*
X110378438Y-101653826D01*
X110492267Y-101890196D01*
X110492268Y-101890197D01*
X110492270Y-101890200D01*
X110492272Y-101890204D01*
X110527927Y-101942500D01*
X110640067Y-102106979D01*
X110818514Y-102299301D01*
X110818518Y-102299304D01*
X110818519Y-102299305D01*
X111023643Y-102462886D01*
X111250857Y-102594068D01*
X111495084Y-102689920D01*
X111750870Y-102748302D01*
X111750876Y-102748302D01*
X111750879Y-102748303D01*
X111947000Y-102763000D01*
X111947006Y-102763000D01*
X112078000Y-102763000D01*
X112274120Y-102748303D01*
X112274122Y-102748302D01*
X112274130Y-102748302D01*
X112529916Y-102689920D01*
X112774143Y-102594068D01*
X113001357Y-102462886D01*
X113206481Y-102299305D01*
X113209499Y-102296053D01*
X113246445Y-102256233D01*
X113384933Y-102106979D01*
X113532728Y-101890204D01*
X113646563Y-101653823D01*
X113723896Y-101403115D01*
X113763000Y-101143682D01*
X113763000Y-100881318D01*
X113723896Y-100621885D01*
X113646563Y-100371177D01*
X113634621Y-100346380D01*
X113532732Y-100134803D01*
X113532731Y-100134802D01*
X113532730Y-100134801D01*
X113532728Y-100134796D01*
X113384933Y-99918021D01*
X113304960Y-99831830D01*
X113206485Y-99725698D01*
X113074544Y-99620479D01*
X113001357Y-99562114D01*
X112774143Y-99430932D01*
X112529916Y-99335080D01*
X112529911Y-99335078D01*
X112529902Y-99335076D01*
X112312318Y-99285414D01*
X112274130Y-99276698D01*
X112274129Y-99276697D01*
X112274125Y-99276697D01*
X112274120Y-99276696D01*
X112078000Y-99262000D01*
X112077994Y-99262000D01*
X111947006Y-99262000D01*
X111947000Y-99262000D01*
X111750879Y-99276696D01*
X111750874Y-99276697D01*
X111495097Y-99335076D01*
X111495078Y-99335082D01*
X111250856Y-99430932D01*
X111023643Y-99562114D01*
X110818514Y-99725698D01*
X110640067Y-99918020D01*
X110492268Y-100134802D01*
X110492267Y-100134803D01*
X110378438Y-100371173D01*
X110301106Y-100621876D01*
X110301105Y-100621881D01*
X110301104Y-100621885D01*
X110295694Y-100657777D01*
X110262000Y-100881312D01*
X110262000Y-101143687D01*
X104497760Y-101143687D01*
X104742072Y-100899375D01*
X104742071Y-100899373D01*
X104679891Y-100855835D01*
X104528324Y-100785158D01*
X104475885Y-100738986D01*
X104456733Y-100671792D01*
X104476949Y-100604911D01*
X104528322Y-100560395D01*
X104680139Y-100489602D01*
X104859377Y-100364098D01*
X105014098Y-100209377D01*
X105139602Y-100030139D01*
X105232075Y-99831830D01*
X105288707Y-99620477D01*
X105307777Y-99402500D01*
X105288707Y-99184523D01*
X105232075Y-98973170D01*
X105139602Y-98774862D01*
X105139600Y-98774859D01*
X105139599Y-98774857D01*
X105014099Y-98595624D01*
X105014096Y-98595621D01*
X104859377Y-98440902D01*
X104680139Y-98315398D01*
X104528914Y-98244881D01*
X104476477Y-98198710D01*
X104457325Y-98131516D01*
X104477541Y-98064635D01*
X104528914Y-98020118D01*
X104680139Y-97949602D01*
X104859377Y-97824098D01*
X105014098Y-97669377D01*
X105139602Y-97490139D01*
X105232075Y-97291830D01*
X105288707Y-97080477D01*
X105307777Y-96862500D01*
X105288707Y-96644523D01*
X105232075Y-96433170D01*
X105139602Y-96234862D01*
X105139600Y-96234859D01*
X105139599Y-96234857D01*
X105014099Y-96055624D01*
X104960737Y-96002262D01*
X104859377Y-95900902D01*
X104680139Y-95775398D01*
X104528914Y-95704881D01*
X104476477Y-95658710D01*
X104457325Y-95591516D01*
X104477541Y-95524635D01*
X104528914Y-95480118D01*
X104680139Y-95409602D01*
X104859377Y-95284098D01*
X105014098Y-95129377D01*
X105139602Y-94950139D01*
X105232075Y-94751830D01*
X105288707Y-94540477D01*
X105307777Y-94322500D01*
X105307623Y-94320745D01*
X105292727Y-94150478D01*
X105288707Y-94104523D01*
X105236301Y-93908941D01*
X105232077Y-93893177D01*
X105232076Y-93893176D01*
X105232075Y-93893170D01*
X105139602Y-93694862D01*
X105139600Y-93694859D01*
X105139599Y-93694857D01*
X105014099Y-93515624D01*
X105014096Y-93515621D01*
X104859377Y-93360902D01*
X104680139Y-93235398D01*
X104680140Y-93235398D01*
X104680138Y-93235397D01*
X104528324Y-93164605D01*
X104475885Y-93118432D01*
X104456733Y-93051239D01*
X104476949Y-92984358D01*
X104528325Y-92939841D01*
X104679884Y-92869168D01*
X104679886Y-92869167D01*
X104742072Y-92825624D01*
X104096901Y-92180453D01*
X104177648Y-92167665D01*
X104290545Y-92110141D01*
X104380141Y-92020545D01*
X104437665Y-91907648D01*
X104450453Y-91826900D01*
X105095624Y-92472072D01*
X105139166Y-92409887D01*
X105231601Y-92211659D01*
X105231605Y-92211650D01*
X105288210Y-92000394D01*
X105288212Y-92000384D01*
X105307275Y-91782500D01*
X105307275Y-91782499D01*
X105288212Y-91564615D01*
X105288210Y-91564605D01*
X105231605Y-91353349D01*
X105231601Y-91353340D01*
X105139168Y-91155115D01*
X105095623Y-91092928D01*
X104450453Y-91738098D01*
X104437665Y-91657352D01*
X104380141Y-91544455D01*
X104290545Y-91454859D01*
X104177648Y-91397335D01*
X104096901Y-91384546D01*
X104742072Y-90739375D01*
X104742071Y-90739373D01*
X104679891Y-90695835D01*
X104528324Y-90625158D01*
X104475885Y-90578986D01*
X104465824Y-90543687D01*
X110262000Y-90543687D01*
X110277906Y-90649211D01*
X110301104Y-90803115D01*
X110301105Y-90803117D01*
X110301106Y-90803123D01*
X110378438Y-91053826D01*
X110492267Y-91290196D01*
X110492268Y-91290197D01*
X110492270Y-91290200D01*
X110492272Y-91290204D01*
X110565313Y-91397335D01*
X110640067Y-91506979D01*
X110818514Y-91699301D01*
X110818518Y-91699304D01*
X110818519Y-91699305D01*
X111023643Y-91862886D01*
X111250857Y-91994068D01*
X111495084Y-92089920D01*
X111750870Y-92148302D01*
X111750876Y-92148302D01*
X111750879Y-92148303D01*
X111947000Y-92163000D01*
X111947006Y-92163000D01*
X112078000Y-92163000D01*
X112274120Y-92148303D01*
X112274122Y-92148302D01*
X112274130Y-92148302D01*
X112529916Y-92089920D01*
X112774143Y-91994068D01*
X113001357Y-91862886D01*
X113206481Y-91699305D01*
X113384933Y-91506979D01*
X113532728Y-91290204D01*
X113646563Y-91053823D01*
X113723896Y-90803115D01*
X113763000Y-90543682D01*
X113763000Y-90281318D01*
X113723896Y-90021885D01*
X113646563Y-89771177D01*
X113563899Y-89599523D01*
X113532732Y-89534803D01*
X113532731Y-89534802D01*
X113532730Y-89534801D01*
X113532728Y-89534796D01*
X113384933Y-89318021D01*
X113321818Y-89249999D01*
X113206485Y-89125698D01*
X113137576Y-89070745D01*
X113001357Y-88962114D01*
X112774143Y-88830932D01*
X112529916Y-88735080D01*
X112529911Y-88735078D01*
X112529902Y-88735076D01*
X112312318Y-88685414D01*
X112274130Y-88676698D01*
X112274129Y-88676697D01*
X112274125Y-88676697D01*
X112274120Y-88676696D01*
X112078000Y-88662000D01*
X112077994Y-88662000D01*
X111947006Y-88662000D01*
X111947000Y-88662000D01*
X111750879Y-88676696D01*
X111750874Y-88676697D01*
X111495097Y-88735076D01*
X111495078Y-88735082D01*
X111250856Y-88830932D01*
X111023643Y-88962114D01*
X110818514Y-89125698D01*
X110640067Y-89318020D01*
X110492268Y-89534802D01*
X110492267Y-89534803D01*
X110378438Y-89771173D01*
X110301106Y-90021876D01*
X110301105Y-90021881D01*
X110301104Y-90021885D01*
X110286353Y-90119747D01*
X110262000Y-90281312D01*
X110262000Y-90543687D01*
X104465824Y-90543687D01*
X104456733Y-90511792D01*
X104476949Y-90444911D01*
X104528322Y-90400395D01*
X104680139Y-90329602D01*
X104859377Y-90204098D01*
X105014098Y-90049377D01*
X105139602Y-89870139D01*
X105232075Y-89671830D01*
X105288707Y-89460477D01*
X105307777Y-89242500D01*
X105288707Y-89024523D01*
X105232075Y-88813170D01*
X105139602Y-88614862D01*
X105139600Y-88614859D01*
X105139599Y-88614857D01*
X105014099Y-88435624D01*
X104947908Y-88369433D01*
X104859377Y-88280902D01*
X104714202Y-88179249D01*
X104680138Y-88155397D01*
X104580984Y-88109161D01*
X104481830Y-88062925D01*
X104481826Y-88062924D01*
X104481822Y-88062922D01*
X104270477Y-88006293D01*
X104052502Y-87987223D01*
X104052498Y-87987223D01*
X103907182Y-87999936D01*
X103834523Y-88006293D01*
X103834520Y-88006293D01*
X103623177Y-88062922D01*
X103623168Y-88062926D01*
X103424861Y-88155398D01*
X103424857Y-88155400D01*
X103245621Y-88280902D01*
X103090902Y-88435621D01*
X102965400Y-88614857D01*
X102965398Y-88614861D01*
X102872926Y-88813168D01*
X102872922Y-88813177D01*
X102816293Y-89024520D01*
X102816293Y-89024524D01*
X102807442Y-89125698D01*
X102797223Y-89242500D01*
X102813561Y-89429254D01*
X102816293Y-89460475D01*
X102816293Y-89460479D01*
X102872922Y-89671822D01*
X102872924Y-89671826D01*
X102872925Y-89671830D01*
X102892432Y-89713663D01*
X102965397Y-89870138D01*
X102965398Y-89870139D01*
X103090902Y-90049377D01*
X103245623Y-90204098D01*
X103424860Y-90329601D01*
X103424861Y-90329602D01*
X103576675Y-90400394D01*
X103629114Y-90446566D01*
X103648266Y-90513760D01*
X103628050Y-90580641D01*
X103576675Y-90625158D01*
X103425114Y-90695832D01*
X103425112Y-90695833D01*
X103362928Y-90739375D01*
X103362927Y-90739375D01*
X104008099Y-91384546D01*
X103927352Y-91397335D01*
X103814455Y-91454859D01*
X103724859Y-91544455D01*
X103667335Y-91657352D01*
X103654546Y-91738098D01*
X103009375Y-91092927D01*
X103009375Y-91092928D01*
X102965833Y-91155112D01*
X102965832Y-91155114D01*
X102873398Y-91353340D01*
X102873394Y-91353349D01*
X102816789Y-91564605D01*
X102816787Y-91564615D01*
X102797725Y-91782499D01*
X102797725Y-91782500D01*
X102816787Y-92000384D01*
X102816789Y-92000394D01*
X102873394Y-92211650D01*
X102873398Y-92211659D01*
X102965835Y-92409891D01*
X103009373Y-92472071D01*
X103009375Y-92472072D01*
X103654546Y-91826900D01*
X103667335Y-91907648D01*
X103724859Y-92020545D01*
X103814455Y-92110141D01*
X103927352Y-92167665D01*
X104008099Y-92180453D01*
X103362926Y-92825624D01*
X103425111Y-92869166D01*
X103425117Y-92869169D01*
X103576674Y-92939841D01*
X103629114Y-92986013D01*
X103648266Y-93053206D01*
X103628051Y-93120088D01*
X103576676Y-93164605D01*
X103424858Y-93235400D01*
X103424857Y-93235400D01*
X103245621Y-93360902D01*
X103090902Y-93515621D01*
X102965400Y-93694857D01*
X102965398Y-93694861D01*
X102872926Y-93893168D01*
X102872922Y-93893177D01*
X102816293Y-94104520D01*
X102816293Y-94104524D01*
X102797377Y-94320745D01*
X102797223Y-94322500D01*
X102812751Y-94499996D01*
X102816293Y-94540475D01*
X102816293Y-94540479D01*
X102872922Y-94751822D01*
X102872924Y-94751826D01*
X102872925Y-94751830D01*
X102918480Y-94849522D01*
X102965397Y-94950138D01*
X102965398Y-94950139D01*
X103090902Y-95129377D01*
X103245623Y-95284098D01*
X103424860Y-95409601D01*
X103424861Y-95409602D01*
X103576083Y-95480118D01*
X103628522Y-95526290D01*
X103647674Y-95593484D01*
X103627458Y-95660365D01*
X103576083Y-95704882D01*
X103424861Y-95775398D01*
X103424857Y-95775400D01*
X103245621Y-95900902D01*
X103090902Y-96055621D01*
X102965400Y-96234857D01*
X102965398Y-96234861D01*
X102872926Y-96433168D01*
X102872922Y-96433177D01*
X102816293Y-96644520D01*
X102816293Y-96644524D01*
X102797223Y-96862497D01*
X102797223Y-96862502D01*
X102816293Y-97080475D01*
X102816293Y-97080479D01*
X102872922Y-97291822D01*
X102872924Y-97291826D01*
X102872925Y-97291830D01*
X102919161Y-97390984D01*
X102965397Y-97490138D01*
X102965398Y-97490139D01*
X103090902Y-97669377D01*
X103245623Y-97824098D01*
X103424860Y-97949601D01*
X103424861Y-97949602D01*
X103576083Y-98020118D01*
X103628522Y-98066290D01*
X103647674Y-98133484D01*
X103627458Y-98200365D01*
X103576083Y-98244882D01*
X103424861Y-98315398D01*
X103424857Y-98315400D01*
X103245621Y-98440902D01*
X103090902Y-98595621D01*
X102965400Y-98774857D01*
X102965398Y-98774861D01*
X102872926Y-98973168D01*
X102872922Y-98973177D01*
X102816293Y-99184520D01*
X102816293Y-99184524D01*
X102797223Y-99402497D01*
X102797223Y-99402502D01*
X20500000Y-99402502D01*
X20500000Y-95500003D01*
X38144435Y-95500003D01*
X38164630Y-95679249D01*
X38164631Y-95679254D01*
X38224211Y-95849523D01*
X38320184Y-96002262D01*
X38447738Y-96129816D01*
X38600478Y-96225789D01*
X38770745Y-96285368D01*
X38770750Y-96285369D01*
X38949996Y-96305565D01*
X38950000Y-96305565D01*
X38950004Y-96305565D01*
X39129249Y-96285369D01*
X39129252Y-96285368D01*
X39129255Y-96285368D01*
X39299522Y-96225789D01*
X39452262Y-96129816D01*
X39579816Y-96002262D01*
X39675789Y-95849522D01*
X39735368Y-95679255D01*
X39735369Y-95679249D01*
X39755565Y-95500003D01*
X39755565Y-95499996D01*
X39735369Y-95320750D01*
X39735368Y-95320745D01*
X39675788Y-95150476D01*
X39636582Y-95088080D01*
X39579816Y-94997738D01*
X39452262Y-94870184D01*
X39419379Y-94849522D01*
X39299523Y-94774211D01*
X39129254Y-94714631D01*
X39129249Y-94714630D01*
X38950004Y-94694435D01*
X38949996Y-94694435D01*
X38770750Y-94714630D01*
X38770745Y-94714631D01*
X38600476Y-94774211D01*
X38447737Y-94870184D01*
X38320184Y-94997737D01*
X38224211Y-95150476D01*
X38164631Y-95320745D01*
X38164630Y-95320750D01*
X38144435Y-95499996D01*
X38144435Y-95500003D01*
X20500000Y-95500003D01*
X20500000Y-94500003D01*
X39894435Y-94500003D01*
X39914630Y-94679249D01*
X39914631Y-94679254D01*
X39974211Y-94849523D01*
X40037432Y-94950138D01*
X40070184Y-95002262D01*
X40197738Y-95129816D01*
X40350478Y-95225789D01*
X40517101Y-95284093D01*
X40520745Y-95285368D01*
X40520750Y-95285369D01*
X40699996Y-95305565D01*
X40700000Y-95305565D01*
X40700004Y-95305565D01*
X40879249Y-95285369D01*
X40879252Y-95285368D01*
X40879255Y-95285368D01*
X41049522Y-95225789D01*
X41202262Y-95129816D01*
X41329816Y-95002262D01*
X41425789Y-94849522D01*
X41485368Y-94679255D01*
X41501004Y-94540479D01*
X41505565Y-94500003D01*
X41505565Y-94499996D01*
X41485369Y-94320750D01*
X41485368Y-94320745D01*
X41425788Y-94150476D01*
X41329815Y-93997737D01*
X41202262Y-93870184D01*
X41049523Y-93774211D01*
X40922290Y-93729690D01*
X41664748Y-93729690D01*
X41684943Y-93908936D01*
X41684944Y-93908941D01*
X41744524Y-94079210D01*
X41760430Y-94104524D01*
X41840497Y-94231949D01*
X41968051Y-94359503D01*
X42120791Y-94455476D01*
X42248022Y-94499996D01*
X42291058Y-94515055D01*
X42291063Y-94515056D01*
X42470309Y-94535252D01*
X42470313Y-94535252D01*
X42470317Y-94535252D01*
X42649562Y-94515056D01*
X42649565Y-94515055D01*
X42649568Y-94515055D01*
X42819835Y-94455476D01*
X42972575Y-94359503D01*
X43100129Y-94231949D01*
X43196102Y-94079209D01*
X43255681Y-93908942D01*
X43255682Y-93908936D01*
X43275878Y-93729690D01*
X43275878Y-93729683D01*
X43255682Y-93550437D01*
X43255681Y-93550432D01*
X43196101Y-93380163D01*
X43105140Y-93235400D01*
X43100129Y-93227425D01*
X42972575Y-93099871D01*
X42920616Y-93067223D01*
X42819836Y-93003898D01*
X42808696Y-93000000D01*
X90094540Y-93000000D01*
X90114326Y-93188256D01*
X90114327Y-93188259D01*
X90172818Y-93368277D01*
X90172821Y-93368284D01*
X90267467Y-93532216D01*
X90394129Y-93672888D01*
X90547265Y-93784148D01*
X90547270Y-93784151D01*
X90720192Y-93861142D01*
X90720197Y-93861144D01*
X90905354Y-93900500D01*
X90905355Y-93900500D01*
X91094644Y-93900500D01*
X91094646Y-93900500D01*
X91279803Y-93861144D01*
X91452730Y-93784151D01*
X91605871Y-93672888D01*
X91732533Y-93532216D01*
X91827179Y-93368284D01*
X91885674Y-93188256D01*
X91905460Y-93000000D01*
X91885674Y-92811744D01*
X91827179Y-92631716D01*
X91732533Y-92467784D01*
X91605871Y-92327112D01*
X91605870Y-92327111D01*
X91452734Y-92215851D01*
X91452729Y-92215848D01*
X91279807Y-92138857D01*
X91279802Y-92138855D01*
X91134001Y-92107865D01*
X91094646Y-92099500D01*
X90905354Y-92099500D01*
X90899290Y-92100789D01*
X90720197Y-92138855D01*
X90720192Y-92138857D01*
X90547270Y-92215848D01*
X90547265Y-92215851D01*
X90394129Y-92327111D01*
X90267466Y-92467785D01*
X90172821Y-92631715D01*
X90172818Y-92631722D01*
X90114327Y-92811740D01*
X90114326Y-92811744D01*
X90094540Y-93000000D01*
X42808696Y-93000000D01*
X42649567Y-92944318D01*
X42649562Y-92944317D01*
X42470317Y-92924122D01*
X42470309Y-92924122D01*
X42291063Y-92944317D01*
X42291058Y-92944318D01*
X42120789Y-93003898D01*
X41968050Y-93099871D01*
X41840497Y-93227424D01*
X41744524Y-93380163D01*
X41684944Y-93550432D01*
X41684943Y-93550437D01*
X41664748Y-93729683D01*
X41664748Y-93729690D01*
X40922290Y-93729690D01*
X40879254Y-93714631D01*
X40879249Y-93714630D01*
X40700004Y-93694435D01*
X40699996Y-93694435D01*
X40520750Y-93714630D01*
X40520745Y-93714631D01*
X40350476Y-93774211D01*
X40197737Y-93870184D01*
X40070184Y-93997737D01*
X39974211Y-94150476D01*
X39914631Y-94320745D01*
X39914630Y-94320750D01*
X39894435Y-94499996D01*
X39894435Y-94500003D01*
X20500000Y-94500003D01*
X20500000Y-91375003D01*
X37144435Y-91375003D01*
X37164630Y-91554249D01*
X37164631Y-91554254D01*
X37224211Y-91724523D01*
X37260640Y-91782499D01*
X37320184Y-91877262D01*
X37447738Y-92004816D01*
X37472771Y-92020545D01*
X37598426Y-92099500D01*
X37600478Y-92100789D01*
X37736265Y-92148303D01*
X37770745Y-92160368D01*
X37770750Y-92160369D01*
X37949996Y-92180565D01*
X37950000Y-92180565D01*
X37950004Y-92180565D01*
X38129249Y-92160369D01*
X38129252Y-92160368D01*
X38129255Y-92160368D01*
X38299522Y-92100789D01*
X38452262Y-92004816D01*
X38579816Y-91877262D01*
X38675789Y-91724522D01*
X38735368Y-91554255D01*
X38735369Y-91554249D01*
X38755565Y-91375003D01*
X38755565Y-91374996D01*
X38735369Y-91195750D01*
X38735368Y-91195745D01*
X38675788Y-91025476D01*
X38579815Y-90872737D01*
X38452262Y-90745184D01*
X38299523Y-90649211D01*
X38129254Y-90589631D01*
X38129249Y-90589630D01*
X37950004Y-90569435D01*
X37949996Y-90569435D01*
X37770750Y-90589630D01*
X37770745Y-90589631D01*
X37600476Y-90649211D01*
X37447737Y-90745184D01*
X37320184Y-90872737D01*
X37224211Y-91025476D01*
X37164631Y-91195745D01*
X37164630Y-91195750D01*
X37144435Y-91374996D01*
X37144435Y-91375003D01*
X20500000Y-91375003D01*
X20500000Y-89175003D01*
X37469435Y-89175003D01*
X37489630Y-89354249D01*
X37489631Y-89354254D01*
X37549211Y-89524523D01*
X37596337Y-89599523D01*
X37645184Y-89677262D01*
X37772738Y-89804816D01*
X37863080Y-89861582D01*
X37915728Y-89894663D01*
X37925478Y-89900789D01*
X38095745Y-89960368D01*
X38095750Y-89960369D01*
X38274996Y-89980565D01*
X38275000Y-89980565D01*
X38275004Y-89980565D01*
X38454249Y-89960369D01*
X38454252Y-89960368D01*
X38454255Y-89960368D01*
X38624522Y-89900789D01*
X38777262Y-89804816D01*
X38904816Y-89677262D01*
X39000789Y-89524522D01*
X39060368Y-89354255D01*
X39064451Y-89318020D01*
X39072115Y-89250003D01*
X71605491Y-89250003D01*
X71625686Y-89429249D01*
X71625687Y-89429254D01*
X71685267Y-89599523D01*
X71756987Y-89713664D01*
X71781240Y-89752262D01*
X71908794Y-89879816D01*
X71985208Y-89927830D01*
X72036991Y-89960368D01*
X72061534Y-89975789D01*
X72193243Y-90021876D01*
X72231801Y-90035368D01*
X72231806Y-90035369D01*
X72411052Y-90055565D01*
X72411056Y-90055565D01*
X72411060Y-90055565D01*
X72590305Y-90035369D01*
X72590308Y-90035368D01*
X72590311Y-90035368D01*
X72760578Y-89975789D01*
X72913318Y-89879816D01*
X73040872Y-89752262D01*
X73136845Y-89599522D01*
X73196424Y-89429255D01*
X73196425Y-89429249D01*
X73216621Y-89250003D01*
X73216621Y-89250000D01*
X94354341Y-89250000D01*
X94374936Y-89485403D01*
X94374938Y-89485413D01*
X94436094Y-89713655D01*
X94436096Y-89713659D01*
X94436097Y-89713663D01*
X94509063Y-89870138D01*
X94535965Y-89927830D01*
X94535967Y-89927834D01*
X94621073Y-90049377D01*
X94671505Y-90121401D01*
X94838599Y-90288495D01*
X94935384Y-90356265D01*
X95032165Y-90424032D01*
X95032167Y-90424033D01*
X95032170Y-90424035D01*
X95246337Y-90523903D01*
X95474592Y-90585063D01*
X95651034Y-90600500D01*
X95709999Y-90605659D01*
X95710000Y-90605659D01*
X95710001Y-90605659D01*
X95768966Y-90600500D01*
X95945408Y-90585063D01*
X96173663Y-90523903D01*
X96387830Y-90424035D01*
X96581401Y-90288495D01*
X96703329Y-90166566D01*
X96764648Y-90133084D01*
X96834340Y-90138068D01*
X96890274Y-90179939D01*
X96907189Y-90210917D01*
X96956202Y-90342328D01*
X96956206Y-90342335D01*
X97042452Y-90457544D01*
X97042455Y-90457547D01*
X97157664Y-90543793D01*
X97157671Y-90543797D01*
X97292517Y-90594091D01*
X97292516Y-90594091D01*
X97299444Y-90594835D01*
X97352127Y-90600500D01*
X99147872Y-90600499D01*
X99207483Y-90594091D01*
X99342331Y-90543796D01*
X99457546Y-90457546D01*
X99543796Y-90342331D01*
X99594091Y-90207483D01*
X99600500Y-90147873D01*
X99600499Y-88352128D01*
X99594091Y-88292517D01*
X99592810Y-88289083D01*
X99543797Y-88157671D01*
X99543793Y-88157664D01*
X99457547Y-88042455D01*
X99457544Y-88042452D01*
X99342335Y-87956206D01*
X99342328Y-87956202D01*
X99207482Y-87905908D01*
X99207483Y-87905908D01*
X99147883Y-87899501D01*
X99147881Y-87899500D01*
X99147873Y-87899500D01*
X99147864Y-87899500D01*
X97352129Y-87899500D01*
X97352123Y-87899501D01*
X97292516Y-87905908D01*
X97157671Y-87956202D01*
X97157664Y-87956206D01*
X97042455Y-88042452D01*
X97042452Y-88042455D01*
X96956206Y-88157664D01*
X96956203Y-88157669D01*
X96907189Y-88289083D01*
X96865317Y-88345016D01*
X96799853Y-88369433D01*
X96731580Y-88354581D01*
X96703326Y-88333430D01*
X96581402Y-88211506D01*
X96581395Y-88211501D01*
X96387834Y-88075967D01*
X96387830Y-88075965D01*
X96359859Y-88062922D01*
X96173663Y-87976097D01*
X96173659Y-87976096D01*
X96173655Y-87976094D01*
X95945413Y-87914938D01*
X95945403Y-87914936D01*
X95710001Y-87894341D01*
X95709999Y-87894341D01*
X95474596Y-87914936D01*
X95474586Y-87914938D01*
X95246344Y-87976094D01*
X95246335Y-87976098D01*
X95032171Y-88075964D01*
X95032169Y-88075965D01*
X94838597Y-88211505D01*
X94671505Y-88378597D01*
X94535965Y-88572169D01*
X94535964Y-88572171D01*
X94436098Y-88786335D01*
X94436094Y-88786344D01*
X94374938Y-89014586D01*
X94374936Y-89014596D01*
X94354341Y-89249999D01*
X94354341Y-89250000D01*
X73216621Y-89250000D01*
X73216621Y-89249996D01*
X73196425Y-89070750D01*
X73196424Y-89070745D01*
X73136845Y-88900478D01*
X73040872Y-88747738D01*
X72913318Y-88620184D01*
X72836903Y-88572169D01*
X72760579Y-88524211D01*
X72590310Y-88464631D01*
X72590305Y-88464630D01*
X72411060Y-88444435D01*
X72411052Y-88444435D01*
X72231806Y-88464630D01*
X72231801Y-88464631D01*
X72061532Y-88524211D01*
X71908793Y-88620184D01*
X71781240Y-88747737D01*
X71685267Y-88900476D01*
X71625687Y-89070745D01*
X71625686Y-89070750D01*
X71605491Y-89249996D01*
X71605491Y-89250003D01*
X39072115Y-89250003D01*
X39080565Y-89175003D01*
X39080565Y-89174996D01*
X39060369Y-88995750D01*
X39060368Y-88995745D01*
X39048600Y-88962114D01*
X39000789Y-88825478D01*
X38993055Y-88813170D01*
X38943988Y-88735080D01*
X38904816Y-88672738D01*
X38777262Y-88545184D01*
X38743884Y-88524211D01*
X38624523Y-88449211D01*
X38454254Y-88389631D01*
X38454249Y-88389630D01*
X38275004Y-88369435D01*
X38274996Y-88369435D01*
X38095750Y-88389630D01*
X38095745Y-88389631D01*
X37925476Y-88449211D01*
X37772737Y-88545184D01*
X37645184Y-88672737D01*
X37549211Y-88825476D01*
X37489631Y-88995745D01*
X37489630Y-88995750D01*
X37469435Y-89174996D01*
X37469435Y-89175003D01*
X20500000Y-89175003D01*
X20500000Y-88000003D01*
X74944435Y-88000003D01*
X74964630Y-88179249D01*
X74964631Y-88179254D01*
X75024211Y-88349523D01*
X75083849Y-88444435D01*
X75120184Y-88502262D01*
X75247738Y-88629816D01*
X75400478Y-88725789D01*
X75463202Y-88747737D01*
X75570745Y-88785368D01*
X75570750Y-88785369D01*
X75749996Y-88805565D01*
X75750000Y-88805565D01*
X75750004Y-88805565D01*
X75929249Y-88785369D01*
X75929252Y-88785368D01*
X75929255Y-88785368D01*
X76099522Y-88725789D01*
X76252262Y-88629816D01*
X76379816Y-88502262D01*
X76475789Y-88349522D01*
X76535368Y-88179255D01*
X76548475Y-88062925D01*
X76555565Y-88000003D01*
X76555565Y-87999996D01*
X76535369Y-87820750D01*
X76535368Y-87820745D01*
X76475788Y-87650476D01*
X76379815Y-87497737D01*
X76252262Y-87370184D01*
X76099523Y-87274211D01*
X75929254Y-87214631D01*
X75929249Y-87214630D01*
X75750004Y-87194435D01*
X75749996Y-87194435D01*
X75570750Y-87214630D01*
X75570745Y-87214631D01*
X75400476Y-87274211D01*
X75247737Y-87370184D01*
X75120184Y-87497737D01*
X75024211Y-87650476D01*
X74964631Y-87820745D01*
X74964630Y-87820750D01*
X74944435Y-87999996D01*
X74944435Y-88000003D01*
X20500000Y-88000003D01*
X20500000Y-86500003D01*
X38394435Y-86500003D01*
X38414630Y-86679249D01*
X38414631Y-86679254D01*
X38474211Y-86849523D01*
X38548830Y-86968277D01*
X38570184Y-87002262D01*
X38697738Y-87129816D01*
X38701558Y-87132216D01*
X38832721Y-87214632D01*
X38850478Y-87225789D01*
X38985079Y-87272888D01*
X39020745Y-87285368D01*
X39020750Y-87285369D01*
X39199996Y-87305565D01*
X39200000Y-87305565D01*
X39200004Y-87305565D01*
X39379249Y-87285369D01*
X39379252Y-87285368D01*
X39379255Y-87285368D01*
X39549522Y-87225789D01*
X39702262Y-87129816D01*
X39829816Y-87002262D01*
X39925789Y-86849522D01*
X39985368Y-86679255D01*
X39994298Y-86600000D01*
X53894540Y-86600000D01*
X53914326Y-86788256D01*
X53914327Y-86788259D01*
X53972818Y-86968277D01*
X53972821Y-86968284D01*
X54067467Y-87132216D01*
X54141673Y-87214630D01*
X54194129Y-87272888D01*
X54347265Y-87384148D01*
X54347270Y-87384151D01*
X54520192Y-87461142D01*
X54520197Y-87461144D01*
X54705354Y-87500500D01*
X54705355Y-87500500D01*
X54894644Y-87500500D01*
X54894646Y-87500500D01*
X55079803Y-87461144D01*
X55252730Y-87384151D01*
X55405871Y-87272888D01*
X55532533Y-87132216D01*
X55627179Y-86968284D01*
X55685674Y-86788256D01*
X55705460Y-86600000D01*
X55685674Y-86411744D01*
X55627179Y-86231716D01*
X55532533Y-86067784D01*
X55405871Y-85927112D01*
X55405870Y-85927111D01*
X55252734Y-85815851D01*
X55252729Y-85815848D01*
X55079807Y-85738857D01*
X55079802Y-85738855D01*
X54934001Y-85707865D01*
X54894646Y-85699500D01*
X54705354Y-85699500D01*
X54672897Y-85706398D01*
X54520197Y-85738855D01*
X54520192Y-85738857D01*
X54347270Y-85815848D01*
X54347265Y-85815851D01*
X54194129Y-85927111D01*
X54067466Y-86067785D01*
X53972821Y-86231715D01*
X53972818Y-86231722D01*
X53914327Y-86411740D01*
X53914326Y-86411744D01*
X53894540Y-86600000D01*
X39994298Y-86600000D01*
X40005565Y-86500000D01*
X39985368Y-86320745D01*
X39925789Y-86150478D01*
X39829816Y-85997738D01*
X39702262Y-85870184D01*
X39615792Y-85815851D01*
X39549523Y-85774211D01*
X39379254Y-85714631D01*
X39379249Y-85714630D01*
X39200004Y-85694435D01*
X39199996Y-85694435D01*
X39020750Y-85714630D01*
X39020745Y-85714631D01*
X38850476Y-85774211D01*
X38697737Y-85870184D01*
X38570184Y-85997737D01*
X38474211Y-86150476D01*
X38414631Y-86320745D01*
X38414630Y-86320750D01*
X38394435Y-86499996D01*
X38394435Y-86500003D01*
X20500000Y-86500003D01*
X20500000Y-85250003D01*
X40394435Y-85250003D01*
X40414630Y-85429249D01*
X40414631Y-85429254D01*
X40474211Y-85599523D01*
X40533849Y-85694435D01*
X40570184Y-85752262D01*
X40697738Y-85879816D01*
X40850478Y-85975789D01*
X40913202Y-85997737D01*
X41020745Y-86035368D01*
X41020750Y-86035369D01*
X41199996Y-86055565D01*
X41200000Y-86055565D01*
X41200004Y-86055565D01*
X41379249Y-86035369D01*
X41379252Y-86035368D01*
X41379255Y-86035368D01*
X41549522Y-85975789D01*
X41702262Y-85879816D01*
X41829816Y-85752262D01*
X41925789Y-85599522D01*
X41985368Y-85429255D01*
X42005565Y-85250000D01*
X41985368Y-85070745D01*
X41925789Y-84900478D01*
X41829816Y-84747738D01*
X41702262Y-84620184D01*
X41549523Y-84524211D01*
X41379254Y-84464631D01*
X41379249Y-84464630D01*
X41200004Y-84444435D01*
X41199996Y-84444435D01*
X41020750Y-84464630D01*
X41020745Y-84464631D01*
X40850476Y-84524211D01*
X40697737Y-84620184D01*
X40570184Y-84747737D01*
X40474211Y-84900476D01*
X40414631Y-85070745D01*
X40414630Y-85070750D01*
X40394435Y-85249996D01*
X40394435Y-85250003D01*
X20500000Y-85250003D01*
X20500000Y-82297870D01*
X30709500Y-82297870D01*
X30709501Y-82297876D01*
X30715908Y-82357483D01*
X30766202Y-82492328D01*
X30766206Y-82492335D01*
X30852452Y-82607544D01*
X30852455Y-82607547D01*
X30967664Y-82693793D01*
X30967671Y-82693797D01*
X31102517Y-82744091D01*
X31102516Y-82744091D01*
X31109444Y-82744835D01*
X31162127Y-82750500D01*
X32957872Y-82750499D01*
X33017483Y-82744091D01*
X33152331Y-82693796D01*
X33267546Y-82607546D01*
X33353796Y-82492331D01*
X33402810Y-82360916D01*
X33444681Y-82304984D01*
X33510145Y-82280566D01*
X33578418Y-82295417D01*
X33606673Y-82316569D01*
X33728599Y-82438495D01*
X33825384Y-82506265D01*
X33922165Y-82574032D01*
X33922167Y-82574033D01*
X33922170Y-82574035D01*
X34136337Y-82673903D01*
X34364592Y-82735063D01*
X34541034Y-82750500D01*
X34599999Y-82755659D01*
X34600000Y-82755659D01*
X34600001Y-82755659D01*
X34658966Y-82750500D01*
X34835408Y-82735063D01*
X35063663Y-82673903D01*
X35277830Y-82574035D01*
X35471401Y-82438495D01*
X35638495Y-82271401D01*
X35653478Y-82250003D01*
X43394435Y-82250003D01*
X43414630Y-82429249D01*
X43414631Y-82429254D01*
X43474211Y-82599523D01*
X43520949Y-82673905D01*
X43570184Y-82752262D01*
X43697738Y-82879816D01*
X43850478Y-82975789D01*
X44020745Y-83035368D01*
X44020750Y-83035369D01*
X44199996Y-83055565D01*
X44200000Y-83055565D01*
X44200004Y-83055565D01*
X44379249Y-83035369D01*
X44379252Y-83035368D01*
X44379255Y-83035368D01*
X44549522Y-82975789D01*
X44702262Y-82879816D01*
X44829816Y-82752262D01*
X44925789Y-82599522D01*
X44985368Y-82429255D01*
X45000171Y-82297873D01*
X45005565Y-82250003D01*
X45005565Y-82249996D01*
X44985369Y-82070750D01*
X44985368Y-82070745D01*
X44925788Y-81900476D01*
X44846527Y-81774334D01*
X117249500Y-81774334D01*
X117290429Y-82019616D01*
X117371169Y-82254802D01*
X117371172Y-82254811D01*
X117465576Y-82429254D01*
X117489526Y-82473509D01*
X117642262Y-82669744D01*
X117735591Y-82755659D01*
X117825217Y-82838166D01*
X118033393Y-82974173D01*
X118261118Y-83074063D01*
X118502175Y-83135107D01*
X118502179Y-83135108D01*
X118502181Y-83135108D01*
X118502186Y-83135109D01*
X118635376Y-83146145D01*
X118687933Y-83150500D01*
X118687935Y-83150500D01*
X118812065Y-83150500D01*
X118812067Y-83150500D01*
X118873284Y-83145427D01*
X118997813Y-83135109D01*
X118997816Y-83135108D01*
X118997821Y-83135108D01*
X119238881Y-83074063D01*
X119466607Y-82974173D01*
X119674785Y-82838164D01*
X119857738Y-82669744D01*
X120010474Y-82473509D01*
X120128828Y-82254810D01*
X120209571Y-82019614D01*
X120250500Y-81774335D01*
X120250500Y-81525665D01*
X120209571Y-81280386D01*
X120128828Y-81045190D01*
X120010474Y-80826491D01*
X119857738Y-80630256D01*
X119698242Y-80483430D01*
X119674782Y-80461833D01*
X119466606Y-80325826D01*
X119238881Y-80225936D01*
X118997824Y-80164892D01*
X118997813Y-80164890D01*
X118832548Y-80151197D01*
X118812067Y-80149500D01*
X118687933Y-80149500D01*
X118668521Y-80151108D01*
X118502186Y-80164890D01*
X118502175Y-80164892D01*
X118261118Y-80225936D01*
X118033393Y-80325826D01*
X117825217Y-80461833D01*
X117642261Y-80630257D01*
X117489524Y-80826493D01*
X117371172Y-81045188D01*
X117371169Y-81045197D01*
X117290429Y-81280383D01*
X117249500Y-81525665D01*
X117249500Y-81774334D01*
X44846527Y-81774334D01*
X44829815Y-81747737D01*
X44702262Y-81620184D01*
X44549523Y-81524211D01*
X44379254Y-81464631D01*
X44379249Y-81464630D01*
X44200004Y-81444435D01*
X44199996Y-81444435D01*
X44020750Y-81464630D01*
X44020745Y-81464631D01*
X43850476Y-81524211D01*
X43697737Y-81620184D01*
X43570184Y-81747737D01*
X43474211Y-81900476D01*
X43414631Y-82070745D01*
X43414630Y-82070750D01*
X43394435Y-82249996D01*
X43394435Y-82250003D01*
X35653478Y-82250003D01*
X35774035Y-82077830D01*
X35873903Y-81863663D01*
X35935063Y-81635408D01*
X35955659Y-81400000D01*
X35935063Y-81164592D01*
X35873903Y-80936337D01*
X35774035Y-80722171D01*
X35709677Y-80630257D01*
X35638494Y-80528597D01*
X35471402Y-80361506D01*
X35471395Y-80361501D01*
X35277834Y-80225967D01*
X35277830Y-80225965D01*
X35277768Y-80225936D01*
X35063663Y-80126097D01*
X35063659Y-80126096D01*
X35063655Y-80126094D01*
X34835413Y-80064938D01*
X34835403Y-80064936D01*
X34600001Y-80044341D01*
X34599999Y-80044341D01*
X34364596Y-80064936D01*
X34364586Y-80064938D01*
X34136344Y-80126094D01*
X34136335Y-80126098D01*
X33922171Y-80225964D01*
X33922169Y-80225965D01*
X33728600Y-80361503D01*
X33606673Y-80483430D01*
X33545350Y-80516914D01*
X33475658Y-80511930D01*
X33419725Y-80470058D01*
X33402810Y-80439081D01*
X33353797Y-80307671D01*
X33353793Y-80307664D01*
X33267547Y-80192455D01*
X33267544Y-80192452D01*
X33152335Y-80106206D01*
X33152328Y-80106202D01*
X33017482Y-80055908D01*
X33017483Y-80055908D01*
X32957883Y-80049501D01*
X32957881Y-80049500D01*
X32957873Y-80049500D01*
X32957864Y-80049500D01*
X31162129Y-80049500D01*
X31162123Y-80049501D01*
X31102516Y-80055908D01*
X30967671Y-80106202D01*
X30967664Y-80106206D01*
X30852455Y-80192452D01*
X30852452Y-80192455D01*
X30766206Y-80307664D01*
X30766202Y-80307671D01*
X30715908Y-80442517D01*
X30709501Y-80502116D01*
X30709500Y-80502135D01*
X30709500Y-82297870D01*
X20500000Y-82297870D01*
X20500000Y-77180006D01*
X21094700Y-77180006D01*
X21113864Y-77411297D01*
X21113866Y-77411308D01*
X21170842Y-77636300D01*
X21264075Y-77848848D01*
X21391016Y-78043147D01*
X21391019Y-78043151D01*
X21391021Y-78043153D01*
X21548216Y-78213913D01*
X21548219Y-78213915D01*
X21548222Y-78213918D01*
X21731365Y-78356464D01*
X21731371Y-78356468D01*
X21731374Y-78356470D01*
X21935497Y-78466936D01*
X22049487Y-78506068D01*
X22155015Y-78542297D01*
X22155017Y-78542297D01*
X22155019Y-78542298D01*
X22383951Y-78580500D01*
X22383952Y-78580500D01*
X22616048Y-78580500D01*
X22616049Y-78580500D01*
X22844981Y-78542298D01*
X23064503Y-78466936D01*
X23268626Y-78356470D01*
X23451784Y-78213913D01*
X23608979Y-78043153D01*
X23735924Y-77848849D01*
X23829157Y-77636300D01*
X23886134Y-77411305D01*
X23905300Y-77180000D01*
X23905300Y-77179993D01*
X23886135Y-76948702D01*
X23886133Y-76948691D01*
X23829157Y-76723699D01*
X23735924Y-76511151D01*
X23608983Y-76316852D01*
X23608980Y-76316849D01*
X23608979Y-76316847D01*
X23451784Y-76146087D01*
X23274180Y-76007853D01*
X23233368Y-75951143D01*
X23229693Y-75881370D01*
X23264324Y-75820687D01*
X23274181Y-75812146D01*
X23451784Y-75673913D01*
X23608979Y-75503153D01*
X23735924Y-75308849D01*
X23829157Y-75096300D01*
X23886134Y-74871305D01*
X23905300Y-74640000D01*
X23905300Y-74639993D01*
X23886135Y-74408702D01*
X23886133Y-74408691D01*
X23829157Y-74183699D01*
X23735924Y-73971151D01*
X23608983Y-73776852D01*
X23608980Y-73776849D01*
X23608979Y-73776847D01*
X23451784Y-73606087D01*
X23274180Y-73467853D01*
X23233368Y-73411143D01*
X23229693Y-73341370D01*
X23264324Y-73280687D01*
X23274181Y-73272146D01*
X23451784Y-73133913D01*
X23608979Y-72963153D01*
X23735924Y-72768849D01*
X23829157Y-72556300D01*
X23886134Y-72331305D01*
X23905300Y-72100000D01*
X23905300Y-72099993D01*
X23886135Y-71868702D01*
X23886133Y-71868691D01*
X23829157Y-71643699D01*
X23735924Y-71431151D01*
X23617573Y-71250000D01*
X33094540Y-71250000D01*
X33114326Y-71438256D01*
X33114327Y-71438259D01*
X33172818Y-71618277D01*
X33172821Y-71618284D01*
X33267467Y-71782216D01*
X33345340Y-71868702D01*
X33394129Y-71922888D01*
X33547265Y-72034148D01*
X33547270Y-72034151D01*
X33720192Y-72111142D01*
X33720197Y-72111144D01*
X33905354Y-72150500D01*
X33905355Y-72150500D01*
X34094644Y-72150500D01*
X34094646Y-72150500D01*
X34279803Y-72111144D01*
X34452730Y-72034151D01*
X34605871Y-71922888D01*
X34732533Y-71782216D01*
X34827179Y-71618284D01*
X34885674Y-71438256D01*
X34905460Y-71250000D01*
X34885674Y-71061744D01*
X34827179Y-70881716D01*
X34732533Y-70717784D01*
X34605871Y-70577112D01*
X34605870Y-70577111D01*
X34452734Y-70465851D01*
X34452729Y-70465848D01*
X34417141Y-70450003D01*
X49244435Y-70450003D01*
X49264630Y-70629249D01*
X49264631Y-70629254D01*
X49324211Y-70799523D01*
X49388767Y-70902262D01*
X49420184Y-70952262D01*
X49547738Y-71079816D01*
X49700478Y-71175789D01*
X49785573Y-71205565D01*
X49870745Y-71235368D01*
X49870750Y-71235369D01*
X50049996Y-71255565D01*
X50050000Y-71255565D01*
X50050004Y-71255565D01*
X50229249Y-71235369D01*
X50229252Y-71235368D01*
X50229255Y-71235368D01*
X50399522Y-71175789D01*
X50552262Y-71079816D01*
X50662319Y-70969759D01*
X50723642Y-70936274D01*
X50793334Y-70941258D01*
X50837681Y-70969759D01*
X50897738Y-71029816D01*
X51050478Y-71125789D01*
X51193367Y-71175788D01*
X51220745Y-71185368D01*
X51220750Y-71185369D01*
X51399996Y-71205565D01*
X51400000Y-71205565D01*
X51400004Y-71205565D01*
X51579249Y-71185369D01*
X51579252Y-71185368D01*
X51579255Y-71185368D01*
X51749522Y-71125789D01*
X51902262Y-71029816D01*
X52029816Y-70902262D01*
X52125789Y-70749522D01*
X52185368Y-70579255D01*
X52185369Y-70579249D01*
X52205565Y-70400003D01*
X52205565Y-70399996D01*
X52185369Y-70220750D01*
X52185368Y-70220745D01*
X52125788Y-70050476D01*
X52029815Y-69897737D01*
X51902262Y-69770184D01*
X51749523Y-69674211D01*
X51579254Y-69614631D01*
X51579249Y-69614630D01*
X51400004Y-69594435D01*
X51399996Y-69594435D01*
X51220750Y-69614630D01*
X51220745Y-69614631D01*
X51050476Y-69674211D01*
X50897737Y-69770184D01*
X50787681Y-69880241D01*
X50726358Y-69913726D01*
X50656666Y-69908742D01*
X50612319Y-69880241D01*
X50552262Y-69820184D01*
X50399523Y-69724211D01*
X50229254Y-69664631D01*
X50229249Y-69664630D01*
X50050004Y-69644435D01*
X50049996Y-69644435D01*
X49870750Y-69664630D01*
X49870745Y-69664631D01*
X49700476Y-69724211D01*
X49547737Y-69820184D01*
X49420184Y-69947737D01*
X49324211Y-70100476D01*
X49264631Y-70270745D01*
X49264630Y-70270750D01*
X49244435Y-70449996D01*
X49244435Y-70450003D01*
X34417141Y-70450003D01*
X34279807Y-70388857D01*
X34279802Y-70388855D01*
X34134001Y-70357865D01*
X34094646Y-70349500D01*
X33905354Y-70349500D01*
X33872897Y-70356398D01*
X33720197Y-70388855D01*
X33720192Y-70388857D01*
X33547270Y-70465848D01*
X33547265Y-70465851D01*
X33394129Y-70577111D01*
X33267466Y-70717785D01*
X33172821Y-70881715D01*
X33172818Y-70881722D01*
X33124700Y-71029815D01*
X33114326Y-71061744D01*
X33094540Y-71250000D01*
X23617573Y-71250000D01*
X23608983Y-71236852D01*
X23608980Y-71236849D01*
X23608979Y-71236847D01*
X23451784Y-71066087D01*
X23274180Y-70927853D01*
X23233368Y-70871143D01*
X23229693Y-70801370D01*
X23264324Y-70740687D01*
X23274181Y-70732146D01*
X23451784Y-70593913D01*
X23608979Y-70423153D01*
X23735924Y-70228849D01*
X23829157Y-70016300D01*
X23886134Y-69791305D01*
X23886135Y-69791297D01*
X23901986Y-69600003D01*
X47194435Y-69600003D01*
X47214630Y-69779249D01*
X47214631Y-69779254D01*
X47274211Y-69949523D01*
X47337646Y-70050478D01*
X47370184Y-70102262D01*
X47497738Y-70229816D01*
X47650478Y-70325789D01*
X47820745Y-70385368D01*
X47820750Y-70385369D01*
X47999996Y-70405565D01*
X48000000Y-70405565D01*
X48000004Y-70405565D01*
X48179249Y-70385369D01*
X48179252Y-70385368D01*
X48179255Y-70385368D01*
X48349522Y-70325789D01*
X48502262Y-70229816D01*
X48629816Y-70102262D01*
X48725789Y-69949522D01*
X48785368Y-69779255D01*
X48798283Y-69664630D01*
X48805565Y-69600003D01*
X48805565Y-69599996D01*
X48785369Y-69420750D01*
X48785368Y-69420745D01*
X48725788Y-69250476D01*
X48633562Y-69103700D01*
X48629816Y-69097738D01*
X48502262Y-68970184D01*
X48437124Y-68929255D01*
X48349523Y-68874211D01*
X48179254Y-68814631D01*
X48179249Y-68814630D01*
X48000004Y-68794435D01*
X47999996Y-68794435D01*
X47820750Y-68814630D01*
X47820745Y-68814631D01*
X47650476Y-68874211D01*
X47497737Y-68970184D01*
X47370184Y-69097737D01*
X47274211Y-69250476D01*
X47214631Y-69420745D01*
X47214630Y-69420750D01*
X47194435Y-69599996D01*
X47194435Y-69600003D01*
X23901986Y-69600003D01*
X23905300Y-69560006D01*
X23905300Y-69559993D01*
X23886135Y-69328702D01*
X23886133Y-69328691D01*
X23829157Y-69103699D01*
X23735924Y-68891151D01*
X23643708Y-68750003D01*
X38194435Y-68750003D01*
X38214630Y-68929249D01*
X38214631Y-68929254D01*
X38274211Y-69099523D01*
X38276836Y-69103700D01*
X38370184Y-69252262D01*
X38497738Y-69379816D01*
X38650478Y-69475789D01*
X38820745Y-69535368D01*
X38820750Y-69535369D01*
X38999996Y-69555565D01*
X39000000Y-69555565D01*
X39000004Y-69555565D01*
X39179249Y-69535369D01*
X39179252Y-69535368D01*
X39179255Y-69535368D01*
X39349522Y-69475789D01*
X39502262Y-69379816D01*
X39629816Y-69252262D01*
X39725789Y-69099522D01*
X39785368Y-68929255D01*
X39788608Y-68900500D01*
X39805565Y-68750003D01*
X41444435Y-68750003D01*
X41464630Y-68929249D01*
X41464631Y-68929254D01*
X41524211Y-69099523D01*
X41526836Y-69103700D01*
X41620184Y-69252262D01*
X41747738Y-69379816D01*
X41900478Y-69475789D01*
X42070745Y-69535368D01*
X42070750Y-69535369D01*
X42249996Y-69555565D01*
X42250000Y-69555565D01*
X42250004Y-69555565D01*
X42429249Y-69535369D01*
X42429252Y-69535368D01*
X42429255Y-69535368D01*
X42599522Y-69475789D01*
X42752262Y-69379816D01*
X42879816Y-69252262D01*
X42975789Y-69099522D01*
X43035368Y-68929255D01*
X43038608Y-68900500D01*
X43055565Y-68750003D01*
X44694435Y-68750003D01*
X44714630Y-68929249D01*
X44714631Y-68929254D01*
X44774211Y-69099523D01*
X44776836Y-69103700D01*
X44870184Y-69252262D01*
X44997738Y-69379816D01*
X45150478Y-69475789D01*
X45320745Y-69535368D01*
X45320750Y-69535369D01*
X45499996Y-69555565D01*
X45500000Y-69555565D01*
X45500004Y-69555565D01*
X45679249Y-69535369D01*
X45679252Y-69535368D01*
X45679255Y-69535368D01*
X45849522Y-69475789D01*
X46002262Y-69379816D01*
X46129816Y-69252262D01*
X46225789Y-69099522D01*
X46285368Y-68929255D01*
X46288608Y-68900500D01*
X46305565Y-68750003D01*
X46305565Y-68749996D01*
X46285369Y-68570750D01*
X46285368Y-68570745D01*
X46232882Y-68420750D01*
X46225789Y-68400478D01*
X46129816Y-68247738D01*
X46002262Y-68120184D01*
X45849523Y-68024211D01*
X45679254Y-67964631D01*
X45679249Y-67964630D01*
X45500004Y-67944435D01*
X45499996Y-67944435D01*
X45320750Y-67964630D01*
X45320745Y-67964631D01*
X45150476Y-68024211D01*
X44997737Y-68120184D01*
X44870184Y-68247737D01*
X44774211Y-68400476D01*
X44714631Y-68570745D01*
X44714630Y-68570750D01*
X44694435Y-68749996D01*
X44694435Y-68750003D01*
X43055565Y-68750003D01*
X43055565Y-68749996D01*
X43035369Y-68570750D01*
X43035368Y-68570745D01*
X42982882Y-68420750D01*
X42975789Y-68400478D01*
X42879816Y-68247738D01*
X42752262Y-68120184D01*
X42599523Y-68024211D01*
X42429254Y-67964631D01*
X42429249Y-67964630D01*
X42250004Y-67944435D01*
X42249996Y-67944435D01*
X42070750Y-67964630D01*
X42070745Y-67964631D01*
X41900476Y-68024211D01*
X41747737Y-68120184D01*
X41620184Y-68247737D01*
X41524211Y-68400476D01*
X41464631Y-68570745D01*
X41464630Y-68570750D01*
X41444435Y-68749996D01*
X41444435Y-68750003D01*
X39805565Y-68750003D01*
X39805565Y-68749996D01*
X39785369Y-68570750D01*
X39785368Y-68570745D01*
X39732882Y-68420750D01*
X39725789Y-68400478D01*
X39629816Y-68247738D01*
X39502262Y-68120184D01*
X39349523Y-68024211D01*
X39179254Y-67964631D01*
X39179249Y-67964630D01*
X39000004Y-67944435D01*
X38999996Y-67944435D01*
X38820750Y-67964630D01*
X38820745Y-67964631D01*
X38650476Y-68024211D01*
X38497737Y-68120184D01*
X38370184Y-68247737D01*
X38274211Y-68400476D01*
X38214631Y-68570745D01*
X38214630Y-68570750D01*
X38194435Y-68749996D01*
X38194435Y-68750003D01*
X23643708Y-68750003D01*
X23608983Y-68696852D01*
X23608980Y-68696849D01*
X23608979Y-68696847D01*
X23451784Y-68526087D01*
X23274180Y-68387853D01*
X23233368Y-68331143D01*
X23229693Y-68261370D01*
X23264324Y-68200687D01*
X23274181Y-68192146D01*
X23451784Y-68053913D01*
X23608979Y-67883153D01*
X23735924Y-67688849D01*
X23829157Y-67476300D01*
X23848478Y-67400003D01*
X53394435Y-67400003D01*
X53414630Y-67579249D01*
X53414631Y-67579254D01*
X53474211Y-67749523D01*
X53515122Y-67814632D01*
X53570184Y-67902262D01*
X53697738Y-68029816D01*
X53736096Y-68053918D01*
X53841557Y-68120184D01*
X53850478Y-68125789D01*
X54020745Y-68185368D01*
X54020750Y-68185369D01*
X54199996Y-68205565D01*
X54200000Y-68205565D01*
X54200004Y-68205565D01*
X54379249Y-68185369D01*
X54379252Y-68185368D01*
X54379255Y-68185368D01*
X54549522Y-68125789D01*
X54558443Y-68120184D01*
X54634027Y-68072691D01*
X54701264Y-68053690D01*
X54765973Y-68072691D01*
X54850475Y-68125788D01*
X55020745Y-68185368D01*
X55020750Y-68185369D01*
X55199996Y-68205565D01*
X55200000Y-68205565D01*
X55200004Y-68205565D01*
X55379249Y-68185369D01*
X55379252Y-68185368D01*
X55379255Y-68185368D01*
X55549522Y-68125789D01*
X55702262Y-68029816D01*
X55829816Y-67902262D01*
X55925789Y-67749522D01*
X55982958Y-67586141D01*
X56023680Y-67529366D01*
X56088633Y-67503619D01*
X56157194Y-67517075D01*
X56207597Y-67565462D01*
X56217042Y-67586142D01*
X56274211Y-67749523D01*
X56315122Y-67814632D01*
X56370184Y-67902262D01*
X56497738Y-68029816D01*
X56536096Y-68053918D01*
X56641557Y-68120184D01*
X56650478Y-68125789D01*
X56820745Y-68185368D01*
X56820750Y-68185369D01*
X56999996Y-68205565D01*
X57000000Y-68205565D01*
X57000004Y-68205565D01*
X57179249Y-68185369D01*
X57179252Y-68185368D01*
X57179255Y-68185368D01*
X57349522Y-68125789D01*
X57358443Y-68120184D01*
X57381348Y-68105791D01*
X57421797Y-68080374D01*
X57489033Y-68061374D01*
X57553743Y-68080375D01*
X57650475Y-68141157D01*
X57820745Y-68200737D01*
X57820750Y-68200738D01*
X57999996Y-68220934D01*
X58000000Y-68220934D01*
X58000004Y-68220934D01*
X58179249Y-68200738D01*
X58179252Y-68200737D01*
X58179255Y-68200737D01*
X58349522Y-68141158D01*
X58446258Y-68080374D01*
X58513492Y-68061374D01*
X58578202Y-68080375D01*
X58650475Y-68125788D01*
X58820745Y-68185368D01*
X58820750Y-68185369D01*
X58999996Y-68205565D01*
X59000000Y-68205565D01*
X59000004Y-68205565D01*
X59179249Y-68185369D01*
X59179252Y-68185368D01*
X59179255Y-68185368D01*
X59349522Y-68125789D01*
X59358443Y-68120184D01*
X59434027Y-68072691D01*
X59501264Y-68053690D01*
X59565973Y-68072691D01*
X59650475Y-68125788D01*
X59820745Y-68185368D01*
X59820750Y-68185369D01*
X59999996Y-68205565D01*
X60000000Y-68205565D01*
X60000004Y-68205565D01*
X60179249Y-68185369D01*
X60179252Y-68185368D01*
X60179255Y-68185368D01*
X60349522Y-68125789D01*
X60502262Y-68029816D01*
X60532078Y-68000000D01*
X66094540Y-68000000D01*
X66114326Y-68188256D01*
X66114327Y-68188259D01*
X66172818Y-68368277D01*
X66172821Y-68368284D01*
X66267467Y-68532216D01*
X66328503Y-68600003D01*
X66394129Y-68672888D01*
X66547265Y-68784148D01*
X66547270Y-68784151D01*
X66720192Y-68861142D01*
X66720197Y-68861144D01*
X66905354Y-68900500D01*
X66905355Y-68900500D01*
X67094644Y-68900500D01*
X67094646Y-68900500D01*
X67279803Y-68861144D01*
X67452730Y-68784151D01*
X67605871Y-68672888D01*
X67671497Y-68600003D01*
X74944435Y-68600003D01*
X74964630Y-68779249D01*
X74964631Y-68779254D01*
X75024211Y-68949523D01*
X75117341Y-69097737D01*
X75120184Y-69102262D01*
X75247738Y-69229816D01*
X75400478Y-69325789D01*
X75554878Y-69379816D01*
X75570745Y-69385368D01*
X75570750Y-69385369D01*
X75749996Y-69405565D01*
X75750000Y-69405565D01*
X75750004Y-69405565D01*
X75929249Y-69385369D01*
X75929252Y-69385368D01*
X75929255Y-69385368D01*
X76099522Y-69325789D01*
X76252262Y-69229816D01*
X76379816Y-69102262D01*
X76475789Y-68949522D01*
X76535368Y-68779255D01*
X76538664Y-68750003D01*
X76555565Y-68600003D01*
X76555565Y-68599996D01*
X76535369Y-68420750D01*
X76535366Y-68420737D01*
X76516737Y-68367498D01*
X76513175Y-68297719D01*
X76547903Y-68237092D01*
X76609897Y-68204864D01*
X76619885Y-68203324D01*
X76695351Y-68194821D01*
X76779250Y-68185369D01*
X76779253Y-68185368D01*
X76779255Y-68185368D01*
X76949522Y-68125789D01*
X77102262Y-68029816D01*
X77229816Y-67902262D01*
X77325789Y-67749522D01*
X77385368Y-67579255D01*
X77393929Y-67503263D01*
X77420994Y-67438853D01*
X77478588Y-67399297D01*
X77503254Y-67393930D01*
X77579255Y-67385368D01*
X77749522Y-67325789D01*
X77902262Y-67229816D01*
X78029816Y-67102262D01*
X78125789Y-66949522D01*
X78185368Y-66779255D01*
X78185524Y-66777876D01*
X78193500Y-66707083D01*
X78220566Y-66642669D01*
X78278161Y-66603114D01*
X78330604Y-66597746D01*
X78399998Y-66605565D01*
X78400000Y-66605565D01*
X78400004Y-66605565D01*
X78579249Y-66585369D01*
X78579252Y-66585368D01*
X78579255Y-66585368D01*
X78749522Y-66525789D01*
X78902262Y-66429816D01*
X79029816Y-66302262D01*
X79125789Y-66149522D01*
X79185368Y-65979255D01*
X79193500Y-65907083D01*
X79220566Y-65842669D01*
X79278161Y-65803114D01*
X79330604Y-65797746D01*
X79399998Y-65805565D01*
X79400000Y-65805565D01*
X79400004Y-65805565D01*
X79579249Y-65785369D01*
X79579252Y-65785368D01*
X79579255Y-65785368D01*
X79749522Y-65725789D01*
X79902262Y-65629816D01*
X80029816Y-65502262D01*
X80125789Y-65349522D01*
X80185368Y-65179255D01*
X80190724Y-65131722D01*
X80205565Y-65000003D01*
X80205565Y-64999996D01*
X80185369Y-64820750D01*
X80185368Y-64820745D01*
X80174610Y-64790000D01*
X80125789Y-64650478D01*
X80118486Y-64638856D01*
X80029815Y-64497737D01*
X79902262Y-64370184D01*
X79749523Y-64274211D01*
X79579254Y-64214631D01*
X79579249Y-64214630D01*
X79400004Y-64194435D01*
X79399996Y-64194435D01*
X79220750Y-64214630D01*
X79220745Y-64214631D01*
X79050476Y-64274211D01*
X78897737Y-64370184D01*
X78770184Y-64497737D01*
X78674211Y-64650476D01*
X78614631Y-64820745D01*
X78614630Y-64820749D01*
X78606499Y-64892917D01*
X78579432Y-64957331D01*
X78521837Y-64996886D01*
X78469396Y-65002253D01*
X78400004Y-64994435D01*
X78399996Y-64994435D01*
X78220750Y-65014630D01*
X78220745Y-65014631D01*
X78050476Y-65074211D01*
X77897737Y-65170184D01*
X77770184Y-65297737D01*
X77674211Y-65450476D01*
X77614631Y-65620745D01*
X77614630Y-65620749D01*
X77606499Y-65692917D01*
X77579432Y-65757331D01*
X77521837Y-65796886D01*
X77469396Y-65802253D01*
X77400004Y-65794435D01*
X77399996Y-65794435D01*
X77220750Y-65814630D01*
X77220745Y-65814631D01*
X77050476Y-65874211D01*
X76897737Y-65970184D01*
X76770184Y-66097737D01*
X76674210Y-66250478D01*
X76614630Y-66420750D01*
X76606069Y-66496733D01*
X76579002Y-66561147D01*
X76521407Y-66600702D01*
X76496733Y-66606069D01*
X76420750Y-66614630D01*
X76250478Y-66674210D01*
X76097737Y-66770184D01*
X75970184Y-66897737D01*
X75874211Y-67050476D01*
X75814631Y-67220745D01*
X75814630Y-67220750D01*
X75794435Y-67399996D01*
X75794435Y-67400003D01*
X75814630Y-67579249D01*
X75814632Y-67579257D01*
X75833263Y-67632502D01*
X75836824Y-67702281D01*
X75802095Y-67762908D01*
X75740101Y-67795135D01*
X75730104Y-67796676D01*
X75570750Y-67814630D01*
X75570745Y-67814631D01*
X75400476Y-67874211D01*
X75247737Y-67970184D01*
X75120184Y-68097737D01*
X75024211Y-68250476D01*
X74964631Y-68420745D01*
X74964630Y-68420750D01*
X74944435Y-68599996D01*
X74944435Y-68600003D01*
X67671497Y-68600003D01*
X67732533Y-68532216D01*
X67827179Y-68368284D01*
X67885674Y-68188256D01*
X67905460Y-68000000D01*
X67885674Y-67811744D01*
X67827179Y-67631716D01*
X67732533Y-67467784D01*
X67605871Y-67327112D01*
X67563572Y-67296380D01*
X67452734Y-67215851D01*
X67452729Y-67215848D01*
X67279807Y-67138857D01*
X67279802Y-67138855D01*
X67107640Y-67102262D01*
X67094646Y-67099500D01*
X66905354Y-67099500D01*
X66892360Y-67102262D01*
X66720197Y-67138855D01*
X66720192Y-67138857D01*
X66547270Y-67215848D01*
X66547265Y-67215851D01*
X66394129Y-67327111D01*
X66267466Y-67467785D01*
X66172821Y-67631715D01*
X66172818Y-67631722D01*
X66119222Y-67796676D01*
X66114326Y-67811744D01*
X66094540Y-68000000D01*
X60532078Y-68000000D01*
X60629816Y-67902262D01*
X60725789Y-67749522D01*
X60785368Y-67579255D01*
X60797928Y-67467784D01*
X60805565Y-67400003D01*
X60805565Y-67399996D01*
X60785369Y-67220750D01*
X60785368Y-67220745D01*
X60743909Y-67102262D01*
X60725789Y-67050478D01*
X60706638Y-67020000D01*
X60629815Y-66897737D01*
X60502262Y-66770184D01*
X60349523Y-66674211D01*
X60179254Y-66614631D01*
X60179249Y-66614630D01*
X60000004Y-66594435D01*
X59999996Y-66594435D01*
X59820750Y-66614630D01*
X59820737Y-66614633D01*
X59650479Y-66674209D01*
X59565971Y-66727309D01*
X59498734Y-66746309D01*
X59434029Y-66727309D01*
X59349520Y-66674209D01*
X59179262Y-66614633D01*
X59179249Y-66614630D01*
X59000004Y-66594435D01*
X58999996Y-66594435D01*
X58820750Y-66614630D01*
X58820745Y-66614631D01*
X58650476Y-66674211D01*
X58553742Y-66734994D01*
X58486505Y-66753994D01*
X58421798Y-66734994D01*
X58349522Y-66689580D01*
X58349520Y-66689579D01*
X58349518Y-66689578D01*
X58179262Y-66630002D01*
X58179249Y-66629999D01*
X58000004Y-66609804D01*
X57999996Y-66609804D01*
X57820750Y-66629999D01*
X57820737Y-66630002D01*
X57650479Y-66689578D01*
X57578200Y-66734994D01*
X57510963Y-66753994D01*
X57446257Y-66734993D01*
X57349526Y-66674212D01*
X57179254Y-66614631D01*
X57179249Y-66614630D01*
X57000004Y-66594435D01*
X56999996Y-66594435D01*
X56820750Y-66614630D01*
X56820745Y-66614631D01*
X56650476Y-66674211D01*
X56497737Y-66770184D01*
X56370184Y-66897737D01*
X56274209Y-67050480D01*
X56217041Y-67213857D01*
X56176320Y-67270633D01*
X56111367Y-67296380D01*
X56042805Y-67282924D01*
X55992403Y-67234536D01*
X55982959Y-67213857D01*
X55925790Y-67050480D01*
X55925789Y-67050478D01*
X55829816Y-66897738D01*
X55702262Y-66770184D01*
X55664265Y-66746309D01*
X55549523Y-66674211D01*
X55379254Y-66614631D01*
X55379249Y-66614630D01*
X55200004Y-66594435D01*
X55199996Y-66594435D01*
X55020750Y-66614630D01*
X55020737Y-66614633D01*
X54850479Y-66674209D01*
X54765971Y-66727309D01*
X54698734Y-66746309D01*
X54634029Y-66727309D01*
X54549520Y-66674209D01*
X54379262Y-66614633D01*
X54379249Y-66614630D01*
X54200004Y-66594435D01*
X54199996Y-66594435D01*
X54020750Y-66614630D01*
X54020745Y-66614631D01*
X53850476Y-66674211D01*
X53697737Y-66770184D01*
X53570184Y-66897737D01*
X53474211Y-67050476D01*
X53414631Y-67220745D01*
X53414630Y-67220750D01*
X53394435Y-67399996D01*
X53394435Y-67400003D01*
X23848478Y-67400003D01*
X23886134Y-67251305D01*
X23886135Y-67251297D01*
X23905300Y-67020006D01*
X23905300Y-67019993D01*
X23886135Y-66788702D01*
X23886133Y-66788691D01*
X23829157Y-66563699D01*
X23735924Y-66351151D01*
X23608983Y-66156852D01*
X23608980Y-66156849D01*
X23608979Y-66156847D01*
X23451784Y-65986087D01*
X23274180Y-65847853D01*
X23233368Y-65791143D01*
X23229693Y-65721370D01*
X23264324Y-65660687D01*
X23274181Y-65652146D01*
X23451784Y-65513913D01*
X23608979Y-65343153D01*
X23735924Y-65148849D01*
X23801214Y-65000003D01*
X48194435Y-65000003D01*
X48214630Y-65179249D01*
X48214631Y-65179254D01*
X48274211Y-65349523D01*
X48337646Y-65450478D01*
X48370184Y-65502262D01*
X48497738Y-65629816D01*
X48533276Y-65652146D01*
X48598162Y-65692917D01*
X48650478Y-65725789D01*
X48740620Y-65757331D01*
X48820745Y-65785368D01*
X48820750Y-65785369D01*
X48999996Y-65805565D01*
X49000000Y-65805565D01*
X49000004Y-65805565D01*
X49179249Y-65785369D01*
X49179252Y-65785368D01*
X49179255Y-65785368D01*
X49349522Y-65725789D01*
X49502262Y-65629816D01*
X49629816Y-65502262D01*
X49631237Y-65500000D01*
X55094540Y-65500000D01*
X55114326Y-65688256D01*
X55114327Y-65688259D01*
X55172818Y-65868277D01*
X55172821Y-65868284D01*
X55267467Y-66032216D01*
X55373090Y-66149522D01*
X55394129Y-66172888D01*
X55547265Y-66284148D01*
X55547270Y-66284151D01*
X55720192Y-66361142D01*
X55720197Y-66361144D01*
X55905354Y-66400500D01*
X55905355Y-66400500D01*
X56094644Y-66400500D01*
X56094646Y-66400500D01*
X56279803Y-66361144D01*
X56452730Y-66284151D01*
X56605871Y-66172888D01*
X56732533Y-66032216D01*
X56827179Y-65868284D01*
X56885674Y-65688256D01*
X56905460Y-65500000D01*
X56885674Y-65311744D01*
X56827179Y-65131716D01*
X56732533Y-64967784D01*
X56605871Y-64827112D01*
X56605870Y-64827111D01*
X56452734Y-64715851D01*
X56452729Y-64715848D01*
X56279807Y-64638857D01*
X56279802Y-64638855D01*
X56134001Y-64607865D01*
X56094646Y-64599500D01*
X55905354Y-64599500D01*
X55872897Y-64606398D01*
X55720197Y-64638855D01*
X55720192Y-64638857D01*
X55547270Y-64715848D01*
X55547265Y-64715851D01*
X55394129Y-64827111D01*
X55267466Y-64967785D01*
X55172821Y-65131715D01*
X55172818Y-65131722D01*
X55114327Y-65311740D01*
X55114326Y-65311744D01*
X55094540Y-65500000D01*
X49631237Y-65500000D01*
X49725789Y-65349522D01*
X49785368Y-65179255D01*
X49790724Y-65131722D01*
X49805565Y-65000003D01*
X49805565Y-64999996D01*
X49785369Y-64820750D01*
X49785368Y-64820745D01*
X49774610Y-64790000D01*
X49725789Y-64650478D01*
X49718486Y-64638856D01*
X49629815Y-64497737D01*
X49502262Y-64370184D01*
X49349523Y-64274211D01*
X49179254Y-64214631D01*
X49179249Y-64214630D01*
X49000004Y-64194435D01*
X48999996Y-64194435D01*
X48820750Y-64214630D01*
X48820745Y-64214631D01*
X48650476Y-64274211D01*
X48497737Y-64370184D01*
X48370184Y-64497737D01*
X48274211Y-64650476D01*
X48214631Y-64820745D01*
X48214630Y-64820750D01*
X48194435Y-64999996D01*
X48194435Y-65000003D01*
X23801214Y-65000003D01*
X23829157Y-64936300D01*
X23886134Y-64711305D01*
X23886135Y-64711297D01*
X23905300Y-64480006D01*
X23905300Y-64479993D01*
X23886135Y-64248702D01*
X23886133Y-64248691D01*
X23829157Y-64023699D01*
X23735924Y-63811151D01*
X23608983Y-63616852D01*
X23608980Y-63616849D01*
X23608979Y-63616847D01*
X23451784Y-63446087D01*
X23408857Y-63412675D01*
X23273773Y-63307535D01*
X23232960Y-63250825D01*
X23232917Y-63250003D01*
X27944435Y-63250003D01*
X27964630Y-63429249D01*
X27964631Y-63429254D01*
X28024211Y-63599523D01*
X28120184Y-63752262D01*
X28247738Y-63879816D01*
X28400478Y-63975789D01*
X28537397Y-64023699D01*
X28570745Y-64035368D01*
X28570750Y-64035369D01*
X28749996Y-64055565D01*
X28750000Y-64055565D01*
X28750004Y-64055565D01*
X28929249Y-64035369D01*
X28929252Y-64035368D01*
X28929255Y-64035368D01*
X29099522Y-63975789D01*
X29252262Y-63879816D01*
X29379816Y-63752262D01*
X29475789Y-63599522D01*
X29535368Y-63429255D01*
X29535682Y-63426470D01*
X29555565Y-63250003D01*
X29555565Y-63249996D01*
X29535369Y-63070750D01*
X29535368Y-63070745D01*
X29522562Y-63034148D01*
X29475789Y-62900478D01*
X29379816Y-62747738D01*
X29252262Y-62620184D01*
X29233836Y-62608606D01*
X29099523Y-62524211D01*
X28929254Y-62464631D01*
X28929249Y-62464630D01*
X28750004Y-62444435D01*
X28749996Y-62444435D01*
X28570750Y-62464630D01*
X28570745Y-62464631D01*
X28400476Y-62524211D01*
X28247737Y-62620184D01*
X28120184Y-62747737D01*
X28024211Y-62900476D01*
X27964631Y-63070745D01*
X27964630Y-63070750D01*
X27944435Y-63249996D01*
X27944435Y-63250003D01*
X23232917Y-63250003D01*
X23229286Y-63181052D01*
X23263918Y-63120369D01*
X23273774Y-63111828D01*
X23298798Y-63092351D01*
X22632533Y-62426086D01*
X22642315Y-62424680D01*
X22773100Y-62364952D01*
X22881761Y-62270798D01*
X22959493Y-62149844D01*
X22983076Y-62069524D01*
X23651186Y-62737634D01*
X23735484Y-62608606D01*
X23828682Y-62396135D01*
X23865688Y-62250000D01*
X42094540Y-62250000D01*
X42114326Y-62438256D01*
X42114327Y-62438259D01*
X42172818Y-62618277D01*
X42172821Y-62618284D01*
X42267467Y-62782216D01*
X42373949Y-62900476D01*
X42394129Y-62922888D01*
X42547265Y-63034148D01*
X42547270Y-63034151D01*
X42720192Y-63111142D01*
X42720197Y-63111144D01*
X42905354Y-63150500D01*
X42905355Y-63150500D01*
X43094644Y-63150500D01*
X43094646Y-63150500D01*
X43279803Y-63111144D01*
X43452730Y-63034151D01*
X43605871Y-62922888D01*
X43732533Y-62782216D01*
X43827179Y-62618284D01*
X43885674Y-62438256D01*
X43905459Y-62250006D01*
X97244700Y-62250006D01*
X97263864Y-62481297D01*
X97263866Y-62481308D01*
X97320842Y-62706300D01*
X97414075Y-62918848D01*
X97541016Y-63113147D01*
X97541019Y-63113151D01*
X97541021Y-63113153D01*
X97698216Y-63283913D01*
X97876225Y-63422462D01*
X97917038Y-63479173D01*
X97920713Y-63548946D01*
X97886082Y-63609629D01*
X97876223Y-63618171D01*
X97851200Y-63637645D01*
X97851200Y-63637647D01*
X98517466Y-64303913D01*
X98507685Y-64305320D01*
X98376900Y-64365048D01*
X98268239Y-64459202D01*
X98190507Y-64580156D01*
X98166923Y-64660476D01*
X97498812Y-63992365D01*
X97414516Y-64121391D01*
X97414514Y-64121395D01*
X97321317Y-64333864D01*
X97264361Y-64558781D01*
X97245202Y-64789994D01*
X97245202Y-64790005D01*
X97264361Y-65021218D01*
X97321317Y-65246135D01*
X97414516Y-65458609D01*
X97498811Y-65587633D01*
X98166922Y-64919523D01*
X98190507Y-64999844D01*
X98268239Y-65120798D01*
X98376900Y-65214952D01*
X98507685Y-65274680D01*
X98517466Y-65276086D01*
X97851199Y-65942351D01*
X97881650Y-65966050D01*
X98085697Y-66076476D01*
X98085706Y-66076479D01*
X98305139Y-66151811D01*
X98533993Y-66190000D01*
X98766007Y-66190000D01*
X98994860Y-66151811D01*
X99214293Y-66076479D01*
X99214302Y-66076476D01*
X99418350Y-65966050D01*
X99448798Y-65942351D01*
X98782533Y-65276086D01*
X98792315Y-65274680D01*
X98923100Y-65214952D01*
X99031761Y-65120798D01*
X99109493Y-64999844D01*
X99133076Y-64919524D01*
X99801186Y-65587634D01*
X99885484Y-65458606D01*
X99978682Y-65246135D01*
X100035638Y-65021218D01*
X100054798Y-64790005D01*
X100054798Y-64789994D01*
X100035638Y-64558781D01*
X99978682Y-64333864D01*
X99885483Y-64121390D01*
X99801186Y-63992364D01*
X99133076Y-64660475D01*
X99109493Y-64580156D01*
X99031761Y-64459202D01*
X98923100Y-64365048D01*
X98792315Y-64305320D01*
X98782534Y-64303913D01*
X99448799Y-63637648D01*
X99448798Y-63637647D01*
X99423775Y-63618171D01*
X99382961Y-63561461D01*
X99379286Y-63491688D01*
X99413916Y-63431004D01*
X99423760Y-63422473D01*
X99601784Y-63283913D01*
X99758979Y-63113153D01*
X99885924Y-62918849D01*
X99979157Y-62706300D01*
X100036134Y-62481305D01*
X100040826Y-62424680D01*
X100055300Y-62250006D01*
X100055300Y-62249993D01*
X100036135Y-62018702D01*
X100036133Y-62018691D01*
X99979157Y-61793699D01*
X99885924Y-61581151D01*
X99758983Y-61386852D01*
X99758980Y-61386849D01*
X99758979Y-61386847D01*
X99601784Y-61216087D01*
X99424180Y-61077853D01*
X99383368Y-61021143D01*
X99379693Y-60951370D01*
X99414324Y-60890687D01*
X99424181Y-60882146D01*
X99426323Y-60880479D01*
X99601784Y-60743913D01*
X99758979Y-60573153D01*
X99759431Y-60572462D01*
X99842945Y-60444633D01*
X99885924Y-60378849D01*
X99942441Y-60250003D01*
X103444435Y-60250003D01*
X103464630Y-60429249D01*
X103464631Y-60429254D01*
X103524211Y-60599523D01*
X103604775Y-60727739D01*
X103620184Y-60752262D01*
X103747738Y-60879816D01*
X103900478Y-60975789D01*
X104030092Y-61021143D01*
X104070745Y-61035368D01*
X104070750Y-61035369D01*
X104249996Y-61055565D01*
X104250000Y-61055565D01*
X104250004Y-61055565D01*
X104429249Y-61035369D01*
X104429252Y-61035368D01*
X104429255Y-61035368D01*
X104599522Y-60975789D01*
X104752262Y-60879816D01*
X104879816Y-60752262D01*
X104975789Y-60599522D01*
X105035368Y-60429255D01*
X105035911Y-60424436D01*
X105055565Y-60250003D01*
X105055565Y-60249996D01*
X105035369Y-60070750D01*
X105035368Y-60070745D01*
X104975788Y-59900476D01*
X104903461Y-59785369D01*
X104879816Y-59747738D01*
X104752262Y-59620184D01*
X104599523Y-59524211D01*
X104429254Y-59464631D01*
X104429249Y-59464630D01*
X104250004Y-59444435D01*
X104249996Y-59444435D01*
X104070750Y-59464630D01*
X104070745Y-59464631D01*
X103900476Y-59524211D01*
X103747737Y-59620184D01*
X103620184Y-59747737D01*
X103524211Y-59900476D01*
X103464631Y-60070745D01*
X103464630Y-60070750D01*
X103444435Y-60249996D01*
X103444435Y-60250003D01*
X99942441Y-60250003D01*
X99979157Y-60166300D01*
X100036134Y-59941305D01*
X100043178Y-59856300D01*
X100055300Y-59710006D01*
X100055300Y-59709993D01*
X100036135Y-59478702D01*
X100036133Y-59478691D01*
X99979157Y-59253699D01*
X99885924Y-59041151D01*
X99758983Y-58846852D01*
X99758980Y-58846849D01*
X99758979Y-58846847D01*
X99601784Y-58676087D01*
X99424180Y-58537853D01*
X99383368Y-58481143D01*
X99379693Y-58411370D01*
X99414324Y-58350687D01*
X99424181Y-58342146D01*
X99601784Y-58203913D01*
X99758979Y-58033153D01*
X99885924Y-57838849D01*
X99924896Y-57750003D01*
X101694435Y-57750003D01*
X101714630Y-57929249D01*
X101714631Y-57929254D01*
X101774211Y-58099523D01*
X101853549Y-58225788D01*
X101870184Y-58252262D01*
X101997738Y-58379816D01*
X102028042Y-58398857D01*
X102139084Y-58468630D01*
X102150478Y-58475789D01*
X102303441Y-58529313D01*
X102320745Y-58535368D01*
X102320750Y-58535369D01*
X102499996Y-58555565D01*
X102500000Y-58555565D01*
X102500004Y-58555565D01*
X102679249Y-58535369D01*
X102679252Y-58535368D01*
X102679255Y-58535368D01*
X102849522Y-58475789D01*
X103002262Y-58379816D01*
X103129816Y-58252262D01*
X103225789Y-58099522D01*
X103285368Y-57929255D01*
X103294244Y-57850478D01*
X103305565Y-57750003D01*
X103305565Y-57749996D01*
X103285369Y-57570750D01*
X103285368Y-57570745D01*
X103251589Y-57474211D01*
X103225789Y-57400478D01*
X103129816Y-57247738D01*
X103002262Y-57120184D01*
X102849523Y-57024211D01*
X102679254Y-56964631D01*
X102679249Y-56964630D01*
X102500004Y-56944435D01*
X102499996Y-56944435D01*
X102320750Y-56964630D01*
X102320745Y-56964631D01*
X102150476Y-57024211D01*
X101997737Y-57120184D01*
X101870184Y-57247737D01*
X101774211Y-57400476D01*
X101714631Y-57570745D01*
X101714630Y-57570750D01*
X101694435Y-57749996D01*
X101694435Y-57750003D01*
X99924896Y-57750003D01*
X99979157Y-57626300D01*
X100036134Y-57401305D01*
X100036203Y-57400476D01*
X100055300Y-57170006D01*
X100055300Y-57169993D01*
X100036135Y-56938702D01*
X100036133Y-56938691D01*
X99979157Y-56713699D01*
X99885924Y-56501151D01*
X99758983Y-56306852D01*
X99758980Y-56306849D01*
X99758979Y-56306847D01*
X99601784Y-56136087D01*
X99424180Y-55997853D01*
X99383368Y-55941143D01*
X99379693Y-55871370D01*
X99414324Y-55810687D01*
X99424181Y-55802146D01*
X99601784Y-55663913D01*
X99758979Y-55493153D01*
X99885924Y-55298849D01*
X99979157Y-55086300D01*
X100036134Y-54861305D01*
X100041219Y-54799938D01*
X100055300Y-54630006D01*
X100055300Y-54629993D01*
X100036135Y-54398702D01*
X100036133Y-54398691D01*
X99979157Y-54173699D01*
X99885924Y-53961151D01*
X99758983Y-53766852D01*
X99758980Y-53766849D01*
X99758979Y-53766847D01*
X99601784Y-53596087D01*
X99506485Y-53521913D01*
X99423773Y-53457535D01*
X99382960Y-53400825D01*
X99379286Y-53331052D01*
X99413918Y-53270369D01*
X99423774Y-53261828D01*
X99448798Y-53242351D01*
X98782533Y-52576086D01*
X98792315Y-52574680D01*
X98923100Y-52514952D01*
X99031761Y-52420798D01*
X99109493Y-52299844D01*
X99133076Y-52219524D01*
X99801186Y-52887634D01*
X99885484Y-52758606D01*
X99978682Y-52546135D01*
X100035638Y-52321218D01*
X100054798Y-52090005D01*
X100054798Y-52089994D01*
X100035638Y-51858781D01*
X99978682Y-51633864D01*
X99885483Y-51421390D01*
X99801186Y-51292364D01*
X99133076Y-51960475D01*
X99109493Y-51880156D01*
X99031761Y-51759202D01*
X98923100Y-51665048D01*
X98792315Y-51605320D01*
X98782533Y-51603913D01*
X99399628Y-50986818D01*
X99460951Y-50953333D01*
X99487308Y-50950499D01*
X99597872Y-50950499D01*
X99657483Y-50944091D01*
X99792331Y-50893796D01*
X99907546Y-50807546D01*
X99993796Y-50692331D01*
X100044091Y-50557483D01*
X100050500Y-50497873D01*
X100050500Y-49774334D01*
X101049500Y-49774334D01*
X101090429Y-50019616D01*
X101171169Y-50254802D01*
X101171172Y-50254811D01*
X101228594Y-50360917D01*
X101289526Y-50473509D01*
X101442262Y-50669744D01*
X101591953Y-50807544D01*
X101625217Y-50838166D01*
X101833393Y-50974173D01*
X102061118Y-51074063D01*
X102302175Y-51135107D01*
X102302179Y-51135108D01*
X102302181Y-51135108D01*
X102302186Y-51135109D01*
X102435376Y-51146145D01*
X102487933Y-51150500D01*
X102487935Y-51150500D01*
X102612065Y-51150500D01*
X102612067Y-51150500D01*
X102673284Y-51145427D01*
X102797813Y-51135109D01*
X102797816Y-51135108D01*
X102797821Y-51135108D01*
X103038881Y-51074063D01*
X103266607Y-50974173D01*
X103474785Y-50838164D01*
X103657738Y-50669744D01*
X103810474Y-50473509D01*
X103928828Y-50254810D01*
X104009571Y-50019614D01*
X104050500Y-49774335D01*
X104050500Y-49525665D01*
X104009571Y-49280386D01*
X103928828Y-49045190D01*
X103921539Y-49031722D01*
X103810475Y-48826493D01*
X103810474Y-48826491D01*
X103657738Y-48630256D01*
X103495850Y-48481228D01*
X103474782Y-48461833D01*
X103266606Y-48325826D01*
X103038881Y-48225936D01*
X102797824Y-48164892D01*
X102797813Y-48164890D01*
X102632548Y-48151197D01*
X102612067Y-48149500D01*
X102487933Y-48149500D01*
X102468521Y-48151108D01*
X102302186Y-48164890D01*
X102302175Y-48164892D01*
X102061118Y-48225936D01*
X101833393Y-48325826D01*
X101625217Y-48461833D01*
X101442261Y-48630257D01*
X101289524Y-48826493D01*
X101171172Y-49045188D01*
X101171169Y-49045197D01*
X101090429Y-49280383D01*
X101049500Y-49525665D01*
X101049500Y-49774334D01*
X100050500Y-49774334D01*
X100050499Y-48602128D01*
X100044091Y-48542517D01*
X100042725Y-48538855D01*
X99993797Y-48407671D01*
X99993793Y-48407664D01*
X99907547Y-48292455D01*
X99907544Y-48292452D01*
X99792335Y-48206206D01*
X99792328Y-48206202D01*
X99657482Y-48155908D01*
X99657483Y-48155908D01*
X99597883Y-48149501D01*
X99597881Y-48149500D01*
X99597873Y-48149500D01*
X99597864Y-48149500D01*
X97702129Y-48149500D01*
X97702123Y-48149501D01*
X97642516Y-48155908D01*
X97507671Y-48206202D01*
X97507664Y-48206206D01*
X97392455Y-48292452D01*
X97392452Y-48292455D01*
X97306206Y-48407664D01*
X97306202Y-48407671D01*
X97255908Y-48542517D01*
X97251528Y-48583261D01*
X97249501Y-48602123D01*
X97249500Y-48602135D01*
X97249500Y-50497870D01*
X97249501Y-50497876D01*
X97255908Y-50557483D01*
X97306202Y-50692328D01*
X97306206Y-50692335D01*
X97392452Y-50807544D01*
X97392455Y-50807547D01*
X97507664Y-50893793D01*
X97507671Y-50893797D01*
X97552618Y-50910561D01*
X97642517Y-50944091D01*
X97702127Y-50950500D01*
X97812692Y-50950499D01*
X97879729Y-50970183D01*
X97900371Y-50986818D01*
X98517466Y-51603913D01*
X98507685Y-51605320D01*
X98376900Y-51665048D01*
X98268239Y-51759202D01*
X98190507Y-51880156D01*
X98166923Y-51960476D01*
X97498812Y-51292365D01*
X97414516Y-51421391D01*
X97414514Y-51421395D01*
X97321317Y-51633864D01*
X97264361Y-51858781D01*
X97245202Y-52089994D01*
X97245202Y-52090005D01*
X97264361Y-52321218D01*
X97321317Y-52546135D01*
X97414516Y-52758609D01*
X97498811Y-52887633D01*
X98166922Y-52219523D01*
X98190507Y-52299844D01*
X98268239Y-52420798D01*
X98376900Y-52514952D01*
X98507685Y-52574680D01*
X98517466Y-52576086D01*
X97851199Y-53242351D01*
X97876224Y-53261828D01*
X97917038Y-53318538D01*
X97920713Y-53388311D01*
X97886083Y-53448995D01*
X97876225Y-53457536D01*
X97698222Y-53596081D01*
X97698219Y-53596084D01*
X97698216Y-53596086D01*
X97698216Y-53596087D01*
X97661180Y-53636319D01*
X97541016Y-53766852D01*
X97414075Y-53961151D01*
X97320842Y-54173699D01*
X97263866Y-54398691D01*
X97263864Y-54398702D01*
X97244700Y-54629993D01*
X97244700Y-54630006D01*
X97263864Y-54861297D01*
X97263866Y-54861308D01*
X97320842Y-55086300D01*
X97414075Y-55298848D01*
X97541016Y-55493147D01*
X97541019Y-55493151D01*
X97541021Y-55493153D01*
X97698216Y-55663913D01*
X97698219Y-55663915D01*
X97698222Y-55663918D01*
X97875818Y-55802147D01*
X97916631Y-55858857D01*
X97920306Y-55928630D01*
X97885674Y-55989313D01*
X97875818Y-55997853D01*
X97698222Y-56136081D01*
X97698219Y-56136084D01*
X97698216Y-56136086D01*
X97698216Y-56136087D01*
X97658483Y-56179249D01*
X97541016Y-56306852D01*
X97414075Y-56501151D01*
X97320842Y-56713699D01*
X97263866Y-56938691D01*
X97263864Y-56938702D01*
X97244700Y-57169993D01*
X97244700Y-57170006D01*
X97263864Y-57401297D01*
X97263866Y-57401308D01*
X97320842Y-57626300D01*
X97414075Y-57838848D01*
X97541016Y-58033147D01*
X97541019Y-58033151D01*
X97541021Y-58033153D01*
X97698216Y-58203913D01*
X97698219Y-58203915D01*
X97698222Y-58203918D01*
X97875818Y-58342147D01*
X97916631Y-58398857D01*
X97920306Y-58468630D01*
X97885674Y-58529313D01*
X97875818Y-58537853D01*
X97698222Y-58676081D01*
X97698219Y-58676084D01*
X97541016Y-58846852D01*
X97414075Y-59041151D01*
X97320842Y-59253699D01*
X97263866Y-59478691D01*
X97263864Y-59478702D01*
X97244700Y-59709993D01*
X97244700Y-59710006D01*
X97263864Y-59941297D01*
X97263866Y-59941308D01*
X97320842Y-60166300D01*
X97414075Y-60378848D01*
X97541016Y-60573147D01*
X97541019Y-60573151D01*
X97541021Y-60573153D01*
X97698216Y-60743913D01*
X97698219Y-60743915D01*
X97698222Y-60743918D01*
X97875818Y-60882147D01*
X97916631Y-60938857D01*
X97920306Y-61008630D01*
X97885674Y-61069313D01*
X97875818Y-61077853D01*
X97698222Y-61216081D01*
X97698219Y-61216084D01*
X97698216Y-61216086D01*
X97698216Y-61216087D01*
X97685405Y-61230004D01*
X97541016Y-61386852D01*
X97414075Y-61581151D01*
X97320842Y-61793699D01*
X97263866Y-62018691D01*
X97263864Y-62018702D01*
X97244700Y-62249993D01*
X97244700Y-62250006D01*
X43905459Y-62250006D01*
X43905460Y-62250000D01*
X43885674Y-62061744D01*
X43827179Y-61881716D01*
X43732533Y-61717784D01*
X43605871Y-61577112D01*
X43605870Y-61577111D01*
X43452734Y-61465851D01*
X43452729Y-61465848D01*
X43279807Y-61388857D01*
X43279802Y-61388855D01*
X43134001Y-61357865D01*
X43094646Y-61349500D01*
X42905354Y-61349500D01*
X42872897Y-61356398D01*
X42720197Y-61388855D01*
X42720192Y-61388857D01*
X42547270Y-61465848D01*
X42547265Y-61465851D01*
X42394129Y-61577111D01*
X42267466Y-61717785D01*
X42172821Y-61881715D01*
X42172818Y-61881722D01*
X42114327Y-62061740D01*
X42114326Y-62061744D01*
X42094540Y-62250000D01*
X23865688Y-62250000D01*
X23885638Y-62171218D01*
X23904798Y-61940005D01*
X23904798Y-61939994D01*
X23885638Y-61708781D01*
X23828682Y-61483864D01*
X23735483Y-61271390D01*
X23708444Y-61230004D01*
X44694435Y-61230004D01*
X44714630Y-61409250D01*
X44714631Y-61409255D01*
X44774211Y-61579524D01*
X44855429Y-61708781D01*
X44870184Y-61732263D01*
X44997738Y-61859817D01*
X45150478Y-61955790D01*
X45310800Y-62011889D01*
X45320745Y-62015369D01*
X45320750Y-62015370D01*
X45499996Y-62035566D01*
X45500000Y-62035566D01*
X45500004Y-62035566D01*
X45679249Y-62015370D01*
X45679252Y-62015369D01*
X45679255Y-62015369D01*
X45849522Y-61955790D01*
X46002262Y-61859817D01*
X46129816Y-61732263D01*
X46225789Y-61579523D01*
X46285368Y-61409256D01*
X46285369Y-61409250D01*
X46305565Y-61230004D01*
X46305565Y-61229997D01*
X46285369Y-61050751D01*
X46285368Y-61050746D01*
X46227885Y-60886470D01*
X46225789Y-60880479D01*
X46225372Y-60879816D01*
X46129815Y-60727738D01*
X46002262Y-60600185D01*
X45849523Y-60504212D01*
X45679254Y-60444632D01*
X45679249Y-60444631D01*
X45500004Y-60424436D01*
X45499996Y-60424436D01*
X45320750Y-60444631D01*
X45320745Y-60444632D01*
X45150476Y-60504212D01*
X44997737Y-60600185D01*
X44870184Y-60727738D01*
X44774211Y-60880477D01*
X44714631Y-61050746D01*
X44714630Y-61050751D01*
X44694435Y-61229997D01*
X44694435Y-61230004D01*
X23708444Y-61230004D01*
X23651186Y-61142364D01*
X22983076Y-61810475D01*
X22959493Y-61730156D01*
X22881761Y-61609202D01*
X22773100Y-61515048D01*
X22642315Y-61455320D01*
X22632534Y-61453913D01*
X23298799Y-60787648D01*
X23298798Y-60787647D01*
X23273775Y-60768171D01*
X23232961Y-60711461D01*
X23229286Y-60641688D01*
X23263916Y-60581004D01*
X23273760Y-60572473D01*
X23451784Y-60433913D01*
X23608979Y-60263153D01*
X23735924Y-60068849D01*
X23829157Y-59856300D01*
X23886134Y-59631305D01*
X23886135Y-59631297D01*
X23905300Y-59400006D01*
X23905300Y-59399993D01*
X23886135Y-59168702D01*
X23886133Y-59168691D01*
X23843415Y-59000003D01*
X60994435Y-59000003D01*
X61014630Y-59179249D01*
X61014631Y-59179254D01*
X61074211Y-59349523D01*
X61105924Y-59399993D01*
X61170184Y-59502262D01*
X61297738Y-59629816D01*
X61300108Y-59631305D01*
X61425359Y-59710006D01*
X61450478Y-59725789D01*
X61513202Y-59747737D01*
X61620745Y-59785368D01*
X61620750Y-59785369D01*
X61799996Y-59805565D01*
X61800000Y-59805565D01*
X61800004Y-59805565D01*
X61979249Y-59785369D01*
X61979252Y-59785368D01*
X61979255Y-59785368D01*
X62149522Y-59725789D01*
X62302262Y-59629816D01*
X62429816Y-59502262D01*
X62525789Y-59349522D01*
X62585368Y-59179255D01*
X62593929Y-59103263D01*
X62620994Y-59038853D01*
X62678588Y-58999297D01*
X62703254Y-58993930D01*
X62779255Y-58985368D01*
X62949522Y-58925789D01*
X63102262Y-58829816D01*
X63229816Y-58702262D01*
X63325789Y-58549522D01*
X63385368Y-58379255D01*
X63386852Y-58366084D01*
X63405565Y-58200003D01*
X63405565Y-58199996D01*
X63385369Y-58020750D01*
X63385368Y-58020745D01*
X63378110Y-58000003D01*
X86444435Y-58000003D01*
X86464630Y-58179249D01*
X86464631Y-58179254D01*
X86524211Y-58349523D01*
X86603549Y-58475788D01*
X86620184Y-58502262D01*
X86747738Y-58629816D01*
X86900478Y-58725789D01*
X86915802Y-58731151D01*
X87070745Y-58785368D01*
X87070750Y-58785369D01*
X87249996Y-58805565D01*
X87250000Y-58805565D01*
X87250004Y-58805565D01*
X87429249Y-58785369D01*
X87429252Y-58785368D01*
X87429255Y-58785368D01*
X87599522Y-58725789D01*
X87752262Y-58629816D01*
X87879816Y-58502262D01*
X87975789Y-58349522D01*
X88035368Y-58179255D01*
X88035369Y-58179249D01*
X88055565Y-58000003D01*
X88055565Y-57999996D01*
X88035369Y-57820750D01*
X88035368Y-57820745D01*
X87992326Y-57697738D01*
X87975789Y-57650478D01*
X87879816Y-57497738D01*
X87752262Y-57370184D01*
X87599523Y-57274211D01*
X87429254Y-57214631D01*
X87429249Y-57214630D01*
X87250004Y-57194435D01*
X87249996Y-57194435D01*
X87070750Y-57214630D01*
X87070745Y-57214631D01*
X86900476Y-57274211D01*
X86747737Y-57370184D01*
X86620184Y-57497737D01*
X86524211Y-57650476D01*
X86464631Y-57820745D01*
X86464630Y-57820750D01*
X86444435Y-57999996D01*
X86444435Y-58000003D01*
X63378110Y-58000003D01*
X63325789Y-57850478D01*
X63325188Y-57849522D01*
X63229815Y-57697737D01*
X63102262Y-57570184D01*
X62949523Y-57474211D01*
X62779254Y-57414631D01*
X62779249Y-57414630D01*
X62600004Y-57394435D01*
X62599996Y-57394435D01*
X62420750Y-57414630D01*
X62420745Y-57414631D01*
X62250476Y-57474211D01*
X62097737Y-57570184D01*
X61970184Y-57697737D01*
X61874210Y-57850478D01*
X61814630Y-58020750D01*
X61806069Y-58096733D01*
X61779002Y-58161147D01*
X61721407Y-58200702D01*
X61696733Y-58206069D01*
X61620750Y-58214630D01*
X61450478Y-58274210D01*
X61297737Y-58370184D01*
X61170184Y-58497737D01*
X61074211Y-58650476D01*
X61014631Y-58820745D01*
X61014630Y-58820750D01*
X60994435Y-58999996D01*
X60994435Y-59000003D01*
X23843415Y-59000003D01*
X23829157Y-58943699D01*
X23735924Y-58731151D01*
X23608983Y-58536852D01*
X23608980Y-58536849D01*
X23608979Y-58536847D01*
X23451784Y-58366087D01*
X23451779Y-58366083D01*
X23451777Y-58366081D01*
X23268634Y-58223535D01*
X23268628Y-58223531D01*
X23064504Y-58113064D01*
X23064495Y-58113061D01*
X22844984Y-58037702D01*
X22673282Y-58009050D01*
X22616049Y-57999500D01*
X22383951Y-57999500D01*
X22338164Y-58007140D01*
X22155015Y-58037702D01*
X21935504Y-58113061D01*
X21935495Y-58113064D01*
X21731371Y-58223531D01*
X21731365Y-58223535D01*
X21548222Y-58366081D01*
X21548219Y-58366084D01*
X21548216Y-58366086D01*
X21548216Y-58366087D01*
X21536100Y-58379249D01*
X21391016Y-58536852D01*
X21264075Y-58731151D01*
X21170842Y-58943699D01*
X21113866Y-59168691D01*
X21113864Y-59168702D01*
X21094700Y-59399993D01*
X21094700Y-59400006D01*
X21113864Y-59631297D01*
X21113866Y-59631308D01*
X21170842Y-59856300D01*
X21264075Y-60068848D01*
X21391016Y-60263147D01*
X21391019Y-60263151D01*
X21391021Y-60263153D01*
X21548216Y-60433913D01*
X21638537Y-60504212D01*
X21726225Y-60572462D01*
X21767038Y-60629173D01*
X21770713Y-60698946D01*
X21736082Y-60759629D01*
X21726223Y-60768171D01*
X21701200Y-60787645D01*
X21701200Y-60787647D01*
X22367466Y-61453913D01*
X22357685Y-61455320D01*
X22226900Y-61515048D01*
X22118239Y-61609202D01*
X22040507Y-61730156D01*
X22016923Y-61810476D01*
X21348812Y-61142365D01*
X21264516Y-61271391D01*
X21264514Y-61271395D01*
X21171317Y-61483864D01*
X21114361Y-61708781D01*
X21095202Y-61939994D01*
X21095202Y-61940005D01*
X21114361Y-62171218D01*
X21171317Y-62396135D01*
X21264516Y-62608609D01*
X21348811Y-62737633D01*
X22016922Y-62069523D01*
X22040507Y-62149844D01*
X22118239Y-62270798D01*
X22226900Y-62364952D01*
X22357685Y-62424680D01*
X22367466Y-62426086D01*
X21701199Y-63092351D01*
X21726224Y-63111828D01*
X21767038Y-63168538D01*
X21770713Y-63238311D01*
X21736083Y-63298995D01*
X21726225Y-63307536D01*
X21548222Y-63446081D01*
X21548219Y-63446084D01*
X21548216Y-63446086D01*
X21548216Y-63446087D01*
X21489267Y-63510122D01*
X21391016Y-63616852D01*
X21264075Y-63811151D01*
X21170842Y-64023699D01*
X21113866Y-64248691D01*
X21113864Y-64248702D01*
X21094700Y-64479993D01*
X21094700Y-64480006D01*
X21113864Y-64711297D01*
X21113866Y-64711308D01*
X21170842Y-64936300D01*
X21264075Y-65148848D01*
X21391016Y-65343147D01*
X21391019Y-65343151D01*
X21391021Y-65343153D01*
X21548216Y-65513913D01*
X21548219Y-65513915D01*
X21548222Y-65513918D01*
X21725818Y-65652147D01*
X21766631Y-65708857D01*
X21770306Y-65778630D01*
X21735674Y-65839313D01*
X21725818Y-65847853D01*
X21548222Y-65986081D01*
X21548219Y-65986084D01*
X21548216Y-65986086D01*
X21548216Y-65986087D01*
X21489267Y-66050122D01*
X21391016Y-66156852D01*
X21264075Y-66351151D01*
X21170842Y-66563699D01*
X21113866Y-66788691D01*
X21113864Y-66788702D01*
X21094700Y-67019993D01*
X21094700Y-67020006D01*
X21113864Y-67251297D01*
X21113866Y-67251308D01*
X21170842Y-67476300D01*
X21264075Y-67688848D01*
X21391016Y-67883147D01*
X21391019Y-67883151D01*
X21391021Y-67883153D01*
X21548216Y-68053913D01*
X21548219Y-68053915D01*
X21548222Y-68053918D01*
X21725818Y-68192147D01*
X21766631Y-68248857D01*
X21770306Y-68318630D01*
X21735674Y-68379313D01*
X21725818Y-68387853D01*
X21548222Y-68526081D01*
X21548219Y-68526084D01*
X21391016Y-68696852D01*
X21264075Y-68891151D01*
X21170842Y-69103699D01*
X21113866Y-69328691D01*
X21113864Y-69328702D01*
X21094700Y-69559993D01*
X21094700Y-69560006D01*
X21113864Y-69791297D01*
X21113866Y-69791308D01*
X21170842Y-70016300D01*
X21264075Y-70228848D01*
X21391016Y-70423147D01*
X21391019Y-70423151D01*
X21391021Y-70423153D01*
X21548216Y-70593913D01*
X21548219Y-70593915D01*
X21548222Y-70593918D01*
X21725818Y-70732147D01*
X21766631Y-70788857D01*
X21770306Y-70858630D01*
X21735674Y-70919313D01*
X21725818Y-70927853D01*
X21548222Y-71066081D01*
X21548219Y-71066084D01*
X21391016Y-71236852D01*
X21264075Y-71431151D01*
X21170842Y-71643699D01*
X21113866Y-71868691D01*
X21113864Y-71868702D01*
X21094700Y-72099993D01*
X21094700Y-72100006D01*
X21113864Y-72331297D01*
X21113866Y-72331308D01*
X21170842Y-72556300D01*
X21264075Y-72768848D01*
X21391016Y-72963147D01*
X21391019Y-72963151D01*
X21391021Y-72963153D01*
X21548216Y-73133913D01*
X21548219Y-73133915D01*
X21548222Y-73133918D01*
X21725818Y-73272147D01*
X21766631Y-73328857D01*
X21770306Y-73398630D01*
X21735674Y-73459313D01*
X21725818Y-73467853D01*
X21548222Y-73606081D01*
X21548219Y-73606084D01*
X21391016Y-73776852D01*
X21264075Y-73971151D01*
X21170842Y-74183699D01*
X21113866Y-74408691D01*
X21113864Y-74408702D01*
X21094700Y-74639993D01*
X21094700Y-74640006D01*
X21113864Y-74871297D01*
X21113866Y-74871308D01*
X21170842Y-75096300D01*
X21264075Y-75308848D01*
X21391016Y-75503147D01*
X21391019Y-75503151D01*
X21391021Y-75503153D01*
X21548216Y-75673913D01*
X21548219Y-75673915D01*
X21548222Y-75673918D01*
X21725818Y-75812147D01*
X21766631Y-75868857D01*
X21770306Y-75938630D01*
X21735674Y-75999313D01*
X21725818Y-76007853D01*
X21548222Y-76146081D01*
X21548219Y-76146084D01*
X21391016Y-76316852D01*
X21264075Y-76511151D01*
X21170842Y-76723699D01*
X21113866Y-76948691D01*
X21113864Y-76948702D01*
X21094700Y-77179993D01*
X21094700Y-77180006D01*
X20500000Y-77180006D01*
X20500000Y-57500003D01*
X46694435Y-57500003D01*
X46714630Y-57679249D01*
X46714631Y-57679254D01*
X46774211Y-57849523D01*
X46868449Y-57999500D01*
X46870184Y-58002262D01*
X46997738Y-58129816D01*
X47047601Y-58161147D01*
X47146890Y-58223535D01*
X47150478Y-58225789D01*
X47288857Y-58274210D01*
X47320745Y-58285368D01*
X47320750Y-58285369D01*
X47499996Y-58305565D01*
X47500000Y-58305565D01*
X47500004Y-58305565D01*
X47679249Y-58285369D01*
X47679252Y-58285368D01*
X47679255Y-58285368D01*
X47849522Y-58225789D01*
X48002262Y-58129816D01*
X48129816Y-58002262D01*
X48225789Y-57849522D01*
X48285368Y-57679255D01*
X48285369Y-57679249D01*
X48305565Y-57500003D01*
X48305565Y-57499996D01*
X48285369Y-57320750D01*
X48285368Y-57320745D01*
X48232620Y-57170000D01*
X48225789Y-57150478D01*
X48129816Y-56997738D01*
X48002262Y-56870184D01*
X47899422Y-56805565D01*
X47849523Y-56774211D01*
X47679254Y-56714631D01*
X47679249Y-56714630D01*
X47500004Y-56694435D01*
X47499996Y-56694435D01*
X47320750Y-56714630D01*
X47320745Y-56714631D01*
X47150476Y-56774211D01*
X46997737Y-56870184D01*
X46870184Y-56997737D01*
X46774211Y-57150476D01*
X46714631Y-57320745D01*
X46714630Y-57320750D01*
X46694435Y-57499996D01*
X46694435Y-57500003D01*
X20500000Y-57500003D01*
X20500000Y-56000003D01*
X50694435Y-56000003D01*
X50714630Y-56179249D01*
X50714631Y-56179254D01*
X50774211Y-56349523D01*
X50811303Y-56408554D01*
X50870184Y-56502262D01*
X50997738Y-56629816D01*
X51088080Y-56686582D01*
X51138266Y-56718116D01*
X51150478Y-56725789D01*
X51288860Y-56774211D01*
X51320745Y-56785368D01*
X51320750Y-56785369D01*
X51499996Y-56805565D01*
X51500000Y-56805565D01*
X51500004Y-56805565D01*
X51679249Y-56785369D01*
X51679252Y-56785368D01*
X51679255Y-56785368D01*
X51679256Y-56785367D01*
X51679259Y-56785367D01*
X51711140Y-56774211D01*
X51787007Y-56747663D01*
X51856783Y-56744101D01*
X51915641Y-56777024D01*
X51997738Y-56859121D01*
X52150478Y-56955094D01*
X52272345Y-56997737D01*
X52320745Y-57014673D01*
X52320750Y-57014674D01*
X52499996Y-57034870D01*
X52500000Y-57034870D01*
X52500004Y-57034870D01*
X52679249Y-57014674D01*
X52679252Y-57014673D01*
X52679255Y-57014673D01*
X52849522Y-56955094D01*
X53002262Y-56859121D01*
X53129816Y-56731567D01*
X53225789Y-56578827D01*
X53285368Y-56408560D01*
X53296828Y-56306852D01*
X53305565Y-56229308D01*
X53305565Y-56229301D01*
X53285369Y-56050055D01*
X53285368Y-56050050D01*
X53225788Y-55879781D01*
X53175660Y-55800003D01*
X84994435Y-55800003D01*
X85014630Y-55979249D01*
X85014631Y-55979254D01*
X85074211Y-56149523D01*
X85124342Y-56229305D01*
X85170184Y-56302262D01*
X85297738Y-56429816D01*
X85450478Y-56525789D01*
X85602052Y-56578827D01*
X85620745Y-56585368D01*
X85620750Y-56585369D01*
X85799996Y-56605565D01*
X85800000Y-56605565D01*
X85800004Y-56605565D01*
X85979249Y-56585369D01*
X85979252Y-56585368D01*
X85979255Y-56585368D01*
X86149522Y-56525789D01*
X86302262Y-56429816D01*
X86429816Y-56302262D01*
X86525789Y-56149522D01*
X86585368Y-55979255D01*
X86597524Y-55871370D01*
X86605565Y-55800003D01*
X86605565Y-55799996D01*
X86585369Y-55620750D01*
X86585368Y-55620745D01*
X86577930Y-55599489D01*
X86525789Y-55450478D01*
X86521678Y-55443936D01*
X86429815Y-55297737D01*
X86302262Y-55170184D01*
X86149523Y-55074211D01*
X85979254Y-55014631D01*
X85979249Y-55014630D01*
X85800004Y-54994435D01*
X85799996Y-54994435D01*
X85620750Y-55014630D01*
X85620745Y-55014631D01*
X85450476Y-55074211D01*
X85297737Y-55170184D01*
X85170184Y-55297737D01*
X85074211Y-55450476D01*
X85014631Y-55620745D01*
X85014630Y-55620750D01*
X84994435Y-55799996D01*
X84994435Y-55800003D01*
X53175660Y-55800003D01*
X53129815Y-55727042D01*
X53002262Y-55599489D01*
X52849523Y-55503516D01*
X52679254Y-55443936D01*
X52679249Y-55443935D01*
X52500004Y-55423740D01*
X52499996Y-55423740D01*
X52320750Y-55443935D01*
X52320742Y-55443937D01*
X52212993Y-55481640D01*
X52143214Y-55485201D01*
X52084358Y-55452280D01*
X52055818Y-55423740D01*
X52002262Y-55370184D01*
X51957961Y-55342348D01*
X51849523Y-55274211D01*
X51679254Y-55214631D01*
X51679249Y-55214630D01*
X51500004Y-55194435D01*
X51499996Y-55194435D01*
X51320750Y-55214630D01*
X51320745Y-55214631D01*
X51150476Y-55274211D01*
X50997737Y-55370184D01*
X50870184Y-55497737D01*
X50774211Y-55650476D01*
X50714631Y-55820745D01*
X50714630Y-55820750D01*
X50694435Y-55999996D01*
X50694435Y-56000003D01*
X20500000Y-56000003D01*
X20500000Y-53500000D01*
X35344540Y-53500000D01*
X35364326Y-53688256D01*
X35364327Y-53688259D01*
X35422818Y-53868277D01*
X35422821Y-53868284D01*
X35517467Y-54032216D01*
X35569163Y-54089630D01*
X35644129Y-54172888D01*
X35797265Y-54284148D01*
X35797270Y-54284151D01*
X35970192Y-54361142D01*
X35970197Y-54361144D01*
X36155354Y-54400500D01*
X36155355Y-54400500D01*
X36344644Y-54400500D01*
X36344646Y-54400500D01*
X36529803Y-54361144D01*
X36702730Y-54284151D01*
X36749735Y-54250000D01*
X39844540Y-54250000D01*
X39864326Y-54438256D01*
X39864327Y-54438259D01*
X39922818Y-54618277D01*
X39922821Y-54618284D01*
X40017467Y-54782216D01*
X40101013Y-54875003D01*
X40144129Y-54922888D01*
X40297265Y-55034148D01*
X40297270Y-55034151D01*
X40470192Y-55111142D01*
X40470197Y-55111144D01*
X40655354Y-55150500D01*
X40655355Y-55150500D01*
X40844644Y-55150500D01*
X40844646Y-55150500D01*
X41029803Y-55111144D01*
X41202730Y-55034151D01*
X41355871Y-54922888D01*
X41482533Y-54782216D01*
X41517613Y-54721454D01*
X41568179Y-54673240D01*
X41636786Y-54660016D01*
X41701651Y-54685984D01*
X41732385Y-54721453D01*
X41748869Y-54750003D01*
X41767467Y-54782216D01*
X41894129Y-54922888D01*
X42047265Y-55034148D01*
X42047270Y-55034151D01*
X42220192Y-55111142D01*
X42220197Y-55111144D01*
X42405354Y-55150500D01*
X42405355Y-55150500D01*
X42594644Y-55150500D01*
X42594646Y-55150500D01*
X42779803Y-55111144D01*
X42952730Y-55034151D01*
X43105871Y-54922888D01*
X43232533Y-54782216D01*
X43327179Y-54618284D01*
X43385674Y-54438256D01*
X43405460Y-54250000D01*
X43385674Y-54061744D01*
X43327179Y-53881716D01*
X43251135Y-53750003D01*
X46694435Y-53750003D01*
X46714630Y-53929249D01*
X46714631Y-53929254D01*
X46774211Y-54099523D01*
X46853549Y-54225788D01*
X46870184Y-54252262D01*
X46997738Y-54379816D01*
X47150478Y-54475789D01*
X47292475Y-54525476D01*
X47320745Y-54535368D01*
X47320750Y-54535369D01*
X47499996Y-54555565D01*
X47500000Y-54555565D01*
X47500002Y-54555565D01*
X47529449Y-54552246D01*
X47564610Y-54548285D01*
X47633432Y-54560339D01*
X47684811Y-54607688D01*
X47702436Y-54675298D01*
X47701714Y-54685388D01*
X47694435Y-54749995D01*
X47694435Y-54750003D01*
X47714630Y-54929249D01*
X47714631Y-54929254D01*
X47774211Y-55099523D01*
X47846538Y-55214630D01*
X47870184Y-55252262D01*
X47997738Y-55379816D01*
X48067643Y-55423740D01*
X48110192Y-55450476D01*
X48150478Y-55475789D01*
X48251643Y-55511188D01*
X48320745Y-55535368D01*
X48320750Y-55535369D01*
X48499996Y-55555565D01*
X48500000Y-55555565D01*
X48500004Y-55555565D01*
X48679249Y-55535369D01*
X48679252Y-55535368D01*
X48679255Y-55535368D01*
X48849522Y-55475789D01*
X49002262Y-55379816D01*
X49129816Y-55252262D01*
X49145007Y-55228084D01*
X49197339Y-55181796D01*
X49266393Y-55171146D01*
X49330242Y-55199521D01*
X49354990Y-55228082D01*
X49370184Y-55252262D01*
X49497738Y-55379816D01*
X49567643Y-55423740D01*
X49610192Y-55450476D01*
X49650478Y-55475789D01*
X49751643Y-55511188D01*
X49820745Y-55535368D01*
X49820750Y-55535369D01*
X49999996Y-55555565D01*
X50000000Y-55555565D01*
X50000004Y-55555565D01*
X50179249Y-55535369D01*
X50179252Y-55535368D01*
X50179255Y-55535368D01*
X50349522Y-55475789D01*
X50502262Y-55379816D01*
X50629816Y-55252262D01*
X50725789Y-55099522D01*
X50785368Y-54929255D01*
X50788866Y-54898203D01*
X50798614Y-54875003D01*
X53069435Y-54875003D01*
X53089630Y-55054249D01*
X53089631Y-55054254D01*
X53149211Y-55224523D01*
X53240736Y-55370183D01*
X53245184Y-55377262D01*
X53372738Y-55504816D01*
X53525478Y-55600789D01*
X53667475Y-55650476D01*
X53695745Y-55660368D01*
X53695750Y-55660369D01*
X53874996Y-55680565D01*
X53875000Y-55680565D01*
X53875004Y-55680565D01*
X54054249Y-55660369D01*
X54054252Y-55660368D01*
X54054255Y-55660368D01*
X54224522Y-55600789D01*
X54377262Y-55504816D01*
X54504816Y-55377262D01*
X54600789Y-55224522D01*
X54660368Y-55054255D01*
X54662633Y-55034151D01*
X54680565Y-54875003D01*
X54680565Y-54874996D01*
X54660369Y-54695750D01*
X54660368Y-54695745D01*
X54633261Y-54618277D01*
X54600789Y-54525478D01*
X54586201Y-54502262D01*
X54509263Y-54379816D01*
X54504816Y-54372738D01*
X54377262Y-54245184D01*
X54346395Y-54225789D01*
X54224523Y-54149211D01*
X54054254Y-54089631D01*
X54054249Y-54089630D01*
X53875004Y-54069435D01*
X53874996Y-54069435D01*
X53695750Y-54089630D01*
X53695745Y-54089631D01*
X53525476Y-54149211D01*
X53372737Y-54245184D01*
X53245184Y-54372737D01*
X53149211Y-54525476D01*
X53089631Y-54695745D01*
X53089630Y-54695750D01*
X53069435Y-54874996D01*
X53069435Y-54875003D01*
X50798614Y-54875003D01*
X50815930Y-54833792D01*
X50873523Y-54794235D01*
X50898196Y-54788867D01*
X50929255Y-54785368D01*
X51099522Y-54725789D01*
X51252262Y-54629816D01*
X51379816Y-54502262D01*
X51475789Y-54349522D01*
X51535368Y-54179255D01*
X51535994Y-54173699D01*
X51555565Y-54000003D01*
X51555565Y-53999997D01*
X51547960Y-53932503D01*
X51560014Y-53863681D01*
X51607363Y-53812301D01*
X51674973Y-53794677D01*
X51741379Y-53816403D01*
X51776174Y-53852647D01*
X51826351Y-53932503D01*
X51870184Y-54002262D01*
X51997738Y-54129816D01*
X52150478Y-54225789D01*
X52317258Y-54284148D01*
X52320745Y-54285368D01*
X52320750Y-54285369D01*
X52499996Y-54305565D01*
X52500000Y-54305565D01*
X52500004Y-54305565D01*
X52679249Y-54285369D01*
X52679252Y-54285368D01*
X52679255Y-54285368D01*
X52849522Y-54225789D01*
X53002262Y-54129816D01*
X53129816Y-54002262D01*
X53225789Y-53849522D01*
X53285368Y-53679255D01*
X53288038Y-53655560D01*
X53305565Y-53500003D01*
X53305565Y-53499996D01*
X53285369Y-53320750D01*
X53285368Y-53320745D01*
X53225788Y-53150476D01*
X53146450Y-53024211D01*
X53129816Y-52997738D01*
X53002262Y-52870184D01*
X52969379Y-52849522D01*
X52849523Y-52774211D01*
X52679254Y-52714631D01*
X52679249Y-52714630D01*
X52500004Y-52694435D01*
X52499996Y-52694435D01*
X52320750Y-52714630D01*
X52320745Y-52714631D01*
X52150476Y-52774211D01*
X51997737Y-52870184D01*
X51870184Y-52997737D01*
X51774211Y-53150476D01*
X51714631Y-53320745D01*
X51714630Y-53320750D01*
X51694435Y-53499996D01*
X51694435Y-53500004D01*
X51702039Y-53567497D01*
X51689984Y-53636319D01*
X51642635Y-53687698D01*
X51575024Y-53705322D01*
X51508618Y-53683595D01*
X51473825Y-53647352D01*
X51429689Y-53577111D01*
X51379816Y-53497738D01*
X51252262Y-53370184D01*
X51189984Y-53331052D01*
X51099523Y-53274211D01*
X50929254Y-53214631D01*
X50929249Y-53214630D01*
X50750004Y-53194435D01*
X50749996Y-53194435D01*
X50570750Y-53214630D01*
X50570745Y-53214631D01*
X50400476Y-53274211D01*
X50247737Y-53370184D01*
X50120184Y-53497737D01*
X50104994Y-53521913D01*
X50052659Y-53568204D01*
X49983605Y-53578852D01*
X49919757Y-53550477D01*
X49895006Y-53521913D01*
X49879816Y-53497738D01*
X49752262Y-53370184D01*
X49689984Y-53331052D01*
X49599523Y-53274211D01*
X49429254Y-53214631D01*
X49429249Y-53214630D01*
X49250004Y-53194435D01*
X49249996Y-53194435D01*
X49070750Y-53214630D01*
X49070745Y-53214631D01*
X48900476Y-53274211D01*
X48747737Y-53370184D01*
X48620184Y-53497737D01*
X48520506Y-53656374D01*
X48519211Y-53655560D01*
X48477845Y-53701364D01*
X48410415Y-53719667D01*
X48343794Y-53698609D01*
X48299134Y-53644876D01*
X48289743Y-53609580D01*
X48285368Y-53570745D01*
X48225789Y-53400478D01*
X48218486Y-53388856D01*
X48182166Y-53331052D01*
X48129816Y-53247738D01*
X48002262Y-53120184D01*
X47849523Y-53024211D01*
X47679254Y-52964631D01*
X47679249Y-52964630D01*
X47500004Y-52944435D01*
X47499996Y-52944435D01*
X47320750Y-52964630D01*
X47320745Y-52964631D01*
X47150476Y-53024211D01*
X46997737Y-53120184D01*
X46870184Y-53247737D01*
X46774211Y-53400476D01*
X46714631Y-53570745D01*
X46714630Y-53570750D01*
X46694435Y-53749996D01*
X46694435Y-53750003D01*
X43251135Y-53750003D01*
X43232533Y-53717784D01*
X43105871Y-53577112D01*
X43105870Y-53577111D01*
X42952734Y-53465851D01*
X42952729Y-53465848D01*
X42779807Y-53388857D01*
X42779802Y-53388855D01*
X42634001Y-53357865D01*
X42594646Y-53349500D01*
X42405354Y-53349500D01*
X42372897Y-53356398D01*
X42220197Y-53388855D01*
X42220192Y-53388857D01*
X42047270Y-53465848D01*
X42047265Y-53465851D01*
X41894129Y-53577111D01*
X41767466Y-53717785D01*
X41732387Y-53778544D01*
X41681820Y-53826760D01*
X41613213Y-53839983D01*
X41548348Y-53814015D01*
X41517613Y-53778544D01*
X41506549Y-53759381D01*
X41482533Y-53717784D01*
X41355871Y-53577112D01*
X41355870Y-53577111D01*
X41202734Y-53465851D01*
X41202729Y-53465848D01*
X41029807Y-53388857D01*
X41029802Y-53388855D01*
X40884001Y-53357865D01*
X40844646Y-53349500D01*
X40655354Y-53349500D01*
X40622897Y-53356398D01*
X40470197Y-53388855D01*
X40470192Y-53388857D01*
X40297270Y-53465848D01*
X40297265Y-53465851D01*
X40144129Y-53577111D01*
X40017466Y-53717785D01*
X39922821Y-53881715D01*
X39922818Y-53881722D01*
X39875000Y-54028893D01*
X39864326Y-54061744D01*
X39844540Y-54250000D01*
X36749735Y-54250000D01*
X36855871Y-54172888D01*
X36982533Y-54032216D01*
X37077179Y-53868284D01*
X37135674Y-53688256D01*
X37155460Y-53500000D01*
X37135674Y-53311744D01*
X37077179Y-53131716D01*
X36982533Y-52967784D01*
X36855871Y-52827112D01*
X36855870Y-52827111D01*
X36702734Y-52715851D01*
X36702729Y-52715848D01*
X36529807Y-52638857D01*
X36529802Y-52638855D01*
X36384001Y-52607865D01*
X36344646Y-52599500D01*
X36155354Y-52599500D01*
X36122897Y-52606398D01*
X35970197Y-52638855D01*
X35970192Y-52638857D01*
X35797270Y-52715848D01*
X35797265Y-52715851D01*
X35644129Y-52827111D01*
X35517466Y-52967785D01*
X35422821Y-53131715D01*
X35422818Y-53131722D01*
X35364327Y-53311740D01*
X35364326Y-53311744D01*
X35344540Y-53500000D01*
X20500000Y-53500000D01*
X20500000Y-52500003D01*
X53694435Y-52500003D01*
X53714630Y-52679249D01*
X53714631Y-52679254D01*
X53774211Y-52849523D01*
X53798158Y-52887634D01*
X53870184Y-53002262D01*
X53997738Y-53129816D01*
X54088080Y-53186582D01*
X54132721Y-53214632D01*
X54150478Y-53225789D01*
X54288860Y-53274211D01*
X54320745Y-53285368D01*
X54320750Y-53285369D01*
X54499996Y-53305565D01*
X54500000Y-53305565D01*
X54500004Y-53305565D01*
X54679249Y-53285369D01*
X54679252Y-53285368D01*
X54679255Y-53285368D01*
X54849522Y-53225789D01*
X55002262Y-53129816D01*
X55129816Y-53002262D01*
X55225789Y-52849522D01*
X55285368Y-52679255D01*
X55297151Y-52574680D01*
X55305565Y-52500003D01*
X55305565Y-52499996D01*
X55285369Y-52320750D01*
X55285368Y-52320745D01*
X55225788Y-52150476D01*
X55129815Y-51997737D01*
X55002262Y-51870184D01*
X54849523Y-51774211D01*
X54679254Y-51714631D01*
X54679249Y-51714630D01*
X54500004Y-51694435D01*
X54499996Y-51694435D01*
X54320750Y-51714630D01*
X54320745Y-51714631D01*
X54150476Y-51774211D01*
X53997737Y-51870184D01*
X53870184Y-51997737D01*
X53774211Y-52150476D01*
X53714631Y-52320745D01*
X53714630Y-52320750D01*
X53694435Y-52499996D01*
X53694435Y-52500003D01*
X20500000Y-52500003D01*
X20500000Y-49400000D01*
X44894540Y-49400000D01*
X44914326Y-49588256D01*
X44914327Y-49588259D01*
X44972818Y-49768277D01*
X44972821Y-49768284D01*
X45067467Y-49932216D01*
X45146161Y-50019614D01*
X45194129Y-50072888D01*
X45347265Y-50184148D01*
X45347270Y-50184151D01*
X45520192Y-50261142D01*
X45520197Y-50261144D01*
X45705354Y-50300500D01*
X45705355Y-50300500D01*
X45894644Y-50300500D01*
X45894646Y-50300500D01*
X46079803Y-50261144D01*
X46252730Y-50184151D01*
X46405871Y-50072888D01*
X46532533Y-49932216D01*
X46627179Y-49768284D01*
X46685674Y-49588256D01*
X46705460Y-49400000D01*
X46685674Y-49211744D01*
X46627179Y-49031716D01*
X46532533Y-48867784D01*
X46405871Y-48727112D01*
X46405870Y-48727111D01*
X46252734Y-48615851D01*
X46252729Y-48615848D01*
X46079807Y-48538857D01*
X46079802Y-48538855D01*
X45918550Y-48504581D01*
X45894646Y-48499500D01*
X45705354Y-48499500D01*
X45681450Y-48504581D01*
X45520197Y-48538855D01*
X45520192Y-48538857D01*
X45347270Y-48615848D01*
X45347265Y-48615851D01*
X45194129Y-48727111D01*
X45067466Y-48867785D01*
X44972821Y-49031715D01*
X44972818Y-49031722D01*
X44929645Y-49164596D01*
X44914326Y-49211744D01*
X44894540Y-49400000D01*
X20500000Y-49400000D01*
X20500000Y-46947807D01*
X20519685Y-46880768D01*
X20536319Y-46860126D01*
X21195951Y-46200494D01*
X21220102Y-46282745D01*
X21297057Y-46402489D01*
X21404631Y-46495702D01*
X21534108Y-46554833D01*
X21546882Y-46556669D01*
X20894015Y-47209536D01*
X20894016Y-47209537D01*
X20920366Y-47230046D01*
X20920372Y-47230050D01*
X21120769Y-47338499D01*
X21120780Y-47338504D01*
X21336298Y-47412492D01*
X21561065Y-47450000D01*
X21788935Y-47450000D01*
X22013701Y-47412492D01*
X22229219Y-47338504D01*
X22229230Y-47338499D01*
X22427506Y-47231199D01*
X22495834Y-47216604D01*
X22561206Y-47241267D01*
X22602867Y-47297358D01*
X22610140Y-47330523D01*
X22610769Y-47338504D01*
X22628853Y-47568297D01*
X22628853Y-47568300D01*
X22628854Y-47568302D01*
X22668206Y-47732214D01*
X22685830Y-47805619D01*
X22779222Y-48031089D01*
X22906737Y-48239173D01*
X22906738Y-48239176D01*
X22906741Y-48239179D01*
X23065241Y-48424759D01*
X23198832Y-48538856D01*
X23250823Y-48583261D01*
X23250826Y-48583262D01*
X23458910Y-48710777D01*
X23684381Y-48804169D01*
X23684378Y-48804169D01*
X23684384Y-48804170D01*
X23684388Y-48804172D01*
X23921698Y-48861146D01*
X24165000Y-48880294D01*
X24408302Y-48861146D01*
X24645612Y-48804172D01*
X24871089Y-48710777D01*
X25079179Y-48583259D01*
X25264759Y-48424759D01*
X25423259Y-48239179D01*
X25550777Y-48031089D01*
X25644172Y-47805612D01*
X25701146Y-47568302D01*
X25720294Y-47325000D01*
X25701146Y-47081698D01*
X25644172Y-46844388D01*
X25638923Y-46831715D01*
X25550777Y-46618910D01*
X25423262Y-46410826D01*
X25423261Y-46410823D01*
X25316924Y-46286319D01*
X25264759Y-46225241D01*
X25081446Y-46068677D01*
X25079176Y-46066738D01*
X25079173Y-46066737D01*
X24871089Y-45939222D01*
X24645618Y-45845830D01*
X24645621Y-45845830D01*
X24539992Y-45820470D01*
X24408302Y-45788854D01*
X24408300Y-45788853D01*
X24408297Y-45788853D01*
X24165000Y-45769706D01*
X23921702Y-45788853D01*
X23684380Y-45845830D01*
X23458910Y-45939222D01*
X23250826Y-46066737D01*
X23246885Y-46069601D01*
X23246214Y-46068677D01*
X23187363Y-46095035D01*
X23118280Y-46084585D01*
X23065812Y-46038444D01*
X23047039Y-45982410D01*
X23035894Y-45847905D01*
X22979954Y-45627006D01*
X22888420Y-45418330D01*
X22808124Y-45295427D01*
X22154048Y-45949503D01*
X22129898Y-45867255D01*
X22052943Y-45747511D01*
X21945369Y-45654298D01*
X21815892Y-45595167D01*
X21803116Y-45593330D01*
X22455983Y-44940462D01*
X22455983Y-44940461D01*
X22429632Y-44919952D01*
X22429627Y-44919949D01*
X22229230Y-44811500D01*
X22229219Y-44811495D01*
X22013701Y-44737507D01*
X21788935Y-44700000D01*
X21561065Y-44700000D01*
X21336298Y-44737507D01*
X21120780Y-44811495D01*
X21120769Y-44811500D01*
X20920373Y-44919948D01*
X20894016Y-44940462D01*
X21546884Y-45593330D01*
X21534108Y-45595167D01*
X21404631Y-45654298D01*
X21297057Y-45747511D01*
X21220102Y-45867255D01*
X21195951Y-45949505D01*
X20536319Y-45289873D01*
X20502834Y-45228550D01*
X20500000Y-45202192D01*
X20500000Y-42647307D01*
X20519685Y-42580268D01*
X20572489Y-42534513D01*
X20641647Y-42524569D01*
X20705203Y-42553594D01*
X20715222Y-42563316D01*
X20740206Y-42590456D01*
X20920094Y-42730469D01*
X20920096Y-42730470D01*
X20920099Y-42730472D01*
X21010232Y-42779249D01*
X21120574Y-42838963D01*
X21232529Y-42877397D01*
X21336173Y-42912979D01*
X21336175Y-42912979D01*
X21336177Y-42912980D01*
X21561023Y-42950500D01*
X21561024Y-42950500D01*
X21788976Y-42950500D01*
X21788977Y-42950500D01*
X22013823Y-42912980D01*
X22229426Y-42838963D01*
X22429906Y-42730469D01*
X22597528Y-42600003D01*
X35794435Y-42600003D01*
X35814630Y-42779249D01*
X35814631Y-42779254D01*
X35874211Y-42949523D01*
X35890217Y-42974996D01*
X35970184Y-43102262D01*
X36097738Y-43229816D01*
X36250478Y-43325789D01*
X36420745Y-43385368D01*
X36420750Y-43385369D01*
X36599996Y-43405565D01*
X36600000Y-43405565D01*
X36600004Y-43405565D01*
X36779249Y-43385369D01*
X36779252Y-43385368D01*
X36779255Y-43385368D01*
X36949522Y-43325789D01*
X37102262Y-43229816D01*
X37229816Y-43102262D01*
X37325789Y-42949522D01*
X37385368Y-42779255D01*
X37385369Y-42779249D01*
X37405565Y-42600003D01*
X45194435Y-42600003D01*
X45214630Y-42779249D01*
X45214631Y-42779254D01*
X45274211Y-42949523D01*
X45290217Y-42974996D01*
X45370184Y-43102262D01*
X45497738Y-43229816D01*
X45650478Y-43325789D01*
X45820745Y-43385368D01*
X45820750Y-43385369D01*
X45999996Y-43405565D01*
X46000000Y-43405565D01*
X46000004Y-43405565D01*
X46179249Y-43385369D01*
X46179252Y-43385368D01*
X46179255Y-43385368D01*
X46349522Y-43325789D01*
X46502262Y-43229816D01*
X46629816Y-43102262D01*
X46725789Y-42949522D01*
X46785368Y-42779255D01*
X46785369Y-42779249D01*
X46805565Y-42600003D01*
X46805565Y-42599996D01*
X46785369Y-42420750D01*
X46785368Y-42420745D01*
X46725788Y-42250476D01*
X46629815Y-42097737D01*
X46502262Y-41970184D01*
X46349523Y-41874211D01*
X46179254Y-41814631D01*
X46179249Y-41814630D01*
X46000004Y-41794435D01*
X45999996Y-41794435D01*
X45820750Y-41814630D01*
X45820745Y-41814631D01*
X45650476Y-41874211D01*
X45497737Y-41970184D01*
X45370184Y-42097737D01*
X45274211Y-42250476D01*
X45214631Y-42420745D01*
X45214630Y-42420750D01*
X45194435Y-42599996D01*
X45194435Y-42600003D01*
X37405565Y-42600003D01*
X37405565Y-42599996D01*
X37385369Y-42420750D01*
X37385368Y-42420745D01*
X37325788Y-42250476D01*
X37229815Y-42097737D01*
X37102262Y-41970184D01*
X36949523Y-41874211D01*
X36779254Y-41814631D01*
X36779249Y-41814630D01*
X36600004Y-41794435D01*
X36599996Y-41794435D01*
X36420750Y-41814630D01*
X36420745Y-41814631D01*
X36250476Y-41874211D01*
X36097737Y-41970184D01*
X35970184Y-42097737D01*
X35874211Y-42250476D01*
X35814631Y-42420745D01*
X35814630Y-42420750D01*
X35794435Y-42599996D01*
X35794435Y-42600003D01*
X22597528Y-42600003D01*
X22609794Y-42590456D01*
X22764183Y-42422745D01*
X22888862Y-42231909D01*
X22980430Y-42023155D01*
X23036390Y-41802176D01*
X23048282Y-41658647D01*
X23073436Y-41593465D01*
X23129838Y-41552226D01*
X23199581Y-41548028D01*
X23246122Y-41571448D01*
X23246885Y-41570399D01*
X23250816Y-41573254D01*
X23250821Y-41573259D01*
X23250826Y-41573262D01*
X23458910Y-41700777D01*
X23684381Y-41794169D01*
X23684378Y-41794169D01*
X23684384Y-41794170D01*
X23684388Y-41794172D01*
X23921698Y-41851146D01*
X24165000Y-41870294D01*
X24408302Y-41851146D01*
X24645612Y-41794172D01*
X24871089Y-41700777D01*
X25079179Y-41573259D01*
X25264759Y-41414759D01*
X25423259Y-41229179D01*
X25550777Y-41021089D01*
X25644172Y-40795612D01*
X25701146Y-40558302D01*
X25720294Y-40315000D01*
X25701146Y-40071698D01*
X25644172Y-39834388D01*
X25550777Y-39608911D01*
X25550777Y-39608910D01*
X25423262Y-39400826D01*
X25423261Y-39400823D01*
X25387453Y-39358897D01*
X25264759Y-39215241D01*
X25142063Y-39110449D01*
X25079176Y-39056738D01*
X25079173Y-39056737D01*
X24871089Y-38929222D01*
X24645618Y-38835830D01*
X24645621Y-38835830D01*
X24539992Y-38810470D01*
X24408302Y-38778854D01*
X24408300Y-38778853D01*
X24408297Y-38778853D01*
X24165000Y-38759706D01*
X23921702Y-38778853D01*
X23684380Y-38835830D01*
X23458910Y-38929222D01*
X23250826Y-39056737D01*
X23250823Y-39056738D01*
X23065241Y-39215241D01*
X22906738Y-39400823D01*
X22906737Y-39400826D01*
X22779222Y-39608910D01*
X22685830Y-39834380D01*
X22628853Y-40071702D01*
X22609429Y-40318520D01*
X22584545Y-40383808D01*
X22528314Y-40425279D01*
X22458589Y-40429766D01*
X22426794Y-40417846D01*
X22229432Y-40311040D01*
X22229429Y-40311039D01*
X22229426Y-40311037D01*
X22229420Y-40311035D01*
X22229418Y-40311034D01*
X22013826Y-40237020D01*
X21845188Y-40208880D01*
X21788977Y-40199500D01*
X21561023Y-40199500D01*
X21516053Y-40207004D01*
X21336173Y-40237020D01*
X21120581Y-40311034D01*
X21120567Y-40311040D01*
X20920099Y-40419527D01*
X20920090Y-40419533D01*
X20740212Y-40559538D01*
X20740201Y-40559548D01*
X20715228Y-40586676D01*
X20655341Y-40622666D01*
X20585503Y-40620565D01*
X20527887Y-40581040D01*
X20500787Y-40516640D01*
X20500000Y-40502692D01*
X20500000Y-35500000D01*
X47750000Y-35500000D01*
X47750000Y-43500000D01*
X49213681Y-44963681D01*
X49247166Y-45025004D01*
X49250000Y-45051362D01*
X49250000Y-46750000D01*
X50213681Y-47713681D01*
X50247166Y-47775004D01*
X50250000Y-47801362D01*
X50250000Y-48402103D01*
X50230315Y-48469142D01*
X50177511Y-48514897D01*
X50108353Y-48524841D01*
X50085046Y-48519145D01*
X49929257Y-48464632D01*
X49929249Y-48464630D01*
X49750004Y-48444435D01*
X49749996Y-48444435D01*
X49570750Y-48464630D01*
X49570745Y-48464631D01*
X49400476Y-48524211D01*
X49247737Y-48620184D01*
X49120184Y-48747737D01*
X49024211Y-48900476D01*
X48964631Y-49070745D01*
X48964630Y-49070750D01*
X48944435Y-49249996D01*
X48944435Y-49250003D01*
X48964630Y-49429249D01*
X48964631Y-49429254D01*
X49024211Y-49599523D01*
X49095942Y-49713681D01*
X49120184Y-49752262D01*
X49247738Y-49879816D01*
X49400478Y-49975789D01*
X49570745Y-50035368D01*
X49570750Y-50035369D01*
X49749996Y-50055565D01*
X49750000Y-50055565D01*
X49750004Y-50055565D01*
X49929249Y-50035369D01*
X49929252Y-50035368D01*
X49929255Y-50035368D01*
X50099522Y-49975789D01*
X50252262Y-49879816D01*
X50379816Y-49752262D01*
X50475789Y-49599522D01*
X50535368Y-49429255D01*
X50535369Y-49429249D01*
X50546425Y-49331124D01*
X50573491Y-49266710D01*
X50631086Y-49227155D01*
X50700923Y-49225017D01*
X50757326Y-49257326D01*
X51213681Y-49713681D01*
X51247166Y-49775004D01*
X51250000Y-49801362D01*
X51250000Y-51500000D01*
X51750000Y-51500000D01*
X51750000Y-49249999D01*
X50799600Y-48537199D01*
X50757779Y-48481228D01*
X50750000Y-48437999D01*
X50750000Y-47250000D01*
X49786319Y-46286319D01*
X49752834Y-46224996D01*
X49750000Y-46198638D01*
X49750000Y-44500000D01*
X48286319Y-43036319D01*
X48252834Y-42974996D01*
X48250000Y-42948638D01*
X48250000Y-36124000D01*
X48269685Y-36056961D01*
X48322489Y-36011206D01*
X48374000Y-36000000D01*
X56626000Y-36000000D01*
X56693039Y-36019685D01*
X56738794Y-36072489D01*
X56750000Y-36124000D01*
X56750000Y-43626000D01*
X56730315Y-43693039D01*
X56677511Y-43738794D01*
X56626000Y-43750000D01*
X54749999Y-43750000D01*
X54000000Y-44499999D01*
X54000000Y-46948638D01*
X53980315Y-47015677D01*
X53963681Y-47036319D01*
X53500000Y-47499999D01*
X53500000Y-47948638D01*
X53480315Y-48015677D01*
X53463681Y-48036319D01*
X52750000Y-48749999D01*
X52750000Y-49500000D01*
X54000000Y-48250000D01*
X54000000Y-47801362D01*
X54019685Y-47734323D01*
X54036319Y-47713681D01*
X54250001Y-47499999D01*
X54500000Y-47250000D01*
X54500000Y-46051362D01*
X54519685Y-45984323D01*
X54536319Y-45963681D01*
X55713681Y-44786319D01*
X55775004Y-44752834D01*
X55801362Y-44750000D01*
X63126000Y-44750000D01*
X63193039Y-44769685D01*
X63238794Y-44822489D01*
X63250000Y-44874000D01*
X63250000Y-50126000D01*
X63230315Y-50193039D01*
X63177511Y-50238794D01*
X63126000Y-50250000D01*
X55801362Y-50250000D01*
X55734323Y-50230315D01*
X55713681Y-50213681D01*
X55250000Y-49750000D01*
X54250000Y-49750000D01*
X54249999Y-49750000D01*
X53750000Y-50249999D01*
X53750000Y-50250000D01*
X53750000Y-51250000D01*
X54000000Y-51250000D01*
X54463681Y-50786319D01*
X54525004Y-50752834D01*
X54551362Y-50750000D01*
X58454315Y-50750000D01*
X58521354Y-50769685D01*
X58567109Y-50822489D01*
X58577053Y-50891647D01*
X58548028Y-50955203D01*
X58495269Y-50991042D01*
X58400478Y-51024210D01*
X58247737Y-51120184D01*
X58120184Y-51247737D01*
X58024211Y-51400476D01*
X57964631Y-51570745D01*
X57964630Y-51570750D01*
X57944435Y-51749996D01*
X57944435Y-51750003D01*
X57964630Y-51929249D01*
X57964631Y-51929254D01*
X58024211Y-52099523D01*
X58120184Y-52252262D01*
X58247738Y-52379816D01*
X58400478Y-52475789D01*
X58570745Y-52535368D01*
X58570750Y-52535369D01*
X58749996Y-52555565D01*
X58750000Y-52555565D01*
X58750004Y-52555565D01*
X58929249Y-52535369D01*
X58929252Y-52535368D01*
X58929255Y-52535368D01*
X59099522Y-52475789D01*
X59252262Y-52379816D01*
X59379816Y-52252262D01*
X59475789Y-52099522D01*
X59535368Y-51929255D01*
X59542024Y-51870184D01*
X59555565Y-51750003D01*
X59555565Y-51749996D01*
X59535369Y-51570750D01*
X59535368Y-51570745D01*
X59475788Y-51400476D01*
X59381237Y-51250000D01*
X59379816Y-51247738D01*
X59252262Y-51120184D01*
X59178861Y-51074063D01*
X59099521Y-51024210D01*
X59004731Y-50991042D01*
X58947954Y-50950320D01*
X58922207Y-50885367D01*
X58935663Y-50816806D01*
X58984050Y-50766403D01*
X59045685Y-50750000D01*
X63750000Y-50750000D01*
X63750000Y-49400000D01*
X90504341Y-49400000D01*
X90524936Y-49635403D01*
X90524938Y-49635413D01*
X90586094Y-49863655D01*
X90586096Y-49863659D01*
X90586097Y-49863663D01*
X90658819Y-50019616D01*
X90685965Y-50077830D01*
X90685967Y-50077834D01*
X90760412Y-50184151D01*
X90821505Y-50271401D01*
X90988599Y-50438495D01*
X91073404Y-50497876D01*
X91182165Y-50574032D01*
X91182167Y-50574033D01*
X91182170Y-50574035D01*
X91396337Y-50673903D01*
X91624592Y-50735063D01*
X91801034Y-50750500D01*
X91859999Y-50755659D01*
X91860000Y-50755659D01*
X91860001Y-50755659D01*
X91918966Y-50750500D01*
X92095408Y-50735063D01*
X92323663Y-50673903D01*
X92537830Y-50574035D01*
X92731401Y-50438495D01*
X92853329Y-50316566D01*
X92914648Y-50283084D01*
X92984340Y-50288068D01*
X93040274Y-50329939D01*
X93057189Y-50360917D01*
X93106202Y-50492328D01*
X93106206Y-50492335D01*
X93192452Y-50607544D01*
X93192455Y-50607547D01*
X93307664Y-50693793D01*
X93307671Y-50693797D01*
X93442517Y-50744091D01*
X93442516Y-50744091D01*
X93449444Y-50744835D01*
X93502127Y-50750500D01*
X95297872Y-50750499D01*
X95357483Y-50744091D01*
X95492331Y-50693796D01*
X95607546Y-50607546D01*
X95693796Y-50492331D01*
X95744091Y-50357483D01*
X95750500Y-50297873D01*
X95750499Y-48502128D01*
X95744091Y-48442517D01*
X95742810Y-48439083D01*
X95693797Y-48307671D01*
X95693793Y-48307664D01*
X95607547Y-48192455D01*
X95607544Y-48192452D01*
X95492335Y-48106206D01*
X95492328Y-48106202D01*
X95357482Y-48055908D01*
X95357483Y-48055908D01*
X95297883Y-48049501D01*
X95297881Y-48049500D01*
X95297873Y-48049500D01*
X95297864Y-48049500D01*
X93502129Y-48049500D01*
X93502123Y-48049501D01*
X93442516Y-48055908D01*
X93307671Y-48106202D01*
X93307664Y-48106206D01*
X93192455Y-48192452D01*
X93192452Y-48192455D01*
X93106206Y-48307664D01*
X93106203Y-48307669D01*
X93057189Y-48439083D01*
X93015317Y-48495016D01*
X92949853Y-48519433D01*
X92881580Y-48504581D01*
X92853326Y-48483430D01*
X92731402Y-48361506D01*
X92731395Y-48361501D01*
X92537834Y-48225967D01*
X92537830Y-48225965D01*
X92495457Y-48206206D01*
X92323663Y-48126097D01*
X92323659Y-48126096D01*
X92323655Y-48126094D01*
X92095413Y-48064938D01*
X92095403Y-48064936D01*
X91860001Y-48044341D01*
X91859999Y-48044341D01*
X91624596Y-48064936D01*
X91624586Y-48064938D01*
X91396344Y-48126094D01*
X91396335Y-48126098D01*
X91182171Y-48225964D01*
X91182169Y-48225965D01*
X90988597Y-48361505D01*
X90821505Y-48528597D01*
X90685965Y-48722169D01*
X90685964Y-48722171D01*
X90586098Y-48936335D01*
X90586094Y-48936344D01*
X90524938Y-49164586D01*
X90524936Y-49164596D01*
X90504341Y-49399999D01*
X90504341Y-49400000D01*
X63750000Y-49400000D01*
X63750000Y-47200000D01*
X85494540Y-47200000D01*
X85514326Y-47388256D01*
X85514327Y-47388259D01*
X85572818Y-47568277D01*
X85572821Y-47568284D01*
X85667467Y-47732216D01*
X85733560Y-47805619D01*
X85794129Y-47872888D01*
X85947265Y-47984148D01*
X85947270Y-47984151D01*
X86120192Y-48061142D01*
X86120197Y-48061144D01*
X86305354Y-48100500D01*
X86305355Y-48100500D01*
X86494644Y-48100500D01*
X86494646Y-48100500D01*
X86679803Y-48061144D01*
X86852730Y-47984151D01*
X87005871Y-47872888D01*
X87132533Y-47732216D01*
X87227179Y-47568284D01*
X87285674Y-47388256D01*
X87305460Y-47200000D01*
X87285674Y-47011744D01*
X87227179Y-46831716D01*
X87132533Y-46667784D01*
X87005871Y-46527112D01*
X86962639Y-46495702D01*
X86852734Y-46415851D01*
X86852729Y-46415848D01*
X86679807Y-46338857D01*
X86679802Y-46338855D01*
X86534001Y-46307865D01*
X86494646Y-46299500D01*
X86305354Y-46299500D01*
X86272897Y-46306398D01*
X86120197Y-46338855D01*
X86120192Y-46338857D01*
X85947270Y-46415848D01*
X85947265Y-46415851D01*
X85794129Y-46527111D01*
X85667466Y-46667785D01*
X85572821Y-46831715D01*
X85572818Y-46831722D01*
X85518142Y-47000000D01*
X85514326Y-47011744D01*
X85494540Y-47200000D01*
X63750000Y-47200000D01*
X63750000Y-44250000D01*
X57374000Y-44250000D01*
X57306961Y-44230315D01*
X57261206Y-44177511D01*
X57250000Y-44126000D01*
X57250000Y-35500000D01*
X47750000Y-35500000D01*
X20500000Y-35500000D01*
X20500000Y-32171187D01*
X20749500Y-32171187D01*
X20762106Y-32254815D01*
X20788604Y-32430615D01*
X20788605Y-32430617D01*
X20788606Y-32430623D01*
X20865938Y-32681326D01*
X20979767Y-32917696D01*
X20979768Y-32917697D01*
X20979770Y-32917700D01*
X20979772Y-32917704D01*
X21127567Y-33134479D01*
X21306014Y-33326801D01*
X21306018Y-33326804D01*
X21306019Y-33326805D01*
X21511143Y-33490386D01*
X21738357Y-33621568D01*
X21982584Y-33717420D01*
X22238370Y-33775802D01*
X22238376Y-33775802D01*
X22238379Y-33775803D01*
X22434500Y-33790500D01*
X22434506Y-33790500D01*
X22565500Y-33790500D01*
X22761620Y-33775803D01*
X22761622Y-33775802D01*
X22761630Y-33775802D01*
X23017416Y-33717420D01*
X23261643Y-33621568D01*
X23488857Y-33490386D01*
X23693981Y-33326805D01*
X23872433Y-33134479D01*
X24020228Y-32917704D01*
X24134063Y-32681323D01*
X24211396Y-32430615D01*
X24250500Y-32171182D01*
X24250500Y-31908818D01*
X24211396Y-31649385D01*
X24134063Y-31398677D01*
X24110391Y-31349522D01*
X24062464Y-31250000D01*
X41094540Y-31250000D01*
X41114326Y-31438256D01*
X41114327Y-31438259D01*
X41172818Y-31618277D01*
X41172821Y-31618284D01*
X41267467Y-31782216D01*
X41288491Y-31805565D01*
X41394129Y-31922888D01*
X41547265Y-32034148D01*
X41547270Y-32034151D01*
X41720192Y-32111142D01*
X41720197Y-32111144D01*
X41905354Y-32150500D01*
X41905355Y-32150500D01*
X42094644Y-32150500D01*
X42094646Y-32150500D01*
X42279803Y-32111144D01*
X42452730Y-32034151D01*
X42605871Y-31922888D01*
X42732533Y-31782216D01*
X42827179Y-31618284D01*
X42885674Y-31438256D01*
X42905460Y-31250000D01*
X42885674Y-31061744D01*
X42865613Y-31000003D01*
X58694435Y-31000003D01*
X58714630Y-31179249D01*
X58714631Y-31179254D01*
X58774211Y-31349523D01*
X58805097Y-31398677D01*
X58870184Y-31502262D01*
X58997738Y-31629816D01*
X59150478Y-31725789D01*
X59311731Y-31782214D01*
X59320745Y-31785368D01*
X59320750Y-31785369D01*
X59499996Y-31805565D01*
X59500000Y-31805565D01*
X59500004Y-31805565D01*
X59679249Y-31785369D01*
X59679252Y-31785368D01*
X59679255Y-31785368D01*
X59849522Y-31725789D01*
X60002262Y-31629816D01*
X60007075Y-31625003D01*
X62819435Y-31625003D01*
X62839630Y-31804249D01*
X62839631Y-31804254D01*
X62899211Y-31974523D01*
X62936678Y-32034151D01*
X62995184Y-32127262D01*
X63122738Y-32254816D01*
X63275478Y-32350789D01*
X63445745Y-32410368D01*
X63445750Y-32410369D01*
X63624996Y-32430565D01*
X63625000Y-32430565D01*
X63625004Y-32430565D01*
X63804249Y-32410369D01*
X63804252Y-32410368D01*
X63804255Y-32410368D01*
X63974522Y-32350789D01*
X64127262Y-32254816D01*
X64254816Y-32127262D01*
X64350789Y-31974522D01*
X64410368Y-31804255D01*
X64412496Y-31785368D01*
X64430565Y-31625003D01*
X64430565Y-31624996D01*
X64416482Y-31500003D01*
X67694435Y-31500003D01*
X67714630Y-31679249D01*
X67714631Y-31679254D01*
X67774211Y-31849523D01*
X67811469Y-31908818D01*
X67870184Y-32002262D01*
X67997738Y-32129816D01*
X68150478Y-32225789D01*
X68320745Y-32285368D01*
X68320750Y-32285369D01*
X68499996Y-32305565D01*
X68500000Y-32305565D01*
X68500004Y-32305565D01*
X68679249Y-32285369D01*
X68679252Y-32285368D01*
X68679255Y-32285368D01*
X68849522Y-32225789D01*
X68936420Y-32171187D01*
X117749500Y-32171187D01*
X117762106Y-32254815D01*
X117788604Y-32430615D01*
X117788605Y-32430617D01*
X117788606Y-32430623D01*
X117865938Y-32681326D01*
X117979767Y-32917696D01*
X117979768Y-32917697D01*
X117979770Y-32917700D01*
X117979772Y-32917704D01*
X118127567Y-33134479D01*
X118306014Y-33326801D01*
X118306018Y-33326804D01*
X118306019Y-33326805D01*
X118511143Y-33490386D01*
X118738357Y-33621568D01*
X118982584Y-33717420D01*
X119238370Y-33775802D01*
X119238376Y-33775802D01*
X119238379Y-33775803D01*
X119434500Y-33790500D01*
X119434506Y-33790500D01*
X119565500Y-33790500D01*
X119761620Y-33775803D01*
X119761622Y-33775802D01*
X119761630Y-33775802D01*
X120017416Y-33717420D01*
X120261643Y-33621568D01*
X120488857Y-33490386D01*
X120693981Y-33326805D01*
X120872433Y-33134479D01*
X121020228Y-32917704D01*
X121134063Y-32681323D01*
X121211396Y-32430615D01*
X121250500Y-32171182D01*
X121250500Y-31908818D01*
X121211396Y-31649385D01*
X121134063Y-31398677D01*
X121110391Y-31349522D01*
X121020232Y-31162303D01*
X121020231Y-31162302D01*
X121020230Y-31162301D01*
X121020228Y-31162296D01*
X120872433Y-30945521D01*
X120829464Y-30899211D01*
X120693985Y-30753198D01*
X120649577Y-30717784D01*
X120488857Y-30589614D01*
X120261643Y-30458432D01*
X120017416Y-30362580D01*
X120017411Y-30362578D01*
X120017402Y-30362576D01*
X119799818Y-30312914D01*
X119761630Y-30304198D01*
X119761629Y-30304197D01*
X119761625Y-30304197D01*
X119761620Y-30304196D01*
X119565500Y-30289500D01*
X119565494Y-30289500D01*
X119434506Y-30289500D01*
X119434500Y-30289500D01*
X119238379Y-30304196D01*
X119238374Y-30304197D01*
X118982597Y-30362576D01*
X118982578Y-30362582D01*
X118738356Y-30458432D01*
X118511143Y-30589614D01*
X118306014Y-30753198D01*
X118127567Y-30945520D01*
X117979768Y-31162302D01*
X117979767Y-31162303D01*
X117865938Y-31398673D01*
X117788606Y-31649376D01*
X117788605Y-31649381D01*
X117788604Y-31649385D01*
X117784103Y-31679249D01*
X117749500Y-31908812D01*
X117749500Y-32171187D01*
X68936420Y-32171187D01*
X69002262Y-32129816D01*
X69129816Y-32002262D01*
X69225789Y-31849522D01*
X69285368Y-31679255D01*
X69288735Y-31649376D01*
X69305565Y-31500003D01*
X69305565Y-31499996D01*
X69285369Y-31320750D01*
X69285368Y-31320745D01*
X69260613Y-31250000D01*
X69225789Y-31150478D01*
X69129816Y-30997738D01*
X69002262Y-30870184D01*
X68953639Y-30839632D01*
X68849523Y-30774211D01*
X68679254Y-30714631D01*
X68679249Y-30714630D01*
X68500004Y-30694435D01*
X68499996Y-30694435D01*
X68320750Y-30714630D01*
X68320745Y-30714631D01*
X68150476Y-30774211D01*
X67997737Y-30870184D01*
X67870184Y-30997737D01*
X67774211Y-31150476D01*
X67714631Y-31320745D01*
X67714630Y-31320750D01*
X67694435Y-31499996D01*
X67694435Y-31500003D01*
X64416482Y-31500003D01*
X64410369Y-31445750D01*
X64410368Y-31445745D01*
X64366630Y-31320750D01*
X64350789Y-31275478D01*
X64254816Y-31122738D01*
X64127262Y-30995184D01*
X64048224Y-30945521D01*
X63974523Y-30899211D01*
X63804254Y-30839631D01*
X63804249Y-30839630D01*
X63625004Y-30819435D01*
X63624996Y-30819435D01*
X63445750Y-30839630D01*
X63445745Y-30839631D01*
X63275476Y-30899211D01*
X63122737Y-30995184D01*
X62995184Y-31122737D01*
X62899211Y-31275476D01*
X62839631Y-31445745D01*
X62839630Y-31445750D01*
X62819435Y-31624996D01*
X62819435Y-31625003D01*
X60007075Y-31625003D01*
X60129816Y-31502262D01*
X60225789Y-31349522D01*
X60285368Y-31179255D01*
X60287279Y-31162296D01*
X60305565Y-31000003D01*
X60305565Y-30999996D01*
X60285369Y-30820750D01*
X60285368Y-30820745D01*
X60225788Y-30650476D01*
X60129815Y-30497737D01*
X60002262Y-30370184D01*
X59849523Y-30274211D01*
X59679254Y-30214631D01*
X59679249Y-30214630D01*
X59500004Y-30194435D01*
X59499996Y-30194435D01*
X59320750Y-30214630D01*
X59320745Y-30214631D01*
X59150476Y-30274211D01*
X58997737Y-30370184D01*
X58870184Y-30497737D01*
X58774211Y-30650476D01*
X58714631Y-30820745D01*
X58714630Y-30820750D01*
X58694435Y-30999996D01*
X58694435Y-31000003D01*
X42865613Y-31000003D01*
X42827179Y-30881716D01*
X42732533Y-30717784D01*
X42605871Y-30577112D01*
X42605870Y-30577111D01*
X42452734Y-30465851D01*
X42452729Y-30465848D01*
X42279807Y-30388857D01*
X42279802Y-30388855D01*
X42134001Y-30357865D01*
X42094646Y-30349500D01*
X41905354Y-30349500D01*
X41872897Y-30356398D01*
X41720197Y-30388855D01*
X41720192Y-30388857D01*
X41547270Y-30465848D01*
X41547265Y-30465851D01*
X41394129Y-30577111D01*
X41267466Y-30717785D01*
X41172821Y-30881715D01*
X41172818Y-30881722D01*
X41114327Y-31061740D01*
X41114326Y-31061744D01*
X41094540Y-31250000D01*
X24062464Y-31250000D01*
X24020232Y-31162303D01*
X24020231Y-31162302D01*
X24020230Y-31162301D01*
X24020228Y-31162296D01*
X23872433Y-30945521D01*
X23829464Y-30899211D01*
X23693985Y-30753198D01*
X23649577Y-30717784D01*
X23488857Y-30589614D01*
X23261643Y-30458432D01*
X23017416Y-30362580D01*
X23017411Y-30362578D01*
X23017402Y-30362576D01*
X22799818Y-30312914D01*
X22761630Y-30304198D01*
X22761629Y-30304197D01*
X22761625Y-30304197D01*
X22761620Y-30304196D01*
X22565500Y-30289500D01*
X22565494Y-30289500D01*
X22434506Y-30289500D01*
X22434500Y-30289500D01*
X22238379Y-30304196D01*
X22238374Y-30304197D01*
X21982597Y-30362576D01*
X21982578Y-30362582D01*
X21738356Y-30458432D01*
X21511143Y-30589614D01*
X21306014Y-30753198D01*
X21127567Y-30945520D01*
X20979768Y-31162302D01*
X20979767Y-31162303D01*
X20865938Y-31398673D01*
X20788606Y-31649376D01*
X20788605Y-31649381D01*
X20788604Y-31649385D01*
X20784103Y-31679249D01*
X20749500Y-31908812D01*
X20749500Y-32171187D01*
X20500000Y-32171187D01*
X20500000Y-28400000D01*
X80624341Y-28400000D01*
X80644936Y-28635403D01*
X80644938Y-28635413D01*
X80706094Y-28863655D01*
X80706096Y-28863659D01*
X80706097Y-28863663D01*
X80785801Y-29034588D01*
X80805965Y-29077830D01*
X80805967Y-29077834D01*
X80914281Y-29232521D01*
X80941505Y-29271401D01*
X81108599Y-29438495D01*
X81205384Y-29506265D01*
X81302165Y-29574032D01*
X81302167Y-29574033D01*
X81302170Y-29574035D01*
X81516337Y-29673903D01*
X81744592Y-29735063D01*
X81921034Y-29750500D01*
X81979999Y-29755659D01*
X81980000Y-29755659D01*
X81980001Y-29755659D01*
X82038966Y-29750500D01*
X82215408Y-29735063D01*
X82443663Y-29673903D01*
X82657830Y-29574035D01*
X82851401Y-29438495D01*
X83018495Y-29271401D01*
X83148730Y-29085405D01*
X83203307Y-29041781D01*
X83272805Y-29034587D01*
X83335160Y-29066110D01*
X83351879Y-29085405D01*
X83481890Y-29271078D01*
X83648917Y-29438105D01*
X83842421Y-29573600D01*
X84056507Y-29673429D01*
X84056516Y-29673433D01*
X84270000Y-29730634D01*
X84270000Y-28835501D01*
X84377685Y-28884680D01*
X84484237Y-28900000D01*
X84555763Y-28900000D01*
X84662315Y-28884680D01*
X84770000Y-28835501D01*
X84770000Y-29730633D01*
X84983483Y-29673433D01*
X84983492Y-29673429D01*
X85197578Y-29573600D01*
X85391082Y-29438105D01*
X85558105Y-29271082D01*
X85688119Y-29085405D01*
X85742696Y-29041781D01*
X85812195Y-29034588D01*
X85874549Y-29066110D01*
X85891269Y-29085405D01*
X86021505Y-29271401D01*
X86188599Y-29438495D01*
X86285384Y-29506265D01*
X86382165Y-29574032D01*
X86382167Y-29574033D01*
X86382170Y-29574035D01*
X86596337Y-29673903D01*
X86824592Y-29735063D01*
X87001034Y-29750500D01*
X87059999Y-29755659D01*
X87060000Y-29755659D01*
X87060001Y-29755659D01*
X87118966Y-29750500D01*
X87295408Y-29735063D01*
X87523663Y-29673903D01*
X87737830Y-29574035D01*
X87931401Y-29438495D01*
X88053329Y-29316566D01*
X88114648Y-29283084D01*
X88184340Y-29288068D01*
X88240274Y-29329939D01*
X88257189Y-29360917D01*
X88306202Y-29492328D01*
X88306206Y-29492335D01*
X88392452Y-29607544D01*
X88392455Y-29607547D01*
X88507664Y-29693793D01*
X88507671Y-29693797D01*
X88642517Y-29744091D01*
X88642516Y-29744091D01*
X88649444Y-29744835D01*
X88702127Y-29750500D01*
X90497872Y-29750499D01*
X90557483Y-29744091D01*
X90692331Y-29693796D01*
X90807546Y-29607546D01*
X90893796Y-29492331D01*
X90944091Y-29357483D01*
X90950500Y-29297873D01*
X90950499Y-27502128D01*
X90944091Y-27442517D01*
X90942810Y-27439083D01*
X90893797Y-27307671D01*
X90893793Y-27307664D01*
X90807547Y-27192455D01*
X90807544Y-27192452D01*
X90692335Y-27106206D01*
X90692328Y-27106202D01*
X90557482Y-27055908D01*
X90557483Y-27055908D01*
X90497883Y-27049501D01*
X90497881Y-27049500D01*
X90497873Y-27049500D01*
X90497864Y-27049500D01*
X88702129Y-27049500D01*
X88702123Y-27049501D01*
X88642516Y-27055908D01*
X88507671Y-27106202D01*
X88507664Y-27106206D01*
X88392455Y-27192452D01*
X88392452Y-27192455D01*
X88306206Y-27307664D01*
X88306203Y-27307669D01*
X88257189Y-27439083D01*
X88215317Y-27495016D01*
X88149853Y-27519433D01*
X88081580Y-27504581D01*
X88053326Y-27483430D01*
X87931402Y-27361506D01*
X87931395Y-27361501D01*
X87737834Y-27225967D01*
X87737830Y-27225965D01*
X87737828Y-27225964D01*
X87523663Y-27126097D01*
X87523659Y-27126096D01*
X87523655Y-27126094D01*
X87295413Y-27064938D01*
X87295403Y-27064936D01*
X87060001Y-27044341D01*
X87059999Y-27044341D01*
X86824596Y-27064936D01*
X86824586Y-27064938D01*
X86596344Y-27126094D01*
X86596335Y-27126098D01*
X86382171Y-27225964D01*
X86382169Y-27225965D01*
X86188597Y-27361505D01*
X86021508Y-27528594D01*
X85891269Y-27714595D01*
X85836692Y-27758219D01*
X85767193Y-27765412D01*
X85704839Y-27733890D01*
X85688119Y-27714594D01*
X85558113Y-27528926D01*
X85558108Y-27528920D01*
X85391082Y-27361894D01*
X85197578Y-27226399D01*
X84983492Y-27126570D01*
X84983486Y-27126567D01*
X84770000Y-27069364D01*
X84770000Y-27964498D01*
X84662315Y-27915320D01*
X84555763Y-27900000D01*
X84484237Y-27900000D01*
X84377685Y-27915320D01*
X84270000Y-27964498D01*
X84270000Y-27069364D01*
X84269999Y-27069364D01*
X84056513Y-27126567D01*
X84056507Y-27126570D01*
X83842422Y-27226399D01*
X83842420Y-27226400D01*
X83648926Y-27361886D01*
X83648920Y-27361891D01*
X83481891Y-27528920D01*
X83481890Y-27528922D01*
X83351880Y-27714595D01*
X83297303Y-27758219D01*
X83227804Y-27765412D01*
X83165450Y-27733890D01*
X83148730Y-27714594D01*
X83018494Y-27528597D01*
X82851402Y-27361506D01*
X82851395Y-27361501D01*
X82657834Y-27225967D01*
X82657830Y-27225965D01*
X82657828Y-27225964D01*
X82443663Y-27126097D01*
X82443659Y-27126096D01*
X82443655Y-27126094D01*
X82215413Y-27064938D01*
X82215403Y-27064936D01*
X81980001Y-27044341D01*
X81979999Y-27044341D01*
X81744596Y-27064936D01*
X81744586Y-27064938D01*
X81516344Y-27126094D01*
X81516335Y-27126098D01*
X81302171Y-27225964D01*
X81302169Y-27225965D01*
X81108597Y-27361505D01*
X80941505Y-27528597D01*
X80805965Y-27722169D01*
X80805964Y-27722171D01*
X80706098Y-27936335D01*
X80706094Y-27936344D01*
X80644938Y-28164586D01*
X80644936Y-28164596D01*
X80624341Y-28399999D01*
X80624341Y-28400000D01*
X20500000Y-28400000D01*
X20500000Y-24067763D01*
X22145787Y-24067763D01*
X22175413Y-24337013D01*
X22175415Y-24337024D01*
X22243926Y-24599082D01*
X22243928Y-24599088D01*
X22349870Y-24848390D01*
X22421998Y-24966575D01*
X22490979Y-25079605D01*
X22490986Y-25079615D01*
X22664253Y-25287819D01*
X22664259Y-25287824D01*
X22865998Y-25468582D01*
X23091910Y-25618044D01*
X23337176Y-25733020D01*
X23337183Y-25733022D01*
X23337185Y-25733023D01*
X23596557Y-25811057D01*
X23596564Y-25811058D01*
X23596569Y-25811060D01*
X23864561Y-25850500D01*
X23864566Y-25850500D01*
X24067636Y-25850500D01*
X24119133Y-25846730D01*
X24270156Y-25835677D01*
X24382758Y-25810593D01*
X24534546Y-25776782D01*
X24534548Y-25776781D01*
X24534553Y-25776780D01*
X24787558Y-25680014D01*
X25023777Y-25547441D01*
X25238177Y-25381888D01*
X25426186Y-25186881D01*
X25583799Y-24966579D01*
X25679944Y-24779575D01*
X25707649Y-24725690D01*
X25707651Y-24725684D01*
X25707656Y-24725675D01*
X25795118Y-24469305D01*
X25844319Y-24202933D01*
X25854212Y-23932235D01*
X25824586Y-23662982D01*
X25808120Y-23600000D01*
X77544723Y-23600000D01*
X77561964Y-23797075D01*
X77563793Y-23817975D01*
X77563793Y-23817979D01*
X77620422Y-24029322D01*
X77620424Y-24029326D01*
X77620425Y-24029330D01*
X77638347Y-24067763D01*
X77712897Y-24227638D01*
X77712898Y-24227639D01*
X77838402Y-24406877D01*
X77993123Y-24561598D01*
X78172361Y-24687102D01*
X78370670Y-24779575D01*
X78582023Y-24836207D01*
X78764926Y-24852208D01*
X78799998Y-24855277D01*
X78800000Y-24855277D01*
X78800002Y-24855277D01*
X78828254Y-24852805D01*
X79017977Y-24836207D01*
X79229330Y-24779575D01*
X79427639Y-24687102D01*
X79606877Y-24561598D01*
X79761598Y-24406877D01*
X79887102Y-24227639D01*
X79979575Y-24029330D01*
X80036207Y-23817977D01*
X80055277Y-23600000D01*
X91544723Y-23600000D01*
X91561964Y-23797075D01*
X91563793Y-23817975D01*
X91563793Y-23817979D01*
X91620422Y-24029322D01*
X91620424Y-24029326D01*
X91620425Y-24029330D01*
X91638347Y-24067763D01*
X91712897Y-24227638D01*
X91712898Y-24227639D01*
X91838402Y-24406877D01*
X91993123Y-24561598D01*
X92172361Y-24687102D01*
X92370670Y-24779575D01*
X92582023Y-24836207D01*
X92764926Y-24852208D01*
X92799998Y-24855277D01*
X92800000Y-24855277D01*
X92800002Y-24855277D01*
X92828254Y-24852805D01*
X93017977Y-24836207D01*
X93229330Y-24779575D01*
X93427639Y-24687102D01*
X93606877Y-24561598D01*
X93761598Y-24406877D01*
X93887102Y-24227639D01*
X93961653Y-24067763D01*
X116145787Y-24067763D01*
X116175413Y-24337013D01*
X116175415Y-24337024D01*
X116243926Y-24599082D01*
X116243928Y-24599088D01*
X116349870Y-24848390D01*
X116421998Y-24966575D01*
X116490979Y-25079605D01*
X116490986Y-25079615D01*
X116664253Y-25287819D01*
X116664259Y-25287824D01*
X116865998Y-25468582D01*
X117091910Y-25618044D01*
X117337176Y-25733020D01*
X117337183Y-25733022D01*
X117337185Y-25733023D01*
X117596557Y-25811057D01*
X117596564Y-25811058D01*
X117596569Y-25811060D01*
X117864561Y-25850500D01*
X117864566Y-25850500D01*
X118067636Y-25850500D01*
X118119133Y-25846730D01*
X118270156Y-25835677D01*
X118382758Y-25810593D01*
X118534546Y-25776782D01*
X118534548Y-25776781D01*
X118534553Y-25776780D01*
X118787558Y-25680014D01*
X119023777Y-25547441D01*
X119238177Y-25381888D01*
X119426186Y-25186881D01*
X119583799Y-24966579D01*
X119679944Y-24779575D01*
X119707649Y-24725690D01*
X119707651Y-24725684D01*
X119707656Y-24725675D01*
X119795118Y-24469305D01*
X119844319Y-24202933D01*
X119854212Y-23932235D01*
X119824586Y-23662982D01*
X119756072Y-23400912D01*
X119650130Y-23151610D01*
X119509018Y-22920390D01*
X119419747Y-22813119D01*
X119335746Y-22712180D01*
X119335740Y-22712175D01*
X119134002Y-22531418D01*
X118908092Y-22381957D01*
X118908090Y-22381956D01*
X118662824Y-22266980D01*
X118662819Y-22266978D01*
X118662814Y-22266976D01*
X118403442Y-22188942D01*
X118403428Y-22188939D01*
X118287791Y-22171921D01*
X118135439Y-22149500D01*
X117932369Y-22149500D01*
X117932364Y-22149500D01*
X117729844Y-22164323D01*
X117729831Y-22164325D01*
X117465453Y-22223217D01*
X117465446Y-22223220D01*
X117212439Y-22319987D01*
X116976226Y-22452557D01*
X116761822Y-22618112D01*
X116573822Y-22813109D01*
X116573816Y-22813116D01*
X116416202Y-23033419D01*
X116416199Y-23033424D01*
X116292350Y-23274309D01*
X116292343Y-23274327D01*
X116204884Y-23530685D01*
X116204881Y-23530699D01*
X116155681Y-23797068D01*
X116155680Y-23797075D01*
X116145787Y-24067763D01*
X93961653Y-24067763D01*
X93979575Y-24029330D01*
X94036207Y-23817977D01*
X94055277Y-23600000D01*
X94036207Y-23382023D01*
X93979575Y-23170670D01*
X93887102Y-22972362D01*
X93887100Y-22972359D01*
X93887099Y-22972357D01*
X93761599Y-22793124D01*
X93761596Y-22793121D01*
X93606877Y-22638402D01*
X93427639Y-22512898D01*
X93427640Y-22512898D01*
X93427638Y-22512897D01*
X93328484Y-22466661D01*
X93229330Y-22420425D01*
X93229326Y-22420424D01*
X93229322Y-22420422D01*
X93017977Y-22363793D01*
X92800002Y-22344723D01*
X92799998Y-22344723D01*
X92654682Y-22357436D01*
X92582023Y-22363793D01*
X92582020Y-22363793D01*
X92370677Y-22420422D01*
X92370668Y-22420426D01*
X92172361Y-22512898D01*
X92172357Y-22512900D01*
X91993121Y-22638402D01*
X91838402Y-22793121D01*
X91712900Y-22972357D01*
X91712898Y-22972361D01*
X91620426Y-23170668D01*
X91620422Y-23170677D01*
X91563793Y-23382020D01*
X91563793Y-23382023D01*
X91544723Y-23600000D01*
X80055277Y-23600000D01*
X80036207Y-23382023D01*
X79979575Y-23170670D01*
X79887102Y-22972362D01*
X79887100Y-22972359D01*
X79887099Y-22972357D01*
X79761599Y-22793124D01*
X79761596Y-22793121D01*
X79606877Y-22638402D01*
X79427639Y-22512898D01*
X79427640Y-22512898D01*
X79427638Y-22512897D01*
X79328484Y-22466661D01*
X79229330Y-22420425D01*
X79229326Y-22420424D01*
X79229322Y-22420422D01*
X79017977Y-22363793D01*
X78800002Y-22344723D01*
X78799998Y-22344723D01*
X78654682Y-22357436D01*
X78582023Y-22363793D01*
X78582020Y-22363793D01*
X78370677Y-22420422D01*
X78370668Y-22420426D01*
X78172361Y-22512898D01*
X78172357Y-22512900D01*
X77993121Y-22638402D01*
X77838402Y-22793121D01*
X77712900Y-22972357D01*
X77712898Y-22972361D01*
X77620426Y-23170668D01*
X77620422Y-23170677D01*
X77563793Y-23382020D01*
X77563793Y-23382023D01*
X77544723Y-23600000D01*
X25808120Y-23600000D01*
X25756072Y-23400912D01*
X25650130Y-23151610D01*
X25509018Y-22920390D01*
X25419747Y-22813119D01*
X25335746Y-22712180D01*
X25335740Y-22712175D01*
X25134002Y-22531418D01*
X24908092Y-22381957D01*
X24908090Y-22381956D01*
X24662824Y-22266980D01*
X24662819Y-22266978D01*
X24662814Y-22266976D01*
X24403442Y-22188942D01*
X24403428Y-22188939D01*
X24287791Y-22171921D01*
X24135439Y-22149500D01*
X23932369Y-22149500D01*
X23932364Y-22149500D01*
X23729844Y-22164323D01*
X23729831Y-22164325D01*
X23465453Y-22223217D01*
X23465446Y-22223220D01*
X23212439Y-22319987D01*
X22976226Y-22452557D01*
X22761822Y-22618112D01*
X22573822Y-22813109D01*
X22573816Y-22813116D01*
X22416202Y-23033419D01*
X22416199Y-23033424D01*
X22292350Y-23274309D01*
X22292343Y-23274327D01*
X22204884Y-23530685D01*
X22204881Y-23530699D01*
X22155681Y-23797068D01*
X22155680Y-23797075D01*
X22145787Y-24067763D01*
X20500000Y-24067763D01*
X20500000Y-20624000D01*
X20519685Y-20556961D01*
X20572489Y-20511206D01*
X20624000Y-20500000D01*
X121376000Y-20500000D01*
X121443039Y-20519685D01*
G37*
%TD.AperFunction*%
%TD*%
D19*
X43000000Y-62250000D03*
X58750000Y-51750000D03*
X42500000Y-54250000D03*
X86400000Y-47200000D03*
X37000000Y-53655172D03*
X45500000Y-68750000D03*
X40750000Y-54250000D03*
X45800000Y-49400000D03*
X67000000Y-68000000D03*
X39000000Y-68750000D03*
X42250000Y-68750000D03*
X56000000Y-65500000D03*
X91000000Y-93000000D03*
X48000000Y-69600000D03*
X109600000Y-102200000D03*
X47500000Y-45000000D03*
X63000000Y-45000000D03*
X115000000Y-61500000D03*
X49000000Y-46500000D03*
X109000000Y-99000000D03*
X54250000Y-43750000D03*
X53750000Y-36250000D03*
X56500000Y-36250000D03*
X27800000Y-63200000D03*
X56500000Y-38500000D03*
X48600000Y-52200000D03*
X63000000Y-47250000D03*
X48500000Y-38500000D03*
X40700000Y-90000000D03*
X53750000Y-46250000D03*
X53750000Y-52500000D03*
X62000000Y-46500000D03*
X103000000Y-58500000D03*
X57500000Y-50000000D03*
X110000000Y-94500000D03*
X53250000Y-54250000D03*
X40200000Y-50750000D03*
X43500000Y-34650000D03*
X56500000Y-43500000D03*
X51750000Y-37912500D03*
X50750000Y-36250000D03*
X42000000Y-59750000D03*
X62000000Y-48500000D03*
X39250000Y-66250000D03*
X51000000Y-48250000D03*
X77750000Y-44000000D03*
X36000000Y-30500000D03*
X65400000Y-29800000D03*
X49250000Y-48250000D03*
X95000000Y-43000000D03*
X53319500Y-39912500D03*
X60250000Y-50000000D03*
X50000000Y-46250000D03*
X55600000Y-109000000D03*
X63000000Y-50000000D03*
X86500000Y-56200000D03*
X48500000Y-40750000D03*
X46500000Y-55000000D03*
X68750000Y-118250000D03*
X67600000Y-109000000D03*
X58750000Y-54250000D03*
X36000000Y-25000000D03*
X50750000Y-24600000D03*
X56500000Y-40750000D03*
X48500000Y-36250000D03*
X54500000Y-41912500D03*
X56750000Y-118250000D03*
X51000000Y-41912500D03*
X54750000Y-46250000D03*
X32750000Y-118250000D03*
X45750000Y-66250000D03*
X25775000Y-85250000D03*
X57500000Y-45000000D03*
X44750000Y-118250000D03*
X36000000Y-66250000D03*
X38000000Y-57000000D03*
X55500000Y-49500000D03*
X88200000Y-58000000D03*
X42500000Y-66250000D03*
X42000000Y-51250000D03*
X48500000Y-43000000D03*
X65400000Y-25200000D03*
X44750000Y-107750000D03*
X37450000Y-90275000D03*
X32750000Y-107750000D03*
X52250000Y-55500000D03*
X42000000Y-34412500D03*
X53250000Y-48000000D03*
X60250000Y-45000000D03*
X54000000Y-65200000D03*
X46000000Y-42600000D03*
X36600000Y-42600000D03*
X49750000Y-49250000D03*
X48500000Y-54750000D03*
X76600000Y-67400000D03*
X77400000Y-66600000D03*
X49250000Y-54000000D03*
X78400000Y-65800000D03*
X50000000Y-54750000D03*
X79400000Y-65000000D03*
X50750000Y-54000000D03*
X104250000Y-60250000D03*
X34000000Y-71250000D03*
X54800000Y-86600000D03*
X42000000Y-31250000D03*
X57000000Y-67400000D03*
X38950000Y-95500000D03*
X40700000Y-94500000D03*
X58000000Y-67415369D03*
X42470313Y-93729687D03*
X60000000Y-67400000D03*
X59000000Y-67400000D03*
X37950000Y-91375000D03*
X50050000Y-70450000D03*
X38275000Y-89175000D03*
X39200000Y-86500000D03*
X51400000Y-70400000D03*
X55200000Y-67400000D03*
X41200000Y-85250000D03*
X68500000Y-31500000D03*
X53875000Y-54875000D03*
X64400000Y-32400000D03*
X52500000Y-53500000D03*
X60450000Y-31950000D03*
X54500000Y-52500000D03*
X85800000Y-55800000D03*
X102500000Y-57750000D03*
X87250000Y-58000000D03*
X44200000Y-82250000D03*
X54200000Y-67400000D03*
X28750000Y-63250000D03*
X75750000Y-68600000D03*
X75750000Y-88000000D03*
X47500000Y-57500000D03*
X51500000Y-56000000D03*
X52500000Y-56229305D03*
X62600000Y-58200000D03*
X61800000Y-59000000D03*
X45500000Y-61230001D03*
X49000000Y-65000000D03*
X72411056Y-89250000D03*
X47500000Y-53750000D03*
X98250000Y-89250000D03*
X95710000Y-89250000D03*
X32060000Y-81400000D03*
X34600000Y-81400000D03*
X84000000Y-112275000D03*
X84000000Y-109735000D03*
X78800000Y-23600000D03*
X24165000Y-47325000D03*
X24165000Y-40315000D03*
X21675000Y-46075000D03*
X21675000Y-41575000D03*
X118000000Y-116000000D03*
X118000000Y-24000000D03*
X91800000Y-112200000D03*
X91800000Y-109660000D03*
X92800000Y-23600000D03*
X22500000Y-32040000D03*
X22500000Y-104540000D03*
X119500000Y-32040000D03*
X119500000Y-104540000D03*
X22500000Y-59400000D03*
X22500000Y-61940000D03*
X22500000Y-64480000D03*
X22500000Y-67020000D03*
X22500000Y-69560000D03*
X22500000Y-72100000D03*
X22500000Y-74640000D03*
X22500000Y-77180000D03*
X94400000Y-49400000D03*
X91860000Y-49400000D03*
X99912500Y-112200000D03*
X99912500Y-109660000D03*
X24000000Y-24000000D03*
X24000000Y-116000000D03*
X108136250Y-112275000D03*
X108136250Y-109735000D03*
X89600000Y-28400000D03*
X87060000Y-28400000D03*
X84520000Y-28400000D03*
X81980000Y-28400000D03*
X102550000Y-49650000D03*
X118750000Y-81650000D03*
X98650000Y-49550000D03*
X98650000Y-52090000D03*
X98650000Y-54630000D03*
X98650000Y-57170000D03*
X98650000Y-59710000D03*
X98650000Y-62250000D03*
X98650000Y-64790000D03*
X112012500Y-101012500D03*
X112012500Y-90412500D03*
X104052500Y-89242500D03*
X104052500Y-91782500D03*
X104052500Y-94322500D03*
X104052500Y-96862500D03*
X104052500Y-99402500D03*
X104052500Y-101942500D03*
X111000000Y-115000000D03*
X111000000Y-117540000D03*
X108460000Y-115000000D03*
X108460000Y-117540000D03*
X105920000Y-115000000D03*
X105920000Y-117540000D03*
X103380000Y-115000000D03*
X103380000Y-117540000D03*
X100840000Y-115000000D03*
X100840000Y-117540000D03*
X98300000Y-115000000D03*
X98300000Y-117540000D03*
X95760000Y-115000000D03*
X95760000Y-117540000D03*
M02*
