%TF.GenerationSoftware,KiCad,Pcbnew,7.0.9*%
%TF.CreationDate,2024-06-04T23:52:15+02:00*%
%TF.ProjectId,EnvSensor-Main-v2.1,456e7653-656e-4736-9f72-2d4d61696e2d,rev?*%
%TF.SameCoordinates,Original*%
%TF.FileFunction,Copper,L4,Bot*%
%TF.FilePolarity,Positive*%
%FSLAX46Y46*%
G04 Gerber Fmt 4.6, Leading zero omitted, Abs format (unit mm)*
G04 Created by KiCad (PCBNEW 7.0.9) date 2024-06-04 23:52:15*
%MOMM*%
%LPD*%
G01*
G04 APERTURE LIST*
G04 Aperture macros list*
%AMRoundRect*
0 Rectangle with rounded corners*
0 $1 Rounding radius*
0 $2 $3 $4 $5 $6 $7 $8 $9 X,Y pos of 4 corners*
0 Add a 4 corners polygon primitive as box body*
4,1,4,$2,$3,$4,$5,$6,$7,$8,$9,$2,$3,0*
0 Add four circle primitives for the rounded corners*
1,1,$1+$1,$2,$3*
1,1,$1+$1,$4,$5*
1,1,$1+$1,$6,$7*
1,1,$1+$1,$8,$9*
0 Add four rect primitives between the rounded corners*
20,1,$1+$1,$2,$3,$4,$5,0*
20,1,$1+$1,$4,$5,$6,$7,0*
20,1,$1+$1,$6,$7,$8,$9,0*
20,1,$1+$1,$8,$9,$2,$3,0*%
%AMFreePoly0*
4,1,19,0.550000,-0.750000,0.000000,-0.750000,0.000000,-0.744911,-0.071157,-0.744911,-0.207708,-0.704816,-0.327430,-0.627875,-0.420627,-0.520320,-0.479746,-0.390866,-0.500000,-0.250000,-0.500000,0.250000,-0.479746,0.390866,-0.420627,0.520320,-0.327430,0.627875,-0.207708,0.704816,-0.071157,0.744911,0.000000,0.744911,0.000000,0.750000,0.550000,0.750000,0.550000,-0.750000,0.550000,-0.750000,
$1*%
%AMFreePoly1*
4,1,19,0.000000,0.744911,0.071157,0.744911,0.207708,0.704816,0.327430,0.627875,0.420627,0.520320,0.479746,0.390866,0.500000,0.250000,0.500000,-0.250000,0.479746,-0.390866,0.420627,-0.520320,0.327430,-0.627875,0.207708,-0.704816,0.071157,-0.744911,0.000000,-0.744911,0.000000,-0.750000,-0.550000,-0.750000,-0.550000,0.750000,0.000000,0.750000,0.000000,0.744911,0.000000,0.744911,
$1*%
G04 Aperture macros list end*
%TA.AperFunction,ComponentPad*%
%ADD10R,1.700000X1.700000*%
%TD*%
%TA.AperFunction,ComponentPad*%
%ADD11O,1.700000X1.700000*%
%TD*%
%TA.AperFunction,ComponentPad*%
%ADD12R,1.800000X1.800000*%
%TD*%
%TA.AperFunction,ComponentPad*%
%ADD13C,1.800000*%
%TD*%
%TA.AperFunction,ComponentPad*%
%ADD14C,1.500000*%
%TD*%
%TA.AperFunction,ComponentPad*%
%ADD15C,2.100000*%
%TD*%
%TA.AperFunction,ComponentPad*%
%ADD16C,1.750000*%
%TD*%
%TA.AperFunction,SMDPad,CuDef*%
%ADD17RoundRect,0.150000X-0.512500X-0.150000X0.512500X-0.150000X0.512500X0.150000X-0.512500X0.150000X0*%
%TD*%
%TA.AperFunction,SMDPad,CuDef*%
%ADD18R,0.350000X0.500000*%
%TD*%
%TA.AperFunction,SMDPad,CuDef*%
%ADD19FreePoly0,180.000000*%
%TD*%
%TA.AperFunction,SMDPad,CuDef*%
%ADD20R,1.000000X1.500000*%
%TD*%
%TA.AperFunction,SMDPad,CuDef*%
%ADD21FreePoly1,180.000000*%
%TD*%
%TA.AperFunction,SMDPad,CuDef*%
%ADD22RoundRect,0.250000X0.262500X0.450000X-0.262500X0.450000X-0.262500X-0.450000X0.262500X-0.450000X0*%
%TD*%
%TA.AperFunction,SMDPad,CuDef*%
%ADD23RoundRect,0.250000X0.450000X-0.262500X0.450000X0.262500X-0.450000X0.262500X-0.450000X-0.262500X0*%
%TD*%
%TA.AperFunction,SMDPad,CuDef*%
%ADD24RoundRect,0.250000X-0.475000X0.250000X-0.475000X-0.250000X0.475000X-0.250000X0.475000X0.250000X0*%
%TD*%
%TA.AperFunction,SMDPad,CuDef*%
%ADD25RoundRect,0.225000X0.250000X-0.225000X0.250000X0.225000X-0.250000X0.225000X-0.250000X-0.225000X0*%
%TD*%
%TA.AperFunction,SMDPad,CuDef*%
%ADD26R,0.800000X1.500000*%
%TD*%
%TA.AperFunction,SMDPad,CuDef*%
%ADD27R,1.500000X0.800000*%
%TD*%
%TA.AperFunction,SMDPad,CuDef*%
%ADD28R,4.800000X4.800000*%
%TD*%
%TA.AperFunction,SMDPad,CuDef*%
%ADD29RoundRect,0.225000X-0.225000X-0.250000X0.225000X-0.250000X0.225000X0.250000X-0.225000X0.250000X0*%
%TD*%
%TA.AperFunction,SMDPad,CuDef*%
%ADD30RoundRect,0.250000X-0.262500X-0.450000X0.262500X-0.450000X0.262500X0.450000X-0.262500X0.450000X0*%
%TD*%
%TA.AperFunction,SMDPad,CuDef*%
%ADD31R,2.000000X1.200000*%
%TD*%
%TA.AperFunction,ViaPad*%
%ADD32C,0.800000*%
%TD*%
%TA.AperFunction,ViaPad*%
%ADD33C,0.600000*%
%TD*%
%TA.AperFunction,Conductor*%
%ADD34C,1.000000*%
%TD*%
%TA.AperFunction,Conductor*%
%ADD35C,0.500000*%
%TD*%
%TA.AperFunction,Conductor*%
%ADD36C,0.300000*%
%TD*%
%ADD37C,0.350000*%
G04 APERTURE END LIST*
%TA.AperFunction,EtchedComponent*%
%TO.C,JP3*%
G36*
X108350000Y-102500000D02*
G01*
X107850000Y-102500000D01*
X107850000Y-101900000D01*
X108350000Y-101900000D01*
X108350000Y-102500000D01*
G37*
%TD.AperFunction*%
%TD*%
D10*
%TO.P,J1,1,Pin_1*%
%TO.N,/BMP280_VCC*%
X98250000Y-89250000D03*
D11*
%TO.P,J1,2,Pin_2*%
%TO.N,+3V3*%
X95710000Y-89250000D03*
%TD*%
D10*
%TO.P,J4,1,Pin_1*%
%TO.N,+3V3*%
X32060000Y-81400000D03*
D11*
%TO.P,J4,2,Pin_2*%
%TO.N,Net-(J4-Pin_2)*%
X34600000Y-81400000D03*
%TD*%
D12*
%TO.P,D2,1,K*%
%TO.N,GND*%
X84000000Y-112275000D03*
D13*
%TO.P,D2,2,A*%
%TO.N,Net-(D1-A)*%
X84000000Y-109735000D03*
%TD*%
D14*
%TO.P,H5,1*%
%TO.N,N/C*%
X78800000Y-23600000D03*
%TD*%
D15*
%TO.P,SW1,*%
%TO.N,*%
X24165000Y-47325000D03*
X24165000Y-40315000D03*
D16*
%TO.P,SW1,1,1*%
%TO.N,GND*%
X21675000Y-46075000D03*
%TO.P,SW1,2,2*%
%TO.N,NRST*%
X21675000Y-41575000D03*
%TD*%
D12*
%TO.P,D4,1,K*%
%TO.N,GND*%
X91800000Y-112200000D03*
D13*
%TO.P,D4,2,A*%
%TO.N,Net-(D3-A)*%
X91800000Y-109660000D03*
%TD*%
D14*
%TO.P,H6,1*%
%TO.N,N/C*%
X92800000Y-23600000D03*
%TD*%
D13*
%TO.P,U7,1,VDD*%
%TO.N,+3V3*%
X22500000Y-59400000D03*
%TO.P,U7,2,GND*%
%TO.N,GND*%
X22500000Y-61940000D03*
%TO.P,U7,3,DIN*%
%TO.N,MOSI*%
X22500000Y-64480000D03*
%TO.P,U7,4,CLK*%
%TO.N,SCK*%
X22500000Y-67020000D03*
%TO.P,U7,5,CS*%
%TO.N,E_INK_SELECT*%
X22500000Y-69560000D03*
%TO.P,U7,6,DC*%
%TO.N,E_INK_DC*%
X22500000Y-72100000D03*
%TO.P,U7,7,RST*%
%TO.N,E_INK_RESET*%
X22500000Y-74640000D03*
%TO.P,U7,8,BUSY*%
%TO.N,E_INK_BUSY*%
X22500000Y-77180000D03*
%TD*%
D10*
%TO.P,J2,1,Pin_1*%
%TO.N,/SCD_POWER*%
X94400000Y-49400000D03*
D11*
%TO.P,J2,2,Pin_2*%
%TO.N,+3V3*%
X91860000Y-49400000D03*
%TD*%
D12*
%TO.P,D6,1,K*%
%TO.N,GND*%
X99912500Y-112200000D03*
D13*
%TO.P,D6,2,A*%
%TO.N,Net-(D5-A)*%
X99912500Y-109660000D03*
%TD*%
D12*
%TO.P,D8,1,K*%
%TO.N,GND*%
X108136250Y-112275000D03*
D13*
%TO.P,D8,2,A*%
%TO.N,Net-(D7-A)*%
X108136250Y-109735000D03*
%TD*%
D10*
%TO.P,J7,1,Pin_1*%
%TO.N,SDA*%
X89600000Y-28400000D03*
D11*
%TO.P,J7,2,Pin_2*%
%TO.N,SCL*%
X87060000Y-28400000D03*
%TO.P,J7,3,Pin_3*%
%TO.N,GND*%
X84520000Y-28400000D03*
%TO.P,J7,4,Pin_4*%
%TO.N,+3V3*%
X81980000Y-28400000D03*
%TD*%
D17*
%TO.P,Q2,1,G*%
%TO.N,BATTERY_MEASURE_ENABLE*%
X39462500Y-57700000D03*
%TO.P,Q2,2,S*%
%TO.N,GND*%
X39462500Y-55800000D03*
%TO.P,Q2,3,D*%
%TO.N,Net-(Q2-D)*%
X41737500Y-56750000D03*
%TD*%
D18*
%TO.P,U2,1,GND*%
%TO.N,GND*%
X108500000Y-95225000D03*
%TO.P,U2,2,CSB*%
%TO.N,/BMP280_VCC*%
X107850000Y-95225000D03*
%TO.P,U2,3,SDI*%
%TO.N,SDA*%
X107200000Y-95225000D03*
%TO.P,U2,4,SCK*%
%TO.N,SCL*%
X106550000Y-95225000D03*
%TO.P,U2,5,SDO*%
%TO.N,Net-(JP3-C)*%
X106550000Y-97275000D03*
%TO.P,U2,6,VDDIO*%
%TO.N,/BMP280_VCC*%
X107200000Y-97275000D03*
%TO.P,U2,7,GND*%
%TO.N,GND*%
X107850000Y-97275000D03*
%TO.P,U2,8,VDD*%
%TO.N,/BMP280_VCC*%
X108500000Y-97275000D03*
%TD*%
D19*
%TO.P,JP3,1,A*%
%TO.N,GND*%
X108750000Y-102200000D03*
D20*
%TO.P,JP3,2,C*%
%TO.N,Net-(JP3-C)*%
X107450000Y-102200000D03*
D21*
%TO.P,JP3,3,B*%
%TO.N,/BMP280_VCC*%
X106150000Y-102200000D03*
%TD*%
D22*
%TO.P,R22,1*%
%TO.N,+BATT*%
X45662500Y-59750000D03*
%TO.P,R22,2*%
%TO.N,BATTERY_MEASURE_INPUT*%
X43837500Y-59750000D03*
%TD*%
D23*
%TO.P,R23,1*%
%TO.N,BATTERY_MEASURE_INPUT*%
X44000000Y-57912500D03*
%TO.P,R23,2*%
%TO.N,Net-(Q2-D)*%
X44000000Y-56087500D03*
%TD*%
D24*
%TO.P,C11,1*%
%TO.N,GND*%
X47500000Y-45800000D03*
%TO.P,C11,2*%
%TO.N,NRST*%
X47500000Y-47700000D03*
%TD*%
D25*
%TO.P,C22,1*%
%TO.N,BATTERY_MEASURE_INPUT*%
X46000000Y-57575000D03*
%TO.P,C22,2*%
%TO.N,GND*%
X46000000Y-56025000D03*
%TD*%
D12*
%TO.P,U3,1,VDD*%
%TO.N,/SCD_POWER*%
X98650000Y-49550000D03*
D13*
%TO.P,U3,2,GND*%
%TO.N,GND*%
X98650000Y-52090000D03*
%TO.P,U3,3,TX/SCL*%
%TO.N,SCL*%
X98650000Y-54630000D03*
%TO.P,U3,4,RX/SDA*%
%TO.N,SDA*%
X98650000Y-57170000D03*
%TO.P,U3,5,RDY*%
%TO.N,SCD30_READY*%
X98650000Y-59710000D03*
%TO.P,U3,6,PWM*%
%TO.N,unconnected-(U3-PWM-Pad6)*%
X98650000Y-62250000D03*
%TO.P,U3,7,SEL*%
%TO.N,GND*%
X98650000Y-64790000D03*
%TD*%
D26*
%TO.P,U4,1*%
%TO.N,N/C*%
X112500000Y-63000000D03*
%TO.P,U4,2*%
X111250000Y-63000000D03*
%TO.P,U4,3*%
X110000000Y-63000000D03*
%TO.P,U4,4*%
X108750000Y-63000000D03*
%TO.P,U4,5*%
X107500000Y-63000000D03*
D27*
%TO.P,U4,6,GND*%
%TO.N,GND*%
X106000000Y-61500000D03*
%TO.P,U4,7,VDD*%
%TO.N,/SCD_POWER*%
X106000000Y-60250000D03*
%TO.P,U4,8*%
%TO.N,N/C*%
X106000000Y-59000000D03*
%TO.P,U4,9,SCL*%
%TO.N,SCL*%
X106000000Y-57750000D03*
%TO.P,U4,10,SDA*%
%TO.N,SDA*%
X106000000Y-56500000D03*
D26*
%TO.P,U4,11*%
%TO.N,N/C*%
X107500000Y-55000000D03*
%TO.P,U4,12*%
X108750000Y-55000000D03*
%TO.P,U4,13*%
X110000000Y-55000000D03*
%TO.P,U4,14*%
X111250000Y-55000000D03*
%TO.P,U4,15*%
X112500000Y-55000000D03*
D27*
%TO.P,U4,16*%
X114000000Y-56500000D03*
%TO.P,U4,17*%
X114000000Y-57750000D03*
%TO.P,U4,18*%
X114000000Y-59000000D03*
%TO.P,U4,19,VDDH*%
%TO.N,/SCD_POWER*%
X114000000Y-60250000D03*
%TO.P,U4,20,GND*%
%TO.N,GND*%
X114000000Y-61500000D03*
D28*
%TO.P,U4,21,GND*%
X110000000Y-59000000D03*
%TD*%
D25*
%TO.P,C8,1*%
%TO.N,/BMP280_VCC*%
X110000000Y-97000000D03*
%TO.P,C8,2*%
%TO.N,GND*%
X110000000Y-95450000D03*
%TD*%
D29*
%TO.P,C9,1*%
%TO.N,/BMP280_VCC*%
X106750000Y-98975000D03*
%TO.P,C9,2*%
%TO.N,GND*%
X108300000Y-98975000D03*
%TD*%
D14*
%TO.P,U1,1,VDD*%
%TO.N,/BMP280_VCC*%
X104052500Y-89242500D03*
%TO.P,U1,2,GND*%
%TO.N,GND*%
X104052500Y-91782500D03*
%TO.P,U1,3,SCL*%
%TO.N,SCL*%
X104052500Y-94322500D03*
%TO.P,U1,4,SDA*%
%TO.N,SDA*%
X104052500Y-96862500D03*
%TO.P,U1,5,CSB*%
%TO.N,/BMP280_VCC*%
X104052500Y-99402500D03*
%TO.P,U1,6,SDO*%
%TO.N,GND*%
X104052500Y-101942500D03*
%TD*%
D30*
%TO.P,R24,1*%
%TO.N,BATTERY_MEASURE_ENABLE*%
X39337500Y-59750000D03*
%TO.P,R24,2*%
%TO.N,GND*%
X41162500Y-59750000D03*
%TD*%
D31*
%TO.P,U6,1,Reset*%
%TO.N,WIFI_RESET*%
X112250000Y-29000000D03*
%TO.P,U6,2,ADC*%
%TO.N,unconnected-(U6-ADC-Pad2)*%
X112250000Y-31000000D03*
%TO.P,U6,3,EN*%
%TO.N,WIFI_ENABLE*%
X112250000Y-33000000D03*
%TO.P,U6,4,IO16*%
%TO.N,unconnected-(U6-IO16-Pad4)*%
X112250000Y-35000000D03*
%TO.P,U6,5,IO14*%
%TO.N,unconnected-(U6-IO14-Pad5)*%
X112250000Y-37000000D03*
%TO.P,U6,6,IO12*%
%TO.N,unconnected-(U6-IO12-Pad6)*%
X112250000Y-39000000D03*
%TO.P,U6,7,IO13*%
%TO.N,unconnected-(U6-IO13-Pad7)*%
X112250000Y-41000000D03*
%TO.P,U6,8,VCC*%
%TO.N,+3V3*%
X112250000Y-43000000D03*
%TO.P,U6,9,GND*%
%TO.N,GND*%
X96250000Y-43000000D03*
%TO.P,U6,10,IO15*%
%TO.N,unconnected-(U6-IO15-Pad10)*%
X96250000Y-41000000D03*
%TO.P,U6,11,IO2*%
%TO.N,unconnected-(U6-IO2-Pad11)*%
X96250000Y-39000000D03*
%TO.P,U6,12,IO0*%
%TO.N,unconnected-(U6-IO0-Pad12)*%
X96250000Y-37000000D03*
%TO.P,U6,13,IO4*%
%TO.N,unconnected-(U6-IO4-Pad13)*%
X96250000Y-35000000D03*
%TO.P,U6,14,IO5*%
%TO.N,unconnected-(U6-IO5-Pad14)*%
X96250000Y-33000000D03*
%TO.P,U6,15,RXD0*%
%TO.N,WIFI_RX*%
X96250000Y-31000000D03*
%TO.P,U6,16,TXD0*%
%TO.N,WFI_TX*%
X96250000Y-29000000D03*
%TD*%
D10*
%TO.P,J8,1,Pin_1*%
%TO.N,+3V3*%
X111000000Y-115000000D03*
D11*
%TO.P,J8,2,Pin_2*%
%TO.N,GND*%
X111000000Y-117540000D03*
%TO.P,J8,3,Pin_3*%
%TO.N,+3V3*%
X108460000Y-115000000D03*
%TO.P,J8,4,Pin_4*%
%TO.N,GND*%
X108460000Y-117540000D03*
%TO.P,J8,5,Pin_5*%
%TO.N,+5V*%
X105920000Y-115000000D03*
%TO.P,J8,6,Pin_6*%
%TO.N,GND*%
X105920000Y-117540000D03*
%TO.P,J8,7,Pin_7*%
%TO.N,+5V*%
X103380000Y-115000000D03*
%TO.P,J8,8,Pin_8*%
%TO.N,GND*%
X103380000Y-117540000D03*
%TO.P,J8,9,Pin_9*%
%TO.N,POWER_5V_ENABLE*%
X100840000Y-115000000D03*
%TO.P,J8,10,Pin_10*%
%TO.N,GND*%
X100840000Y-117540000D03*
%TO.P,J8,11,Pin_11*%
%TO.N,+BATT*%
X98300000Y-115000000D03*
%TO.P,J8,12,Pin_12*%
%TO.N,GND*%
X98300000Y-117540000D03*
%TO.P,J8,13,Pin_13*%
%TO.N,VBUS*%
X95760000Y-115000000D03*
%TO.P,J8,14,Pin_14*%
%TO.N,GND*%
X95760000Y-117540000D03*
%TD*%
D32*
%TO.N,+3V3*%
X43000000Y-62250000D03*
D33*
X58750000Y-51750000D03*
D32*
X42500000Y-54250000D03*
X86400000Y-47200000D03*
X37000000Y-53655172D03*
D33*
X45500000Y-68750000D03*
D32*
X40750000Y-54250000D03*
X45800000Y-49400000D03*
X67000000Y-68000000D03*
D33*
X39000000Y-68750000D03*
X42250000Y-68750000D03*
D32*
X56000000Y-65500000D03*
X91000000Y-93000000D03*
D33*
X48000000Y-69600000D03*
%TO.N,GND*%
X109600000Y-102200000D03*
X47500000Y-45000000D03*
X63000000Y-45000000D03*
X115000000Y-61500000D03*
X49000000Y-46500000D03*
X109000000Y-99000000D03*
X54250000Y-43750000D03*
X53750000Y-36250000D03*
X56500000Y-36250000D03*
X27800000Y-63200000D03*
X56500000Y-38500000D03*
X48600000Y-52200000D03*
X63000000Y-47250000D03*
X48500000Y-38500000D03*
X40700000Y-90000000D03*
X53750000Y-46250000D03*
X53750000Y-52500000D03*
X62000000Y-46500000D03*
X103000000Y-58500000D03*
X57500000Y-50000000D03*
X110000000Y-94500000D03*
X53250000Y-54250000D03*
X40200000Y-50750000D03*
X43500000Y-34650000D03*
X56500000Y-43500000D03*
X51750000Y-37912500D03*
X50750000Y-36250000D03*
X42000000Y-59750000D03*
X62000000Y-48500000D03*
X39250000Y-66250000D03*
X51000000Y-48250000D03*
X77750000Y-44000000D03*
X36000000Y-30500000D03*
X65400000Y-29800000D03*
X49250000Y-48250000D03*
X95000000Y-43000000D03*
X53319500Y-39912500D03*
X60250000Y-50000000D03*
X50000000Y-46250000D03*
X55600000Y-109000000D03*
X63000000Y-50000000D03*
X86500000Y-56200000D03*
X48500000Y-40750000D03*
X46500000Y-55000000D03*
X68750000Y-118250000D03*
X67600000Y-109000000D03*
X58750000Y-54250000D03*
X36000000Y-25000000D03*
X50750000Y-24600000D03*
X56500000Y-40750000D03*
X48500000Y-36250000D03*
X54500000Y-41912500D03*
X56750000Y-118250000D03*
X51000000Y-41912500D03*
X54750000Y-46250000D03*
X32750000Y-118250000D03*
X45750000Y-66250000D03*
X25775000Y-85250000D03*
X57500000Y-45000000D03*
X44750000Y-118250000D03*
X36000000Y-66250000D03*
X38000000Y-57000000D03*
X55500000Y-49500000D03*
X88200000Y-58000000D03*
X42500000Y-66250000D03*
X42000000Y-51250000D03*
X48500000Y-43000000D03*
X65400000Y-25200000D03*
X44750000Y-107750000D03*
X37450000Y-90275000D03*
X32750000Y-107750000D03*
X52250000Y-55500000D03*
X42000000Y-34412500D03*
X53250000Y-48000000D03*
X60250000Y-45000000D03*
X54000000Y-65200000D03*
%TO.N,NRST*%
X46000000Y-42600000D03*
X36600000Y-42600000D03*
X49750000Y-49250000D03*
%TO.N,LED_1*%
X48500000Y-54750000D03*
X76600000Y-67400000D03*
%TO.N,LED_2*%
X77400000Y-66600000D03*
X49250000Y-54000000D03*
%TO.N,LED_3*%
X78400000Y-65800000D03*
X50000000Y-54750000D03*
%TO.N,LED_4*%
X79400000Y-65000000D03*
X50750000Y-54000000D03*
%TO.N,/SCD_POWER*%
X104250000Y-60250000D03*
D32*
%TO.N,+5V*%
X34000000Y-71250000D03*
X54800000Y-86600000D03*
X42000000Y-31250000D03*
D33*
%TO.N,SDIO_DATA2*%
X57000000Y-67400000D03*
X38950000Y-95500000D03*
%TO.N,SDIO_DATA3*%
X40700000Y-94500000D03*
X58000000Y-67415369D03*
%TO.N,SDIO_CMD*%
X42470313Y-93729687D03*
X60000000Y-67400000D03*
%TO.N,SDIO_CLK*%
X59000000Y-67400000D03*
X37950000Y-91375000D03*
%TO.N,SDIO_DATA0*%
X50050000Y-70450000D03*
X38275000Y-89175000D03*
%TO.N,SDIO_DATA1*%
X39200000Y-86500000D03*
X51400000Y-70400000D03*
%TO.N,SDIO_DETECT*%
X55200000Y-67400000D03*
X41200000Y-85250000D03*
%TO.N,SWCLK*%
X68500000Y-31500000D03*
X53875000Y-54875000D03*
%TO.N,SWDIO*%
X64400000Y-32400000D03*
X52500000Y-53500000D03*
%TO.N,SWO*%
X60450000Y-31950000D03*
X54500000Y-52500000D03*
%TO.N,SDA*%
X85800000Y-55800000D03*
%TO.N,SCL*%
X102500000Y-57750000D03*
X87250000Y-58000000D03*
%TO.N,SDIO_POWER_ENABLE*%
X44200000Y-82250000D03*
X54200000Y-67400000D03*
%TO.N,MOSI*%
X28750000Y-63250000D03*
%TO.N,POWER_5V_ENABLE*%
X75750000Y-68600000D03*
X75750000Y-88000000D03*
X47500000Y-57500000D03*
%TO.N,WIFI_RX*%
X51500000Y-56000000D03*
%TO.N,WFI_TX*%
X52500000Y-56229305D03*
%TO.N,WIFI_RESET*%
X62600000Y-58200000D03*
%TO.N,WIFI_ENABLE*%
X61800000Y-59000000D03*
%TO.N,BATTERY_MEASURE_ENABLE*%
X45500000Y-61230001D03*
%TO.N,+BATT*%
X49000000Y-65000000D03*
X72411056Y-89250000D03*
%TO.N,BATTERY_MEASURE_INPUT*%
X47500000Y-53750000D03*
%TD*%
D34*
%TO.N,+3V3*%
X111000000Y-108800000D02*
X111000000Y-115000000D01*
X103000000Y-105000000D02*
X107200000Y-105000000D01*
X43750000Y-62250000D02*
X47250000Y-65750000D01*
X82750000Y-50850000D02*
X82750000Y-84750000D01*
X107200000Y-105000000D02*
X111000000Y-108800000D01*
X40750000Y-54250000D02*
X42500000Y-54250000D01*
X55300000Y-66200000D02*
X56000000Y-65500000D01*
X47550000Y-66200000D02*
X55300000Y-66200000D01*
X56000000Y-65500000D02*
X56100000Y-65600000D01*
D35*
X45800000Y-52200000D02*
X43750000Y-54250000D01*
D34*
X40100000Y-53600000D02*
X40750000Y-54250000D01*
X64600000Y-65600000D02*
X69000000Y-70000000D01*
X56100000Y-65600000D02*
X64600000Y-65600000D01*
D35*
X45800000Y-49400000D02*
X45800000Y-52200000D01*
D34*
X69000000Y-70000000D02*
X82750000Y-70000000D01*
X38500000Y-62250000D02*
X37000000Y-60750000D01*
D35*
X43750000Y-54250000D02*
X42500000Y-54250000D01*
D34*
X43000000Y-62250000D02*
X38500000Y-62250000D01*
X37000000Y-53655172D02*
X37055172Y-53600000D01*
D35*
X58250000Y-51250000D02*
X45800000Y-51250000D01*
D34*
X100550000Y-47200000D02*
X104750000Y-43000000D01*
X91860000Y-49400000D02*
X91860000Y-47340000D01*
D35*
X39000000Y-68750000D02*
X39750000Y-68750000D01*
D34*
X86400000Y-47200000D02*
X82750000Y-50850000D01*
X92000000Y-47200000D02*
X100550000Y-47200000D01*
D35*
X47250000Y-68750000D02*
X45500000Y-68750000D01*
D34*
X47250000Y-65750000D02*
X47250000Y-66500000D01*
X37000000Y-53655172D02*
X37000000Y-54500000D01*
X108460000Y-115000000D02*
X111000000Y-115000000D01*
D35*
X58750000Y-51750000D02*
X58250000Y-51250000D01*
D34*
X82750000Y-84750000D02*
X91000000Y-93000000D01*
D35*
X39000000Y-69000000D02*
X39000000Y-68750000D01*
D34*
X37000000Y-60750000D02*
X37000000Y-54500000D01*
X91860000Y-47340000D02*
X92000000Y-47200000D01*
D35*
X39750000Y-68750000D02*
X42250000Y-68750000D01*
X48000000Y-69600000D02*
X48000000Y-69500000D01*
X47250000Y-68750000D02*
X47250000Y-66500000D01*
D34*
X104750000Y-43000000D02*
X112250000Y-43000000D01*
D35*
X32060000Y-75940000D02*
X39000000Y-69000000D01*
D34*
X43000000Y-62250000D02*
X43750000Y-62250000D01*
X47250000Y-66500000D02*
X47550000Y-66200000D01*
D35*
X48000000Y-69500000D02*
X47250000Y-68750000D01*
D34*
X86400000Y-47200000D02*
X92000000Y-47200000D01*
D35*
X42250000Y-68750000D02*
X45500000Y-68750000D01*
X32060000Y-81400000D02*
X32060000Y-75940000D01*
D34*
X37055172Y-53600000D02*
X40100000Y-53600000D01*
X91000000Y-93000000D02*
X103000000Y-105000000D01*
D36*
%TO.N,GND*%
X46500000Y-55350000D02*
X46500000Y-55000000D01*
X39200000Y-55800000D02*
X38000000Y-57000000D01*
X108300000Y-98975000D02*
X108975000Y-98975000D01*
X110000000Y-95450000D02*
X110000000Y-94500000D01*
X108975000Y-95225000D02*
X109200000Y-95450000D01*
X108750000Y-102200000D02*
X109600000Y-102200000D01*
D35*
X107500000Y-61500000D02*
X110000000Y-59000000D01*
D36*
X108300000Y-98300000D02*
X107850000Y-97850000D01*
D35*
X112500000Y-61500000D02*
X110000000Y-59000000D01*
X114000000Y-61500000D02*
X112500000Y-61500000D01*
X114000000Y-61500000D02*
X115000000Y-61500000D01*
D36*
X109200000Y-95450000D02*
X110000000Y-95450000D01*
X108500000Y-95225000D02*
X108975000Y-95225000D01*
X47500000Y-45800000D02*
X47500000Y-45000000D01*
X46000000Y-55850000D02*
X46500000Y-55350000D01*
X108975000Y-98975000D02*
X109000000Y-99000000D01*
D35*
X96250000Y-43000000D02*
X95000000Y-43000000D01*
X106000000Y-61500000D02*
X107500000Y-61500000D01*
D36*
X42000000Y-59750000D02*
X41162500Y-59750000D01*
X39875000Y-55800000D02*
X39200000Y-55800000D01*
X108300000Y-98975000D02*
X108300000Y-98300000D01*
X107850000Y-97850000D02*
X107850000Y-97275000D01*
%TO.N,/BMP280_VCC*%
X108500000Y-97275000D02*
X108500000Y-96800000D01*
X106150000Y-101750000D02*
X106150000Y-101500000D01*
X109250000Y-97000000D02*
X110000000Y-97000000D01*
X107200000Y-97275000D02*
X107200000Y-96800000D01*
X108975000Y-97275000D02*
X109250000Y-97000000D01*
X104052500Y-89242500D02*
X104492500Y-89242500D01*
X107200000Y-97800000D02*
X107200000Y-97275000D01*
X107850000Y-96150000D02*
X107850000Y-95225000D01*
X106150000Y-101500000D02*
X104052500Y-99402500D01*
X107200000Y-96800000D02*
X107850000Y-96150000D01*
X108500000Y-96800000D02*
X107850000Y-96150000D01*
X107850000Y-92600000D02*
X107850000Y-95225000D01*
X106750000Y-98975000D02*
X106750000Y-98250000D01*
X108500000Y-97275000D02*
X108975000Y-97275000D01*
X106750000Y-98250000D02*
X107200000Y-97800000D01*
X104492500Y-89242500D02*
X107850000Y-92600000D01*
%TO.N,NRST*%
X48000000Y-49250000D02*
X49750000Y-49250000D01*
X46000000Y-42600000D02*
X46000000Y-46750000D01*
X47500000Y-47700000D02*
X47500000Y-48750000D01*
X46000000Y-46750000D02*
X46950000Y-47700000D01*
X46950000Y-47700000D02*
X47500000Y-47700000D01*
X36600000Y-42600000D02*
X46000000Y-42600000D01*
X47500000Y-48750000D02*
X48000000Y-49250000D01*
%TO.N,LED_1*%
X51937500Y-63000000D02*
X48500000Y-59562500D01*
X72200000Y-63000000D02*
X51937500Y-63000000D01*
X48500000Y-59562500D02*
X48500000Y-54750000D01*
X76600000Y-67400000D02*
X72200000Y-63000000D01*
%TO.N,LED_2*%
X49250000Y-59000000D02*
X49250000Y-54000000D01*
X52250000Y-62000000D02*
X49250000Y-59000000D01*
X77400000Y-66600000D02*
X72800000Y-62000000D01*
X72800000Y-62000000D02*
X52250000Y-62000000D01*
%TO.N,LED_3*%
X78400000Y-65800000D02*
X73600000Y-61000000D01*
X50000000Y-58500000D02*
X50000000Y-54750000D01*
X52500000Y-61000000D02*
X50000000Y-58500000D01*
X73600000Y-61000000D02*
X52500000Y-61000000D01*
%TO.N,LED_4*%
X74400000Y-60000000D02*
X52750000Y-60000000D01*
X52750000Y-60000000D02*
X50750000Y-58000000D01*
X79400000Y-65000000D02*
X74400000Y-60000000D01*
X50750000Y-58000000D02*
X50750000Y-54000000D01*
D35*
%TO.N,/SCD_POWER*%
X115750000Y-64000000D02*
X114750000Y-65000000D01*
X105000000Y-60250000D02*
X106000000Y-60250000D01*
D34*
X94400000Y-49400000D02*
X98500000Y-49400000D01*
D35*
X114750000Y-65000000D02*
X105062500Y-65000000D01*
X115500000Y-60250000D02*
X115750000Y-60500000D01*
D34*
X98500000Y-49400000D02*
X98650000Y-49550000D01*
D35*
X104250000Y-60250000D02*
X106000000Y-60250000D01*
X114000000Y-60250000D02*
X115500000Y-60250000D01*
X105062500Y-65000000D02*
X104250000Y-64187500D01*
X115750000Y-60500000D02*
X115750000Y-64000000D01*
X104250000Y-64187500D02*
X104250000Y-60250000D01*
D34*
%TO.N,+5V*%
X103400000Y-109100000D02*
X103400000Y-114980000D01*
X34000000Y-39250000D02*
X42000000Y-31250000D01*
X54800000Y-86600000D02*
X80900000Y-86600000D01*
X80900000Y-86600000D02*
X103400000Y-109100000D01*
X103380000Y-115000000D02*
X105920000Y-115000000D01*
X103400000Y-114980000D02*
X103380000Y-115000000D01*
X34000000Y-71250000D02*
X34000000Y-39250000D01*
D36*
%TO.N,SDIO_DATA2*%
X57000000Y-74700000D02*
X38950000Y-92750000D01*
X38950000Y-92750000D02*
X38950000Y-95500000D01*
X57000000Y-67400000D02*
X57000000Y-74700000D01*
%TO.N,SDIO_DATA3*%
X58000000Y-75450000D02*
X40700000Y-92750000D01*
X40700000Y-92750000D02*
X40700000Y-94500000D01*
X58000000Y-67415369D02*
X58000000Y-75450000D01*
%TO.N,SDIO_CMD*%
X60000000Y-67800000D02*
X59000000Y-68800000D01*
X42470313Y-92654687D02*
X42470313Y-93729687D01*
X59000000Y-76125000D02*
X42470313Y-92654687D01*
X60000000Y-67400000D02*
X60000000Y-67800000D01*
X59000000Y-68800000D02*
X59000000Y-76125000D01*
%TO.N,SDIO_CLK*%
X56100000Y-73850000D02*
X40950000Y-89000000D01*
X56650000Y-66600000D02*
X56100000Y-67150000D01*
X58600000Y-66600000D02*
X56650000Y-66600000D01*
X40950000Y-89000000D02*
X40450000Y-89000000D01*
X40450000Y-89000000D02*
X38075000Y-91375000D01*
X38075000Y-91375000D02*
X37950000Y-91375000D01*
X59000000Y-67000000D02*
X58600000Y-66600000D01*
X59000000Y-67400000D02*
X59000000Y-67000000D01*
X56100000Y-67150000D02*
X56100000Y-73850000D01*
%TO.N,SDIO_DATA0*%
X50050000Y-70450000D02*
X50050000Y-73350000D01*
X38275000Y-85125000D02*
X38275000Y-89175000D01*
X50050000Y-73350000D02*
X38275000Y-85125000D01*
%TO.N,SDIO_DATA1*%
X51400000Y-73550000D02*
X39200000Y-85750000D01*
X51400000Y-70400000D02*
X51400000Y-73550000D01*
X39200000Y-85750000D02*
X39200000Y-86500000D01*
%TO.N,SDIO_DETECT*%
X42950000Y-85250000D02*
X41200000Y-85250000D01*
X55200000Y-73000000D02*
X42950000Y-85250000D01*
X55200000Y-67400000D02*
X55200000Y-73000000D01*
%TO.N,SWCLK*%
X53875000Y-54875000D02*
X54000000Y-55000000D01*
X66000000Y-55000000D02*
X73000000Y-48000000D01*
X54000000Y-55000000D02*
X66000000Y-55000000D01*
X73000000Y-48000000D02*
X73000000Y-36000000D01*
X73000000Y-36000000D02*
X68500000Y-31500000D01*
%TO.N,SWDIO*%
X71750000Y-47250000D02*
X65500000Y-53500000D01*
X65750000Y-33750000D02*
X68500000Y-33750000D01*
X65500000Y-53500000D02*
X52500000Y-53500000D01*
X64400000Y-32400000D02*
X65750000Y-33750000D01*
X68500000Y-33750000D02*
X71750000Y-37000000D01*
X71750000Y-37000000D02*
X71750000Y-47250000D01*
%TO.N,SWO*%
X68250000Y-35500000D02*
X70500000Y-37750000D01*
X70500000Y-37750000D02*
X70500000Y-46500000D01*
X64500000Y-52500000D02*
X54500000Y-52500000D01*
X70500000Y-46500000D02*
X64500000Y-52500000D01*
X64000000Y-35500000D02*
X68250000Y-35500000D01*
X60450000Y-31950000D02*
X64000000Y-35500000D01*
%TO.N,SDA*%
X104665000Y-96250000D02*
X104052500Y-96862500D01*
X106750000Y-96250000D02*
X104665000Y-96250000D01*
X107200000Y-95800000D02*
X106750000Y-96250000D01*
X98650000Y-57170000D02*
X101030000Y-57170000D01*
X85800000Y-85300000D02*
X85800000Y-57150000D01*
X98650000Y-57170000D02*
X98570000Y-57250000D01*
X85900000Y-57250000D02*
X85800000Y-57150000D01*
X101030000Y-57170000D02*
X101700000Y-56500000D01*
X98570000Y-57250000D02*
X85900000Y-57250000D01*
X85800000Y-56000000D02*
X85750000Y-55950000D01*
X104052500Y-96862500D02*
X97362500Y-96862500D01*
X101700000Y-56500000D02*
X106000000Y-56500000D01*
X97362500Y-96862500D02*
X85800000Y-85300000D01*
X85750000Y-55950000D02*
X85800000Y-55800000D01*
X85800000Y-57150000D02*
X85800000Y-56000000D01*
X107200000Y-95225000D02*
X107200000Y-95800000D01*
%TO.N,SCL*%
X87250000Y-84400000D02*
X97172500Y-94322500D01*
X87250000Y-58000000D02*
X87250000Y-84400000D01*
X104052500Y-94322500D02*
X106072500Y-94322500D01*
X97172500Y-94322500D02*
X104052500Y-94322500D01*
X102500000Y-57750000D02*
X106000000Y-57750000D01*
X106550000Y-94800000D02*
X106550000Y-95225000D01*
X106072500Y-94322500D02*
X106550000Y-94800000D01*
%TO.N,Net-(JP3-C)*%
X106550000Y-97612500D02*
X106550000Y-97275000D01*
X107450000Y-101450000D02*
X105750000Y-99750000D01*
X105750000Y-99750000D02*
X105750000Y-98412500D01*
X105750000Y-98412500D02*
X106550000Y-97612500D01*
X107450000Y-101750000D02*
X107450000Y-101450000D01*
%TO.N,SDIO_POWER_ENABLE*%
X54200000Y-67400000D02*
X54200000Y-72250000D01*
X54200000Y-72250000D02*
X44200000Y-82250000D01*
%TO.N,MOSI*%
X22563673Y-64416327D02*
X22500000Y-64480000D01*
X28750000Y-63250000D02*
X27583673Y-64416327D01*
X27583673Y-64416327D02*
X22563673Y-64416327D01*
%TO.N,POWER_5V_ENABLE*%
X102000000Y-113840000D02*
X100840000Y-115000000D01*
X100400000Y-115000000D02*
X100840000Y-115000000D01*
X95275000Y-107525000D02*
X95750000Y-108000000D01*
X75750000Y-88000000D02*
X95275000Y-107525000D01*
X95750000Y-108000000D02*
X100600000Y-108000000D01*
X75750000Y-68600000D02*
X75750000Y-68550000D01*
X100600000Y-108000000D02*
X102000000Y-109400000D01*
X102000000Y-109400000D02*
X102000000Y-113840000D01*
X100840000Y-114640000D02*
X100840000Y-115000000D01*
X75750000Y-88000000D02*
X75750000Y-88250000D01*
X47500000Y-59750000D02*
X47500000Y-57500000D01*
X71200000Y-64000000D02*
X51750000Y-64000000D01*
X75750000Y-68550000D02*
X71200000Y-64000000D01*
X51750000Y-64000000D02*
X47500000Y-59750000D01*
%TO.N,WIFI_RX*%
X93000000Y-34906030D02*
X93000000Y-32000000D01*
X51500000Y-56000000D02*
X51500000Y-56500000D01*
X94000000Y-31000000D02*
X96250000Y-31000000D01*
X70906030Y-57000000D02*
X93000000Y-34906030D01*
X93000000Y-32000000D02*
X94000000Y-31000000D01*
X52000000Y-57000000D02*
X70906030Y-57000000D01*
X51500000Y-56500000D02*
X52000000Y-57000000D01*
%TO.N,WFI_TX*%
X93625000Y-29000000D02*
X96250000Y-29000000D01*
X53000000Y-56000000D02*
X70250000Y-56000000D01*
X52500000Y-56229305D02*
X52520695Y-56250000D01*
X52520695Y-56250000D02*
X52750000Y-56250000D01*
X91500000Y-31125000D02*
X93625000Y-29000000D01*
X91500000Y-34750000D02*
X91500000Y-31125000D01*
X70250000Y-56000000D02*
X91500000Y-34750000D01*
X52750000Y-56250000D02*
X53000000Y-56000000D01*
%TO.N,WIFI_RESET*%
X71425000Y-58200000D02*
X85125000Y-44500000D01*
X107500000Y-32000000D02*
X110500000Y-29000000D01*
X85125000Y-44500000D02*
X98500000Y-44500000D01*
X107500000Y-35500000D02*
X107500000Y-32000000D01*
X98500000Y-44500000D02*
X107500000Y-35500000D01*
X62600000Y-58200000D02*
X71425000Y-58200000D01*
X110500000Y-29000000D02*
X112250000Y-29000000D01*
%TO.N,WIFI_ENABLE*%
X61800000Y-59000000D02*
X72250000Y-59000000D01*
X109000000Y-34000000D02*
X110000000Y-33000000D01*
X99250000Y-45750000D02*
X109000000Y-36000000D01*
X72250000Y-59000000D02*
X85500000Y-45750000D01*
X110000000Y-33000000D02*
X112250000Y-33000000D01*
X109000000Y-36000000D02*
X109000000Y-34000000D01*
X85500000Y-45750000D02*
X99250000Y-45750000D01*
%TO.N,BATTERY_MEASURE_ENABLE*%
X39337500Y-59750000D02*
X39337500Y-58912500D01*
X39875000Y-58375000D02*
X39875000Y-57700000D01*
X45500000Y-61230001D02*
X39980001Y-61230001D01*
X39337500Y-60587500D02*
X39337500Y-59750000D01*
X39337500Y-58912500D02*
X39875000Y-58375000D01*
X39980001Y-61230001D02*
X39337500Y-60587500D01*
%TO.N,+BATT*%
X98300000Y-115000000D02*
X98300000Y-114500000D01*
X95400000Y-110400000D02*
X95400000Y-112100000D01*
X72411056Y-89250000D02*
X74250000Y-89250000D01*
X49000000Y-65000000D02*
X49000000Y-63087500D01*
X95400000Y-112100000D02*
X98300000Y-115000000D01*
X49000000Y-63087500D02*
X45662500Y-59750000D01*
X74250000Y-89250000D02*
X95400000Y-110400000D01*
%TO.N,BATTERY_MEASURE_INPUT*%
X47500000Y-53750000D02*
X47500000Y-56250000D01*
X47500000Y-56250000D02*
X46000000Y-57750000D01*
X45000000Y-57750000D02*
X46000000Y-57750000D01*
X44000000Y-57912500D02*
X44000000Y-58750000D01*
X43837500Y-59750000D02*
X43837500Y-58912500D01*
X43837500Y-58912500D02*
X44000000Y-58750000D01*
X44837500Y-57912500D02*
X45000000Y-57750000D01*
X44000000Y-57912500D02*
X44837500Y-57912500D01*
%TO.N,Net-(Q2-D)*%
X42750000Y-56750000D02*
X43412500Y-56087500D01*
X41750000Y-56750000D02*
X42750000Y-56750000D01*
X43412500Y-56087500D02*
X44000000Y-56087500D01*
%TD*%
D37*
X43000000Y-62250000D03*
X58750000Y-51750000D03*
X42500000Y-54250000D03*
X86400000Y-47200000D03*
X37000000Y-53655172D03*
X45500000Y-68750000D03*
X40750000Y-54250000D03*
X45800000Y-49400000D03*
X67000000Y-68000000D03*
X39000000Y-68750000D03*
X42250000Y-68750000D03*
X56000000Y-65500000D03*
X91000000Y-93000000D03*
X48000000Y-69600000D03*
X109600000Y-102200000D03*
X47500000Y-45000000D03*
X63000000Y-45000000D03*
X115000000Y-61500000D03*
X49000000Y-46500000D03*
X109000000Y-99000000D03*
X54250000Y-43750000D03*
X53750000Y-36250000D03*
X56500000Y-36250000D03*
X27800000Y-63200000D03*
X56500000Y-38500000D03*
X48600000Y-52200000D03*
X63000000Y-47250000D03*
X48500000Y-38500000D03*
X40700000Y-90000000D03*
X53750000Y-46250000D03*
X53750000Y-52500000D03*
X62000000Y-46500000D03*
X103000000Y-58500000D03*
X57500000Y-50000000D03*
X110000000Y-94500000D03*
X53250000Y-54250000D03*
X40200000Y-50750000D03*
X43500000Y-34650000D03*
X56500000Y-43500000D03*
X51750000Y-37912500D03*
X50750000Y-36250000D03*
X42000000Y-59750000D03*
X62000000Y-48500000D03*
X39250000Y-66250000D03*
X51000000Y-48250000D03*
X77750000Y-44000000D03*
X36000000Y-30500000D03*
X65400000Y-29800000D03*
X49250000Y-48250000D03*
X95000000Y-43000000D03*
X53319500Y-39912500D03*
X60250000Y-50000000D03*
X50000000Y-46250000D03*
X55600000Y-109000000D03*
X63000000Y-50000000D03*
X86500000Y-56200000D03*
X48500000Y-40750000D03*
X46500000Y-55000000D03*
X68750000Y-118250000D03*
X67600000Y-109000000D03*
X58750000Y-54250000D03*
X36000000Y-25000000D03*
X50750000Y-24600000D03*
X56500000Y-40750000D03*
X48500000Y-36250000D03*
X54500000Y-41912500D03*
X56750000Y-118250000D03*
X51000000Y-41912500D03*
X54750000Y-46250000D03*
X32750000Y-118250000D03*
X45750000Y-66250000D03*
X25775000Y-85250000D03*
X57500000Y-45000000D03*
X44750000Y-118250000D03*
X36000000Y-66250000D03*
X38000000Y-57000000D03*
X55500000Y-49500000D03*
X88200000Y-58000000D03*
X42500000Y-66250000D03*
X42000000Y-51250000D03*
X48500000Y-43000000D03*
X65400000Y-25200000D03*
X44750000Y-107750000D03*
X37450000Y-90275000D03*
X32750000Y-107750000D03*
X52250000Y-55500000D03*
X42000000Y-34412500D03*
X53250000Y-48000000D03*
X60250000Y-45000000D03*
X54000000Y-65200000D03*
X46000000Y-42600000D03*
X36600000Y-42600000D03*
X49750000Y-49250000D03*
X48500000Y-54750000D03*
X76600000Y-67400000D03*
X77400000Y-66600000D03*
X49250000Y-54000000D03*
X78400000Y-65800000D03*
X50000000Y-54750000D03*
X79400000Y-65000000D03*
X50750000Y-54000000D03*
X104250000Y-60250000D03*
X34000000Y-71250000D03*
X54800000Y-86600000D03*
X42000000Y-31250000D03*
X57000000Y-67400000D03*
X38950000Y-95500000D03*
X40700000Y-94500000D03*
X58000000Y-67415369D03*
X42470313Y-93729687D03*
X60000000Y-67400000D03*
X59000000Y-67400000D03*
X37950000Y-91375000D03*
X50050000Y-70450000D03*
X38275000Y-89175000D03*
X39200000Y-86500000D03*
X51400000Y-70400000D03*
X55200000Y-67400000D03*
X41200000Y-85250000D03*
X68500000Y-31500000D03*
X53875000Y-54875000D03*
X64400000Y-32400000D03*
X52500000Y-53500000D03*
X60450000Y-31950000D03*
X54500000Y-52500000D03*
X85800000Y-55800000D03*
X102500000Y-57750000D03*
X87250000Y-58000000D03*
X44200000Y-82250000D03*
X54200000Y-67400000D03*
X28750000Y-63250000D03*
X75750000Y-68600000D03*
X75750000Y-88000000D03*
X47500000Y-57500000D03*
X51500000Y-56000000D03*
X52500000Y-56229305D03*
X62600000Y-58200000D03*
X61800000Y-59000000D03*
X45500000Y-61230001D03*
X49000000Y-65000000D03*
X72411056Y-89250000D03*
X47500000Y-53750000D03*
X98250000Y-89250000D03*
X95710000Y-89250000D03*
X32060000Y-81400000D03*
X34600000Y-81400000D03*
X84000000Y-112275000D03*
X84000000Y-109735000D03*
X78800000Y-23600000D03*
X24165000Y-47325000D03*
X24165000Y-40315000D03*
X21675000Y-46075000D03*
X21675000Y-41575000D03*
X118000000Y-116000000D03*
X118000000Y-24000000D03*
X91800000Y-112200000D03*
X91800000Y-109660000D03*
X92800000Y-23600000D03*
X22500000Y-32040000D03*
X22500000Y-104540000D03*
X119500000Y-32040000D03*
X119500000Y-104540000D03*
X22500000Y-59400000D03*
X22500000Y-61940000D03*
X22500000Y-64480000D03*
X22500000Y-67020000D03*
X22500000Y-69560000D03*
X22500000Y-72100000D03*
X22500000Y-74640000D03*
X22500000Y-77180000D03*
X94400000Y-49400000D03*
X91860000Y-49400000D03*
X99912500Y-112200000D03*
X99912500Y-109660000D03*
X24000000Y-24000000D03*
X24000000Y-116000000D03*
X108136250Y-112275000D03*
X108136250Y-109735000D03*
X89600000Y-28400000D03*
X87060000Y-28400000D03*
X84520000Y-28400000D03*
X81980000Y-28400000D03*
X102550000Y-49650000D03*
X118750000Y-81650000D03*
X98650000Y-49550000D03*
X98650000Y-52090000D03*
X98650000Y-54630000D03*
X98650000Y-57170000D03*
X98650000Y-59710000D03*
X98650000Y-62250000D03*
X98650000Y-64790000D03*
X112012500Y-101012500D03*
X112012500Y-90412500D03*
X104052500Y-89242500D03*
X104052500Y-91782500D03*
X104052500Y-94322500D03*
X104052500Y-96862500D03*
X104052500Y-99402500D03*
X104052500Y-101942500D03*
X111000000Y-115000000D03*
X111000000Y-117540000D03*
X108460000Y-115000000D03*
X108460000Y-117540000D03*
X105920000Y-115000000D03*
X105920000Y-117540000D03*
X103380000Y-115000000D03*
X103380000Y-117540000D03*
X100840000Y-115000000D03*
X100840000Y-117540000D03*
X98300000Y-115000000D03*
X98300000Y-117540000D03*
X95760000Y-115000000D03*
X95760000Y-117540000D03*
M02*
