%TF.GenerationSoftware,KiCad,Pcbnew,7.0.9*%
%TF.CreationDate,2024-07-22T23:00:39+02:00*%
%TF.ProjectId,EnvSensor-Main-v2.1,456e7653-656e-4736-9f72-2d4d61696e2d,rev?*%
%TF.SameCoordinates,Original*%
%TF.FileFunction,Legend,Top*%
%TF.FilePolarity,Positive*%
%FSLAX46Y46*%
G04 Gerber Fmt 4.6, Leading zero omitted, Abs format (unit mm)*
G04 Created by KiCad (PCBNEW 7.0.9) date 2024-07-22 23:00:39*
%MOMM*%
%LPD*%
G01*
G04 APERTURE LIST*
%ADD10C,0.200000*%
%ADD11C,0.150000*%
%ADD12C,0.120000*%
%ADD13C,0.350000*%
%ADD14C,0.300000*%
G04 APERTURE END LIST*
D10*
G36*
X23087490Y-85516171D02*
G01*
X20145863Y-85516171D01*
X20145863Y-85244742D01*
X20317292Y-85244742D01*
X20336390Y-85303521D01*
X20386390Y-85339848D01*
X20448194Y-85339848D01*
X20498194Y-85303521D01*
X20517292Y-85244742D01*
X20517292Y-85229099D01*
X20775666Y-85229099D01*
X20779329Y-85252226D01*
X20779329Y-85275644D01*
X20784071Y-85282171D01*
X20785334Y-85290141D01*
X20801890Y-85306697D01*
X20815656Y-85325644D01*
X20823330Y-85328137D01*
X20829036Y-85333843D01*
X20852165Y-85337506D01*
X20874435Y-85344742D01*
X21617292Y-85344742D01*
X21676071Y-85325644D01*
X21712398Y-85275644D01*
X21712398Y-85213840D01*
X21676071Y-85163840D01*
X21617292Y-85144742D01*
X21115857Y-85144742D01*
X21530142Y-84730457D01*
X21974435Y-84730457D01*
X21978281Y-84742294D01*
X21977421Y-84754711D01*
X22034564Y-84983282D01*
X22040475Y-84992728D01*
X22042135Y-85003749D01*
X22099278Y-85118036D01*
X22110652Y-85129584D01*
X22118010Y-85144024D01*
X22232295Y-85258310D01*
X22252836Y-85268776D01*
X22271384Y-85282468D01*
X22442813Y-85339611D01*
X22459021Y-85339734D01*
X22474435Y-85344742D01*
X22588721Y-85344742D01*
X22604136Y-85339733D01*
X22620343Y-85339610D01*
X22791772Y-85282468D01*
X22810318Y-85268777D01*
X22830860Y-85258311D01*
X22888002Y-85201168D01*
X22916061Y-85146101D01*
X22906393Y-85085058D01*
X22862691Y-85041356D01*
X22801648Y-85031688D01*
X22746581Y-85059747D01*
X22706130Y-85100196D01*
X22572495Y-85144742D01*
X22490662Y-85144742D01*
X22357024Y-85100197D01*
X22270907Y-85014079D01*
X22225929Y-84924123D01*
X22174435Y-84718147D01*
X22174435Y-84571338D01*
X22225929Y-84365362D01*
X22270907Y-84275405D01*
X22357024Y-84189287D01*
X22490662Y-84144742D01*
X22572494Y-84144742D01*
X22706129Y-84189287D01*
X22746581Y-84229738D01*
X22801648Y-84257797D01*
X22862691Y-84248129D01*
X22906393Y-84204427D01*
X22916061Y-84143384D01*
X22888002Y-84088317D01*
X22830860Y-84031174D01*
X22810318Y-84020707D01*
X22791772Y-84007017D01*
X22620344Y-83949874D01*
X22604136Y-83949750D01*
X22588721Y-83944742D01*
X22474435Y-83944742D01*
X22459019Y-83949750D01*
X22442812Y-83949874D01*
X22271383Y-84007017D01*
X22252834Y-84020709D01*
X22232295Y-84031175D01*
X22118010Y-84145461D01*
X22110652Y-84159900D01*
X22099278Y-84171449D01*
X22042135Y-84285736D01*
X22040475Y-84296756D01*
X22034564Y-84306203D01*
X21977421Y-84534774D01*
X21978281Y-84547190D01*
X21974435Y-84559028D01*
X21974435Y-84730457D01*
X21530142Y-84730457D01*
X21630860Y-84629739D01*
X21641326Y-84609197D01*
X21655017Y-84590651D01*
X21712160Y-84419223D01*
X21712283Y-84403015D01*
X21717292Y-84387600D01*
X21717292Y-84273314D01*
X21710168Y-84251390D01*
X21706735Y-84228593D01*
X21649592Y-84114307D01*
X21638219Y-84102760D01*
X21630861Y-84088318D01*
X21573718Y-84031175D01*
X21559278Y-84023817D01*
X21547729Y-84012442D01*
X21433442Y-83955299D01*
X21410644Y-83951865D01*
X21388721Y-83944742D01*
X21103007Y-83944742D01*
X21081083Y-83951865D01*
X21058286Y-83955299D01*
X20944000Y-84012442D01*
X20932451Y-84023816D01*
X20918010Y-84031175D01*
X20860867Y-84088317D01*
X20832809Y-84143385D01*
X20842477Y-84204427D01*
X20886179Y-84248129D01*
X20947221Y-84257797D01*
X21002289Y-84229739D01*
X21047956Y-84184070D01*
X21126615Y-84144742D01*
X21365114Y-84144742D01*
X21443771Y-84184070D01*
X21477962Y-84218262D01*
X21517292Y-84296921D01*
X21517292Y-84371372D01*
X21472746Y-84505008D01*
X20803724Y-85174031D01*
X20793093Y-85194894D01*
X20779329Y-85213840D01*
X20779329Y-85221909D01*
X20775666Y-85229099D01*
X20517292Y-85229099D01*
X20517292Y-84044742D01*
X20498194Y-83985963D01*
X20448194Y-83949636D01*
X20386390Y-83949636D01*
X20336390Y-83985963D01*
X20317292Y-84044742D01*
X20317292Y-85244742D01*
X20145863Y-85244742D01*
X20145863Y-83773313D01*
X23087490Y-83773313D01*
X23087490Y-85516171D01*
G37*
X29760149Y-87787600D02*
X29931578Y-87844742D01*
X29931578Y-87844742D02*
X30217292Y-87844742D01*
X30217292Y-87844742D02*
X30331578Y-87787600D01*
X30331578Y-87787600D02*
X30388720Y-87730457D01*
X30388720Y-87730457D02*
X30445863Y-87616171D01*
X30445863Y-87616171D02*
X30445863Y-87501885D01*
X30445863Y-87501885D02*
X30388720Y-87387600D01*
X30388720Y-87387600D02*
X30331578Y-87330457D01*
X30331578Y-87330457D02*
X30217292Y-87273314D01*
X30217292Y-87273314D02*
X29988720Y-87216171D01*
X29988720Y-87216171D02*
X29874435Y-87159028D01*
X29874435Y-87159028D02*
X29817292Y-87101885D01*
X29817292Y-87101885D02*
X29760149Y-86987600D01*
X29760149Y-86987600D02*
X29760149Y-86873314D01*
X29760149Y-86873314D02*
X29817292Y-86759028D01*
X29817292Y-86759028D02*
X29874435Y-86701885D01*
X29874435Y-86701885D02*
X29988720Y-86644742D01*
X29988720Y-86644742D02*
X30274435Y-86644742D01*
X30274435Y-86644742D02*
X30445863Y-86701885D01*
X30960149Y-87844742D02*
X30960149Y-86644742D01*
X30960149Y-86644742D02*
X31245863Y-86644742D01*
X31245863Y-86644742D02*
X31417292Y-86701885D01*
X31417292Y-86701885D02*
X31531577Y-86816171D01*
X31531577Y-86816171D02*
X31588720Y-86930457D01*
X31588720Y-86930457D02*
X31645863Y-87159028D01*
X31645863Y-87159028D02*
X31645863Y-87330457D01*
X31645863Y-87330457D02*
X31588720Y-87559028D01*
X31588720Y-87559028D02*
X31531577Y-87673314D01*
X31531577Y-87673314D02*
X31417292Y-87787600D01*
X31417292Y-87787600D02*
X31245863Y-87844742D01*
X31245863Y-87844742D02*
X30960149Y-87844742D01*
X32103006Y-87501885D02*
X32674435Y-87501885D01*
X31988720Y-87844742D02*
X32388720Y-86644742D01*
X32388720Y-86644742D02*
X32788720Y-87844742D01*
X97088720Y-22675314D02*
X97588720Y-22675314D01*
X97803006Y-23461028D02*
X97088720Y-23461028D01*
X97088720Y-23461028D02*
X97088720Y-21961028D01*
X97088720Y-21961028D02*
X97803006Y-21961028D01*
X98445863Y-22461028D02*
X98445863Y-23461028D01*
X98445863Y-22603885D02*
X98517292Y-22532457D01*
X98517292Y-22532457D02*
X98660149Y-22461028D01*
X98660149Y-22461028D02*
X98874435Y-22461028D01*
X98874435Y-22461028D02*
X99017292Y-22532457D01*
X99017292Y-22532457D02*
X99088721Y-22675314D01*
X99088721Y-22675314D02*
X99088721Y-23461028D01*
X99660149Y-22461028D02*
X100017292Y-23461028D01*
X100017292Y-23461028D02*
X100374435Y-22461028D01*
X100874435Y-23389600D02*
X101088721Y-23461028D01*
X101088721Y-23461028D02*
X101445863Y-23461028D01*
X101445863Y-23461028D02*
X101588721Y-23389600D01*
X101588721Y-23389600D02*
X101660149Y-23318171D01*
X101660149Y-23318171D02*
X101731578Y-23175314D01*
X101731578Y-23175314D02*
X101731578Y-23032457D01*
X101731578Y-23032457D02*
X101660149Y-22889600D01*
X101660149Y-22889600D02*
X101588721Y-22818171D01*
X101588721Y-22818171D02*
X101445863Y-22746742D01*
X101445863Y-22746742D02*
X101160149Y-22675314D01*
X101160149Y-22675314D02*
X101017292Y-22603885D01*
X101017292Y-22603885D02*
X100945863Y-22532457D01*
X100945863Y-22532457D02*
X100874435Y-22389600D01*
X100874435Y-22389600D02*
X100874435Y-22246742D01*
X100874435Y-22246742D02*
X100945863Y-22103885D01*
X100945863Y-22103885D02*
X101017292Y-22032457D01*
X101017292Y-22032457D02*
X101160149Y-21961028D01*
X101160149Y-21961028D02*
X101517292Y-21961028D01*
X101517292Y-21961028D02*
X101731578Y-22032457D01*
X102945863Y-23389600D02*
X102803006Y-23461028D01*
X102803006Y-23461028D02*
X102517292Y-23461028D01*
X102517292Y-23461028D02*
X102374434Y-23389600D01*
X102374434Y-23389600D02*
X102303006Y-23246742D01*
X102303006Y-23246742D02*
X102303006Y-22675314D01*
X102303006Y-22675314D02*
X102374434Y-22532457D01*
X102374434Y-22532457D02*
X102517292Y-22461028D01*
X102517292Y-22461028D02*
X102803006Y-22461028D01*
X102803006Y-22461028D02*
X102945863Y-22532457D01*
X102945863Y-22532457D02*
X103017292Y-22675314D01*
X103017292Y-22675314D02*
X103017292Y-22818171D01*
X103017292Y-22818171D02*
X102303006Y-22961028D01*
X103660148Y-22461028D02*
X103660148Y-23461028D01*
X103660148Y-22603885D02*
X103731577Y-22532457D01*
X103731577Y-22532457D02*
X103874434Y-22461028D01*
X103874434Y-22461028D02*
X104088720Y-22461028D01*
X104088720Y-22461028D02*
X104231577Y-22532457D01*
X104231577Y-22532457D02*
X104303006Y-22675314D01*
X104303006Y-22675314D02*
X104303006Y-23461028D01*
X104945863Y-23389600D02*
X105088720Y-23461028D01*
X105088720Y-23461028D02*
X105374434Y-23461028D01*
X105374434Y-23461028D02*
X105517291Y-23389600D01*
X105517291Y-23389600D02*
X105588720Y-23246742D01*
X105588720Y-23246742D02*
X105588720Y-23175314D01*
X105588720Y-23175314D02*
X105517291Y-23032457D01*
X105517291Y-23032457D02*
X105374434Y-22961028D01*
X105374434Y-22961028D02*
X105160149Y-22961028D01*
X105160149Y-22961028D02*
X105017291Y-22889600D01*
X105017291Y-22889600D02*
X104945863Y-22746742D01*
X104945863Y-22746742D02*
X104945863Y-22675314D01*
X104945863Y-22675314D02*
X105017291Y-22532457D01*
X105017291Y-22532457D02*
X105160149Y-22461028D01*
X105160149Y-22461028D02*
X105374434Y-22461028D01*
X105374434Y-22461028D02*
X105517291Y-22532457D01*
X106445863Y-23461028D02*
X106303006Y-23389600D01*
X106303006Y-23389600D02*
X106231577Y-23318171D01*
X106231577Y-23318171D02*
X106160149Y-23175314D01*
X106160149Y-23175314D02*
X106160149Y-22746742D01*
X106160149Y-22746742D02*
X106231577Y-22603885D01*
X106231577Y-22603885D02*
X106303006Y-22532457D01*
X106303006Y-22532457D02*
X106445863Y-22461028D01*
X106445863Y-22461028D02*
X106660149Y-22461028D01*
X106660149Y-22461028D02*
X106803006Y-22532457D01*
X106803006Y-22532457D02*
X106874435Y-22603885D01*
X106874435Y-22603885D02*
X106945863Y-22746742D01*
X106945863Y-22746742D02*
X106945863Y-23175314D01*
X106945863Y-23175314D02*
X106874435Y-23318171D01*
X106874435Y-23318171D02*
X106803006Y-23389600D01*
X106803006Y-23389600D02*
X106660149Y-23461028D01*
X106660149Y-23461028D02*
X106445863Y-23461028D01*
X107588720Y-23461028D02*
X107588720Y-22461028D01*
X107588720Y-22746742D02*
X107660149Y-22603885D01*
X107660149Y-22603885D02*
X107731578Y-22532457D01*
X107731578Y-22532457D02*
X107874435Y-22461028D01*
X107874435Y-22461028D02*
X108017292Y-22461028D01*
X109588720Y-22103885D02*
X109660148Y-22032457D01*
X109660148Y-22032457D02*
X109803006Y-21961028D01*
X109803006Y-21961028D02*
X110160148Y-21961028D01*
X110160148Y-21961028D02*
X110303006Y-22032457D01*
X110303006Y-22032457D02*
X110374434Y-22103885D01*
X110374434Y-22103885D02*
X110445863Y-22246742D01*
X110445863Y-22246742D02*
X110445863Y-22389600D01*
X110445863Y-22389600D02*
X110374434Y-22603885D01*
X110374434Y-22603885D02*
X109517291Y-23461028D01*
X109517291Y-23461028D02*
X110445863Y-23461028D01*
X111088719Y-23318171D02*
X111160148Y-23389600D01*
X111160148Y-23389600D02*
X111088719Y-23461028D01*
X111088719Y-23461028D02*
X111017291Y-23389600D01*
X111017291Y-23389600D02*
X111088719Y-23318171D01*
X111088719Y-23318171D02*
X111088719Y-23461028D01*
X112588720Y-23461028D02*
X111731577Y-23461028D01*
X112160148Y-23461028D02*
X112160148Y-21961028D01*
X112160148Y-21961028D02*
X112017291Y-22175314D01*
X112017291Y-22175314D02*
X111874434Y-22318171D01*
X111874434Y-22318171D02*
X111731577Y-22389600D01*
X97088720Y-25876028D02*
X97088720Y-24376028D01*
X97088720Y-24376028D02*
X97588720Y-25447457D01*
X97588720Y-25447457D02*
X98088720Y-24376028D01*
X98088720Y-24376028D02*
X98088720Y-25876028D01*
X99445864Y-25876028D02*
X99445864Y-25090314D01*
X99445864Y-25090314D02*
X99374435Y-24947457D01*
X99374435Y-24947457D02*
X99231578Y-24876028D01*
X99231578Y-24876028D02*
X98945864Y-24876028D01*
X98945864Y-24876028D02*
X98803006Y-24947457D01*
X99445864Y-25804600D02*
X99303006Y-25876028D01*
X99303006Y-25876028D02*
X98945864Y-25876028D01*
X98945864Y-25876028D02*
X98803006Y-25804600D01*
X98803006Y-25804600D02*
X98731578Y-25661742D01*
X98731578Y-25661742D02*
X98731578Y-25518885D01*
X98731578Y-25518885D02*
X98803006Y-25376028D01*
X98803006Y-25376028D02*
X98945864Y-25304600D01*
X98945864Y-25304600D02*
X99303006Y-25304600D01*
X99303006Y-25304600D02*
X99445864Y-25233171D01*
X100160149Y-25876028D02*
X100160149Y-24876028D01*
X100160149Y-24376028D02*
X100088721Y-24447457D01*
X100088721Y-24447457D02*
X100160149Y-24518885D01*
X100160149Y-24518885D02*
X100231578Y-24447457D01*
X100231578Y-24447457D02*
X100160149Y-24376028D01*
X100160149Y-24376028D02*
X100160149Y-24518885D01*
X100874435Y-24876028D02*
X100874435Y-25876028D01*
X100874435Y-25018885D02*
X100945864Y-24947457D01*
X100945864Y-24947457D02*
X101088721Y-24876028D01*
X101088721Y-24876028D02*
X101303007Y-24876028D01*
X101303007Y-24876028D02*
X101445864Y-24947457D01*
X101445864Y-24947457D02*
X101517293Y-25090314D01*
X101517293Y-25090314D02*
X101517293Y-25876028D01*
X103874435Y-25090314D02*
X104088721Y-25161742D01*
X104088721Y-25161742D02*
X104160150Y-25233171D01*
X104160150Y-25233171D02*
X104231578Y-25376028D01*
X104231578Y-25376028D02*
X104231578Y-25590314D01*
X104231578Y-25590314D02*
X104160150Y-25733171D01*
X104160150Y-25733171D02*
X104088721Y-25804600D01*
X104088721Y-25804600D02*
X103945864Y-25876028D01*
X103945864Y-25876028D02*
X103374435Y-25876028D01*
X103374435Y-25876028D02*
X103374435Y-24376028D01*
X103374435Y-24376028D02*
X103874435Y-24376028D01*
X103874435Y-24376028D02*
X104017293Y-24447457D01*
X104017293Y-24447457D02*
X104088721Y-24518885D01*
X104088721Y-24518885D02*
X104160150Y-24661742D01*
X104160150Y-24661742D02*
X104160150Y-24804600D01*
X104160150Y-24804600D02*
X104088721Y-24947457D01*
X104088721Y-24947457D02*
X104017293Y-25018885D01*
X104017293Y-25018885D02*
X103874435Y-25090314D01*
X103874435Y-25090314D02*
X103374435Y-25090314D01*
X105088721Y-25876028D02*
X104945864Y-25804600D01*
X104945864Y-25804600D02*
X104874435Y-25733171D01*
X104874435Y-25733171D02*
X104803007Y-25590314D01*
X104803007Y-25590314D02*
X104803007Y-25161742D01*
X104803007Y-25161742D02*
X104874435Y-25018885D01*
X104874435Y-25018885D02*
X104945864Y-24947457D01*
X104945864Y-24947457D02*
X105088721Y-24876028D01*
X105088721Y-24876028D02*
X105303007Y-24876028D01*
X105303007Y-24876028D02*
X105445864Y-24947457D01*
X105445864Y-24947457D02*
X105517293Y-25018885D01*
X105517293Y-25018885D02*
X105588721Y-25161742D01*
X105588721Y-25161742D02*
X105588721Y-25590314D01*
X105588721Y-25590314D02*
X105517293Y-25733171D01*
X105517293Y-25733171D02*
X105445864Y-25804600D01*
X105445864Y-25804600D02*
X105303007Y-25876028D01*
X105303007Y-25876028D02*
X105088721Y-25876028D01*
X106874436Y-25876028D02*
X106874436Y-25090314D01*
X106874436Y-25090314D02*
X106803007Y-24947457D01*
X106803007Y-24947457D02*
X106660150Y-24876028D01*
X106660150Y-24876028D02*
X106374436Y-24876028D01*
X106374436Y-24876028D02*
X106231578Y-24947457D01*
X106874436Y-25804600D02*
X106731578Y-25876028D01*
X106731578Y-25876028D02*
X106374436Y-25876028D01*
X106374436Y-25876028D02*
X106231578Y-25804600D01*
X106231578Y-25804600D02*
X106160150Y-25661742D01*
X106160150Y-25661742D02*
X106160150Y-25518885D01*
X106160150Y-25518885D02*
X106231578Y-25376028D01*
X106231578Y-25376028D02*
X106374436Y-25304600D01*
X106374436Y-25304600D02*
X106731578Y-25304600D01*
X106731578Y-25304600D02*
X106874436Y-25233171D01*
X107588721Y-25876028D02*
X107588721Y-24876028D01*
X107588721Y-25161742D02*
X107660150Y-25018885D01*
X107660150Y-25018885D02*
X107731579Y-24947457D01*
X107731579Y-24947457D02*
X107874436Y-24876028D01*
X107874436Y-24876028D02*
X108017293Y-24876028D01*
X109160150Y-25876028D02*
X109160150Y-24376028D01*
X109160150Y-25804600D02*
X109017292Y-25876028D01*
X109017292Y-25876028D02*
X108731578Y-25876028D01*
X108731578Y-25876028D02*
X108588721Y-25804600D01*
X108588721Y-25804600D02*
X108517292Y-25733171D01*
X108517292Y-25733171D02*
X108445864Y-25590314D01*
X108445864Y-25590314D02*
X108445864Y-25161742D01*
X108445864Y-25161742D02*
X108517292Y-25018885D01*
X108517292Y-25018885D02*
X108588721Y-24947457D01*
X108588721Y-24947457D02*
X108731578Y-24876028D01*
X108731578Y-24876028D02*
X109017292Y-24876028D01*
X109017292Y-24876028D02*
X109160150Y-24947457D01*
X97517292Y-26791028D02*
X97517292Y-27862457D01*
X97517292Y-27862457D02*
X97445863Y-28076742D01*
X97445863Y-28076742D02*
X97303006Y-28219600D01*
X97303006Y-28219600D02*
X97088720Y-28291028D01*
X97088720Y-28291028D02*
X96945863Y-28291028D01*
X98231577Y-28291028D02*
X98231577Y-26791028D01*
X98231577Y-26791028D02*
X98803006Y-26791028D01*
X98803006Y-26791028D02*
X98945863Y-26862457D01*
X98945863Y-26862457D02*
X99017292Y-26933885D01*
X99017292Y-26933885D02*
X99088720Y-27076742D01*
X99088720Y-27076742D02*
X99088720Y-27291028D01*
X99088720Y-27291028D02*
X99017292Y-27433885D01*
X99017292Y-27433885D02*
X98945863Y-27505314D01*
X98945863Y-27505314D02*
X98803006Y-27576742D01*
X98803006Y-27576742D02*
X98231577Y-27576742D01*
X99803006Y-28219600D02*
X99803006Y-28291028D01*
X99803006Y-28291028D02*
X99731577Y-28433885D01*
X99731577Y-28433885D02*
X99660149Y-28505314D01*
X101517292Y-26933885D02*
X101588720Y-26862457D01*
X101588720Y-26862457D02*
X101731578Y-26791028D01*
X101731578Y-26791028D02*
X102088720Y-26791028D01*
X102088720Y-26791028D02*
X102231578Y-26862457D01*
X102231578Y-26862457D02*
X102303006Y-26933885D01*
X102303006Y-26933885D02*
X102374435Y-27076742D01*
X102374435Y-27076742D02*
X102374435Y-27219600D01*
X102374435Y-27219600D02*
X102303006Y-27433885D01*
X102303006Y-27433885D02*
X101445863Y-28291028D01*
X101445863Y-28291028D02*
X102374435Y-28291028D01*
X102945863Y-26933885D02*
X103017291Y-26862457D01*
X103017291Y-26862457D02*
X103160149Y-26791028D01*
X103160149Y-26791028D02*
X103517291Y-26791028D01*
X103517291Y-26791028D02*
X103660149Y-26862457D01*
X103660149Y-26862457D02*
X103731577Y-26933885D01*
X103731577Y-26933885D02*
X103803006Y-27076742D01*
X103803006Y-27076742D02*
X103803006Y-27219600D01*
X103803006Y-27219600D02*
X103731577Y-27433885D01*
X103731577Y-27433885D02*
X102874434Y-28291028D01*
X102874434Y-28291028D02*
X103803006Y-28291028D01*
X104445862Y-28148171D02*
X104517291Y-28219600D01*
X104517291Y-28219600D02*
X104445862Y-28291028D01*
X104445862Y-28291028D02*
X104374434Y-28219600D01*
X104374434Y-28219600D02*
X104445862Y-28148171D01*
X104445862Y-28148171D02*
X104445862Y-28291028D01*
X105445863Y-26791028D02*
X105588720Y-26791028D01*
X105588720Y-26791028D02*
X105731577Y-26862457D01*
X105731577Y-26862457D02*
X105803006Y-26933885D01*
X105803006Y-26933885D02*
X105874434Y-27076742D01*
X105874434Y-27076742D02*
X105945863Y-27362457D01*
X105945863Y-27362457D02*
X105945863Y-27719600D01*
X105945863Y-27719600D02*
X105874434Y-28005314D01*
X105874434Y-28005314D02*
X105803006Y-28148171D01*
X105803006Y-28148171D02*
X105731577Y-28219600D01*
X105731577Y-28219600D02*
X105588720Y-28291028D01*
X105588720Y-28291028D02*
X105445863Y-28291028D01*
X105445863Y-28291028D02*
X105303006Y-28219600D01*
X105303006Y-28219600D02*
X105231577Y-28148171D01*
X105231577Y-28148171D02*
X105160148Y-28005314D01*
X105160148Y-28005314D02*
X105088720Y-27719600D01*
X105088720Y-27719600D02*
X105088720Y-27362457D01*
X105088720Y-27362457D02*
X105160148Y-27076742D01*
X105160148Y-27076742D02*
X105231577Y-26933885D01*
X105231577Y-26933885D02*
X105303006Y-26862457D01*
X105303006Y-26862457D02*
X105445863Y-26791028D01*
X106445862Y-26791028D02*
X107445862Y-26791028D01*
X107445862Y-26791028D02*
X106803005Y-28291028D01*
X108017290Y-28148171D02*
X108088719Y-28219600D01*
X108088719Y-28219600D02*
X108017290Y-28291028D01*
X108017290Y-28291028D02*
X107945862Y-28219600D01*
X107945862Y-28219600D02*
X108017290Y-28148171D01*
X108017290Y-28148171D02*
X108017290Y-28291028D01*
X108660148Y-26933885D02*
X108731576Y-26862457D01*
X108731576Y-26862457D02*
X108874434Y-26791028D01*
X108874434Y-26791028D02*
X109231576Y-26791028D01*
X109231576Y-26791028D02*
X109374434Y-26862457D01*
X109374434Y-26862457D02*
X109445862Y-26933885D01*
X109445862Y-26933885D02*
X109517291Y-27076742D01*
X109517291Y-27076742D02*
X109517291Y-27219600D01*
X109517291Y-27219600D02*
X109445862Y-27433885D01*
X109445862Y-27433885D02*
X108588719Y-28291028D01*
X108588719Y-28291028D02*
X109517291Y-28291028D01*
X110445862Y-26791028D02*
X110588719Y-26791028D01*
X110588719Y-26791028D02*
X110731576Y-26862457D01*
X110731576Y-26862457D02*
X110803005Y-26933885D01*
X110803005Y-26933885D02*
X110874433Y-27076742D01*
X110874433Y-27076742D02*
X110945862Y-27362457D01*
X110945862Y-27362457D02*
X110945862Y-27719600D01*
X110945862Y-27719600D02*
X110874433Y-28005314D01*
X110874433Y-28005314D02*
X110803005Y-28148171D01*
X110803005Y-28148171D02*
X110731576Y-28219600D01*
X110731576Y-28219600D02*
X110588719Y-28291028D01*
X110588719Y-28291028D02*
X110445862Y-28291028D01*
X110445862Y-28291028D02*
X110303005Y-28219600D01*
X110303005Y-28219600D02*
X110231576Y-28148171D01*
X110231576Y-28148171D02*
X110160147Y-28005314D01*
X110160147Y-28005314D02*
X110088719Y-27719600D01*
X110088719Y-27719600D02*
X110088719Y-27362457D01*
X110088719Y-27362457D02*
X110160147Y-27076742D01*
X110160147Y-27076742D02*
X110231576Y-26933885D01*
X110231576Y-26933885D02*
X110303005Y-26862457D01*
X110303005Y-26862457D02*
X110445862Y-26791028D01*
X111517290Y-26933885D02*
X111588718Y-26862457D01*
X111588718Y-26862457D02*
X111731576Y-26791028D01*
X111731576Y-26791028D02*
X112088718Y-26791028D01*
X112088718Y-26791028D02*
X112231576Y-26862457D01*
X112231576Y-26862457D02*
X112303004Y-26933885D01*
X112303004Y-26933885D02*
X112374433Y-27076742D01*
X112374433Y-27076742D02*
X112374433Y-27219600D01*
X112374433Y-27219600D02*
X112303004Y-27433885D01*
X112303004Y-27433885D02*
X111445861Y-28291028D01*
X111445861Y-28291028D02*
X112374433Y-28291028D01*
X113660147Y-27291028D02*
X113660147Y-28291028D01*
X113303004Y-26719600D02*
X112945861Y-27791028D01*
X112945861Y-27791028D02*
X113874432Y-27791028D01*
X96945863Y-29206028D02*
X97303006Y-30706028D01*
X97303006Y-30706028D02*
X97588720Y-29634600D01*
X97588720Y-29634600D02*
X97874435Y-30706028D01*
X97874435Y-30706028D02*
X98231578Y-29206028D01*
X98803006Y-30706028D02*
X98803006Y-29706028D01*
X98803006Y-29991742D02*
X98874435Y-29848885D01*
X98874435Y-29848885D02*
X98945864Y-29777457D01*
X98945864Y-29777457D02*
X99088721Y-29706028D01*
X99088721Y-29706028D02*
X99231578Y-29706028D01*
X99945863Y-30706028D02*
X99803006Y-30634600D01*
X99803006Y-30634600D02*
X99731577Y-30563171D01*
X99731577Y-30563171D02*
X99660149Y-30420314D01*
X99660149Y-30420314D02*
X99660149Y-29991742D01*
X99660149Y-29991742D02*
X99731577Y-29848885D01*
X99731577Y-29848885D02*
X99803006Y-29777457D01*
X99803006Y-29777457D02*
X99945863Y-29706028D01*
X99945863Y-29706028D02*
X100160149Y-29706028D01*
X100160149Y-29706028D02*
X100303006Y-29777457D01*
X100303006Y-29777457D02*
X100374435Y-29848885D01*
X100374435Y-29848885D02*
X100445863Y-29991742D01*
X100445863Y-29991742D02*
X100445863Y-30420314D01*
X100445863Y-30420314D02*
X100374435Y-30563171D01*
X100374435Y-30563171D02*
X100303006Y-30634600D01*
X100303006Y-30634600D02*
X100160149Y-30706028D01*
X100160149Y-30706028D02*
X99945863Y-30706028D01*
X101731578Y-30634600D02*
X101588720Y-30706028D01*
X101588720Y-30706028D02*
X101303006Y-30706028D01*
X101303006Y-30706028D02*
X101160149Y-30634600D01*
X101160149Y-30634600D02*
X101088720Y-30563171D01*
X101088720Y-30563171D02*
X101017292Y-30420314D01*
X101017292Y-30420314D02*
X101017292Y-29991742D01*
X101017292Y-29991742D02*
X101088720Y-29848885D01*
X101088720Y-29848885D02*
X101160149Y-29777457D01*
X101160149Y-29777457D02*
X101303006Y-29706028D01*
X101303006Y-29706028D02*
X101588720Y-29706028D01*
X101588720Y-29706028D02*
X101731578Y-29777457D01*
X102588720Y-30706028D02*
X102445863Y-30634600D01*
X102445863Y-30634600D02*
X102374434Y-30491742D01*
X102374434Y-30491742D02*
X102374434Y-29206028D01*
X102160149Y-29991742D02*
X102588720Y-29706028D01*
X103803006Y-30706028D02*
X103803006Y-29920314D01*
X103803006Y-29920314D02*
X103731577Y-29777457D01*
X103731577Y-29777457D02*
X103588720Y-29706028D01*
X103588720Y-29706028D02*
X103303006Y-29706028D01*
X103303006Y-29706028D02*
X103160148Y-29777457D01*
X103803006Y-30634600D02*
X103660148Y-30706028D01*
X103660148Y-30706028D02*
X103303006Y-30706028D01*
X103303006Y-30706028D02*
X103160148Y-30634600D01*
X103160148Y-30634600D02*
X103088720Y-30491742D01*
X103088720Y-30491742D02*
X103088720Y-30348885D01*
X103088720Y-30348885D02*
X103160148Y-30206028D01*
X103160148Y-30206028D02*
X103303006Y-30134600D01*
X103303006Y-30134600D02*
X103660148Y-30134600D01*
X103660148Y-30134600D02*
X103803006Y-30063171D01*
X104374434Y-29706028D02*
X104660149Y-30706028D01*
X104660149Y-30706028D02*
X104945863Y-29991742D01*
X104945863Y-29991742D02*
X105231577Y-30706028D01*
X105231577Y-30706028D02*
X105517291Y-29706028D01*
X26316171Y-82582707D02*
X26316171Y-82182707D01*
X26944742Y-82011279D02*
X26944742Y-82582707D01*
X26944742Y-82582707D02*
X25744742Y-82582707D01*
X25744742Y-82582707D02*
X25744742Y-82011279D01*
X26487600Y-81496993D02*
X26487600Y-80582708D01*
X26944742Y-80011279D02*
X25744742Y-80011279D01*
X26144742Y-79439850D02*
X26944742Y-79439850D01*
X26259028Y-79439850D02*
X26201885Y-79382707D01*
X26201885Y-79382707D02*
X26144742Y-79268422D01*
X26144742Y-79268422D02*
X26144742Y-79096993D01*
X26144742Y-79096993D02*
X26201885Y-78982707D01*
X26201885Y-78982707D02*
X26316171Y-78925565D01*
X26316171Y-78925565D02*
X26944742Y-78925565D01*
X26944742Y-78354136D02*
X25744742Y-78354136D01*
X26487600Y-78239851D02*
X26944742Y-77896993D01*
X26144742Y-77896993D02*
X26601885Y-78354136D01*
X27059028Y-77668422D02*
X27059028Y-76754136D01*
X25744742Y-76582707D02*
X26944742Y-76296993D01*
X26944742Y-76296993D02*
X26087600Y-76068421D01*
X26087600Y-76068421D02*
X26944742Y-75839850D01*
X26944742Y-75839850D02*
X25744742Y-75554136D01*
X26944742Y-74582707D02*
X26316171Y-74582707D01*
X26316171Y-74582707D02*
X26201885Y-74639849D01*
X26201885Y-74639849D02*
X26144742Y-74754135D01*
X26144742Y-74754135D02*
X26144742Y-74982707D01*
X26144742Y-74982707D02*
X26201885Y-75096992D01*
X26887600Y-74582707D02*
X26944742Y-74696992D01*
X26944742Y-74696992D02*
X26944742Y-74982707D01*
X26944742Y-74982707D02*
X26887600Y-75096992D01*
X26887600Y-75096992D02*
X26773314Y-75154135D01*
X26773314Y-75154135D02*
X26659028Y-75154135D01*
X26659028Y-75154135D02*
X26544742Y-75096992D01*
X26544742Y-75096992D02*
X26487600Y-74982707D01*
X26487600Y-74982707D02*
X26487600Y-74696992D01*
X26487600Y-74696992D02*
X26430457Y-74582707D01*
X26144742Y-74125564D02*
X26944742Y-73839850D01*
X26944742Y-73839850D02*
X26144742Y-73554135D01*
X26887600Y-72639849D02*
X26944742Y-72754135D01*
X26944742Y-72754135D02*
X26944742Y-72982707D01*
X26944742Y-72982707D02*
X26887600Y-73096992D01*
X26887600Y-73096992D02*
X26773314Y-73154135D01*
X26773314Y-73154135D02*
X26316171Y-73154135D01*
X26316171Y-73154135D02*
X26201885Y-73096992D01*
X26201885Y-73096992D02*
X26144742Y-72982707D01*
X26144742Y-72982707D02*
X26144742Y-72754135D01*
X26144742Y-72754135D02*
X26201885Y-72639849D01*
X26201885Y-72639849D02*
X26316171Y-72582707D01*
X26316171Y-72582707D02*
X26430457Y-72582707D01*
X26430457Y-72582707D02*
X26544742Y-73154135D01*
X26887600Y-72125564D02*
X26944742Y-72011278D01*
X26944742Y-72011278D02*
X26944742Y-71782707D01*
X26944742Y-71782707D02*
X26887600Y-71668421D01*
X26887600Y-71668421D02*
X26773314Y-71611278D01*
X26773314Y-71611278D02*
X26716171Y-71611278D01*
X26716171Y-71611278D02*
X26601885Y-71668421D01*
X26601885Y-71668421D02*
X26544742Y-71782707D01*
X26544742Y-71782707D02*
X26544742Y-71954136D01*
X26544742Y-71954136D02*
X26487600Y-72068421D01*
X26487600Y-72068421D02*
X26373314Y-72125564D01*
X26373314Y-72125564D02*
X26316171Y-72125564D01*
X26316171Y-72125564D02*
X26201885Y-72068421D01*
X26201885Y-72068421D02*
X26144742Y-71954136D01*
X26144742Y-71954136D02*
X26144742Y-71782707D01*
X26144742Y-71782707D02*
X26201885Y-71668421D01*
X26944742Y-71096992D02*
X25744742Y-71096992D01*
X26944742Y-70582707D02*
X26316171Y-70582707D01*
X26316171Y-70582707D02*
X26201885Y-70639849D01*
X26201885Y-70639849D02*
X26144742Y-70754135D01*
X26144742Y-70754135D02*
X26144742Y-70925564D01*
X26144742Y-70925564D02*
X26201885Y-71039849D01*
X26201885Y-71039849D02*
X26259028Y-71096992D01*
X26944742Y-69496993D02*
X26316171Y-69496993D01*
X26316171Y-69496993D02*
X26201885Y-69554135D01*
X26201885Y-69554135D02*
X26144742Y-69668421D01*
X26144742Y-69668421D02*
X26144742Y-69896993D01*
X26144742Y-69896993D02*
X26201885Y-70011278D01*
X26887600Y-69496993D02*
X26944742Y-69611278D01*
X26944742Y-69611278D02*
X26944742Y-69896993D01*
X26944742Y-69896993D02*
X26887600Y-70011278D01*
X26887600Y-70011278D02*
X26773314Y-70068421D01*
X26773314Y-70068421D02*
X26659028Y-70068421D01*
X26659028Y-70068421D02*
X26544742Y-70011278D01*
X26544742Y-70011278D02*
X26487600Y-69896993D01*
X26487600Y-69896993D02*
X26487600Y-69611278D01*
X26487600Y-69611278D02*
X26430457Y-69496993D01*
X26944742Y-68925564D02*
X26144742Y-68925564D01*
X26373314Y-68925564D02*
X26259028Y-68868421D01*
X26259028Y-68868421D02*
X26201885Y-68811279D01*
X26201885Y-68811279D02*
X26144742Y-68696993D01*
X26144742Y-68696993D02*
X26144742Y-68582707D01*
X26887600Y-67725564D02*
X26944742Y-67839850D01*
X26944742Y-67839850D02*
X26944742Y-68068422D01*
X26944742Y-68068422D02*
X26887600Y-68182707D01*
X26887600Y-68182707D02*
X26773314Y-68239850D01*
X26773314Y-68239850D02*
X26316171Y-68239850D01*
X26316171Y-68239850D02*
X26201885Y-68182707D01*
X26201885Y-68182707D02*
X26144742Y-68068422D01*
X26144742Y-68068422D02*
X26144742Y-67839850D01*
X26144742Y-67839850D02*
X26201885Y-67725564D01*
X26201885Y-67725564D02*
X26316171Y-67668422D01*
X26316171Y-67668422D02*
X26430457Y-67668422D01*
X26430457Y-67668422D02*
X26544742Y-68239850D01*
X27059028Y-67439851D02*
X27059028Y-66525565D01*
X26144742Y-65725565D02*
X26944742Y-65725565D01*
X25687600Y-66011279D02*
X26544742Y-66296993D01*
X26544742Y-66296993D02*
X26544742Y-65554136D01*
X26830457Y-65096993D02*
X26887600Y-65039850D01*
X26887600Y-65039850D02*
X26944742Y-65096993D01*
X26944742Y-65096993D02*
X26887600Y-65154136D01*
X26887600Y-65154136D02*
X26830457Y-65096993D01*
X26830457Y-65096993D02*
X26944742Y-65096993D01*
X25859028Y-64582707D02*
X25801885Y-64525564D01*
X25801885Y-64525564D02*
X25744742Y-64411279D01*
X25744742Y-64411279D02*
X25744742Y-64125564D01*
X25744742Y-64125564D02*
X25801885Y-64011279D01*
X25801885Y-64011279D02*
X25859028Y-63954136D01*
X25859028Y-63954136D02*
X25973314Y-63896993D01*
X25973314Y-63896993D02*
X26087600Y-63896993D01*
X26087600Y-63896993D02*
X26259028Y-63954136D01*
X26259028Y-63954136D02*
X26944742Y-64639850D01*
X26944742Y-64639850D02*
X26944742Y-63896993D01*
X39595863Y-43801885D02*
X39481578Y-43744742D01*
X39481578Y-43744742D02*
X39310149Y-43744742D01*
X39310149Y-43744742D02*
X39138720Y-43801885D01*
X39138720Y-43801885D02*
X39024435Y-43916171D01*
X39024435Y-43916171D02*
X38967292Y-44030457D01*
X38967292Y-44030457D02*
X38910149Y-44259028D01*
X38910149Y-44259028D02*
X38910149Y-44430457D01*
X38910149Y-44430457D02*
X38967292Y-44659028D01*
X38967292Y-44659028D02*
X39024435Y-44773314D01*
X39024435Y-44773314D02*
X39138720Y-44887600D01*
X39138720Y-44887600D02*
X39310149Y-44944742D01*
X39310149Y-44944742D02*
X39424435Y-44944742D01*
X39424435Y-44944742D02*
X39595863Y-44887600D01*
X39595863Y-44887600D02*
X39653006Y-44830457D01*
X39653006Y-44830457D02*
X39653006Y-44430457D01*
X39653006Y-44430457D02*
X39424435Y-44430457D01*
X40167292Y-44944742D02*
X40167292Y-43744742D01*
X40167292Y-43744742D02*
X40853006Y-44944742D01*
X40853006Y-44944742D02*
X40853006Y-43744742D01*
X41424435Y-44944742D02*
X41424435Y-43744742D01*
X41424435Y-43744742D02*
X41710149Y-43744742D01*
X41710149Y-43744742D02*
X41881578Y-43801885D01*
X41881578Y-43801885D02*
X41995863Y-43916171D01*
X41995863Y-43916171D02*
X42053006Y-44030457D01*
X42053006Y-44030457D02*
X42110149Y-44259028D01*
X42110149Y-44259028D02*
X42110149Y-44430457D01*
X42110149Y-44430457D02*
X42053006Y-44659028D01*
X42053006Y-44659028D02*
X41995863Y-44773314D01*
X41995863Y-44773314D02*
X41881578Y-44887600D01*
X41881578Y-44887600D02*
X41710149Y-44944742D01*
X41710149Y-44944742D02*
X41424435Y-44944742D01*
X30245863Y-91901885D02*
X30131578Y-91844742D01*
X30131578Y-91844742D02*
X29960149Y-91844742D01*
X29960149Y-91844742D02*
X29788720Y-91901885D01*
X29788720Y-91901885D02*
X29674435Y-92016171D01*
X29674435Y-92016171D02*
X29617292Y-92130457D01*
X29617292Y-92130457D02*
X29560149Y-92359028D01*
X29560149Y-92359028D02*
X29560149Y-92530457D01*
X29560149Y-92530457D02*
X29617292Y-92759028D01*
X29617292Y-92759028D02*
X29674435Y-92873314D01*
X29674435Y-92873314D02*
X29788720Y-92987600D01*
X29788720Y-92987600D02*
X29960149Y-93044742D01*
X29960149Y-93044742D02*
X30074435Y-93044742D01*
X30074435Y-93044742D02*
X30245863Y-92987600D01*
X30245863Y-92987600D02*
X30303006Y-92930457D01*
X30303006Y-92930457D02*
X30303006Y-92530457D01*
X30303006Y-92530457D02*
X30074435Y-92530457D01*
X30817292Y-93044742D02*
X30817292Y-91844742D01*
X30817292Y-91844742D02*
X31503006Y-93044742D01*
X31503006Y-93044742D02*
X31503006Y-91844742D01*
X32074435Y-93044742D02*
X32074435Y-91844742D01*
X32074435Y-91844742D02*
X32360149Y-91844742D01*
X32360149Y-91844742D02*
X32531578Y-91901885D01*
X32531578Y-91901885D02*
X32645863Y-92016171D01*
X32645863Y-92016171D02*
X32703006Y-92130457D01*
X32703006Y-92130457D02*
X32760149Y-92359028D01*
X32760149Y-92359028D02*
X32760149Y-92530457D01*
X32760149Y-92530457D02*
X32703006Y-92759028D01*
X32703006Y-92759028D02*
X32645863Y-92873314D01*
X32645863Y-92873314D02*
X32531578Y-92987600D01*
X32531578Y-92987600D02*
X32360149Y-93044742D01*
X32360149Y-93044742D02*
X32074435Y-93044742D01*
X67560149Y-47887600D02*
X67731578Y-47944742D01*
X67731578Y-47944742D02*
X68017292Y-47944742D01*
X68017292Y-47944742D02*
X68131578Y-47887600D01*
X68131578Y-47887600D02*
X68188720Y-47830457D01*
X68188720Y-47830457D02*
X68245863Y-47716171D01*
X68245863Y-47716171D02*
X68245863Y-47601885D01*
X68245863Y-47601885D02*
X68188720Y-47487600D01*
X68188720Y-47487600D02*
X68131578Y-47430457D01*
X68131578Y-47430457D02*
X68017292Y-47373314D01*
X68017292Y-47373314D02*
X67788720Y-47316171D01*
X67788720Y-47316171D02*
X67674435Y-47259028D01*
X67674435Y-47259028D02*
X67617292Y-47201885D01*
X67617292Y-47201885D02*
X67560149Y-47087600D01*
X67560149Y-47087600D02*
X67560149Y-46973314D01*
X67560149Y-46973314D02*
X67617292Y-46859028D01*
X67617292Y-46859028D02*
X67674435Y-46801885D01*
X67674435Y-46801885D02*
X67788720Y-46744742D01*
X67788720Y-46744742D02*
X68074435Y-46744742D01*
X68074435Y-46744742D02*
X68245863Y-46801885D01*
X68588720Y-46744742D02*
X69274435Y-46744742D01*
X68931577Y-47944742D02*
X68931577Y-46744742D01*
X69674435Y-47944742D02*
X69674435Y-46744742D01*
X69674435Y-46744742D02*
X70074435Y-47601885D01*
X70074435Y-47601885D02*
X70474435Y-46744742D01*
X70474435Y-46744742D02*
X70474435Y-47944742D01*
X70931578Y-46744742D02*
X71674435Y-46744742D01*
X71674435Y-46744742D02*
X71274435Y-47201885D01*
X71274435Y-47201885D02*
X71445864Y-47201885D01*
X71445864Y-47201885D02*
X71560150Y-47259028D01*
X71560150Y-47259028D02*
X71617292Y-47316171D01*
X71617292Y-47316171D02*
X71674435Y-47430457D01*
X71674435Y-47430457D02*
X71674435Y-47716171D01*
X71674435Y-47716171D02*
X71617292Y-47830457D01*
X71617292Y-47830457D02*
X71560150Y-47887600D01*
X71560150Y-47887600D02*
X71445864Y-47944742D01*
X71445864Y-47944742D02*
X71103007Y-47944742D01*
X71103007Y-47944742D02*
X70988721Y-47887600D01*
X70988721Y-47887600D02*
X70931578Y-47830457D01*
X72131578Y-46859028D02*
X72188721Y-46801885D01*
X72188721Y-46801885D02*
X72303007Y-46744742D01*
X72303007Y-46744742D02*
X72588721Y-46744742D01*
X72588721Y-46744742D02*
X72703007Y-46801885D01*
X72703007Y-46801885D02*
X72760149Y-46859028D01*
X72760149Y-46859028D02*
X72817292Y-46973314D01*
X72817292Y-46973314D02*
X72817292Y-47087600D01*
X72817292Y-47087600D02*
X72760149Y-47259028D01*
X72760149Y-47259028D02*
X72074435Y-47944742D01*
X72074435Y-47944742D02*
X72817292Y-47944742D01*
X73903006Y-47944742D02*
X73331578Y-47944742D01*
X73331578Y-47944742D02*
X73331578Y-46744742D01*
X74817293Y-47144742D02*
X74817293Y-47944742D01*
X74531578Y-46687600D02*
X74245864Y-47544742D01*
X74245864Y-47544742D02*
X74988721Y-47544742D01*
X76017292Y-46744742D02*
X75445864Y-46744742D01*
X75445864Y-46744742D02*
X75388721Y-47316171D01*
X75388721Y-47316171D02*
X75445864Y-47259028D01*
X75445864Y-47259028D02*
X75560150Y-47201885D01*
X75560150Y-47201885D02*
X75845864Y-47201885D01*
X75845864Y-47201885D02*
X75960150Y-47259028D01*
X75960150Y-47259028D02*
X76017292Y-47316171D01*
X76017292Y-47316171D02*
X76074435Y-47430457D01*
X76074435Y-47430457D02*
X76074435Y-47716171D01*
X76074435Y-47716171D02*
X76017292Y-47830457D01*
X76017292Y-47830457D02*
X75960150Y-47887600D01*
X75960150Y-47887600D02*
X75845864Y-47944742D01*
X75845864Y-47944742D02*
X75560150Y-47944742D01*
X75560150Y-47944742D02*
X75445864Y-47887600D01*
X75445864Y-47887600D02*
X75388721Y-47830457D01*
X77217292Y-47944742D02*
X76531578Y-47944742D01*
X76874435Y-47944742D02*
X76874435Y-46744742D01*
X76874435Y-46744742D02*
X76760149Y-46916171D01*
X76760149Y-46916171D02*
X76645864Y-47030457D01*
X76645864Y-47030457D02*
X76531578Y-47087600D01*
X78417292Y-47944742D02*
X78017292Y-47373314D01*
X77731578Y-47944742D02*
X77731578Y-46744742D01*
X77731578Y-46744742D02*
X78188721Y-46744742D01*
X78188721Y-46744742D02*
X78303006Y-46801885D01*
X78303006Y-46801885D02*
X78360149Y-46859028D01*
X78360149Y-46859028D02*
X78417292Y-46973314D01*
X78417292Y-46973314D02*
X78417292Y-47144742D01*
X78417292Y-47144742D02*
X78360149Y-47259028D01*
X78360149Y-47259028D02*
X78303006Y-47316171D01*
X78303006Y-47316171D02*
X78188721Y-47373314D01*
X78188721Y-47373314D02*
X77731578Y-47373314D01*
X79617292Y-47830457D02*
X79560149Y-47887600D01*
X79560149Y-47887600D02*
X79388721Y-47944742D01*
X79388721Y-47944742D02*
X79274435Y-47944742D01*
X79274435Y-47944742D02*
X79103006Y-47887600D01*
X79103006Y-47887600D02*
X78988721Y-47773314D01*
X78988721Y-47773314D02*
X78931578Y-47659028D01*
X78931578Y-47659028D02*
X78874435Y-47430457D01*
X78874435Y-47430457D02*
X78874435Y-47259028D01*
X78874435Y-47259028D02*
X78931578Y-47030457D01*
X78931578Y-47030457D02*
X78988721Y-46916171D01*
X78988721Y-46916171D02*
X79103006Y-46801885D01*
X79103006Y-46801885D02*
X79274435Y-46744742D01*
X79274435Y-46744742D02*
X79388721Y-46744742D01*
X79388721Y-46744742D02*
X79560149Y-46801885D01*
X79560149Y-46801885D02*
X79617292Y-46859028D01*
X79960149Y-46744742D02*
X80645864Y-46744742D01*
X80303006Y-47944742D02*
X80303006Y-46744742D01*
X81560150Y-46744742D02*
X81331578Y-46744742D01*
X81331578Y-46744742D02*
X81217292Y-46801885D01*
X81217292Y-46801885D02*
X81160150Y-46859028D01*
X81160150Y-46859028D02*
X81045864Y-47030457D01*
X81045864Y-47030457D02*
X80988721Y-47259028D01*
X80988721Y-47259028D02*
X80988721Y-47716171D01*
X80988721Y-47716171D02*
X81045864Y-47830457D01*
X81045864Y-47830457D02*
X81103007Y-47887600D01*
X81103007Y-47887600D02*
X81217292Y-47944742D01*
X81217292Y-47944742D02*
X81445864Y-47944742D01*
X81445864Y-47944742D02*
X81560150Y-47887600D01*
X81560150Y-47887600D02*
X81617292Y-47830457D01*
X81617292Y-47830457D02*
X81674435Y-47716171D01*
X81674435Y-47716171D02*
X81674435Y-47430457D01*
X81674435Y-47430457D02*
X81617292Y-47316171D01*
X81617292Y-47316171D02*
X81560150Y-47259028D01*
X81560150Y-47259028D02*
X81445864Y-47201885D01*
X81445864Y-47201885D02*
X81217292Y-47201885D01*
X81217292Y-47201885D02*
X81103007Y-47259028D01*
X81103007Y-47259028D02*
X81045864Y-47316171D01*
X81045864Y-47316171D02*
X80988721Y-47430457D01*
G36*
X79329484Y-72284070D02*
G01*
X79363677Y-72318263D01*
X79403006Y-72396920D01*
X79403006Y-72692564D01*
X79363677Y-72771221D01*
X79329484Y-72805414D01*
X79250828Y-72844742D01*
X79126613Y-72844742D01*
X79047956Y-72805414D01*
X79013763Y-72771220D01*
X78974435Y-72692564D01*
X78974435Y-72396921D01*
X79013763Y-72318264D01*
X79047955Y-72284071D01*
X79126613Y-72244742D01*
X79250828Y-72244742D01*
X79329484Y-72284070D01*
G37*
G36*
X81563273Y-71889287D02*
G01*
X81649390Y-71975405D01*
X81694368Y-72065362D01*
X81745863Y-72271338D01*
X81745863Y-72418146D01*
X81694368Y-72624122D01*
X81649390Y-72714079D01*
X81563274Y-72800196D01*
X81429637Y-72844742D01*
X81260149Y-72844742D01*
X81260149Y-71844742D01*
X81429636Y-71844742D01*
X81563273Y-71889287D01*
G37*
G36*
X82117292Y-73216171D02*
G01*
X74945863Y-73216171D01*
X74945863Y-72944742D01*
X75117292Y-72944742D01*
X75136390Y-73003521D01*
X75186390Y-73039848D01*
X75248194Y-73039848D01*
X75298194Y-73003521D01*
X75317292Y-72944742D01*
X75317292Y-72195498D01*
X75526674Y-72644174D01*
X75539768Y-72658207D01*
X75549070Y-72675000D01*
X75560346Y-72680262D01*
X75568837Y-72689362D01*
X75587684Y-72693019D01*
X75605076Y-72701136D01*
X75617289Y-72698765D01*
X75629508Y-72701137D01*
X75646904Y-72693018D01*
X75665747Y-72689362D01*
X75674235Y-72680264D01*
X75685514Y-72675001D01*
X75694817Y-72658206D01*
X75707910Y-72644174D01*
X75917292Y-72195497D01*
X75917292Y-72944742D01*
X75936390Y-73003521D01*
X75986390Y-73039848D01*
X76048194Y-73039848D01*
X76098194Y-73003521D01*
X76117292Y-72944742D01*
X76488721Y-72944742D01*
X76507819Y-73003521D01*
X76557819Y-73039848D01*
X76619623Y-73039848D01*
X76669623Y-73003521D01*
X76688721Y-72944742D01*
X76688721Y-72716171D01*
X77003007Y-72716171D01*
X77010130Y-72738094D01*
X77013564Y-72760892D01*
X77070707Y-72875179D01*
X77082081Y-72886726D01*
X77089439Y-72901168D01*
X77146582Y-72958310D01*
X77161023Y-72965668D01*
X77172572Y-72977043D01*
X77286857Y-73034185D01*
X77309654Y-73037618D01*
X77331578Y-73044742D01*
X77560150Y-73044742D01*
X77582073Y-73037618D01*
X77604871Y-73034185D01*
X77719157Y-72977043D01*
X77751953Y-72944742D01*
X78088721Y-72944742D01*
X78107819Y-73003521D01*
X78157819Y-73039848D01*
X78219623Y-73039848D01*
X78269623Y-73003521D01*
X78288721Y-72944742D01*
X78288721Y-72716171D01*
X78774435Y-72716171D01*
X78781558Y-72738094D01*
X78784992Y-72760892D01*
X78842135Y-72875179D01*
X78853509Y-72886726D01*
X78860867Y-72901168D01*
X78918010Y-72958310D01*
X78932451Y-72965668D01*
X78944000Y-72977043D01*
X79058285Y-73034185D01*
X79081082Y-73037618D01*
X79103006Y-73044742D01*
X79274435Y-73044742D01*
X79296358Y-73037618D01*
X79319156Y-73034185D01*
X79433442Y-72977043D01*
X79444989Y-72965669D01*
X79459432Y-72958311D01*
X79516574Y-72901168D01*
X79523932Y-72886727D01*
X79535307Y-72875178D01*
X79592449Y-72760892D01*
X79595882Y-72738094D01*
X79603006Y-72716171D01*
X79603006Y-72373314D01*
X79595882Y-72351390D01*
X79592449Y-72328593D01*
X79535307Y-72214307D01*
X79523932Y-72202757D01*
X79516574Y-72188317D01*
X79459432Y-72131174D01*
X79444990Y-72123816D01*
X79433443Y-72112442D01*
X79383759Y-72087600D01*
X79860149Y-72087600D01*
X79867272Y-72109523D01*
X79870706Y-72132322D01*
X79927850Y-72246607D01*
X79939222Y-72258153D01*
X79946581Y-72272596D01*
X80003724Y-72329738D01*
X80018163Y-72337095D01*
X80029713Y-72348471D01*
X80143999Y-72405614D01*
X80155019Y-72407273D01*
X80164466Y-72413185D01*
X80382387Y-72467665D01*
X80472342Y-72512642D01*
X80506533Y-72546833D01*
X80545863Y-72625491D01*
X80545863Y-72692563D01*
X80506533Y-72771222D01*
X80472342Y-72805413D01*
X80393685Y-72844742D01*
X80147805Y-72844742D01*
X79991771Y-72792732D01*
X79929969Y-72792262D01*
X79879695Y-72828209D01*
X79860151Y-72886842D01*
X79878803Y-72945763D01*
X79928527Y-72982468D01*
X80099956Y-73039611D01*
X80116164Y-73039734D01*
X80131578Y-73044742D01*
X80417292Y-73044742D01*
X80439215Y-73037618D01*
X80462013Y-73034185D01*
X80576299Y-72977043D01*
X80587848Y-72965668D01*
X80602289Y-72958310D01*
X80615857Y-72944742D01*
X81060149Y-72944742D01*
X81065043Y-72959804D01*
X81065043Y-72975644D01*
X81074352Y-72988457D01*
X81079247Y-73003521D01*
X81092060Y-73012830D01*
X81101370Y-73025644D01*
X81116433Y-73030538D01*
X81129247Y-73039848D01*
X81145086Y-73039848D01*
X81160149Y-73044742D01*
X81445863Y-73044742D01*
X81461278Y-73039733D01*
X81477485Y-73039610D01*
X81648915Y-72982468D01*
X81667463Y-72968775D01*
X81688003Y-72958310D01*
X81802288Y-72844024D01*
X81809645Y-72829583D01*
X81821020Y-72818035D01*
X81878163Y-72703749D01*
X81879822Y-72692728D01*
X81885734Y-72683282D01*
X81942877Y-72454710D01*
X81942016Y-72442294D01*
X81945863Y-72430457D01*
X81945863Y-72259028D01*
X81942016Y-72247190D01*
X81942877Y-72234775D01*
X81885734Y-72006203D01*
X81879822Y-71996756D01*
X81878163Y-71985736D01*
X81821020Y-71871450D01*
X81809645Y-71859901D01*
X81802288Y-71845461D01*
X81688003Y-71731175D01*
X81667463Y-71720709D01*
X81648915Y-71707017D01*
X81477486Y-71649874D01*
X81461278Y-71649750D01*
X81445863Y-71644742D01*
X81160149Y-71644742D01*
X81145086Y-71649636D01*
X81129247Y-71649636D01*
X81116433Y-71658945D01*
X81101370Y-71663840D01*
X81092060Y-71676653D01*
X81079247Y-71685963D01*
X81074352Y-71701026D01*
X81065043Y-71713840D01*
X81065043Y-71729679D01*
X81060149Y-71744742D01*
X81060149Y-72944742D01*
X80615857Y-72944742D01*
X80659432Y-72901167D01*
X80666790Y-72886724D01*
X80678163Y-72875178D01*
X80735306Y-72760892D01*
X80738739Y-72738094D01*
X80745863Y-72716171D01*
X80745863Y-72601885D01*
X80738739Y-72579961D01*
X80735306Y-72557164D01*
X80678163Y-72442878D01*
X80666789Y-72431331D01*
X80659432Y-72416890D01*
X80602289Y-72359747D01*
X80587849Y-72352389D01*
X80576300Y-72341014D01*
X80462013Y-72283871D01*
X80450992Y-72282211D01*
X80441546Y-72276300D01*
X80223622Y-72221819D01*
X80133669Y-72176841D01*
X80099477Y-72142648D01*
X80060149Y-72063992D01*
X80060149Y-71996921D01*
X80099477Y-71918264D01*
X80133669Y-71884071D01*
X80212327Y-71844742D01*
X80458208Y-71844742D01*
X80614240Y-71896753D01*
X80676042Y-71897223D01*
X80726316Y-71861276D01*
X80745860Y-71802644D01*
X80727209Y-71743722D01*
X80677486Y-71707017D01*
X80506058Y-71649874D01*
X80489850Y-71649750D01*
X80474435Y-71644742D01*
X80188720Y-71644742D01*
X80166796Y-71651865D01*
X80143999Y-71655299D01*
X80029713Y-71712442D01*
X80018163Y-71723817D01*
X80003724Y-71731175D01*
X79946581Y-71788317D01*
X79939223Y-71802758D01*
X79927849Y-71814306D01*
X79870706Y-71928593D01*
X79867272Y-71951390D01*
X79860149Y-71973314D01*
X79860149Y-72087600D01*
X79383759Y-72087600D01*
X79319156Y-72055299D01*
X79296358Y-72051865D01*
X79274435Y-72044742D01*
X79103006Y-72044742D01*
X79081082Y-72051865D01*
X79058285Y-72055299D01*
X78943999Y-72112442D01*
X78932449Y-72123817D01*
X78918010Y-72131175D01*
X78860867Y-72188317D01*
X78853509Y-72202758D01*
X78842135Y-72214306D01*
X78784992Y-72328593D01*
X78781558Y-72351390D01*
X78774435Y-72373314D01*
X78774435Y-72716171D01*
X78288721Y-72716171D01*
X78288721Y-72396921D01*
X78328049Y-72318264D01*
X78362241Y-72284071D01*
X78440899Y-72244742D01*
X78531578Y-72244742D01*
X78590357Y-72225644D01*
X78626684Y-72175644D01*
X78626684Y-72113840D01*
X78590357Y-72063840D01*
X78531578Y-72044742D01*
X78417292Y-72044742D01*
X78395368Y-72051865D01*
X78372571Y-72055299D01*
X78275439Y-72103864D01*
X78269623Y-72085963D01*
X78219623Y-72049636D01*
X78157819Y-72049636D01*
X78107819Y-72085963D01*
X78088721Y-72144742D01*
X78088721Y-72944742D01*
X77751953Y-72944742D01*
X77763190Y-72933675D01*
X77773321Y-72872708D01*
X77745682Y-72817428D01*
X77690830Y-72788952D01*
X77629715Y-72798157D01*
X77536543Y-72844742D01*
X77355185Y-72844742D01*
X77276528Y-72805414D01*
X77242335Y-72771220D01*
X77203007Y-72692564D01*
X77203007Y-72396921D01*
X77242335Y-72318264D01*
X77276527Y-72284071D01*
X77355185Y-72244742D01*
X77536543Y-72244742D01*
X77629715Y-72291328D01*
X77690829Y-72300533D01*
X77745682Y-72272057D01*
X77773322Y-72216778D01*
X77763190Y-72155811D01*
X77719158Y-72112442D01*
X77604871Y-72055299D01*
X77582073Y-72051865D01*
X77560150Y-72044742D01*
X77331578Y-72044742D01*
X77309654Y-72051865D01*
X77286857Y-72055299D01*
X77172571Y-72112442D01*
X77161021Y-72123817D01*
X77146582Y-72131175D01*
X77089439Y-72188317D01*
X77082081Y-72202758D01*
X77070707Y-72214306D01*
X77013564Y-72328593D01*
X77010130Y-72351390D01*
X77003007Y-72373314D01*
X77003007Y-72716171D01*
X76688721Y-72716171D01*
X76688721Y-72144742D01*
X76669623Y-72085963D01*
X76619623Y-72049636D01*
X76557819Y-72049636D01*
X76507819Y-72085963D01*
X76488721Y-72144742D01*
X76488721Y-72944742D01*
X76117292Y-72944742D01*
X76117292Y-71817528D01*
X76432809Y-71817528D01*
X76439999Y-71831639D01*
X76442477Y-71847284D01*
X76453676Y-71858483D01*
X76460867Y-71872596D01*
X76518010Y-71929738D01*
X76532121Y-71936928D01*
X76543322Y-71948129D01*
X76551291Y-71949391D01*
X76557819Y-71954134D01*
X76565888Y-71954134D01*
X76573077Y-71957797D01*
X76588720Y-71955319D01*
X76604364Y-71957797D01*
X76611553Y-71954134D01*
X76619623Y-71954134D01*
X76626151Y-71949391D01*
X76634120Y-71948129D01*
X76645319Y-71936929D01*
X76659432Y-71929739D01*
X76716574Y-71872596D01*
X76723764Y-71858484D01*
X76734965Y-71847284D01*
X76737442Y-71831640D01*
X76744633Y-71817529D01*
X76742155Y-71801885D01*
X76744633Y-71786241D01*
X76737442Y-71772129D01*
X76734965Y-71756486D01*
X76723764Y-71745285D01*
X76716574Y-71731174D01*
X76659432Y-71674031D01*
X76645319Y-71666840D01*
X76634120Y-71655641D01*
X76626151Y-71654378D01*
X76619623Y-71649636D01*
X76611553Y-71649636D01*
X76604364Y-71645973D01*
X76588720Y-71648450D01*
X76573077Y-71645973D01*
X76565888Y-71649636D01*
X76557819Y-71649636D01*
X76551291Y-71654378D01*
X76543322Y-71655641D01*
X76532121Y-71666841D01*
X76518010Y-71674032D01*
X76460867Y-71731174D01*
X76453676Y-71745286D01*
X76442477Y-71756486D01*
X76439999Y-71772130D01*
X76432809Y-71786242D01*
X76435286Y-71801885D01*
X76432809Y-71817528D01*
X76117292Y-71817528D01*
X76117292Y-71744742D01*
X76114263Y-71735419D01*
X76115461Y-71725689D01*
X76104916Y-71706652D01*
X76098194Y-71685963D01*
X76090264Y-71680201D01*
X76085514Y-71671626D01*
X76065795Y-71662423D01*
X76048194Y-71649636D01*
X76038392Y-71649636D01*
X76029508Y-71645490D01*
X76008146Y-71649636D01*
X75986390Y-71649636D01*
X75978460Y-71655397D01*
X75968837Y-71657265D01*
X75953993Y-71673173D01*
X75936390Y-71685963D01*
X75933360Y-71695286D01*
X75926674Y-71702453D01*
X75617291Y-72365414D01*
X75307910Y-71702453D01*
X75301223Y-71695286D01*
X75298194Y-71685963D01*
X75280590Y-71673173D01*
X75265747Y-71657265D01*
X75256124Y-71655397D01*
X75248194Y-71649636D01*
X75226435Y-71649636D01*
X75205076Y-71645491D01*
X75196194Y-71649636D01*
X75186390Y-71649636D01*
X75168785Y-71662426D01*
X75149070Y-71671627D01*
X75144320Y-71680201D01*
X75136390Y-71685963D01*
X75129666Y-71706655D01*
X75119123Y-71725690D01*
X75120320Y-71735420D01*
X75117292Y-71744742D01*
X75117292Y-72944742D01*
X74945863Y-72944742D01*
X74945863Y-71473313D01*
X82117292Y-71473313D01*
X82117292Y-73216171D01*
G37*
X39903006Y-40944742D02*
X39503006Y-40373314D01*
X39217292Y-40944742D02*
X39217292Y-39744742D01*
X39217292Y-39744742D02*
X39674435Y-39744742D01*
X39674435Y-39744742D02*
X39788720Y-39801885D01*
X39788720Y-39801885D02*
X39845863Y-39859028D01*
X39845863Y-39859028D02*
X39903006Y-39973314D01*
X39903006Y-39973314D02*
X39903006Y-40144742D01*
X39903006Y-40144742D02*
X39845863Y-40259028D01*
X39845863Y-40259028D02*
X39788720Y-40316171D01*
X39788720Y-40316171D02*
X39674435Y-40373314D01*
X39674435Y-40373314D02*
X39217292Y-40373314D01*
X40303006Y-39744742D02*
X41103006Y-40944742D01*
X41103006Y-39744742D02*
X40303006Y-40944742D01*
X29503006Y-94244742D02*
X30245863Y-94244742D01*
X30245863Y-94244742D02*
X29845863Y-94701885D01*
X29845863Y-94701885D02*
X30017292Y-94701885D01*
X30017292Y-94701885D02*
X30131578Y-94759028D01*
X30131578Y-94759028D02*
X30188720Y-94816171D01*
X30188720Y-94816171D02*
X30245863Y-94930457D01*
X30245863Y-94930457D02*
X30245863Y-95216171D01*
X30245863Y-95216171D02*
X30188720Y-95330457D01*
X30188720Y-95330457D02*
X30131578Y-95387600D01*
X30131578Y-95387600D02*
X30017292Y-95444742D01*
X30017292Y-95444742D02*
X29674435Y-95444742D01*
X29674435Y-95444742D02*
X29560149Y-95387600D01*
X29560149Y-95387600D02*
X29503006Y-95330457D01*
X30588720Y-94244742D02*
X30988720Y-95444742D01*
X30988720Y-95444742D02*
X31388720Y-94244742D01*
X31674434Y-94244742D02*
X32417291Y-94244742D01*
X32417291Y-94244742D02*
X32017291Y-94701885D01*
X32017291Y-94701885D02*
X32188720Y-94701885D01*
X32188720Y-94701885D02*
X32303006Y-94759028D01*
X32303006Y-94759028D02*
X32360148Y-94816171D01*
X32360148Y-94816171D02*
X32417291Y-94930457D01*
X32417291Y-94930457D02*
X32417291Y-95216171D01*
X32417291Y-95216171D02*
X32360148Y-95330457D01*
X32360148Y-95330457D02*
X32303006Y-95387600D01*
X32303006Y-95387600D02*
X32188720Y-95444742D01*
X32188720Y-95444742D02*
X31845863Y-95444742D01*
X31845863Y-95444742D02*
X31731577Y-95387600D01*
X31731577Y-95387600D02*
X31674434Y-95330457D01*
X39045863Y-41744742D02*
X39731578Y-41744742D01*
X39388720Y-42944742D02*
X39388720Y-41744742D01*
X40017292Y-41744742D02*
X40817292Y-42944742D01*
X40817292Y-41744742D02*
X40017292Y-42944742D01*
X29560149Y-90387600D02*
X29731578Y-90444742D01*
X29731578Y-90444742D02*
X30017292Y-90444742D01*
X30017292Y-90444742D02*
X30131578Y-90387600D01*
X30131578Y-90387600D02*
X30188720Y-90330457D01*
X30188720Y-90330457D02*
X30245863Y-90216171D01*
X30245863Y-90216171D02*
X30245863Y-90101885D01*
X30245863Y-90101885D02*
X30188720Y-89987600D01*
X30188720Y-89987600D02*
X30131578Y-89930457D01*
X30131578Y-89930457D02*
X30017292Y-89873314D01*
X30017292Y-89873314D02*
X29788720Y-89816171D01*
X29788720Y-89816171D02*
X29674435Y-89759028D01*
X29674435Y-89759028D02*
X29617292Y-89701885D01*
X29617292Y-89701885D02*
X29560149Y-89587600D01*
X29560149Y-89587600D02*
X29560149Y-89473314D01*
X29560149Y-89473314D02*
X29617292Y-89359028D01*
X29617292Y-89359028D02*
X29674435Y-89301885D01*
X29674435Y-89301885D02*
X29788720Y-89244742D01*
X29788720Y-89244742D02*
X30074435Y-89244742D01*
X30074435Y-89244742D02*
X30245863Y-89301885D01*
X31445863Y-90330457D02*
X31388720Y-90387600D01*
X31388720Y-90387600D02*
X31217292Y-90444742D01*
X31217292Y-90444742D02*
X31103006Y-90444742D01*
X31103006Y-90444742D02*
X30931577Y-90387600D01*
X30931577Y-90387600D02*
X30817292Y-90273314D01*
X30817292Y-90273314D02*
X30760149Y-90159028D01*
X30760149Y-90159028D02*
X30703006Y-89930457D01*
X30703006Y-89930457D02*
X30703006Y-89759028D01*
X30703006Y-89759028D02*
X30760149Y-89530457D01*
X30760149Y-89530457D02*
X30817292Y-89416171D01*
X30817292Y-89416171D02*
X30931577Y-89301885D01*
X30931577Y-89301885D02*
X31103006Y-89244742D01*
X31103006Y-89244742D02*
X31217292Y-89244742D01*
X31217292Y-89244742D02*
X31388720Y-89301885D01*
X31388720Y-89301885D02*
X31445863Y-89359028D01*
X32531577Y-90444742D02*
X31960149Y-90444742D01*
X31960149Y-90444742D02*
X31960149Y-89244742D01*
X39253006Y-37944742D02*
X39995863Y-37944742D01*
X39995863Y-37944742D02*
X39595863Y-38401885D01*
X39595863Y-38401885D02*
X39767292Y-38401885D01*
X39767292Y-38401885D02*
X39881578Y-38459028D01*
X39881578Y-38459028D02*
X39938720Y-38516171D01*
X39938720Y-38516171D02*
X39995863Y-38630457D01*
X39995863Y-38630457D02*
X39995863Y-38916171D01*
X39995863Y-38916171D02*
X39938720Y-39030457D01*
X39938720Y-39030457D02*
X39881578Y-39087600D01*
X39881578Y-39087600D02*
X39767292Y-39144742D01*
X39767292Y-39144742D02*
X39424435Y-39144742D01*
X39424435Y-39144742D02*
X39310149Y-39087600D01*
X39310149Y-39087600D02*
X39253006Y-39030457D01*
X40338720Y-37944742D02*
X40738720Y-39144742D01*
X40738720Y-39144742D02*
X41138720Y-37944742D01*
X41424434Y-37944742D02*
X42167291Y-37944742D01*
X42167291Y-37944742D02*
X41767291Y-38401885D01*
X41767291Y-38401885D02*
X41938720Y-38401885D01*
X41938720Y-38401885D02*
X42053006Y-38459028D01*
X42053006Y-38459028D02*
X42110148Y-38516171D01*
X42110148Y-38516171D02*
X42167291Y-38630457D01*
X42167291Y-38630457D02*
X42167291Y-38916171D01*
X42167291Y-38916171D02*
X42110148Y-39030457D01*
X42110148Y-39030457D02*
X42053006Y-39087600D01*
X42053006Y-39087600D02*
X41938720Y-39144742D01*
X41938720Y-39144742D02*
X41595863Y-39144742D01*
X41595863Y-39144742D02*
X41481577Y-39087600D01*
X41481577Y-39087600D02*
X41424434Y-39030457D01*
G36*
X32421407Y-33901885D02*
G01*
X32127463Y-33901885D01*
X32274435Y-33460969D01*
X32421407Y-33901885D01*
G37*
G36*
X29986626Y-33284070D02*
G01*
X30020820Y-33318263D01*
X30060149Y-33396921D01*
X30060149Y-33521134D01*
X30020820Y-33599792D01*
X29986626Y-33633985D01*
X29907970Y-33673314D01*
X29574435Y-33673314D01*
X29574435Y-33244742D01*
X29907970Y-33244742D01*
X29986626Y-33284070D01*
G37*
G36*
X32941202Y-34616169D02*
G01*
X27945863Y-34616169D01*
X27945863Y-34344742D01*
X28117292Y-34344742D01*
X28136390Y-34403521D01*
X28186390Y-34439848D01*
X28248194Y-34439848D01*
X28298194Y-34403521D01*
X28317292Y-34344742D01*
X28317292Y-33816171D01*
X28803006Y-33816171D01*
X28803006Y-34344742D01*
X28822104Y-34403521D01*
X28872104Y-34439848D01*
X28933908Y-34439848D01*
X28983908Y-34403521D01*
X29003006Y-34344742D01*
X29374435Y-34344742D01*
X29393533Y-34403521D01*
X29443533Y-34439848D01*
X29505337Y-34439848D01*
X29555337Y-34403521D01*
X29574435Y-34344742D01*
X30574435Y-34344742D01*
X30593533Y-34403521D01*
X30643533Y-34439848D01*
X30705337Y-34439848D01*
X30755337Y-34403521D01*
X30774435Y-34344742D01*
X30774435Y-33595498D01*
X30983817Y-34044174D01*
X30996911Y-34058207D01*
X31006213Y-34075000D01*
X31017489Y-34080262D01*
X31025980Y-34089362D01*
X31044827Y-34093019D01*
X31062219Y-34101136D01*
X31074432Y-34098765D01*
X31086651Y-34101137D01*
X31104047Y-34093018D01*
X31122890Y-34089362D01*
X31131378Y-34080264D01*
X31142657Y-34075001D01*
X31151960Y-34058206D01*
X31165053Y-34044174D01*
X31374435Y-33595497D01*
X31374435Y-34344742D01*
X31393533Y-34403521D01*
X31443533Y-34439848D01*
X31505337Y-34439848D01*
X31555337Y-34403521D01*
X31564629Y-34374921D01*
X31779097Y-34374921D01*
X31815044Y-34425195D01*
X31873676Y-34444740D01*
X31932598Y-34426088D01*
X31969303Y-34376365D01*
X32060796Y-34101885D01*
X32488074Y-34101885D01*
X32579567Y-34376365D01*
X32616272Y-34426088D01*
X32675194Y-34444739D01*
X32733826Y-34425195D01*
X32769773Y-34374921D01*
X32769303Y-34313119D01*
X32369303Y-33113119D01*
X32351380Y-33088840D01*
X32333826Y-33064289D01*
X32333071Y-33064037D01*
X32332598Y-33063396D01*
X32303772Y-33054271D01*
X32275194Y-33044745D01*
X32274436Y-33044984D01*
X32273676Y-33044744D01*
X32245037Y-33054290D01*
X32216272Y-33063396D01*
X32215798Y-33064037D01*
X32215044Y-33064289D01*
X32197489Y-33088840D01*
X32179567Y-33113119D01*
X31779567Y-34313119D01*
X31779097Y-34374921D01*
X31564629Y-34374921D01*
X31574435Y-34344742D01*
X31574435Y-33144742D01*
X31571406Y-33135419D01*
X31572604Y-33125689D01*
X31562059Y-33106652D01*
X31555337Y-33085963D01*
X31547407Y-33080201D01*
X31542657Y-33071626D01*
X31522938Y-33062423D01*
X31505337Y-33049636D01*
X31495535Y-33049636D01*
X31486651Y-33045490D01*
X31465289Y-33049636D01*
X31443533Y-33049636D01*
X31435603Y-33055397D01*
X31425980Y-33057265D01*
X31411136Y-33073173D01*
X31393533Y-33085963D01*
X31390503Y-33095286D01*
X31383817Y-33102453D01*
X31074434Y-33765414D01*
X30765053Y-33102453D01*
X30758366Y-33095286D01*
X30755337Y-33085963D01*
X30737733Y-33073173D01*
X30722890Y-33057265D01*
X30713267Y-33055397D01*
X30705337Y-33049636D01*
X30683578Y-33049636D01*
X30662219Y-33045491D01*
X30653337Y-33049636D01*
X30643533Y-33049636D01*
X30625928Y-33062426D01*
X30606213Y-33071627D01*
X30601463Y-33080201D01*
X30593533Y-33085963D01*
X30586809Y-33106655D01*
X30576266Y-33125690D01*
X30577463Y-33135420D01*
X30574435Y-33144742D01*
X30574435Y-34344742D01*
X29574435Y-34344742D01*
X29574435Y-33873314D01*
X29931578Y-33873314D01*
X29953501Y-33866190D01*
X29976300Y-33862757D01*
X30090585Y-33805613D01*
X30102131Y-33794240D01*
X30116574Y-33786882D01*
X30173716Y-33729739D01*
X30181074Y-33715297D01*
X30192449Y-33703749D01*
X30249592Y-33589463D01*
X30253025Y-33566665D01*
X30260149Y-33544742D01*
X30260149Y-33373314D01*
X30253025Y-33351390D01*
X30249592Y-33328593D01*
X30192449Y-33214307D01*
X30181074Y-33202758D01*
X30173716Y-33188317D01*
X30116574Y-33131174D01*
X30102131Y-33123815D01*
X30090585Y-33112443D01*
X29976300Y-33055299D01*
X29953501Y-33051865D01*
X29931578Y-33044742D01*
X29474435Y-33044742D01*
X29459372Y-33049636D01*
X29443533Y-33049636D01*
X29430719Y-33058945D01*
X29415656Y-33063840D01*
X29406346Y-33076653D01*
X29393533Y-33085963D01*
X29388638Y-33101026D01*
X29379329Y-33113840D01*
X29379329Y-33129679D01*
X29374435Y-33144742D01*
X29374435Y-34344742D01*
X29003006Y-34344742D01*
X29003006Y-33144742D01*
X28983908Y-33085963D01*
X28933908Y-33049636D01*
X28872104Y-33049636D01*
X28822104Y-33085963D01*
X28803006Y-33144742D01*
X28803006Y-33616171D01*
X28317292Y-33616171D01*
X28317292Y-33144742D01*
X28298194Y-33085963D01*
X28248194Y-33049636D01*
X28186390Y-33049636D01*
X28136390Y-33085963D01*
X28117292Y-33144742D01*
X28117292Y-34344742D01*
X27945863Y-34344742D01*
X27945863Y-32873313D01*
X32941202Y-32873313D01*
X32941202Y-34616169D01*
G37*
D11*
X82444642Y-105454819D02*
X82111309Y-104978628D01*
X81873214Y-105454819D02*
X81873214Y-104454819D01*
X81873214Y-104454819D02*
X82254166Y-104454819D01*
X82254166Y-104454819D02*
X82349404Y-104502438D01*
X82349404Y-104502438D02*
X82397023Y-104550057D01*
X82397023Y-104550057D02*
X82444642Y-104645295D01*
X82444642Y-104645295D02*
X82444642Y-104788152D01*
X82444642Y-104788152D02*
X82397023Y-104883390D01*
X82397023Y-104883390D02*
X82349404Y-104931009D01*
X82349404Y-104931009D02*
X82254166Y-104978628D01*
X82254166Y-104978628D02*
X81873214Y-104978628D01*
X83397023Y-105454819D02*
X82825595Y-105454819D01*
X83111309Y-105454819D02*
X83111309Y-104454819D01*
X83111309Y-104454819D02*
X83016071Y-104597676D01*
X83016071Y-104597676D02*
X82920833Y-104692914D01*
X82920833Y-104692914D02*
X82825595Y-104740533D01*
X83968452Y-104883390D02*
X83873214Y-104835771D01*
X83873214Y-104835771D02*
X83825595Y-104788152D01*
X83825595Y-104788152D02*
X83777976Y-104692914D01*
X83777976Y-104692914D02*
X83777976Y-104645295D01*
X83777976Y-104645295D02*
X83825595Y-104550057D01*
X83825595Y-104550057D02*
X83873214Y-104502438D01*
X83873214Y-104502438D02*
X83968452Y-104454819D01*
X83968452Y-104454819D02*
X84158928Y-104454819D01*
X84158928Y-104454819D02*
X84254166Y-104502438D01*
X84254166Y-104502438D02*
X84301785Y-104550057D01*
X84301785Y-104550057D02*
X84349404Y-104645295D01*
X84349404Y-104645295D02*
X84349404Y-104692914D01*
X84349404Y-104692914D02*
X84301785Y-104788152D01*
X84301785Y-104788152D02*
X84254166Y-104835771D01*
X84254166Y-104835771D02*
X84158928Y-104883390D01*
X84158928Y-104883390D02*
X83968452Y-104883390D01*
X83968452Y-104883390D02*
X83873214Y-104931009D01*
X83873214Y-104931009D02*
X83825595Y-104978628D01*
X83825595Y-104978628D02*
X83777976Y-105073866D01*
X83777976Y-105073866D02*
X83777976Y-105264342D01*
X83777976Y-105264342D02*
X83825595Y-105359580D01*
X83825595Y-105359580D02*
X83873214Y-105407200D01*
X83873214Y-105407200D02*
X83968452Y-105454819D01*
X83968452Y-105454819D02*
X84158928Y-105454819D01*
X84158928Y-105454819D02*
X84254166Y-105407200D01*
X84254166Y-105407200D02*
X84301785Y-105359580D01*
X84301785Y-105359580D02*
X84349404Y-105264342D01*
X84349404Y-105264342D02*
X84349404Y-105073866D01*
X84349404Y-105073866D02*
X84301785Y-104978628D01*
X84301785Y-104978628D02*
X84254166Y-104931009D01*
X84254166Y-104931009D02*
X84158928Y-104883390D01*
X93066666Y-86454819D02*
X93066666Y-87169104D01*
X93066666Y-87169104D02*
X93019047Y-87311961D01*
X93019047Y-87311961D02*
X92923809Y-87407200D01*
X92923809Y-87407200D02*
X92780952Y-87454819D01*
X92780952Y-87454819D02*
X92685714Y-87454819D01*
X94066666Y-87454819D02*
X93495238Y-87454819D01*
X93780952Y-87454819D02*
X93780952Y-86454819D01*
X93780952Y-86454819D02*
X93685714Y-86597676D01*
X93685714Y-86597676D02*
X93590476Y-86692914D01*
X93590476Y-86692914D02*
X93495238Y-86740533D01*
X98469642Y-105454819D02*
X98136309Y-104978628D01*
X97898214Y-105454819D02*
X97898214Y-104454819D01*
X97898214Y-104454819D02*
X98279166Y-104454819D01*
X98279166Y-104454819D02*
X98374404Y-104502438D01*
X98374404Y-104502438D02*
X98422023Y-104550057D01*
X98422023Y-104550057D02*
X98469642Y-104645295D01*
X98469642Y-104645295D02*
X98469642Y-104788152D01*
X98469642Y-104788152D02*
X98422023Y-104883390D01*
X98422023Y-104883390D02*
X98374404Y-104931009D01*
X98374404Y-104931009D02*
X98279166Y-104978628D01*
X98279166Y-104978628D02*
X97898214Y-104978628D01*
X98850595Y-104550057D02*
X98898214Y-104502438D01*
X98898214Y-104502438D02*
X98993452Y-104454819D01*
X98993452Y-104454819D02*
X99231547Y-104454819D01*
X99231547Y-104454819D02*
X99326785Y-104502438D01*
X99326785Y-104502438D02*
X99374404Y-104550057D01*
X99374404Y-104550057D02*
X99422023Y-104645295D01*
X99422023Y-104645295D02*
X99422023Y-104740533D01*
X99422023Y-104740533D02*
X99374404Y-104883390D01*
X99374404Y-104883390D02*
X98802976Y-105454819D01*
X98802976Y-105454819D02*
X99422023Y-105454819D01*
X100041071Y-104454819D02*
X100136309Y-104454819D01*
X100136309Y-104454819D02*
X100231547Y-104502438D01*
X100231547Y-104502438D02*
X100279166Y-104550057D01*
X100279166Y-104550057D02*
X100326785Y-104645295D01*
X100326785Y-104645295D02*
X100374404Y-104835771D01*
X100374404Y-104835771D02*
X100374404Y-105073866D01*
X100374404Y-105073866D02*
X100326785Y-105264342D01*
X100326785Y-105264342D02*
X100279166Y-105359580D01*
X100279166Y-105359580D02*
X100231547Y-105407200D01*
X100231547Y-105407200D02*
X100136309Y-105454819D01*
X100136309Y-105454819D02*
X100041071Y-105454819D01*
X100041071Y-105454819D02*
X99945833Y-105407200D01*
X99945833Y-105407200D02*
X99898214Y-105359580D01*
X99898214Y-105359580D02*
X99850595Y-105264342D01*
X99850595Y-105264342D02*
X99802976Y-105073866D01*
X99802976Y-105073866D02*
X99802976Y-104835771D01*
X99802976Y-104835771D02*
X99850595Y-104645295D01*
X99850595Y-104645295D02*
X99898214Y-104550057D01*
X99898214Y-104550057D02*
X99945833Y-104502438D01*
X99945833Y-104502438D02*
X100041071Y-104454819D01*
X58220833Y-76054819D02*
X57887500Y-75578628D01*
X57649405Y-76054819D02*
X57649405Y-75054819D01*
X57649405Y-75054819D02*
X58030357Y-75054819D01*
X58030357Y-75054819D02*
X58125595Y-75102438D01*
X58125595Y-75102438D02*
X58173214Y-75150057D01*
X58173214Y-75150057D02*
X58220833Y-75245295D01*
X58220833Y-75245295D02*
X58220833Y-75388152D01*
X58220833Y-75388152D02*
X58173214Y-75483390D01*
X58173214Y-75483390D02*
X58125595Y-75531009D01*
X58125595Y-75531009D02*
X58030357Y-75578628D01*
X58030357Y-75578628D02*
X57649405Y-75578628D01*
X58554167Y-75054819D02*
X59220833Y-75054819D01*
X59220833Y-75054819D02*
X58792262Y-76054819D01*
X71266666Y-95854819D02*
X71266666Y-96569104D01*
X71266666Y-96569104D02*
X71219047Y-96711961D01*
X71219047Y-96711961D02*
X71123809Y-96807200D01*
X71123809Y-96807200D02*
X70980952Y-96854819D01*
X70980952Y-96854819D02*
X70885714Y-96854819D01*
X72171428Y-96188152D02*
X72171428Y-96854819D01*
X71933333Y-95807200D02*
X71695238Y-96521485D01*
X71695238Y-96521485D02*
X72314285Y-96521485D01*
X63759580Y-82842857D02*
X63807200Y-82890476D01*
X63807200Y-82890476D02*
X63854819Y-83033333D01*
X63854819Y-83033333D02*
X63854819Y-83128571D01*
X63854819Y-83128571D02*
X63807200Y-83271428D01*
X63807200Y-83271428D02*
X63711961Y-83366666D01*
X63711961Y-83366666D02*
X63616723Y-83414285D01*
X63616723Y-83414285D02*
X63426247Y-83461904D01*
X63426247Y-83461904D02*
X63283390Y-83461904D01*
X63283390Y-83461904D02*
X63092914Y-83414285D01*
X63092914Y-83414285D02*
X62997676Y-83366666D01*
X62997676Y-83366666D02*
X62902438Y-83271428D01*
X62902438Y-83271428D02*
X62854819Y-83128571D01*
X62854819Y-83128571D02*
X62854819Y-83033333D01*
X62854819Y-83033333D02*
X62902438Y-82890476D01*
X62902438Y-82890476D02*
X62950057Y-82842857D01*
X63854819Y-81890476D02*
X63854819Y-82461904D01*
X63854819Y-82176190D02*
X62854819Y-82176190D01*
X62854819Y-82176190D02*
X62997676Y-82271428D01*
X62997676Y-82271428D02*
X63092914Y-82366666D01*
X63092914Y-82366666D02*
X63140533Y-82461904D01*
X63188152Y-81033333D02*
X63854819Y-81033333D01*
X62807200Y-81271428D02*
X63521485Y-81509523D01*
X63521485Y-81509523D02*
X63521485Y-80890476D01*
X84861905Y-108854819D02*
X84861905Y-107854819D01*
X84861905Y-107854819D02*
X85100000Y-107854819D01*
X85100000Y-107854819D02*
X85242857Y-107902438D01*
X85242857Y-107902438D02*
X85338095Y-107997676D01*
X85338095Y-107997676D02*
X85385714Y-108092914D01*
X85385714Y-108092914D02*
X85433333Y-108283390D01*
X85433333Y-108283390D02*
X85433333Y-108426247D01*
X85433333Y-108426247D02*
X85385714Y-108616723D01*
X85385714Y-108616723D02*
X85338095Y-108711961D01*
X85338095Y-108711961D02*
X85242857Y-108807200D01*
X85242857Y-108807200D02*
X85100000Y-108854819D01*
X85100000Y-108854819D02*
X84861905Y-108854819D01*
X85814286Y-107950057D02*
X85861905Y-107902438D01*
X85861905Y-107902438D02*
X85957143Y-107854819D01*
X85957143Y-107854819D02*
X86195238Y-107854819D01*
X86195238Y-107854819D02*
X86290476Y-107902438D01*
X86290476Y-107902438D02*
X86338095Y-107950057D01*
X86338095Y-107950057D02*
X86385714Y-108045295D01*
X86385714Y-108045295D02*
X86385714Y-108140533D01*
X86385714Y-108140533D02*
X86338095Y-108283390D01*
X86338095Y-108283390D02*
X85766667Y-108854819D01*
X85766667Y-108854819D02*
X86385714Y-108854819D01*
X48707080Y-40566666D02*
X48754700Y-40614285D01*
X48754700Y-40614285D02*
X48802319Y-40757142D01*
X48802319Y-40757142D02*
X48802319Y-40852380D01*
X48802319Y-40852380D02*
X48754700Y-40995237D01*
X48754700Y-40995237D02*
X48659461Y-41090475D01*
X48659461Y-41090475D02*
X48564223Y-41138094D01*
X48564223Y-41138094D02*
X48373747Y-41185713D01*
X48373747Y-41185713D02*
X48230890Y-41185713D01*
X48230890Y-41185713D02*
X48040414Y-41138094D01*
X48040414Y-41138094D02*
X47945176Y-41090475D01*
X47945176Y-41090475D02*
X47849938Y-40995237D01*
X47849938Y-40995237D02*
X47802319Y-40852380D01*
X47802319Y-40852380D02*
X47802319Y-40757142D01*
X47802319Y-40757142D02*
X47849938Y-40614285D01*
X47849938Y-40614285D02*
X47897557Y-40566666D01*
X48802319Y-39614285D02*
X48802319Y-40185713D01*
X48802319Y-39899999D02*
X47802319Y-39899999D01*
X47802319Y-39899999D02*
X47945176Y-39995237D01*
X47945176Y-39995237D02*
X48040414Y-40090475D01*
X48040414Y-40090475D02*
X48088033Y-40185713D01*
X96774405Y-109054819D02*
X96774405Y-108054819D01*
X96774405Y-108054819D02*
X97012500Y-108054819D01*
X97012500Y-108054819D02*
X97155357Y-108102438D01*
X97155357Y-108102438D02*
X97250595Y-108197676D01*
X97250595Y-108197676D02*
X97298214Y-108292914D01*
X97298214Y-108292914D02*
X97345833Y-108483390D01*
X97345833Y-108483390D02*
X97345833Y-108626247D01*
X97345833Y-108626247D02*
X97298214Y-108816723D01*
X97298214Y-108816723D02*
X97250595Y-108911961D01*
X97250595Y-108911961D02*
X97155357Y-109007200D01*
X97155357Y-109007200D02*
X97012500Y-109054819D01*
X97012500Y-109054819D02*
X96774405Y-109054819D01*
X98250595Y-108054819D02*
X97774405Y-108054819D01*
X97774405Y-108054819D02*
X97726786Y-108531009D01*
X97726786Y-108531009D02*
X97774405Y-108483390D01*
X97774405Y-108483390D02*
X97869643Y-108435771D01*
X97869643Y-108435771D02*
X98107738Y-108435771D01*
X98107738Y-108435771D02*
X98202976Y-108483390D01*
X98202976Y-108483390D02*
X98250595Y-108531009D01*
X98250595Y-108531009D02*
X98298214Y-108626247D01*
X98298214Y-108626247D02*
X98298214Y-108864342D01*
X98298214Y-108864342D02*
X98250595Y-108959580D01*
X98250595Y-108959580D02*
X98202976Y-109007200D01*
X98202976Y-109007200D02*
X98107738Y-109054819D01*
X98107738Y-109054819D02*
X97869643Y-109054819D01*
X97869643Y-109054819D02*
X97774405Y-109007200D01*
X97774405Y-109007200D02*
X97726786Y-108959580D01*
X57980833Y-33509580D02*
X57933214Y-33557200D01*
X57933214Y-33557200D02*
X57790357Y-33604819D01*
X57790357Y-33604819D02*
X57695119Y-33604819D01*
X57695119Y-33604819D02*
X57552262Y-33557200D01*
X57552262Y-33557200D02*
X57457024Y-33461961D01*
X57457024Y-33461961D02*
X57409405Y-33366723D01*
X57409405Y-33366723D02*
X57361786Y-33176247D01*
X57361786Y-33176247D02*
X57361786Y-33033390D01*
X57361786Y-33033390D02*
X57409405Y-32842914D01*
X57409405Y-32842914D02*
X57457024Y-32747676D01*
X57457024Y-32747676D02*
X57552262Y-32652438D01*
X57552262Y-32652438D02*
X57695119Y-32604819D01*
X57695119Y-32604819D02*
X57790357Y-32604819D01*
X57790357Y-32604819D02*
X57933214Y-32652438D01*
X57933214Y-32652438D02*
X57980833Y-32700057D01*
X58837976Y-32604819D02*
X58647500Y-32604819D01*
X58647500Y-32604819D02*
X58552262Y-32652438D01*
X58552262Y-32652438D02*
X58504643Y-32700057D01*
X58504643Y-32700057D02*
X58409405Y-32842914D01*
X58409405Y-32842914D02*
X58361786Y-33033390D01*
X58361786Y-33033390D02*
X58361786Y-33414342D01*
X58361786Y-33414342D02*
X58409405Y-33509580D01*
X58409405Y-33509580D02*
X58457024Y-33557200D01*
X58457024Y-33557200D02*
X58552262Y-33604819D01*
X58552262Y-33604819D02*
X58742738Y-33604819D01*
X58742738Y-33604819D02*
X58837976Y-33557200D01*
X58837976Y-33557200D02*
X58885595Y-33509580D01*
X58885595Y-33509580D02*
X58933214Y-33414342D01*
X58933214Y-33414342D02*
X58933214Y-33176247D01*
X58933214Y-33176247D02*
X58885595Y-33081009D01*
X58885595Y-33081009D02*
X58837976Y-33033390D01*
X58837976Y-33033390D02*
X58742738Y-32985771D01*
X58742738Y-32985771D02*
X58552262Y-32985771D01*
X58552262Y-32985771D02*
X58457024Y-33033390D01*
X58457024Y-33033390D02*
X58409405Y-33081009D01*
X58409405Y-33081009D02*
X58361786Y-33176247D01*
X77966666Y-112854819D02*
X77966666Y-113569104D01*
X77966666Y-113569104D02*
X77919047Y-113711961D01*
X77919047Y-113711961D02*
X77823809Y-113807200D01*
X77823809Y-113807200D02*
X77680952Y-113854819D01*
X77680952Y-113854819D02*
X77585714Y-113854819D01*
X78442857Y-113854819D02*
X78442857Y-112854819D01*
X78442857Y-112854819D02*
X78823809Y-112854819D01*
X78823809Y-112854819D02*
X78919047Y-112902438D01*
X78919047Y-112902438D02*
X78966666Y-112950057D01*
X78966666Y-112950057D02*
X79014285Y-113045295D01*
X79014285Y-113045295D02*
X79014285Y-113188152D01*
X79014285Y-113188152D02*
X78966666Y-113283390D01*
X78966666Y-113283390D02*
X78919047Y-113331009D01*
X78919047Y-113331009D02*
X78823809Y-113378628D01*
X78823809Y-113378628D02*
X78442857Y-113378628D01*
X79919047Y-112854819D02*
X79442857Y-112854819D01*
X79442857Y-112854819D02*
X79395238Y-113331009D01*
X79395238Y-113331009D02*
X79442857Y-113283390D01*
X79442857Y-113283390D02*
X79538095Y-113235771D01*
X79538095Y-113235771D02*
X79776190Y-113235771D01*
X79776190Y-113235771D02*
X79871428Y-113283390D01*
X79871428Y-113283390D02*
X79919047Y-113331009D01*
X79919047Y-113331009D02*
X79966666Y-113426247D01*
X79966666Y-113426247D02*
X79966666Y-113664342D01*
X79966666Y-113664342D02*
X79919047Y-113759580D01*
X79919047Y-113759580D02*
X79871428Y-113807200D01*
X79871428Y-113807200D02*
X79776190Y-113854819D01*
X79776190Y-113854819D02*
X79538095Y-113854819D01*
X79538095Y-113854819D02*
X79442857Y-113807200D01*
X79442857Y-113807200D02*
X79395238Y-113759580D01*
X64171309Y-35628628D02*
X64171309Y-36104819D01*
X63837976Y-35104819D02*
X64171309Y-35628628D01*
X64171309Y-35628628D02*
X64504642Y-35104819D01*
X64790357Y-35200057D02*
X64837976Y-35152438D01*
X64837976Y-35152438D02*
X64933214Y-35104819D01*
X64933214Y-35104819D02*
X65171309Y-35104819D01*
X65171309Y-35104819D02*
X65266547Y-35152438D01*
X65266547Y-35152438D02*
X65314166Y-35200057D01*
X65314166Y-35200057D02*
X65361785Y-35295295D01*
X65361785Y-35295295D02*
X65361785Y-35390533D01*
X65361785Y-35390533D02*
X65314166Y-35533390D01*
X65314166Y-35533390D02*
X64742738Y-36104819D01*
X64742738Y-36104819D02*
X65361785Y-36104819D01*
X63633333Y-89254819D02*
X63300000Y-88778628D01*
X63061905Y-89254819D02*
X63061905Y-88254819D01*
X63061905Y-88254819D02*
X63442857Y-88254819D01*
X63442857Y-88254819D02*
X63538095Y-88302438D01*
X63538095Y-88302438D02*
X63585714Y-88350057D01*
X63585714Y-88350057D02*
X63633333Y-88445295D01*
X63633333Y-88445295D02*
X63633333Y-88588152D01*
X63633333Y-88588152D02*
X63585714Y-88683390D01*
X63585714Y-88683390D02*
X63538095Y-88731009D01*
X63538095Y-88731009D02*
X63442857Y-88778628D01*
X63442857Y-88778628D02*
X63061905Y-88778628D01*
X63966667Y-88254819D02*
X64585714Y-88254819D01*
X64585714Y-88254819D02*
X64252381Y-88635771D01*
X64252381Y-88635771D02*
X64395238Y-88635771D01*
X64395238Y-88635771D02*
X64490476Y-88683390D01*
X64490476Y-88683390D02*
X64538095Y-88731009D01*
X64538095Y-88731009D02*
X64585714Y-88826247D01*
X64585714Y-88826247D02*
X64585714Y-89064342D01*
X64585714Y-89064342D02*
X64538095Y-89159580D01*
X64538095Y-89159580D02*
X64490476Y-89207200D01*
X64490476Y-89207200D02*
X64395238Y-89254819D01*
X64395238Y-89254819D02*
X64109524Y-89254819D01*
X64109524Y-89254819D02*
X64014286Y-89207200D01*
X64014286Y-89207200D02*
X63966667Y-89159580D01*
X54557142Y-61854819D02*
X54223809Y-61378628D01*
X53985714Y-61854819D02*
X53985714Y-60854819D01*
X53985714Y-60854819D02*
X54366666Y-60854819D01*
X54366666Y-60854819D02*
X54461904Y-60902438D01*
X54461904Y-60902438D02*
X54509523Y-60950057D01*
X54509523Y-60950057D02*
X54557142Y-61045295D01*
X54557142Y-61045295D02*
X54557142Y-61188152D01*
X54557142Y-61188152D02*
X54509523Y-61283390D01*
X54509523Y-61283390D02*
X54461904Y-61331009D01*
X54461904Y-61331009D02*
X54366666Y-61378628D01*
X54366666Y-61378628D02*
X53985714Y-61378628D01*
X55509523Y-61854819D02*
X54938095Y-61854819D01*
X55223809Y-61854819D02*
X55223809Y-60854819D01*
X55223809Y-60854819D02*
X55128571Y-60997676D01*
X55128571Y-60997676D02*
X55033333Y-61092914D01*
X55033333Y-61092914D02*
X54938095Y-61140533D01*
X55842857Y-60854819D02*
X56461904Y-60854819D01*
X56461904Y-60854819D02*
X56128571Y-61235771D01*
X56128571Y-61235771D02*
X56271428Y-61235771D01*
X56271428Y-61235771D02*
X56366666Y-61283390D01*
X56366666Y-61283390D02*
X56414285Y-61331009D01*
X56414285Y-61331009D02*
X56461904Y-61426247D01*
X56461904Y-61426247D02*
X56461904Y-61664342D01*
X56461904Y-61664342D02*
X56414285Y-61759580D01*
X56414285Y-61759580D02*
X56366666Y-61807200D01*
X56366666Y-61807200D02*
X56271428Y-61854819D01*
X56271428Y-61854819D02*
X55985714Y-61854819D01*
X55985714Y-61854819D02*
X55890476Y-61807200D01*
X55890476Y-61807200D02*
X55842857Y-61759580D01*
X24807200Y-53808332D02*
X24854819Y-53665475D01*
X24854819Y-53665475D02*
X24854819Y-53427380D01*
X24854819Y-53427380D02*
X24807200Y-53332142D01*
X24807200Y-53332142D02*
X24759580Y-53284523D01*
X24759580Y-53284523D02*
X24664342Y-53236904D01*
X24664342Y-53236904D02*
X24569104Y-53236904D01*
X24569104Y-53236904D02*
X24473866Y-53284523D01*
X24473866Y-53284523D02*
X24426247Y-53332142D01*
X24426247Y-53332142D02*
X24378628Y-53427380D01*
X24378628Y-53427380D02*
X24331009Y-53617856D01*
X24331009Y-53617856D02*
X24283390Y-53713094D01*
X24283390Y-53713094D02*
X24235771Y-53760713D01*
X24235771Y-53760713D02*
X24140533Y-53808332D01*
X24140533Y-53808332D02*
X24045295Y-53808332D01*
X24045295Y-53808332D02*
X23950057Y-53760713D01*
X23950057Y-53760713D02*
X23902438Y-53713094D01*
X23902438Y-53713094D02*
X23854819Y-53617856D01*
X23854819Y-53617856D02*
X23854819Y-53379761D01*
X23854819Y-53379761D02*
X23902438Y-53236904D01*
X23854819Y-52903570D02*
X24854819Y-52665475D01*
X24854819Y-52665475D02*
X24140533Y-52474999D01*
X24140533Y-52474999D02*
X24854819Y-52284523D01*
X24854819Y-52284523D02*
X23854819Y-52046428D01*
X24854819Y-51141666D02*
X24854819Y-51713094D01*
X24854819Y-51427380D02*
X23854819Y-51427380D01*
X23854819Y-51427380D02*
X23997676Y-51522618D01*
X23997676Y-51522618D02*
X24092914Y-51617856D01*
X24092914Y-51617856D02*
X24140533Y-51713094D01*
X90244642Y-105454819D02*
X89911309Y-104978628D01*
X89673214Y-105454819D02*
X89673214Y-104454819D01*
X89673214Y-104454819D02*
X90054166Y-104454819D01*
X90054166Y-104454819D02*
X90149404Y-104502438D01*
X90149404Y-104502438D02*
X90197023Y-104550057D01*
X90197023Y-104550057D02*
X90244642Y-104645295D01*
X90244642Y-104645295D02*
X90244642Y-104788152D01*
X90244642Y-104788152D02*
X90197023Y-104883390D01*
X90197023Y-104883390D02*
X90149404Y-104931009D01*
X90149404Y-104931009D02*
X90054166Y-104978628D01*
X90054166Y-104978628D02*
X89673214Y-104978628D01*
X91197023Y-105454819D02*
X90625595Y-105454819D01*
X90911309Y-105454819D02*
X90911309Y-104454819D01*
X90911309Y-104454819D02*
X90816071Y-104597676D01*
X90816071Y-104597676D02*
X90720833Y-104692914D01*
X90720833Y-104692914D02*
X90625595Y-104740533D01*
X91673214Y-105454819D02*
X91863690Y-105454819D01*
X91863690Y-105454819D02*
X91958928Y-105407200D01*
X91958928Y-105407200D02*
X92006547Y-105359580D01*
X92006547Y-105359580D02*
X92101785Y-105216723D01*
X92101785Y-105216723D02*
X92149404Y-105026247D01*
X92149404Y-105026247D02*
X92149404Y-104645295D01*
X92149404Y-104645295D02*
X92101785Y-104550057D01*
X92101785Y-104550057D02*
X92054166Y-104502438D01*
X92054166Y-104502438D02*
X91958928Y-104454819D01*
X91958928Y-104454819D02*
X91768452Y-104454819D01*
X91768452Y-104454819D02*
X91673214Y-104502438D01*
X91673214Y-104502438D02*
X91625595Y-104550057D01*
X91625595Y-104550057D02*
X91577976Y-104645295D01*
X91577976Y-104645295D02*
X91577976Y-104883390D01*
X91577976Y-104883390D02*
X91625595Y-104978628D01*
X91625595Y-104978628D02*
X91673214Y-105026247D01*
X91673214Y-105026247D02*
X91768452Y-105073866D01*
X91768452Y-105073866D02*
X91958928Y-105073866D01*
X91958928Y-105073866D02*
X92054166Y-105026247D01*
X92054166Y-105026247D02*
X92101785Y-104978628D01*
X92101785Y-104978628D02*
X92149404Y-104883390D01*
X66004642Y-30509580D02*
X65957023Y-30557200D01*
X65957023Y-30557200D02*
X65814166Y-30604819D01*
X65814166Y-30604819D02*
X65718928Y-30604819D01*
X65718928Y-30604819D02*
X65576071Y-30557200D01*
X65576071Y-30557200D02*
X65480833Y-30461961D01*
X65480833Y-30461961D02*
X65433214Y-30366723D01*
X65433214Y-30366723D02*
X65385595Y-30176247D01*
X65385595Y-30176247D02*
X65385595Y-30033390D01*
X65385595Y-30033390D02*
X65433214Y-29842914D01*
X65433214Y-29842914D02*
X65480833Y-29747676D01*
X65480833Y-29747676D02*
X65576071Y-29652438D01*
X65576071Y-29652438D02*
X65718928Y-29604819D01*
X65718928Y-29604819D02*
X65814166Y-29604819D01*
X65814166Y-29604819D02*
X65957023Y-29652438D01*
X65957023Y-29652438D02*
X66004642Y-29700057D01*
X66957023Y-30604819D02*
X66385595Y-30604819D01*
X66671309Y-30604819D02*
X66671309Y-29604819D01*
X66671309Y-29604819D02*
X66576071Y-29747676D01*
X66576071Y-29747676D02*
X66480833Y-29842914D01*
X66480833Y-29842914D02*
X66385595Y-29890533D01*
X67337976Y-29700057D02*
X67385595Y-29652438D01*
X67385595Y-29652438D02*
X67480833Y-29604819D01*
X67480833Y-29604819D02*
X67718928Y-29604819D01*
X67718928Y-29604819D02*
X67814166Y-29652438D01*
X67814166Y-29652438D02*
X67861785Y-29700057D01*
X67861785Y-29700057D02*
X67909404Y-29795295D01*
X67909404Y-29795295D02*
X67909404Y-29890533D01*
X67909404Y-29890533D02*
X67861785Y-30033390D01*
X67861785Y-30033390D02*
X67290357Y-30604819D01*
X67290357Y-30604819D02*
X67909404Y-30604819D01*
X44882142Y-60594819D02*
X44548809Y-60118628D01*
X44310714Y-60594819D02*
X44310714Y-59594819D01*
X44310714Y-59594819D02*
X44691666Y-59594819D01*
X44691666Y-59594819D02*
X44786904Y-59642438D01*
X44786904Y-59642438D02*
X44834523Y-59690057D01*
X44834523Y-59690057D02*
X44882142Y-59785295D01*
X44882142Y-59785295D02*
X44882142Y-59928152D01*
X44882142Y-59928152D02*
X44834523Y-60023390D01*
X44834523Y-60023390D02*
X44786904Y-60071009D01*
X44786904Y-60071009D02*
X44691666Y-60118628D01*
X44691666Y-60118628D02*
X44310714Y-60118628D01*
X45834523Y-60594819D02*
X45263095Y-60594819D01*
X45548809Y-60594819D02*
X45548809Y-59594819D01*
X45548809Y-59594819D02*
X45453571Y-59737676D01*
X45453571Y-59737676D02*
X45358333Y-59832914D01*
X45358333Y-59832914D02*
X45263095Y-59880533D01*
X46691666Y-59928152D02*
X46691666Y-60594819D01*
X46453571Y-59547200D02*
X46215476Y-60261485D01*
X46215476Y-60261485D02*
X46834523Y-60261485D01*
X43557142Y-33359580D02*
X43509523Y-33407200D01*
X43509523Y-33407200D02*
X43366666Y-33454819D01*
X43366666Y-33454819D02*
X43271428Y-33454819D01*
X43271428Y-33454819D02*
X43128571Y-33407200D01*
X43128571Y-33407200D02*
X43033333Y-33311961D01*
X43033333Y-33311961D02*
X42985714Y-33216723D01*
X42985714Y-33216723D02*
X42938095Y-33026247D01*
X42938095Y-33026247D02*
X42938095Y-32883390D01*
X42938095Y-32883390D02*
X42985714Y-32692914D01*
X42985714Y-32692914D02*
X43033333Y-32597676D01*
X43033333Y-32597676D02*
X43128571Y-32502438D01*
X43128571Y-32502438D02*
X43271428Y-32454819D01*
X43271428Y-32454819D02*
X43366666Y-32454819D01*
X43366666Y-32454819D02*
X43509523Y-32502438D01*
X43509523Y-32502438D02*
X43557142Y-32550057D01*
X43938095Y-32550057D02*
X43985714Y-32502438D01*
X43985714Y-32502438D02*
X44080952Y-32454819D01*
X44080952Y-32454819D02*
X44319047Y-32454819D01*
X44319047Y-32454819D02*
X44414285Y-32502438D01*
X44414285Y-32502438D02*
X44461904Y-32550057D01*
X44461904Y-32550057D02*
X44509523Y-32645295D01*
X44509523Y-32645295D02*
X44509523Y-32740533D01*
X44509523Y-32740533D02*
X44461904Y-32883390D01*
X44461904Y-32883390D02*
X43890476Y-33454819D01*
X43890476Y-33454819D02*
X44509523Y-33454819D01*
X45414285Y-32454819D02*
X44938095Y-32454819D01*
X44938095Y-32454819D02*
X44890476Y-32931009D01*
X44890476Y-32931009D02*
X44938095Y-32883390D01*
X44938095Y-32883390D02*
X45033333Y-32835771D01*
X45033333Y-32835771D02*
X45271428Y-32835771D01*
X45271428Y-32835771D02*
X45366666Y-32883390D01*
X45366666Y-32883390D02*
X45414285Y-32931009D01*
X45414285Y-32931009D02*
X45461904Y-33026247D01*
X45461904Y-33026247D02*
X45461904Y-33264342D01*
X45461904Y-33264342D02*
X45414285Y-33359580D01*
X45414285Y-33359580D02*
X45366666Y-33407200D01*
X45366666Y-33407200D02*
X45271428Y-33454819D01*
X45271428Y-33454819D02*
X45033333Y-33454819D01*
X45033333Y-33454819D02*
X44938095Y-33407200D01*
X44938095Y-33407200D02*
X44890476Y-33359580D01*
X35066666Y-48254819D02*
X35066666Y-48969104D01*
X35066666Y-48969104D02*
X35019047Y-49111961D01*
X35019047Y-49111961D02*
X34923809Y-49207200D01*
X34923809Y-49207200D02*
X34780952Y-49254819D01*
X34780952Y-49254819D02*
X34685714Y-49254819D01*
X35447619Y-48254819D02*
X36066666Y-48254819D01*
X36066666Y-48254819D02*
X35733333Y-48635771D01*
X35733333Y-48635771D02*
X35876190Y-48635771D01*
X35876190Y-48635771D02*
X35971428Y-48683390D01*
X35971428Y-48683390D02*
X36019047Y-48731009D01*
X36019047Y-48731009D02*
X36066666Y-48826247D01*
X36066666Y-48826247D02*
X36066666Y-49064342D01*
X36066666Y-49064342D02*
X36019047Y-49159580D01*
X36019047Y-49159580D02*
X35971428Y-49207200D01*
X35971428Y-49207200D02*
X35876190Y-49254819D01*
X35876190Y-49254819D02*
X35590476Y-49254819D01*
X35590476Y-49254819D02*
X35495238Y-49207200D01*
X35495238Y-49207200D02*
X35447619Y-49159580D01*
X57633333Y-87254819D02*
X57300000Y-86778628D01*
X57061905Y-87254819D02*
X57061905Y-86254819D01*
X57061905Y-86254819D02*
X57442857Y-86254819D01*
X57442857Y-86254819D02*
X57538095Y-86302438D01*
X57538095Y-86302438D02*
X57585714Y-86350057D01*
X57585714Y-86350057D02*
X57633333Y-86445295D01*
X57633333Y-86445295D02*
X57633333Y-86588152D01*
X57633333Y-86588152D02*
X57585714Y-86683390D01*
X57585714Y-86683390D02*
X57538095Y-86731009D01*
X57538095Y-86731009D02*
X57442857Y-86778628D01*
X57442857Y-86778628D02*
X57061905Y-86778628D01*
X58490476Y-86588152D02*
X58490476Y-87254819D01*
X58252381Y-86207200D02*
X58014286Y-86921485D01*
X58014286Y-86921485D02*
X58633333Y-86921485D01*
X96166666Y-92854819D02*
X96166666Y-93569104D01*
X96166666Y-93569104D02*
X96119047Y-93711961D01*
X96119047Y-93711961D02*
X96023809Y-93807200D01*
X96023809Y-93807200D02*
X95880952Y-93854819D01*
X95880952Y-93854819D02*
X95785714Y-93854819D01*
X96642857Y-93854819D02*
X96642857Y-92854819D01*
X96642857Y-92854819D02*
X97023809Y-92854819D01*
X97023809Y-92854819D02*
X97119047Y-92902438D01*
X97119047Y-92902438D02*
X97166666Y-92950057D01*
X97166666Y-92950057D02*
X97214285Y-93045295D01*
X97214285Y-93045295D02*
X97214285Y-93188152D01*
X97214285Y-93188152D02*
X97166666Y-93283390D01*
X97166666Y-93283390D02*
X97119047Y-93331009D01*
X97119047Y-93331009D02*
X97023809Y-93378628D01*
X97023809Y-93378628D02*
X96642857Y-93378628D01*
X98166666Y-93854819D02*
X97595238Y-93854819D01*
X97880952Y-93854819D02*
X97880952Y-92854819D01*
X97880952Y-92854819D02*
X97785714Y-92997676D01*
X97785714Y-92997676D02*
X97690476Y-93092914D01*
X97690476Y-93092914D02*
X97595238Y-93140533D01*
X59430833Y-36109580D02*
X59383214Y-36157200D01*
X59383214Y-36157200D02*
X59240357Y-36204819D01*
X59240357Y-36204819D02*
X59145119Y-36204819D01*
X59145119Y-36204819D02*
X59002262Y-36157200D01*
X59002262Y-36157200D02*
X58907024Y-36061961D01*
X58907024Y-36061961D02*
X58859405Y-35966723D01*
X58859405Y-35966723D02*
X58811786Y-35776247D01*
X58811786Y-35776247D02*
X58811786Y-35633390D01*
X58811786Y-35633390D02*
X58859405Y-35442914D01*
X58859405Y-35442914D02*
X58907024Y-35347676D01*
X58907024Y-35347676D02*
X59002262Y-35252438D01*
X59002262Y-35252438D02*
X59145119Y-35204819D01*
X59145119Y-35204819D02*
X59240357Y-35204819D01*
X59240357Y-35204819D02*
X59383214Y-35252438D01*
X59383214Y-35252438D02*
X59430833Y-35300057D01*
X59764167Y-35204819D02*
X60430833Y-35204819D01*
X60430833Y-35204819D02*
X60002262Y-36204819D01*
X92861905Y-108854819D02*
X92861905Y-107854819D01*
X92861905Y-107854819D02*
X93100000Y-107854819D01*
X93100000Y-107854819D02*
X93242857Y-107902438D01*
X93242857Y-107902438D02*
X93338095Y-107997676D01*
X93338095Y-107997676D02*
X93385714Y-108092914D01*
X93385714Y-108092914D02*
X93433333Y-108283390D01*
X93433333Y-108283390D02*
X93433333Y-108426247D01*
X93433333Y-108426247D02*
X93385714Y-108616723D01*
X93385714Y-108616723D02*
X93338095Y-108711961D01*
X93338095Y-108711961D02*
X93242857Y-108807200D01*
X93242857Y-108807200D02*
X93100000Y-108854819D01*
X93100000Y-108854819D02*
X92861905Y-108854819D01*
X94290476Y-108188152D02*
X94290476Y-108854819D01*
X94052381Y-107807200D02*
X93814286Y-108521485D01*
X93814286Y-108521485D02*
X94433333Y-108521485D01*
X51830833Y-43459580D02*
X51783214Y-43507200D01*
X51783214Y-43507200D02*
X51640357Y-43554819D01*
X51640357Y-43554819D02*
X51545119Y-43554819D01*
X51545119Y-43554819D02*
X51402262Y-43507200D01*
X51402262Y-43507200D02*
X51307024Y-43411961D01*
X51307024Y-43411961D02*
X51259405Y-43316723D01*
X51259405Y-43316723D02*
X51211786Y-43126247D01*
X51211786Y-43126247D02*
X51211786Y-42983390D01*
X51211786Y-42983390D02*
X51259405Y-42792914D01*
X51259405Y-42792914D02*
X51307024Y-42697676D01*
X51307024Y-42697676D02*
X51402262Y-42602438D01*
X51402262Y-42602438D02*
X51545119Y-42554819D01*
X51545119Y-42554819D02*
X51640357Y-42554819D01*
X51640357Y-42554819D02*
X51783214Y-42602438D01*
X51783214Y-42602438D02*
X51830833Y-42650057D01*
X52211786Y-42650057D02*
X52259405Y-42602438D01*
X52259405Y-42602438D02*
X52354643Y-42554819D01*
X52354643Y-42554819D02*
X52592738Y-42554819D01*
X52592738Y-42554819D02*
X52687976Y-42602438D01*
X52687976Y-42602438D02*
X52735595Y-42650057D01*
X52735595Y-42650057D02*
X52783214Y-42745295D01*
X52783214Y-42745295D02*
X52783214Y-42840533D01*
X52783214Y-42840533D02*
X52735595Y-42983390D01*
X52735595Y-42983390D02*
X52164167Y-43554819D01*
X52164167Y-43554819D02*
X52783214Y-43554819D01*
X20488095Y-108244819D02*
X20488095Y-109054342D01*
X20488095Y-109054342D02*
X20535714Y-109149580D01*
X20535714Y-109149580D02*
X20583333Y-109197200D01*
X20583333Y-109197200D02*
X20678571Y-109244819D01*
X20678571Y-109244819D02*
X20869047Y-109244819D01*
X20869047Y-109244819D02*
X20964285Y-109197200D01*
X20964285Y-109197200D02*
X21011904Y-109149580D01*
X21011904Y-109149580D02*
X21059523Y-109054342D01*
X21059523Y-109054342D02*
X21059523Y-108244819D01*
X21440476Y-108244819D02*
X22107142Y-108244819D01*
X22107142Y-108244819D02*
X21678571Y-109244819D01*
X33666667Y-119407200D02*
X33809524Y-119454819D01*
X33809524Y-119454819D02*
X34047619Y-119454819D01*
X34047619Y-119454819D02*
X34142857Y-119407200D01*
X34142857Y-119407200D02*
X34190476Y-119359580D01*
X34190476Y-119359580D02*
X34238095Y-119264342D01*
X34238095Y-119264342D02*
X34238095Y-119169104D01*
X34238095Y-119169104D02*
X34190476Y-119073866D01*
X34190476Y-119073866D02*
X34142857Y-119026247D01*
X34142857Y-119026247D02*
X34047619Y-118978628D01*
X34047619Y-118978628D02*
X33857143Y-118931009D01*
X33857143Y-118931009D02*
X33761905Y-118883390D01*
X33761905Y-118883390D02*
X33714286Y-118835771D01*
X33714286Y-118835771D02*
X33666667Y-118740533D01*
X33666667Y-118740533D02*
X33666667Y-118645295D01*
X33666667Y-118645295D02*
X33714286Y-118550057D01*
X33714286Y-118550057D02*
X33761905Y-118502438D01*
X33761905Y-118502438D02*
X33857143Y-118454819D01*
X33857143Y-118454819D02*
X34095238Y-118454819D01*
X34095238Y-118454819D02*
X34238095Y-118502438D01*
X34571429Y-118454819D02*
X34809524Y-119454819D01*
X34809524Y-119454819D02*
X35000000Y-118740533D01*
X35000000Y-118740533D02*
X35190476Y-119454819D01*
X35190476Y-119454819D02*
X35428572Y-118454819D01*
X35761905Y-118550057D02*
X35809524Y-118502438D01*
X35809524Y-118502438D02*
X35904762Y-118454819D01*
X35904762Y-118454819D02*
X36142857Y-118454819D01*
X36142857Y-118454819D02*
X36238095Y-118502438D01*
X36238095Y-118502438D02*
X36285714Y-118550057D01*
X36285714Y-118550057D02*
X36333333Y-118645295D01*
X36333333Y-118645295D02*
X36333333Y-118740533D01*
X36333333Y-118740533D02*
X36285714Y-118883390D01*
X36285714Y-118883390D02*
X35714286Y-119454819D01*
X35714286Y-119454819D02*
X36333333Y-119454819D01*
X53885595Y-50104819D02*
X53885595Y-50914342D01*
X53885595Y-50914342D02*
X53933214Y-51009580D01*
X53933214Y-51009580D02*
X53980833Y-51057200D01*
X53980833Y-51057200D02*
X54076071Y-51104819D01*
X54076071Y-51104819D02*
X54266547Y-51104819D01*
X54266547Y-51104819D02*
X54361785Y-51057200D01*
X54361785Y-51057200D02*
X54409404Y-51009580D01*
X54409404Y-51009580D02*
X54457023Y-50914342D01*
X54457023Y-50914342D02*
X54457023Y-50104819D01*
X55409404Y-50104819D02*
X54933214Y-50104819D01*
X54933214Y-50104819D02*
X54885595Y-50581009D01*
X54885595Y-50581009D02*
X54933214Y-50533390D01*
X54933214Y-50533390D02*
X55028452Y-50485771D01*
X55028452Y-50485771D02*
X55266547Y-50485771D01*
X55266547Y-50485771D02*
X55361785Y-50533390D01*
X55361785Y-50533390D02*
X55409404Y-50581009D01*
X55409404Y-50581009D02*
X55457023Y-50676247D01*
X55457023Y-50676247D02*
X55457023Y-50914342D01*
X55457023Y-50914342D02*
X55409404Y-51009580D01*
X55409404Y-51009580D02*
X55361785Y-51057200D01*
X55361785Y-51057200D02*
X55266547Y-51104819D01*
X55266547Y-51104819D02*
X55028452Y-51104819D01*
X55028452Y-51104819D02*
X54933214Y-51057200D01*
X54933214Y-51057200D02*
X54885595Y-51009580D01*
X89066666Y-52454819D02*
X89066666Y-53169104D01*
X89066666Y-53169104D02*
X89019047Y-53311961D01*
X89019047Y-53311961D02*
X88923809Y-53407200D01*
X88923809Y-53407200D02*
X88780952Y-53454819D01*
X88780952Y-53454819D02*
X88685714Y-53454819D01*
X89495238Y-52550057D02*
X89542857Y-52502438D01*
X89542857Y-52502438D02*
X89638095Y-52454819D01*
X89638095Y-52454819D02*
X89876190Y-52454819D01*
X89876190Y-52454819D02*
X89971428Y-52502438D01*
X89971428Y-52502438D02*
X90019047Y-52550057D01*
X90019047Y-52550057D02*
X90066666Y-52645295D01*
X90066666Y-52645295D02*
X90066666Y-52740533D01*
X90066666Y-52740533D02*
X90019047Y-52883390D01*
X90019047Y-52883390D02*
X89447619Y-53454819D01*
X89447619Y-53454819D02*
X90066666Y-53454819D01*
X61421309Y-24128628D02*
X61421309Y-24604819D01*
X61087976Y-23604819D02*
X61421309Y-24128628D01*
X61421309Y-24128628D02*
X61754642Y-23604819D01*
X62611785Y-24604819D02*
X62040357Y-24604819D01*
X62326071Y-24604819D02*
X62326071Y-23604819D01*
X62326071Y-23604819D02*
X62230833Y-23747676D01*
X62230833Y-23747676D02*
X62135595Y-23842914D01*
X62135595Y-23842914D02*
X62040357Y-23890533D01*
X54582142Y-60604819D02*
X54248809Y-60128628D01*
X54010714Y-60604819D02*
X54010714Y-59604819D01*
X54010714Y-59604819D02*
X54391666Y-59604819D01*
X54391666Y-59604819D02*
X54486904Y-59652438D01*
X54486904Y-59652438D02*
X54534523Y-59700057D01*
X54534523Y-59700057D02*
X54582142Y-59795295D01*
X54582142Y-59795295D02*
X54582142Y-59938152D01*
X54582142Y-59938152D02*
X54534523Y-60033390D01*
X54534523Y-60033390D02*
X54486904Y-60081009D01*
X54486904Y-60081009D02*
X54391666Y-60128628D01*
X54391666Y-60128628D02*
X54010714Y-60128628D01*
X55534523Y-60604819D02*
X54963095Y-60604819D01*
X55248809Y-60604819D02*
X55248809Y-59604819D01*
X55248809Y-59604819D02*
X55153571Y-59747676D01*
X55153571Y-59747676D02*
X55058333Y-59842914D01*
X55058333Y-59842914D02*
X54963095Y-59890533D01*
X55867857Y-59604819D02*
X56534523Y-59604819D01*
X56534523Y-59604819D02*
X56105952Y-60604819D01*
X51307142Y-61854819D02*
X50973809Y-61378628D01*
X50735714Y-61854819D02*
X50735714Y-60854819D01*
X50735714Y-60854819D02*
X51116666Y-60854819D01*
X51116666Y-60854819D02*
X51211904Y-60902438D01*
X51211904Y-60902438D02*
X51259523Y-60950057D01*
X51259523Y-60950057D02*
X51307142Y-61045295D01*
X51307142Y-61045295D02*
X51307142Y-61188152D01*
X51307142Y-61188152D02*
X51259523Y-61283390D01*
X51259523Y-61283390D02*
X51211904Y-61331009D01*
X51211904Y-61331009D02*
X51116666Y-61378628D01*
X51116666Y-61378628D02*
X50735714Y-61378628D01*
X52259523Y-61854819D02*
X51688095Y-61854819D01*
X51973809Y-61854819D02*
X51973809Y-60854819D01*
X51973809Y-60854819D02*
X51878571Y-60997676D01*
X51878571Y-60997676D02*
X51783333Y-61092914D01*
X51783333Y-61092914D02*
X51688095Y-61140533D01*
X52640476Y-60950057D02*
X52688095Y-60902438D01*
X52688095Y-60902438D02*
X52783333Y-60854819D01*
X52783333Y-60854819D02*
X53021428Y-60854819D01*
X53021428Y-60854819D02*
X53116666Y-60902438D01*
X53116666Y-60902438D02*
X53164285Y-60950057D01*
X53164285Y-60950057D02*
X53211904Y-61045295D01*
X53211904Y-61045295D02*
X53211904Y-61140533D01*
X53211904Y-61140533D02*
X53164285Y-61283390D01*
X53164285Y-61283390D02*
X52592857Y-61854819D01*
X52592857Y-61854819D02*
X53211904Y-61854819D01*
X100774405Y-108854819D02*
X100774405Y-107854819D01*
X100774405Y-107854819D02*
X101012500Y-107854819D01*
X101012500Y-107854819D02*
X101155357Y-107902438D01*
X101155357Y-107902438D02*
X101250595Y-107997676D01*
X101250595Y-107997676D02*
X101298214Y-108092914D01*
X101298214Y-108092914D02*
X101345833Y-108283390D01*
X101345833Y-108283390D02*
X101345833Y-108426247D01*
X101345833Y-108426247D02*
X101298214Y-108616723D01*
X101298214Y-108616723D02*
X101250595Y-108711961D01*
X101250595Y-108711961D02*
X101155357Y-108807200D01*
X101155357Y-108807200D02*
X101012500Y-108854819D01*
X101012500Y-108854819D02*
X100774405Y-108854819D01*
X102202976Y-107854819D02*
X102012500Y-107854819D01*
X102012500Y-107854819D02*
X101917262Y-107902438D01*
X101917262Y-107902438D02*
X101869643Y-107950057D01*
X101869643Y-107950057D02*
X101774405Y-108092914D01*
X101774405Y-108092914D02*
X101726786Y-108283390D01*
X101726786Y-108283390D02*
X101726786Y-108664342D01*
X101726786Y-108664342D02*
X101774405Y-108759580D01*
X101774405Y-108759580D02*
X101822024Y-108807200D01*
X101822024Y-108807200D02*
X101917262Y-108854819D01*
X101917262Y-108854819D02*
X102107738Y-108854819D01*
X102107738Y-108854819D02*
X102202976Y-108807200D01*
X102202976Y-108807200D02*
X102250595Y-108759580D01*
X102250595Y-108759580D02*
X102298214Y-108664342D01*
X102298214Y-108664342D02*
X102298214Y-108426247D01*
X102298214Y-108426247D02*
X102250595Y-108331009D01*
X102250595Y-108331009D02*
X102202976Y-108283390D01*
X102202976Y-108283390D02*
X102107738Y-108235771D01*
X102107738Y-108235771D02*
X101917262Y-108235771D01*
X101917262Y-108235771D02*
X101822024Y-108283390D01*
X101822024Y-108283390D02*
X101774405Y-108331009D01*
X101774405Y-108331009D02*
X101726786Y-108426247D01*
X34647080Y-30092857D02*
X34694700Y-30140476D01*
X34694700Y-30140476D02*
X34742319Y-30283333D01*
X34742319Y-30283333D02*
X34742319Y-30378571D01*
X34742319Y-30378571D02*
X34694700Y-30521428D01*
X34694700Y-30521428D02*
X34599461Y-30616666D01*
X34599461Y-30616666D02*
X34504223Y-30664285D01*
X34504223Y-30664285D02*
X34313747Y-30711904D01*
X34313747Y-30711904D02*
X34170890Y-30711904D01*
X34170890Y-30711904D02*
X33980414Y-30664285D01*
X33980414Y-30664285D02*
X33885176Y-30616666D01*
X33885176Y-30616666D02*
X33789938Y-30521428D01*
X33789938Y-30521428D02*
X33742319Y-30378571D01*
X33742319Y-30378571D02*
X33742319Y-30283333D01*
X33742319Y-30283333D02*
X33789938Y-30140476D01*
X33789938Y-30140476D02*
X33837557Y-30092857D01*
X33837557Y-29711904D02*
X33789938Y-29664285D01*
X33789938Y-29664285D02*
X33742319Y-29569047D01*
X33742319Y-29569047D02*
X33742319Y-29330952D01*
X33742319Y-29330952D02*
X33789938Y-29235714D01*
X33789938Y-29235714D02*
X33837557Y-29188095D01*
X33837557Y-29188095D02*
X33932795Y-29140476D01*
X33932795Y-29140476D02*
X34028033Y-29140476D01*
X34028033Y-29140476D02*
X34170890Y-29188095D01*
X34170890Y-29188095D02*
X34742319Y-29759523D01*
X34742319Y-29759523D02*
X34742319Y-29140476D01*
X34075652Y-28283333D02*
X34742319Y-28283333D01*
X33694700Y-28521428D02*
X34408985Y-28759523D01*
X34408985Y-28759523D02*
X34408985Y-28140476D01*
X80861905Y-109054819D02*
X80861905Y-108054819D01*
X80861905Y-108054819D02*
X81100000Y-108054819D01*
X81100000Y-108054819D02*
X81242857Y-108102438D01*
X81242857Y-108102438D02*
X81338095Y-108197676D01*
X81338095Y-108197676D02*
X81385714Y-108292914D01*
X81385714Y-108292914D02*
X81433333Y-108483390D01*
X81433333Y-108483390D02*
X81433333Y-108626247D01*
X81433333Y-108626247D02*
X81385714Y-108816723D01*
X81385714Y-108816723D02*
X81338095Y-108911961D01*
X81338095Y-108911961D02*
X81242857Y-109007200D01*
X81242857Y-109007200D02*
X81100000Y-109054819D01*
X81100000Y-109054819D02*
X80861905Y-109054819D01*
X82385714Y-109054819D02*
X81814286Y-109054819D01*
X82100000Y-109054819D02*
X82100000Y-108054819D01*
X82100000Y-108054819D02*
X82004762Y-108197676D01*
X82004762Y-108197676D02*
X81909524Y-108292914D01*
X81909524Y-108292914D02*
X81814286Y-108340533D01*
X88661905Y-109054819D02*
X88661905Y-108054819D01*
X88661905Y-108054819D02*
X88900000Y-108054819D01*
X88900000Y-108054819D02*
X89042857Y-108102438D01*
X89042857Y-108102438D02*
X89138095Y-108197676D01*
X89138095Y-108197676D02*
X89185714Y-108292914D01*
X89185714Y-108292914D02*
X89233333Y-108483390D01*
X89233333Y-108483390D02*
X89233333Y-108626247D01*
X89233333Y-108626247D02*
X89185714Y-108816723D01*
X89185714Y-108816723D02*
X89138095Y-108911961D01*
X89138095Y-108911961D02*
X89042857Y-109007200D01*
X89042857Y-109007200D02*
X88900000Y-109054819D01*
X88900000Y-109054819D02*
X88661905Y-109054819D01*
X89566667Y-108054819D02*
X90185714Y-108054819D01*
X90185714Y-108054819D02*
X89852381Y-108435771D01*
X89852381Y-108435771D02*
X89995238Y-108435771D01*
X89995238Y-108435771D02*
X90090476Y-108483390D01*
X90090476Y-108483390D02*
X90138095Y-108531009D01*
X90138095Y-108531009D02*
X90185714Y-108626247D01*
X90185714Y-108626247D02*
X90185714Y-108864342D01*
X90185714Y-108864342D02*
X90138095Y-108959580D01*
X90138095Y-108959580D02*
X90090476Y-109007200D01*
X90090476Y-109007200D02*
X89995238Y-109054819D01*
X89995238Y-109054819D02*
X89709524Y-109054819D01*
X89709524Y-109054819D02*
X89614286Y-109007200D01*
X89614286Y-109007200D02*
X89566667Y-108959580D01*
X44882142Y-61844819D02*
X44548809Y-61368628D01*
X44310714Y-61844819D02*
X44310714Y-60844819D01*
X44310714Y-60844819D02*
X44691666Y-60844819D01*
X44691666Y-60844819D02*
X44786904Y-60892438D01*
X44786904Y-60892438D02*
X44834523Y-60940057D01*
X44834523Y-60940057D02*
X44882142Y-61035295D01*
X44882142Y-61035295D02*
X44882142Y-61178152D01*
X44882142Y-61178152D02*
X44834523Y-61273390D01*
X44834523Y-61273390D02*
X44786904Y-61321009D01*
X44786904Y-61321009D02*
X44691666Y-61368628D01*
X44691666Y-61368628D02*
X44310714Y-61368628D01*
X45834523Y-61844819D02*
X45263095Y-61844819D01*
X45548809Y-61844819D02*
X45548809Y-60844819D01*
X45548809Y-60844819D02*
X45453571Y-60987676D01*
X45453571Y-60987676D02*
X45358333Y-61082914D01*
X45358333Y-61082914D02*
X45263095Y-61130533D01*
X46453571Y-60844819D02*
X46548809Y-60844819D01*
X46548809Y-60844819D02*
X46644047Y-60892438D01*
X46644047Y-60892438D02*
X46691666Y-60940057D01*
X46691666Y-60940057D02*
X46739285Y-61035295D01*
X46739285Y-61035295D02*
X46786904Y-61225771D01*
X46786904Y-61225771D02*
X46786904Y-61463866D01*
X46786904Y-61463866D02*
X46739285Y-61654342D01*
X46739285Y-61654342D02*
X46691666Y-61749580D01*
X46691666Y-61749580D02*
X46644047Y-61797200D01*
X46644047Y-61797200D02*
X46548809Y-61844819D01*
X46548809Y-61844819D02*
X46453571Y-61844819D01*
X46453571Y-61844819D02*
X46358333Y-61797200D01*
X46358333Y-61797200D02*
X46310714Y-61749580D01*
X46310714Y-61749580D02*
X46263095Y-61654342D01*
X46263095Y-61654342D02*
X46215476Y-61463866D01*
X46215476Y-61463866D02*
X46215476Y-61225771D01*
X46215476Y-61225771D02*
X46263095Y-61035295D01*
X46263095Y-61035295D02*
X46310714Y-60940057D01*
X46310714Y-60940057D02*
X46358333Y-60892438D01*
X46358333Y-60892438D02*
X46453571Y-60844819D01*
X58359580Y-84042857D02*
X58407200Y-84090476D01*
X58407200Y-84090476D02*
X58454819Y-84233333D01*
X58454819Y-84233333D02*
X58454819Y-84328571D01*
X58454819Y-84328571D02*
X58407200Y-84471428D01*
X58407200Y-84471428D02*
X58311961Y-84566666D01*
X58311961Y-84566666D02*
X58216723Y-84614285D01*
X58216723Y-84614285D02*
X58026247Y-84661904D01*
X58026247Y-84661904D02*
X57883390Y-84661904D01*
X57883390Y-84661904D02*
X57692914Y-84614285D01*
X57692914Y-84614285D02*
X57597676Y-84566666D01*
X57597676Y-84566666D02*
X57502438Y-84471428D01*
X57502438Y-84471428D02*
X57454819Y-84328571D01*
X57454819Y-84328571D02*
X57454819Y-84233333D01*
X57454819Y-84233333D02*
X57502438Y-84090476D01*
X57502438Y-84090476D02*
X57550057Y-84042857D01*
X58454819Y-83090476D02*
X58454819Y-83661904D01*
X58454819Y-83376190D02*
X57454819Y-83376190D01*
X57454819Y-83376190D02*
X57597676Y-83471428D01*
X57597676Y-83471428D02*
X57692914Y-83566666D01*
X57692914Y-83566666D02*
X57740533Y-83661904D01*
X57454819Y-82185714D02*
X57454819Y-82661904D01*
X57454819Y-82661904D02*
X57931009Y-82709523D01*
X57931009Y-82709523D02*
X57883390Y-82661904D01*
X57883390Y-82661904D02*
X57835771Y-82566666D01*
X57835771Y-82566666D02*
X57835771Y-82328571D01*
X57835771Y-82328571D02*
X57883390Y-82233333D01*
X57883390Y-82233333D02*
X57931009Y-82185714D01*
X57931009Y-82185714D02*
X58026247Y-82138095D01*
X58026247Y-82138095D02*
X58264342Y-82138095D01*
X58264342Y-82138095D02*
X58359580Y-82185714D01*
X58359580Y-82185714D02*
X58407200Y-82233333D01*
X58407200Y-82233333D02*
X58454819Y-82328571D01*
X58454819Y-82328571D02*
X58454819Y-82566666D01*
X58454819Y-82566666D02*
X58407200Y-82661904D01*
X58407200Y-82661904D02*
X58359580Y-82709523D01*
X56504642Y-30509580D02*
X56457023Y-30557200D01*
X56457023Y-30557200D02*
X56314166Y-30604819D01*
X56314166Y-30604819D02*
X56218928Y-30604819D01*
X56218928Y-30604819D02*
X56076071Y-30557200D01*
X56076071Y-30557200D02*
X55980833Y-30461961D01*
X55980833Y-30461961D02*
X55933214Y-30366723D01*
X55933214Y-30366723D02*
X55885595Y-30176247D01*
X55885595Y-30176247D02*
X55885595Y-30033390D01*
X55885595Y-30033390D02*
X55933214Y-29842914D01*
X55933214Y-29842914D02*
X55980833Y-29747676D01*
X55980833Y-29747676D02*
X56076071Y-29652438D01*
X56076071Y-29652438D02*
X56218928Y-29604819D01*
X56218928Y-29604819D02*
X56314166Y-29604819D01*
X56314166Y-29604819D02*
X56457023Y-29652438D01*
X56457023Y-29652438D02*
X56504642Y-29700057D01*
X57457023Y-30604819D02*
X56885595Y-30604819D01*
X57171309Y-30604819D02*
X57171309Y-29604819D01*
X57171309Y-29604819D02*
X57076071Y-29747676D01*
X57076071Y-29747676D02*
X56980833Y-29842914D01*
X56980833Y-29842914D02*
X56885595Y-29890533D01*
X57790357Y-29604819D02*
X58409404Y-29604819D01*
X58409404Y-29604819D02*
X58076071Y-29985771D01*
X58076071Y-29985771D02*
X58218928Y-29985771D01*
X58218928Y-29985771D02*
X58314166Y-30033390D01*
X58314166Y-30033390D02*
X58361785Y-30081009D01*
X58361785Y-30081009D02*
X58409404Y-30176247D01*
X58409404Y-30176247D02*
X58409404Y-30414342D01*
X58409404Y-30414342D02*
X58361785Y-30509580D01*
X58361785Y-30509580D02*
X58314166Y-30557200D01*
X58314166Y-30557200D02*
X58218928Y-30604819D01*
X58218928Y-30604819D02*
X57933214Y-30604819D01*
X57933214Y-30604819D02*
X57837976Y-30557200D01*
X57837976Y-30557200D02*
X57790357Y-30509580D01*
X51307142Y-60604819D02*
X50973809Y-60128628D01*
X50735714Y-60604819D02*
X50735714Y-59604819D01*
X50735714Y-59604819D02*
X51116666Y-59604819D01*
X51116666Y-59604819D02*
X51211904Y-59652438D01*
X51211904Y-59652438D02*
X51259523Y-59700057D01*
X51259523Y-59700057D02*
X51307142Y-59795295D01*
X51307142Y-59795295D02*
X51307142Y-59938152D01*
X51307142Y-59938152D02*
X51259523Y-60033390D01*
X51259523Y-60033390D02*
X51211904Y-60081009D01*
X51211904Y-60081009D02*
X51116666Y-60128628D01*
X51116666Y-60128628D02*
X50735714Y-60128628D01*
X52259523Y-60604819D02*
X51688095Y-60604819D01*
X51973809Y-60604819D02*
X51973809Y-59604819D01*
X51973809Y-59604819D02*
X51878571Y-59747676D01*
X51878571Y-59747676D02*
X51783333Y-59842914D01*
X51783333Y-59842914D02*
X51688095Y-59890533D01*
X53116666Y-59604819D02*
X52926190Y-59604819D01*
X52926190Y-59604819D02*
X52830952Y-59652438D01*
X52830952Y-59652438D02*
X52783333Y-59700057D01*
X52783333Y-59700057D02*
X52688095Y-59842914D01*
X52688095Y-59842914D02*
X52640476Y-60033390D01*
X52640476Y-60033390D02*
X52640476Y-60414342D01*
X52640476Y-60414342D02*
X52688095Y-60509580D01*
X52688095Y-60509580D02*
X52735714Y-60557200D01*
X52735714Y-60557200D02*
X52830952Y-60604819D01*
X52830952Y-60604819D02*
X53021428Y-60604819D01*
X53021428Y-60604819D02*
X53116666Y-60557200D01*
X53116666Y-60557200D02*
X53164285Y-60509580D01*
X53164285Y-60509580D02*
X53211904Y-60414342D01*
X53211904Y-60414342D02*
X53211904Y-60176247D01*
X53211904Y-60176247D02*
X53164285Y-60081009D01*
X53164285Y-60081009D02*
X53116666Y-60033390D01*
X53116666Y-60033390D02*
X53021428Y-59985771D01*
X53021428Y-59985771D02*
X52830952Y-59985771D01*
X52830952Y-59985771D02*
X52735714Y-60033390D01*
X52735714Y-60033390D02*
X52688095Y-60081009D01*
X52688095Y-60081009D02*
X52640476Y-60176247D01*
X36247080Y-29992857D02*
X36294700Y-30040476D01*
X36294700Y-30040476D02*
X36342319Y-30183333D01*
X36342319Y-30183333D02*
X36342319Y-30278571D01*
X36342319Y-30278571D02*
X36294700Y-30421428D01*
X36294700Y-30421428D02*
X36199461Y-30516666D01*
X36199461Y-30516666D02*
X36104223Y-30564285D01*
X36104223Y-30564285D02*
X35913747Y-30611904D01*
X35913747Y-30611904D02*
X35770890Y-30611904D01*
X35770890Y-30611904D02*
X35580414Y-30564285D01*
X35580414Y-30564285D02*
X35485176Y-30516666D01*
X35485176Y-30516666D02*
X35389938Y-30421428D01*
X35389938Y-30421428D02*
X35342319Y-30278571D01*
X35342319Y-30278571D02*
X35342319Y-30183333D01*
X35342319Y-30183333D02*
X35389938Y-30040476D01*
X35389938Y-30040476D02*
X35437557Y-29992857D01*
X35437557Y-29611904D02*
X35389938Y-29564285D01*
X35389938Y-29564285D02*
X35342319Y-29469047D01*
X35342319Y-29469047D02*
X35342319Y-29230952D01*
X35342319Y-29230952D02*
X35389938Y-29135714D01*
X35389938Y-29135714D02*
X35437557Y-29088095D01*
X35437557Y-29088095D02*
X35532795Y-29040476D01*
X35532795Y-29040476D02*
X35628033Y-29040476D01*
X35628033Y-29040476D02*
X35770890Y-29088095D01*
X35770890Y-29088095D02*
X36342319Y-29659523D01*
X36342319Y-29659523D02*
X36342319Y-29040476D01*
X35342319Y-28707142D02*
X35342319Y-28088095D01*
X35342319Y-28088095D02*
X35723271Y-28421428D01*
X35723271Y-28421428D02*
X35723271Y-28278571D01*
X35723271Y-28278571D02*
X35770890Y-28183333D01*
X35770890Y-28183333D02*
X35818509Y-28135714D01*
X35818509Y-28135714D02*
X35913747Y-28088095D01*
X35913747Y-28088095D02*
X36151842Y-28088095D01*
X36151842Y-28088095D02*
X36247080Y-28135714D01*
X36247080Y-28135714D02*
X36294700Y-28183333D01*
X36294700Y-28183333D02*
X36342319Y-28278571D01*
X36342319Y-28278571D02*
X36342319Y-28564285D01*
X36342319Y-28564285D02*
X36294700Y-28659523D01*
X36294700Y-28659523D02*
X36247080Y-28707142D01*
X60543333Y-96104819D02*
X60210000Y-95628628D01*
X59971905Y-96104819D02*
X59971905Y-95104819D01*
X59971905Y-95104819D02*
X60352857Y-95104819D01*
X60352857Y-95104819D02*
X60448095Y-95152438D01*
X60448095Y-95152438D02*
X60495714Y-95200057D01*
X60495714Y-95200057D02*
X60543333Y-95295295D01*
X60543333Y-95295295D02*
X60543333Y-95438152D01*
X60543333Y-95438152D02*
X60495714Y-95533390D01*
X60495714Y-95533390D02*
X60448095Y-95581009D01*
X60448095Y-95581009D02*
X60352857Y-95628628D01*
X60352857Y-95628628D02*
X59971905Y-95628628D01*
X60924286Y-95200057D02*
X60971905Y-95152438D01*
X60971905Y-95152438D02*
X61067143Y-95104819D01*
X61067143Y-95104819D02*
X61305238Y-95104819D01*
X61305238Y-95104819D02*
X61400476Y-95152438D01*
X61400476Y-95152438D02*
X61448095Y-95200057D01*
X61448095Y-95200057D02*
X61495714Y-95295295D01*
X61495714Y-95295295D02*
X61495714Y-95390533D01*
X61495714Y-95390533D02*
X61448095Y-95533390D01*
X61448095Y-95533390D02*
X60876667Y-96104819D01*
X60876667Y-96104819D02*
X61495714Y-96104819D01*
X67880833Y-43909580D02*
X67833214Y-43957200D01*
X67833214Y-43957200D02*
X67690357Y-44004819D01*
X67690357Y-44004819D02*
X67595119Y-44004819D01*
X67595119Y-44004819D02*
X67452262Y-43957200D01*
X67452262Y-43957200D02*
X67357024Y-43861961D01*
X67357024Y-43861961D02*
X67309405Y-43766723D01*
X67309405Y-43766723D02*
X67261786Y-43576247D01*
X67261786Y-43576247D02*
X67261786Y-43433390D01*
X67261786Y-43433390D02*
X67309405Y-43242914D01*
X67309405Y-43242914D02*
X67357024Y-43147676D01*
X67357024Y-43147676D02*
X67452262Y-43052438D01*
X67452262Y-43052438D02*
X67595119Y-43004819D01*
X67595119Y-43004819D02*
X67690357Y-43004819D01*
X67690357Y-43004819D02*
X67833214Y-43052438D01*
X67833214Y-43052438D02*
X67880833Y-43100057D01*
X68214167Y-43004819D02*
X68833214Y-43004819D01*
X68833214Y-43004819D02*
X68499881Y-43385771D01*
X68499881Y-43385771D02*
X68642738Y-43385771D01*
X68642738Y-43385771D02*
X68737976Y-43433390D01*
X68737976Y-43433390D02*
X68785595Y-43481009D01*
X68785595Y-43481009D02*
X68833214Y-43576247D01*
X68833214Y-43576247D02*
X68833214Y-43814342D01*
X68833214Y-43814342D02*
X68785595Y-43909580D01*
X68785595Y-43909580D02*
X68737976Y-43957200D01*
X68737976Y-43957200D02*
X68642738Y-44004819D01*
X68642738Y-44004819D02*
X68357024Y-44004819D01*
X68357024Y-44004819D02*
X68261786Y-43957200D01*
X68261786Y-43957200D02*
X68214167Y-43909580D01*
X92266666Y-44254819D02*
X92266666Y-44969104D01*
X92266666Y-44969104D02*
X92219047Y-45111961D01*
X92219047Y-45111961D02*
X92123809Y-45207200D01*
X92123809Y-45207200D02*
X91980952Y-45254819D01*
X91980952Y-45254819D02*
X91885714Y-45254819D01*
X92742857Y-45254819D02*
X92742857Y-44254819D01*
X92742857Y-44254819D02*
X93123809Y-44254819D01*
X93123809Y-44254819D02*
X93219047Y-44302438D01*
X93219047Y-44302438D02*
X93266666Y-44350057D01*
X93266666Y-44350057D02*
X93314285Y-44445295D01*
X93314285Y-44445295D02*
X93314285Y-44588152D01*
X93314285Y-44588152D02*
X93266666Y-44683390D01*
X93266666Y-44683390D02*
X93219047Y-44731009D01*
X93219047Y-44731009D02*
X93123809Y-44778628D01*
X93123809Y-44778628D02*
X92742857Y-44778628D01*
X93695238Y-44350057D02*
X93742857Y-44302438D01*
X93742857Y-44302438D02*
X93838095Y-44254819D01*
X93838095Y-44254819D02*
X94076190Y-44254819D01*
X94076190Y-44254819D02*
X94171428Y-44302438D01*
X94171428Y-44302438D02*
X94219047Y-44350057D01*
X94219047Y-44350057D02*
X94266666Y-44445295D01*
X94266666Y-44445295D02*
X94266666Y-44540533D01*
X94266666Y-44540533D02*
X94219047Y-44683390D01*
X94219047Y-44683390D02*
X93647619Y-45254819D01*
X93647619Y-45254819D02*
X94266666Y-45254819D01*
X72504642Y-35009580D02*
X72457023Y-35057200D01*
X72457023Y-35057200D02*
X72314166Y-35104819D01*
X72314166Y-35104819D02*
X72218928Y-35104819D01*
X72218928Y-35104819D02*
X72076071Y-35057200D01*
X72076071Y-35057200D02*
X71980833Y-34961961D01*
X71980833Y-34961961D02*
X71933214Y-34866723D01*
X71933214Y-34866723D02*
X71885595Y-34676247D01*
X71885595Y-34676247D02*
X71885595Y-34533390D01*
X71885595Y-34533390D02*
X71933214Y-34342914D01*
X71933214Y-34342914D02*
X71980833Y-34247676D01*
X71980833Y-34247676D02*
X72076071Y-34152438D01*
X72076071Y-34152438D02*
X72218928Y-34104819D01*
X72218928Y-34104819D02*
X72314166Y-34104819D01*
X72314166Y-34104819D02*
X72457023Y-34152438D01*
X72457023Y-34152438D02*
X72504642Y-34200057D01*
X73457023Y-35104819D02*
X72885595Y-35104819D01*
X73171309Y-35104819D02*
X73171309Y-34104819D01*
X73171309Y-34104819D02*
X73076071Y-34247676D01*
X73076071Y-34247676D02*
X72980833Y-34342914D01*
X72980833Y-34342914D02*
X72885595Y-34390533D01*
X73790357Y-34104819D02*
X74457023Y-34104819D01*
X74457023Y-34104819D02*
X74028452Y-35104819D01*
X108998155Y-108854819D02*
X108998155Y-107854819D01*
X108998155Y-107854819D02*
X109236250Y-107854819D01*
X109236250Y-107854819D02*
X109379107Y-107902438D01*
X109379107Y-107902438D02*
X109474345Y-107997676D01*
X109474345Y-107997676D02*
X109521964Y-108092914D01*
X109521964Y-108092914D02*
X109569583Y-108283390D01*
X109569583Y-108283390D02*
X109569583Y-108426247D01*
X109569583Y-108426247D02*
X109521964Y-108616723D01*
X109521964Y-108616723D02*
X109474345Y-108711961D01*
X109474345Y-108711961D02*
X109379107Y-108807200D01*
X109379107Y-108807200D02*
X109236250Y-108854819D01*
X109236250Y-108854819D02*
X108998155Y-108854819D01*
X110141012Y-108283390D02*
X110045774Y-108235771D01*
X110045774Y-108235771D02*
X109998155Y-108188152D01*
X109998155Y-108188152D02*
X109950536Y-108092914D01*
X109950536Y-108092914D02*
X109950536Y-108045295D01*
X109950536Y-108045295D02*
X109998155Y-107950057D01*
X109998155Y-107950057D02*
X110045774Y-107902438D01*
X110045774Y-107902438D02*
X110141012Y-107854819D01*
X110141012Y-107854819D02*
X110331488Y-107854819D01*
X110331488Y-107854819D02*
X110426726Y-107902438D01*
X110426726Y-107902438D02*
X110474345Y-107950057D01*
X110474345Y-107950057D02*
X110521964Y-108045295D01*
X110521964Y-108045295D02*
X110521964Y-108092914D01*
X110521964Y-108092914D02*
X110474345Y-108188152D01*
X110474345Y-108188152D02*
X110426726Y-108235771D01*
X110426726Y-108235771D02*
X110331488Y-108283390D01*
X110331488Y-108283390D02*
X110141012Y-108283390D01*
X110141012Y-108283390D02*
X110045774Y-108331009D01*
X110045774Y-108331009D02*
X109998155Y-108378628D01*
X109998155Y-108378628D02*
X109950536Y-108473866D01*
X109950536Y-108473866D02*
X109950536Y-108664342D01*
X109950536Y-108664342D02*
X109998155Y-108759580D01*
X109998155Y-108759580D02*
X110045774Y-108807200D01*
X110045774Y-108807200D02*
X110141012Y-108854819D01*
X110141012Y-108854819D02*
X110331488Y-108854819D01*
X110331488Y-108854819D02*
X110426726Y-108807200D01*
X110426726Y-108807200D02*
X110474345Y-108759580D01*
X110474345Y-108759580D02*
X110521964Y-108664342D01*
X110521964Y-108664342D02*
X110521964Y-108473866D01*
X110521964Y-108473866D02*
X110474345Y-108378628D01*
X110474345Y-108378628D02*
X110426726Y-108331009D01*
X110426726Y-108331009D02*
X110331488Y-108283390D01*
X65691666Y-71979819D02*
X65691666Y-72694104D01*
X65691666Y-72694104D02*
X65644047Y-72836961D01*
X65644047Y-72836961D02*
X65548809Y-72932200D01*
X65548809Y-72932200D02*
X65405952Y-72979819D01*
X65405952Y-72979819D02*
X65310714Y-72979819D01*
X66644047Y-71979819D02*
X66167857Y-71979819D01*
X66167857Y-71979819D02*
X66120238Y-72456009D01*
X66120238Y-72456009D02*
X66167857Y-72408390D01*
X66167857Y-72408390D02*
X66263095Y-72360771D01*
X66263095Y-72360771D02*
X66501190Y-72360771D01*
X66501190Y-72360771D02*
X66596428Y-72408390D01*
X66596428Y-72408390D02*
X66644047Y-72456009D01*
X66644047Y-72456009D02*
X66691666Y-72551247D01*
X66691666Y-72551247D02*
X66691666Y-72789342D01*
X66691666Y-72789342D02*
X66644047Y-72884580D01*
X66644047Y-72884580D02*
X66596428Y-72932200D01*
X66596428Y-72932200D02*
X66501190Y-72979819D01*
X66501190Y-72979819D02*
X66263095Y-72979819D01*
X66263095Y-72979819D02*
X66167857Y-72932200D01*
X66167857Y-72932200D02*
X66120238Y-72884580D01*
X44807142Y-59249580D02*
X44759523Y-59297200D01*
X44759523Y-59297200D02*
X44616666Y-59344819D01*
X44616666Y-59344819D02*
X44521428Y-59344819D01*
X44521428Y-59344819D02*
X44378571Y-59297200D01*
X44378571Y-59297200D02*
X44283333Y-59201961D01*
X44283333Y-59201961D02*
X44235714Y-59106723D01*
X44235714Y-59106723D02*
X44188095Y-58916247D01*
X44188095Y-58916247D02*
X44188095Y-58773390D01*
X44188095Y-58773390D02*
X44235714Y-58582914D01*
X44235714Y-58582914D02*
X44283333Y-58487676D01*
X44283333Y-58487676D02*
X44378571Y-58392438D01*
X44378571Y-58392438D02*
X44521428Y-58344819D01*
X44521428Y-58344819D02*
X44616666Y-58344819D01*
X44616666Y-58344819D02*
X44759523Y-58392438D01*
X44759523Y-58392438D02*
X44807142Y-58440057D01*
X45759523Y-59344819D02*
X45188095Y-59344819D01*
X45473809Y-59344819D02*
X45473809Y-58344819D01*
X45473809Y-58344819D02*
X45378571Y-58487676D01*
X45378571Y-58487676D02*
X45283333Y-58582914D01*
X45283333Y-58582914D02*
X45188095Y-58630533D01*
X46330952Y-58773390D02*
X46235714Y-58725771D01*
X46235714Y-58725771D02*
X46188095Y-58678152D01*
X46188095Y-58678152D02*
X46140476Y-58582914D01*
X46140476Y-58582914D02*
X46140476Y-58535295D01*
X46140476Y-58535295D02*
X46188095Y-58440057D01*
X46188095Y-58440057D02*
X46235714Y-58392438D01*
X46235714Y-58392438D02*
X46330952Y-58344819D01*
X46330952Y-58344819D02*
X46521428Y-58344819D01*
X46521428Y-58344819D02*
X46616666Y-58392438D01*
X46616666Y-58392438D02*
X46664285Y-58440057D01*
X46664285Y-58440057D02*
X46711904Y-58535295D01*
X46711904Y-58535295D02*
X46711904Y-58582914D01*
X46711904Y-58582914D02*
X46664285Y-58678152D01*
X46664285Y-58678152D02*
X46616666Y-58725771D01*
X46616666Y-58725771D02*
X46521428Y-58773390D01*
X46521428Y-58773390D02*
X46330952Y-58773390D01*
X46330952Y-58773390D02*
X46235714Y-58821009D01*
X46235714Y-58821009D02*
X46188095Y-58868628D01*
X46188095Y-58868628D02*
X46140476Y-58963866D01*
X46140476Y-58963866D02*
X46140476Y-59154342D01*
X46140476Y-59154342D02*
X46188095Y-59249580D01*
X46188095Y-59249580D02*
X46235714Y-59297200D01*
X46235714Y-59297200D02*
X46330952Y-59344819D01*
X46330952Y-59344819D02*
X46521428Y-59344819D01*
X46521428Y-59344819D02*
X46616666Y-59297200D01*
X46616666Y-59297200D02*
X46664285Y-59249580D01*
X46664285Y-59249580D02*
X46711904Y-59154342D01*
X46711904Y-59154342D02*
X46711904Y-58963866D01*
X46711904Y-58963866D02*
X46664285Y-58868628D01*
X46664285Y-58868628D02*
X46616666Y-58821009D01*
X46616666Y-58821009D02*
X46521428Y-58773390D01*
X54582142Y-59259580D02*
X54534523Y-59307200D01*
X54534523Y-59307200D02*
X54391666Y-59354819D01*
X54391666Y-59354819D02*
X54296428Y-59354819D01*
X54296428Y-59354819D02*
X54153571Y-59307200D01*
X54153571Y-59307200D02*
X54058333Y-59211961D01*
X54058333Y-59211961D02*
X54010714Y-59116723D01*
X54010714Y-59116723D02*
X53963095Y-58926247D01*
X53963095Y-58926247D02*
X53963095Y-58783390D01*
X53963095Y-58783390D02*
X54010714Y-58592914D01*
X54010714Y-58592914D02*
X54058333Y-58497676D01*
X54058333Y-58497676D02*
X54153571Y-58402438D01*
X54153571Y-58402438D02*
X54296428Y-58354819D01*
X54296428Y-58354819D02*
X54391666Y-58354819D01*
X54391666Y-58354819D02*
X54534523Y-58402438D01*
X54534523Y-58402438D02*
X54582142Y-58450057D01*
X54963095Y-58450057D02*
X55010714Y-58402438D01*
X55010714Y-58402438D02*
X55105952Y-58354819D01*
X55105952Y-58354819D02*
X55344047Y-58354819D01*
X55344047Y-58354819D02*
X55439285Y-58402438D01*
X55439285Y-58402438D02*
X55486904Y-58450057D01*
X55486904Y-58450057D02*
X55534523Y-58545295D01*
X55534523Y-58545295D02*
X55534523Y-58640533D01*
X55534523Y-58640533D02*
X55486904Y-58783390D01*
X55486904Y-58783390D02*
X54915476Y-59354819D01*
X54915476Y-59354819D02*
X55534523Y-59354819D01*
X56486904Y-59354819D02*
X55915476Y-59354819D01*
X56201190Y-59354819D02*
X56201190Y-58354819D01*
X56201190Y-58354819D02*
X56105952Y-58497676D01*
X56105952Y-58497676D02*
X56010714Y-58592914D01*
X56010714Y-58592914D02*
X55915476Y-58640533D01*
X48157142Y-61844819D02*
X47823809Y-61368628D01*
X47585714Y-61844819D02*
X47585714Y-60844819D01*
X47585714Y-60844819D02*
X47966666Y-60844819D01*
X47966666Y-60844819D02*
X48061904Y-60892438D01*
X48061904Y-60892438D02*
X48109523Y-60940057D01*
X48109523Y-60940057D02*
X48157142Y-61035295D01*
X48157142Y-61035295D02*
X48157142Y-61178152D01*
X48157142Y-61178152D02*
X48109523Y-61273390D01*
X48109523Y-61273390D02*
X48061904Y-61321009D01*
X48061904Y-61321009D02*
X47966666Y-61368628D01*
X47966666Y-61368628D02*
X47585714Y-61368628D01*
X49109523Y-61844819D02*
X48538095Y-61844819D01*
X48823809Y-61844819D02*
X48823809Y-60844819D01*
X48823809Y-60844819D02*
X48728571Y-60987676D01*
X48728571Y-60987676D02*
X48633333Y-61082914D01*
X48633333Y-61082914D02*
X48538095Y-61130533D01*
X50061904Y-61844819D02*
X49490476Y-61844819D01*
X49776190Y-61844819D02*
X49776190Y-60844819D01*
X49776190Y-60844819D02*
X49680952Y-60987676D01*
X49680952Y-60987676D02*
X49585714Y-61082914D01*
X49585714Y-61082914D02*
X49490476Y-61130533D01*
X106580892Y-105454819D02*
X106247559Y-104978628D01*
X106009464Y-105454819D02*
X106009464Y-104454819D01*
X106009464Y-104454819D02*
X106390416Y-104454819D01*
X106390416Y-104454819D02*
X106485654Y-104502438D01*
X106485654Y-104502438D02*
X106533273Y-104550057D01*
X106533273Y-104550057D02*
X106580892Y-104645295D01*
X106580892Y-104645295D02*
X106580892Y-104788152D01*
X106580892Y-104788152D02*
X106533273Y-104883390D01*
X106533273Y-104883390D02*
X106485654Y-104931009D01*
X106485654Y-104931009D02*
X106390416Y-104978628D01*
X106390416Y-104978628D02*
X106009464Y-104978628D01*
X106961845Y-104550057D02*
X107009464Y-104502438D01*
X107009464Y-104502438D02*
X107104702Y-104454819D01*
X107104702Y-104454819D02*
X107342797Y-104454819D01*
X107342797Y-104454819D02*
X107438035Y-104502438D01*
X107438035Y-104502438D02*
X107485654Y-104550057D01*
X107485654Y-104550057D02*
X107533273Y-104645295D01*
X107533273Y-104645295D02*
X107533273Y-104740533D01*
X107533273Y-104740533D02*
X107485654Y-104883390D01*
X107485654Y-104883390D02*
X106914226Y-105454819D01*
X106914226Y-105454819D02*
X107533273Y-105454819D01*
X108485654Y-105454819D02*
X107914226Y-105454819D01*
X108199940Y-105454819D02*
X108199940Y-104454819D01*
X108199940Y-104454819D02*
X108104702Y-104597676D01*
X108104702Y-104597676D02*
X108009464Y-104692914D01*
X108009464Y-104692914D02*
X107914226Y-104740533D01*
X58308333Y-78054819D02*
X57975000Y-77578628D01*
X57736905Y-78054819D02*
X57736905Y-77054819D01*
X57736905Y-77054819D02*
X58117857Y-77054819D01*
X58117857Y-77054819D02*
X58213095Y-77102438D01*
X58213095Y-77102438D02*
X58260714Y-77150057D01*
X58260714Y-77150057D02*
X58308333Y-77245295D01*
X58308333Y-77245295D02*
X58308333Y-77388152D01*
X58308333Y-77388152D02*
X58260714Y-77483390D01*
X58260714Y-77483390D02*
X58213095Y-77531009D01*
X58213095Y-77531009D02*
X58117857Y-77578628D01*
X58117857Y-77578628D02*
X57736905Y-77578628D01*
X59165476Y-77054819D02*
X58975000Y-77054819D01*
X58975000Y-77054819D02*
X58879762Y-77102438D01*
X58879762Y-77102438D02*
X58832143Y-77150057D01*
X58832143Y-77150057D02*
X58736905Y-77292914D01*
X58736905Y-77292914D02*
X58689286Y-77483390D01*
X58689286Y-77483390D02*
X58689286Y-77864342D01*
X58689286Y-77864342D02*
X58736905Y-77959580D01*
X58736905Y-77959580D02*
X58784524Y-78007200D01*
X58784524Y-78007200D02*
X58879762Y-78054819D01*
X58879762Y-78054819D02*
X59070238Y-78054819D01*
X59070238Y-78054819D02*
X59165476Y-78007200D01*
X59165476Y-78007200D02*
X59213095Y-77959580D01*
X59213095Y-77959580D02*
X59260714Y-77864342D01*
X59260714Y-77864342D02*
X59260714Y-77626247D01*
X59260714Y-77626247D02*
X59213095Y-77531009D01*
X59213095Y-77531009D02*
X59165476Y-77483390D01*
X59165476Y-77483390D02*
X59070238Y-77435771D01*
X59070238Y-77435771D02*
X58879762Y-77435771D01*
X58879762Y-77435771D02*
X58784524Y-77483390D01*
X58784524Y-77483390D02*
X58736905Y-77531009D01*
X58736905Y-77531009D02*
X58689286Y-77626247D01*
X72504642Y-37009580D02*
X72457023Y-37057200D01*
X72457023Y-37057200D02*
X72314166Y-37104819D01*
X72314166Y-37104819D02*
X72218928Y-37104819D01*
X72218928Y-37104819D02*
X72076071Y-37057200D01*
X72076071Y-37057200D02*
X71980833Y-36961961D01*
X71980833Y-36961961D02*
X71933214Y-36866723D01*
X71933214Y-36866723D02*
X71885595Y-36676247D01*
X71885595Y-36676247D02*
X71885595Y-36533390D01*
X71885595Y-36533390D02*
X71933214Y-36342914D01*
X71933214Y-36342914D02*
X71980833Y-36247676D01*
X71980833Y-36247676D02*
X72076071Y-36152438D01*
X72076071Y-36152438D02*
X72218928Y-36104819D01*
X72218928Y-36104819D02*
X72314166Y-36104819D01*
X72314166Y-36104819D02*
X72457023Y-36152438D01*
X72457023Y-36152438D02*
X72504642Y-36200057D01*
X73457023Y-37104819D02*
X72885595Y-37104819D01*
X73171309Y-37104819D02*
X73171309Y-36104819D01*
X73171309Y-36104819D02*
X73076071Y-36247676D01*
X73076071Y-36247676D02*
X72980833Y-36342914D01*
X72980833Y-36342914D02*
X72885595Y-36390533D01*
X74314166Y-36104819D02*
X74123690Y-36104819D01*
X74123690Y-36104819D02*
X74028452Y-36152438D01*
X74028452Y-36152438D02*
X73980833Y-36200057D01*
X73980833Y-36200057D02*
X73885595Y-36342914D01*
X73885595Y-36342914D02*
X73837976Y-36533390D01*
X73837976Y-36533390D02*
X73837976Y-36914342D01*
X73837976Y-36914342D02*
X73885595Y-37009580D01*
X73885595Y-37009580D02*
X73933214Y-37057200D01*
X73933214Y-37057200D02*
X74028452Y-37104819D01*
X74028452Y-37104819D02*
X74218928Y-37104819D01*
X74218928Y-37104819D02*
X74314166Y-37057200D01*
X74314166Y-37057200D02*
X74361785Y-37009580D01*
X74361785Y-37009580D02*
X74409404Y-36914342D01*
X74409404Y-36914342D02*
X74409404Y-36676247D01*
X74409404Y-36676247D02*
X74361785Y-36581009D01*
X74361785Y-36581009D02*
X74314166Y-36533390D01*
X74314166Y-36533390D02*
X74218928Y-36485771D01*
X74218928Y-36485771D02*
X74028452Y-36485771D01*
X74028452Y-36485771D02*
X73933214Y-36533390D01*
X73933214Y-36533390D02*
X73885595Y-36581009D01*
X73885595Y-36581009D02*
X73837976Y-36676247D01*
X58220833Y-80054819D02*
X57887500Y-79578628D01*
X57649405Y-80054819D02*
X57649405Y-79054819D01*
X57649405Y-79054819D02*
X58030357Y-79054819D01*
X58030357Y-79054819D02*
X58125595Y-79102438D01*
X58125595Y-79102438D02*
X58173214Y-79150057D01*
X58173214Y-79150057D02*
X58220833Y-79245295D01*
X58220833Y-79245295D02*
X58220833Y-79388152D01*
X58220833Y-79388152D02*
X58173214Y-79483390D01*
X58173214Y-79483390D02*
X58125595Y-79531009D01*
X58125595Y-79531009D02*
X58030357Y-79578628D01*
X58030357Y-79578628D02*
X57649405Y-79578628D01*
X59125595Y-79054819D02*
X58649405Y-79054819D01*
X58649405Y-79054819D02*
X58601786Y-79531009D01*
X58601786Y-79531009D02*
X58649405Y-79483390D01*
X58649405Y-79483390D02*
X58744643Y-79435771D01*
X58744643Y-79435771D02*
X58982738Y-79435771D01*
X58982738Y-79435771D02*
X59077976Y-79483390D01*
X59077976Y-79483390D02*
X59125595Y-79531009D01*
X59125595Y-79531009D02*
X59173214Y-79626247D01*
X59173214Y-79626247D02*
X59173214Y-79864342D01*
X59173214Y-79864342D02*
X59125595Y-79959580D01*
X59125595Y-79959580D02*
X59077976Y-80007200D01*
X59077976Y-80007200D02*
X58982738Y-80054819D01*
X58982738Y-80054819D02*
X58744643Y-80054819D01*
X58744643Y-80054819D02*
X58649405Y-80007200D01*
X58649405Y-80007200D02*
X58601786Y-79959580D01*
X57666667Y-119407200D02*
X57809524Y-119454819D01*
X57809524Y-119454819D02*
X58047619Y-119454819D01*
X58047619Y-119454819D02*
X58142857Y-119407200D01*
X58142857Y-119407200D02*
X58190476Y-119359580D01*
X58190476Y-119359580D02*
X58238095Y-119264342D01*
X58238095Y-119264342D02*
X58238095Y-119169104D01*
X58238095Y-119169104D02*
X58190476Y-119073866D01*
X58190476Y-119073866D02*
X58142857Y-119026247D01*
X58142857Y-119026247D02*
X58047619Y-118978628D01*
X58047619Y-118978628D02*
X57857143Y-118931009D01*
X57857143Y-118931009D02*
X57761905Y-118883390D01*
X57761905Y-118883390D02*
X57714286Y-118835771D01*
X57714286Y-118835771D02*
X57666667Y-118740533D01*
X57666667Y-118740533D02*
X57666667Y-118645295D01*
X57666667Y-118645295D02*
X57714286Y-118550057D01*
X57714286Y-118550057D02*
X57761905Y-118502438D01*
X57761905Y-118502438D02*
X57857143Y-118454819D01*
X57857143Y-118454819D02*
X58095238Y-118454819D01*
X58095238Y-118454819D02*
X58238095Y-118502438D01*
X58571429Y-118454819D02*
X58809524Y-119454819D01*
X58809524Y-119454819D02*
X59000000Y-118740533D01*
X59000000Y-118740533D02*
X59190476Y-119454819D01*
X59190476Y-119454819D02*
X59428572Y-118454819D01*
X60238095Y-118788152D02*
X60238095Y-119454819D01*
X60000000Y-118407200D02*
X59761905Y-119121485D01*
X59761905Y-119121485D02*
X60380952Y-119121485D01*
X51132142Y-59259580D02*
X51084523Y-59307200D01*
X51084523Y-59307200D02*
X50941666Y-59354819D01*
X50941666Y-59354819D02*
X50846428Y-59354819D01*
X50846428Y-59354819D02*
X50703571Y-59307200D01*
X50703571Y-59307200D02*
X50608333Y-59211961D01*
X50608333Y-59211961D02*
X50560714Y-59116723D01*
X50560714Y-59116723D02*
X50513095Y-58926247D01*
X50513095Y-58926247D02*
X50513095Y-58783390D01*
X50513095Y-58783390D02*
X50560714Y-58592914D01*
X50560714Y-58592914D02*
X50608333Y-58497676D01*
X50608333Y-58497676D02*
X50703571Y-58402438D01*
X50703571Y-58402438D02*
X50846428Y-58354819D01*
X50846428Y-58354819D02*
X50941666Y-58354819D01*
X50941666Y-58354819D02*
X51084523Y-58402438D01*
X51084523Y-58402438D02*
X51132142Y-58450057D01*
X51513095Y-58450057D02*
X51560714Y-58402438D01*
X51560714Y-58402438D02*
X51655952Y-58354819D01*
X51655952Y-58354819D02*
X51894047Y-58354819D01*
X51894047Y-58354819D02*
X51989285Y-58402438D01*
X51989285Y-58402438D02*
X52036904Y-58450057D01*
X52036904Y-58450057D02*
X52084523Y-58545295D01*
X52084523Y-58545295D02*
X52084523Y-58640533D01*
X52084523Y-58640533D02*
X52036904Y-58783390D01*
X52036904Y-58783390D02*
X51465476Y-59354819D01*
X51465476Y-59354819D02*
X52084523Y-59354819D01*
X52703571Y-58354819D02*
X52798809Y-58354819D01*
X52798809Y-58354819D02*
X52894047Y-58402438D01*
X52894047Y-58402438D02*
X52941666Y-58450057D01*
X52941666Y-58450057D02*
X52989285Y-58545295D01*
X52989285Y-58545295D02*
X53036904Y-58735771D01*
X53036904Y-58735771D02*
X53036904Y-58973866D01*
X53036904Y-58973866D02*
X52989285Y-59164342D01*
X52989285Y-59164342D02*
X52941666Y-59259580D01*
X52941666Y-59259580D02*
X52894047Y-59307200D01*
X52894047Y-59307200D02*
X52798809Y-59354819D01*
X52798809Y-59354819D02*
X52703571Y-59354819D01*
X52703571Y-59354819D02*
X52608333Y-59307200D01*
X52608333Y-59307200D02*
X52560714Y-59259580D01*
X52560714Y-59259580D02*
X52513095Y-59164342D01*
X52513095Y-59164342D02*
X52465476Y-58973866D01*
X52465476Y-58973866D02*
X52465476Y-58735771D01*
X52465476Y-58735771D02*
X52513095Y-58545295D01*
X52513095Y-58545295D02*
X52560714Y-58450057D01*
X52560714Y-58450057D02*
X52608333Y-58402438D01*
X52608333Y-58402438D02*
X52703571Y-58354819D01*
X82154642Y-27559580D02*
X82107023Y-27607200D01*
X82107023Y-27607200D02*
X81964166Y-27654819D01*
X81964166Y-27654819D02*
X81868928Y-27654819D01*
X81868928Y-27654819D02*
X81726071Y-27607200D01*
X81726071Y-27607200D02*
X81630833Y-27511961D01*
X81630833Y-27511961D02*
X81583214Y-27416723D01*
X81583214Y-27416723D02*
X81535595Y-27226247D01*
X81535595Y-27226247D02*
X81535595Y-27083390D01*
X81535595Y-27083390D02*
X81583214Y-26892914D01*
X81583214Y-26892914D02*
X81630833Y-26797676D01*
X81630833Y-26797676D02*
X81726071Y-26702438D01*
X81726071Y-26702438D02*
X81868928Y-26654819D01*
X81868928Y-26654819D02*
X81964166Y-26654819D01*
X81964166Y-26654819D02*
X82107023Y-26702438D01*
X82107023Y-26702438D02*
X82154642Y-26750057D01*
X83107023Y-27654819D02*
X82535595Y-27654819D01*
X82821309Y-27654819D02*
X82821309Y-26654819D01*
X82821309Y-26654819D02*
X82726071Y-26797676D01*
X82726071Y-26797676D02*
X82630833Y-26892914D01*
X82630833Y-26892914D02*
X82535595Y-26940533D01*
X83726071Y-26654819D02*
X83821309Y-26654819D01*
X83821309Y-26654819D02*
X83916547Y-26702438D01*
X83916547Y-26702438D02*
X83964166Y-26750057D01*
X83964166Y-26750057D02*
X84011785Y-26845295D01*
X84011785Y-26845295D02*
X84059404Y-27035771D01*
X84059404Y-27035771D02*
X84059404Y-27273866D01*
X84059404Y-27273866D02*
X84011785Y-27464342D01*
X84011785Y-27464342D02*
X83964166Y-27559580D01*
X83964166Y-27559580D02*
X83916547Y-27607200D01*
X83916547Y-27607200D02*
X83821309Y-27654819D01*
X83821309Y-27654819D02*
X83726071Y-27654819D01*
X83726071Y-27654819D02*
X83630833Y-27607200D01*
X83630833Y-27607200D02*
X83583214Y-27559580D01*
X83583214Y-27559580D02*
X83535595Y-27464342D01*
X83535595Y-27464342D02*
X83487976Y-27273866D01*
X83487976Y-27273866D02*
X83487976Y-27035771D01*
X83487976Y-27035771D02*
X83535595Y-26845295D01*
X83535595Y-26845295D02*
X83583214Y-26750057D01*
X83583214Y-26750057D02*
X83630833Y-26702438D01*
X83630833Y-26702438D02*
X83726071Y-26654819D01*
X53430833Y-32404819D02*
X52954643Y-32404819D01*
X52954643Y-32404819D02*
X52954643Y-31404819D01*
X54287976Y-32404819D02*
X53716548Y-32404819D01*
X54002262Y-32404819D02*
X54002262Y-31404819D01*
X54002262Y-31404819D02*
X53907024Y-31547676D01*
X53907024Y-31547676D02*
X53811786Y-31642914D01*
X53811786Y-31642914D02*
X53716548Y-31690533D01*
X57504761Y-92750057D02*
X57409523Y-92702438D01*
X57409523Y-92702438D02*
X57314285Y-92607200D01*
X57314285Y-92607200D02*
X57171428Y-92464342D01*
X57171428Y-92464342D02*
X57076190Y-92416723D01*
X57076190Y-92416723D02*
X56980952Y-92416723D01*
X57028571Y-92654819D02*
X56933333Y-92607200D01*
X56933333Y-92607200D02*
X56838095Y-92511961D01*
X56838095Y-92511961D02*
X56790476Y-92321485D01*
X56790476Y-92321485D02*
X56790476Y-91988152D01*
X56790476Y-91988152D02*
X56838095Y-91797676D01*
X56838095Y-91797676D02*
X56933333Y-91702438D01*
X56933333Y-91702438D02*
X57028571Y-91654819D01*
X57028571Y-91654819D02*
X57219047Y-91654819D01*
X57219047Y-91654819D02*
X57314285Y-91702438D01*
X57314285Y-91702438D02*
X57409523Y-91797676D01*
X57409523Y-91797676D02*
X57457142Y-91988152D01*
X57457142Y-91988152D02*
X57457142Y-92321485D01*
X57457142Y-92321485D02*
X57409523Y-92511961D01*
X57409523Y-92511961D02*
X57314285Y-92607200D01*
X57314285Y-92607200D02*
X57219047Y-92654819D01*
X57219047Y-92654819D02*
X57028571Y-92654819D01*
X58409523Y-92654819D02*
X57838095Y-92654819D01*
X58123809Y-92654819D02*
X58123809Y-91654819D01*
X58123809Y-91654819D02*
X58028571Y-91797676D01*
X58028571Y-91797676D02*
X57933333Y-91892914D01*
X57933333Y-91892914D02*
X57838095Y-91940533D01*
X49980833Y-49009580D02*
X49933214Y-49057200D01*
X49933214Y-49057200D02*
X49790357Y-49104819D01*
X49790357Y-49104819D02*
X49695119Y-49104819D01*
X49695119Y-49104819D02*
X49552262Y-49057200D01*
X49552262Y-49057200D02*
X49457024Y-48961961D01*
X49457024Y-48961961D02*
X49409405Y-48866723D01*
X49409405Y-48866723D02*
X49361786Y-48676247D01*
X49361786Y-48676247D02*
X49361786Y-48533390D01*
X49361786Y-48533390D02*
X49409405Y-48342914D01*
X49409405Y-48342914D02*
X49457024Y-48247676D01*
X49457024Y-48247676D02*
X49552262Y-48152438D01*
X49552262Y-48152438D02*
X49695119Y-48104819D01*
X49695119Y-48104819D02*
X49790357Y-48104819D01*
X49790357Y-48104819D02*
X49933214Y-48152438D01*
X49933214Y-48152438D02*
X49980833Y-48200057D01*
X50885595Y-48104819D02*
X50409405Y-48104819D01*
X50409405Y-48104819D02*
X50361786Y-48581009D01*
X50361786Y-48581009D02*
X50409405Y-48533390D01*
X50409405Y-48533390D02*
X50504643Y-48485771D01*
X50504643Y-48485771D02*
X50742738Y-48485771D01*
X50742738Y-48485771D02*
X50837976Y-48533390D01*
X50837976Y-48533390D02*
X50885595Y-48581009D01*
X50885595Y-48581009D02*
X50933214Y-48676247D01*
X50933214Y-48676247D02*
X50933214Y-48914342D01*
X50933214Y-48914342D02*
X50885595Y-49009580D01*
X50885595Y-49009580D02*
X50837976Y-49057200D01*
X50837976Y-49057200D02*
X50742738Y-49104819D01*
X50742738Y-49104819D02*
X50504643Y-49104819D01*
X50504643Y-49104819D02*
X50409405Y-49057200D01*
X50409405Y-49057200D02*
X50361786Y-49009580D01*
X104998155Y-109054819D02*
X104998155Y-108054819D01*
X104998155Y-108054819D02*
X105236250Y-108054819D01*
X105236250Y-108054819D02*
X105379107Y-108102438D01*
X105379107Y-108102438D02*
X105474345Y-108197676D01*
X105474345Y-108197676D02*
X105521964Y-108292914D01*
X105521964Y-108292914D02*
X105569583Y-108483390D01*
X105569583Y-108483390D02*
X105569583Y-108626247D01*
X105569583Y-108626247D02*
X105521964Y-108816723D01*
X105521964Y-108816723D02*
X105474345Y-108911961D01*
X105474345Y-108911961D02*
X105379107Y-109007200D01*
X105379107Y-109007200D02*
X105236250Y-109054819D01*
X105236250Y-109054819D02*
X104998155Y-109054819D01*
X105902917Y-108054819D02*
X106569583Y-108054819D01*
X106569583Y-108054819D02*
X106141012Y-109054819D01*
X48057142Y-59249580D02*
X48009523Y-59297200D01*
X48009523Y-59297200D02*
X47866666Y-59344819D01*
X47866666Y-59344819D02*
X47771428Y-59344819D01*
X47771428Y-59344819D02*
X47628571Y-59297200D01*
X47628571Y-59297200D02*
X47533333Y-59201961D01*
X47533333Y-59201961D02*
X47485714Y-59106723D01*
X47485714Y-59106723D02*
X47438095Y-58916247D01*
X47438095Y-58916247D02*
X47438095Y-58773390D01*
X47438095Y-58773390D02*
X47485714Y-58582914D01*
X47485714Y-58582914D02*
X47533333Y-58487676D01*
X47533333Y-58487676D02*
X47628571Y-58392438D01*
X47628571Y-58392438D02*
X47771428Y-58344819D01*
X47771428Y-58344819D02*
X47866666Y-58344819D01*
X47866666Y-58344819D02*
X48009523Y-58392438D01*
X48009523Y-58392438D02*
X48057142Y-58440057D01*
X49009523Y-59344819D02*
X48438095Y-59344819D01*
X48723809Y-59344819D02*
X48723809Y-58344819D01*
X48723809Y-58344819D02*
X48628571Y-58487676D01*
X48628571Y-58487676D02*
X48533333Y-58582914D01*
X48533333Y-58582914D02*
X48438095Y-58630533D01*
X49485714Y-59344819D02*
X49676190Y-59344819D01*
X49676190Y-59344819D02*
X49771428Y-59297200D01*
X49771428Y-59297200D02*
X49819047Y-59249580D01*
X49819047Y-59249580D02*
X49914285Y-59106723D01*
X49914285Y-59106723D02*
X49961904Y-58916247D01*
X49961904Y-58916247D02*
X49961904Y-58535295D01*
X49961904Y-58535295D02*
X49914285Y-58440057D01*
X49914285Y-58440057D02*
X49866666Y-58392438D01*
X49866666Y-58392438D02*
X49771428Y-58344819D01*
X49771428Y-58344819D02*
X49580952Y-58344819D01*
X49580952Y-58344819D02*
X49485714Y-58392438D01*
X49485714Y-58392438D02*
X49438095Y-58440057D01*
X49438095Y-58440057D02*
X49390476Y-58535295D01*
X49390476Y-58535295D02*
X49390476Y-58773390D01*
X49390476Y-58773390D02*
X49438095Y-58868628D01*
X49438095Y-58868628D02*
X49485714Y-58916247D01*
X49485714Y-58916247D02*
X49580952Y-58963866D01*
X49580952Y-58963866D02*
X49771428Y-58963866D01*
X49771428Y-58963866D02*
X49866666Y-58916247D01*
X49866666Y-58916247D02*
X49914285Y-58868628D01*
X49914285Y-58868628D02*
X49961904Y-58773390D01*
X45666667Y-119407200D02*
X45809524Y-119454819D01*
X45809524Y-119454819D02*
X46047619Y-119454819D01*
X46047619Y-119454819D02*
X46142857Y-119407200D01*
X46142857Y-119407200D02*
X46190476Y-119359580D01*
X46190476Y-119359580D02*
X46238095Y-119264342D01*
X46238095Y-119264342D02*
X46238095Y-119169104D01*
X46238095Y-119169104D02*
X46190476Y-119073866D01*
X46190476Y-119073866D02*
X46142857Y-119026247D01*
X46142857Y-119026247D02*
X46047619Y-118978628D01*
X46047619Y-118978628D02*
X45857143Y-118931009D01*
X45857143Y-118931009D02*
X45761905Y-118883390D01*
X45761905Y-118883390D02*
X45714286Y-118835771D01*
X45714286Y-118835771D02*
X45666667Y-118740533D01*
X45666667Y-118740533D02*
X45666667Y-118645295D01*
X45666667Y-118645295D02*
X45714286Y-118550057D01*
X45714286Y-118550057D02*
X45761905Y-118502438D01*
X45761905Y-118502438D02*
X45857143Y-118454819D01*
X45857143Y-118454819D02*
X46095238Y-118454819D01*
X46095238Y-118454819D02*
X46238095Y-118502438D01*
X46571429Y-118454819D02*
X46809524Y-119454819D01*
X46809524Y-119454819D02*
X47000000Y-118740533D01*
X47000000Y-118740533D02*
X47190476Y-119454819D01*
X47190476Y-119454819D02*
X47428572Y-118454819D01*
X47714286Y-118454819D02*
X48333333Y-118454819D01*
X48333333Y-118454819D02*
X48000000Y-118835771D01*
X48000000Y-118835771D02*
X48142857Y-118835771D01*
X48142857Y-118835771D02*
X48238095Y-118883390D01*
X48238095Y-118883390D02*
X48285714Y-118931009D01*
X48285714Y-118931009D02*
X48333333Y-119026247D01*
X48333333Y-119026247D02*
X48333333Y-119264342D01*
X48333333Y-119264342D02*
X48285714Y-119359580D01*
X48285714Y-119359580D02*
X48238095Y-119407200D01*
X48238095Y-119407200D02*
X48142857Y-119454819D01*
X48142857Y-119454819D02*
X47857143Y-119454819D01*
X47857143Y-119454819D02*
X47761905Y-119407200D01*
X47761905Y-119407200D02*
X47714286Y-119359580D01*
X48157142Y-60604819D02*
X47823809Y-60128628D01*
X47585714Y-60604819D02*
X47585714Y-59604819D01*
X47585714Y-59604819D02*
X47966666Y-59604819D01*
X47966666Y-59604819D02*
X48061904Y-59652438D01*
X48061904Y-59652438D02*
X48109523Y-59700057D01*
X48109523Y-59700057D02*
X48157142Y-59795295D01*
X48157142Y-59795295D02*
X48157142Y-59938152D01*
X48157142Y-59938152D02*
X48109523Y-60033390D01*
X48109523Y-60033390D02*
X48061904Y-60081009D01*
X48061904Y-60081009D02*
X47966666Y-60128628D01*
X47966666Y-60128628D02*
X47585714Y-60128628D01*
X49109523Y-60604819D02*
X48538095Y-60604819D01*
X48823809Y-60604819D02*
X48823809Y-59604819D01*
X48823809Y-59604819D02*
X48728571Y-59747676D01*
X48728571Y-59747676D02*
X48633333Y-59842914D01*
X48633333Y-59842914D02*
X48538095Y-59890533D01*
X50014285Y-59604819D02*
X49538095Y-59604819D01*
X49538095Y-59604819D02*
X49490476Y-60081009D01*
X49490476Y-60081009D02*
X49538095Y-60033390D01*
X49538095Y-60033390D02*
X49633333Y-59985771D01*
X49633333Y-59985771D02*
X49871428Y-59985771D01*
X49871428Y-59985771D02*
X49966666Y-60033390D01*
X49966666Y-60033390D02*
X50014285Y-60081009D01*
X50014285Y-60081009D02*
X50061904Y-60176247D01*
X50061904Y-60176247D02*
X50061904Y-60414342D01*
X50061904Y-60414342D02*
X50014285Y-60509580D01*
X50014285Y-60509580D02*
X49966666Y-60557200D01*
X49966666Y-60557200D02*
X49871428Y-60604819D01*
X49871428Y-60604819D02*
X49633333Y-60604819D01*
X49633333Y-60604819D02*
X49538095Y-60557200D01*
X49538095Y-60557200D02*
X49490476Y-60509580D01*
X69666667Y-119407200D02*
X69809524Y-119454819D01*
X69809524Y-119454819D02*
X70047619Y-119454819D01*
X70047619Y-119454819D02*
X70142857Y-119407200D01*
X70142857Y-119407200D02*
X70190476Y-119359580D01*
X70190476Y-119359580D02*
X70238095Y-119264342D01*
X70238095Y-119264342D02*
X70238095Y-119169104D01*
X70238095Y-119169104D02*
X70190476Y-119073866D01*
X70190476Y-119073866D02*
X70142857Y-119026247D01*
X70142857Y-119026247D02*
X70047619Y-118978628D01*
X70047619Y-118978628D02*
X69857143Y-118931009D01*
X69857143Y-118931009D02*
X69761905Y-118883390D01*
X69761905Y-118883390D02*
X69714286Y-118835771D01*
X69714286Y-118835771D02*
X69666667Y-118740533D01*
X69666667Y-118740533D02*
X69666667Y-118645295D01*
X69666667Y-118645295D02*
X69714286Y-118550057D01*
X69714286Y-118550057D02*
X69761905Y-118502438D01*
X69761905Y-118502438D02*
X69857143Y-118454819D01*
X69857143Y-118454819D02*
X70095238Y-118454819D01*
X70095238Y-118454819D02*
X70238095Y-118502438D01*
X70571429Y-118454819D02*
X70809524Y-119454819D01*
X70809524Y-119454819D02*
X71000000Y-118740533D01*
X71000000Y-118740533D02*
X71190476Y-119454819D01*
X71190476Y-119454819D02*
X71428572Y-118454819D01*
X72285714Y-118454819D02*
X71809524Y-118454819D01*
X71809524Y-118454819D02*
X71761905Y-118931009D01*
X71761905Y-118931009D02*
X71809524Y-118883390D01*
X71809524Y-118883390D02*
X71904762Y-118835771D01*
X71904762Y-118835771D02*
X72142857Y-118835771D01*
X72142857Y-118835771D02*
X72238095Y-118883390D01*
X72238095Y-118883390D02*
X72285714Y-118931009D01*
X72285714Y-118931009D02*
X72333333Y-119026247D01*
X72333333Y-119026247D02*
X72333333Y-119264342D01*
X72333333Y-119264342D02*
X72285714Y-119359580D01*
X72285714Y-119359580D02*
X72238095Y-119407200D01*
X72238095Y-119407200D02*
X72142857Y-119454819D01*
X72142857Y-119454819D02*
X71904762Y-119454819D01*
X71904762Y-119454819D02*
X71809524Y-119407200D01*
X71809524Y-119407200D02*
X71761905Y-119359580D01*
X23029166Y-96954819D02*
X23029166Y-97669104D01*
X23029166Y-97669104D02*
X22981547Y-97811961D01*
X22981547Y-97811961D02*
X22886309Y-97907200D01*
X22886309Y-97907200D02*
X22743452Y-97954819D01*
X22743452Y-97954819D02*
X22648214Y-97954819D01*
X23410119Y-96954819D02*
X24076785Y-96954819D01*
X24076785Y-96954819D02*
X23648214Y-97954819D01*
X62480833Y-33354819D02*
X62147500Y-32878628D01*
X61909405Y-33354819D02*
X61909405Y-32354819D01*
X61909405Y-32354819D02*
X62290357Y-32354819D01*
X62290357Y-32354819D02*
X62385595Y-32402438D01*
X62385595Y-32402438D02*
X62433214Y-32450057D01*
X62433214Y-32450057D02*
X62480833Y-32545295D01*
X62480833Y-32545295D02*
X62480833Y-32688152D01*
X62480833Y-32688152D02*
X62433214Y-32783390D01*
X62433214Y-32783390D02*
X62385595Y-32831009D01*
X62385595Y-32831009D02*
X62290357Y-32878628D01*
X62290357Y-32878628D02*
X61909405Y-32878628D01*
X63433214Y-33354819D02*
X62861786Y-33354819D01*
X63147500Y-33354819D02*
X63147500Y-32354819D01*
X63147500Y-32354819D02*
X63052262Y-32497676D01*
X63052262Y-32497676D02*
X62957024Y-32592914D01*
X62957024Y-32592914D02*
X62861786Y-32640533D01*
X63980833Y-54959580D02*
X63933214Y-55007200D01*
X63933214Y-55007200D02*
X63790357Y-55054819D01*
X63790357Y-55054819D02*
X63695119Y-55054819D01*
X63695119Y-55054819D02*
X63552262Y-55007200D01*
X63552262Y-55007200D02*
X63457024Y-54911961D01*
X63457024Y-54911961D02*
X63409405Y-54816723D01*
X63409405Y-54816723D02*
X63361786Y-54626247D01*
X63361786Y-54626247D02*
X63361786Y-54483390D01*
X63361786Y-54483390D02*
X63409405Y-54292914D01*
X63409405Y-54292914D02*
X63457024Y-54197676D01*
X63457024Y-54197676D02*
X63552262Y-54102438D01*
X63552262Y-54102438D02*
X63695119Y-54054819D01*
X63695119Y-54054819D02*
X63790357Y-54054819D01*
X63790357Y-54054819D02*
X63933214Y-54102438D01*
X63933214Y-54102438D02*
X63980833Y-54150057D01*
X64837976Y-54388152D02*
X64837976Y-55054819D01*
X64599881Y-54007200D02*
X64361786Y-54721485D01*
X64361786Y-54721485D02*
X64980833Y-54721485D01*
D12*
%TO.C,R18*%
X82860436Y-105865000D02*
X83314564Y-105865000D01*
X82860436Y-107335000D02*
X83314564Y-107335000D01*
%TO.C,J1*%
X94455000Y-90445000D02*
X94455000Y-89175000D01*
X95725000Y-90445000D02*
X94455000Y-90445000D01*
X97885000Y-88132071D02*
X97885000Y-87735000D01*
X98645000Y-88132071D02*
X98645000Y-87735000D01*
X95345000Y-88065000D02*
X95345000Y-87735000D01*
X96105000Y-88065000D02*
X96105000Y-87735000D01*
X94395000Y-87735000D02*
X99595000Y-87735000D01*
X96995000Y-87735000D02*
X96995000Y-85075000D01*
X99595000Y-87735000D02*
X99595000Y-85075000D01*
X94395000Y-85075000D02*
X94395000Y-87735000D01*
X95345000Y-85075000D02*
X95345000Y-79075000D01*
X95405000Y-85075000D02*
X95405000Y-79075000D01*
X95525000Y-85075000D02*
X95525000Y-79075000D01*
X95645000Y-85075000D02*
X95645000Y-79075000D01*
X95765000Y-85075000D02*
X95765000Y-79075000D01*
X95885000Y-85075000D02*
X95885000Y-79075000D01*
X96005000Y-85075000D02*
X96005000Y-79075000D01*
X97885000Y-85075000D02*
X97885000Y-79075000D01*
X99595000Y-85075000D02*
X94395000Y-85075000D01*
X95345000Y-79075000D02*
X96105000Y-79075000D01*
X96105000Y-79075000D02*
X96105000Y-85075000D01*
X97885000Y-79075000D02*
X98645000Y-79075000D01*
X98645000Y-79075000D02*
X98645000Y-85075000D01*
%TO.C,R20*%
X98772936Y-105865000D02*
X99227064Y-105865000D01*
X98772936Y-107335000D02*
X99227064Y-107335000D01*
%TO.C,R7*%
X61114564Y-76335000D02*
X60660436Y-76335000D01*
X61114564Y-74865000D02*
X60660436Y-74865000D01*
%TO.C,J4*%
X67530000Y-90190000D02*
X68800000Y-90190000D01*
X67530000Y-91460000D02*
X67530000Y-90190000D01*
X69842929Y-93620000D02*
X70240000Y-93620000D01*
X69842929Y-94380000D02*
X70240000Y-94380000D01*
X69910000Y-91080000D02*
X70240000Y-91080000D01*
X69910000Y-91840000D02*
X70240000Y-91840000D01*
X70240000Y-90130000D02*
X70240000Y-95330000D01*
X70240000Y-92730000D02*
X72900000Y-92730000D01*
X70240000Y-95330000D02*
X72900000Y-95330000D01*
X72900000Y-90130000D02*
X70240000Y-90130000D01*
X72900000Y-91080000D02*
X78900000Y-91080000D01*
X72900000Y-91140000D02*
X78900000Y-91140000D01*
X72900000Y-91260000D02*
X78900000Y-91260000D01*
X72900000Y-91380000D02*
X78900000Y-91380000D01*
X72900000Y-91500000D02*
X78900000Y-91500000D01*
X72900000Y-91620000D02*
X78900000Y-91620000D01*
X72900000Y-91740000D02*
X78900000Y-91740000D01*
X72900000Y-93620000D02*
X78900000Y-93620000D01*
X72900000Y-95330000D02*
X72900000Y-90130000D01*
X78900000Y-91080000D02*
X78900000Y-91840000D01*
X78900000Y-91840000D02*
X72900000Y-91840000D01*
X78900000Y-93620000D02*
X78900000Y-94380000D01*
X78900000Y-94380000D02*
X72900000Y-94380000D01*
%TO.C,C14*%
X61280000Y-82615580D02*
X61280000Y-82334420D01*
X62300000Y-82615580D02*
X62300000Y-82334420D01*
%TO.C,D2*%
X82764000Y-112565000D02*
X82920000Y-112565000D01*
X85080000Y-112565000D02*
X85236000Y-112565000D01*
X82921392Y-109332666D02*
G75*
G03*
X82764485Y-112564999I1078608J-1672334D01*
G01*
X82920164Y-109963871D02*
G75*
G03*
X82920001Y-112045960I1079836J-1041129D01*
G01*
X85079999Y-112045960D02*
G75*
G03*
X85079836Y-109963871I-1079999J1040960D01*
G01*
X85235515Y-112564999D02*
G75*
G03*
X85078608Y-109332666I-1235515J1559999D01*
G01*
%TO.C,C1*%
X50447500Y-41800000D02*
X49847500Y-41800000D01*
X49147500Y-41100000D02*
X49147500Y-39700000D01*
X51147500Y-39700000D02*
X51147500Y-41100000D01*
X49847500Y-39000000D02*
X50447500Y-39000000D01*
X49147500Y-41100000D02*
G75*
G03*
X49847500Y-41800000I699999J-1D01*
G01*
X50447500Y-41800000D02*
G75*
G03*
X51147500Y-41100000I1J699999D01*
G01*
X49847500Y-39000000D02*
G75*
G03*
X49147500Y-39700000I0J-700000D01*
G01*
X51147500Y-39700000D02*
G75*
G03*
X50447500Y-39000000I-700000J0D01*
G01*
%TO.C,D5*%
X96552500Y-112485000D02*
X98472500Y-112485000D01*
X98472500Y-112485000D02*
X98472500Y-109800000D01*
X96552500Y-109800000D02*
X96552500Y-112485000D01*
%TO.C,H5*%
X23150000Y-100700000D02*
G75*
G03*
X23150000Y-100700000I-950000J0D01*
G01*
%TO.C,C6*%
X56636248Y-33915000D02*
X57158752Y-33915000D01*
X56636248Y-35385000D02*
X57158752Y-35385000D01*
%TO.C,JP5*%
X79100000Y-112250000D02*
X78500000Y-112250000D01*
X77800000Y-111550000D02*
X77800000Y-110150000D01*
X79800000Y-110150000D02*
X79800000Y-111550000D01*
X78500000Y-109450000D02*
X79100000Y-109450000D01*
X77800000Y-111550000D02*
G75*
G03*
X78500000Y-112250000I699999J-1D01*
G01*
X79100000Y-112250000D02*
G75*
G03*
X79800000Y-111550000I1J699999D01*
G01*
X78500000Y-109450000D02*
G75*
G03*
X77800000Y-110150000I0J-700000D01*
G01*
X79800000Y-110150000D02*
G75*
G03*
X79100000Y-109450000I-700000J0D01*
G01*
%TO.C,Y2*%
X65747500Y-37600000D02*
X67547500Y-37600000D01*
X65697500Y-36200000D02*
X65697500Y-35100000D01*
X67597500Y-36200000D02*
X67597500Y-35100000D01*
%TO.C,R3*%
X62535000Y-87572936D02*
X62535000Y-88027064D01*
X61065000Y-87572936D02*
X61065000Y-88027064D01*
%TO.C,R13*%
X55437258Y-57422500D02*
X54962742Y-57422500D01*
X55437258Y-56377500D02*
X54962742Y-56377500D01*
%TO.C,SW1*%
X18975000Y-56160000D02*
X22875000Y-56160000D01*
X18975000Y-56160000D02*
X18975000Y-48440000D01*
X25475000Y-56160000D02*
X25985000Y-56160000D01*
X25985000Y-56160000D02*
X25985000Y-55640000D01*
X22645000Y-55640000D02*
X22875000Y-55640000D01*
X22645000Y-55640000D02*
X22645000Y-55100000D01*
X25475000Y-55640000D02*
X25985000Y-55640000D01*
X22645000Y-54000000D02*
X22645000Y-50600000D01*
X22645000Y-49500000D02*
X22645000Y-48960000D01*
X22645000Y-48960000D02*
X22875000Y-48960000D01*
X25475000Y-48960000D02*
X25985000Y-48960000D01*
X25985000Y-48960000D02*
X25985000Y-48440000D01*
X18975000Y-48440000D02*
X22875000Y-48440000D01*
X25475000Y-48440000D02*
X25985000Y-48440000D01*
%TO.C,R19*%
X90660436Y-105865000D02*
X91114564Y-105865000D01*
X90660436Y-107335000D02*
X91114564Y-107335000D01*
%TO.C,C12*%
X63386248Y-29327500D02*
X63908752Y-29327500D01*
X63386248Y-30797500D02*
X63908752Y-30797500D01*
%TO.C,R14*%
X45687258Y-56162500D02*
X45212742Y-56162500D01*
X45687258Y-55117500D02*
X45212742Y-55117500D01*
%TO.C,C25*%
X38840000Y-36000000D02*
X38840000Y-35500000D01*
X38590000Y-35750000D02*
X39090000Y-35750000D01*
X39204437Y-35260000D02*
X39340000Y-35260000D01*
X39204437Y-35260000D02*
X38140000Y-34195563D01*
X41595563Y-35260000D02*
X41460000Y-35260000D01*
X41595563Y-35260000D02*
X42660000Y-34195563D01*
X38140000Y-34195563D02*
X38140000Y-30740000D01*
X42660000Y-34195563D02*
X42660000Y-30740000D01*
X38140000Y-30740000D02*
X39340000Y-30740000D01*
X42660000Y-30740000D02*
X41460000Y-30740000D01*
%TO.C,J3*%
X36060000Y-35340000D02*
X36060000Y-36360000D01*
X31810000Y-35340000D02*
X36060000Y-35340000D01*
X36060000Y-36360000D02*
X34460000Y-36360000D01*
X34460000Y-36360000D02*
X34460000Y-37640000D01*
X28240000Y-37060000D02*
X28240000Y-45740000D01*
X34460000Y-37640000D02*
X37350000Y-37640000D01*
X36060000Y-46440000D02*
X34460000Y-46440000D01*
X34460000Y-46440000D02*
X34460000Y-45160000D01*
X36060000Y-47460000D02*
X36060000Y-46440000D01*
X31810000Y-47460000D02*
X36060000Y-47460000D01*
%TO.C,R4*%
X60535000Y-87572936D02*
X60535000Y-88027064D01*
X59065000Y-87572936D02*
X59065000Y-88027064D01*
%TO.C,JP1*%
X98400000Y-91100000D02*
X98400000Y-91700000D01*
X97700000Y-92400000D02*
X96300000Y-92400000D01*
X96300000Y-90400000D02*
X97700000Y-90400000D01*
X95600000Y-91700000D02*
X95600000Y-91100000D01*
X97700000Y-92400000D02*
G75*
G03*
X98400000Y-91700000I1J699999D01*
G01*
X98400000Y-91100000D02*
G75*
G03*
X97700000Y-90400000I-699999J1D01*
G01*
X95600000Y-91700000D02*
G75*
G03*
X96300000Y-92400000I700000J0D01*
G01*
X96300000Y-90400000D02*
G75*
G03*
X95600000Y-91100000I0J-700000D01*
G01*
%TO.C,C7*%
X57006920Y-35890000D02*
X57288080Y-35890000D01*
X57006920Y-36910000D02*
X57288080Y-36910000D01*
%TO.C,D4*%
X90564000Y-112490000D02*
X90720000Y-112490000D01*
X92880000Y-112490000D02*
X93036000Y-112490000D01*
X90721392Y-109257666D02*
G75*
G03*
X90564485Y-112489999I1078608J-1672334D01*
G01*
X90720164Y-109888871D02*
G75*
G03*
X90720001Y-111970960I1079836J-1041129D01*
G01*
X92879999Y-111970960D02*
G75*
G03*
X92879836Y-109888871I-1079999J1040960D01*
G01*
X93035515Y-112489999D02*
G75*
G03*
X92878608Y-109257666I-1235515J1559999D01*
G01*
%TO.C,H6*%
X23150000Y-81500000D02*
G75*
G03*
X23150000Y-81500000I-950000J0D01*
G01*
%TO.C,C2*%
X51387500Y-40765580D02*
X51387500Y-40484420D01*
X52407500Y-40765580D02*
X52407500Y-40484420D01*
D11*
%TO.C,U7*%
X122600000Y-107640000D02*
X122600000Y-28940000D01*
X122600000Y-28940000D02*
X19400000Y-28940000D01*
X19400000Y-107640000D02*
X122600000Y-107640000D01*
X19400000Y-28940000D02*
X19400000Y-107640000D01*
D12*
%TO.C,SW2*%
X31770000Y-116230000D02*
X31770000Y-109770000D01*
X31800000Y-116230000D02*
X31770000Y-116230000D01*
X33700000Y-116230000D02*
X36300000Y-116230000D01*
X38230000Y-116230000D02*
X38200000Y-116230000D01*
X38230000Y-116230000D02*
X38230000Y-109770000D01*
X31770000Y-109770000D02*
X31800000Y-109770000D01*
X33700000Y-109770000D02*
X36300000Y-109770000D01*
X38230000Y-109770000D02*
X38200000Y-109770000D01*
%TO.C,U5*%
X65185000Y-39440000D02*
X64235000Y-39440000D01*
X64235000Y-39440000D02*
X64235000Y-38100000D01*
X54965000Y-39440000D02*
X55915000Y-39440000D01*
X65185000Y-40390000D02*
X65185000Y-39440000D01*
X54965000Y-40390000D02*
X54965000Y-39440000D01*
X65185000Y-48710000D02*
X65185000Y-49660000D01*
X54965000Y-48710000D02*
X54965000Y-49660000D01*
X65185000Y-49660000D02*
X64235000Y-49660000D01*
X54965000Y-49660000D02*
X55915000Y-49660000D01*
%TO.C,J2*%
X95670000Y-48130000D02*
X95670000Y-49400000D01*
X94400000Y-48130000D02*
X95670000Y-48130000D01*
X92240000Y-50442929D02*
X92240000Y-50840000D01*
X91480000Y-50442929D02*
X91480000Y-50840000D01*
X94780000Y-50510000D02*
X94780000Y-50840000D01*
X94020000Y-50510000D02*
X94020000Y-50840000D01*
X95730000Y-50840000D02*
X90530000Y-50840000D01*
X93130000Y-50840000D02*
X93130000Y-53500000D01*
X90530000Y-50840000D02*
X90530000Y-53500000D01*
X95730000Y-53500000D02*
X95730000Y-50840000D01*
X94780000Y-53500000D02*
X94780000Y-59500000D01*
X94720000Y-53500000D02*
X94720000Y-59500000D01*
X94600000Y-53500000D02*
X94600000Y-59500000D01*
X94480000Y-53500000D02*
X94480000Y-59500000D01*
X94360000Y-53500000D02*
X94360000Y-59500000D01*
X94240000Y-53500000D02*
X94240000Y-59500000D01*
X94120000Y-53500000D02*
X94120000Y-59500000D01*
X92240000Y-53500000D02*
X92240000Y-59500000D01*
X90530000Y-53500000D02*
X95730000Y-53500000D01*
X94780000Y-59500000D02*
X94020000Y-59500000D01*
X94020000Y-59500000D02*
X94020000Y-53500000D01*
X92240000Y-59500000D02*
X91480000Y-59500000D01*
X91480000Y-59500000D02*
X91480000Y-53500000D01*
%TO.C,Y1*%
X65047500Y-26612500D02*
X64647500Y-26612500D01*
X64647500Y-26612500D02*
X64647500Y-27412500D01*
X62847500Y-28812500D02*
X61047500Y-28812500D01*
X62847500Y-25212500D02*
X62847500Y-24972500D01*
X61047500Y-25212500D02*
X62847500Y-25212500D01*
X59247500Y-27412500D02*
X59247500Y-26612500D01*
%TO.C,R17*%
X55462258Y-56172500D02*
X54987742Y-56172500D01*
X55462258Y-55127500D02*
X54987742Y-55127500D01*
%TO.C,R12*%
X52187258Y-57422500D02*
X51712742Y-57422500D01*
X52187258Y-56377500D02*
X51712742Y-56377500D01*
%TO.C,D6*%
X98676500Y-112490000D02*
X98832500Y-112490000D01*
X100992500Y-112490000D02*
X101148500Y-112490000D01*
X98833892Y-109257666D02*
G75*
G03*
X98676985Y-112489999I1078608J-1672334D01*
G01*
X98832664Y-109888871D02*
G75*
G03*
X98832501Y-111970960I1079836J-1041129D01*
G01*
X100992499Y-111970960D02*
G75*
G03*
X100992336Y-109888871I-1079999J1040960D01*
G01*
X101148015Y-112489999D02*
G75*
G03*
X100991108Y-109257666I-1235515J1559999D01*
G01*
%TO.C,C24*%
X33552500Y-33211252D02*
X33552500Y-32688748D01*
X35022500Y-33211252D02*
X35022500Y-32688748D01*
%TO.C,D1*%
X80640000Y-112485000D02*
X82560000Y-112485000D01*
X82560000Y-112485000D02*
X82560000Y-109800000D01*
X80640000Y-109800000D02*
X80640000Y-112485000D01*
%TO.C,D3*%
X88440000Y-112485000D02*
X90360000Y-112485000D01*
X90360000Y-112485000D02*
X90360000Y-109800000D01*
X88440000Y-109800000D02*
X88440000Y-112485000D01*
%TO.C,R10*%
X45687258Y-57412500D02*
X45212742Y-57412500D01*
X45687258Y-56367500D02*
X45212742Y-56367500D01*
%TO.C,C15*%
X59305000Y-82786252D02*
X59305000Y-82263748D01*
X60775000Y-82786252D02*
X60775000Y-82263748D01*
%TO.C,C13*%
X59886248Y-29327500D02*
X60408752Y-29327500D01*
X59886248Y-30797500D02*
X60408752Y-30797500D01*
%TO.C,R16*%
X52187258Y-56172500D02*
X51712742Y-56172500D01*
X52187258Y-55127500D02*
X51712742Y-55127500D01*
%TO.C,C23*%
X35377500Y-33078080D02*
X35377500Y-32796920D01*
X36397500Y-33078080D02*
X36397500Y-32796920D01*
%TO.C,R2*%
X60937064Y-94735000D02*
X60482936Y-94735000D01*
X60937064Y-93265000D02*
X60482936Y-93265000D01*
%TO.C,C3*%
X68657500Y-40984420D02*
X68657500Y-41265580D01*
X67637500Y-40984420D02*
X67637500Y-41265580D01*
%TO.C,JP2*%
X94550000Y-46700000D02*
X94550000Y-47300000D01*
X93850000Y-48000000D02*
X92450000Y-48000000D01*
X92450000Y-46000000D02*
X93850000Y-46000000D01*
X91750000Y-47300000D02*
X91750000Y-46700000D01*
X93850000Y-48000000D02*
G75*
G03*
X94550000Y-47300000I1J699999D01*
G01*
X94550000Y-46700000D02*
G75*
G03*
X93850000Y-46000000I-699999J1D01*
G01*
X91750000Y-47300000D02*
G75*
G03*
X92450000Y-48000000I700000J0D01*
G01*
X92450000Y-46000000D02*
G75*
G03*
X91750000Y-46700000I0J-700000D01*
G01*
%TO.C,C17*%
X69386248Y-33915000D02*
X69908752Y-33915000D01*
X69386248Y-35385000D02*
X69908752Y-35385000D01*
%TO.C,D8*%
X106900250Y-112565000D02*
X107056250Y-112565000D01*
X109216250Y-112565000D02*
X109372250Y-112565000D01*
X107057642Y-109332666D02*
G75*
G03*
X106900735Y-112564999I1078608J-1672334D01*
G01*
X107056414Y-109963871D02*
G75*
G03*
X107056251Y-112045960I1079836J-1041129D01*
G01*
X109216249Y-112045960D02*
G75*
G03*
X109216086Y-109963871I-1079999J1040960D01*
G01*
X109371765Y-112564999D02*
G75*
G03*
X109214858Y-109332666I-1235515J1559999D01*
G01*
%TO.C,J5*%
X65390000Y-73780000D02*
X79400000Y-73780000D01*
X81460000Y-75260000D02*
X81460000Y-75000000D01*
X81660000Y-75460000D02*
X81460000Y-75260000D01*
X81660000Y-75460000D02*
X81660000Y-77770000D01*
X65390000Y-75700000D02*
X65390000Y-73780000D01*
X81660000Y-77770000D02*
X81310000Y-78280000D01*
X81310000Y-84650000D02*
X81310000Y-78280000D01*
X81310000Y-84650000D02*
X81460000Y-84650000D01*
X81660000Y-84860000D02*
X81460000Y-84650000D01*
X81660000Y-86720000D02*
X81660000Y-84860000D01*
X81660000Y-86720000D02*
X81460000Y-86920000D01*
X65390000Y-87300000D02*
X65390000Y-87750000D01*
X76700000Y-87750000D02*
X78500000Y-87750000D01*
X70700000Y-87750000D02*
X75400000Y-87750000D01*
X65390000Y-87750000D02*
X69000000Y-87750000D01*
%TO.C,C18*%
X45590580Y-54900000D02*
X45309420Y-54900000D01*
X45590580Y-53880000D02*
X45309420Y-53880000D01*
%TO.C,C21*%
X55365580Y-54910000D02*
X55084420Y-54910000D01*
X55365580Y-53890000D02*
X55084420Y-53890000D01*
%TO.C,R11*%
X48937258Y-57422500D02*
X48462742Y-57422500D01*
X48937258Y-56377500D02*
X48462742Y-56377500D01*
%TO.C,R21*%
X106996686Y-105865000D02*
X107450814Y-105865000D01*
X106996686Y-107335000D02*
X107450814Y-107335000D01*
%TO.C,R6*%
X61114564Y-78335000D02*
X60660436Y-78335000D01*
X61114564Y-76865000D02*
X60660436Y-76865000D01*
%TO.C,C16*%
X69386248Y-35915000D02*
X69908752Y-35915000D01*
X69386248Y-37385000D02*
X69908752Y-37385000D01*
%TO.C,R5*%
X61114564Y-80335000D02*
X60660436Y-80335000D01*
X61114564Y-78865000D02*
X60660436Y-78865000D01*
%TO.C,SW4*%
X55770000Y-116230000D02*
X55770000Y-109770000D01*
X55800000Y-116230000D02*
X55770000Y-116230000D01*
X57700000Y-116230000D02*
X60300000Y-116230000D01*
X62230000Y-116230000D02*
X62200000Y-116230000D01*
X62230000Y-116230000D02*
X62230000Y-109770000D01*
X55770000Y-109770000D02*
X55800000Y-109770000D01*
X57700000Y-109770000D02*
X60300000Y-109770000D01*
X62230000Y-109770000D02*
X62200000Y-109770000D01*
%TO.C,C20*%
X52090580Y-54910000D02*
X51809420Y-54910000D01*
X52090580Y-53890000D02*
X51809420Y-53890000D01*
%TO.C,C10*%
X76047500Y-30940000D02*
X77297500Y-30940000D01*
X76672500Y-30315000D02*
X76672500Y-31565000D01*
X77537500Y-29204437D02*
X77537500Y-32190000D01*
X77537500Y-29204437D02*
X78601937Y-28140000D01*
X77537500Y-37595563D02*
X77537500Y-34610000D01*
X77537500Y-37595563D02*
X78601937Y-38660000D01*
X78601937Y-28140000D02*
X88057500Y-28140000D01*
X78601937Y-38660000D02*
X88057500Y-38660000D01*
X88057500Y-28140000D02*
X88057500Y-32190000D01*
X88057500Y-38660000D02*
X88057500Y-34610000D01*
%TO.C,L1*%
X52237500Y-35352064D02*
X52237500Y-34147936D01*
X54957500Y-35352064D02*
X54957500Y-34147936D01*
%TO.C,Q1*%
X60710000Y-89690000D02*
X58910000Y-89690000D01*
X60710000Y-89690000D02*
X61510000Y-89690000D01*
X60710000Y-92810000D02*
X59910000Y-92810000D01*
X60710000Y-92810000D02*
X61510000Y-92810000D01*
%TO.C,C5*%
X51637500Y-48790580D02*
X51637500Y-48509420D01*
X52657500Y-48790580D02*
X52657500Y-48509420D01*
%TO.C,D7*%
X104776250Y-112485000D02*
X106696250Y-112485000D01*
X106696250Y-112485000D02*
X106696250Y-109800000D01*
X104776250Y-109800000D02*
X104776250Y-112485000D01*
%TO.C,C19*%
X48840580Y-54900000D02*
X48559420Y-54900000D01*
X48840580Y-53880000D02*
X48559420Y-53880000D01*
%TO.C,SW3*%
X43770000Y-116230000D02*
X43770000Y-109770000D01*
X43800000Y-116230000D02*
X43770000Y-116230000D01*
X45700000Y-116230000D02*
X48300000Y-116230000D01*
X50230000Y-116230000D02*
X50200000Y-116230000D01*
X50230000Y-116230000D02*
X50230000Y-109770000D01*
X43770000Y-109770000D02*
X43800000Y-109770000D01*
X45700000Y-109770000D02*
X48300000Y-109770000D01*
X50230000Y-109770000D02*
X50200000Y-109770000D01*
%TO.C,R15*%
X48962258Y-56172500D02*
X48487742Y-56172500D01*
X48962258Y-55127500D02*
X48487742Y-55127500D01*
%TO.C,SW5*%
X67770000Y-116230000D02*
X67770000Y-109770000D01*
X67800000Y-116230000D02*
X67770000Y-116230000D01*
X69700000Y-116230000D02*
X72300000Y-116230000D01*
X74230000Y-116230000D02*
X74200000Y-116230000D01*
X74230000Y-116230000D02*
X74230000Y-109770000D01*
X67770000Y-109770000D02*
X67800000Y-109770000D01*
X69700000Y-109770000D02*
X72300000Y-109770000D01*
X74230000Y-109770000D02*
X74200000Y-109770000D01*
%TO.C,J7*%
X15697500Y-85970000D02*
X15697500Y-96250000D01*
X15697500Y-85970000D02*
X24327500Y-85970000D01*
X15697500Y-86090000D02*
X24327500Y-86090000D01*
X15697500Y-86208095D02*
X24327500Y-86208095D01*
X15697500Y-86326190D02*
X24327500Y-86326190D01*
X15697500Y-86444285D02*
X24327500Y-86444285D01*
X15697500Y-86562380D02*
X24327500Y-86562380D01*
X15697500Y-86680475D02*
X24327500Y-86680475D01*
X15697500Y-86798570D02*
X24327500Y-86798570D01*
X15697500Y-86916665D02*
X24327500Y-86916665D01*
X15697500Y-87034760D02*
X24327500Y-87034760D01*
X15697500Y-87152855D02*
X24327500Y-87152855D01*
X15697500Y-87270950D02*
X24327500Y-87270950D01*
X15697500Y-87389045D02*
X24327500Y-87389045D01*
X15697500Y-87507140D02*
X24327500Y-87507140D01*
X15697500Y-87625235D02*
X24327500Y-87625235D01*
X15697500Y-87743330D02*
X24327500Y-87743330D01*
X15697500Y-87861425D02*
X24327500Y-87861425D01*
X15697500Y-87979520D02*
X24327500Y-87979520D01*
X15697500Y-88097615D02*
X24327500Y-88097615D01*
X15697500Y-88215710D02*
X24327500Y-88215710D01*
X15697500Y-88333805D02*
X24327500Y-88333805D01*
X15697500Y-88451900D02*
X24327500Y-88451900D01*
X15697500Y-88570000D02*
X24327500Y-88570000D01*
X15697500Y-91110000D02*
X24327500Y-91110000D01*
X15697500Y-93650000D02*
X24327500Y-93650000D01*
X15697500Y-96250000D02*
X24327500Y-96250000D01*
X24327500Y-85970000D02*
X24327500Y-96250000D01*
X24327500Y-86940000D02*
X24677500Y-86940000D01*
X24327500Y-87660000D02*
X24677500Y-87660000D01*
X24327500Y-89480000D02*
X24737500Y-89480000D01*
X24327500Y-90200000D02*
X24737500Y-90200000D01*
X24327500Y-92020000D02*
X24737500Y-92020000D01*
X24327500Y-92740000D02*
X24737500Y-92740000D01*
X24327500Y-94560000D02*
X24737500Y-94560000D01*
X24327500Y-95280000D02*
X24737500Y-95280000D01*
X25787500Y-85970000D02*
X26897500Y-85970000D01*
X26897500Y-85970000D02*
X26897500Y-87300000D01*
%TO.C,R1*%
X60162500Y-33039564D02*
X60162500Y-32585436D01*
X61632500Y-33039564D02*
X61632500Y-32585436D01*
%TO.C,C4*%
X64288080Y-53160000D02*
X64006920Y-53160000D01*
X64288080Y-52140000D02*
X64006920Y-52140000D01*
%TD*%
D13*
X52397500Y-50400000D03*
X67200000Y-40200000D03*
X51897500Y-42150000D03*
X45800000Y-41800000D03*
X52800000Y-57800000D03*
X50147500Y-42150000D03*
X55197500Y-37550000D03*
X46400000Y-57800000D03*
X49600000Y-57800000D03*
X64841117Y-53600000D03*
X56000000Y-57800000D03*
X56000000Y-60000000D03*
X29400000Y-95200000D03*
X109600000Y-102200000D03*
X56897500Y-33000000D03*
D14*
X72397500Y-33150000D03*
D13*
X114400000Y-62400000D03*
X90800000Y-56200000D03*
X58800000Y-35200000D03*
X109200000Y-99000000D03*
D14*
X63647500Y-31900000D03*
D13*
X27600000Y-64200000D03*
D14*
X65897500Y-26650000D03*
D13*
X57800000Y-40350000D03*
D14*
X72397500Y-35400000D03*
X57897500Y-26650000D03*
D13*
X63800000Y-71800000D03*
D14*
X46600000Y-64200000D03*
D13*
X63000000Y-84000000D03*
D14*
X63147500Y-34400000D03*
D13*
X63000000Y-76800000D03*
X72400000Y-66000000D03*
D14*
X47800000Y-67600000D03*
X71397500Y-34650000D03*
D13*
X102800000Y-58800000D03*
X67000000Y-73800000D03*
X68400000Y-75800000D03*
D14*
X66897500Y-38150000D03*
D13*
X110000000Y-94500000D03*
X49000000Y-39350000D03*
X62600000Y-45200000D03*
X34400000Y-31000000D03*
D14*
X65897500Y-31650000D03*
X61147500Y-26062500D03*
X60147500Y-24400000D03*
D13*
X51397500Y-47900000D03*
X78800000Y-108800000D03*
D14*
X71397500Y-36650000D03*
D13*
X48000000Y-53400000D03*
D14*
X60397500Y-36400000D03*
D13*
X38150000Y-44400000D03*
X28200000Y-91200000D03*
X67800000Y-80800000D03*
X58800000Y-36200000D03*
X62400000Y-56400000D03*
X94600000Y-43000000D03*
X61800000Y-59400000D03*
X94000000Y-59200000D03*
D14*
X62717000Y-28062500D03*
X69647500Y-38150000D03*
X59397500Y-34400000D03*
D13*
X55600000Y-109000000D03*
D14*
X72397500Y-38150000D03*
X57897500Y-28900000D03*
D13*
X55897500Y-43150000D03*
X68750000Y-118250000D03*
X67600000Y-109000000D03*
X67400000Y-42200000D03*
X32650000Y-44400000D03*
X64000000Y-87400000D03*
X40400000Y-29350000D03*
D14*
X65897500Y-28900000D03*
D13*
X89800000Y-33400000D03*
D14*
X57897500Y-24400000D03*
X63897500Y-30062500D03*
D13*
X56750000Y-118250000D03*
D14*
X60397500Y-30062500D03*
X64147500Y-34400000D03*
D13*
X32750000Y-118250000D03*
X53775000Y-54000000D03*
X75965000Y-88525000D03*
D14*
X66897500Y-33150000D03*
D13*
X44750000Y-118250000D03*
X64800000Y-68400000D03*
X45000000Y-53400000D03*
X47400000Y-45400000D03*
D14*
X64897500Y-37650000D03*
D13*
X51200000Y-53400000D03*
X52800000Y-39800000D03*
D14*
X57897500Y-31150000D03*
D13*
X23550000Y-92000000D03*
X44750000Y-107750000D03*
X66800000Y-83500000D03*
X32750000Y-107750000D03*
X63200000Y-42200000D03*
X35887500Y-31337500D03*
D14*
X62647500Y-36150000D03*
D13*
X58969500Y-83400000D03*
X67600000Y-71000000D03*
D14*
X69647500Y-33150000D03*
D13*
X63395217Y-53600000D03*
X44400000Y-39400000D03*
X30200000Y-51400000D03*
X59147500Y-37400000D03*
X58400000Y-81600000D03*
X58200000Y-88000000D03*
X58400000Y-42000000D03*
D14*
X73600000Y-50400000D03*
X74622222Y-50177778D03*
D13*
X59400000Y-42600000D03*
D14*
X75800000Y-49900000D03*
D13*
X60400000Y-42000000D03*
D14*
X76400000Y-48800000D03*
D13*
X61400000Y-41400000D03*
X104250000Y-60250000D03*
X42200000Y-76800000D03*
X39000000Y-36200000D03*
X47200000Y-97600000D03*
X68200000Y-71800000D03*
X63000000Y-78000000D03*
X67800000Y-75000000D03*
X67000000Y-80200000D03*
X67400000Y-82400000D03*
X67975000Y-73375000D03*
X61800000Y-84600000D03*
X63400000Y-86502817D03*
X65000000Y-67000000D03*
X68600000Y-83600000D03*
X64600000Y-71000000D03*
X65600000Y-69200000D03*
X72000000Y-65000000D03*
X61800000Y-57200000D03*
X91400000Y-57170000D03*
D14*
X47400000Y-64600000D03*
D13*
X93000000Y-58600000D03*
X102500000Y-57750000D03*
D14*
X47400000Y-66800000D03*
D13*
X62600000Y-58600000D03*
X60400000Y-72200000D03*
X57200000Y-72600000D03*
X62600000Y-60400000D03*
X26600000Y-63200000D03*
D14*
X77000000Y-49800000D03*
D13*
X57200000Y-45650000D03*
X62400000Y-44200000D03*
X63600000Y-43200000D03*
X73200000Y-43400000D03*
X72000000Y-44800000D03*
X54897500Y-49380001D03*
X57400000Y-54000000D03*
X56897500Y-41900000D03*
X96200000Y-104000000D03*
X96200000Y-111737500D03*
X95725000Y-89175000D03*
X98265000Y-89175000D03*
X68800000Y-91460000D03*
X68800000Y-94000000D03*
X84000000Y-112275000D03*
X84000000Y-109735000D03*
X22200000Y-100700000D03*
X24165000Y-55800000D03*
X24165000Y-48790000D03*
X21675000Y-54550000D03*
X21675000Y-50050000D03*
X118000000Y-116000000D03*
X118000000Y-24000000D03*
X91800000Y-112200000D03*
X91800000Y-109660000D03*
X22200000Y-81500000D03*
X22500000Y-77180000D03*
X22500000Y-74640000D03*
X22500000Y-72100000D03*
X22500000Y-69560000D03*
X22500000Y-67020000D03*
X22500000Y-64480000D03*
X22500000Y-61940000D03*
X22500000Y-59400000D03*
X119500000Y-104540000D03*
X119500000Y-32040000D03*
X22500000Y-104540000D03*
X22500000Y-32040000D03*
X94400000Y-49400000D03*
X91860000Y-49400000D03*
X99912500Y-112200000D03*
X99912500Y-109660000D03*
X24000000Y-24000000D03*
X24000000Y-116000000D03*
X108136250Y-112275000D03*
X108136250Y-109735000D03*
X102550000Y-49650000D03*
X118750000Y-81650000D03*
X98650000Y-49550000D03*
X98650000Y-52090000D03*
X98650000Y-54630000D03*
X98650000Y-57170000D03*
X98650000Y-59710000D03*
X98650000Y-62250000D03*
X98650000Y-64790000D03*
X112012500Y-101012500D03*
X112012500Y-90412500D03*
X104052500Y-89242500D03*
X104052500Y-91782500D03*
X104052500Y-94322500D03*
X104052500Y-96862500D03*
X104052500Y-99402500D03*
X104052500Y-101942500D03*
X111000000Y-115000000D03*
X111000000Y-117540000D03*
X108460000Y-115000000D03*
X108460000Y-117540000D03*
X105920000Y-115000000D03*
X105920000Y-117540000D03*
X103380000Y-115000000D03*
X103380000Y-117540000D03*
X100840000Y-115000000D03*
X100840000Y-117540000D03*
X98300000Y-115000000D03*
X98300000Y-117540000D03*
X95760000Y-115000000D03*
X95760000Y-117540000D03*
M02*
