%TF.GenerationSoftware,KiCad,Pcbnew,7.0.9*%
%TF.CreationDate,2024-06-04T23:52:15+02:00*%
%TF.ProjectId,EnvSensor-Main-v2.1,456e7653-656e-4736-9f72-2d4d61696e2d,rev?*%
%TF.SameCoordinates,Original*%
%TF.FileFunction,Legend,Top*%
%TF.FilePolarity,Positive*%
%FSLAX46Y46*%
G04 Gerber Fmt 4.6, Leading zero omitted, Abs format (unit mm)*
G04 Created by KiCad (PCBNEW 7.0.9) date 2024-06-04 23:52:15*
%MOMM*%
%LPD*%
G01*
G04 APERTURE LIST*
%ADD10C,0.200000*%
%ADD11C,0.150000*%
%ADD12C,0.120000*%
%ADD13C,0.350000*%
G04 APERTURE END LIST*
D10*
G36*
X76534702Y-20689287D02*
G01*
X76620819Y-20775405D01*
X76665797Y-20865362D01*
X76717292Y-21071338D01*
X76717292Y-21218146D01*
X76665797Y-21424122D01*
X76620819Y-21514079D01*
X76534703Y-21600196D01*
X76401066Y-21644742D01*
X76231578Y-21644742D01*
X76231578Y-20644742D01*
X76401065Y-20644742D01*
X76534702Y-20689287D01*
G37*
G36*
X77088721Y-22016171D02*
G01*
X73288720Y-22016171D01*
X73288720Y-20887600D01*
X73460149Y-20887600D01*
X73467272Y-20909523D01*
X73470706Y-20932322D01*
X73527850Y-21046607D01*
X73539222Y-21058153D01*
X73546581Y-21072596D01*
X73603724Y-21129738D01*
X73618163Y-21137095D01*
X73629713Y-21148471D01*
X73743999Y-21205614D01*
X73755019Y-21207273D01*
X73764466Y-21213185D01*
X73982387Y-21267665D01*
X74072342Y-21312642D01*
X74106533Y-21346833D01*
X74145863Y-21425491D01*
X74145863Y-21492563D01*
X74106533Y-21571222D01*
X74072342Y-21605413D01*
X73993685Y-21644742D01*
X73747805Y-21644742D01*
X73591771Y-21592732D01*
X73529969Y-21592262D01*
X73479695Y-21628209D01*
X73460151Y-21686842D01*
X73478803Y-21745763D01*
X73528527Y-21782468D01*
X73699956Y-21839611D01*
X73716164Y-21839734D01*
X73731578Y-21844742D01*
X74017292Y-21844742D01*
X74039215Y-21837618D01*
X74062013Y-21834185D01*
X74176299Y-21777043D01*
X74187848Y-21765668D01*
X74202289Y-21758310D01*
X74259432Y-21701167D01*
X74266790Y-21686724D01*
X74278163Y-21675178D01*
X74335306Y-21560892D01*
X74338739Y-21538094D01*
X74345863Y-21516171D01*
X74345863Y-21401885D01*
X74338739Y-21379961D01*
X74335306Y-21357164D01*
X74278163Y-21242878D01*
X74266789Y-21231331D01*
X74259432Y-21216890D01*
X74202289Y-21159747D01*
X74187849Y-21152389D01*
X74176300Y-21141014D01*
X74062013Y-21083871D01*
X74050992Y-21082211D01*
X74041546Y-21076300D01*
X73823622Y-21021819D01*
X73733669Y-20976841D01*
X73699477Y-20942648D01*
X73660149Y-20863992D01*
X73660149Y-20796921D01*
X73699477Y-20718264D01*
X73733669Y-20684071D01*
X73812327Y-20644742D01*
X74058208Y-20644742D01*
X74214240Y-20696753D01*
X74276042Y-20697223D01*
X74326316Y-20661276D01*
X74345860Y-20602644D01*
X74334864Y-20567904D01*
X74548582Y-20567904D01*
X74834296Y-21767904D01*
X74837891Y-21773796D01*
X74838261Y-21780691D01*
X74853719Y-21799733D01*
X74866490Y-21820661D01*
X74872862Y-21823314D01*
X74877213Y-21828674D01*
X74900902Y-21834991D01*
X74923544Y-21844420D01*
X74930261Y-21842820D01*
X74936930Y-21844599D01*
X74959812Y-21835784D01*
X74983667Y-21830104D01*
X74988159Y-21824863D01*
X74994602Y-21822382D01*
X75007931Y-21801801D01*
X75023893Y-21783184D01*
X75024447Y-21776301D01*
X75028200Y-21770508D01*
X75160148Y-21275701D01*
X75292097Y-21770508D01*
X75295849Y-21776301D01*
X75296404Y-21783184D01*
X75312365Y-21801801D01*
X75325695Y-21822382D01*
X75332137Y-21824863D01*
X75336630Y-21830104D01*
X75360482Y-21835783D01*
X75383367Y-21844599D01*
X75390037Y-21842820D01*
X75396753Y-21844419D01*
X75419387Y-21834993D01*
X75443084Y-21828675D01*
X75447435Y-21823314D01*
X75453808Y-21820661D01*
X75466579Y-21799731D01*
X75482036Y-21780691D01*
X75482405Y-21773796D01*
X75486001Y-21767904D01*
X75491516Y-21744742D01*
X76031578Y-21744742D01*
X76036472Y-21759804D01*
X76036472Y-21775644D01*
X76045781Y-21788457D01*
X76050676Y-21803521D01*
X76063489Y-21812830D01*
X76072799Y-21825644D01*
X76087862Y-21830538D01*
X76100676Y-21839848D01*
X76116515Y-21839848D01*
X76131578Y-21844742D01*
X76417292Y-21844742D01*
X76432707Y-21839733D01*
X76448914Y-21839610D01*
X76620344Y-21782468D01*
X76638892Y-21768775D01*
X76659432Y-21758310D01*
X76773717Y-21644024D01*
X76781074Y-21629583D01*
X76792449Y-21618035D01*
X76849592Y-21503749D01*
X76851251Y-21492728D01*
X76857163Y-21483282D01*
X76914306Y-21254710D01*
X76913445Y-21242294D01*
X76917292Y-21230457D01*
X76917292Y-21059028D01*
X76913445Y-21047190D01*
X76914306Y-21034775D01*
X76857163Y-20806203D01*
X76851251Y-20796756D01*
X76849592Y-20785736D01*
X76792449Y-20671450D01*
X76781074Y-20659901D01*
X76773717Y-20645461D01*
X76659432Y-20531175D01*
X76638892Y-20520709D01*
X76620344Y-20507017D01*
X76448915Y-20449874D01*
X76432707Y-20449750D01*
X76417292Y-20444742D01*
X76131578Y-20444742D01*
X76116515Y-20449636D01*
X76100676Y-20449636D01*
X76087862Y-20458945D01*
X76072799Y-20463840D01*
X76063489Y-20476653D01*
X76050676Y-20485963D01*
X76045781Y-20501026D01*
X76036472Y-20513840D01*
X76036472Y-20529679D01*
X76031578Y-20544742D01*
X76031578Y-21744742D01*
X75491516Y-21744742D01*
X75771716Y-20567904D01*
X75766751Y-20506300D01*
X75726525Y-20459380D01*
X75666402Y-20445065D01*
X75609348Y-20468823D01*
X75577154Y-20521580D01*
X75383231Y-21336054D01*
X75256772Y-20861834D01*
X75253761Y-20857186D01*
X75253465Y-20851651D01*
X75237197Y-20831612D01*
X75223174Y-20809960D01*
X75218003Y-20807968D01*
X75214513Y-20803668D01*
X75189583Y-20797019D01*
X75165502Y-20787743D01*
X75160149Y-20789170D01*
X75154796Y-20787743D01*
X75130714Y-20797019D01*
X75105785Y-20803668D01*
X75102294Y-20807968D01*
X75097124Y-20809960D01*
X75083097Y-20831616D01*
X75066834Y-20851651D01*
X75066537Y-20857184D01*
X75063526Y-20861834D01*
X74937066Y-21336055D01*
X74743144Y-20521580D01*
X74710951Y-20468823D01*
X74653896Y-20445065D01*
X74593773Y-20459380D01*
X74553547Y-20506300D01*
X74548582Y-20567904D01*
X74334864Y-20567904D01*
X74327209Y-20543722D01*
X74277486Y-20507017D01*
X74106058Y-20449874D01*
X74089850Y-20449750D01*
X74074435Y-20444742D01*
X73788720Y-20444742D01*
X73766796Y-20451865D01*
X73743999Y-20455299D01*
X73629713Y-20512442D01*
X73618163Y-20523817D01*
X73603724Y-20531175D01*
X73546581Y-20588317D01*
X73539223Y-20602758D01*
X73527849Y-20614306D01*
X73470706Y-20728593D01*
X73467272Y-20751390D01*
X73460149Y-20773314D01*
X73460149Y-20887600D01*
X73288720Y-20887600D01*
X73288720Y-20273313D01*
X77088721Y-20273313D01*
X77088721Y-22016171D01*
G37*
X70155257Y-30303006D02*
X70155257Y-31045863D01*
X70155257Y-31045863D02*
X69698114Y-30645863D01*
X69698114Y-30645863D02*
X69698114Y-30817292D01*
X69698114Y-30817292D02*
X69640971Y-30931578D01*
X69640971Y-30931578D02*
X69583828Y-30988720D01*
X69583828Y-30988720D02*
X69469542Y-31045863D01*
X69469542Y-31045863D02*
X69183828Y-31045863D01*
X69183828Y-31045863D02*
X69069542Y-30988720D01*
X69069542Y-30988720D02*
X69012400Y-30931578D01*
X69012400Y-30931578D02*
X68955257Y-30817292D01*
X68955257Y-30817292D02*
X68955257Y-30474435D01*
X68955257Y-30474435D02*
X69012400Y-30360149D01*
X69012400Y-30360149D02*
X69069542Y-30303006D01*
X70155257Y-31388720D02*
X68955257Y-31788720D01*
X68955257Y-31788720D02*
X70155257Y-32188720D01*
X70155257Y-32474434D02*
X70155257Y-33217291D01*
X70155257Y-33217291D02*
X69698114Y-32817291D01*
X69698114Y-32817291D02*
X69698114Y-32988720D01*
X69698114Y-32988720D02*
X69640971Y-33103006D01*
X69640971Y-33103006D02*
X69583828Y-33160148D01*
X69583828Y-33160148D02*
X69469542Y-33217291D01*
X69469542Y-33217291D02*
X69183828Y-33217291D01*
X69183828Y-33217291D02*
X69069542Y-33160148D01*
X69069542Y-33160148D02*
X69012400Y-33103006D01*
X69012400Y-33103006D02*
X68955257Y-32988720D01*
X68955257Y-32988720D02*
X68955257Y-32645863D01*
X68955257Y-32645863D02*
X69012400Y-32531577D01*
X69012400Y-32531577D02*
X69069542Y-32474434D01*
G36*
X94687490Y-22016171D02*
G01*
X91745863Y-22016171D01*
X91745863Y-21744742D01*
X91917292Y-21744742D01*
X91936390Y-21803521D01*
X91986390Y-21839848D01*
X92048194Y-21839848D01*
X92098194Y-21803521D01*
X92117292Y-21744742D01*
X92117292Y-21729099D01*
X92375666Y-21729099D01*
X92379329Y-21752226D01*
X92379329Y-21775644D01*
X92384071Y-21782171D01*
X92385334Y-21790141D01*
X92401890Y-21806697D01*
X92415656Y-21825644D01*
X92423330Y-21828137D01*
X92429036Y-21833843D01*
X92452165Y-21837506D01*
X92474435Y-21844742D01*
X93217292Y-21844742D01*
X93276071Y-21825644D01*
X93312398Y-21775644D01*
X93312398Y-21713840D01*
X93276071Y-21663840D01*
X93217292Y-21644742D01*
X92715857Y-21644742D01*
X93130142Y-21230457D01*
X93574435Y-21230457D01*
X93578281Y-21242294D01*
X93577421Y-21254711D01*
X93634564Y-21483282D01*
X93640475Y-21492728D01*
X93642135Y-21503749D01*
X93699278Y-21618036D01*
X93710652Y-21629584D01*
X93718010Y-21644024D01*
X93832295Y-21758310D01*
X93852836Y-21768776D01*
X93871384Y-21782468D01*
X94042813Y-21839611D01*
X94059021Y-21839734D01*
X94074435Y-21844742D01*
X94188721Y-21844742D01*
X94204136Y-21839733D01*
X94220343Y-21839610D01*
X94391772Y-21782468D01*
X94410318Y-21768777D01*
X94430860Y-21758311D01*
X94488002Y-21701168D01*
X94516061Y-21646101D01*
X94506393Y-21585058D01*
X94462691Y-21541356D01*
X94401648Y-21531688D01*
X94346581Y-21559747D01*
X94306130Y-21600196D01*
X94172495Y-21644742D01*
X94090662Y-21644742D01*
X93957024Y-21600197D01*
X93870907Y-21514079D01*
X93825929Y-21424123D01*
X93774435Y-21218147D01*
X93774435Y-21071338D01*
X93825929Y-20865362D01*
X93870907Y-20775405D01*
X93957024Y-20689287D01*
X94090662Y-20644742D01*
X94172494Y-20644742D01*
X94306129Y-20689287D01*
X94346581Y-20729738D01*
X94401648Y-20757797D01*
X94462691Y-20748129D01*
X94506393Y-20704427D01*
X94516061Y-20643384D01*
X94488002Y-20588317D01*
X94430860Y-20531174D01*
X94410318Y-20520707D01*
X94391772Y-20507017D01*
X94220344Y-20449874D01*
X94204136Y-20449750D01*
X94188721Y-20444742D01*
X94074435Y-20444742D01*
X94059019Y-20449750D01*
X94042812Y-20449874D01*
X93871383Y-20507017D01*
X93852834Y-20520709D01*
X93832295Y-20531175D01*
X93718010Y-20645461D01*
X93710652Y-20659900D01*
X93699278Y-20671449D01*
X93642135Y-20785736D01*
X93640475Y-20796756D01*
X93634564Y-20806203D01*
X93577421Y-21034774D01*
X93578281Y-21047190D01*
X93574435Y-21059028D01*
X93574435Y-21230457D01*
X93130142Y-21230457D01*
X93230860Y-21129739D01*
X93241326Y-21109197D01*
X93255017Y-21090651D01*
X93312160Y-20919223D01*
X93312283Y-20903015D01*
X93317292Y-20887600D01*
X93317292Y-20773314D01*
X93310168Y-20751390D01*
X93306735Y-20728593D01*
X93249592Y-20614307D01*
X93238219Y-20602760D01*
X93230861Y-20588318D01*
X93173718Y-20531175D01*
X93159278Y-20523817D01*
X93147729Y-20512442D01*
X93033442Y-20455299D01*
X93010644Y-20451865D01*
X92988721Y-20444742D01*
X92703007Y-20444742D01*
X92681083Y-20451865D01*
X92658286Y-20455299D01*
X92544000Y-20512442D01*
X92532451Y-20523816D01*
X92518010Y-20531175D01*
X92460867Y-20588317D01*
X92432809Y-20643385D01*
X92442477Y-20704427D01*
X92486179Y-20748129D01*
X92547221Y-20757797D01*
X92602289Y-20729739D01*
X92647956Y-20684070D01*
X92726615Y-20644742D01*
X92965114Y-20644742D01*
X93043771Y-20684070D01*
X93077962Y-20718262D01*
X93117292Y-20796921D01*
X93117292Y-20871372D01*
X93072746Y-21005008D01*
X92403724Y-21674031D01*
X92393093Y-21694894D01*
X92379329Y-21713840D01*
X92379329Y-21721909D01*
X92375666Y-21729099D01*
X92117292Y-21729099D01*
X92117292Y-20544742D01*
X92098194Y-20485963D01*
X92048194Y-20449636D01*
X91986390Y-20449636D01*
X91936390Y-20485963D01*
X91917292Y-20544742D01*
X91917292Y-21744742D01*
X91745863Y-21744742D01*
X91745863Y-20273313D01*
X94687490Y-20273313D01*
X94687490Y-22016171D01*
G37*
X90087600Y-33039850D02*
X90144742Y-32868422D01*
X90144742Y-32868422D02*
X90144742Y-32582707D01*
X90144742Y-32582707D02*
X90087600Y-32468422D01*
X90087600Y-32468422D02*
X90030457Y-32411279D01*
X90030457Y-32411279D02*
X89916171Y-32354136D01*
X89916171Y-32354136D02*
X89801885Y-32354136D01*
X89801885Y-32354136D02*
X89687600Y-32411279D01*
X89687600Y-32411279D02*
X89630457Y-32468422D01*
X89630457Y-32468422D02*
X89573314Y-32582707D01*
X89573314Y-32582707D02*
X89516171Y-32811279D01*
X89516171Y-32811279D02*
X89459028Y-32925564D01*
X89459028Y-32925564D02*
X89401885Y-32982707D01*
X89401885Y-32982707D02*
X89287600Y-33039850D01*
X89287600Y-33039850D02*
X89173314Y-33039850D01*
X89173314Y-33039850D02*
X89059028Y-32982707D01*
X89059028Y-32982707D02*
X89001885Y-32925564D01*
X89001885Y-32925564D02*
X88944742Y-32811279D01*
X88944742Y-32811279D02*
X88944742Y-32525564D01*
X88944742Y-32525564D02*
X89001885Y-32354136D01*
X90144742Y-31839850D02*
X88944742Y-31839850D01*
X88944742Y-31839850D02*
X88944742Y-31554136D01*
X88944742Y-31554136D02*
X89001885Y-31382707D01*
X89001885Y-31382707D02*
X89116171Y-31268422D01*
X89116171Y-31268422D02*
X89230457Y-31211279D01*
X89230457Y-31211279D02*
X89459028Y-31154136D01*
X89459028Y-31154136D02*
X89630457Y-31154136D01*
X89630457Y-31154136D02*
X89859028Y-31211279D01*
X89859028Y-31211279D02*
X89973314Y-31268422D01*
X89973314Y-31268422D02*
X90087600Y-31382707D01*
X90087600Y-31382707D02*
X90144742Y-31554136D01*
X90144742Y-31554136D02*
X90144742Y-31839850D01*
X89801885Y-30696993D02*
X89801885Y-30125565D01*
X90144742Y-30811279D02*
X88944742Y-30411279D01*
X88944742Y-30411279D02*
X90144742Y-30011279D01*
X66912400Y-30360149D02*
X66855257Y-30531578D01*
X66855257Y-30531578D02*
X66855257Y-30817292D01*
X66855257Y-30817292D02*
X66912400Y-30931578D01*
X66912400Y-30931578D02*
X66969542Y-30988720D01*
X66969542Y-30988720D02*
X67083828Y-31045863D01*
X67083828Y-31045863D02*
X67198114Y-31045863D01*
X67198114Y-31045863D02*
X67312400Y-30988720D01*
X67312400Y-30988720D02*
X67369542Y-30931578D01*
X67369542Y-30931578D02*
X67426685Y-30817292D01*
X67426685Y-30817292D02*
X67483828Y-30588720D01*
X67483828Y-30588720D02*
X67540971Y-30474435D01*
X67540971Y-30474435D02*
X67598114Y-30417292D01*
X67598114Y-30417292D02*
X67712400Y-30360149D01*
X67712400Y-30360149D02*
X67826685Y-30360149D01*
X67826685Y-30360149D02*
X67940971Y-30417292D01*
X67940971Y-30417292D02*
X67998114Y-30474435D01*
X67998114Y-30474435D02*
X68055257Y-30588720D01*
X68055257Y-30588720D02*
X68055257Y-30874435D01*
X68055257Y-30874435D02*
X67998114Y-31045863D01*
X68055257Y-31445863D02*
X66855257Y-31731577D01*
X66855257Y-31731577D02*
X67712400Y-31960149D01*
X67712400Y-31960149D02*
X66855257Y-32188720D01*
X66855257Y-32188720D02*
X68055257Y-32474435D01*
X66969542Y-33617292D02*
X66912400Y-33560149D01*
X66912400Y-33560149D02*
X66855257Y-33388721D01*
X66855257Y-33388721D02*
X66855257Y-33274435D01*
X66855257Y-33274435D02*
X66912400Y-33103006D01*
X66912400Y-33103006D02*
X67026685Y-32988721D01*
X67026685Y-32988721D02*
X67140971Y-32931578D01*
X67140971Y-32931578D02*
X67369542Y-32874435D01*
X67369542Y-32874435D02*
X67540971Y-32874435D01*
X67540971Y-32874435D02*
X67769542Y-32931578D01*
X67769542Y-32931578D02*
X67883828Y-32988721D01*
X67883828Y-32988721D02*
X67998114Y-33103006D01*
X67998114Y-33103006D02*
X68055257Y-33274435D01*
X68055257Y-33274435D02*
X68055257Y-33388721D01*
X68055257Y-33388721D02*
X67998114Y-33560149D01*
X67998114Y-33560149D02*
X67940971Y-33617292D01*
X66855257Y-34703006D02*
X66855257Y-34131578D01*
X66855257Y-34131578D02*
X68055257Y-34131578D01*
X66855257Y-35103007D02*
X68055257Y-35103007D01*
X66855257Y-35788721D02*
X67540971Y-35274435D01*
X68055257Y-35788721D02*
X67369542Y-35103007D01*
X26316171Y-82582707D02*
X26316171Y-82182707D01*
X26944742Y-82011279D02*
X26944742Y-82582707D01*
X26944742Y-82582707D02*
X25744742Y-82582707D01*
X25744742Y-82582707D02*
X25744742Y-82011279D01*
X26487600Y-81496993D02*
X26487600Y-80582708D01*
X26944742Y-80011279D02*
X25744742Y-80011279D01*
X26144742Y-79439850D02*
X26944742Y-79439850D01*
X26259028Y-79439850D02*
X26201885Y-79382707D01*
X26201885Y-79382707D02*
X26144742Y-79268422D01*
X26144742Y-79268422D02*
X26144742Y-79096993D01*
X26144742Y-79096993D02*
X26201885Y-78982707D01*
X26201885Y-78982707D02*
X26316171Y-78925565D01*
X26316171Y-78925565D02*
X26944742Y-78925565D01*
X26944742Y-78354136D02*
X25744742Y-78354136D01*
X26487600Y-78239851D02*
X26944742Y-77896993D01*
X26144742Y-77896993D02*
X26601885Y-78354136D01*
X27059028Y-77668422D02*
X27059028Y-76754136D01*
X25744742Y-76582707D02*
X26944742Y-76296993D01*
X26944742Y-76296993D02*
X26087600Y-76068421D01*
X26087600Y-76068421D02*
X26944742Y-75839850D01*
X26944742Y-75839850D02*
X25744742Y-75554136D01*
X26944742Y-74582707D02*
X26316171Y-74582707D01*
X26316171Y-74582707D02*
X26201885Y-74639849D01*
X26201885Y-74639849D02*
X26144742Y-74754135D01*
X26144742Y-74754135D02*
X26144742Y-74982707D01*
X26144742Y-74982707D02*
X26201885Y-75096992D01*
X26887600Y-74582707D02*
X26944742Y-74696992D01*
X26944742Y-74696992D02*
X26944742Y-74982707D01*
X26944742Y-74982707D02*
X26887600Y-75096992D01*
X26887600Y-75096992D02*
X26773314Y-75154135D01*
X26773314Y-75154135D02*
X26659028Y-75154135D01*
X26659028Y-75154135D02*
X26544742Y-75096992D01*
X26544742Y-75096992D02*
X26487600Y-74982707D01*
X26487600Y-74982707D02*
X26487600Y-74696992D01*
X26487600Y-74696992D02*
X26430457Y-74582707D01*
X26144742Y-74125564D02*
X26944742Y-73839850D01*
X26944742Y-73839850D02*
X26144742Y-73554135D01*
X26887600Y-72639849D02*
X26944742Y-72754135D01*
X26944742Y-72754135D02*
X26944742Y-72982707D01*
X26944742Y-72982707D02*
X26887600Y-73096992D01*
X26887600Y-73096992D02*
X26773314Y-73154135D01*
X26773314Y-73154135D02*
X26316171Y-73154135D01*
X26316171Y-73154135D02*
X26201885Y-73096992D01*
X26201885Y-73096992D02*
X26144742Y-72982707D01*
X26144742Y-72982707D02*
X26144742Y-72754135D01*
X26144742Y-72754135D02*
X26201885Y-72639849D01*
X26201885Y-72639849D02*
X26316171Y-72582707D01*
X26316171Y-72582707D02*
X26430457Y-72582707D01*
X26430457Y-72582707D02*
X26544742Y-73154135D01*
X26887600Y-72125564D02*
X26944742Y-72011278D01*
X26944742Y-72011278D02*
X26944742Y-71782707D01*
X26944742Y-71782707D02*
X26887600Y-71668421D01*
X26887600Y-71668421D02*
X26773314Y-71611278D01*
X26773314Y-71611278D02*
X26716171Y-71611278D01*
X26716171Y-71611278D02*
X26601885Y-71668421D01*
X26601885Y-71668421D02*
X26544742Y-71782707D01*
X26544742Y-71782707D02*
X26544742Y-71954136D01*
X26544742Y-71954136D02*
X26487600Y-72068421D01*
X26487600Y-72068421D02*
X26373314Y-72125564D01*
X26373314Y-72125564D02*
X26316171Y-72125564D01*
X26316171Y-72125564D02*
X26201885Y-72068421D01*
X26201885Y-72068421D02*
X26144742Y-71954136D01*
X26144742Y-71954136D02*
X26144742Y-71782707D01*
X26144742Y-71782707D02*
X26201885Y-71668421D01*
X26944742Y-71096992D02*
X25744742Y-71096992D01*
X26944742Y-70582707D02*
X26316171Y-70582707D01*
X26316171Y-70582707D02*
X26201885Y-70639849D01*
X26201885Y-70639849D02*
X26144742Y-70754135D01*
X26144742Y-70754135D02*
X26144742Y-70925564D01*
X26144742Y-70925564D02*
X26201885Y-71039849D01*
X26201885Y-71039849D02*
X26259028Y-71096992D01*
X26944742Y-69496993D02*
X26316171Y-69496993D01*
X26316171Y-69496993D02*
X26201885Y-69554135D01*
X26201885Y-69554135D02*
X26144742Y-69668421D01*
X26144742Y-69668421D02*
X26144742Y-69896993D01*
X26144742Y-69896993D02*
X26201885Y-70011278D01*
X26887600Y-69496993D02*
X26944742Y-69611278D01*
X26944742Y-69611278D02*
X26944742Y-69896993D01*
X26944742Y-69896993D02*
X26887600Y-70011278D01*
X26887600Y-70011278D02*
X26773314Y-70068421D01*
X26773314Y-70068421D02*
X26659028Y-70068421D01*
X26659028Y-70068421D02*
X26544742Y-70011278D01*
X26544742Y-70011278D02*
X26487600Y-69896993D01*
X26487600Y-69896993D02*
X26487600Y-69611278D01*
X26487600Y-69611278D02*
X26430457Y-69496993D01*
X26944742Y-68925564D02*
X26144742Y-68925564D01*
X26373314Y-68925564D02*
X26259028Y-68868421D01*
X26259028Y-68868421D02*
X26201885Y-68811279D01*
X26201885Y-68811279D02*
X26144742Y-68696993D01*
X26144742Y-68696993D02*
X26144742Y-68582707D01*
X26887600Y-67725564D02*
X26944742Y-67839850D01*
X26944742Y-67839850D02*
X26944742Y-68068422D01*
X26944742Y-68068422D02*
X26887600Y-68182707D01*
X26887600Y-68182707D02*
X26773314Y-68239850D01*
X26773314Y-68239850D02*
X26316171Y-68239850D01*
X26316171Y-68239850D02*
X26201885Y-68182707D01*
X26201885Y-68182707D02*
X26144742Y-68068422D01*
X26144742Y-68068422D02*
X26144742Y-67839850D01*
X26144742Y-67839850D02*
X26201885Y-67725564D01*
X26201885Y-67725564D02*
X26316171Y-67668422D01*
X26316171Y-67668422D02*
X26430457Y-67668422D01*
X26430457Y-67668422D02*
X26544742Y-68239850D01*
X27059028Y-67439851D02*
X27059028Y-66525565D01*
X26144742Y-65725565D02*
X26944742Y-65725565D01*
X25687600Y-66011279D02*
X26544742Y-66296993D01*
X26544742Y-66296993D02*
X26544742Y-65554136D01*
X26830457Y-65096993D02*
X26887600Y-65039850D01*
X26887600Y-65039850D02*
X26944742Y-65096993D01*
X26944742Y-65096993D02*
X26887600Y-65154136D01*
X26887600Y-65154136D02*
X26830457Y-65096993D01*
X26830457Y-65096993D02*
X26944742Y-65096993D01*
X25859028Y-64582707D02*
X25801885Y-64525564D01*
X25801885Y-64525564D02*
X25744742Y-64411279D01*
X25744742Y-64411279D02*
X25744742Y-64125564D01*
X25744742Y-64125564D02*
X25801885Y-64011279D01*
X25801885Y-64011279D02*
X25859028Y-63954136D01*
X25859028Y-63954136D02*
X25973314Y-63896993D01*
X25973314Y-63896993D02*
X26087600Y-63896993D01*
X26087600Y-63896993D02*
X26259028Y-63954136D01*
X26259028Y-63954136D02*
X26944742Y-64639850D01*
X26944742Y-64639850D02*
X26944742Y-63896993D01*
X36598114Y-32045863D02*
X36655257Y-31931578D01*
X36655257Y-31931578D02*
X36655257Y-31760149D01*
X36655257Y-31760149D02*
X36598114Y-31588720D01*
X36598114Y-31588720D02*
X36483828Y-31474435D01*
X36483828Y-31474435D02*
X36369542Y-31417292D01*
X36369542Y-31417292D02*
X36140971Y-31360149D01*
X36140971Y-31360149D02*
X35969542Y-31360149D01*
X35969542Y-31360149D02*
X35740971Y-31417292D01*
X35740971Y-31417292D02*
X35626685Y-31474435D01*
X35626685Y-31474435D02*
X35512400Y-31588720D01*
X35512400Y-31588720D02*
X35455257Y-31760149D01*
X35455257Y-31760149D02*
X35455257Y-31874435D01*
X35455257Y-31874435D02*
X35512400Y-32045863D01*
X35512400Y-32045863D02*
X35569542Y-32103006D01*
X35569542Y-32103006D02*
X35969542Y-32103006D01*
X35969542Y-32103006D02*
X35969542Y-31874435D01*
X35455257Y-32617292D02*
X36655257Y-32617292D01*
X36655257Y-32617292D02*
X35455257Y-33303006D01*
X35455257Y-33303006D02*
X36655257Y-33303006D01*
X35455257Y-33874435D02*
X36655257Y-33874435D01*
X36655257Y-33874435D02*
X36655257Y-34160149D01*
X36655257Y-34160149D02*
X36598114Y-34331578D01*
X36598114Y-34331578D02*
X36483828Y-34445863D01*
X36483828Y-34445863D02*
X36369542Y-34503006D01*
X36369542Y-34503006D02*
X36140971Y-34560149D01*
X36140971Y-34560149D02*
X35969542Y-34560149D01*
X35969542Y-34560149D02*
X35740971Y-34503006D01*
X35740971Y-34503006D02*
X35626685Y-34445863D01*
X35626685Y-34445863D02*
X35512400Y-34331578D01*
X35512400Y-34331578D02*
X35455257Y-34160149D01*
X35455257Y-34160149D02*
X35455257Y-33874435D01*
X65998114Y-31045863D02*
X66055257Y-30931578D01*
X66055257Y-30931578D02*
X66055257Y-30760149D01*
X66055257Y-30760149D02*
X65998114Y-30588720D01*
X65998114Y-30588720D02*
X65883828Y-30474435D01*
X65883828Y-30474435D02*
X65769542Y-30417292D01*
X65769542Y-30417292D02*
X65540971Y-30360149D01*
X65540971Y-30360149D02*
X65369542Y-30360149D01*
X65369542Y-30360149D02*
X65140971Y-30417292D01*
X65140971Y-30417292D02*
X65026685Y-30474435D01*
X65026685Y-30474435D02*
X64912400Y-30588720D01*
X64912400Y-30588720D02*
X64855257Y-30760149D01*
X64855257Y-30760149D02*
X64855257Y-30874435D01*
X64855257Y-30874435D02*
X64912400Y-31045863D01*
X64912400Y-31045863D02*
X64969542Y-31103006D01*
X64969542Y-31103006D02*
X65369542Y-31103006D01*
X65369542Y-31103006D02*
X65369542Y-30874435D01*
X64855257Y-31617292D02*
X66055257Y-31617292D01*
X66055257Y-31617292D02*
X64855257Y-32303006D01*
X64855257Y-32303006D02*
X66055257Y-32303006D01*
X64855257Y-32874435D02*
X66055257Y-32874435D01*
X66055257Y-32874435D02*
X66055257Y-33160149D01*
X66055257Y-33160149D02*
X65998114Y-33331578D01*
X65998114Y-33331578D02*
X65883828Y-33445863D01*
X65883828Y-33445863D02*
X65769542Y-33503006D01*
X65769542Y-33503006D02*
X65540971Y-33560149D01*
X65540971Y-33560149D02*
X65369542Y-33560149D01*
X65369542Y-33560149D02*
X65140971Y-33503006D01*
X65140971Y-33503006D02*
X65026685Y-33445863D01*
X65026685Y-33445863D02*
X64912400Y-33331578D01*
X64912400Y-33331578D02*
X64855257Y-33160149D01*
X64855257Y-33160149D02*
X64855257Y-32874435D01*
X83801885Y-32354136D02*
X83744742Y-32468422D01*
X83744742Y-32468422D02*
X83744742Y-32639850D01*
X83744742Y-32639850D02*
X83801885Y-32811279D01*
X83801885Y-32811279D02*
X83916171Y-32925564D01*
X83916171Y-32925564D02*
X84030457Y-32982707D01*
X84030457Y-32982707D02*
X84259028Y-33039850D01*
X84259028Y-33039850D02*
X84430457Y-33039850D01*
X84430457Y-33039850D02*
X84659028Y-32982707D01*
X84659028Y-32982707D02*
X84773314Y-32925564D01*
X84773314Y-32925564D02*
X84887600Y-32811279D01*
X84887600Y-32811279D02*
X84944742Y-32639850D01*
X84944742Y-32639850D02*
X84944742Y-32525564D01*
X84944742Y-32525564D02*
X84887600Y-32354136D01*
X84887600Y-32354136D02*
X84830457Y-32296993D01*
X84830457Y-32296993D02*
X84430457Y-32296993D01*
X84430457Y-32296993D02*
X84430457Y-32525564D01*
X84944742Y-31782707D02*
X83744742Y-31782707D01*
X83744742Y-31782707D02*
X84944742Y-31096993D01*
X84944742Y-31096993D02*
X83744742Y-31096993D01*
X84944742Y-30525564D02*
X83744742Y-30525564D01*
X83744742Y-30525564D02*
X83744742Y-30239850D01*
X83744742Y-30239850D02*
X83801885Y-30068421D01*
X83801885Y-30068421D02*
X83916171Y-29954136D01*
X83916171Y-29954136D02*
X84030457Y-29896993D01*
X84030457Y-29896993D02*
X84259028Y-29839850D01*
X84259028Y-29839850D02*
X84430457Y-29839850D01*
X84430457Y-29839850D02*
X84659028Y-29896993D01*
X84659028Y-29896993D02*
X84773314Y-29954136D01*
X84773314Y-29954136D02*
X84887600Y-30068421D01*
X84887600Y-30068421D02*
X84944742Y-30239850D01*
X84944742Y-30239850D02*
X84944742Y-30525564D01*
X58360149Y-60987600D02*
X58531578Y-61044742D01*
X58531578Y-61044742D02*
X58817292Y-61044742D01*
X58817292Y-61044742D02*
X58931578Y-60987600D01*
X58931578Y-60987600D02*
X58988720Y-60930457D01*
X58988720Y-60930457D02*
X59045863Y-60816171D01*
X59045863Y-60816171D02*
X59045863Y-60701885D01*
X59045863Y-60701885D02*
X58988720Y-60587600D01*
X58988720Y-60587600D02*
X58931578Y-60530457D01*
X58931578Y-60530457D02*
X58817292Y-60473314D01*
X58817292Y-60473314D02*
X58588720Y-60416171D01*
X58588720Y-60416171D02*
X58474435Y-60359028D01*
X58474435Y-60359028D02*
X58417292Y-60301885D01*
X58417292Y-60301885D02*
X58360149Y-60187600D01*
X58360149Y-60187600D02*
X58360149Y-60073314D01*
X58360149Y-60073314D02*
X58417292Y-59959028D01*
X58417292Y-59959028D02*
X58474435Y-59901885D01*
X58474435Y-59901885D02*
X58588720Y-59844742D01*
X58588720Y-59844742D02*
X58874435Y-59844742D01*
X58874435Y-59844742D02*
X59045863Y-59901885D01*
X59388720Y-59844742D02*
X60074435Y-59844742D01*
X59731577Y-61044742D02*
X59731577Y-59844742D01*
X60474435Y-61044742D02*
X60474435Y-59844742D01*
X60474435Y-59844742D02*
X60874435Y-60701885D01*
X60874435Y-60701885D02*
X61274435Y-59844742D01*
X61274435Y-59844742D02*
X61274435Y-61044742D01*
X61731578Y-59844742D02*
X62474435Y-59844742D01*
X62474435Y-59844742D02*
X62074435Y-60301885D01*
X62074435Y-60301885D02*
X62245864Y-60301885D01*
X62245864Y-60301885D02*
X62360150Y-60359028D01*
X62360150Y-60359028D02*
X62417292Y-60416171D01*
X62417292Y-60416171D02*
X62474435Y-60530457D01*
X62474435Y-60530457D02*
X62474435Y-60816171D01*
X62474435Y-60816171D02*
X62417292Y-60930457D01*
X62417292Y-60930457D02*
X62360150Y-60987600D01*
X62360150Y-60987600D02*
X62245864Y-61044742D01*
X62245864Y-61044742D02*
X61903007Y-61044742D01*
X61903007Y-61044742D02*
X61788721Y-60987600D01*
X61788721Y-60987600D02*
X61731578Y-60930457D01*
X62931578Y-59959028D02*
X62988721Y-59901885D01*
X62988721Y-59901885D02*
X63103007Y-59844742D01*
X63103007Y-59844742D02*
X63388721Y-59844742D01*
X63388721Y-59844742D02*
X63503007Y-59901885D01*
X63503007Y-59901885D02*
X63560149Y-59959028D01*
X63560149Y-59959028D02*
X63617292Y-60073314D01*
X63617292Y-60073314D02*
X63617292Y-60187600D01*
X63617292Y-60187600D02*
X63560149Y-60359028D01*
X63560149Y-60359028D02*
X62874435Y-61044742D01*
X62874435Y-61044742D02*
X63617292Y-61044742D01*
X64703006Y-61044742D02*
X64131578Y-61044742D01*
X64131578Y-61044742D02*
X64131578Y-59844742D01*
X65617293Y-60244742D02*
X65617293Y-61044742D01*
X65331578Y-59787600D02*
X65045864Y-60644742D01*
X65045864Y-60644742D02*
X65788721Y-60644742D01*
X66817292Y-59844742D02*
X66245864Y-59844742D01*
X66245864Y-59844742D02*
X66188721Y-60416171D01*
X66188721Y-60416171D02*
X66245864Y-60359028D01*
X66245864Y-60359028D02*
X66360150Y-60301885D01*
X66360150Y-60301885D02*
X66645864Y-60301885D01*
X66645864Y-60301885D02*
X66760150Y-60359028D01*
X66760150Y-60359028D02*
X66817292Y-60416171D01*
X66817292Y-60416171D02*
X66874435Y-60530457D01*
X66874435Y-60530457D02*
X66874435Y-60816171D01*
X66874435Y-60816171D02*
X66817292Y-60930457D01*
X66817292Y-60930457D02*
X66760150Y-60987600D01*
X66760150Y-60987600D02*
X66645864Y-61044742D01*
X66645864Y-61044742D02*
X66360150Y-61044742D01*
X66360150Y-61044742D02*
X66245864Y-60987600D01*
X66245864Y-60987600D02*
X66188721Y-60930457D01*
X68017292Y-61044742D02*
X67331578Y-61044742D01*
X67674435Y-61044742D02*
X67674435Y-59844742D01*
X67674435Y-59844742D02*
X67560149Y-60016171D01*
X67560149Y-60016171D02*
X67445864Y-60130457D01*
X67445864Y-60130457D02*
X67331578Y-60187600D01*
X69217292Y-61044742D02*
X68817292Y-60473314D01*
X68531578Y-61044742D02*
X68531578Y-59844742D01*
X68531578Y-59844742D02*
X68988721Y-59844742D01*
X68988721Y-59844742D02*
X69103006Y-59901885D01*
X69103006Y-59901885D02*
X69160149Y-59959028D01*
X69160149Y-59959028D02*
X69217292Y-60073314D01*
X69217292Y-60073314D02*
X69217292Y-60244742D01*
X69217292Y-60244742D02*
X69160149Y-60359028D01*
X69160149Y-60359028D02*
X69103006Y-60416171D01*
X69103006Y-60416171D02*
X68988721Y-60473314D01*
X68988721Y-60473314D02*
X68531578Y-60473314D01*
X70417292Y-60930457D02*
X70360149Y-60987600D01*
X70360149Y-60987600D02*
X70188721Y-61044742D01*
X70188721Y-61044742D02*
X70074435Y-61044742D01*
X70074435Y-61044742D02*
X69903006Y-60987600D01*
X69903006Y-60987600D02*
X69788721Y-60873314D01*
X69788721Y-60873314D02*
X69731578Y-60759028D01*
X69731578Y-60759028D02*
X69674435Y-60530457D01*
X69674435Y-60530457D02*
X69674435Y-60359028D01*
X69674435Y-60359028D02*
X69731578Y-60130457D01*
X69731578Y-60130457D02*
X69788721Y-60016171D01*
X69788721Y-60016171D02*
X69903006Y-59901885D01*
X69903006Y-59901885D02*
X70074435Y-59844742D01*
X70074435Y-59844742D02*
X70188721Y-59844742D01*
X70188721Y-59844742D02*
X70360149Y-59901885D01*
X70360149Y-59901885D02*
X70417292Y-59959028D01*
X70760149Y-59844742D02*
X71445864Y-59844742D01*
X71103006Y-61044742D02*
X71103006Y-59844742D01*
X72360150Y-59844742D02*
X72131578Y-59844742D01*
X72131578Y-59844742D02*
X72017292Y-59901885D01*
X72017292Y-59901885D02*
X71960150Y-59959028D01*
X71960150Y-59959028D02*
X71845864Y-60130457D01*
X71845864Y-60130457D02*
X71788721Y-60359028D01*
X71788721Y-60359028D02*
X71788721Y-60816171D01*
X71788721Y-60816171D02*
X71845864Y-60930457D01*
X71845864Y-60930457D02*
X71903007Y-60987600D01*
X71903007Y-60987600D02*
X72017292Y-61044742D01*
X72017292Y-61044742D02*
X72245864Y-61044742D01*
X72245864Y-61044742D02*
X72360150Y-60987600D01*
X72360150Y-60987600D02*
X72417292Y-60930457D01*
X72417292Y-60930457D02*
X72474435Y-60816171D01*
X72474435Y-60816171D02*
X72474435Y-60530457D01*
X72474435Y-60530457D02*
X72417292Y-60416171D01*
X72417292Y-60416171D02*
X72360150Y-60359028D01*
X72360150Y-60359028D02*
X72245864Y-60301885D01*
X72245864Y-60301885D02*
X72017292Y-60301885D01*
X72017292Y-60301885D02*
X71903007Y-60359028D01*
X71903007Y-60359028D02*
X71845864Y-60416171D01*
X71845864Y-60416171D02*
X71788721Y-60530457D01*
X39455257Y-32353006D02*
X40026685Y-31953006D01*
X39455257Y-31667292D02*
X40655257Y-31667292D01*
X40655257Y-31667292D02*
X40655257Y-32124435D01*
X40655257Y-32124435D02*
X40598114Y-32238720D01*
X40598114Y-32238720D02*
X40540971Y-32295863D01*
X40540971Y-32295863D02*
X40426685Y-32353006D01*
X40426685Y-32353006D02*
X40255257Y-32353006D01*
X40255257Y-32353006D02*
X40140971Y-32295863D01*
X40140971Y-32295863D02*
X40083828Y-32238720D01*
X40083828Y-32238720D02*
X40026685Y-32124435D01*
X40026685Y-32124435D02*
X40026685Y-31667292D01*
X40655257Y-32753006D02*
X39455257Y-33553006D01*
X40655257Y-33553006D02*
X39455257Y-32753006D01*
X81344742Y-32896993D02*
X81344742Y-32154136D01*
X81344742Y-32154136D02*
X81801885Y-32554136D01*
X81801885Y-32554136D02*
X81801885Y-32382707D01*
X81801885Y-32382707D02*
X81859028Y-32268422D01*
X81859028Y-32268422D02*
X81916171Y-32211279D01*
X81916171Y-32211279D02*
X82030457Y-32154136D01*
X82030457Y-32154136D02*
X82316171Y-32154136D01*
X82316171Y-32154136D02*
X82430457Y-32211279D01*
X82430457Y-32211279D02*
X82487600Y-32268422D01*
X82487600Y-32268422D02*
X82544742Y-32382707D01*
X82544742Y-32382707D02*
X82544742Y-32725564D01*
X82544742Y-32725564D02*
X82487600Y-32839850D01*
X82487600Y-32839850D02*
X82430457Y-32896993D01*
X81344742Y-31811279D02*
X82544742Y-31411279D01*
X82544742Y-31411279D02*
X81344742Y-31011279D01*
X81344742Y-30725565D02*
X81344742Y-29982708D01*
X81344742Y-29982708D02*
X81801885Y-30382708D01*
X81801885Y-30382708D02*
X81801885Y-30211279D01*
X81801885Y-30211279D02*
X81859028Y-30096994D01*
X81859028Y-30096994D02*
X81916171Y-30039851D01*
X81916171Y-30039851D02*
X82030457Y-29982708D01*
X82030457Y-29982708D02*
X82316171Y-29982708D01*
X82316171Y-29982708D02*
X82430457Y-30039851D01*
X82430457Y-30039851D02*
X82487600Y-30096994D01*
X82487600Y-30096994D02*
X82544742Y-30211279D01*
X82544742Y-30211279D02*
X82544742Y-30554136D01*
X82544742Y-30554136D02*
X82487600Y-30668422D01*
X82487600Y-30668422D02*
X82430457Y-30725565D01*
X38655257Y-31495863D02*
X38655257Y-32181578D01*
X37455257Y-31838720D02*
X38655257Y-31838720D01*
X38655257Y-32467292D02*
X37455257Y-33267292D01*
X38655257Y-33267292D02*
X37455257Y-32467292D01*
X60855257Y-30417292D02*
X62055257Y-30417292D01*
X62055257Y-30417292D02*
X60855257Y-31103006D01*
X60855257Y-31103006D02*
X62055257Y-31103006D01*
X60855257Y-32360149D02*
X61426685Y-31960149D01*
X60855257Y-31674435D02*
X62055257Y-31674435D01*
X62055257Y-31674435D02*
X62055257Y-32131578D01*
X62055257Y-32131578D02*
X61998114Y-32245863D01*
X61998114Y-32245863D02*
X61940971Y-32303006D01*
X61940971Y-32303006D02*
X61826685Y-32360149D01*
X61826685Y-32360149D02*
X61655257Y-32360149D01*
X61655257Y-32360149D02*
X61540971Y-32303006D01*
X61540971Y-32303006D02*
X61483828Y-32245863D01*
X61483828Y-32245863D02*
X61426685Y-32131578D01*
X61426685Y-32131578D02*
X61426685Y-31674435D01*
X60912400Y-32817292D02*
X60855257Y-32988721D01*
X60855257Y-32988721D02*
X60855257Y-33274435D01*
X60855257Y-33274435D02*
X60912400Y-33388721D01*
X60912400Y-33388721D02*
X60969542Y-33445863D01*
X60969542Y-33445863D02*
X61083828Y-33503006D01*
X61083828Y-33503006D02*
X61198114Y-33503006D01*
X61198114Y-33503006D02*
X61312400Y-33445863D01*
X61312400Y-33445863D02*
X61369542Y-33388721D01*
X61369542Y-33388721D02*
X61426685Y-33274435D01*
X61426685Y-33274435D02*
X61483828Y-33045863D01*
X61483828Y-33045863D02*
X61540971Y-32931578D01*
X61540971Y-32931578D02*
X61598114Y-32874435D01*
X61598114Y-32874435D02*
X61712400Y-32817292D01*
X61712400Y-32817292D02*
X61826685Y-32817292D01*
X61826685Y-32817292D02*
X61940971Y-32874435D01*
X61940971Y-32874435D02*
X61998114Y-32931578D01*
X61998114Y-32931578D02*
X62055257Y-33045863D01*
X62055257Y-33045863D02*
X62055257Y-33331578D01*
X62055257Y-33331578D02*
X61998114Y-33503006D01*
X62055257Y-33845863D02*
X62055257Y-34531578D01*
X60855257Y-34188720D02*
X62055257Y-34188720D01*
X62912400Y-30360149D02*
X62855257Y-30531578D01*
X62855257Y-30531578D02*
X62855257Y-30817292D01*
X62855257Y-30817292D02*
X62912400Y-30931578D01*
X62912400Y-30931578D02*
X62969542Y-30988720D01*
X62969542Y-30988720D02*
X63083828Y-31045863D01*
X63083828Y-31045863D02*
X63198114Y-31045863D01*
X63198114Y-31045863D02*
X63312400Y-30988720D01*
X63312400Y-30988720D02*
X63369542Y-30931578D01*
X63369542Y-30931578D02*
X63426685Y-30817292D01*
X63426685Y-30817292D02*
X63483828Y-30588720D01*
X63483828Y-30588720D02*
X63540971Y-30474435D01*
X63540971Y-30474435D02*
X63598114Y-30417292D01*
X63598114Y-30417292D02*
X63712400Y-30360149D01*
X63712400Y-30360149D02*
X63826685Y-30360149D01*
X63826685Y-30360149D02*
X63940971Y-30417292D01*
X63940971Y-30417292D02*
X63998114Y-30474435D01*
X63998114Y-30474435D02*
X64055257Y-30588720D01*
X64055257Y-30588720D02*
X64055257Y-30874435D01*
X64055257Y-30874435D02*
X63998114Y-31045863D01*
X64055257Y-31445863D02*
X62855257Y-31731577D01*
X62855257Y-31731577D02*
X63712400Y-31960149D01*
X63712400Y-31960149D02*
X62855257Y-32188720D01*
X62855257Y-32188720D02*
X64055257Y-32474435D01*
X62855257Y-32931578D02*
X64055257Y-32931578D01*
X64055257Y-32931578D02*
X64055257Y-33217292D01*
X64055257Y-33217292D02*
X63998114Y-33388721D01*
X63998114Y-33388721D02*
X63883828Y-33503006D01*
X63883828Y-33503006D02*
X63769542Y-33560149D01*
X63769542Y-33560149D02*
X63540971Y-33617292D01*
X63540971Y-33617292D02*
X63369542Y-33617292D01*
X63369542Y-33617292D02*
X63140971Y-33560149D01*
X63140971Y-33560149D02*
X63026685Y-33503006D01*
X63026685Y-33503006D02*
X62912400Y-33388721D01*
X62912400Y-33388721D02*
X62855257Y-33217292D01*
X62855257Y-33217292D02*
X62855257Y-32931578D01*
X62855257Y-34131578D02*
X64055257Y-34131578D01*
X64055257Y-34931578D02*
X64055257Y-35160150D01*
X64055257Y-35160150D02*
X63998114Y-35274435D01*
X63998114Y-35274435D02*
X63883828Y-35388721D01*
X63883828Y-35388721D02*
X63655257Y-35445864D01*
X63655257Y-35445864D02*
X63255257Y-35445864D01*
X63255257Y-35445864D02*
X63026685Y-35388721D01*
X63026685Y-35388721D02*
X62912400Y-35274435D01*
X62912400Y-35274435D02*
X62855257Y-35160150D01*
X62855257Y-35160150D02*
X62855257Y-34931578D01*
X62855257Y-34931578D02*
X62912400Y-34817293D01*
X62912400Y-34817293D02*
X63026685Y-34703007D01*
X63026685Y-34703007D02*
X63255257Y-34645864D01*
X63255257Y-34645864D02*
X63655257Y-34645864D01*
X63655257Y-34645864D02*
X63883828Y-34703007D01*
X63883828Y-34703007D02*
X63998114Y-34817293D01*
X63998114Y-34817293D02*
X64055257Y-34931578D01*
X87487600Y-32839850D02*
X87544742Y-32668422D01*
X87544742Y-32668422D02*
X87544742Y-32382707D01*
X87544742Y-32382707D02*
X87487600Y-32268422D01*
X87487600Y-32268422D02*
X87430457Y-32211279D01*
X87430457Y-32211279D02*
X87316171Y-32154136D01*
X87316171Y-32154136D02*
X87201885Y-32154136D01*
X87201885Y-32154136D02*
X87087600Y-32211279D01*
X87087600Y-32211279D02*
X87030457Y-32268422D01*
X87030457Y-32268422D02*
X86973314Y-32382707D01*
X86973314Y-32382707D02*
X86916171Y-32611279D01*
X86916171Y-32611279D02*
X86859028Y-32725564D01*
X86859028Y-32725564D02*
X86801885Y-32782707D01*
X86801885Y-32782707D02*
X86687600Y-32839850D01*
X86687600Y-32839850D02*
X86573314Y-32839850D01*
X86573314Y-32839850D02*
X86459028Y-32782707D01*
X86459028Y-32782707D02*
X86401885Y-32725564D01*
X86401885Y-32725564D02*
X86344742Y-32611279D01*
X86344742Y-32611279D02*
X86344742Y-32325564D01*
X86344742Y-32325564D02*
X86401885Y-32154136D01*
X87430457Y-30954136D02*
X87487600Y-31011279D01*
X87487600Y-31011279D02*
X87544742Y-31182707D01*
X87544742Y-31182707D02*
X87544742Y-31296993D01*
X87544742Y-31296993D02*
X87487600Y-31468422D01*
X87487600Y-31468422D02*
X87373314Y-31582707D01*
X87373314Y-31582707D02*
X87259028Y-31639850D01*
X87259028Y-31639850D02*
X87030457Y-31696993D01*
X87030457Y-31696993D02*
X86859028Y-31696993D01*
X86859028Y-31696993D02*
X86630457Y-31639850D01*
X86630457Y-31639850D02*
X86516171Y-31582707D01*
X86516171Y-31582707D02*
X86401885Y-31468422D01*
X86401885Y-31468422D02*
X86344742Y-31296993D01*
X86344742Y-31296993D02*
X86344742Y-31182707D01*
X86344742Y-31182707D02*
X86401885Y-31011279D01*
X86401885Y-31011279D02*
X86459028Y-30954136D01*
X87544742Y-29868422D02*
X87544742Y-30439850D01*
X87544742Y-30439850D02*
X86344742Y-30439850D01*
X42303006Y-29544742D02*
X43045863Y-29544742D01*
X43045863Y-29544742D02*
X42645863Y-30001885D01*
X42645863Y-30001885D02*
X42817292Y-30001885D01*
X42817292Y-30001885D02*
X42931578Y-30059028D01*
X42931578Y-30059028D02*
X42988720Y-30116171D01*
X42988720Y-30116171D02*
X43045863Y-30230457D01*
X43045863Y-30230457D02*
X43045863Y-30516171D01*
X43045863Y-30516171D02*
X42988720Y-30630457D01*
X42988720Y-30630457D02*
X42931578Y-30687600D01*
X42931578Y-30687600D02*
X42817292Y-30744742D01*
X42817292Y-30744742D02*
X42474435Y-30744742D01*
X42474435Y-30744742D02*
X42360149Y-30687600D01*
X42360149Y-30687600D02*
X42303006Y-30630457D01*
X43388720Y-29544742D02*
X43788720Y-30744742D01*
X43788720Y-30744742D02*
X44188720Y-29544742D01*
X44474434Y-29544742D02*
X45217291Y-29544742D01*
X45217291Y-29544742D02*
X44817291Y-30001885D01*
X44817291Y-30001885D02*
X44988720Y-30001885D01*
X44988720Y-30001885D02*
X45103006Y-30059028D01*
X45103006Y-30059028D02*
X45160148Y-30116171D01*
X45160148Y-30116171D02*
X45217291Y-30230457D01*
X45217291Y-30230457D02*
X45217291Y-30516171D01*
X45217291Y-30516171D02*
X45160148Y-30630457D01*
X45160148Y-30630457D02*
X45103006Y-30687600D01*
X45103006Y-30687600D02*
X44988720Y-30744742D01*
X44988720Y-30744742D02*
X44645863Y-30744742D01*
X44645863Y-30744742D02*
X44531577Y-30687600D01*
X44531577Y-30687600D02*
X44474434Y-30630457D01*
X58912400Y-30360149D02*
X58855257Y-30531578D01*
X58855257Y-30531578D02*
X58855257Y-30817292D01*
X58855257Y-30817292D02*
X58912400Y-30931578D01*
X58912400Y-30931578D02*
X58969542Y-30988720D01*
X58969542Y-30988720D02*
X59083828Y-31045863D01*
X59083828Y-31045863D02*
X59198114Y-31045863D01*
X59198114Y-31045863D02*
X59312400Y-30988720D01*
X59312400Y-30988720D02*
X59369542Y-30931578D01*
X59369542Y-30931578D02*
X59426685Y-30817292D01*
X59426685Y-30817292D02*
X59483828Y-30588720D01*
X59483828Y-30588720D02*
X59540971Y-30474435D01*
X59540971Y-30474435D02*
X59598114Y-30417292D01*
X59598114Y-30417292D02*
X59712400Y-30360149D01*
X59712400Y-30360149D02*
X59826685Y-30360149D01*
X59826685Y-30360149D02*
X59940971Y-30417292D01*
X59940971Y-30417292D02*
X59998114Y-30474435D01*
X59998114Y-30474435D02*
X60055257Y-30588720D01*
X60055257Y-30588720D02*
X60055257Y-30874435D01*
X60055257Y-30874435D02*
X59998114Y-31045863D01*
X60055257Y-31445863D02*
X58855257Y-31731577D01*
X58855257Y-31731577D02*
X59712400Y-31960149D01*
X59712400Y-31960149D02*
X58855257Y-32188720D01*
X58855257Y-32188720D02*
X60055257Y-32474435D01*
X60055257Y-33160149D02*
X60055257Y-33388721D01*
X60055257Y-33388721D02*
X59998114Y-33503006D01*
X59998114Y-33503006D02*
X59883828Y-33617292D01*
X59883828Y-33617292D02*
X59655257Y-33674435D01*
X59655257Y-33674435D02*
X59255257Y-33674435D01*
X59255257Y-33674435D02*
X59026685Y-33617292D01*
X59026685Y-33617292D02*
X58912400Y-33503006D01*
X58912400Y-33503006D02*
X58855257Y-33388721D01*
X58855257Y-33388721D02*
X58855257Y-33160149D01*
X58855257Y-33160149D02*
X58912400Y-33045864D01*
X58912400Y-33045864D02*
X59026685Y-32931578D01*
X59026685Y-32931578D02*
X59255257Y-32874435D01*
X59255257Y-32874435D02*
X59655257Y-32874435D01*
X59655257Y-32874435D02*
X59883828Y-32931578D01*
X59883828Y-32931578D02*
X59998114Y-33045864D01*
X59998114Y-33045864D02*
X60055257Y-33160149D01*
G36*
X50371407Y-21301885D02*
G01*
X50077463Y-21301885D01*
X50224435Y-20860969D01*
X50371407Y-21301885D01*
G37*
G36*
X47936626Y-20684070D02*
G01*
X47970820Y-20718263D01*
X48010149Y-20796921D01*
X48010149Y-20921134D01*
X47970820Y-20999792D01*
X47936626Y-21033985D01*
X47857970Y-21073314D01*
X47524435Y-21073314D01*
X47524435Y-20644742D01*
X47857970Y-20644742D01*
X47936626Y-20684070D01*
G37*
G36*
X50891202Y-22016169D02*
G01*
X45895863Y-22016169D01*
X45895863Y-21744742D01*
X46067292Y-21744742D01*
X46086390Y-21803521D01*
X46136390Y-21839848D01*
X46198194Y-21839848D01*
X46248194Y-21803521D01*
X46267292Y-21744742D01*
X46267292Y-21216171D01*
X46753006Y-21216171D01*
X46753006Y-21744742D01*
X46772104Y-21803521D01*
X46822104Y-21839848D01*
X46883908Y-21839848D01*
X46933908Y-21803521D01*
X46953006Y-21744742D01*
X47324435Y-21744742D01*
X47343533Y-21803521D01*
X47393533Y-21839848D01*
X47455337Y-21839848D01*
X47505337Y-21803521D01*
X47524435Y-21744742D01*
X48524435Y-21744742D01*
X48543533Y-21803521D01*
X48593533Y-21839848D01*
X48655337Y-21839848D01*
X48705337Y-21803521D01*
X48724435Y-21744742D01*
X48724435Y-20995498D01*
X48933817Y-21444174D01*
X48946911Y-21458207D01*
X48956213Y-21475000D01*
X48967489Y-21480262D01*
X48975980Y-21489362D01*
X48994827Y-21493019D01*
X49012219Y-21501136D01*
X49024432Y-21498765D01*
X49036651Y-21501137D01*
X49054047Y-21493018D01*
X49072890Y-21489362D01*
X49081378Y-21480264D01*
X49092657Y-21475001D01*
X49101960Y-21458206D01*
X49115053Y-21444174D01*
X49324435Y-20995497D01*
X49324435Y-21744742D01*
X49343533Y-21803521D01*
X49393533Y-21839848D01*
X49455337Y-21839848D01*
X49505337Y-21803521D01*
X49514629Y-21774921D01*
X49729097Y-21774921D01*
X49765044Y-21825195D01*
X49823676Y-21844740D01*
X49882598Y-21826088D01*
X49919303Y-21776365D01*
X50010796Y-21501885D01*
X50438074Y-21501885D01*
X50529567Y-21776365D01*
X50566272Y-21826088D01*
X50625194Y-21844739D01*
X50683826Y-21825195D01*
X50719773Y-21774921D01*
X50719303Y-21713119D01*
X50319303Y-20513119D01*
X50301380Y-20488840D01*
X50283826Y-20464289D01*
X50283071Y-20464037D01*
X50282598Y-20463396D01*
X50253772Y-20454271D01*
X50225194Y-20444745D01*
X50224436Y-20444984D01*
X50223676Y-20444744D01*
X50195037Y-20454290D01*
X50166272Y-20463396D01*
X50165798Y-20464037D01*
X50165044Y-20464289D01*
X50147489Y-20488840D01*
X50129567Y-20513119D01*
X49729567Y-21713119D01*
X49729097Y-21774921D01*
X49514629Y-21774921D01*
X49524435Y-21744742D01*
X49524435Y-20544742D01*
X49521406Y-20535419D01*
X49522604Y-20525689D01*
X49512059Y-20506652D01*
X49505337Y-20485963D01*
X49497407Y-20480201D01*
X49492657Y-20471626D01*
X49472938Y-20462423D01*
X49455337Y-20449636D01*
X49445535Y-20449636D01*
X49436651Y-20445490D01*
X49415289Y-20449636D01*
X49393533Y-20449636D01*
X49385603Y-20455397D01*
X49375980Y-20457265D01*
X49361136Y-20473173D01*
X49343533Y-20485963D01*
X49340503Y-20495286D01*
X49333817Y-20502453D01*
X49024434Y-21165414D01*
X48715053Y-20502453D01*
X48708366Y-20495286D01*
X48705337Y-20485963D01*
X48687733Y-20473173D01*
X48672890Y-20457265D01*
X48663267Y-20455397D01*
X48655337Y-20449636D01*
X48633578Y-20449636D01*
X48612219Y-20445491D01*
X48603337Y-20449636D01*
X48593533Y-20449636D01*
X48575928Y-20462426D01*
X48556213Y-20471627D01*
X48551463Y-20480201D01*
X48543533Y-20485963D01*
X48536809Y-20506655D01*
X48526266Y-20525690D01*
X48527463Y-20535420D01*
X48524435Y-20544742D01*
X48524435Y-21744742D01*
X47524435Y-21744742D01*
X47524435Y-21273314D01*
X47881578Y-21273314D01*
X47903501Y-21266190D01*
X47926300Y-21262757D01*
X48040585Y-21205613D01*
X48052131Y-21194240D01*
X48066574Y-21186882D01*
X48123716Y-21129739D01*
X48131074Y-21115297D01*
X48142449Y-21103749D01*
X48199592Y-20989463D01*
X48203025Y-20966665D01*
X48210149Y-20944742D01*
X48210149Y-20773314D01*
X48203025Y-20751390D01*
X48199592Y-20728593D01*
X48142449Y-20614307D01*
X48131074Y-20602758D01*
X48123716Y-20588317D01*
X48066574Y-20531174D01*
X48052131Y-20523815D01*
X48040585Y-20512443D01*
X47926300Y-20455299D01*
X47903501Y-20451865D01*
X47881578Y-20444742D01*
X47424435Y-20444742D01*
X47409372Y-20449636D01*
X47393533Y-20449636D01*
X47380719Y-20458945D01*
X47365656Y-20463840D01*
X47356346Y-20476653D01*
X47343533Y-20485963D01*
X47338638Y-20501026D01*
X47329329Y-20513840D01*
X47329329Y-20529679D01*
X47324435Y-20544742D01*
X47324435Y-21744742D01*
X46953006Y-21744742D01*
X46953006Y-20544742D01*
X46933908Y-20485963D01*
X46883908Y-20449636D01*
X46822104Y-20449636D01*
X46772104Y-20485963D01*
X46753006Y-20544742D01*
X46753006Y-21016171D01*
X46267292Y-21016171D01*
X46267292Y-20544742D01*
X46248194Y-20485963D01*
X46198194Y-20449636D01*
X46136390Y-20449636D01*
X46086390Y-20485963D01*
X46067292Y-20544742D01*
X46067292Y-21744742D01*
X45895863Y-21744742D01*
X45895863Y-20273313D01*
X50891202Y-20273313D01*
X50891202Y-22016169D01*
G37*
D11*
X82444642Y-105454819D02*
X82111309Y-104978628D01*
X81873214Y-105454819D02*
X81873214Y-104454819D01*
X81873214Y-104454819D02*
X82254166Y-104454819D01*
X82254166Y-104454819D02*
X82349404Y-104502438D01*
X82349404Y-104502438D02*
X82397023Y-104550057D01*
X82397023Y-104550057D02*
X82444642Y-104645295D01*
X82444642Y-104645295D02*
X82444642Y-104788152D01*
X82444642Y-104788152D02*
X82397023Y-104883390D01*
X82397023Y-104883390D02*
X82349404Y-104931009D01*
X82349404Y-104931009D02*
X82254166Y-104978628D01*
X82254166Y-104978628D02*
X81873214Y-104978628D01*
X83397023Y-105454819D02*
X82825595Y-105454819D01*
X83111309Y-105454819D02*
X83111309Y-104454819D01*
X83111309Y-104454819D02*
X83016071Y-104597676D01*
X83016071Y-104597676D02*
X82920833Y-104692914D01*
X82920833Y-104692914D02*
X82825595Y-104740533D01*
X83968452Y-104883390D02*
X83873214Y-104835771D01*
X83873214Y-104835771D02*
X83825595Y-104788152D01*
X83825595Y-104788152D02*
X83777976Y-104692914D01*
X83777976Y-104692914D02*
X83777976Y-104645295D01*
X83777976Y-104645295D02*
X83825595Y-104550057D01*
X83825595Y-104550057D02*
X83873214Y-104502438D01*
X83873214Y-104502438D02*
X83968452Y-104454819D01*
X83968452Y-104454819D02*
X84158928Y-104454819D01*
X84158928Y-104454819D02*
X84254166Y-104502438D01*
X84254166Y-104502438D02*
X84301785Y-104550057D01*
X84301785Y-104550057D02*
X84349404Y-104645295D01*
X84349404Y-104645295D02*
X84349404Y-104692914D01*
X84349404Y-104692914D02*
X84301785Y-104788152D01*
X84301785Y-104788152D02*
X84254166Y-104835771D01*
X84254166Y-104835771D02*
X84158928Y-104883390D01*
X84158928Y-104883390D02*
X83968452Y-104883390D01*
X83968452Y-104883390D02*
X83873214Y-104931009D01*
X83873214Y-104931009D02*
X83825595Y-104978628D01*
X83825595Y-104978628D02*
X83777976Y-105073866D01*
X83777976Y-105073866D02*
X83777976Y-105264342D01*
X83777976Y-105264342D02*
X83825595Y-105359580D01*
X83825595Y-105359580D02*
X83873214Y-105407200D01*
X83873214Y-105407200D02*
X83968452Y-105454819D01*
X83968452Y-105454819D02*
X84158928Y-105454819D01*
X84158928Y-105454819D02*
X84254166Y-105407200D01*
X84254166Y-105407200D02*
X84301785Y-105359580D01*
X84301785Y-105359580D02*
X84349404Y-105264342D01*
X84349404Y-105264342D02*
X84349404Y-105073866D01*
X84349404Y-105073866D02*
X84301785Y-104978628D01*
X84301785Y-104978628D02*
X84254166Y-104931009D01*
X84254166Y-104931009D02*
X84158928Y-104883390D01*
X99974819Y-93968333D02*
X100689104Y-93968333D01*
X100689104Y-93968333D02*
X100831961Y-94015952D01*
X100831961Y-94015952D02*
X100927200Y-94111190D01*
X100927200Y-94111190D02*
X100974819Y-94254047D01*
X100974819Y-94254047D02*
X100974819Y-94349285D01*
X100974819Y-92968333D02*
X100974819Y-93539761D01*
X100974819Y-93254047D02*
X99974819Y-93254047D01*
X99974819Y-93254047D02*
X100117676Y-93349285D01*
X100117676Y-93349285D02*
X100212914Y-93444523D01*
X100212914Y-93444523D02*
X100260533Y-93539761D01*
X98469642Y-105454819D02*
X98136309Y-104978628D01*
X97898214Y-105454819D02*
X97898214Y-104454819D01*
X97898214Y-104454819D02*
X98279166Y-104454819D01*
X98279166Y-104454819D02*
X98374404Y-104502438D01*
X98374404Y-104502438D02*
X98422023Y-104550057D01*
X98422023Y-104550057D02*
X98469642Y-104645295D01*
X98469642Y-104645295D02*
X98469642Y-104788152D01*
X98469642Y-104788152D02*
X98422023Y-104883390D01*
X98422023Y-104883390D02*
X98374404Y-104931009D01*
X98374404Y-104931009D02*
X98279166Y-104978628D01*
X98279166Y-104978628D02*
X97898214Y-104978628D01*
X98850595Y-104550057D02*
X98898214Y-104502438D01*
X98898214Y-104502438D02*
X98993452Y-104454819D01*
X98993452Y-104454819D02*
X99231547Y-104454819D01*
X99231547Y-104454819D02*
X99326785Y-104502438D01*
X99326785Y-104502438D02*
X99374404Y-104550057D01*
X99374404Y-104550057D02*
X99422023Y-104645295D01*
X99422023Y-104645295D02*
X99422023Y-104740533D01*
X99422023Y-104740533D02*
X99374404Y-104883390D01*
X99374404Y-104883390D02*
X98802976Y-105454819D01*
X98802976Y-105454819D02*
X99422023Y-105454819D01*
X100041071Y-104454819D02*
X100136309Y-104454819D01*
X100136309Y-104454819D02*
X100231547Y-104502438D01*
X100231547Y-104502438D02*
X100279166Y-104550057D01*
X100279166Y-104550057D02*
X100326785Y-104645295D01*
X100326785Y-104645295D02*
X100374404Y-104835771D01*
X100374404Y-104835771D02*
X100374404Y-105073866D01*
X100374404Y-105073866D02*
X100326785Y-105264342D01*
X100326785Y-105264342D02*
X100279166Y-105359580D01*
X100279166Y-105359580D02*
X100231547Y-105407200D01*
X100231547Y-105407200D02*
X100136309Y-105454819D01*
X100136309Y-105454819D02*
X100041071Y-105454819D01*
X100041071Y-105454819D02*
X99945833Y-105407200D01*
X99945833Y-105407200D02*
X99898214Y-105359580D01*
X99898214Y-105359580D02*
X99850595Y-105264342D01*
X99850595Y-105264342D02*
X99802976Y-105073866D01*
X99802976Y-105073866D02*
X99802976Y-104835771D01*
X99802976Y-104835771D02*
X99850595Y-104645295D01*
X99850595Y-104645295D02*
X99898214Y-104550057D01*
X99898214Y-104550057D02*
X99945833Y-104502438D01*
X99945833Y-104502438D02*
X100041071Y-104454819D01*
X39404819Y-99916666D02*
X38928628Y-100249999D01*
X39404819Y-100488094D02*
X38404819Y-100488094D01*
X38404819Y-100488094D02*
X38404819Y-100107142D01*
X38404819Y-100107142D02*
X38452438Y-100011904D01*
X38452438Y-100011904D02*
X38500057Y-99964285D01*
X38500057Y-99964285D02*
X38595295Y-99916666D01*
X38595295Y-99916666D02*
X38738152Y-99916666D01*
X38738152Y-99916666D02*
X38833390Y-99964285D01*
X38833390Y-99964285D02*
X38881009Y-100011904D01*
X38881009Y-100011904D02*
X38928628Y-100107142D01*
X38928628Y-100107142D02*
X38928628Y-100488094D01*
X38404819Y-99583332D02*
X38404819Y-98916666D01*
X38404819Y-98916666D02*
X39404819Y-99345237D01*
X36866666Y-78054819D02*
X36866666Y-78769104D01*
X36866666Y-78769104D02*
X36819047Y-78911961D01*
X36819047Y-78911961D02*
X36723809Y-79007200D01*
X36723809Y-79007200D02*
X36580952Y-79054819D01*
X36580952Y-79054819D02*
X36485714Y-79054819D01*
X37771428Y-78388152D02*
X37771428Y-79054819D01*
X37533333Y-78007200D02*
X37295238Y-78721485D01*
X37295238Y-78721485D02*
X37914285Y-78721485D01*
X39159580Y-91842857D02*
X39207200Y-91890476D01*
X39207200Y-91890476D02*
X39254819Y-92033333D01*
X39254819Y-92033333D02*
X39254819Y-92128571D01*
X39254819Y-92128571D02*
X39207200Y-92271428D01*
X39207200Y-92271428D02*
X39111961Y-92366666D01*
X39111961Y-92366666D02*
X39016723Y-92414285D01*
X39016723Y-92414285D02*
X38826247Y-92461904D01*
X38826247Y-92461904D02*
X38683390Y-92461904D01*
X38683390Y-92461904D02*
X38492914Y-92414285D01*
X38492914Y-92414285D02*
X38397676Y-92366666D01*
X38397676Y-92366666D02*
X38302438Y-92271428D01*
X38302438Y-92271428D02*
X38254819Y-92128571D01*
X38254819Y-92128571D02*
X38254819Y-92033333D01*
X38254819Y-92033333D02*
X38302438Y-91890476D01*
X38302438Y-91890476D02*
X38350057Y-91842857D01*
X39254819Y-90890476D02*
X39254819Y-91461904D01*
X39254819Y-91176190D02*
X38254819Y-91176190D01*
X38254819Y-91176190D02*
X38397676Y-91271428D01*
X38397676Y-91271428D02*
X38492914Y-91366666D01*
X38492914Y-91366666D02*
X38540533Y-91461904D01*
X38588152Y-90033333D02*
X39254819Y-90033333D01*
X38207200Y-90271428D02*
X38921485Y-90509523D01*
X38921485Y-90509523D02*
X38921485Y-89890476D01*
X84861905Y-108854819D02*
X84861905Y-107854819D01*
X84861905Y-107854819D02*
X85100000Y-107854819D01*
X85100000Y-107854819D02*
X85242857Y-107902438D01*
X85242857Y-107902438D02*
X85338095Y-107997676D01*
X85338095Y-107997676D02*
X85385714Y-108092914D01*
X85385714Y-108092914D02*
X85433333Y-108283390D01*
X85433333Y-108283390D02*
X85433333Y-108426247D01*
X85433333Y-108426247D02*
X85385714Y-108616723D01*
X85385714Y-108616723D02*
X85338095Y-108711961D01*
X85338095Y-108711961D02*
X85242857Y-108807200D01*
X85242857Y-108807200D02*
X85100000Y-108854819D01*
X85100000Y-108854819D02*
X84861905Y-108854819D01*
X85814286Y-107950057D02*
X85861905Y-107902438D01*
X85861905Y-107902438D02*
X85957143Y-107854819D01*
X85957143Y-107854819D02*
X86195238Y-107854819D01*
X86195238Y-107854819D02*
X86290476Y-107902438D01*
X86290476Y-107902438D02*
X86338095Y-107950057D01*
X86338095Y-107950057D02*
X86385714Y-108045295D01*
X86385714Y-108045295D02*
X86385714Y-108140533D01*
X86385714Y-108140533D02*
X86338095Y-108283390D01*
X86338095Y-108283390D02*
X85766667Y-108854819D01*
X85766667Y-108854819D02*
X86385714Y-108854819D01*
X40433333Y-55559580D02*
X40385714Y-55607200D01*
X40385714Y-55607200D02*
X40242857Y-55654819D01*
X40242857Y-55654819D02*
X40147619Y-55654819D01*
X40147619Y-55654819D02*
X40004762Y-55607200D01*
X40004762Y-55607200D02*
X39909524Y-55511961D01*
X39909524Y-55511961D02*
X39861905Y-55416723D01*
X39861905Y-55416723D02*
X39814286Y-55226247D01*
X39814286Y-55226247D02*
X39814286Y-55083390D01*
X39814286Y-55083390D02*
X39861905Y-54892914D01*
X39861905Y-54892914D02*
X39909524Y-54797676D01*
X39909524Y-54797676D02*
X40004762Y-54702438D01*
X40004762Y-54702438D02*
X40147619Y-54654819D01*
X40147619Y-54654819D02*
X40242857Y-54654819D01*
X40242857Y-54654819D02*
X40385714Y-54702438D01*
X40385714Y-54702438D02*
X40433333Y-54750057D01*
X41385714Y-55654819D02*
X40814286Y-55654819D01*
X41100000Y-55654819D02*
X41100000Y-54654819D01*
X41100000Y-54654819D02*
X41004762Y-54797676D01*
X41004762Y-54797676D02*
X40909524Y-54892914D01*
X40909524Y-54892914D02*
X40814286Y-54940533D01*
X35566666Y-83194819D02*
X35566666Y-83909104D01*
X35566666Y-83909104D02*
X35519047Y-84051961D01*
X35519047Y-84051961D02*
X35423809Y-84147200D01*
X35423809Y-84147200D02*
X35280952Y-84194819D01*
X35280952Y-84194819D02*
X35185714Y-84194819D01*
X36042857Y-84194819D02*
X36042857Y-83194819D01*
X36042857Y-83194819D02*
X36423809Y-83194819D01*
X36423809Y-83194819D02*
X36519047Y-83242438D01*
X36519047Y-83242438D02*
X36566666Y-83290057D01*
X36566666Y-83290057D02*
X36614285Y-83385295D01*
X36614285Y-83385295D02*
X36614285Y-83528152D01*
X36614285Y-83528152D02*
X36566666Y-83623390D01*
X36566666Y-83623390D02*
X36519047Y-83671009D01*
X36519047Y-83671009D02*
X36423809Y-83718628D01*
X36423809Y-83718628D02*
X36042857Y-83718628D01*
X37471428Y-83528152D02*
X37471428Y-84194819D01*
X37233333Y-83147200D02*
X36995238Y-83861485D01*
X36995238Y-83861485D02*
X37614285Y-83861485D01*
X96774405Y-109054819D02*
X96774405Y-108054819D01*
X96774405Y-108054819D02*
X97012500Y-108054819D01*
X97012500Y-108054819D02*
X97155357Y-108102438D01*
X97155357Y-108102438D02*
X97250595Y-108197676D01*
X97250595Y-108197676D02*
X97298214Y-108292914D01*
X97298214Y-108292914D02*
X97345833Y-108483390D01*
X97345833Y-108483390D02*
X97345833Y-108626247D01*
X97345833Y-108626247D02*
X97298214Y-108816723D01*
X97298214Y-108816723D02*
X97250595Y-108911961D01*
X97250595Y-108911961D02*
X97155357Y-109007200D01*
X97155357Y-109007200D02*
X97012500Y-109054819D01*
X97012500Y-109054819D02*
X96774405Y-109054819D01*
X98250595Y-108054819D02*
X97774405Y-108054819D01*
X97774405Y-108054819D02*
X97726786Y-108531009D01*
X97726786Y-108531009D02*
X97774405Y-108483390D01*
X97774405Y-108483390D02*
X97869643Y-108435771D01*
X97869643Y-108435771D02*
X98107738Y-108435771D01*
X98107738Y-108435771D02*
X98202976Y-108483390D01*
X98202976Y-108483390D02*
X98250595Y-108531009D01*
X98250595Y-108531009D02*
X98298214Y-108626247D01*
X98298214Y-108626247D02*
X98298214Y-108864342D01*
X98298214Y-108864342D02*
X98250595Y-108959580D01*
X98250595Y-108959580D02*
X98202976Y-109007200D01*
X98202976Y-109007200D02*
X98107738Y-109054819D01*
X98107738Y-109054819D02*
X97869643Y-109054819D01*
X97869643Y-109054819D02*
X97774405Y-109007200D01*
X97774405Y-109007200D02*
X97726786Y-108959580D01*
X48583333Y-45359580D02*
X48535714Y-45407200D01*
X48535714Y-45407200D02*
X48392857Y-45454819D01*
X48392857Y-45454819D02*
X48297619Y-45454819D01*
X48297619Y-45454819D02*
X48154762Y-45407200D01*
X48154762Y-45407200D02*
X48059524Y-45311961D01*
X48059524Y-45311961D02*
X48011905Y-45216723D01*
X48011905Y-45216723D02*
X47964286Y-45026247D01*
X47964286Y-45026247D02*
X47964286Y-44883390D01*
X47964286Y-44883390D02*
X48011905Y-44692914D01*
X48011905Y-44692914D02*
X48059524Y-44597676D01*
X48059524Y-44597676D02*
X48154762Y-44502438D01*
X48154762Y-44502438D02*
X48297619Y-44454819D01*
X48297619Y-44454819D02*
X48392857Y-44454819D01*
X48392857Y-44454819D02*
X48535714Y-44502438D01*
X48535714Y-44502438D02*
X48583333Y-44550057D01*
X49440476Y-44454819D02*
X49250000Y-44454819D01*
X49250000Y-44454819D02*
X49154762Y-44502438D01*
X49154762Y-44502438D02*
X49107143Y-44550057D01*
X49107143Y-44550057D02*
X49011905Y-44692914D01*
X49011905Y-44692914D02*
X48964286Y-44883390D01*
X48964286Y-44883390D02*
X48964286Y-45264342D01*
X48964286Y-45264342D02*
X49011905Y-45359580D01*
X49011905Y-45359580D02*
X49059524Y-45407200D01*
X49059524Y-45407200D02*
X49154762Y-45454819D01*
X49154762Y-45454819D02*
X49345238Y-45454819D01*
X49345238Y-45454819D02*
X49440476Y-45407200D01*
X49440476Y-45407200D02*
X49488095Y-45359580D01*
X49488095Y-45359580D02*
X49535714Y-45264342D01*
X49535714Y-45264342D02*
X49535714Y-45026247D01*
X49535714Y-45026247D02*
X49488095Y-44931009D01*
X49488095Y-44931009D02*
X49440476Y-44883390D01*
X49440476Y-44883390D02*
X49345238Y-44835771D01*
X49345238Y-44835771D02*
X49154762Y-44835771D01*
X49154762Y-44835771D02*
X49059524Y-44883390D01*
X49059524Y-44883390D02*
X49011905Y-44931009D01*
X49011905Y-44931009D02*
X48964286Y-45026247D01*
X54773809Y-47478628D02*
X54773809Y-47954819D01*
X54440476Y-46954819D02*
X54773809Y-47478628D01*
X54773809Y-47478628D02*
X55107142Y-46954819D01*
X55392857Y-47050057D02*
X55440476Y-47002438D01*
X55440476Y-47002438D02*
X55535714Y-46954819D01*
X55535714Y-46954819D02*
X55773809Y-46954819D01*
X55773809Y-46954819D02*
X55869047Y-47002438D01*
X55869047Y-47002438D02*
X55916666Y-47050057D01*
X55916666Y-47050057D02*
X55964285Y-47145295D01*
X55964285Y-47145295D02*
X55964285Y-47240533D01*
X55964285Y-47240533D02*
X55916666Y-47383390D01*
X55916666Y-47383390D02*
X55345238Y-47954819D01*
X55345238Y-47954819D02*
X55964285Y-47954819D01*
X43533333Y-86954819D02*
X43200000Y-86478628D01*
X42961905Y-86954819D02*
X42961905Y-85954819D01*
X42961905Y-85954819D02*
X43342857Y-85954819D01*
X43342857Y-85954819D02*
X43438095Y-86002438D01*
X43438095Y-86002438D02*
X43485714Y-86050057D01*
X43485714Y-86050057D02*
X43533333Y-86145295D01*
X43533333Y-86145295D02*
X43533333Y-86288152D01*
X43533333Y-86288152D02*
X43485714Y-86383390D01*
X43485714Y-86383390D02*
X43438095Y-86431009D01*
X43438095Y-86431009D02*
X43342857Y-86478628D01*
X43342857Y-86478628D02*
X42961905Y-86478628D01*
X43866667Y-85954819D02*
X44485714Y-85954819D01*
X44485714Y-85954819D02*
X44152381Y-86335771D01*
X44152381Y-86335771D02*
X44295238Y-86335771D01*
X44295238Y-86335771D02*
X44390476Y-86383390D01*
X44390476Y-86383390D02*
X44438095Y-86431009D01*
X44438095Y-86431009D02*
X44485714Y-86526247D01*
X44485714Y-86526247D02*
X44485714Y-86764342D01*
X44485714Y-86764342D02*
X44438095Y-86859580D01*
X44438095Y-86859580D02*
X44390476Y-86907200D01*
X44390476Y-86907200D02*
X44295238Y-86954819D01*
X44295238Y-86954819D02*
X44009524Y-86954819D01*
X44009524Y-86954819D02*
X43914286Y-86907200D01*
X43914286Y-86907200D02*
X43866667Y-86859580D01*
X46532142Y-73704819D02*
X46198809Y-73228628D01*
X45960714Y-73704819D02*
X45960714Y-72704819D01*
X45960714Y-72704819D02*
X46341666Y-72704819D01*
X46341666Y-72704819D02*
X46436904Y-72752438D01*
X46436904Y-72752438D02*
X46484523Y-72800057D01*
X46484523Y-72800057D02*
X46532142Y-72895295D01*
X46532142Y-72895295D02*
X46532142Y-73038152D01*
X46532142Y-73038152D02*
X46484523Y-73133390D01*
X46484523Y-73133390D02*
X46436904Y-73181009D01*
X46436904Y-73181009D02*
X46341666Y-73228628D01*
X46341666Y-73228628D02*
X45960714Y-73228628D01*
X47484523Y-73704819D02*
X46913095Y-73704819D01*
X47198809Y-73704819D02*
X47198809Y-72704819D01*
X47198809Y-72704819D02*
X47103571Y-72847676D01*
X47103571Y-72847676D02*
X47008333Y-72942914D01*
X47008333Y-72942914D02*
X46913095Y-72990533D01*
X47817857Y-72704819D02*
X48436904Y-72704819D01*
X48436904Y-72704819D02*
X48103571Y-73085771D01*
X48103571Y-73085771D02*
X48246428Y-73085771D01*
X48246428Y-73085771D02*
X48341666Y-73133390D01*
X48341666Y-73133390D02*
X48389285Y-73181009D01*
X48389285Y-73181009D02*
X48436904Y-73276247D01*
X48436904Y-73276247D02*
X48436904Y-73514342D01*
X48436904Y-73514342D02*
X48389285Y-73609580D01*
X48389285Y-73609580D02*
X48341666Y-73657200D01*
X48341666Y-73657200D02*
X48246428Y-73704819D01*
X48246428Y-73704819D02*
X47960714Y-73704819D01*
X47960714Y-73704819D02*
X47865476Y-73657200D01*
X47865476Y-73657200D02*
X47817857Y-73609580D01*
X24807200Y-45333332D02*
X24854819Y-45190475D01*
X24854819Y-45190475D02*
X24854819Y-44952380D01*
X24854819Y-44952380D02*
X24807200Y-44857142D01*
X24807200Y-44857142D02*
X24759580Y-44809523D01*
X24759580Y-44809523D02*
X24664342Y-44761904D01*
X24664342Y-44761904D02*
X24569104Y-44761904D01*
X24569104Y-44761904D02*
X24473866Y-44809523D01*
X24473866Y-44809523D02*
X24426247Y-44857142D01*
X24426247Y-44857142D02*
X24378628Y-44952380D01*
X24378628Y-44952380D02*
X24331009Y-45142856D01*
X24331009Y-45142856D02*
X24283390Y-45238094D01*
X24283390Y-45238094D02*
X24235771Y-45285713D01*
X24235771Y-45285713D02*
X24140533Y-45333332D01*
X24140533Y-45333332D02*
X24045295Y-45333332D01*
X24045295Y-45333332D02*
X23950057Y-45285713D01*
X23950057Y-45285713D02*
X23902438Y-45238094D01*
X23902438Y-45238094D02*
X23854819Y-45142856D01*
X23854819Y-45142856D02*
X23854819Y-44904761D01*
X23854819Y-44904761D02*
X23902438Y-44761904D01*
X23854819Y-44428570D02*
X24854819Y-44190475D01*
X24854819Y-44190475D02*
X24140533Y-43999999D01*
X24140533Y-43999999D02*
X24854819Y-43809523D01*
X24854819Y-43809523D02*
X23854819Y-43571428D01*
X24854819Y-42666666D02*
X24854819Y-43238094D01*
X24854819Y-42952380D02*
X23854819Y-42952380D01*
X23854819Y-42952380D02*
X23997676Y-43047618D01*
X23997676Y-43047618D02*
X24092914Y-43142856D01*
X24092914Y-43142856D02*
X24140533Y-43238094D01*
X90244642Y-105454819D02*
X89911309Y-104978628D01*
X89673214Y-105454819D02*
X89673214Y-104454819D01*
X89673214Y-104454819D02*
X90054166Y-104454819D01*
X90054166Y-104454819D02*
X90149404Y-104502438D01*
X90149404Y-104502438D02*
X90197023Y-104550057D01*
X90197023Y-104550057D02*
X90244642Y-104645295D01*
X90244642Y-104645295D02*
X90244642Y-104788152D01*
X90244642Y-104788152D02*
X90197023Y-104883390D01*
X90197023Y-104883390D02*
X90149404Y-104931009D01*
X90149404Y-104931009D02*
X90054166Y-104978628D01*
X90054166Y-104978628D02*
X89673214Y-104978628D01*
X91197023Y-105454819D02*
X90625595Y-105454819D01*
X90911309Y-105454819D02*
X90911309Y-104454819D01*
X90911309Y-104454819D02*
X90816071Y-104597676D01*
X90816071Y-104597676D02*
X90720833Y-104692914D01*
X90720833Y-104692914D02*
X90625595Y-104740533D01*
X91673214Y-105454819D02*
X91863690Y-105454819D01*
X91863690Y-105454819D02*
X91958928Y-105407200D01*
X91958928Y-105407200D02*
X92006547Y-105359580D01*
X92006547Y-105359580D02*
X92101785Y-105216723D01*
X92101785Y-105216723D02*
X92149404Y-105026247D01*
X92149404Y-105026247D02*
X92149404Y-104645295D01*
X92149404Y-104645295D02*
X92101785Y-104550057D01*
X92101785Y-104550057D02*
X92054166Y-104502438D01*
X92054166Y-104502438D02*
X91958928Y-104454819D01*
X91958928Y-104454819D02*
X91768452Y-104454819D01*
X91768452Y-104454819D02*
X91673214Y-104502438D01*
X91673214Y-104502438D02*
X91625595Y-104550057D01*
X91625595Y-104550057D02*
X91577976Y-104645295D01*
X91577976Y-104645295D02*
X91577976Y-104883390D01*
X91577976Y-104883390D02*
X91625595Y-104978628D01*
X91625595Y-104978628D02*
X91673214Y-105026247D01*
X91673214Y-105026247D02*
X91768452Y-105073866D01*
X91768452Y-105073866D02*
X91958928Y-105073866D01*
X91958928Y-105073866D02*
X92054166Y-105026247D01*
X92054166Y-105026247D02*
X92101785Y-104978628D01*
X92101785Y-104978628D02*
X92149404Y-104883390D01*
X56607142Y-42359580D02*
X56559523Y-42407200D01*
X56559523Y-42407200D02*
X56416666Y-42454819D01*
X56416666Y-42454819D02*
X56321428Y-42454819D01*
X56321428Y-42454819D02*
X56178571Y-42407200D01*
X56178571Y-42407200D02*
X56083333Y-42311961D01*
X56083333Y-42311961D02*
X56035714Y-42216723D01*
X56035714Y-42216723D02*
X55988095Y-42026247D01*
X55988095Y-42026247D02*
X55988095Y-41883390D01*
X55988095Y-41883390D02*
X56035714Y-41692914D01*
X56035714Y-41692914D02*
X56083333Y-41597676D01*
X56083333Y-41597676D02*
X56178571Y-41502438D01*
X56178571Y-41502438D02*
X56321428Y-41454819D01*
X56321428Y-41454819D02*
X56416666Y-41454819D01*
X56416666Y-41454819D02*
X56559523Y-41502438D01*
X56559523Y-41502438D02*
X56607142Y-41550057D01*
X57559523Y-42454819D02*
X56988095Y-42454819D01*
X57273809Y-42454819D02*
X57273809Y-41454819D01*
X57273809Y-41454819D02*
X57178571Y-41597676D01*
X57178571Y-41597676D02*
X57083333Y-41692914D01*
X57083333Y-41692914D02*
X56988095Y-41740533D01*
X57940476Y-41550057D02*
X57988095Y-41502438D01*
X57988095Y-41502438D02*
X58083333Y-41454819D01*
X58083333Y-41454819D02*
X58321428Y-41454819D01*
X58321428Y-41454819D02*
X58416666Y-41502438D01*
X58416666Y-41502438D02*
X58464285Y-41550057D01*
X58464285Y-41550057D02*
X58511904Y-41645295D01*
X58511904Y-41645295D02*
X58511904Y-41740533D01*
X58511904Y-41740533D02*
X58464285Y-41883390D01*
X58464285Y-41883390D02*
X57892857Y-42454819D01*
X57892857Y-42454819D02*
X58511904Y-42454819D01*
X36857142Y-72444819D02*
X36523809Y-71968628D01*
X36285714Y-72444819D02*
X36285714Y-71444819D01*
X36285714Y-71444819D02*
X36666666Y-71444819D01*
X36666666Y-71444819D02*
X36761904Y-71492438D01*
X36761904Y-71492438D02*
X36809523Y-71540057D01*
X36809523Y-71540057D02*
X36857142Y-71635295D01*
X36857142Y-71635295D02*
X36857142Y-71778152D01*
X36857142Y-71778152D02*
X36809523Y-71873390D01*
X36809523Y-71873390D02*
X36761904Y-71921009D01*
X36761904Y-71921009D02*
X36666666Y-71968628D01*
X36666666Y-71968628D02*
X36285714Y-71968628D01*
X37809523Y-72444819D02*
X37238095Y-72444819D01*
X37523809Y-72444819D02*
X37523809Y-71444819D01*
X37523809Y-71444819D02*
X37428571Y-71587676D01*
X37428571Y-71587676D02*
X37333333Y-71682914D01*
X37333333Y-71682914D02*
X37238095Y-71730533D01*
X38666666Y-71778152D02*
X38666666Y-72444819D01*
X38428571Y-71397200D02*
X38190476Y-72111485D01*
X38190476Y-72111485D02*
X38809523Y-72111485D01*
X52757142Y-25359580D02*
X52709523Y-25407200D01*
X52709523Y-25407200D02*
X52566666Y-25454819D01*
X52566666Y-25454819D02*
X52471428Y-25454819D01*
X52471428Y-25454819D02*
X52328571Y-25407200D01*
X52328571Y-25407200D02*
X52233333Y-25311961D01*
X52233333Y-25311961D02*
X52185714Y-25216723D01*
X52185714Y-25216723D02*
X52138095Y-25026247D01*
X52138095Y-25026247D02*
X52138095Y-24883390D01*
X52138095Y-24883390D02*
X52185714Y-24692914D01*
X52185714Y-24692914D02*
X52233333Y-24597676D01*
X52233333Y-24597676D02*
X52328571Y-24502438D01*
X52328571Y-24502438D02*
X52471428Y-24454819D01*
X52471428Y-24454819D02*
X52566666Y-24454819D01*
X52566666Y-24454819D02*
X52709523Y-24502438D01*
X52709523Y-24502438D02*
X52757142Y-24550057D01*
X53138095Y-24550057D02*
X53185714Y-24502438D01*
X53185714Y-24502438D02*
X53280952Y-24454819D01*
X53280952Y-24454819D02*
X53519047Y-24454819D01*
X53519047Y-24454819D02*
X53614285Y-24502438D01*
X53614285Y-24502438D02*
X53661904Y-24550057D01*
X53661904Y-24550057D02*
X53709523Y-24645295D01*
X53709523Y-24645295D02*
X53709523Y-24740533D01*
X53709523Y-24740533D02*
X53661904Y-24883390D01*
X53661904Y-24883390D02*
X53090476Y-25454819D01*
X53090476Y-25454819D02*
X53709523Y-25454819D01*
X54614285Y-24454819D02*
X54138095Y-24454819D01*
X54138095Y-24454819D02*
X54090476Y-24931009D01*
X54090476Y-24931009D02*
X54138095Y-24883390D01*
X54138095Y-24883390D02*
X54233333Y-24835771D01*
X54233333Y-24835771D02*
X54471428Y-24835771D01*
X54471428Y-24835771D02*
X54566666Y-24883390D01*
X54566666Y-24883390D02*
X54614285Y-24931009D01*
X54614285Y-24931009D02*
X54661904Y-25026247D01*
X54661904Y-25026247D02*
X54661904Y-25264342D01*
X54661904Y-25264342D02*
X54614285Y-25359580D01*
X54614285Y-25359580D02*
X54566666Y-25407200D01*
X54566666Y-25407200D02*
X54471428Y-25454819D01*
X54471428Y-25454819D02*
X54233333Y-25454819D01*
X54233333Y-25454819D02*
X54138095Y-25407200D01*
X54138095Y-25407200D02*
X54090476Y-25359580D01*
X46166666Y-27004819D02*
X46166666Y-27719104D01*
X46166666Y-27719104D02*
X46119047Y-27861961D01*
X46119047Y-27861961D02*
X46023809Y-27957200D01*
X46023809Y-27957200D02*
X45880952Y-28004819D01*
X45880952Y-28004819D02*
X45785714Y-28004819D01*
X46547619Y-27004819D02*
X47166666Y-27004819D01*
X47166666Y-27004819D02*
X46833333Y-27385771D01*
X46833333Y-27385771D02*
X46976190Y-27385771D01*
X46976190Y-27385771D02*
X47071428Y-27433390D01*
X47071428Y-27433390D02*
X47119047Y-27481009D01*
X47119047Y-27481009D02*
X47166666Y-27576247D01*
X47166666Y-27576247D02*
X47166666Y-27814342D01*
X47166666Y-27814342D02*
X47119047Y-27909580D01*
X47119047Y-27909580D02*
X47071428Y-27957200D01*
X47071428Y-27957200D02*
X46976190Y-28004819D01*
X46976190Y-28004819D02*
X46690476Y-28004819D01*
X46690476Y-28004819D02*
X46595238Y-27957200D01*
X46595238Y-27957200D02*
X46547619Y-27909580D01*
X43533333Y-88954819D02*
X43200000Y-88478628D01*
X42961905Y-88954819D02*
X42961905Y-87954819D01*
X42961905Y-87954819D02*
X43342857Y-87954819D01*
X43342857Y-87954819D02*
X43438095Y-88002438D01*
X43438095Y-88002438D02*
X43485714Y-88050057D01*
X43485714Y-88050057D02*
X43533333Y-88145295D01*
X43533333Y-88145295D02*
X43533333Y-88288152D01*
X43533333Y-88288152D02*
X43485714Y-88383390D01*
X43485714Y-88383390D02*
X43438095Y-88431009D01*
X43438095Y-88431009D02*
X43342857Y-88478628D01*
X43342857Y-88478628D02*
X42961905Y-88478628D01*
X44390476Y-88288152D02*
X44390476Y-88954819D01*
X44152381Y-87907200D02*
X43914286Y-88621485D01*
X43914286Y-88621485D02*
X44533333Y-88621485D01*
X64633333Y-70354819D02*
X64300000Y-69878628D01*
X64061905Y-70354819D02*
X64061905Y-69354819D01*
X64061905Y-69354819D02*
X64442857Y-69354819D01*
X64442857Y-69354819D02*
X64538095Y-69402438D01*
X64538095Y-69402438D02*
X64585714Y-69450057D01*
X64585714Y-69450057D02*
X64633333Y-69545295D01*
X64633333Y-69545295D02*
X64633333Y-69688152D01*
X64633333Y-69688152D02*
X64585714Y-69783390D01*
X64585714Y-69783390D02*
X64538095Y-69831009D01*
X64538095Y-69831009D02*
X64442857Y-69878628D01*
X64442857Y-69878628D02*
X64061905Y-69878628D01*
X65109524Y-70354819D02*
X65300000Y-70354819D01*
X65300000Y-70354819D02*
X65395238Y-70307200D01*
X65395238Y-70307200D02*
X65442857Y-70259580D01*
X65442857Y-70259580D02*
X65538095Y-70116723D01*
X65538095Y-70116723D02*
X65585714Y-69926247D01*
X65585714Y-69926247D02*
X65585714Y-69545295D01*
X65585714Y-69545295D02*
X65538095Y-69450057D01*
X65538095Y-69450057D02*
X65490476Y-69402438D01*
X65490476Y-69402438D02*
X65395238Y-69354819D01*
X65395238Y-69354819D02*
X65204762Y-69354819D01*
X65204762Y-69354819D02*
X65109524Y-69402438D01*
X65109524Y-69402438D02*
X65061905Y-69450057D01*
X65061905Y-69450057D02*
X65014286Y-69545295D01*
X65014286Y-69545295D02*
X65014286Y-69783390D01*
X65014286Y-69783390D02*
X65061905Y-69878628D01*
X65061905Y-69878628D02*
X65109524Y-69926247D01*
X65109524Y-69926247D02*
X65204762Y-69973866D01*
X65204762Y-69973866D02*
X65395238Y-69973866D01*
X65395238Y-69973866D02*
X65490476Y-69926247D01*
X65490476Y-69926247D02*
X65538095Y-69878628D01*
X65538095Y-69878628D02*
X65585714Y-69783390D01*
X96166666Y-84604819D02*
X96166666Y-85319104D01*
X96166666Y-85319104D02*
X96119047Y-85461961D01*
X96119047Y-85461961D02*
X96023809Y-85557200D01*
X96023809Y-85557200D02*
X95880952Y-85604819D01*
X95880952Y-85604819D02*
X95785714Y-85604819D01*
X96642857Y-85604819D02*
X96642857Y-84604819D01*
X96642857Y-84604819D02*
X97023809Y-84604819D01*
X97023809Y-84604819D02*
X97119047Y-84652438D01*
X97119047Y-84652438D02*
X97166666Y-84700057D01*
X97166666Y-84700057D02*
X97214285Y-84795295D01*
X97214285Y-84795295D02*
X97214285Y-84938152D01*
X97214285Y-84938152D02*
X97166666Y-85033390D01*
X97166666Y-85033390D02*
X97119047Y-85081009D01*
X97119047Y-85081009D02*
X97023809Y-85128628D01*
X97023809Y-85128628D02*
X96642857Y-85128628D01*
X98166666Y-85604819D02*
X97595238Y-85604819D01*
X97880952Y-85604819D02*
X97880952Y-84604819D01*
X97880952Y-84604819D02*
X97785714Y-84747676D01*
X97785714Y-84747676D02*
X97690476Y-84842914D01*
X97690476Y-84842914D02*
X97595238Y-84890533D01*
X73666666Y-25454819D02*
X73666666Y-26169104D01*
X73666666Y-26169104D02*
X73619047Y-26311961D01*
X73619047Y-26311961D02*
X73523809Y-26407200D01*
X73523809Y-26407200D02*
X73380952Y-26454819D01*
X73380952Y-26454819D02*
X73285714Y-26454819D01*
X74571428Y-25454819D02*
X74380952Y-25454819D01*
X74380952Y-25454819D02*
X74285714Y-25502438D01*
X74285714Y-25502438D02*
X74238095Y-25550057D01*
X74238095Y-25550057D02*
X74142857Y-25692914D01*
X74142857Y-25692914D02*
X74095238Y-25883390D01*
X74095238Y-25883390D02*
X74095238Y-26264342D01*
X74095238Y-26264342D02*
X74142857Y-26359580D01*
X74142857Y-26359580D02*
X74190476Y-26407200D01*
X74190476Y-26407200D02*
X74285714Y-26454819D01*
X74285714Y-26454819D02*
X74476190Y-26454819D01*
X74476190Y-26454819D02*
X74571428Y-26407200D01*
X74571428Y-26407200D02*
X74619047Y-26359580D01*
X74619047Y-26359580D02*
X74666666Y-26264342D01*
X74666666Y-26264342D02*
X74666666Y-26026247D01*
X74666666Y-26026247D02*
X74619047Y-25931009D01*
X74619047Y-25931009D02*
X74571428Y-25883390D01*
X74571428Y-25883390D02*
X74476190Y-25835771D01*
X74476190Y-25835771D02*
X74285714Y-25835771D01*
X74285714Y-25835771D02*
X74190476Y-25883390D01*
X74190476Y-25883390D02*
X74142857Y-25931009D01*
X74142857Y-25931009D02*
X74095238Y-26026247D01*
X50033333Y-47959580D02*
X49985714Y-48007200D01*
X49985714Y-48007200D02*
X49842857Y-48054819D01*
X49842857Y-48054819D02*
X49747619Y-48054819D01*
X49747619Y-48054819D02*
X49604762Y-48007200D01*
X49604762Y-48007200D02*
X49509524Y-47911961D01*
X49509524Y-47911961D02*
X49461905Y-47816723D01*
X49461905Y-47816723D02*
X49414286Y-47626247D01*
X49414286Y-47626247D02*
X49414286Y-47483390D01*
X49414286Y-47483390D02*
X49461905Y-47292914D01*
X49461905Y-47292914D02*
X49509524Y-47197676D01*
X49509524Y-47197676D02*
X49604762Y-47102438D01*
X49604762Y-47102438D02*
X49747619Y-47054819D01*
X49747619Y-47054819D02*
X49842857Y-47054819D01*
X49842857Y-47054819D02*
X49985714Y-47102438D01*
X49985714Y-47102438D02*
X50033333Y-47150057D01*
X50366667Y-47054819D02*
X51033333Y-47054819D01*
X51033333Y-47054819D02*
X50604762Y-48054819D01*
X92861905Y-108854819D02*
X92861905Y-107854819D01*
X92861905Y-107854819D02*
X93100000Y-107854819D01*
X93100000Y-107854819D02*
X93242857Y-107902438D01*
X93242857Y-107902438D02*
X93338095Y-107997676D01*
X93338095Y-107997676D02*
X93385714Y-108092914D01*
X93385714Y-108092914D02*
X93433333Y-108283390D01*
X93433333Y-108283390D02*
X93433333Y-108426247D01*
X93433333Y-108426247D02*
X93385714Y-108616723D01*
X93385714Y-108616723D02*
X93338095Y-108711961D01*
X93338095Y-108711961D02*
X93242857Y-108807200D01*
X93242857Y-108807200D02*
X93100000Y-108854819D01*
X93100000Y-108854819D02*
X92861905Y-108854819D01*
X94290476Y-108188152D02*
X94290476Y-108854819D01*
X94052381Y-107807200D02*
X93814286Y-108521485D01*
X93814286Y-108521485D02*
X94433333Y-108521485D01*
X42433333Y-55559580D02*
X42385714Y-55607200D01*
X42385714Y-55607200D02*
X42242857Y-55654819D01*
X42242857Y-55654819D02*
X42147619Y-55654819D01*
X42147619Y-55654819D02*
X42004762Y-55607200D01*
X42004762Y-55607200D02*
X41909524Y-55511961D01*
X41909524Y-55511961D02*
X41861905Y-55416723D01*
X41861905Y-55416723D02*
X41814286Y-55226247D01*
X41814286Y-55226247D02*
X41814286Y-55083390D01*
X41814286Y-55083390D02*
X41861905Y-54892914D01*
X41861905Y-54892914D02*
X41909524Y-54797676D01*
X41909524Y-54797676D02*
X42004762Y-54702438D01*
X42004762Y-54702438D02*
X42147619Y-54654819D01*
X42147619Y-54654819D02*
X42242857Y-54654819D01*
X42242857Y-54654819D02*
X42385714Y-54702438D01*
X42385714Y-54702438D02*
X42433333Y-54750057D01*
X42814286Y-54750057D02*
X42861905Y-54702438D01*
X42861905Y-54702438D02*
X42957143Y-54654819D01*
X42957143Y-54654819D02*
X43195238Y-54654819D01*
X43195238Y-54654819D02*
X43290476Y-54702438D01*
X43290476Y-54702438D02*
X43338095Y-54750057D01*
X43338095Y-54750057D02*
X43385714Y-54845295D01*
X43385714Y-54845295D02*
X43385714Y-54940533D01*
X43385714Y-54940533D02*
X43338095Y-55083390D01*
X43338095Y-55083390D02*
X42766667Y-55654819D01*
X42766667Y-55654819D02*
X43385714Y-55654819D01*
X20488095Y-108244819D02*
X20488095Y-109054342D01*
X20488095Y-109054342D02*
X20535714Y-109149580D01*
X20535714Y-109149580D02*
X20583333Y-109197200D01*
X20583333Y-109197200D02*
X20678571Y-109244819D01*
X20678571Y-109244819D02*
X20869047Y-109244819D01*
X20869047Y-109244819D02*
X20964285Y-109197200D01*
X20964285Y-109197200D02*
X21011904Y-109149580D01*
X21011904Y-109149580D02*
X21059523Y-109054342D01*
X21059523Y-109054342D02*
X21059523Y-108244819D01*
X21440476Y-108244819D02*
X22107142Y-108244819D01*
X22107142Y-108244819D02*
X21678571Y-109244819D01*
X33666667Y-119407200D02*
X33809524Y-119454819D01*
X33809524Y-119454819D02*
X34047619Y-119454819D01*
X34047619Y-119454819D02*
X34142857Y-119407200D01*
X34142857Y-119407200D02*
X34190476Y-119359580D01*
X34190476Y-119359580D02*
X34238095Y-119264342D01*
X34238095Y-119264342D02*
X34238095Y-119169104D01*
X34238095Y-119169104D02*
X34190476Y-119073866D01*
X34190476Y-119073866D02*
X34142857Y-119026247D01*
X34142857Y-119026247D02*
X34047619Y-118978628D01*
X34047619Y-118978628D02*
X33857143Y-118931009D01*
X33857143Y-118931009D02*
X33761905Y-118883390D01*
X33761905Y-118883390D02*
X33714286Y-118835771D01*
X33714286Y-118835771D02*
X33666667Y-118740533D01*
X33666667Y-118740533D02*
X33666667Y-118645295D01*
X33666667Y-118645295D02*
X33714286Y-118550057D01*
X33714286Y-118550057D02*
X33761905Y-118502438D01*
X33761905Y-118502438D02*
X33857143Y-118454819D01*
X33857143Y-118454819D02*
X34095238Y-118454819D01*
X34095238Y-118454819D02*
X34238095Y-118502438D01*
X34571429Y-118454819D02*
X34809524Y-119454819D01*
X34809524Y-119454819D02*
X35000000Y-118740533D01*
X35000000Y-118740533D02*
X35190476Y-119454819D01*
X35190476Y-119454819D02*
X35428572Y-118454819D01*
X35761905Y-118550057D02*
X35809524Y-118502438D01*
X35809524Y-118502438D02*
X35904762Y-118454819D01*
X35904762Y-118454819D02*
X36142857Y-118454819D01*
X36142857Y-118454819D02*
X36238095Y-118502438D01*
X36238095Y-118502438D02*
X36285714Y-118550057D01*
X36285714Y-118550057D02*
X36333333Y-118645295D01*
X36333333Y-118645295D02*
X36333333Y-118740533D01*
X36333333Y-118740533D02*
X36285714Y-118883390D01*
X36285714Y-118883390D02*
X35714286Y-119454819D01*
X35714286Y-119454819D02*
X36333333Y-119454819D01*
X68933333Y-70154819D02*
X68600000Y-69678628D01*
X68361905Y-70154819D02*
X68361905Y-69154819D01*
X68361905Y-69154819D02*
X68742857Y-69154819D01*
X68742857Y-69154819D02*
X68838095Y-69202438D01*
X68838095Y-69202438D02*
X68885714Y-69250057D01*
X68885714Y-69250057D02*
X68933333Y-69345295D01*
X68933333Y-69345295D02*
X68933333Y-69488152D01*
X68933333Y-69488152D02*
X68885714Y-69583390D01*
X68885714Y-69583390D02*
X68838095Y-69631009D01*
X68838095Y-69631009D02*
X68742857Y-69678628D01*
X68742857Y-69678628D02*
X68361905Y-69678628D01*
X69504762Y-69583390D02*
X69409524Y-69535771D01*
X69409524Y-69535771D02*
X69361905Y-69488152D01*
X69361905Y-69488152D02*
X69314286Y-69392914D01*
X69314286Y-69392914D02*
X69314286Y-69345295D01*
X69314286Y-69345295D02*
X69361905Y-69250057D01*
X69361905Y-69250057D02*
X69409524Y-69202438D01*
X69409524Y-69202438D02*
X69504762Y-69154819D01*
X69504762Y-69154819D02*
X69695238Y-69154819D01*
X69695238Y-69154819D02*
X69790476Y-69202438D01*
X69790476Y-69202438D02*
X69838095Y-69250057D01*
X69838095Y-69250057D02*
X69885714Y-69345295D01*
X69885714Y-69345295D02*
X69885714Y-69392914D01*
X69885714Y-69392914D02*
X69838095Y-69488152D01*
X69838095Y-69488152D02*
X69790476Y-69535771D01*
X69790476Y-69535771D02*
X69695238Y-69583390D01*
X69695238Y-69583390D02*
X69504762Y-69583390D01*
X69504762Y-69583390D02*
X69409524Y-69631009D01*
X69409524Y-69631009D02*
X69361905Y-69678628D01*
X69361905Y-69678628D02*
X69314286Y-69773866D01*
X69314286Y-69773866D02*
X69314286Y-69964342D01*
X69314286Y-69964342D02*
X69361905Y-70059580D01*
X69361905Y-70059580D02*
X69409524Y-70107200D01*
X69409524Y-70107200D02*
X69504762Y-70154819D01*
X69504762Y-70154819D02*
X69695238Y-70154819D01*
X69695238Y-70154819D02*
X69790476Y-70107200D01*
X69790476Y-70107200D02*
X69838095Y-70059580D01*
X69838095Y-70059580D02*
X69885714Y-69964342D01*
X69885714Y-69964342D02*
X69885714Y-69773866D01*
X69885714Y-69773866D02*
X69838095Y-69678628D01*
X69838095Y-69678628D02*
X69790476Y-69631009D01*
X69790476Y-69631009D02*
X69695238Y-69583390D01*
X44488095Y-61954819D02*
X44488095Y-62764342D01*
X44488095Y-62764342D02*
X44535714Y-62859580D01*
X44535714Y-62859580D02*
X44583333Y-62907200D01*
X44583333Y-62907200D02*
X44678571Y-62954819D01*
X44678571Y-62954819D02*
X44869047Y-62954819D01*
X44869047Y-62954819D02*
X44964285Y-62907200D01*
X44964285Y-62907200D02*
X45011904Y-62859580D01*
X45011904Y-62859580D02*
X45059523Y-62764342D01*
X45059523Y-62764342D02*
X45059523Y-61954819D01*
X46011904Y-61954819D02*
X45535714Y-61954819D01*
X45535714Y-61954819D02*
X45488095Y-62431009D01*
X45488095Y-62431009D02*
X45535714Y-62383390D01*
X45535714Y-62383390D02*
X45630952Y-62335771D01*
X45630952Y-62335771D02*
X45869047Y-62335771D01*
X45869047Y-62335771D02*
X45964285Y-62383390D01*
X45964285Y-62383390D02*
X46011904Y-62431009D01*
X46011904Y-62431009D02*
X46059523Y-62526247D01*
X46059523Y-62526247D02*
X46059523Y-62764342D01*
X46059523Y-62764342D02*
X46011904Y-62859580D01*
X46011904Y-62859580D02*
X45964285Y-62907200D01*
X45964285Y-62907200D02*
X45869047Y-62954819D01*
X45869047Y-62954819D02*
X45630952Y-62954819D01*
X45630952Y-62954819D02*
X45535714Y-62907200D01*
X45535714Y-62907200D02*
X45488095Y-62859580D01*
X96526666Y-51454819D02*
X96526666Y-52169104D01*
X96526666Y-52169104D02*
X96479047Y-52311961D01*
X96479047Y-52311961D02*
X96383809Y-52407200D01*
X96383809Y-52407200D02*
X96240952Y-52454819D01*
X96240952Y-52454819D02*
X96145714Y-52454819D01*
X96955238Y-51550057D02*
X97002857Y-51502438D01*
X97002857Y-51502438D02*
X97098095Y-51454819D01*
X97098095Y-51454819D02*
X97336190Y-51454819D01*
X97336190Y-51454819D02*
X97431428Y-51502438D01*
X97431428Y-51502438D02*
X97479047Y-51550057D01*
X97479047Y-51550057D02*
X97526666Y-51645295D01*
X97526666Y-51645295D02*
X97526666Y-51740533D01*
X97526666Y-51740533D02*
X97479047Y-51883390D01*
X97479047Y-51883390D02*
X96907619Y-52454819D01*
X96907619Y-52454819D02*
X97526666Y-52454819D01*
X52023809Y-35978628D02*
X52023809Y-36454819D01*
X51690476Y-35454819D02*
X52023809Y-35978628D01*
X52023809Y-35978628D02*
X52357142Y-35454819D01*
X53214285Y-36454819D02*
X52642857Y-36454819D01*
X52928571Y-36454819D02*
X52928571Y-35454819D01*
X52928571Y-35454819D02*
X52833333Y-35597676D01*
X52833333Y-35597676D02*
X52738095Y-35692914D01*
X52738095Y-35692914D02*
X52642857Y-35740533D01*
X46557142Y-72454819D02*
X46223809Y-71978628D01*
X45985714Y-72454819D02*
X45985714Y-71454819D01*
X45985714Y-71454819D02*
X46366666Y-71454819D01*
X46366666Y-71454819D02*
X46461904Y-71502438D01*
X46461904Y-71502438D02*
X46509523Y-71550057D01*
X46509523Y-71550057D02*
X46557142Y-71645295D01*
X46557142Y-71645295D02*
X46557142Y-71788152D01*
X46557142Y-71788152D02*
X46509523Y-71883390D01*
X46509523Y-71883390D02*
X46461904Y-71931009D01*
X46461904Y-71931009D02*
X46366666Y-71978628D01*
X46366666Y-71978628D02*
X45985714Y-71978628D01*
X47509523Y-72454819D02*
X46938095Y-72454819D01*
X47223809Y-72454819D02*
X47223809Y-71454819D01*
X47223809Y-71454819D02*
X47128571Y-71597676D01*
X47128571Y-71597676D02*
X47033333Y-71692914D01*
X47033333Y-71692914D02*
X46938095Y-71740533D01*
X47842857Y-71454819D02*
X48509523Y-71454819D01*
X48509523Y-71454819D02*
X48080952Y-72454819D01*
X43282142Y-73704819D02*
X42948809Y-73228628D01*
X42710714Y-73704819D02*
X42710714Y-72704819D01*
X42710714Y-72704819D02*
X43091666Y-72704819D01*
X43091666Y-72704819D02*
X43186904Y-72752438D01*
X43186904Y-72752438D02*
X43234523Y-72800057D01*
X43234523Y-72800057D02*
X43282142Y-72895295D01*
X43282142Y-72895295D02*
X43282142Y-73038152D01*
X43282142Y-73038152D02*
X43234523Y-73133390D01*
X43234523Y-73133390D02*
X43186904Y-73181009D01*
X43186904Y-73181009D02*
X43091666Y-73228628D01*
X43091666Y-73228628D02*
X42710714Y-73228628D01*
X44234523Y-73704819D02*
X43663095Y-73704819D01*
X43948809Y-73704819D02*
X43948809Y-72704819D01*
X43948809Y-72704819D02*
X43853571Y-72847676D01*
X43853571Y-72847676D02*
X43758333Y-72942914D01*
X43758333Y-72942914D02*
X43663095Y-72990533D01*
X44615476Y-72800057D02*
X44663095Y-72752438D01*
X44663095Y-72752438D02*
X44758333Y-72704819D01*
X44758333Y-72704819D02*
X44996428Y-72704819D01*
X44996428Y-72704819D02*
X45091666Y-72752438D01*
X45091666Y-72752438D02*
X45139285Y-72800057D01*
X45139285Y-72800057D02*
X45186904Y-72895295D01*
X45186904Y-72895295D02*
X45186904Y-72990533D01*
X45186904Y-72990533D02*
X45139285Y-73133390D01*
X45139285Y-73133390D02*
X44567857Y-73704819D01*
X44567857Y-73704819D02*
X45186904Y-73704819D01*
X100774405Y-108854819D02*
X100774405Y-107854819D01*
X100774405Y-107854819D02*
X101012500Y-107854819D01*
X101012500Y-107854819D02*
X101155357Y-107902438D01*
X101155357Y-107902438D02*
X101250595Y-107997676D01*
X101250595Y-107997676D02*
X101298214Y-108092914D01*
X101298214Y-108092914D02*
X101345833Y-108283390D01*
X101345833Y-108283390D02*
X101345833Y-108426247D01*
X101345833Y-108426247D02*
X101298214Y-108616723D01*
X101298214Y-108616723D02*
X101250595Y-108711961D01*
X101250595Y-108711961D02*
X101155357Y-108807200D01*
X101155357Y-108807200D02*
X101012500Y-108854819D01*
X101012500Y-108854819D02*
X100774405Y-108854819D01*
X102202976Y-107854819D02*
X102012500Y-107854819D01*
X102012500Y-107854819D02*
X101917262Y-107902438D01*
X101917262Y-107902438D02*
X101869643Y-107950057D01*
X101869643Y-107950057D02*
X101774405Y-108092914D01*
X101774405Y-108092914D02*
X101726786Y-108283390D01*
X101726786Y-108283390D02*
X101726786Y-108664342D01*
X101726786Y-108664342D02*
X101774405Y-108759580D01*
X101774405Y-108759580D02*
X101822024Y-108807200D01*
X101822024Y-108807200D02*
X101917262Y-108854819D01*
X101917262Y-108854819D02*
X102107738Y-108854819D01*
X102107738Y-108854819D02*
X102202976Y-108807200D01*
X102202976Y-108807200D02*
X102250595Y-108759580D01*
X102250595Y-108759580D02*
X102298214Y-108664342D01*
X102298214Y-108664342D02*
X102298214Y-108426247D01*
X102298214Y-108426247D02*
X102250595Y-108331009D01*
X102250595Y-108331009D02*
X102202976Y-108283390D01*
X102202976Y-108283390D02*
X102107738Y-108235771D01*
X102107738Y-108235771D02*
X101917262Y-108235771D01*
X101917262Y-108235771D02*
X101822024Y-108283390D01*
X101822024Y-108283390D02*
X101774405Y-108331009D01*
X101774405Y-108331009D02*
X101726786Y-108426247D01*
X43959580Y-36942857D02*
X44007200Y-36990476D01*
X44007200Y-36990476D02*
X44054819Y-37133333D01*
X44054819Y-37133333D02*
X44054819Y-37228571D01*
X44054819Y-37228571D02*
X44007200Y-37371428D01*
X44007200Y-37371428D02*
X43911961Y-37466666D01*
X43911961Y-37466666D02*
X43816723Y-37514285D01*
X43816723Y-37514285D02*
X43626247Y-37561904D01*
X43626247Y-37561904D02*
X43483390Y-37561904D01*
X43483390Y-37561904D02*
X43292914Y-37514285D01*
X43292914Y-37514285D02*
X43197676Y-37466666D01*
X43197676Y-37466666D02*
X43102438Y-37371428D01*
X43102438Y-37371428D02*
X43054819Y-37228571D01*
X43054819Y-37228571D02*
X43054819Y-37133333D01*
X43054819Y-37133333D02*
X43102438Y-36990476D01*
X43102438Y-36990476D02*
X43150057Y-36942857D01*
X43150057Y-36561904D02*
X43102438Y-36514285D01*
X43102438Y-36514285D02*
X43054819Y-36419047D01*
X43054819Y-36419047D02*
X43054819Y-36180952D01*
X43054819Y-36180952D02*
X43102438Y-36085714D01*
X43102438Y-36085714D02*
X43150057Y-36038095D01*
X43150057Y-36038095D02*
X43245295Y-35990476D01*
X43245295Y-35990476D02*
X43340533Y-35990476D01*
X43340533Y-35990476D02*
X43483390Y-36038095D01*
X43483390Y-36038095D02*
X44054819Y-36609523D01*
X44054819Y-36609523D02*
X44054819Y-35990476D01*
X43388152Y-35133333D02*
X44054819Y-35133333D01*
X43007200Y-35371428D02*
X43721485Y-35609523D01*
X43721485Y-35609523D02*
X43721485Y-34990476D01*
X80861905Y-109054819D02*
X80861905Y-108054819D01*
X80861905Y-108054819D02*
X81100000Y-108054819D01*
X81100000Y-108054819D02*
X81242857Y-108102438D01*
X81242857Y-108102438D02*
X81338095Y-108197676D01*
X81338095Y-108197676D02*
X81385714Y-108292914D01*
X81385714Y-108292914D02*
X81433333Y-108483390D01*
X81433333Y-108483390D02*
X81433333Y-108626247D01*
X81433333Y-108626247D02*
X81385714Y-108816723D01*
X81385714Y-108816723D02*
X81338095Y-108911961D01*
X81338095Y-108911961D02*
X81242857Y-109007200D01*
X81242857Y-109007200D02*
X81100000Y-109054819D01*
X81100000Y-109054819D02*
X80861905Y-109054819D01*
X82385714Y-109054819D02*
X81814286Y-109054819D01*
X82100000Y-109054819D02*
X82100000Y-108054819D01*
X82100000Y-108054819D02*
X82004762Y-108197676D01*
X82004762Y-108197676D02*
X81909524Y-108292914D01*
X81909524Y-108292914D02*
X81814286Y-108340533D01*
X88661905Y-109054819D02*
X88661905Y-108054819D01*
X88661905Y-108054819D02*
X88900000Y-108054819D01*
X88900000Y-108054819D02*
X89042857Y-108102438D01*
X89042857Y-108102438D02*
X89138095Y-108197676D01*
X89138095Y-108197676D02*
X89185714Y-108292914D01*
X89185714Y-108292914D02*
X89233333Y-108483390D01*
X89233333Y-108483390D02*
X89233333Y-108626247D01*
X89233333Y-108626247D02*
X89185714Y-108816723D01*
X89185714Y-108816723D02*
X89138095Y-108911961D01*
X89138095Y-108911961D02*
X89042857Y-109007200D01*
X89042857Y-109007200D02*
X88900000Y-109054819D01*
X88900000Y-109054819D02*
X88661905Y-109054819D01*
X89566667Y-108054819D02*
X90185714Y-108054819D01*
X90185714Y-108054819D02*
X89852381Y-108435771D01*
X89852381Y-108435771D02*
X89995238Y-108435771D01*
X89995238Y-108435771D02*
X90090476Y-108483390D01*
X90090476Y-108483390D02*
X90138095Y-108531009D01*
X90138095Y-108531009D02*
X90185714Y-108626247D01*
X90185714Y-108626247D02*
X90185714Y-108864342D01*
X90185714Y-108864342D02*
X90138095Y-108959580D01*
X90138095Y-108959580D02*
X90090476Y-109007200D01*
X90090476Y-109007200D02*
X89995238Y-109054819D01*
X89995238Y-109054819D02*
X89709524Y-109054819D01*
X89709524Y-109054819D02*
X89614286Y-109007200D01*
X89614286Y-109007200D02*
X89566667Y-108959580D01*
X36857142Y-73694819D02*
X36523809Y-73218628D01*
X36285714Y-73694819D02*
X36285714Y-72694819D01*
X36285714Y-72694819D02*
X36666666Y-72694819D01*
X36666666Y-72694819D02*
X36761904Y-72742438D01*
X36761904Y-72742438D02*
X36809523Y-72790057D01*
X36809523Y-72790057D02*
X36857142Y-72885295D01*
X36857142Y-72885295D02*
X36857142Y-73028152D01*
X36857142Y-73028152D02*
X36809523Y-73123390D01*
X36809523Y-73123390D02*
X36761904Y-73171009D01*
X36761904Y-73171009D02*
X36666666Y-73218628D01*
X36666666Y-73218628D02*
X36285714Y-73218628D01*
X37809523Y-73694819D02*
X37238095Y-73694819D01*
X37523809Y-73694819D02*
X37523809Y-72694819D01*
X37523809Y-72694819D02*
X37428571Y-72837676D01*
X37428571Y-72837676D02*
X37333333Y-72932914D01*
X37333333Y-72932914D02*
X37238095Y-72980533D01*
X38428571Y-72694819D02*
X38523809Y-72694819D01*
X38523809Y-72694819D02*
X38619047Y-72742438D01*
X38619047Y-72742438D02*
X38666666Y-72790057D01*
X38666666Y-72790057D02*
X38714285Y-72885295D01*
X38714285Y-72885295D02*
X38761904Y-73075771D01*
X38761904Y-73075771D02*
X38761904Y-73313866D01*
X38761904Y-73313866D02*
X38714285Y-73504342D01*
X38714285Y-73504342D02*
X38666666Y-73599580D01*
X38666666Y-73599580D02*
X38619047Y-73647200D01*
X38619047Y-73647200D02*
X38523809Y-73694819D01*
X38523809Y-73694819D02*
X38428571Y-73694819D01*
X38428571Y-73694819D02*
X38333333Y-73647200D01*
X38333333Y-73647200D02*
X38285714Y-73599580D01*
X38285714Y-73599580D02*
X38238095Y-73504342D01*
X38238095Y-73504342D02*
X38190476Y-73313866D01*
X38190476Y-73313866D02*
X38190476Y-73075771D01*
X38190476Y-73075771D02*
X38238095Y-72885295D01*
X38238095Y-72885295D02*
X38285714Y-72790057D01*
X38285714Y-72790057D02*
X38333333Y-72742438D01*
X38333333Y-72742438D02*
X38428571Y-72694819D01*
X43759580Y-91842857D02*
X43807200Y-91890476D01*
X43807200Y-91890476D02*
X43854819Y-92033333D01*
X43854819Y-92033333D02*
X43854819Y-92128571D01*
X43854819Y-92128571D02*
X43807200Y-92271428D01*
X43807200Y-92271428D02*
X43711961Y-92366666D01*
X43711961Y-92366666D02*
X43616723Y-92414285D01*
X43616723Y-92414285D02*
X43426247Y-92461904D01*
X43426247Y-92461904D02*
X43283390Y-92461904D01*
X43283390Y-92461904D02*
X43092914Y-92414285D01*
X43092914Y-92414285D02*
X42997676Y-92366666D01*
X42997676Y-92366666D02*
X42902438Y-92271428D01*
X42902438Y-92271428D02*
X42854819Y-92128571D01*
X42854819Y-92128571D02*
X42854819Y-92033333D01*
X42854819Y-92033333D02*
X42902438Y-91890476D01*
X42902438Y-91890476D02*
X42950057Y-91842857D01*
X43854819Y-90890476D02*
X43854819Y-91461904D01*
X43854819Y-91176190D02*
X42854819Y-91176190D01*
X42854819Y-91176190D02*
X42997676Y-91271428D01*
X42997676Y-91271428D02*
X43092914Y-91366666D01*
X43092914Y-91366666D02*
X43140533Y-91461904D01*
X42854819Y-89985714D02*
X42854819Y-90461904D01*
X42854819Y-90461904D02*
X43331009Y-90509523D01*
X43331009Y-90509523D02*
X43283390Y-90461904D01*
X43283390Y-90461904D02*
X43235771Y-90366666D01*
X43235771Y-90366666D02*
X43235771Y-90128571D01*
X43235771Y-90128571D02*
X43283390Y-90033333D01*
X43283390Y-90033333D02*
X43331009Y-89985714D01*
X43331009Y-89985714D02*
X43426247Y-89938095D01*
X43426247Y-89938095D02*
X43664342Y-89938095D01*
X43664342Y-89938095D02*
X43759580Y-89985714D01*
X43759580Y-89985714D02*
X43807200Y-90033333D01*
X43807200Y-90033333D02*
X43854819Y-90128571D01*
X43854819Y-90128571D02*
X43854819Y-90366666D01*
X43854819Y-90366666D02*
X43807200Y-90461904D01*
X43807200Y-90461904D02*
X43759580Y-90509523D01*
X47107142Y-42359580D02*
X47059523Y-42407200D01*
X47059523Y-42407200D02*
X46916666Y-42454819D01*
X46916666Y-42454819D02*
X46821428Y-42454819D01*
X46821428Y-42454819D02*
X46678571Y-42407200D01*
X46678571Y-42407200D02*
X46583333Y-42311961D01*
X46583333Y-42311961D02*
X46535714Y-42216723D01*
X46535714Y-42216723D02*
X46488095Y-42026247D01*
X46488095Y-42026247D02*
X46488095Y-41883390D01*
X46488095Y-41883390D02*
X46535714Y-41692914D01*
X46535714Y-41692914D02*
X46583333Y-41597676D01*
X46583333Y-41597676D02*
X46678571Y-41502438D01*
X46678571Y-41502438D02*
X46821428Y-41454819D01*
X46821428Y-41454819D02*
X46916666Y-41454819D01*
X46916666Y-41454819D02*
X47059523Y-41502438D01*
X47059523Y-41502438D02*
X47107142Y-41550057D01*
X48059523Y-42454819D02*
X47488095Y-42454819D01*
X47773809Y-42454819D02*
X47773809Y-41454819D01*
X47773809Y-41454819D02*
X47678571Y-41597676D01*
X47678571Y-41597676D02*
X47583333Y-41692914D01*
X47583333Y-41692914D02*
X47488095Y-41740533D01*
X48392857Y-41454819D02*
X49011904Y-41454819D01*
X49011904Y-41454819D02*
X48678571Y-41835771D01*
X48678571Y-41835771D02*
X48821428Y-41835771D01*
X48821428Y-41835771D02*
X48916666Y-41883390D01*
X48916666Y-41883390D02*
X48964285Y-41931009D01*
X48964285Y-41931009D02*
X49011904Y-42026247D01*
X49011904Y-42026247D02*
X49011904Y-42264342D01*
X49011904Y-42264342D02*
X48964285Y-42359580D01*
X48964285Y-42359580D02*
X48916666Y-42407200D01*
X48916666Y-42407200D02*
X48821428Y-42454819D01*
X48821428Y-42454819D02*
X48535714Y-42454819D01*
X48535714Y-42454819D02*
X48440476Y-42407200D01*
X48440476Y-42407200D02*
X48392857Y-42359580D01*
X43282142Y-72454819D02*
X42948809Y-71978628D01*
X42710714Y-72454819D02*
X42710714Y-71454819D01*
X42710714Y-71454819D02*
X43091666Y-71454819D01*
X43091666Y-71454819D02*
X43186904Y-71502438D01*
X43186904Y-71502438D02*
X43234523Y-71550057D01*
X43234523Y-71550057D02*
X43282142Y-71645295D01*
X43282142Y-71645295D02*
X43282142Y-71788152D01*
X43282142Y-71788152D02*
X43234523Y-71883390D01*
X43234523Y-71883390D02*
X43186904Y-71931009D01*
X43186904Y-71931009D02*
X43091666Y-71978628D01*
X43091666Y-71978628D02*
X42710714Y-71978628D01*
X44234523Y-72454819D02*
X43663095Y-72454819D01*
X43948809Y-72454819D02*
X43948809Y-71454819D01*
X43948809Y-71454819D02*
X43853571Y-71597676D01*
X43853571Y-71597676D02*
X43758333Y-71692914D01*
X43758333Y-71692914D02*
X43663095Y-71740533D01*
X45091666Y-71454819D02*
X44901190Y-71454819D01*
X44901190Y-71454819D02*
X44805952Y-71502438D01*
X44805952Y-71502438D02*
X44758333Y-71550057D01*
X44758333Y-71550057D02*
X44663095Y-71692914D01*
X44663095Y-71692914D02*
X44615476Y-71883390D01*
X44615476Y-71883390D02*
X44615476Y-72264342D01*
X44615476Y-72264342D02*
X44663095Y-72359580D01*
X44663095Y-72359580D02*
X44710714Y-72407200D01*
X44710714Y-72407200D02*
X44805952Y-72454819D01*
X44805952Y-72454819D02*
X44996428Y-72454819D01*
X44996428Y-72454819D02*
X45091666Y-72407200D01*
X45091666Y-72407200D02*
X45139285Y-72359580D01*
X45139285Y-72359580D02*
X45186904Y-72264342D01*
X45186904Y-72264342D02*
X45186904Y-72026247D01*
X45186904Y-72026247D02*
X45139285Y-71931009D01*
X45139285Y-71931009D02*
X45091666Y-71883390D01*
X45091666Y-71883390D02*
X44996428Y-71835771D01*
X44996428Y-71835771D02*
X44805952Y-71835771D01*
X44805952Y-71835771D02*
X44710714Y-71883390D01*
X44710714Y-71883390D02*
X44663095Y-71931009D01*
X44663095Y-71931009D02*
X44615476Y-72026247D01*
X42359580Y-37042857D02*
X42407200Y-37090476D01*
X42407200Y-37090476D02*
X42454819Y-37233333D01*
X42454819Y-37233333D02*
X42454819Y-37328571D01*
X42454819Y-37328571D02*
X42407200Y-37471428D01*
X42407200Y-37471428D02*
X42311961Y-37566666D01*
X42311961Y-37566666D02*
X42216723Y-37614285D01*
X42216723Y-37614285D02*
X42026247Y-37661904D01*
X42026247Y-37661904D02*
X41883390Y-37661904D01*
X41883390Y-37661904D02*
X41692914Y-37614285D01*
X41692914Y-37614285D02*
X41597676Y-37566666D01*
X41597676Y-37566666D02*
X41502438Y-37471428D01*
X41502438Y-37471428D02*
X41454819Y-37328571D01*
X41454819Y-37328571D02*
X41454819Y-37233333D01*
X41454819Y-37233333D02*
X41502438Y-37090476D01*
X41502438Y-37090476D02*
X41550057Y-37042857D01*
X41550057Y-36661904D02*
X41502438Y-36614285D01*
X41502438Y-36614285D02*
X41454819Y-36519047D01*
X41454819Y-36519047D02*
X41454819Y-36280952D01*
X41454819Y-36280952D02*
X41502438Y-36185714D01*
X41502438Y-36185714D02*
X41550057Y-36138095D01*
X41550057Y-36138095D02*
X41645295Y-36090476D01*
X41645295Y-36090476D02*
X41740533Y-36090476D01*
X41740533Y-36090476D02*
X41883390Y-36138095D01*
X41883390Y-36138095D02*
X42454819Y-36709523D01*
X42454819Y-36709523D02*
X42454819Y-36090476D01*
X41454819Y-35757142D02*
X41454819Y-35138095D01*
X41454819Y-35138095D02*
X41835771Y-35471428D01*
X41835771Y-35471428D02*
X41835771Y-35328571D01*
X41835771Y-35328571D02*
X41883390Y-35233333D01*
X41883390Y-35233333D02*
X41931009Y-35185714D01*
X41931009Y-35185714D02*
X42026247Y-35138095D01*
X42026247Y-35138095D02*
X42264342Y-35138095D01*
X42264342Y-35138095D02*
X42359580Y-35185714D01*
X42359580Y-35185714D02*
X42407200Y-35233333D01*
X42407200Y-35233333D02*
X42454819Y-35328571D01*
X42454819Y-35328571D02*
X42454819Y-35614285D01*
X42454819Y-35614285D02*
X42407200Y-35709523D01*
X42407200Y-35709523D02*
X42359580Y-35757142D01*
X40783333Y-79304819D02*
X40450000Y-78828628D01*
X40211905Y-79304819D02*
X40211905Y-78304819D01*
X40211905Y-78304819D02*
X40592857Y-78304819D01*
X40592857Y-78304819D02*
X40688095Y-78352438D01*
X40688095Y-78352438D02*
X40735714Y-78400057D01*
X40735714Y-78400057D02*
X40783333Y-78495295D01*
X40783333Y-78495295D02*
X40783333Y-78638152D01*
X40783333Y-78638152D02*
X40735714Y-78733390D01*
X40735714Y-78733390D02*
X40688095Y-78781009D01*
X40688095Y-78781009D02*
X40592857Y-78828628D01*
X40592857Y-78828628D02*
X40211905Y-78828628D01*
X41164286Y-78400057D02*
X41211905Y-78352438D01*
X41211905Y-78352438D02*
X41307143Y-78304819D01*
X41307143Y-78304819D02*
X41545238Y-78304819D01*
X41545238Y-78304819D02*
X41640476Y-78352438D01*
X41640476Y-78352438D02*
X41688095Y-78400057D01*
X41688095Y-78400057D02*
X41735714Y-78495295D01*
X41735714Y-78495295D02*
X41735714Y-78590533D01*
X41735714Y-78590533D02*
X41688095Y-78733390D01*
X41688095Y-78733390D02*
X41116667Y-79304819D01*
X41116667Y-79304819D02*
X41735714Y-79304819D01*
X58483333Y-55759580D02*
X58435714Y-55807200D01*
X58435714Y-55807200D02*
X58292857Y-55854819D01*
X58292857Y-55854819D02*
X58197619Y-55854819D01*
X58197619Y-55854819D02*
X58054762Y-55807200D01*
X58054762Y-55807200D02*
X57959524Y-55711961D01*
X57959524Y-55711961D02*
X57911905Y-55616723D01*
X57911905Y-55616723D02*
X57864286Y-55426247D01*
X57864286Y-55426247D02*
X57864286Y-55283390D01*
X57864286Y-55283390D02*
X57911905Y-55092914D01*
X57911905Y-55092914D02*
X57959524Y-54997676D01*
X57959524Y-54997676D02*
X58054762Y-54902438D01*
X58054762Y-54902438D02*
X58197619Y-54854819D01*
X58197619Y-54854819D02*
X58292857Y-54854819D01*
X58292857Y-54854819D02*
X58435714Y-54902438D01*
X58435714Y-54902438D02*
X58483333Y-54950057D01*
X58816667Y-54854819D02*
X59435714Y-54854819D01*
X59435714Y-54854819D02*
X59102381Y-55235771D01*
X59102381Y-55235771D02*
X59245238Y-55235771D01*
X59245238Y-55235771D02*
X59340476Y-55283390D01*
X59340476Y-55283390D02*
X59388095Y-55331009D01*
X59388095Y-55331009D02*
X59435714Y-55426247D01*
X59435714Y-55426247D02*
X59435714Y-55664342D01*
X59435714Y-55664342D02*
X59388095Y-55759580D01*
X59388095Y-55759580D02*
X59340476Y-55807200D01*
X59340476Y-55807200D02*
X59245238Y-55854819D01*
X59245238Y-55854819D02*
X58959524Y-55854819D01*
X58959524Y-55854819D02*
X58864286Y-55807200D01*
X58864286Y-55807200D02*
X58816667Y-55759580D01*
X92266666Y-44254819D02*
X92266666Y-44969104D01*
X92266666Y-44969104D02*
X92219047Y-45111961D01*
X92219047Y-45111961D02*
X92123809Y-45207200D01*
X92123809Y-45207200D02*
X91980952Y-45254819D01*
X91980952Y-45254819D02*
X91885714Y-45254819D01*
X92742857Y-45254819D02*
X92742857Y-44254819D01*
X92742857Y-44254819D02*
X93123809Y-44254819D01*
X93123809Y-44254819D02*
X93219047Y-44302438D01*
X93219047Y-44302438D02*
X93266666Y-44350057D01*
X93266666Y-44350057D02*
X93314285Y-44445295D01*
X93314285Y-44445295D02*
X93314285Y-44588152D01*
X93314285Y-44588152D02*
X93266666Y-44683390D01*
X93266666Y-44683390D02*
X93219047Y-44731009D01*
X93219047Y-44731009D02*
X93123809Y-44778628D01*
X93123809Y-44778628D02*
X92742857Y-44778628D01*
X93695238Y-44350057D02*
X93742857Y-44302438D01*
X93742857Y-44302438D02*
X93838095Y-44254819D01*
X93838095Y-44254819D02*
X94076190Y-44254819D01*
X94076190Y-44254819D02*
X94171428Y-44302438D01*
X94171428Y-44302438D02*
X94219047Y-44350057D01*
X94219047Y-44350057D02*
X94266666Y-44445295D01*
X94266666Y-44445295D02*
X94266666Y-44540533D01*
X94266666Y-44540533D02*
X94219047Y-44683390D01*
X94219047Y-44683390D02*
X93647619Y-45254819D01*
X93647619Y-45254819D02*
X94266666Y-45254819D01*
X63107142Y-46859580D02*
X63059523Y-46907200D01*
X63059523Y-46907200D02*
X62916666Y-46954819D01*
X62916666Y-46954819D02*
X62821428Y-46954819D01*
X62821428Y-46954819D02*
X62678571Y-46907200D01*
X62678571Y-46907200D02*
X62583333Y-46811961D01*
X62583333Y-46811961D02*
X62535714Y-46716723D01*
X62535714Y-46716723D02*
X62488095Y-46526247D01*
X62488095Y-46526247D02*
X62488095Y-46383390D01*
X62488095Y-46383390D02*
X62535714Y-46192914D01*
X62535714Y-46192914D02*
X62583333Y-46097676D01*
X62583333Y-46097676D02*
X62678571Y-46002438D01*
X62678571Y-46002438D02*
X62821428Y-45954819D01*
X62821428Y-45954819D02*
X62916666Y-45954819D01*
X62916666Y-45954819D02*
X63059523Y-46002438D01*
X63059523Y-46002438D02*
X63107142Y-46050057D01*
X64059523Y-46954819D02*
X63488095Y-46954819D01*
X63773809Y-46954819D02*
X63773809Y-45954819D01*
X63773809Y-45954819D02*
X63678571Y-46097676D01*
X63678571Y-46097676D02*
X63583333Y-46192914D01*
X63583333Y-46192914D02*
X63488095Y-46240533D01*
X64392857Y-45954819D02*
X65059523Y-45954819D01*
X65059523Y-45954819D02*
X64630952Y-46954819D01*
X108998155Y-108854819D02*
X108998155Y-107854819D01*
X108998155Y-107854819D02*
X109236250Y-107854819D01*
X109236250Y-107854819D02*
X109379107Y-107902438D01*
X109379107Y-107902438D02*
X109474345Y-107997676D01*
X109474345Y-107997676D02*
X109521964Y-108092914D01*
X109521964Y-108092914D02*
X109569583Y-108283390D01*
X109569583Y-108283390D02*
X109569583Y-108426247D01*
X109569583Y-108426247D02*
X109521964Y-108616723D01*
X109521964Y-108616723D02*
X109474345Y-108711961D01*
X109474345Y-108711961D02*
X109379107Y-108807200D01*
X109379107Y-108807200D02*
X109236250Y-108854819D01*
X109236250Y-108854819D02*
X108998155Y-108854819D01*
X110141012Y-108283390D02*
X110045774Y-108235771D01*
X110045774Y-108235771D02*
X109998155Y-108188152D01*
X109998155Y-108188152D02*
X109950536Y-108092914D01*
X109950536Y-108092914D02*
X109950536Y-108045295D01*
X109950536Y-108045295D02*
X109998155Y-107950057D01*
X109998155Y-107950057D02*
X110045774Y-107902438D01*
X110045774Y-107902438D02*
X110141012Y-107854819D01*
X110141012Y-107854819D02*
X110331488Y-107854819D01*
X110331488Y-107854819D02*
X110426726Y-107902438D01*
X110426726Y-107902438D02*
X110474345Y-107950057D01*
X110474345Y-107950057D02*
X110521964Y-108045295D01*
X110521964Y-108045295D02*
X110521964Y-108092914D01*
X110521964Y-108092914D02*
X110474345Y-108188152D01*
X110474345Y-108188152D02*
X110426726Y-108235771D01*
X110426726Y-108235771D02*
X110331488Y-108283390D01*
X110331488Y-108283390D02*
X110141012Y-108283390D01*
X110141012Y-108283390D02*
X110045774Y-108331009D01*
X110045774Y-108331009D02*
X109998155Y-108378628D01*
X109998155Y-108378628D02*
X109950536Y-108473866D01*
X109950536Y-108473866D02*
X109950536Y-108664342D01*
X109950536Y-108664342D02*
X109998155Y-108759580D01*
X109998155Y-108759580D02*
X110045774Y-108807200D01*
X110045774Y-108807200D02*
X110141012Y-108854819D01*
X110141012Y-108854819D02*
X110331488Y-108854819D01*
X110331488Y-108854819D02*
X110426726Y-108807200D01*
X110426726Y-108807200D02*
X110474345Y-108759580D01*
X110474345Y-108759580D02*
X110521964Y-108664342D01*
X110521964Y-108664342D02*
X110521964Y-108473866D01*
X110521964Y-108473866D02*
X110474345Y-108378628D01*
X110474345Y-108378628D02*
X110426726Y-108331009D01*
X110426726Y-108331009D02*
X110331488Y-108283390D01*
X35381666Y-100704819D02*
X35381666Y-101419104D01*
X35381666Y-101419104D02*
X35334047Y-101561961D01*
X35334047Y-101561961D02*
X35238809Y-101657200D01*
X35238809Y-101657200D02*
X35095952Y-101704819D01*
X35095952Y-101704819D02*
X35000714Y-101704819D01*
X36334047Y-100704819D02*
X35857857Y-100704819D01*
X35857857Y-100704819D02*
X35810238Y-101181009D01*
X35810238Y-101181009D02*
X35857857Y-101133390D01*
X35857857Y-101133390D02*
X35953095Y-101085771D01*
X35953095Y-101085771D02*
X36191190Y-101085771D01*
X36191190Y-101085771D02*
X36286428Y-101133390D01*
X36286428Y-101133390D02*
X36334047Y-101181009D01*
X36334047Y-101181009D02*
X36381666Y-101276247D01*
X36381666Y-101276247D02*
X36381666Y-101514342D01*
X36381666Y-101514342D02*
X36334047Y-101609580D01*
X36334047Y-101609580D02*
X36286428Y-101657200D01*
X36286428Y-101657200D02*
X36191190Y-101704819D01*
X36191190Y-101704819D02*
X35953095Y-101704819D01*
X35953095Y-101704819D02*
X35857857Y-101657200D01*
X35857857Y-101657200D02*
X35810238Y-101609580D01*
X36782142Y-71099580D02*
X36734523Y-71147200D01*
X36734523Y-71147200D02*
X36591666Y-71194819D01*
X36591666Y-71194819D02*
X36496428Y-71194819D01*
X36496428Y-71194819D02*
X36353571Y-71147200D01*
X36353571Y-71147200D02*
X36258333Y-71051961D01*
X36258333Y-71051961D02*
X36210714Y-70956723D01*
X36210714Y-70956723D02*
X36163095Y-70766247D01*
X36163095Y-70766247D02*
X36163095Y-70623390D01*
X36163095Y-70623390D02*
X36210714Y-70432914D01*
X36210714Y-70432914D02*
X36258333Y-70337676D01*
X36258333Y-70337676D02*
X36353571Y-70242438D01*
X36353571Y-70242438D02*
X36496428Y-70194819D01*
X36496428Y-70194819D02*
X36591666Y-70194819D01*
X36591666Y-70194819D02*
X36734523Y-70242438D01*
X36734523Y-70242438D02*
X36782142Y-70290057D01*
X37734523Y-71194819D02*
X37163095Y-71194819D01*
X37448809Y-71194819D02*
X37448809Y-70194819D01*
X37448809Y-70194819D02*
X37353571Y-70337676D01*
X37353571Y-70337676D02*
X37258333Y-70432914D01*
X37258333Y-70432914D02*
X37163095Y-70480533D01*
X38305952Y-70623390D02*
X38210714Y-70575771D01*
X38210714Y-70575771D02*
X38163095Y-70528152D01*
X38163095Y-70528152D02*
X38115476Y-70432914D01*
X38115476Y-70432914D02*
X38115476Y-70385295D01*
X38115476Y-70385295D02*
X38163095Y-70290057D01*
X38163095Y-70290057D02*
X38210714Y-70242438D01*
X38210714Y-70242438D02*
X38305952Y-70194819D01*
X38305952Y-70194819D02*
X38496428Y-70194819D01*
X38496428Y-70194819D02*
X38591666Y-70242438D01*
X38591666Y-70242438D02*
X38639285Y-70290057D01*
X38639285Y-70290057D02*
X38686904Y-70385295D01*
X38686904Y-70385295D02*
X38686904Y-70432914D01*
X38686904Y-70432914D02*
X38639285Y-70528152D01*
X38639285Y-70528152D02*
X38591666Y-70575771D01*
X38591666Y-70575771D02*
X38496428Y-70623390D01*
X38496428Y-70623390D02*
X38305952Y-70623390D01*
X38305952Y-70623390D02*
X38210714Y-70671009D01*
X38210714Y-70671009D02*
X38163095Y-70718628D01*
X38163095Y-70718628D02*
X38115476Y-70813866D01*
X38115476Y-70813866D02*
X38115476Y-71004342D01*
X38115476Y-71004342D02*
X38163095Y-71099580D01*
X38163095Y-71099580D02*
X38210714Y-71147200D01*
X38210714Y-71147200D02*
X38305952Y-71194819D01*
X38305952Y-71194819D02*
X38496428Y-71194819D01*
X38496428Y-71194819D02*
X38591666Y-71147200D01*
X38591666Y-71147200D02*
X38639285Y-71099580D01*
X38639285Y-71099580D02*
X38686904Y-71004342D01*
X38686904Y-71004342D02*
X38686904Y-70813866D01*
X38686904Y-70813866D02*
X38639285Y-70718628D01*
X38639285Y-70718628D02*
X38591666Y-70671009D01*
X38591666Y-70671009D02*
X38496428Y-70623390D01*
X46557142Y-71109580D02*
X46509523Y-71157200D01*
X46509523Y-71157200D02*
X46366666Y-71204819D01*
X46366666Y-71204819D02*
X46271428Y-71204819D01*
X46271428Y-71204819D02*
X46128571Y-71157200D01*
X46128571Y-71157200D02*
X46033333Y-71061961D01*
X46033333Y-71061961D02*
X45985714Y-70966723D01*
X45985714Y-70966723D02*
X45938095Y-70776247D01*
X45938095Y-70776247D02*
X45938095Y-70633390D01*
X45938095Y-70633390D02*
X45985714Y-70442914D01*
X45985714Y-70442914D02*
X46033333Y-70347676D01*
X46033333Y-70347676D02*
X46128571Y-70252438D01*
X46128571Y-70252438D02*
X46271428Y-70204819D01*
X46271428Y-70204819D02*
X46366666Y-70204819D01*
X46366666Y-70204819D02*
X46509523Y-70252438D01*
X46509523Y-70252438D02*
X46557142Y-70300057D01*
X46938095Y-70300057D02*
X46985714Y-70252438D01*
X46985714Y-70252438D02*
X47080952Y-70204819D01*
X47080952Y-70204819D02*
X47319047Y-70204819D01*
X47319047Y-70204819D02*
X47414285Y-70252438D01*
X47414285Y-70252438D02*
X47461904Y-70300057D01*
X47461904Y-70300057D02*
X47509523Y-70395295D01*
X47509523Y-70395295D02*
X47509523Y-70490533D01*
X47509523Y-70490533D02*
X47461904Y-70633390D01*
X47461904Y-70633390D02*
X46890476Y-71204819D01*
X46890476Y-71204819D02*
X47509523Y-71204819D01*
X48461904Y-71204819D02*
X47890476Y-71204819D01*
X48176190Y-71204819D02*
X48176190Y-70204819D01*
X48176190Y-70204819D02*
X48080952Y-70347676D01*
X48080952Y-70347676D02*
X47985714Y-70442914D01*
X47985714Y-70442914D02*
X47890476Y-70490533D01*
X40132142Y-73694819D02*
X39798809Y-73218628D01*
X39560714Y-73694819D02*
X39560714Y-72694819D01*
X39560714Y-72694819D02*
X39941666Y-72694819D01*
X39941666Y-72694819D02*
X40036904Y-72742438D01*
X40036904Y-72742438D02*
X40084523Y-72790057D01*
X40084523Y-72790057D02*
X40132142Y-72885295D01*
X40132142Y-72885295D02*
X40132142Y-73028152D01*
X40132142Y-73028152D02*
X40084523Y-73123390D01*
X40084523Y-73123390D02*
X40036904Y-73171009D01*
X40036904Y-73171009D02*
X39941666Y-73218628D01*
X39941666Y-73218628D02*
X39560714Y-73218628D01*
X41084523Y-73694819D02*
X40513095Y-73694819D01*
X40798809Y-73694819D02*
X40798809Y-72694819D01*
X40798809Y-72694819D02*
X40703571Y-72837676D01*
X40703571Y-72837676D02*
X40608333Y-72932914D01*
X40608333Y-72932914D02*
X40513095Y-72980533D01*
X42036904Y-73694819D02*
X41465476Y-73694819D01*
X41751190Y-73694819D02*
X41751190Y-72694819D01*
X41751190Y-72694819D02*
X41655952Y-72837676D01*
X41655952Y-72837676D02*
X41560714Y-72932914D01*
X41560714Y-72932914D02*
X41465476Y-72980533D01*
X106580892Y-105454819D02*
X106247559Y-104978628D01*
X106009464Y-105454819D02*
X106009464Y-104454819D01*
X106009464Y-104454819D02*
X106390416Y-104454819D01*
X106390416Y-104454819D02*
X106485654Y-104502438D01*
X106485654Y-104502438D02*
X106533273Y-104550057D01*
X106533273Y-104550057D02*
X106580892Y-104645295D01*
X106580892Y-104645295D02*
X106580892Y-104788152D01*
X106580892Y-104788152D02*
X106533273Y-104883390D01*
X106533273Y-104883390D02*
X106485654Y-104931009D01*
X106485654Y-104931009D02*
X106390416Y-104978628D01*
X106390416Y-104978628D02*
X106009464Y-104978628D01*
X106961845Y-104550057D02*
X107009464Y-104502438D01*
X107009464Y-104502438D02*
X107104702Y-104454819D01*
X107104702Y-104454819D02*
X107342797Y-104454819D01*
X107342797Y-104454819D02*
X107438035Y-104502438D01*
X107438035Y-104502438D02*
X107485654Y-104550057D01*
X107485654Y-104550057D02*
X107533273Y-104645295D01*
X107533273Y-104645295D02*
X107533273Y-104740533D01*
X107533273Y-104740533D02*
X107485654Y-104883390D01*
X107485654Y-104883390D02*
X106914226Y-105454819D01*
X106914226Y-105454819D02*
X107533273Y-105454819D01*
X108485654Y-105454819D02*
X107914226Y-105454819D01*
X108199940Y-105454819D02*
X108199940Y-104454819D01*
X108199940Y-104454819D02*
X108104702Y-104597676D01*
X108104702Y-104597676D02*
X108009464Y-104692914D01*
X108009464Y-104692914D02*
X107914226Y-104740533D01*
X41404819Y-99166666D02*
X40928628Y-99499999D01*
X41404819Y-99738094D02*
X40404819Y-99738094D01*
X40404819Y-99738094D02*
X40404819Y-99357142D01*
X40404819Y-99357142D02*
X40452438Y-99261904D01*
X40452438Y-99261904D02*
X40500057Y-99214285D01*
X40500057Y-99214285D02*
X40595295Y-99166666D01*
X40595295Y-99166666D02*
X40738152Y-99166666D01*
X40738152Y-99166666D02*
X40833390Y-99214285D01*
X40833390Y-99214285D02*
X40881009Y-99261904D01*
X40881009Y-99261904D02*
X40928628Y-99357142D01*
X40928628Y-99357142D02*
X40928628Y-99738094D01*
X40404819Y-98309523D02*
X40404819Y-98499999D01*
X40404819Y-98499999D02*
X40452438Y-98595237D01*
X40452438Y-98595237D02*
X40500057Y-98642856D01*
X40500057Y-98642856D02*
X40642914Y-98738094D01*
X40642914Y-98738094D02*
X40833390Y-98785713D01*
X40833390Y-98785713D02*
X41214342Y-98785713D01*
X41214342Y-98785713D02*
X41309580Y-98738094D01*
X41309580Y-98738094D02*
X41357200Y-98690475D01*
X41357200Y-98690475D02*
X41404819Y-98595237D01*
X41404819Y-98595237D02*
X41404819Y-98404761D01*
X41404819Y-98404761D02*
X41357200Y-98309523D01*
X41357200Y-98309523D02*
X41309580Y-98261904D01*
X41309580Y-98261904D02*
X41214342Y-98214285D01*
X41214342Y-98214285D02*
X40976247Y-98214285D01*
X40976247Y-98214285D02*
X40881009Y-98261904D01*
X40881009Y-98261904D02*
X40833390Y-98309523D01*
X40833390Y-98309523D02*
X40785771Y-98404761D01*
X40785771Y-98404761D02*
X40785771Y-98595237D01*
X40785771Y-98595237D02*
X40833390Y-98690475D01*
X40833390Y-98690475D02*
X40881009Y-98738094D01*
X40881009Y-98738094D02*
X40976247Y-98785713D01*
X63107142Y-48859580D02*
X63059523Y-48907200D01*
X63059523Y-48907200D02*
X62916666Y-48954819D01*
X62916666Y-48954819D02*
X62821428Y-48954819D01*
X62821428Y-48954819D02*
X62678571Y-48907200D01*
X62678571Y-48907200D02*
X62583333Y-48811961D01*
X62583333Y-48811961D02*
X62535714Y-48716723D01*
X62535714Y-48716723D02*
X62488095Y-48526247D01*
X62488095Y-48526247D02*
X62488095Y-48383390D01*
X62488095Y-48383390D02*
X62535714Y-48192914D01*
X62535714Y-48192914D02*
X62583333Y-48097676D01*
X62583333Y-48097676D02*
X62678571Y-48002438D01*
X62678571Y-48002438D02*
X62821428Y-47954819D01*
X62821428Y-47954819D02*
X62916666Y-47954819D01*
X62916666Y-47954819D02*
X63059523Y-48002438D01*
X63059523Y-48002438D02*
X63107142Y-48050057D01*
X64059523Y-48954819D02*
X63488095Y-48954819D01*
X63773809Y-48954819D02*
X63773809Y-47954819D01*
X63773809Y-47954819D02*
X63678571Y-48097676D01*
X63678571Y-48097676D02*
X63583333Y-48192914D01*
X63583333Y-48192914D02*
X63488095Y-48240533D01*
X64916666Y-47954819D02*
X64726190Y-47954819D01*
X64726190Y-47954819D02*
X64630952Y-48002438D01*
X64630952Y-48002438D02*
X64583333Y-48050057D01*
X64583333Y-48050057D02*
X64488095Y-48192914D01*
X64488095Y-48192914D02*
X64440476Y-48383390D01*
X64440476Y-48383390D02*
X64440476Y-48764342D01*
X64440476Y-48764342D02*
X64488095Y-48859580D01*
X64488095Y-48859580D02*
X64535714Y-48907200D01*
X64535714Y-48907200D02*
X64630952Y-48954819D01*
X64630952Y-48954819D02*
X64821428Y-48954819D01*
X64821428Y-48954819D02*
X64916666Y-48907200D01*
X64916666Y-48907200D02*
X64964285Y-48859580D01*
X64964285Y-48859580D02*
X65011904Y-48764342D01*
X65011904Y-48764342D02*
X65011904Y-48526247D01*
X65011904Y-48526247D02*
X64964285Y-48431009D01*
X64964285Y-48431009D02*
X64916666Y-48383390D01*
X64916666Y-48383390D02*
X64821428Y-48335771D01*
X64821428Y-48335771D02*
X64630952Y-48335771D01*
X64630952Y-48335771D02*
X64535714Y-48383390D01*
X64535714Y-48383390D02*
X64488095Y-48431009D01*
X64488095Y-48431009D02*
X64440476Y-48526247D01*
X43404819Y-98416666D02*
X42928628Y-98749999D01*
X43404819Y-98988094D02*
X42404819Y-98988094D01*
X42404819Y-98988094D02*
X42404819Y-98607142D01*
X42404819Y-98607142D02*
X42452438Y-98511904D01*
X42452438Y-98511904D02*
X42500057Y-98464285D01*
X42500057Y-98464285D02*
X42595295Y-98416666D01*
X42595295Y-98416666D02*
X42738152Y-98416666D01*
X42738152Y-98416666D02*
X42833390Y-98464285D01*
X42833390Y-98464285D02*
X42881009Y-98511904D01*
X42881009Y-98511904D02*
X42928628Y-98607142D01*
X42928628Y-98607142D02*
X42928628Y-98988094D01*
X42404819Y-97511904D02*
X42404819Y-97988094D01*
X42404819Y-97988094D02*
X42881009Y-98035713D01*
X42881009Y-98035713D02*
X42833390Y-97988094D01*
X42833390Y-97988094D02*
X42785771Y-97892856D01*
X42785771Y-97892856D02*
X42785771Y-97654761D01*
X42785771Y-97654761D02*
X42833390Y-97559523D01*
X42833390Y-97559523D02*
X42881009Y-97511904D01*
X42881009Y-97511904D02*
X42976247Y-97464285D01*
X42976247Y-97464285D02*
X43214342Y-97464285D01*
X43214342Y-97464285D02*
X43309580Y-97511904D01*
X43309580Y-97511904D02*
X43357200Y-97559523D01*
X43357200Y-97559523D02*
X43404819Y-97654761D01*
X43404819Y-97654761D02*
X43404819Y-97892856D01*
X43404819Y-97892856D02*
X43357200Y-97988094D01*
X43357200Y-97988094D02*
X43309580Y-98035713D01*
X57666667Y-119407200D02*
X57809524Y-119454819D01*
X57809524Y-119454819D02*
X58047619Y-119454819D01*
X58047619Y-119454819D02*
X58142857Y-119407200D01*
X58142857Y-119407200D02*
X58190476Y-119359580D01*
X58190476Y-119359580D02*
X58238095Y-119264342D01*
X58238095Y-119264342D02*
X58238095Y-119169104D01*
X58238095Y-119169104D02*
X58190476Y-119073866D01*
X58190476Y-119073866D02*
X58142857Y-119026247D01*
X58142857Y-119026247D02*
X58047619Y-118978628D01*
X58047619Y-118978628D02*
X57857143Y-118931009D01*
X57857143Y-118931009D02*
X57761905Y-118883390D01*
X57761905Y-118883390D02*
X57714286Y-118835771D01*
X57714286Y-118835771D02*
X57666667Y-118740533D01*
X57666667Y-118740533D02*
X57666667Y-118645295D01*
X57666667Y-118645295D02*
X57714286Y-118550057D01*
X57714286Y-118550057D02*
X57761905Y-118502438D01*
X57761905Y-118502438D02*
X57857143Y-118454819D01*
X57857143Y-118454819D02*
X58095238Y-118454819D01*
X58095238Y-118454819D02*
X58238095Y-118502438D01*
X58571429Y-118454819D02*
X58809524Y-119454819D01*
X58809524Y-119454819D02*
X59000000Y-118740533D01*
X59000000Y-118740533D02*
X59190476Y-119454819D01*
X59190476Y-119454819D02*
X59428572Y-118454819D01*
X60238095Y-118788152D02*
X60238095Y-119454819D01*
X60000000Y-118407200D02*
X59761905Y-119121485D01*
X59761905Y-119121485D02*
X60380952Y-119121485D01*
X43107142Y-71109580D02*
X43059523Y-71157200D01*
X43059523Y-71157200D02*
X42916666Y-71204819D01*
X42916666Y-71204819D02*
X42821428Y-71204819D01*
X42821428Y-71204819D02*
X42678571Y-71157200D01*
X42678571Y-71157200D02*
X42583333Y-71061961D01*
X42583333Y-71061961D02*
X42535714Y-70966723D01*
X42535714Y-70966723D02*
X42488095Y-70776247D01*
X42488095Y-70776247D02*
X42488095Y-70633390D01*
X42488095Y-70633390D02*
X42535714Y-70442914D01*
X42535714Y-70442914D02*
X42583333Y-70347676D01*
X42583333Y-70347676D02*
X42678571Y-70252438D01*
X42678571Y-70252438D02*
X42821428Y-70204819D01*
X42821428Y-70204819D02*
X42916666Y-70204819D01*
X42916666Y-70204819D02*
X43059523Y-70252438D01*
X43059523Y-70252438D02*
X43107142Y-70300057D01*
X43488095Y-70300057D02*
X43535714Y-70252438D01*
X43535714Y-70252438D02*
X43630952Y-70204819D01*
X43630952Y-70204819D02*
X43869047Y-70204819D01*
X43869047Y-70204819D02*
X43964285Y-70252438D01*
X43964285Y-70252438D02*
X44011904Y-70300057D01*
X44011904Y-70300057D02*
X44059523Y-70395295D01*
X44059523Y-70395295D02*
X44059523Y-70490533D01*
X44059523Y-70490533D02*
X44011904Y-70633390D01*
X44011904Y-70633390D02*
X43440476Y-71204819D01*
X43440476Y-71204819D02*
X44059523Y-71204819D01*
X44678571Y-70204819D02*
X44773809Y-70204819D01*
X44773809Y-70204819D02*
X44869047Y-70252438D01*
X44869047Y-70252438D02*
X44916666Y-70300057D01*
X44916666Y-70300057D02*
X44964285Y-70395295D01*
X44964285Y-70395295D02*
X45011904Y-70585771D01*
X45011904Y-70585771D02*
X45011904Y-70823866D01*
X45011904Y-70823866D02*
X44964285Y-71014342D01*
X44964285Y-71014342D02*
X44916666Y-71109580D01*
X44916666Y-71109580D02*
X44869047Y-71157200D01*
X44869047Y-71157200D02*
X44773809Y-71204819D01*
X44773809Y-71204819D02*
X44678571Y-71204819D01*
X44678571Y-71204819D02*
X44583333Y-71157200D01*
X44583333Y-71157200D02*
X44535714Y-71109580D01*
X44535714Y-71109580D02*
X44488095Y-71014342D01*
X44488095Y-71014342D02*
X44440476Y-70823866D01*
X44440476Y-70823866D02*
X44440476Y-70585771D01*
X44440476Y-70585771D02*
X44488095Y-70395295D01*
X44488095Y-70395295D02*
X44535714Y-70300057D01*
X44535714Y-70300057D02*
X44583333Y-70252438D01*
X44583333Y-70252438D02*
X44678571Y-70204819D01*
X72757142Y-39409580D02*
X72709523Y-39457200D01*
X72709523Y-39457200D02*
X72566666Y-39504819D01*
X72566666Y-39504819D02*
X72471428Y-39504819D01*
X72471428Y-39504819D02*
X72328571Y-39457200D01*
X72328571Y-39457200D02*
X72233333Y-39361961D01*
X72233333Y-39361961D02*
X72185714Y-39266723D01*
X72185714Y-39266723D02*
X72138095Y-39076247D01*
X72138095Y-39076247D02*
X72138095Y-38933390D01*
X72138095Y-38933390D02*
X72185714Y-38742914D01*
X72185714Y-38742914D02*
X72233333Y-38647676D01*
X72233333Y-38647676D02*
X72328571Y-38552438D01*
X72328571Y-38552438D02*
X72471428Y-38504819D01*
X72471428Y-38504819D02*
X72566666Y-38504819D01*
X72566666Y-38504819D02*
X72709523Y-38552438D01*
X72709523Y-38552438D02*
X72757142Y-38600057D01*
X73709523Y-39504819D02*
X73138095Y-39504819D01*
X73423809Y-39504819D02*
X73423809Y-38504819D01*
X73423809Y-38504819D02*
X73328571Y-38647676D01*
X73328571Y-38647676D02*
X73233333Y-38742914D01*
X73233333Y-38742914D02*
X73138095Y-38790533D01*
X74328571Y-38504819D02*
X74423809Y-38504819D01*
X74423809Y-38504819D02*
X74519047Y-38552438D01*
X74519047Y-38552438D02*
X74566666Y-38600057D01*
X74566666Y-38600057D02*
X74614285Y-38695295D01*
X74614285Y-38695295D02*
X74661904Y-38885771D01*
X74661904Y-38885771D02*
X74661904Y-39123866D01*
X74661904Y-39123866D02*
X74614285Y-39314342D01*
X74614285Y-39314342D02*
X74566666Y-39409580D01*
X74566666Y-39409580D02*
X74519047Y-39457200D01*
X74519047Y-39457200D02*
X74423809Y-39504819D01*
X74423809Y-39504819D02*
X74328571Y-39504819D01*
X74328571Y-39504819D02*
X74233333Y-39457200D01*
X74233333Y-39457200D02*
X74185714Y-39409580D01*
X74185714Y-39409580D02*
X74138095Y-39314342D01*
X74138095Y-39314342D02*
X74090476Y-39123866D01*
X74090476Y-39123866D02*
X74090476Y-38885771D01*
X74090476Y-38885771D02*
X74138095Y-38695295D01*
X74138095Y-38695295D02*
X74185714Y-38600057D01*
X74185714Y-38600057D02*
X74233333Y-38552438D01*
X74233333Y-38552438D02*
X74328571Y-38504819D01*
X44033333Y-44254819D02*
X43557143Y-44254819D01*
X43557143Y-44254819D02*
X43557143Y-43254819D01*
X44890476Y-44254819D02*
X44319048Y-44254819D01*
X44604762Y-44254819D02*
X44604762Y-43254819D01*
X44604762Y-43254819D02*
X44509524Y-43397676D01*
X44509524Y-43397676D02*
X44414286Y-43492914D01*
X44414286Y-43492914D02*
X44319048Y-43540533D01*
X44704761Y-84550057D02*
X44609523Y-84502438D01*
X44609523Y-84502438D02*
X44514285Y-84407200D01*
X44514285Y-84407200D02*
X44371428Y-84264342D01*
X44371428Y-84264342D02*
X44276190Y-84216723D01*
X44276190Y-84216723D02*
X44180952Y-84216723D01*
X44228571Y-84454819D02*
X44133333Y-84407200D01*
X44133333Y-84407200D02*
X44038095Y-84311961D01*
X44038095Y-84311961D02*
X43990476Y-84121485D01*
X43990476Y-84121485D02*
X43990476Y-83788152D01*
X43990476Y-83788152D02*
X44038095Y-83597676D01*
X44038095Y-83597676D02*
X44133333Y-83502438D01*
X44133333Y-83502438D02*
X44228571Y-83454819D01*
X44228571Y-83454819D02*
X44419047Y-83454819D01*
X44419047Y-83454819D02*
X44514285Y-83502438D01*
X44514285Y-83502438D02*
X44609523Y-83597676D01*
X44609523Y-83597676D02*
X44657142Y-83788152D01*
X44657142Y-83788152D02*
X44657142Y-84121485D01*
X44657142Y-84121485D02*
X44609523Y-84311961D01*
X44609523Y-84311961D02*
X44514285Y-84407200D01*
X44514285Y-84407200D02*
X44419047Y-84454819D01*
X44419047Y-84454819D02*
X44228571Y-84454819D01*
X45609523Y-84454819D02*
X45038095Y-84454819D01*
X45323809Y-84454819D02*
X45323809Y-83454819D01*
X45323809Y-83454819D02*
X45228571Y-83597676D01*
X45228571Y-83597676D02*
X45133333Y-83692914D01*
X45133333Y-83692914D02*
X45038095Y-83740533D01*
X40583333Y-60859580D02*
X40535714Y-60907200D01*
X40535714Y-60907200D02*
X40392857Y-60954819D01*
X40392857Y-60954819D02*
X40297619Y-60954819D01*
X40297619Y-60954819D02*
X40154762Y-60907200D01*
X40154762Y-60907200D02*
X40059524Y-60811961D01*
X40059524Y-60811961D02*
X40011905Y-60716723D01*
X40011905Y-60716723D02*
X39964286Y-60526247D01*
X39964286Y-60526247D02*
X39964286Y-60383390D01*
X39964286Y-60383390D02*
X40011905Y-60192914D01*
X40011905Y-60192914D02*
X40059524Y-60097676D01*
X40059524Y-60097676D02*
X40154762Y-60002438D01*
X40154762Y-60002438D02*
X40297619Y-59954819D01*
X40297619Y-59954819D02*
X40392857Y-59954819D01*
X40392857Y-59954819D02*
X40535714Y-60002438D01*
X40535714Y-60002438D02*
X40583333Y-60050057D01*
X41488095Y-59954819D02*
X41011905Y-59954819D01*
X41011905Y-59954819D02*
X40964286Y-60431009D01*
X40964286Y-60431009D02*
X41011905Y-60383390D01*
X41011905Y-60383390D02*
X41107143Y-60335771D01*
X41107143Y-60335771D02*
X41345238Y-60335771D01*
X41345238Y-60335771D02*
X41440476Y-60383390D01*
X41440476Y-60383390D02*
X41488095Y-60431009D01*
X41488095Y-60431009D02*
X41535714Y-60526247D01*
X41535714Y-60526247D02*
X41535714Y-60764342D01*
X41535714Y-60764342D02*
X41488095Y-60859580D01*
X41488095Y-60859580D02*
X41440476Y-60907200D01*
X41440476Y-60907200D02*
X41345238Y-60954819D01*
X41345238Y-60954819D02*
X41107143Y-60954819D01*
X41107143Y-60954819D02*
X41011905Y-60907200D01*
X41011905Y-60907200D02*
X40964286Y-60859580D01*
X104998155Y-109054819D02*
X104998155Y-108054819D01*
X104998155Y-108054819D02*
X105236250Y-108054819D01*
X105236250Y-108054819D02*
X105379107Y-108102438D01*
X105379107Y-108102438D02*
X105474345Y-108197676D01*
X105474345Y-108197676D02*
X105521964Y-108292914D01*
X105521964Y-108292914D02*
X105569583Y-108483390D01*
X105569583Y-108483390D02*
X105569583Y-108626247D01*
X105569583Y-108626247D02*
X105521964Y-108816723D01*
X105521964Y-108816723D02*
X105474345Y-108911961D01*
X105474345Y-108911961D02*
X105379107Y-109007200D01*
X105379107Y-109007200D02*
X105236250Y-109054819D01*
X105236250Y-109054819D02*
X104998155Y-109054819D01*
X105902917Y-108054819D02*
X106569583Y-108054819D01*
X106569583Y-108054819D02*
X106141012Y-109054819D01*
X40032142Y-71099580D02*
X39984523Y-71147200D01*
X39984523Y-71147200D02*
X39841666Y-71194819D01*
X39841666Y-71194819D02*
X39746428Y-71194819D01*
X39746428Y-71194819D02*
X39603571Y-71147200D01*
X39603571Y-71147200D02*
X39508333Y-71051961D01*
X39508333Y-71051961D02*
X39460714Y-70956723D01*
X39460714Y-70956723D02*
X39413095Y-70766247D01*
X39413095Y-70766247D02*
X39413095Y-70623390D01*
X39413095Y-70623390D02*
X39460714Y-70432914D01*
X39460714Y-70432914D02*
X39508333Y-70337676D01*
X39508333Y-70337676D02*
X39603571Y-70242438D01*
X39603571Y-70242438D02*
X39746428Y-70194819D01*
X39746428Y-70194819D02*
X39841666Y-70194819D01*
X39841666Y-70194819D02*
X39984523Y-70242438D01*
X39984523Y-70242438D02*
X40032142Y-70290057D01*
X40984523Y-71194819D02*
X40413095Y-71194819D01*
X40698809Y-71194819D02*
X40698809Y-70194819D01*
X40698809Y-70194819D02*
X40603571Y-70337676D01*
X40603571Y-70337676D02*
X40508333Y-70432914D01*
X40508333Y-70432914D02*
X40413095Y-70480533D01*
X41460714Y-71194819D02*
X41651190Y-71194819D01*
X41651190Y-71194819D02*
X41746428Y-71147200D01*
X41746428Y-71147200D02*
X41794047Y-71099580D01*
X41794047Y-71099580D02*
X41889285Y-70956723D01*
X41889285Y-70956723D02*
X41936904Y-70766247D01*
X41936904Y-70766247D02*
X41936904Y-70385295D01*
X41936904Y-70385295D02*
X41889285Y-70290057D01*
X41889285Y-70290057D02*
X41841666Y-70242438D01*
X41841666Y-70242438D02*
X41746428Y-70194819D01*
X41746428Y-70194819D02*
X41555952Y-70194819D01*
X41555952Y-70194819D02*
X41460714Y-70242438D01*
X41460714Y-70242438D02*
X41413095Y-70290057D01*
X41413095Y-70290057D02*
X41365476Y-70385295D01*
X41365476Y-70385295D02*
X41365476Y-70623390D01*
X41365476Y-70623390D02*
X41413095Y-70718628D01*
X41413095Y-70718628D02*
X41460714Y-70766247D01*
X41460714Y-70766247D02*
X41555952Y-70813866D01*
X41555952Y-70813866D02*
X41746428Y-70813866D01*
X41746428Y-70813866D02*
X41841666Y-70766247D01*
X41841666Y-70766247D02*
X41889285Y-70718628D01*
X41889285Y-70718628D02*
X41936904Y-70623390D01*
X45666667Y-119407200D02*
X45809524Y-119454819D01*
X45809524Y-119454819D02*
X46047619Y-119454819D01*
X46047619Y-119454819D02*
X46142857Y-119407200D01*
X46142857Y-119407200D02*
X46190476Y-119359580D01*
X46190476Y-119359580D02*
X46238095Y-119264342D01*
X46238095Y-119264342D02*
X46238095Y-119169104D01*
X46238095Y-119169104D02*
X46190476Y-119073866D01*
X46190476Y-119073866D02*
X46142857Y-119026247D01*
X46142857Y-119026247D02*
X46047619Y-118978628D01*
X46047619Y-118978628D02*
X45857143Y-118931009D01*
X45857143Y-118931009D02*
X45761905Y-118883390D01*
X45761905Y-118883390D02*
X45714286Y-118835771D01*
X45714286Y-118835771D02*
X45666667Y-118740533D01*
X45666667Y-118740533D02*
X45666667Y-118645295D01*
X45666667Y-118645295D02*
X45714286Y-118550057D01*
X45714286Y-118550057D02*
X45761905Y-118502438D01*
X45761905Y-118502438D02*
X45857143Y-118454819D01*
X45857143Y-118454819D02*
X46095238Y-118454819D01*
X46095238Y-118454819D02*
X46238095Y-118502438D01*
X46571429Y-118454819D02*
X46809524Y-119454819D01*
X46809524Y-119454819D02*
X47000000Y-118740533D01*
X47000000Y-118740533D02*
X47190476Y-119454819D01*
X47190476Y-119454819D02*
X47428572Y-118454819D01*
X47714286Y-118454819D02*
X48333333Y-118454819D01*
X48333333Y-118454819D02*
X48000000Y-118835771D01*
X48000000Y-118835771D02*
X48142857Y-118835771D01*
X48142857Y-118835771D02*
X48238095Y-118883390D01*
X48238095Y-118883390D02*
X48285714Y-118931009D01*
X48285714Y-118931009D02*
X48333333Y-119026247D01*
X48333333Y-119026247D02*
X48333333Y-119264342D01*
X48333333Y-119264342D02*
X48285714Y-119359580D01*
X48285714Y-119359580D02*
X48238095Y-119407200D01*
X48238095Y-119407200D02*
X48142857Y-119454819D01*
X48142857Y-119454819D02*
X47857143Y-119454819D01*
X47857143Y-119454819D02*
X47761905Y-119407200D01*
X47761905Y-119407200D02*
X47714286Y-119359580D01*
X40132142Y-72454819D02*
X39798809Y-71978628D01*
X39560714Y-72454819D02*
X39560714Y-71454819D01*
X39560714Y-71454819D02*
X39941666Y-71454819D01*
X39941666Y-71454819D02*
X40036904Y-71502438D01*
X40036904Y-71502438D02*
X40084523Y-71550057D01*
X40084523Y-71550057D02*
X40132142Y-71645295D01*
X40132142Y-71645295D02*
X40132142Y-71788152D01*
X40132142Y-71788152D02*
X40084523Y-71883390D01*
X40084523Y-71883390D02*
X40036904Y-71931009D01*
X40036904Y-71931009D02*
X39941666Y-71978628D01*
X39941666Y-71978628D02*
X39560714Y-71978628D01*
X41084523Y-72454819D02*
X40513095Y-72454819D01*
X40798809Y-72454819D02*
X40798809Y-71454819D01*
X40798809Y-71454819D02*
X40703571Y-71597676D01*
X40703571Y-71597676D02*
X40608333Y-71692914D01*
X40608333Y-71692914D02*
X40513095Y-71740533D01*
X41989285Y-71454819D02*
X41513095Y-71454819D01*
X41513095Y-71454819D02*
X41465476Y-71931009D01*
X41465476Y-71931009D02*
X41513095Y-71883390D01*
X41513095Y-71883390D02*
X41608333Y-71835771D01*
X41608333Y-71835771D02*
X41846428Y-71835771D01*
X41846428Y-71835771D02*
X41941666Y-71883390D01*
X41941666Y-71883390D02*
X41989285Y-71931009D01*
X41989285Y-71931009D02*
X42036904Y-72026247D01*
X42036904Y-72026247D02*
X42036904Y-72264342D01*
X42036904Y-72264342D02*
X41989285Y-72359580D01*
X41989285Y-72359580D02*
X41941666Y-72407200D01*
X41941666Y-72407200D02*
X41846428Y-72454819D01*
X41846428Y-72454819D02*
X41608333Y-72454819D01*
X41608333Y-72454819D02*
X41513095Y-72407200D01*
X41513095Y-72407200D02*
X41465476Y-72359580D01*
X69666667Y-119407200D02*
X69809524Y-119454819D01*
X69809524Y-119454819D02*
X70047619Y-119454819D01*
X70047619Y-119454819D02*
X70142857Y-119407200D01*
X70142857Y-119407200D02*
X70190476Y-119359580D01*
X70190476Y-119359580D02*
X70238095Y-119264342D01*
X70238095Y-119264342D02*
X70238095Y-119169104D01*
X70238095Y-119169104D02*
X70190476Y-119073866D01*
X70190476Y-119073866D02*
X70142857Y-119026247D01*
X70142857Y-119026247D02*
X70047619Y-118978628D01*
X70047619Y-118978628D02*
X69857143Y-118931009D01*
X69857143Y-118931009D02*
X69761905Y-118883390D01*
X69761905Y-118883390D02*
X69714286Y-118835771D01*
X69714286Y-118835771D02*
X69666667Y-118740533D01*
X69666667Y-118740533D02*
X69666667Y-118645295D01*
X69666667Y-118645295D02*
X69714286Y-118550057D01*
X69714286Y-118550057D02*
X69761905Y-118502438D01*
X69761905Y-118502438D02*
X69857143Y-118454819D01*
X69857143Y-118454819D02*
X70095238Y-118454819D01*
X70095238Y-118454819D02*
X70238095Y-118502438D01*
X70571429Y-118454819D02*
X70809524Y-119454819D01*
X70809524Y-119454819D02*
X71000000Y-118740533D01*
X71000000Y-118740533D02*
X71190476Y-119454819D01*
X71190476Y-119454819D02*
X71428572Y-118454819D01*
X72285714Y-118454819D02*
X71809524Y-118454819D01*
X71809524Y-118454819D02*
X71761905Y-118931009D01*
X71761905Y-118931009D02*
X71809524Y-118883390D01*
X71809524Y-118883390D02*
X71904762Y-118835771D01*
X71904762Y-118835771D02*
X72142857Y-118835771D01*
X72142857Y-118835771D02*
X72238095Y-118883390D01*
X72238095Y-118883390D02*
X72285714Y-118931009D01*
X72285714Y-118931009D02*
X72333333Y-119026247D01*
X72333333Y-119026247D02*
X72333333Y-119264342D01*
X72333333Y-119264342D02*
X72285714Y-119359580D01*
X72285714Y-119359580D02*
X72238095Y-119407200D01*
X72238095Y-119407200D02*
X72142857Y-119454819D01*
X72142857Y-119454819D02*
X71904762Y-119454819D01*
X71904762Y-119454819D02*
X71809524Y-119407200D01*
X71809524Y-119407200D02*
X71761905Y-119359580D01*
X91926666Y-27654819D02*
X91926666Y-28369104D01*
X91926666Y-28369104D02*
X91879047Y-28511961D01*
X91879047Y-28511961D02*
X91783809Y-28607200D01*
X91783809Y-28607200D02*
X91640952Y-28654819D01*
X91640952Y-28654819D02*
X91545714Y-28654819D01*
X92307619Y-27654819D02*
X92974285Y-27654819D01*
X92974285Y-27654819D02*
X92545714Y-28654819D01*
X53083333Y-45204819D02*
X52750000Y-44728628D01*
X52511905Y-45204819D02*
X52511905Y-44204819D01*
X52511905Y-44204819D02*
X52892857Y-44204819D01*
X52892857Y-44204819D02*
X52988095Y-44252438D01*
X52988095Y-44252438D02*
X53035714Y-44300057D01*
X53035714Y-44300057D02*
X53083333Y-44395295D01*
X53083333Y-44395295D02*
X53083333Y-44538152D01*
X53083333Y-44538152D02*
X53035714Y-44633390D01*
X53035714Y-44633390D02*
X52988095Y-44681009D01*
X52988095Y-44681009D02*
X52892857Y-44728628D01*
X52892857Y-44728628D02*
X52511905Y-44728628D01*
X54035714Y-45204819D02*
X53464286Y-45204819D01*
X53750000Y-45204819D02*
X53750000Y-44204819D01*
X53750000Y-44204819D02*
X53654762Y-44347676D01*
X53654762Y-44347676D02*
X53559524Y-44442914D01*
X53559524Y-44442914D02*
X53464286Y-44490533D01*
X54583333Y-66559580D02*
X54535714Y-66607200D01*
X54535714Y-66607200D02*
X54392857Y-66654819D01*
X54392857Y-66654819D02*
X54297619Y-66654819D01*
X54297619Y-66654819D02*
X54154762Y-66607200D01*
X54154762Y-66607200D02*
X54059524Y-66511961D01*
X54059524Y-66511961D02*
X54011905Y-66416723D01*
X54011905Y-66416723D02*
X53964286Y-66226247D01*
X53964286Y-66226247D02*
X53964286Y-66083390D01*
X53964286Y-66083390D02*
X54011905Y-65892914D01*
X54011905Y-65892914D02*
X54059524Y-65797676D01*
X54059524Y-65797676D02*
X54154762Y-65702438D01*
X54154762Y-65702438D02*
X54297619Y-65654819D01*
X54297619Y-65654819D02*
X54392857Y-65654819D01*
X54392857Y-65654819D02*
X54535714Y-65702438D01*
X54535714Y-65702438D02*
X54583333Y-65750057D01*
X55440476Y-65988152D02*
X55440476Y-66654819D01*
X55202381Y-65607200D02*
X54964286Y-66321485D01*
X54964286Y-66321485D02*
X55583333Y-66321485D01*
D12*
%TO.C,R18*%
X82860436Y-105865000D02*
X83314564Y-105865000D01*
X82860436Y-107335000D02*
X83314564Y-107335000D01*
%TO.C,J1*%
X99520000Y-87980000D02*
X99520000Y-89250000D01*
X98250000Y-87980000D02*
X99520000Y-87980000D01*
X96090000Y-90292929D02*
X96090000Y-90690000D01*
X95330000Y-90292929D02*
X95330000Y-90690000D01*
X98630000Y-90360000D02*
X98630000Y-90690000D01*
X97870000Y-90360000D02*
X97870000Y-90690000D01*
X99580000Y-90690000D02*
X94380000Y-90690000D01*
X96980000Y-90690000D02*
X96980000Y-93350000D01*
X94380000Y-90690000D02*
X94380000Y-93350000D01*
X99580000Y-93350000D02*
X99580000Y-90690000D01*
X98630000Y-93350000D02*
X98630000Y-99350000D01*
X98570000Y-93350000D02*
X98570000Y-99350000D01*
X98450000Y-93350000D02*
X98450000Y-99350000D01*
X98330000Y-93350000D02*
X98330000Y-99350000D01*
X98210000Y-93350000D02*
X98210000Y-99350000D01*
X98090000Y-93350000D02*
X98090000Y-99350000D01*
X97970000Y-93350000D02*
X97970000Y-99350000D01*
X96090000Y-93350000D02*
X96090000Y-99350000D01*
X94380000Y-93350000D02*
X99580000Y-93350000D01*
X98630000Y-99350000D02*
X97870000Y-99350000D01*
X97870000Y-99350000D02*
X97870000Y-93350000D01*
X96090000Y-99350000D02*
X95330000Y-99350000D01*
X95330000Y-99350000D02*
X95330000Y-93350000D01*
%TO.C,R20*%
X98772936Y-105865000D02*
X99227064Y-105865000D01*
X98772936Y-107335000D02*
X99227064Y-107335000D01*
%TO.C,R7*%
X39685000Y-97022936D02*
X39685000Y-97477064D01*
X38215000Y-97022936D02*
X38215000Y-97477064D01*
%TO.C,J4*%
X30790000Y-82670000D02*
X30790000Y-81400000D01*
X32060000Y-82670000D02*
X30790000Y-82670000D01*
X34220000Y-80357071D02*
X34220000Y-79960000D01*
X34980000Y-80357071D02*
X34980000Y-79960000D01*
X31680000Y-80290000D02*
X31680000Y-79960000D01*
X32440000Y-80290000D02*
X32440000Y-79960000D01*
X30730000Y-79960000D02*
X35930000Y-79960000D01*
X33330000Y-79960000D02*
X33330000Y-77300000D01*
X35930000Y-79960000D02*
X35930000Y-77300000D01*
X30730000Y-77300000D02*
X30730000Y-79960000D01*
X31680000Y-77300000D02*
X31680000Y-71300000D01*
X31740000Y-77300000D02*
X31740000Y-71300000D01*
X31860000Y-77300000D02*
X31860000Y-71300000D01*
X31980000Y-77300000D02*
X31980000Y-71300000D01*
X32100000Y-77300000D02*
X32100000Y-71300000D01*
X32220000Y-77300000D02*
X32220000Y-71300000D01*
X32340000Y-77300000D02*
X32340000Y-71300000D01*
X34220000Y-77300000D02*
X34220000Y-71300000D01*
X35930000Y-77300000D02*
X30730000Y-77300000D01*
X31680000Y-71300000D02*
X32440000Y-71300000D01*
X32440000Y-71300000D02*
X32440000Y-77300000D01*
X34220000Y-71300000D02*
X34980000Y-71300000D01*
X34980000Y-71300000D02*
X34980000Y-77300000D01*
%TO.C,C14*%
X40460000Y-91159420D02*
X40460000Y-91440580D01*
X39440000Y-91159420D02*
X39440000Y-91440580D01*
%TO.C,D2*%
X82764000Y-112565000D02*
X82920000Y-112565000D01*
X85080000Y-112565000D02*
X85236000Y-112565000D01*
X82921392Y-109332666D02*
G75*
G03*
X82764485Y-112564999I1078608J-1672334D01*
G01*
X82920164Y-109963871D02*
G75*
G03*
X82920001Y-112045960I1079836J-1041129D01*
G01*
X85079999Y-112045960D02*
G75*
G03*
X85079836Y-109963871I-1079999J1040960D01*
G01*
X85235515Y-112564999D02*
G75*
G03*
X85078608Y-109332666I-1235515J1559999D01*
G01*
%TO.C,C1*%
X40015000Y-52761252D02*
X40015000Y-52238748D01*
X41485000Y-52761252D02*
X41485000Y-52238748D01*
%TO.C,JP4*%
X31950000Y-84100000D02*
X31950000Y-83500000D01*
X32650000Y-82800000D02*
X34050000Y-82800000D01*
X34050000Y-84800000D02*
X32650000Y-84800000D01*
X34750000Y-83500000D02*
X34750000Y-84100000D01*
X32650000Y-82800000D02*
G75*
G03*
X31950000Y-83500000I-1J-699999D01*
G01*
X31950000Y-84100000D02*
G75*
G03*
X32650000Y-84800000I699999J-1D01*
G01*
X34750000Y-83500000D02*
G75*
G03*
X34050000Y-82800000I-700000J0D01*
G01*
X34050000Y-84800000D02*
G75*
G03*
X34750000Y-84100000I0J700000D01*
G01*
%TO.C,D5*%
X96552500Y-112485000D02*
X98472500Y-112485000D01*
X98472500Y-112485000D02*
X98472500Y-109800000D01*
X96552500Y-109800000D02*
X96552500Y-112485000D01*
%TO.C,H5*%
X79750000Y-23600000D02*
G75*
G03*
X79750000Y-23600000I-950000J0D01*
G01*
%TO.C,C6*%
X47238748Y-45765000D02*
X47761252Y-45765000D01*
X47238748Y-47235000D02*
X47761252Y-47235000D01*
%TO.C,Y2*%
X56350000Y-49450000D02*
X58150000Y-49450000D01*
X56300000Y-48050000D02*
X56300000Y-46950000D01*
X58200000Y-48050000D02*
X58200000Y-46950000D01*
%TO.C,R3*%
X40885436Y-85765000D02*
X41339564Y-85765000D01*
X40885436Y-87235000D02*
X41339564Y-87235000D01*
%TO.C,R13*%
X47412258Y-69272500D02*
X46937742Y-69272500D01*
X47412258Y-68227500D02*
X46937742Y-68227500D01*
%TO.C,SW1*%
X18975000Y-47685000D02*
X22875000Y-47685000D01*
X18975000Y-47685000D02*
X18975000Y-39965000D01*
X25475000Y-47685000D02*
X25985000Y-47685000D01*
X25985000Y-47685000D02*
X25985000Y-47165000D01*
X22645000Y-47165000D02*
X22875000Y-47165000D01*
X22645000Y-47165000D02*
X22645000Y-46625000D01*
X25475000Y-47165000D02*
X25985000Y-47165000D01*
X22645000Y-45525000D02*
X22645000Y-42125000D01*
X22645000Y-41025000D02*
X22645000Y-40485000D01*
X22645000Y-40485000D02*
X22875000Y-40485000D01*
X25475000Y-40485000D02*
X25985000Y-40485000D01*
X25985000Y-40485000D02*
X25985000Y-39965000D01*
X18975000Y-39965000D02*
X22875000Y-39965000D01*
X25475000Y-39965000D02*
X25985000Y-39965000D01*
%TO.C,R19*%
X90660436Y-105865000D02*
X91114564Y-105865000D01*
X90660436Y-107335000D02*
X91114564Y-107335000D01*
%TO.C,C12*%
X53988748Y-41177500D02*
X54511252Y-41177500D01*
X53988748Y-42647500D02*
X54511252Y-42647500D01*
%TO.C,R14*%
X37662258Y-68012500D02*
X37187742Y-68012500D01*
X37662258Y-66967500D02*
X37187742Y-66967500D01*
%TO.C,C25*%
X49190000Y-31250000D02*
X49190000Y-30750000D01*
X48940000Y-31000000D02*
X49440000Y-31000000D01*
X49554437Y-30510000D02*
X49690000Y-30510000D01*
X49554437Y-30510000D02*
X48490000Y-29445563D01*
X51945563Y-30510000D02*
X51810000Y-30510000D01*
X51945563Y-30510000D02*
X53010000Y-29445563D01*
X48490000Y-29445563D02*
X48490000Y-25990000D01*
X53010000Y-29445563D02*
X53010000Y-25990000D01*
X48490000Y-25990000D02*
X49690000Y-25990000D01*
X53010000Y-25990000D02*
X51810000Y-25990000D01*
%TO.C,J3*%
X45060000Y-28010000D02*
X44040000Y-28010000D01*
X45060000Y-23760000D02*
X45060000Y-28010000D01*
X44040000Y-28010000D02*
X44040000Y-26410000D01*
X44040000Y-26410000D02*
X42760000Y-26410000D01*
X43340000Y-20190000D02*
X34660000Y-20190000D01*
X42760000Y-26410000D02*
X42760000Y-29300000D01*
X33960000Y-28010000D02*
X33960000Y-26410000D01*
X33960000Y-26410000D02*
X35240000Y-26410000D01*
X32940000Y-28010000D02*
X33960000Y-28010000D01*
X32940000Y-23760000D02*
X32940000Y-28010000D01*
%TO.C,R4*%
X40885436Y-87765000D02*
X41339564Y-87765000D01*
X40885436Y-89235000D02*
X41339564Y-89235000D01*
%TO.C,R9*%
X64572936Y-67465000D02*
X65027064Y-67465000D01*
X64572936Y-68935000D02*
X65027064Y-68935000D01*
%TO.C,JP1*%
X98400000Y-86700000D02*
X98400000Y-87300000D01*
X97700000Y-88000000D02*
X96300000Y-88000000D01*
X96300000Y-86000000D02*
X97700000Y-86000000D01*
X95600000Y-87300000D02*
X95600000Y-86700000D01*
X97700000Y-88000000D02*
G75*
G03*
X98400000Y-87300000I1J699999D01*
G01*
X98400000Y-86700000D02*
G75*
G03*
X97700000Y-86000000I-699999J1D01*
G01*
X95600000Y-87300000D02*
G75*
G03*
X96300000Y-88000000I700000J0D01*
G01*
X96300000Y-86000000D02*
G75*
G03*
X95600000Y-86700000I0J-700000D01*
G01*
%TO.C,J6*%
X72460000Y-27910000D02*
X71440000Y-27910000D01*
X72460000Y-23660000D02*
X72460000Y-27910000D01*
X71440000Y-27910000D02*
X71440000Y-26310000D01*
X71440000Y-26310000D02*
X70160000Y-26310000D01*
X70740000Y-20090000D02*
X58060000Y-20090000D01*
X70160000Y-26310000D02*
X70160000Y-29200000D01*
X57360000Y-27910000D02*
X57360000Y-26310000D01*
X57360000Y-26310000D02*
X58640000Y-26310000D01*
X56340000Y-27910000D02*
X57360000Y-27910000D01*
X56340000Y-23660000D02*
X56340000Y-27910000D01*
%TO.C,C7*%
X47609420Y-47740000D02*
X47890580Y-47740000D01*
X47609420Y-48760000D02*
X47890580Y-48760000D01*
%TO.C,D4*%
X90564000Y-112490000D02*
X90720000Y-112490000D01*
X92880000Y-112490000D02*
X93036000Y-112490000D01*
X90721392Y-109257666D02*
G75*
G03*
X90564485Y-112489999I1078608J-1672334D01*
G01*
X90720164Y-109888871D02*
G75*
G03*
X90720001Y-111970960I1079836J-1041129D01*
G01*
X92879999Y-111970960D02*
G75*
G03*
X92879836Y-109888871I-1079999J1040960D01*
G01*
X93035515Y-112489999D02*
G75*
G03*
X92878608Y-109257666I-1235515J1559999D01*
G01*
%TO.C,H6*%
X93750000Y-23600000D02*
G75*
G03*
X93750000Y-23600000I-950000J0D01*
G01*
%TO.C,C2*%
X41990000Y-52865580D02*
X41990000Y-52584420D01*
X43010000Y-52865580D02*
X43010000Y-52584420D01*
D11*
%TO.C,U7*%
X19400000Y-28940000D02*
X19400000Y-107640000D01*
X19400000Y-107640000D02*
X122600000Y-107640000D01*
X122600000Y-28940000D02*
X19400000Y-28940000D01*
X122600000Y-107640000D02*
X122600000Y-28940000D01*
D12*
%TO.C,SW2*%
X31770000Y-116230000D02*
X31770000Y-109770000D01*
X31800000Y-116230000D02*
X31770000Y-116230000D01*
X33700000Y-116230000D02*
X36300000Y-116230000D01*
X38230000Y-116230000D02*
X38200000Y-116230000D01*
X38230000Y-116230000D02*
X38230000Y-109770000D01*
X31770000Y-109770000D02*
X31800000Y-109770000D01*
X33700000Y-109770000D02*
X36300000Y-109770000D01*
X38230000Y-109770000D02*
X38200000Y-109770000D01*
%TO.C,R8*%
X69327064Y-68735000D02*
X68872936Y-68735000D01*
X69327064Y-67265000D02*
X68872936Y-67265000D01*
%TO.C,U5*%
X55787500Y-51290000D02*
X54837500Y-51290000D01*
X54837500Y-51290000D02*
X54837500Y-49950000D01*
X45567500Y-51290000D02*
X46517500Y-51290000D01*
X55787500Y-52240000D02*
X55787500Y-51290000D01*
X45567500Y-52240000D02*
X45567500Y-51290000D01*
X55787500Y-60560000D02*
X55787500Y-61510000D01*
X45567500Y-60560000D02*
X45567500Y-61510000D01*
X55787500Y-61510000D02*
X54837500Y-61510000D01*
X45567500Y-61510000D02*
X46517500Y-61510000D01*
%TO.C,J2*%
X95670000Y-48130000D02*
X95670000Y-49400000D01*
X94400000Y-48130000D02*
X95670000Y-48130000D01*
X92240000Y-50442929D02*
X92240000Y-50840000D01*
X91480000Y-50442929D02*
X91480000Y-50840000D01*
X94780000Y-50510000D02*
X94780000Y-50840000D01*
X94020000Y-50510000D02*
X94020000Y-50840000D01*
X95730000Y-50840000D02*
X90530000Y-50840000D01*
X93130000Y-50840000D02*
X93130000Y-53500000D01*
X90530000Y-50840000D02*
X90530000Y-53500000D01*
X95730000Y-53500000D02*
X95730000Y-50840000D01*
X94780000Y-53500000D02*
X94780000Y-59500000D01*
X94720000Y-53500000D02*
X94720000Y-59500000D01*
X94600000Y-53500000D02*
X94600000Y-59500000D01*
X94480000Y-53500000D02*
X94480000Y-59500000D01*
X94360000Y-53500000D02*
X94360000Y-59500000D01*
X94240000Y-53500000D02*
X94240000Y-59500000D01*
X94120000Y-53500000D02*
X94120000Y-59500000D01*
X92240000Y-53500000D02*
X92240000Y-59500000D01*
X90530000Y-53500000D02*
X95730000Y-53500000D01*
X94780000Y-59500000D02*
X94020000Y-59500000D01*
X94020000Y-59500000D02*
X94020000Y-53500000D01*
X92240000Y-59500000D02*
X91480000Y-59500000D01*
X91480000Y-59500000D02*
X91480000Y-53500000D01*
%TO.C,Y1*%
X55650000Y-38462500D02*
X55250000Y-38462500D01*
X55250000Y-38462500D02*
X55250000Y-39262500D01*
X53450000Y-40662500D02*
X51650000Y-40662500D01*
X53450000Y-37062500D02*
X53450000Y-36822500D01*
X51650000Y-37062500D02*
X53450000Y-37062500D01*
X49850000Y-39262500D02*
X49850000Y-38462500D01*
%TO.C,R17*%
X47437258Y-68022500D02*
X46962742Y-68022500D01*
X47437258Y-66977500D02*
X46962742Y-66977500D01*
%TO.C,R12*%
X44162258Y-69272500D02*
X43687742Y-69272500D01*
X44162258Y-68227500D02*
X43687742Y-68227500D01*
%TO.C,D6*%
X98676500Y-112490000D02*
X98832500Y-112490000D01*
X100992500Y-112490000D02*
X101148500Y-112490000D01*
X98833892Y-109257666D02*
G75*
G03*
X98676985Y-112489999I1078608J-1672334D01*
G01*
X98832664Y-109888871D02*
G75*
G03*
X98832501Y-111970960I1079836J-1041129D01*
G01*
X100992499Y-111970960D02*
G75*
G03*
X100992336Y-109888871I-1079999J1040960D01*
G01*
X101148015Y-112489999D02*
G75*
G03*
X100991108Y-109257666I-1235515J1559999D01*
G01*
%TO.C,C24*%
X44335000Y-32538748D02*
X44335000Y-33061252D01*
X42865000Y-32538748D02*
X42865000Y-33061252D01*
%TO.C,D1*%
X80640000Y-112485000D02*
X82560000Y-112485000D01*
X82560000Y-112485000D02*
X82560000Y-109800000D01*
X80640000Y-109800000D02*
X80640000Y-112485000D01*
%TO.C,D3*%
X88440000Y-112485000D02*
X90360000Y-112485000D01*
X90360000Y-112485000D02*
X90360000Y-109800000D01*
X88440000Y-109800000D02*
X88440000Y-112485000D01*
%TO.C,R10*%
X37662258Y-69262500D02*
X37187742Y-69262500D01*
X37662258Y-68217500D02*
X37187742Y-68217500D01*
%TO.C,C15*%
X42435000Y-90988748D02*
X42435000Y-91511252D01*
X40965000Y-90988748D02*
X40965000Y-91511252D01*
%TO.C,C13*%
X50488748Y-41177500D02*
X51011252Y-41177500D01*
X50488748Y-42647500D02*
X51011252Y-42647500D01*
%TO.C,R16*%
X44162258Y-68022500D02*
X43687742Y-68022500D01*
X44162258Y-66977500D02*
X43687742Y-66977500D01*
%TO.C,C23*%
X42510000Y-32671920D02*
X42510000Y-32953080D01*
X41490000Y-32671920D02*
X41490000Y-32953080D01*
%TO.C,R2*%
X40722936Y-79765000D02*
X41177064Y-79765000D01*
X40722936Y-81235000D02*
X41177064Y-81235000D01*
%TO.C,C3*%
X59260000Y-52834420D02*
X59260000Y-53115580D01*
X58240000Y-52834420D02*
X58240000Y-53115580D01*
%TO.C,JP2*%
X94550000Y-46700000D02*
X94550000Y-47300000D01*
X93850000Y-48000000D02*
X92450000Y-48000000D01*
X92450000Y-46000000D02*
X93850000Y-46000000D01*
X91750000Y-47300000D02*
X91750000Y-46700000D01*
X93850000Y-48000000D02*
G75*
G03*
X94550000Y-47300000I1J699999D01*
G01*
X94550000Y-46700000D02*
G75*
G03*
X93850000Y-46000000I-699999J1D01*
G01*
X91750000Y-47300000D02*
G75*
G03*
X92450000Y-48000000I700000J0D01*
G01*
X92450000Y-46000000D02*
G75*
G03*
X91750000Y-46700000I0J-700000D01*
G01*
%TO.C,C17*%
X59988748Y-45765000D02*
X60511252Y-45765000D01*
X59988748Y-47235000D02*
X60511252Y-47235000D01*
%TO.C,D8*%
X106900250Y-112565000D02*
X107056250Y-112565000D01*
X109216250Y-112565000D02*
X109372250Y-112565000D01*
X107057642Y-109332666D02*
G75*
G03*
X106900735Y-112564999I1078608J-1672334D01*
G01*
X107056414Y-109963871D02*
G75*
G03*
X107056251Y-112045960I1079836J-1041129D01*
G01*
X109216249Y-112045960D02*
G75*
G03*
X109216086Y-109963871I-1079999J1040960D01*
G01*
X109371765Y-112564999D02*
G75*
G03*
X109214858Y-109332666I-1235515J1559999D01*
G01*
%TO.C,J5*%
X36350000Y-86025000D02*
X32740000Y-86025000D01*
X31040000Y-86025000D02*
X26340000Y-86025000D01*
X25040000Y-86025000D02*
X23240000Y-86025000D01*
X36350000Y-86475000D02*
X36350000Y-86025000D01*
X20080000Y-87055000D02*
X20280000Y-86855000D01*
X20080000Y-87055000D02*
X20080000Y-88915000D01*
X20080000Y-88915000D02*
X20280000Y-89125000D01*
X20430000Y-89125000D02*
X20280000Y-89125000D01*
X20430000Y-89125000D02*
X20430000Y-95495000D01*
X20080000Y-96005000D02*
X20430000Y-95495000D01*
X36350000Y-98075000D02*
X36350000Y-99995000D01*
X20080000Y-98315000D02*
X20080000Y-96005000D01*
X20080000Y-98315000D02*
X20280000Y-98515000D01*
X20280000Y-98515000D02*
X20280000Y-98775000D01*
X36350000Y-99995000D02*
X22340000Y-99995000D01*
%TO.C,C18*%
X37565580Y-66750000D02*
X37284420Y-66750000D01*
X37565580Y-65730000D02*
X37284420Y-65730000D01*
%TO.C,C21*%
X47340580Y-66760000D02*
X47059420Y-66760000D01*
X47340580Y-65740000D02*
X47059420Y-65740000D01*
%TO.C,R11*%
X40912258Y-69272500D02*
X40437742Y-69272500D01*
X40912258Y-68227500D02*
X40437742Y-68227500D01*
%TO.C,R21*%
X106996686Y-105865000D02*
X107450814Y-105865000D01*
X106996686Y-107335000D02*
X107450814Y-107335000D01*
%TO.C,R6*%
X41685000Y-96360436D02*
X41685000Y-96814564D01*
X40215000Y-96360436D02*
X40215000Y-96814564D01*
%TO.C,C16*%
X59988748Y-47765000D02*
X60511252Y-47765000D01*
X59988748Y-49235000D02*
X60511252Y-49235000D01*
%TO.C,R5*%
X43685000Y-95522936D02*
X43685000Y-95977064D01*
X42215000Y-95522936D02*
X42215000Y-95977064D01*
%TO.C,SW4*%
X55770000Y-116230000D02*
X55770000Y-109770000D01*
X55800000Y-116230000D02*
X55770000Y-116230000D01*
X57700000Y-116230000D02*
X60300000Y-116230000D01*
X62230000Y-116230000D02*
X62200000Y-116230000D01*
X62230000Y-116230000D02*
X62230000Y-109770000D01*
X55770000Y-109770000D02*
X55800000Y-109770000D01*
X57700000Y-109770000D02*
X60300000Y-109770000D01*
X62230000Y-109770000D02*
X62200000Y-109770000D01*
%TO.C,C20*%
X44065580Y-66760000D02*
X43784420Y-66760000D01*
X44065580Y-65740000D02*
X43784420Y-65740000D01*
%TO.C,C10*%
X66650000Y-42790000D02*
X67900000Y-42790000D01*
X67275000Y-42165000D02*
X67275000Y-43415000D01*
X68140000Y-41054437D02*
X68140000Y-44040000D01*
X68140000Y-41054437D02*
X69204437Y-39990000D01*
X68140000Y-49445563D02*
X68140000Y-46460000D01*
X68140000Y-49445563D02*
X69204437Y-50510000D01*
X69204437Y-39990000D02*
X78660000Y-39990000D01*
X69204437Y-50510000D02*
X78660000Y-50510000D01*
X78660000Y-39990000D02*
X78660000Y-44040000D01*
X78660000Y-50510000D02*
X78660000Y-46460000D01*
%TO.C,L1*%
X42840000Y-47202064D02*
X42840000Y-45997936D01*
X45560000Y-47202064D02*
X45560000Y-45997936D01*
%TO.C,Q1*%
X41830000Y-81690000D02*
X40070000Y-81690000D01*
X40070000Y-84760000D02*
X42500000Y-84760000D01*
%TO.C,C5*%
X42240000Y-60640580D02*
X42240000Y-60359420D01*
X43260000Y-60640580D02*
X43260000Y-60359420D01*
%TO.C,D7*%
X104776250Y-112485000D02*
X106696250Y-112485000D01*
X106696250Y-112485000D02*
X106696250Y-109800000D01*
X104776250Y-109800000D02*
X104776250Y-112485000D01*
%TO.C,C19*%
X40815580Y-66750000D02*
X40534420Y-66750000D01*
X40815580Y-65730000D02*
X40534420Y-65730000D01*
%TO.C,SW3*%
X43770000Y-116230000D02*
X43770000Y-109770000D01*
X43800000Y-116230000D02*
X43770000Y-116230000D01*
X45700000Y-116230000D02*
X48300000Y-116230000D01*
X50230000Y-116230000D02*
X50200000Y-116230000D01*
X50230000Y-116230000D02*
X50230000Y-109770000D01*
X43770000Y-109770000D02*
X43800000Y-109770000D01*
X45700000Y-109770000D02*
X48300000Y-109770000D01*
X50230000Y-109770000D02*
X50200000Y-109770000D01*
%TO.C,R15*%
X40937258Y-68022500D02*
X40462742Y-68022500D01*
X40937258Y-66977500D02*
X40462742Y-66977500D01*
%TO.C,SW5*%
X67770000Y-116230000D02*
X67770000Y-109770000D01*
X67800000Y-116230000D02*
X67770000Y-116230000D01*
X69700000Y-116230000D02*
X72300000Y-116230000D01*
X74230000Y-116230000D02*
X74200000Y-116230000D01*
X74230000Y-116230000D02*
X74230000Y-109770000D01*
X67770000Y-109770000D02*
X67800000Y-109770000D01*
X69700000Y-109770000D02*
X72300000Y-109770000D01*
X74230000Y-109770000D02*
X74200000Y-109770000D01*
%TO.C,J7*%
X90930000Y-18310000D02*
X80650000Y-18310000D01*
X90930000Y-18310000D02*
X90930000Y-26940000D01*
X90810000Y-18310000D02*
X90810000Y-26940000D01*
X90691905Y-18310000D02*
X90691905Y-26940000D01*
X90573810Y-18310000D02*
X90573810Y-26940000D01*
X90455715Y-18310000D02*
X90455715Y-26940000D01*
X90337620Y-18310000D02*
X90337620Y-26940000D01*
X90219525Y-18310000D02*
X90219525Y-26940000D01*
X90101430Y-18310000D02*
X90101430Y-26940000D01*
X89983335Y-18310000D02*
X89983335Y-26940000D01*
X89865240Y-18310000D02*
X89865240Y-26940000D01*
X89747145Y-18310000D02*
X89747145Y-26940000D01*
X89629050Y-18310000D02*
X89629050Y-26940000D01*
X89510955Y-18310000D02*
X89510955Y-26940000D01*
X89392860Y-18310000D02*
X89392860Y-26940000D01*
X89274765Y-18310000D02*
X89274765Y-26940000D01*
X89156670Y-18310000D02*
X89156670Y-26940000D01*
X89038575Y-18310000D02*
X89038575Y-26940000D01*
X88920480Y-18310000D02*
X88920480Y-26940000D01*
X88802385Y-18310000D02*
X88802385Y-26940000D01*
X88684290Y-18310000D02*
X88684290Y-26940000D01*
X88566195Y-18310000D02*
X88566195Y-26940000D01*
X88448100Y-18310000D02*
X88448100Y-26940000D01*
X88330000Y-18310000D02*
X88330000Y-26940000D01*
X85790000Y-18310000D02*
X85790000Y-26940000D01*
X83250000Y-18310000D02*
X83250000Y-26940000D01*
X80650000Y-18310000D02*
X80650000Y-26940000D01*
X90930000Y-26940000D02*
X80650000Y-26940000D01*
X89960000Y-26940000D02*
X89960000Y-27290000D01*
X89240000Y-26940000D02*
X89240000Y-27290000D01*
X87420000Y-26940000D02*
X87420000Y-27350000D01*
X86700000Y-26940000D02*
X86700000Y-27350000D01*
X84880000Y-26940000D02*
X84880000Y-27350000D01*
X84160000Y-26940000D02*
X84160000Y-27350000D01*
X82340000Y-26940000D02*
X82340000Y-27350000D01*
X81620000Y-26940000D02*
X81620000Y-27350000D01*
X90930000Y-28400000D02*
X90930000Y-29510000D01*
X90930000Y-29510000D02*
X89600000Y-29510000D01*
%TO.C,R1*%
X50765000Y-44889564D02*
X50765000Y-44435436D01*
X52235000Y-44889564D02*
X52235000Y-44435436D01*
%TO.C,C4*%
X54890580Y-65010000D02*
X54609420Y-65010000D01*
X54890580Y-63990000D02*
X54609420Y-63990000D01*
%TD*%
D13*
X43000000Y-62250000D03*
X58750000Y-51750000D03*
X42500000Y-54250000D03*
X86400000Y-47200000D03*
X37000000Y-53655172D03*
X45500000Y-68750000D03*
X40750000Y-54250000D03*
X45800000Y-49400000D03*
X67000000Y-68000000D03*
X39000000Y-68750000D03*
X42250000Y-68750000D03*
X56000000Y-65500000D03*
X91000000Y-93000000D03*
X48000000Y-69600000D03*
X109600000Y-102200000D03*
X47500000Y-45000000D03*
X63000000Y-45000000D03*
X115000000Y-61500000D03*
X49000000Y-46500000D03*
X109000000Y-99000000D03*
X54250000Y-43750000D03*
X53750000Y-36250000D03*
X56500000Y-36250000D03*
X27800000Y-63200000D03*
X56500000Y-38500000D03*
X48600000Y-52200000D03*
X63000000Y-47250000D03*
X48500000Y-38500000D03*
X40700000Y-90000000D03*
X53750000Y-46250000D03*
X53750000Y-52500000D03*
X62000000Y-46500000D03*
X103000000Y-58500000D03*
X57500000Y-50000000D03*
X110000000Y-94500000D03*
X53250000Y-54250000D03*
X40200000Y-50750000D03*
X43500000Y-34650000D03*
X56500000Y-43500000D03*
X51750000Y-37912500D03*
X50750000Y-36250000D03*
X42000000Y-59750000D03*
X62000000Y-48500000D03*
X39250000Y-66250000D03*
X51000000Y-48250000D03*
X77750000Y-44000000D03*
X36000000Y-30500000D03*
X65400000Y-29800000D03*
X49250000Y-48250000D03*
X95000000Y-43000000D03*
X53319500Y-39912500D03*
X60250000Y-50000000D03*
X50000000Y-46250000D03*
X55600000Y-109000000D03*
X63000000Y-50000000D03*
X86500000Y-56200000D03*
X48500000Y-40750000D03*
X46500000Y-55000000D03*
X68750000Y-118250000D03*
X67600000Y-109000000D03*
X58750000Y-54250000D03*
X36000000Y-25000000D03*
X50750000Y-24600000D03*
X56500000Y-40750000D03*
X48500000Y-36250000D03*
X54500000Y-41912500D03*
X56750000Y-118250000D03*
X51000000Y-41912500D03*
X54750000Y-46250000D03*
X32750000Y-118250000D03*
X45750000Y-66250000D03*
X25775000Y-85250000D03*
X57500000Y-45000000D03*
X44750000Y-118250000D03*
X36000000Y-66250000D03*
X38000000Y-57000000D03*
X55500000Y-49500000D03*
X88200000Y-58000000D03*
X42500000Y-66250000D03*
X42000000Y-51250000D03*
X48500000Y-43000000D03*
X65400000Y-25200000D03*
X44750000Y-107750000D03*
X37450000Y-90275000D03*
X32750000Y-107750000D03*
X52250000Y-55500000D03*
X42000000Y-34412500D03*
X53250000Y-48000000D03*
X60250000Y-45000000D03*
X54000000Y-65200000D03*
X46000000Y-42600000D03*
X36600000Y-42600000D03*
X49750000Y-49250000D03*
X48500000Y-54750000D03*
X76600000Y-67400000D03*
X77400000Y-66600000D03*
X49250000Y-54000000D03*
X78400000Y-65800000D03*
X50000000Y-54750000D03*
X79400000Y-65000000D03*
X50750000Y-54000000D03*
X104250000Y-60250000D03*
X34000000Y-71250000D03*
X54800000Y-86600000D03*
X42000000Y-31250000D03*
X57000000Y-67400000D03*
X38950000Y-95500000D03*
X40700000Y-94500000D03*
X58000000Y-67415369D03*
X42470313Y-93729687D03*
X60000000Y-67400000D03*
X59000000Y-67400000D03*
X37950000Y-91375000D03*
X50050000Y-70450000D03*
X38275000Y-89175000D03*
X39200000Y-86500000D03*
X51400000Y-70400000D03*
X55200000Y-67400000D03*
X41200000Y-85250000D03*
X68500000Y-31500000D03*
X53875000Y-54875000D03*
X64400000Y-32400000D03*
X52500000Y-53500000D03*
X60450000Y-31950000D03*
X54500000Y-52500000D03*
X85800000Y-55800000D03*
X102500000Y-57750000D03*
X87250000Y-58000000D03*
X44200000Y-82250000D03*
X54200000Y-67400000D03*
X28750000Y-63250000D03*
X75750000Y-68600000D03*
X75750000Y-88000000D03*
X47500000Y-57500000D03*
X51500000Y-56000000D03*
X52500000Y-56229305D03*
X62600000Y-58200000D03*
X61800000Y-59000000D03*
X45500000Y-61230001D03*
X49000000Y-65000000D03*
X72411056Y-89250000D03*
X47500000Y-53750000D03*
X98250000Y-89250000D03*
X95710000Y-89250000D03*
X32060000Y-81400000D03*
X34600000Y-81400000D03*
X84000000Y-112275000D03*
X84000000Y-109735000D03*
X78800000Y-23600000D03*
X24165000Y-47325000D03*
X24165000Y-40315000D03*
X21675000Y-46075000D03*
X21675000Y-41575000D03*
X118000000Y-116000000D03*
X118000000Y-24000000D03*
X91800000Y-112200000D03*
X91800000Y-109660000D03*
X92800000Y-23600000D03*
X22500000Y-32040000D03*
X22500000Y-104540000D03*
X119500000Y-32040000D03*
X119500000Y-104540000D03*
X22500000Y-59400000D03*
X22500000Y-61940000D03*
X22500000Y-64480000D03*
X22500000Y-67020000D03*
X22500000Y-69560000D03*
X22500000Y-72100000D03*
X22500000Y-74640000D03*
X22500000Y-77180000D03*
X94400000Y-49400000D03*
X91860000Y-49400000D03*
X99912500Y-112200000D03*
X99912500Y-109660000D03*
X24000000Y-24000000D03*
X24000000Y-116000000D03*
X108136250Y-112275000D03*
X108136250Y-109735000D03*
X89600000Y-28400000D03*
X87060000Y-28400000D03*
X84520000Y-28400000D03*
X81980000Y-28400000D03*
X102550000Y-49650000D03*
X118750000Y-81650000D03*
X98650000Y-49550000D03*
X98650000Y-52090000D03*
X98650000Y-54630000D03*
X98650000Y-57170000D03*
X98650000Y-59710000D03*
X98650000Y-62250000D03*
X98650000Y-64790000D03*
X112012500Y-101012500D03*
X112012500Y-90412500D03*
X104052500Y-89242500D03*
X104052500Y-91782500D03*
X104052500Y-94322500D03*
X104052500Y-96862500D03*
X104052500Y-99402500D03*
X104052500Y-101942500D03*
X111000000Y-115000000D03*
X111000000Y-117540000D03*
X108460000Y-115000000D03*
X108460000Y-117540000D03*
X105920000Y-115000000D03*
X105920000Y-117540000D03*
X103380000Y-115000000D03*
X103380000Y-117540000D03*
X100840000Y-115000000D03*
X100840000Y-117540000D03*
X98300000Y-115000000D03*
X98300000Y-117540000D03*
X95760000Y-115000000D03*
X95760000Y-117540000D03*
M02*
