M48
; DRILL file {KiCad 7.0.9} date Tue Jun  4 23:52:15 2024
; FORMAT={-:-/ absolute / metric / decimal}
; #@! TF.CreationDate,2024-06-04T23:52:15+02:00
; #@! TF.GenerationSoftware,Kicad,Pcbnew,7.0.9
; #@! TF.FileFunction,Plated,1,4,PTH
FMAT,2
METRIC
; #@! TA.AperFunction,Plated,PTH,ViaDrill
T1C0.400
; #@! TA.AperFunction,Plated,PTH,ViaDrill
T2C0.500
; #@! TA.AperFunction,Plated,PTH,ComponentDrill
T3C0.700
; #@! TA.AperFunction,Plated,PTH,ComponentDrill
T4C0.800
; #@! TA.AperFunction,Plated,PTH,ComponentDrill
T5C0.900
; #@! TA.AperFunction,Plated,PTH,ComponentDrill
T6C0.990
; #@! TA.AperFunction,Plated,PTH,ComponentDrill
T7C1.000
; #@! TA.AperFunction,Plated,PTH,ComponentDrill
T8C1.300
%
G90
G05
T1
X25.775Y-85.25
X27.8Y-63.2
X28.75Y-63.25
X32.75Y-107.75
X32.75Y-118.25
X36.0Y-25.0
X36.0Y-30.5
X36.0Y-66.25
X36.6Y-42.6
X37.45Y-90.275
X37.95Y-91.375
X38.0Y-57.0
X38.275Y-89.175
X38.95Y-95.5
X39.0Y-68.75
X39.2Y-86.5
X39.25Y-66.25
X40.2Y-50.75
X40.7Y-90.0
X40.7Y-94.5
X41.2Y-85.25
X42.0Y-34.413
X42.0Y-51.25
X42.0Y-59.75
X42.25Y-68.75
X42.47Y-93.73
X42.5Y-66.25
X43.5Y-34.65
X44.2Y-82.25
X44.75Y-107.75
X44.75Y-118.25
X45.5Y-61.23
X45.5Y-68.75
X45.75Y-66.25
X46.0Y-42.6
X46.5Y-55.0
X47.5Y-45.0
X47.5Y-53.75
X47.5Y-57.5
X48.0Y-69.6
X48.5Y-36.25
X48.5Y-38.5
X48.5Y-40.75
X48.5Y-43.0
X48.5Y-54.75
X48.6Y-52.2
X49.0Y-46.5
X49.0Y-65.0
X49.25Y-48.25
X49.25Y-54.0
X49.75Y-49.25
X50.0Y-46.25
X50.0Y-54.75
X50.05Y-70.45
X50.75Y-24.6
X50.75Y-36.25
X50.75Y-54.0
X51.0Y-41.913
X51.0Y-48.25
X51.4Y-70.4
X51.5Y-56.0
X51.75Y-37.913
X52.25Y-55.5
X52.5Y-53.5
X52.5Y-56.229
X53.25Y-48.0
X53.25Y-54.25
X53.319Y-39.913
X53.75Y-36.25
X53.75Y-46.25
X53.75Y-52.5
X53.875Y-54.875
X54.0Y-65.2
X54.2Y-67.4
X54.25Y-43.75
X54.5Y-41.913
X54.5Y-52.5
X54.75Y-46.25
X55.2Y-67.4
X55.5Y-49.5
X55.6Y-109.0
X56.5Y-36.25
X56.5Y-38.5
X56.5Y-40.75
X56.5Y-43.5
X56.75Y-118.25
X57.0Y-67.4
X57.5Y-45.0
X57.5Y-50.0
X58.0Y-67.415
X58.75Y-51.75
X58.75Y-54.25
X59.0Y-67.4
X60.0Y-67.4
X60.25Y-45.0
X60.25Y-50.0
X60.45Y-31.95
X61.8Y-59.0
X62.0Y-46.5
X62.0Y-48.5
X62.6Y-58.2
X63.0Y-45.0
X63.0Y-47.25
X63.0Y-50.0
X64.4Y-32.4
X65.4Y-25.2
X65.4Y-29.8
X67.6Y-109.0
X68.5Y-31.5
X68.75Y-118.25
X72.411Y-89.25
X75.75Y-68.6
X75.75Y-88.0
X76.6Y-67.4
X77.4Y-66.6
X77.75Y-44.0
X78.4Y-65.8
X79.4Y-65.0
X85.8Y-55.8
X86.5Y-56.2
X87.25Y-58.0
X88.2Y-58.0
X95.0Y-43.0
X102.5Y-57.75
X103.0Y-58.5
X104.25Y-60.25
X109.0Y-99.0
X109.6Y-102.2
X110.0Y-94.5
X115.0Y-61.5
T2
X34.0Y-71.25
X37.0Y-53.655
X40.75Y-54.25
X42.0Y-31.25
X42.5Y-54.25
X43.0Y-62.25
X45.8Y-49.4
X54.8Y-86.6
X56.0Y-65.5
X67.0Y-68.0
X86.4Y-47.2
X91.0Y-93.0
T3
X78.8Y-23.6
X92.8Y-23.6
T4
X104.052Y-89.242
X104.052Y-91.782
X104.052Y-94.322
X104.052Y-96.862
X104.052Y-99.402
X104.052Y-101.942
T5
X84.0Y-109.735
X84.0Y-112.275
X91.8Y-109.66
X91.8Y-112.2
X99.912Y-109.66
X99.912Y-112.2
X108.136Y-109.735
X108.136Y-112.275
T6
X21.675Y-41.575
X21.675Y-46.075
T7
X22.5Y-59.4
X22.5Y-61.94
X22.5Y-64.48
X22.5Y-67.02
X22.5Y-69.56
X22.5Y-72.1
X22.5Y-74.64
X22.5Y-77.18
X32.06Y-81.4
X34.6Y-81.4
X81.98Y-28.4
X84.52Y-28.4
X87.06Y-28.4
X89.6Y-28.4
X91.86Y-49.4
X94.4Y-49.4
X95.71Y-89.25
X95.76Y-115.0
X95.76Y-117.54
X98.25Y-89.25
X98.3Y-115.0
X98.3Y-117.54
X98.65Y-49.55
X98.65Y-52.09
X98.65Y-54.63
X98.65Y-57.17
X98.65Y-59.71
X98.65Y-62.25
X98.65Y-64.79
X100.84Y-115.0
X100.84Y-117.54
X103.38Y-115.0
X103.38Y-117.54
X105.92Y-115.0
X105.92Y-117.54
X108.46Y-115.0
X108.46Y-117.54
X111.0Y-115.0
X111.0Y-117.54
T8
X24.165Y-40.315
X24.165Y-47.325
T0
M30
