%TF.GenerationSoftware,KiCad,Pcbnew,7.0.9*%
%TF.CreationDate,2024-06-04T23:52:15+02:00*%
%TF.ProjectId,EnvSensor-Main-v2.1,456e7653-656e-4736-9f72-2d4d61696e2d,rev?*%
%TF.SameCoordinates,Original*%
%TF.FileFunction,Soldermask,Top*%
%TF.FilePolarity,Negative*%
%FSLAX46Y46*%
G04 Gerber Fmt 4.6, Leading zero omitted, Abs format (unit mm)*
G04 Created by KiCad (PCBNEW 7.0.9) date 2024-06-04 23:52:15*
%MOMM*%
%LPD*%
G01*
G04 APERTURE LIST*
G04 Aperture macros list*
%AMRoundRect*
0 Rectangle with rounded corners*
0 $1 Rounding radius*
0 $2 $3 $4 $5 $6 $7 $8 $9 X,Y pos of 4 corners*
0 Add a 4 corners polygon primitive as box body*
4,1,4,$2,$3,$4,$5,$6,$7,$8,$9,$2,$3,0*
0 Add four circle primitives for the rounded corners*
1,1,$1+$1,$2,$3*
1,1,$1+$1,$4,$5*
1,1,$1+$1,$6,$7*
1,1,$1+$1,$8,$9*
0 Add four rect primitives between the rounded corners*
20,1,$1+$1,$2,$3,$4,$5,0*
20,1,$1+$1,$4,$5,$6,$7,0*
20,1,$1+$1,$6,$7,$8,$9,0*
20,1,$1+$1,$8,$9,$2,$3,0*%
%AMFreePoly0*
4,1,19,0.500000,-0.750000,0.000000,-0.750000,0.000000,-0.744911,-0.071157,-0.744911,-0.207708,-0.704816,-0.327430,-0.627875,-0.420627,-0.520320,-0.479746,-0.390866,-0.500000,-0.250000,-0.500000,0.250000,-0.479746,0.390866,-0.420627,0.520320,-0.327430,0.627875,-0.207708,0.704816,-0.071157,0.744911,0.000000,0.744911,0.000000,0.750000,0.500000,0.750000,0.500000,-0.750000,0.500000,-0.750000,
$1*%
%AMFreePoly1*
4,1,19,0.000000,0.744911,0.071157,0.744911,0.207708,0.704816,0.327430,0.627875,0.420627,0.520320,0.479746,0.390866,0.500000,0.250000,0.500000,-0.250000,0.479746,-0.390866,0.420627,-0.520320,0.327430,-0.627875,0.207708,-0.704816,0.071157,-0.744911,0.000000,-0.744911,0.000000,-0.750000,-0.500000,-0.750000,-0.500000,0.750000,0.000000,0.750000,0.000000,0.744911,0.000000,0.744911,
$1*%
G04 Aperture macros list end*
%ADD10RoundRect,0.250000X-0.262500X-0.450000X0.262500X-0.450000X0.262500X0.450000X-0.262500X0.450000X0*%
%ADD11R,1.700000X1.700000*%
%ADD12O,1.700000X1.700000*%
%ADD13RoundRect,0.250000X-0.450000X0.262500X-0.450000X-0.262500X0.450000X-0.262500X0.450000X0.262500X0*%
%ADD14RoundRect,0.225000X-0.250000X0.225000X-0.250000X-0.225000X0.250000X-0.225000X0.250000X0.225000X0*%
%ADD15R,1.800000X1.800000*%
%ADD16C,1.800000*%
%ADD17RoundRect,0.250000X0.475000X-0.250000X0.475000X0.250000X-0.475000X0.250000X-0.475000X-0.250000X0*%
%ADD18FreePoly0,0.000000*%
%ADD19FreePoly1,0.000000*%
%ADD20RoundRect,0.243750X0.456250X-0.243750X0.456250X0.243750X-0.456250X0.243750X-0.456250X-0.243750X0*%
%ADD21C,1.500000*%
%ADD22RoundRect,0.250000X-0.250000X-0.475000X0.250000X-0.475000X0.250000X0.475000X-0.250000X0.475000X0*%
%ADD23R,1.800000X1.000000*%
%ADD24RoundRect,0.200000X0.200000X0.275000X-0.200000X0.275000X-0.200000X-0.275000X0.200000X-0.275000X0*%
%ADD25C,2.100000*%
%ADD26C,1.750000*%
%ADD27C,3.200000*%
%ADD28RoundRect,0.250000X0.550000X-1.050000X0.550000X1.050000X-0.550000X1.050000X-0.550000X-1.050000X0*%
%ADD29RoundRect,0.250000X0.250000X1.500000X-0.250000X1.500000X-0.250000X-1.500000X0.250000X-1.500000X0*%
%ADD30RoundRect,0.250001X0.499999X1.449999X-0.499999X1.449999X-0.499999X-1.449999X0.499999X-1.449999X0*%
%ADD31FreePoly0,180.000000*%
%ADD32FreePoly1,180.000000*%
%ADD33RoundRect,0.225000X-0.225000X-0.250000X0.225000X-0.250000X0.225000X0.250000X-0.225000X0.250000X0*%
%ADD34RoundRect,0.225000X0.250000X-0.225000X0.250000X0.225000X-0.250000X0.225000X-0.250000X-0.225000X0*%
%ADD35C,3.000000*%
%ADD36R,1.300000X1.550000*%
%ADD37RoundRect,0.250000X0.262500X0.450000X-0.262500X0.450000X-0.262500X-0.450000X0.262500X-0.450000X0*%
%ADD38RoundRect,0.075000X-0.075000X0.700000X-0.075000X-0.700000X0.075000X-0.700000X0.075000X0.700000X0*%
%ADD39RoundRect,0.075000X-0.700000X0.075000X-0.700000X-0.075000X0.700000X-0.075000X0.700000X0.075000X0*%
%ADD40R,1.800000X1.200000*%
%ADD41RoundRect,0.250000X-0.475000X0.250000X-0.475000X-0.250000X0.475000X-0.250000X0.475000X0.250000X0*%
%ADD42R,1.200000X0.700000*%
%ADD43R,0.800000X1.000000*%
%ADD44R,1.200000X1.000000*%
%ADD45R,2.800000X1.000000*%
%ADD46R,1.900000X1.300000*%
%ADD47RoundRect,0.225000X0.225000X0.250000X-0.225000X0.250000X-0.225000X-0.250000X0.225000X-0.250000X0*%
%ADD48RoundRect,0.250000X-1.950000X-0.700000X1.950000X-0.700000X1.950000X0.700000X-1.950000X0.700000X0*%
%ADD49RoundRect,0.250000X1.075000X-0.375000X1.075000X0.375000X-1.075000X0.375000X-1.075000X-0.375000X0*%
%ADD50R,2.000000X0.650000*%
%ADD51RoundRect,0.250000X0.450000X-0.262500X0.450000X0.262500X-0.450000X0.262500X-0.450000X-0.262500X0*%
%ADD52C,2.500000*%
G04 APERTURE END LIST*
D10*
%TO.C,R18*%
X82175000Y-106600000D03*
X84000000Y-106600000D03*
%TD*%
D11*
%TO.C,J1*%
X98250000Y-89250000D03*
D12*
X95710000Y-89250000D03*
%TD*%
D10*
%TO.C,R20*%
X98087500Y-106600000D03*
X99912500Y-106600000D03*
%TD*%
D13*
%TO.C,R7*%
X38950000Y-96337500D03*
X38950000Y-98162500D03*
%TD*%
D11*
%TO.C,J4*%
X32060000Y-81400000D03*
D12*
X34600000Y-81400000D03*
%TD*%
D14*
%TO.C,C14*%
X39950000Y-90525000D03*
X39950000Y-92075000D03*
%TD*%
D15*
%TO.C,D2*%
X84000000Y-112275000D03*
D16*
X84000000Y-109735000D03*
%TD*%
D17*
%TO.C,C1*%
X40750000Y-53450000D03*
X40750000Y-51550000D03*
%TD*%
D18*
%TO.C,JP4*%
X32700000Y-83800000D03*
D19*
X34000000Y-83800000D03*
%TD*%
D20*
%TO.C,D5*%
X97512500Y-111737500D03*
X97512500Y-109862500D03*
%TD*%
D21*
%TO.C,H5*%
X78800000Y-23600000D03*
%TD*%
D22*
%TO.C,C6*%
X46550000Y-46500000D03*
X48450000Y-46500000D03*
%TD*%
D23*
%TO.C,Y2*%
X57250000Y-48750000D03*
X57250000Y-46250000D03*
%TD*%
D10*
%TO.C,R3*%
X40200000Y-86500000D03*
X42025000Y-86500000D03*
%TD*%
D24*
%TO.C,R13*%
X48000000Y-68750000D03*
X46350000Y-68750000D03*
%TD*%
D25*
%TO.C,SW1*%
X24165000Y-47325000D03*
X24165000Y-40315000D03*
D26*
X21675000Y-46075000D03*
X21675000Y-41575000D03*
%TD*%
D10*
%TO.C,R19*%
X89975000Y-106600000D03*
X91800000Y-106600000D03*
%TD*%
D22*
%TO.C,C12*%
X53300000Y-41912500D03*
X55200000Y-41912500D03*
%TD*%
D27*
%TO.C,H3*%
X118000000Y-116000000D03*
%TD*%
D24*
%TO.C,R14*%
X38250000Y-67490000D03*
X36600000Y-67490000D03*
%TD*%
D28*
%TO.C,C25*%
X50750000Y-30050000D03*
X50750000Y-26450000D03*
%TD*%
D29*
%TO.C,J3*%
X42000000Y-27550000D03*
X40000000Y-27550000D03*
X38000000Y-27550000D03*
X36000000Y-27550000D03*
D30*
X44350000Y-21800000D03*
X33650000Y-21800000D03*
%TD*%
D27*
%TO.C,H2*%
X118000000Y-24000000D03*
%TD*%
D10*
%TO.C,R4*%
X40200000Y-88500000D03*
X42025000Y-88500000D03*
%TD*%
%TO.C,R9*%
X63887500Y-68200000D03*
X65712500Y-68200000D03*
%TD*%
D31*
%TO.C,JP1*%
X97650000Y-87000000D03*
D32*
X96350000Y-87000000D03*
%TD*%
D29*
%TO.C,J6*%
X69400000Y-27450000D03*
X67400000Y-27450000D03*
X65400000Y-27450000D03*
X63400000Y-27450000D03*
X61400000Y-27450000D03*
X59400000Y-27450000D03*
D30*
X71750000Y-21700000D03*
X57050000Y-21700000D03*
%TD*%
D33*
%TO.C,C7*%
X46975000Y-48250000D03*
X48525000Y-48250000D03*
%TD*%
D15*
%TO.C,D4*%
X91800000Y-112200000D03*
D16*
X91800000Y-109660000D03*
%TD*%
D21*
%TO.C,H6*%
X92800000Y-23600000D03*
%TD*%
D34*
%TO.C,C2*%
X42500000Y-53500000D03*
X42500000Y-51950000D03*
%TD*%
D35*
%TO.C,U7*%
X22500000Y-32040000D03*
X22500000Y-104540000D03*
X119500000Y-32040000D03*
X119500000Y-104540000D03*
D16*
X22500000Y-59400000D03*
X22500000Y-61940000D03*
X22500000Y-64480000D03*
X22500000Y-67020000D03*
X22500000Y-69560000D03*
X22500000Y-72100000D03*
X22500000Y-74640000D03*
X22500000Y-77180000D03*
%TD*%
D36*
%TO.C,SW2*%
X32750000Y-116980000D03*
X32750000Y-109020000D03*
X37250000Y-116980000D03*
X37250000Y-109020000D03*
%TD*%
D37*
%TO.C,R8*%
X70012500Y-68000000D03*
X68187500Y-68000000D03*
%TD*%
D38*
%TO.C,U5*%
X54427500Y-50725000D03*
X53927500Y-50725000D03*
X53427500Y-50725000D03*
X52927500Y-50725000D03*
X52427500Y-50725000D03*
X51927500Y-50725000D03*
X51427500Y-50725000D03*
X50927500Y-50725000D03*
X50427500Y-50725000D03*
X49927500Y-50725000D03*
X49427500Y-50725000D03*
X48927500Y-50725000D03*
X48427500Y-50725000D03*
X47927500Y-50725000D03*
X47427500Y-50725000D03*
X46927500Y-50725000D03*
D39*
X45002500Y-52650000D03*
X45002500Y-53150000D03*
X45002500Y-53650000D03*
X45002500Y-54150000D03*
X45002500Y-54650000D03*
X45002500Y-55150000D03*
X45002500Y-55650000D03*
X45002500Y-56150000D03*
X45002500Y-56650000D03*
X45002500Y-57150000D03*
X45002500Y-57650000D03*
X45002500Y-58150000D03*
X45002500Y-58650000D03*
X45002500Y-59150000D03*
X45002500Y-59650000D03*
X45002500Y-60150000D03*
D38*
X46927500Y-62075000D03*
X47427500Y-62075000D03*
X47927500Y-62075000D03*
X48427500Y-62075000D03*
X48927500Y-62075000D03*
X49427500Y-62075000D03*
X49927500Y-62075000D03*
X50427500Y-62075000D03*
X50927500Y-62075000D03*
X51427500Y-62075000D03*
X51927500Y-62075000D03*
X52427500Y-62075000D03*
X52927500Y-62075000D03*
X53427500Y-62075000D03*
X53927500Y-62075000D03*
X54427500Y-62075000D03*
D39*
X56352500Y-60150000D03*
X56352500Y-59650000D03*
X56352500Y-59150000D03*
X56352500Y-58650000D03*
X56352500Y-58150000D03*
X56352500Y-57650000D03*
X56352500Y-57150000D03*
X56352500Y-56650000D03*
X56352500Y-56150000D03*
X56352500Y-55650000D03*
X56352500Y-55150000D03*
X56352500Y-54650000D03*
X56352500Y-54150000D03*
X56352500Y-53650000D03*
X56352500Y-53150000D03*
X56352500Y-52650000D03*
%TD*%
D11*
%TO.C,J2*%
X94400000Y-49400000D03*
D12*
X91860000Y-49400000D03*
%TD*%
D40*
%TO.C,Y1*%
X54550000Y-37662500D03*
X50550000Y-37662500D03*
X50550000Y-40062500D03*
X54550000Y-40062500D03*
%TD*%
D24*
%TO.C,R17*%
X48025000Y-67500000D03*
X46375000Y-67500000D03*
%TD*%
%TO.C,R12*%
X44750000Y-68750000D03*
X43100000Y-68750000D03*
%TD*%
D15*
%TO.C,D6*%
X99912500Y-112200000D03*
D16*
X99912500Y-109660000D03*
%TD*%
D27*
%TO.C,H1*%
X24000000Y-24000000D03*
%TD*%
D41*
%TO.C,C24*%
X43600000Y-31850000D03*
X43600000Y-33750000D03*
%TD*%
D20*
%TO.C,D1*%
X81600000Y-111737500D03*
X81600000Y-109862500D03*
%TD*%
%TO.C,D3*%
X89400000Y-111737500D03*
X89400000Y-109862500D03*
%TD*%
D24*
%TO.C,R10*%
X38250000Y-68740000D03*
X36600000Y-68740000D03*
%TD*%
D41*
%TO.C,C15*%
X41700000Y-90300000D03*
X41700000Y-92200000D03*
%TD*%
D22*
%TO.C,C13*%
X49800000Y-41912500D03*
X51700000Y-41912500D03*
%TD*%
D24*
%TO.C,R16*%
X44750000Y-67500000D03*
X43100000Y-67500000D03*
%TD*%
D27*
%TO.C,H4*%
X24000000Y-116000000D03*
%TD*%
D14*
%TO.C,C23*%
X42000000Y-32037500D03*
X42000000Y-33587500D03*
%TD*%
D10*
%TO.C,R2*%
X40037500Y-80500000D03*
X41862500Y-80500000D03*
%TD*%
D14*
%TO.C,C3*%
X58750000Y-52200000D03*
X58750000Y-53750000D03*
%TD*%
D31*
%TO.C,JP2*%
X93800000Y-47000000D03*
D32*
X92500000Y-47000000D03*
%TD*%
D22*
%TO.C,C17*%
X59300000Y-46500000D03*
X61200000Y-46500000D03*
%TD*%
D15*
%TO.C,D8*%
X108136250Y-112275000D03*
D16*
X108136250Y-109735000D03*
%TD*%
D42*
%TO.C,J5*%
X36190000Y-95775000D03*
X36190000Y-94675000D03*
X36190000Y-93575000D03*
X36190000Y-92475000D03*
X36190000Y-91375000D03*
X36190000Y-90275000D03*
X36190000Y-89175000D03*
X36190000Y-88075000D03*
X36190000Y-87125000D03*
D43*
X25690000Y-86175000D03*
D44*
X31890000Y-86175000D03*
D45*
X21540000Y-86175000D03*
D44*
X36190000Y-97325000D03*
D46*
X21090000Y-99675000D03*
%TD*%
D47*
%TO.C,C18*%
X38200000Y-66240000D03*
X36650000Y-66240000D03*
%TD*%
%TO.C,C21*%
X47975000Y-66250000D03*
X46425000Y-66250000D03*
%TD*%
D24*
%TO.C,R11*%
X41500000Y-68750000D03*
X39850000Y-68750000D03*
%TD*%
D10*
%TO.C,R21*%
X106311250Y-106600000D03*
X108136250Y-106600000D03*
%TD*%
D13*
%TO.C,R6*%
X40950000Y-95675000D03*
X40950000Y-97500000D03*
%TD*%
D22*
%TO.C,C16*%
X59300000Y-48500000D03*
X61200000Y-48500000D03*
%TD*%
D13*
%TO.C,R5*%
X42950000Y-94837500D03*
X42950000Y-96662500D03*
%TD*%
D36*
%TO.C,SW4*%
X56750000Y-116980000D03*
X56750000Y-109020000D03*
X61250000Y-116980000D03*
X61250000Y-109020000D03*
%TD*%
D47*
%TO.C,C20*%
X44700000Y-66250000D03*
X43150000Y-66250000D03*
%TD*%
D48*
%TO.C,C10*%
X69050000Y-45250000D03*
X77750000Y-45250000D03*
%TD*%
D49*
%TO.C,L1*%
X44200000Y-48000000D03*
X44200000Y-45200000D03*
%TD*%
D50*
%TO.C,Q1*%
X42660000Y-84200000D03*
X42660000Y-83250000D03*
X42660000Y-82300000D03*
X39240000Y-82300000D03*
X39240000Y-83250000D03*
X39240000Y-84200000D03*
%TD*%
D34*
%TO.C,C5*%
X42750000Y-61275000D03*
X42750000Y-59725000D03*
%TD*%
D20*
%TO.C,D7*%
X105736250Y-111737500D03*
X105736250Y-109862500D03*
%TD*%
D47*
%TO.C,C19*%
X41450000Y-66240000D03*
X39900000Y-66240000D03*
%TD*%
D36*
%TO.C,SW3*%
X44750000Y-116980000D03*
X44750000Y-109020000D03*
X49250000Y-116980000D03*
X49250000Y-109020000D03*
%TD*%
D24*
%TO.C,R15*%
X41525000Y-67500000D03*
X39875000Y-67500000D03*
%TD*%
D36*
%TO.C,SW5*%
X68750000Y-116980000D03*
X68750000Y-109020000D03*
X73250000Y-116980000D03*
X73250000Y-109020000D03*
%TD*%
D11*
%TO.C,J7*%
X89600000Y-28400000D03*
D12*
X87060000Y-28400000D03*
X84520000Y-28400000D03*
X81980000Y-28400000D03*
%TD*%
D51*
%TO.C,R1*%
X51500000Y-45575000D03*
X51500000Y-43750000D03*
%TD*%
D47*
%TO.C,C4*%
X55525000Y-64500000D03*
X53975000Y-64500000D03*
%TD*%
D52*
%TO.C,U3*%
X102550000Y-49650000D03*
X118750000Y-81650000D03*
D15*
X98650000Y-49550000D03*
D16*
X98650000Y-52090000D03*
X98650000Y-54630000D03*
X98650000Y-57170000D03*
X98650000Y-59710000D03*
X98650000Y-62250000D03*
X98650000Y-64790000D03*
%TD*%
D35*
%TO.C,U1*%
X112012500Y-101012500D03*
X112012500Y-90412500D03*
D21*
X104052500Y-89242500D03*
X104052500Y-91782500D03*
X104052500Y-94322500D03*
X104052500Y-96862500D03*
X104052500Y-99402500D03*
X104052500Y-101942500D03*
%TD*%
D11*
%TO.C,J8*%
X111000000Y-115000000D03*
D12*
X111000000Y-117540000D03*
X108460000Y-115000000D03*
X108460000Y-117540000D03*
X105920000Y-115000000D03*
X105920000Y-117540000D03*
X103380000Y-115000000D03*
X103380000Y-117540000D03*
X100840000Y-115000000D03*
X100840000Y-117540000D03*
X98300000Y-115000000D03*
X98300000Y-117540000D03*
X95760000Y-115000000D03*
X95760000Y-117540000D03*
%TD*%
M02*
