%TF.GenerationSoftware,KiCad,Pcbnew,7.0.9*%
%TF.CreationDate,2024-07-22T23:00:39+02:00*%
%TF.ProjectId,EnvSensor-Main-v2.1,456e7653-656e-4736-9f72-2d4d61696e2d,rev?*%
%TF.SameCoordinates,Original*%
%TF.FileFunction,Copper,L1,Top*%
%TF.FilePolarity,Positive*%
%FSLAX46Y46*%
G04 Gerber Fmt 4.6, Leading zero omitted, Abs format (unit mm)*
G04 Created by KiCad (PCBNEW 7.0.9) date 2024-07-22 23:00:39*
%MOMM*%
%LPD*%
G01*
G04 APERTURE LIST*
G04 Aperture macros list*
%AMRoundRect*
0 Rectangle with rounded corners*
0 $1 Rounding radius*
0 $2 $3 $4 $5 $6 $7 $8 $9 X,Y pos of 4 corners*
0 Add a 4 corners polygon primitive as box body*
4,1,4,$2,$3,$4,$5,$6,$7,$8,$9,$2,$3,0*
0 Add four circle primitives for the rounded corners*
1,1,$1+$1,$2,$3*
1,1,$1+$1,$4,$5*
1,1,$1+$1,$6,$7*
1,1,$1+$1,$8,$9*
0 Add four rect primitives between the rounded corners*
20,1,$1+$1,$2,$3,$4,$5,0*
20,1,$1+$1,$4,$5,$6,$7,0*
20,1,$1+$1,$6,$7,$8,$9,0*
20,1,$1+$1,$8,$9,$2,$3,0*%
%AMFreePoly0*
4,1,19,0.500000,-0.750000,0.000000,-0.750000,0.000000,-0.744911,-0.071157,-0.744911,-0.207708,-0.704816,-0.327430,-0.627875,-0.420627,-0.520320,-0.479746,-0.390866,-0.500000,-0.250000,-0.500000,0.250000,-0.479746,0.390866,-0.420627,0.520320,-0.327430,0.627875,-0.207708,0.704816,-0.071157,0.744911,0.000000,0.744911,0.000000,0.750000,0.500000,0.750000,0.500000,-0.750000,0.500000,-0.750000,
$1*%
%AMFreePoly1*
4,1,19,0.000000,0.744911,0.071157,0.744911,0.207708,0.704816,0.327430,0.627875,0.420627,0.520320,0.479746,0.390866,0.500000,0.250000,0.500000,-0.250000,0.479746,-0.390866,0.420627,-0.520320,0.327430,-0.627875,0.207708,-0.704816,0.071157,-0.744911,0.000000,-0.744911,0.000000,-0.750000,-0.500000,-0.750000,-0.500000,0.750000,0.000000,0.750000,0.000000,0.744911,0.000000,0.744911,
$1*%
G04 Aperture macros list end*
%TA.AperFunction,SMDPad,CuDef*%
%ADD10RoundRect,0.250000X-0.262500X-0.450000X0.262500X-0.450000X0.262500X0.450000X-0.262500X0.450000X0*%
%TD*%
%TA.AperFunction,ComponentPad*%
%ADD11R,1.700000X1.700000*%
%TD*%
%TA.AperFunction,ComponentPad*%
%ADD12O,1.700000X1.700000*%
%TD*%
%TA.AperFunction,SMDPad,CuDef*%
%ADD13RoundRect,0.250000X0.262500X0.450000X-0.262500X0.450000X-0.262500X-0.450000X0.262500X-0.450000X0*%
%TD*%
%TA.AperFunction,SMDPad,CuDef*%
%ADD14RoundRect,0.225000X0.250000X-0.225000X0.250000X0.225000X-0.250000X0.225000X-0.250000X-0.225000X0*%
%TD*%
%TA.AperFunction,ComponentPad*%
%ADD15R,1.800000X1.800000*%
%TD*%
%TA.AperFunction,ComponentPad*%
%ADD16C,1.800000*%
%TD*%
%TA.AperFunction,SMDPad,CuDef*%
%ADD17FreePoly0,90.000000*%
%TD*%
%TA.AperFunction,SMDPad,CuDef*%
%ADD18FreePoly1,90.000000*%
%TD*%
%TA.AperFunction,SMDPad,CuDef*%
%ADD19RoundRect,0.243750X0.456250X-0.243750X0.456250X0.243750X-0.456250X0.243750X-0.456250X-0.243750X0*%
%TD*%
%TA.AperFunction,ComponentPad*%
%ADD20C,1.500000*%
%TD*%
%TA.AperFunction,SMDPad,CuDef*%
%ADD21RoundRect,0.250000X-0.250000X-0.475000X0.250000X-0.475000X0.250000X0.475000X-0.250000X0.475000X0*%
%TD*%
%TA.AperFunction,SMDPad,CuDef*%
%ADD22R,1.800000X1.000000*%
%TD*%
%TA.AperFunction,SMDPad,CuDef*%
%ADD23RoundRect,0.250000X-0.450000X0.262500X-0.450000X-0.262500X0.450000X-0.262500X0.450000X0.262500X0*%
%TD*%
%TA.AperFunction,SMDPad,CuDef*%
%ADD24RoundRect,0.200000X0.200000X0.275000X-0.200000X0.275000X-0.200000X-0.275000X0.200000X-0.275000X0*%
%TD*%
%TA.AperFunction,ComponentPad*%
%ADD25C,2.100000*%
%TD*%
%TA.AperFunction,ComponentPad*%
%ADD26C,1.750000*%
%TD*%
%TA.AperFunction,SMDPad,CuDef*%
%ADD27RoundRect,0.250000X0.550000X-1.050000X0.550000X1.050000X-0.550000X1.050000X-0.550000X-1.050000X0*%
%TD*%
%TA.AperFunction,SMDPad,CuDef*%
%ADD28RoundRect,0.250000X-1.500000X0.250000X-1.500000X-0.250000X1.500000X-0.250000X1.500000X0.250000X0*%
%TD*%
%TA.AperFunction,SMDPad,CuDef*%
%ADD29RoundRect,0.250001X-1.449999X0.499999X-1.449999X-0.499999X1.449999X-0.499999X1.449999X0.499999X0*%
%TD*%
%TA.AperFunction,SMDPad,CuDef*%
%ADD30FreePoly0,180.000000*%
%TD*%
%TA.AperFunction,SMDPad,CuDef*%
%ADD31FreePoly1,180.000000*%
%TD*%
%TA.AperFunction,SMDPad,CuDef*%
%ADD32RoundRect,0.225000X-0.225000X-0.250000X0.225000X-0.250000X0.225000X0.250000X-0.225000X0.250000X0*%
%TD*%
%TA.AperFunction,SMDPad,CuDef*%
%ADD33R,1.300000X1.550000*%
%TD*%
%TA.AperFunction,SMDPad,CuDef*%
%ADD34RoundRect,0.075000X-0.075000X0.700000X-0.075000X-0.700000X0.075000X-0.700000X0.075000X0.700000X0*%
%TD*%
%TA.AperFunction,SMDPad,CuDef*%
%ADD35RoundRect,0.075000X-0.700000X0.075000X-0.700000X-0.075000X0.700000X-0.075000X0.700000X0.075000X0*%
%TD*%
%TA.AperFunction,SMDPad,CuDef*%
%ADD36R,1.800000X1.200000*%
%TD*%
%TA.AperFunction,SMDPad,CuDef*%
%ADD37RoundRect,0.250000X0.475000X-0.250000X0.475000X0.250000X-0.475000X0.250000X-0.475000X-0.250000X0*%
%TD*%
%TA.AperFunction,SMDPad,CuDef*%
%ADD38RoundRect,0.225000X-0.250000X0.225000X-0.250000X-0.225000X0.250000X-0.225000X0.250000X0.225000X0*%
%TD*%
%TA.AperFunction,SMDPad,CuDef*%
%ADD39R,1.900000X1.300000*%
%TD*%
%TA.AperFunction,SMDPad,CuDef*%
%ADD40R,1.200000X1.000000*%
%TD*%
%TA.AperFunction,SMDPad,CuDef*%
%ADD41R,2.800000X1.000000*%
%TD*%
%TA.AperFunction,SMDPad,CuDef*%
%ADD42R,0.800000X1.000000*%
%TD*%
%TA.AperFunction,SMDPad,CuDef*%
%ADD43R,1.200000X0.700000*%
%TD*%
%TA.AperFunction,SMDPad,CuDef*%
%ADD44RoundRect,0.225000X0.225000X0.250000X-0.225000X0.250000X-0.225000X-0.250000X0.225000X-0.250000X0*%
%TD*%
%TA.AperFunction,SMDPad,CuDef*%
%ADD45RoundRect,0.250000X-1.950000X-0.700000X1.950000X-0.700000X1.950000X0.700000X-1.950000X0.700000X0*%
%TD*%
%TA.AperFunction,SMDPad,CuDef*%
%ADD46RoundRect,0.250000X1.075000X-0.375000X1.075000X0.375000X-1.075000X0.375000X-1.075000X-0.375000X0*%
%TD*%
%TA.AperFunction,SMDPad,CuDef*%
%ADD47RoundRect,0.150000X-0.512500X-0.150000X0.512500X-0.150000X0.512500X0.150000X-0.512500X0.150000X0*%
%TD*%
%TA.AperFunction,SMDPad,CuDef*%
%ADD48R,2.000000X1.000000*%
%TD*%
%TA.AperFunction,SMDPad,CuDef*%
%ADD49RoundRect,0.250000X0.450000X-0.262500X0.450000X0.262500X-0.450000X0.262500X-0.450000X-0.262500X0*%
%TD*%
%TA.AperFunction,ViaPad*%
%ADD50C,0.800000*%
%TD*%
%TA.AperFunction,ViaPad*%
%ADD51C,1.000000*%
%TD*%
%TA.AperFunction,ViaPad*%
%ADD52C,0.600000*%
%TD*%
%TA.AperFunction,Conductor*%
%ADD53C,0.300000*%
%TD*%
%TA.AperFunction,Conductor*%
%ADD54C,1.000000*%
%TD*%
%TA.AperFunction,Conductor*%
%ADD55C,0.500000*%
%TD*%
%ADD56C,0.350000*%
%ADD57C,0.300000*%
G04 APERTURE END LIST*
%TA.AperFunction,EtchedComponent*%
%TO.C,C1*%
G36*
X50447500Y-40650000D02*
G01*
X49847500Y-40650000D01*
X49847500Y-40150000D01*
X50447500Y-40150000D01*
X50447500Y-40650000D01*
G37*
%TD.AperFunction*%
%TA.AperFunction,EtchedComponent*%
%TO.C,JP5*%
G36*
X79100000Y-111100000D02*
G01*
X78500000Y-111100000D01*
X78500000Y-110600000D01*
X79100000Y-110600000D01*
X79100000Y-111100000D01*
G37*
%TD.AperFunction*%
%TD*%
D10*
%TO.P,R18,1*%
%TO.N,LED_1*%
X82175000Y-106600000D03*
%TO.P,R18,2*%
%TO.N,Net-(D1-A)*%
X84000000Y-106600000D03*
%TD*%
D11*
%TO.P,J1,1,Pin_1*%
%TO.N,+3V3*%
X95725000Y-89175000D03*
D12*
%TO.P,J1,2,Pin_2*%
%TO.N,/BMP280_VCC*%
X98265000Y-89175000D03*
%TD*%
D10*
%TO.P,R20,1*%
%TO.N,LED_3*%
X98087500Y-106600000D03*
%TO.P,R20,2*%
%TO.N,Net-(D5-A)*%
X99912500Y-106600000D03*
%TD*%
D13*
%TO.P,R7,1*%
%TO.N,SDIO_DATA2*%
X61800000Y-75600000D03*
%TO.P,R7,2*%
%TO.N,/SD_3V3*%
X59975000Y-75600000D03*
%TD*%
D11*
%TO.P,J4,1,Pin_1*%
%TO.N,Net-(J4-Pin_1)*%
X68800000Y-91460000D03*
D12*
%TO.P,J4,2,Pin_2*%
%TO.N,+3V3*%
X68800000Y-94000000D03*
%TD*%
D14*
%TO.P,C14,1*%
%TO.N,GND*%
X61790000Y-83250000D03*
%TO.P,C14,2*%
%TO.N,/SD_3V3*%
X61790000Y-81700000D03*
%TD*%
D15*
%TO.P,D2,1,K*%
%TO.N,GND*%
X84000000Y-112275000D03*
D16*
%TO.P,D2,2,A*%
%TO.N,Net-(D1-A)*%
X84000000Y-109735000D03*
%TD*%
D17*
%TO.P,C1,1*%
%TO.N,+3V3*%
X50147500Y-41050000D03*
D18*
%TO.P,C1,2*%
%TO.N,GND*%
X50147500Y-39750000D03*
%TD*%
D19*
%TO.P,D5,1,K*%
%TO.N,Net-(D1-K)*%
X97512500Y-111737500D03*
%TO.P,D5,2,A*%
%TO.N,Net-(D5-A)*%
X97512500Y-109862500D03*
%TD*%
D20*
%TO.P,H5,1*%
%TO.N,N/C*%
X22200000Y-100700000D03*
%TD*%
D21*
%TO.P,C6,1*%
%TO.N,+3.3VA*%
X55947500Y-34650000D03*
%TO.P,C6,2*%
%TO.N,GND*%
X57847500Y-34650000D03*
%TD*%
D17*
%TO.P,JP5,1,A*%
%TO.N,Net-(D1-K)*%
X78800000Y-111500000D03*
D18*
%TO.P,JP5,2,B*%
%TO.N,GND*%
X78800000Y-110200000D03*
%TD*%
D22*
%TO.P,Y2,1,1*%
%TO.N,Net-(U5-PC14)*%
X66647500Y-36900000D03*
%TO.P,Y2,2,2*%
%TO.N,Net-(U5-PC15)*%
X66647500Y-34400000D03*
%TD*%
D23*
%TO.P,R3,1*%
%TO.N,SDIO_DATA1*%
X61800000Y-86887500D03*
%TO.P,R3,2*%
%TO.N,/SD_3V3*%
X61800000Y-88712500D03*
%TD*%
D24*
%TO.P,R13,1*%
%TO.N,+3V3*%
X56025000Y-56900000D03*
%TO.P,R13,2*%
%TO.N,Net-(R13-Pad2)*%
X54375000Y-56900000D03*
%TD*%
D25*
%TO.P,SW1,*%
%TO.N,*%
X24165000Y-55800000D03*
X24165000Y-48790000D03*
D26*
%TO.P,SW1,1,1*%
%TO.N,GND*%
X21675000Y-54550000D03*
%TO.P,SW1,2,2*%
%TO.N,NRST*%
X21675000Y-50050000D03*
%TD*%
D10*
%TO.P,R19,1*%
%TO.N,LED_2*%
X89975000Y-106600000D03*
%TO.P,R19,2*%
%TO.N,Net-(D3-A)*%
X91800000Y-106600000D03*
%TD*%
D21*
%TO.P,C12,1*%
%TO.N,Net-(U5-PH0)*%
X62697500Y-30062500D03*
%TO.P,C12,2*%
%TO.N,GND*%
X64597500Y-30062500D03*
%TD*%
D24*
%TO.P,R14,1*%
%TO.N,SWITCH_1*%
X46275000Y-55640000D03*
%TO.P,R14,2*%
%TO.N,Net-(R10-Pad2)*%
X44625000Y-55640000D03*
%TD*%
D27*
%TO.P,C25,1*%
%TO.N,+5V*%
X40400000Y-34800000D03*
%TO.P,C25,2*%
%TO.N,GND*%
X40400000Y-31200000D03*
%TD*%
D28*
%TO.P,J3,1,Pin_1*%
%TO.N,+5V*%
X35600000Y-38400000D03*
%TO.P,J3,2,Pin_2*%
%TO.N,HPMA_RX*%
X35600000Y-40400000D03*
%TO.P,J3,3,Pin_3*%
%TO.N,HPMA_TX*%
X35600000Y-42400000D03*
%TO.P,J3,4,Pin_4*%
%TO.N,GND*%
X35600000Y-44400000D03*
D29*
%TO.P,J3,MP*%
%TO.N,N/C*%
X29850000Y-36050000D03*
X29850000Y-46750000D03*
%TD*%
D23*
%TO.P,R4,1*%
%TO.N,SDIO_DATA0*%
X59800000Y-86887500D03*
%TO.P,R4,2*%
%TO.N,/SD_3V3*%
X59800000Y-88712500D03*
%TD*%
D30*
%TO.P,JP1,1,1*%
%TO.N,/BMP280_VCC*%
X97650000Y-91400000D03*
D31*
%TO.P,JP1,2,2*%
%TO.N,+3V3*%
X96350000Y-91400000D03*
%TD*%
D32*
%TO.P,C7,1*%
%TO.N,+3.3VA*%
X56372500Y-36400000D03*
%TO.P,C7,2*%
%TO.N,GND*%
X57922500Y-36400000D03*
%TD*%
D15*
%TO.P,D4,1,K*%
%TO.N,GND*%
X91800000Y-112200000D03*
D16*
%TO.P,D4,2,A*%
%TO.N,Net-(D3-A)*%
X91800000Y-109660000D03*
%TD*%
D20*
%TO.P,H6,1*%
%TO.N,N/C*%
X22200000Y-81500000D03*
%TD*%
D14*
%TO.P,C2,1*%
%TO.N,+3V3*%
X51897500Y-41400000D03*
%TO.P,C2,2*%
%TO.N,GND*%
X51897500Y-39850000D03*
%TD*%
D16*
%TO.P,U7,8,BUSY*%
%TO.N,E_INK_BUSY*%
X22500000Y-77180000D03*
%TO.P,U7,7,RST*%
%TO.N,E_INK_RESET*%
X22500000Y-74640000D03*
%TO.P,U7,6,DC*%
%TO.N,E_INK_DC*%
X22500000Y-72100000D03*
%TO.P,U7,5,CS*%
%TO.N,E_INK_SELECT*%
X22500000Y-69560000D03*
%TO.P,U7,4,CLK*%
%TO.N,SCK*%
X22500000Y-67020000D03*
%TO.P,U7,3,DIN*%
%TO.N,MOSI*%
X22500000Y-64480000D03*
%TO.P,U7,2,GND*%
%TO.N,GND*%
X22500000Y-61940000D03*
%TO.P,U7,1,VDD*%
%TO.N,+3V3*%
X22500000Y-59400000D03*
%TD*%
D33*
%TO.P,SW2,1,1*%
%TO.N,GND*%
X32750000Y-116980000D03*
X32750000Y-109020000D03*
%TO.P,SW2,2,2*%
%TO.N,Net-(R10-Pad2)*%
X37250000Y-116980000D03*
X37250000Y-109020000D03*
%TD*%
D34*
%TO.P,U5,1,VBAT*%
%TO.N,/VBAT*%
X63825000Y-38875000D03*
%TO.P,U5,2,PC13*%
%TO.N,unconnected-(U5-PC13-Pad2)*%
X63325000Y-38875000D03*
%TO.P,U5,3,PC14*%
%TO.N,Net-(U5-PC14)*%
X62825000Y-38875000D03*
%TO.P,U5,4,PC15*%
%TO.N,Net-(U5-PC15)*%
X62325000Y-38875000D03*
%TO.P,U5,5,PH0*%
%TO.N,Net-(U5-PH0)*%
X61825000Y-38875000D03*
%TO.P,U5,6,PH1*%
%TO.N,Net-(U5-PH1)*%
X61325000Y-38875000D03*
%TO.P,U5,7,NRST*%
%TO.N,NRST*%
X60825000Y-38875000D03*
%TO.P,U5,8,PC0*%
%TO.N,LED_4*%
X60325000Y-38875000D03*
%TO.P,U5,9,PC1*%
%TO.N,LED_3*%
X59825000Y-38875000D03*
%TO.P,U5,10,PC2*%
%TO.N,LED_2*%
X59325000Y-38875000D03*
%TO.P,U5,11,PC3*%
%TO.N,LED_1*%
X58825000Y-38875000D03*
%TO.P,U5,12,VSSA*%
%TO.N,GND*%
X58325000Y-38875000D03*
%TO.P,U5,13,VDDA*%
%TO.N,+3.3VA*%
X57825000Y-38875000D03*
%TO.P,U5,14,PA0*%
%TO.N,BATTERY_MEASURE_INPUT*%
X57325000Y-38875000D03*
%TO.P,U5,15,PA1*%
%TO.N,unconnected-(U5-PA1-Pad15)*%
X56825000Y-38875000D03*
%TO.P,U5,16,PA2*%
%TO.N,HPMA_RX*%
X56325000Y-38875000D03*
D35*
%TO.P,U5,17,PA3*%
%TO.N,HPMA_TX*%
X54400000Y-40800000D03*
%TO.P,U5,18,VSS*%
%TO.N,GND*%
X54400000Y-41300000D03*
%TO.P,U5,19,VDD*%
%TO.N,+3V3*%
X54400000Y-41800000D03*
%TO.P,U5,20,PA4*%
%TO.N,unconnected-(U5-PA4-Pad20)*%
X54400000Y-42300000D03*
%TO.P,U5,21,PA5*%
%TO.N,SCK*%
X54400000Y-42800000D03*
%TO.P,U5,22,PA6*%
%TO.N,unconnected-(U5-PA6-Pad22)*%
X54400000Y-43300000D03*
%TO.P,U5,23,PA7*%
%TO.N,MOSI*%
X54400000Y-43800000D03*
%TO.P,U5,24,PC4*%
%TO.N,E_INK_SELECT*%
X54400000Y-44300000D03*
%TO.P,U5,25,PC5*%
%TO.N,E_INK_DC*%
X54400000Y-44800000D03*
%TO.P,U5,26,PB0*%
%TO.N,E_INK_RESET*%
X54400000Y-45300000D03*
%TO.P,U5,27,PB1*%
%TO.N,E_INK_BUSY*%
X54400000Y-45800000D03*
%TO.P,U5,28,PB2*%
%TO.N,POWER_5V_ENABLE*%
X54400000Y-46300000D03*
%TO.P,U5,29,PB10*%
%TO.N,WIFI_RX*%
X54400000Y-46800000D03*
%TO.P,U5,30,PB11*%
%TO.N,WFI_TX*%
X54400000Y-47300000D03*
%TO.P,U5,31,VSS*%
%TO.N,GND*%
X54400000Y-47800000D03*
%TO.P,U5,32,VDD*%
%TO.N,+3V3*%
X54400000Y-48300000D03*
D34*
%TO.P,U5,33,PB12*%
%TO.N,SWITCH_1*%
X56325000Y-50225000D03*
%TO.P,U5,34,PB13*%
%TO.N,SWITCH_2*%
X56825000Y-50225000D03*
%TO.P,U5,35,PB14*%
%TO.N,SWITCH_3*%
X57325000Y-50225000D03*
%TO.P,U5,36,PB15*%
%TO.N,SWITCH_4*%
X57825000Y-50225000D03*
%TO.P,U5,37,PC6*%
%TO.N,BATTERY_MEASURE_ENABLE*%
X58325000Y-50225000D03*
%TO.P,U5,38,PC7*%
%TO.N,unconnected-(U5-PC7-Pad38)*%
X58825000Y-50225000D03*
%TO.P,U5,39,PC8*%
%TO.N,SDIO_DATA0*%
X59325000Y-50225000D03*
%TO.P,U5,40,PC9*%
%TO.N,SDIO_DATA1*%
X59825000Y-50225000D03*
%TO.P,U5,41,PA8*%
%TO.N,SCD30_READY*%
X60325000Y-50225000D03*
%TO.P,U5,42,PA9*%
%TO.N,SCL*%
X60825000Y-50225000D03*
%TO.P,U5,43,PA10*%
%TO.N,SDA*%
X61325000Y-50225000D03*
%TO.P,U5,44,PA11*%
%TO.N,SDIO_POWER_ENABLE*%
X61825000Y-50225000D03*
%TO.P,U5,45,PA12*%
%TO.N,SDIO_DETECT*%
X62325000Y-50225000D03*
%TO.P,U5,46,PA13*%
%TO.N,SWDIO*%
X62825000Y-50225000D03*
%TO.P,U5,47,VSS*%
%TO.N,GND*%
X63325000Y-50225000D03*
%TO.P,U5,48,VDDUSB*%
%TO.N,+3V3*%
X63825000Y-50225000D03*
D35*
%TO.P,U5,49,PA14*%
%TO.N,SWCLK*%
X65750000Y-48300000D03*
%TO.P,U5,50,PA15*%
%TO.N,unconnected-(U5-PA15-Pad50)*%
X65750000Y-47800000D03*
%TO.P,U5,51,PC10*%
%TO.N,SDIO_DATA2*%
X65750000Y-47300000D03*
%TO.P,U5,52,PC11*%
%TO.N,SDIO_DATA3*%
X65750000Y-46800000D03*
%TO.P,U5,53,PC12*%
%TO.N,SDIO_CLK*%
X65750000Y-46300000D03*
%TO.P,U5,54,PD2*%
%TO.N,SDIO_CMD*%
X65750000Y-45800000D03*
%TO.P,U5,55,PB3*%
%TO.N,SWO*%
X65750000Y-45300000D03*
%TO.P,U5,56,PB4*%
%TO.N,WIFI_ENABLE*%
X65750000Y-44800000D03*
%TO.P,U5,57,PB5*%
%TO.N,WIFI_RESET*%
X65750000Y-44300000D03*
%TO.P,U5,58,PB6*%
%TO.N,unconnected-(U5-PB6-Pad58)*%
X65750000Y-43800000D03*
%TO.P,U5,59,PB7*%
%TO.N,unconnected-(U5-PB7-Pad59)*%
X65750000Y-43300000D03*
%TO.P,U5,60,PH3*%
%TO.N,GND*%
X65750000Y-42800000D03*
%TO.P,U5,61,PB8*%
%TO.N,unconnected-(U5-PB8-Pad61)*%
X65750000Y-42300000D03*
%TO.P,U5,62,PB9*%
%TO.N,unconnected-(U5-PB9-Pad62)*%
X65750000Y-41800000D03*
%TO.P,U5,63,VSS*%
%TO.N,GND*%
X65750000Y-41300000D03*
%TO.P,U5,64,VDD*%
%TO.N,+3V3*%
X65750000Y-40800000D03*
%TD*%
D11*
%TO.P,J2,1,Pin_1*%
%TO.N,/SCD_POWER*%
X94400000Y-49400000D03*
D12*
%TO.P,J2,2,Pin_2*%
%TO.N,+3V3*%
X91860000Y-49400000D03*
%TD*%
D36*
%TO.P,Y1,1,1*%
%TO.N,Net-(U5-PH0)*%
X63947500Y-25812500D03*
%TO.P,Y1,2,2*%
%TO.N,GND*%
X59947500Y-25812500D03*
%TO.P,Y1,3,3*%
%TO.N,Net-(C13-Pad1)*%
X59947500Y-28212500D03*
%TO.P,Y1,4,4*%
%TO.N,GND*%
X63947500Y-28212500D03*
%TD*%
D24*
%TO.P,R17,1*%
%TO.N,SWITCH_4*%
X56050000Y-55650000D03*
%TO.P,R17,2*%
%TO.N,Net-(R13-Pad2)*%
X54400000Y-55650000D03*
%TD*%
%TO.P,R12,1*%
%TO.N,+3V3*%
X52775000Y-56900000D03*
%TO.P,R12,2*%
%TO.N,Net-(R12-Pad2)*%
X51125000Y-56900000D03*
%TD*%
D15*
%TO.P,D6,1,K*%
%TO.N,GND*%
X99912500Y-112200000D03*
D16*
%TO.P,D6,2,A*%
%TO.N,Net-(D5-A)*%
X99912500Y-109660000D03*
%TD*%
D37*
%TO.P,C24,1*%
%TO.N,+5V*%
X34287500Y-33900000D03*
%TO.P,C24,2*%
%TO.N,GND*%
X34287500Y-32000000D03*
%TD*%
D19*
%TO.P,D1,1,K*%
%TO.N,Net-(D1-K)*%
X81600000Y-111737500D03*
%TO.P,D1,2,A*%
%TO.N,Net-(D1-A)*%
X81600000Y-109862500D03*
%TD*%
%TO.P,D3,1,K*%
%TO.N,Net-(D1-K)*%
X89400000Y-111737500D03*
%TO.P,D3,2,A*%
%TO.N,Net-(D3-A)*%
X89400000Y-109862500D03*
%TD*%
D24*
%TO.P,R10,1*%
%TO.N,+3V3*%
X46275000Y-56890000D03*
%TO.P,R10,2*%
%TO.N,Net-(R10-Pad2)*%
X44625000Y-56890000D03*
%TD*%
D37*
%TO.P,C15,1*%
%TO.N,GND*%
X60040000Y-83475000D03*
%TO.P,C15,2*%
%TO.N,/SD_3V3*%
X60040000Y-81575000D03*
%TD*%
D21*
%TO.P,C13,1*%
%TO.N,Net-(C13-Pad1)*%
X59197500Y-30062500D03*
%TO.P,C13,2*%
%TO.N,GND*%
X61097500Y-30062500D03*
%TD*%
D24*
%TO.P,R16,1*%
%TO.N,SWITCH_3*%
X52775000Y-55650000D03*
%TO.P,R16,2*%
%TO.N,Net-(R12-Pad2)*%
X51125000Y-55650000D03*
%TD*%
D14*
%TO.P,C23,1*%
%TO.N,+5V*%
X35887500Y-33712500D03*
%TO.P,C23,2*%
%TO.N,GND*%
X35887500Y-32162500D03*
%TD*%
D13*
%TO.P,R2,1*%
%TO.N,Net-(J4-Pin_1)*%
X61622500Y-94000000D03*
%TO.P,R2,2*%
%TO.N,SDIO_POWER_ENABLE*%
X59797500Y-94000000D03*
%TD*%
D38*
%TO.P,C3,1*%
%TO.N,+3V3*%
X68147500Y-40350000D03*
%TO.P,C3,2*%
%TO.N,GND*%
X68147500Y-41900000D03*
%TD*%
D30*
%TO.P,JP2,1,1*%
%TO.N,/SCD_POWER*%
X93800000Y-47000000D03*
D31*
%TO.P,JP2,2,2*%
%TO.N,+3V3*%
X92500000Y-47000000D03*
%TD*%
D21*
%TO.P,C17,1*%
%TO.N,Net-(U5-PC15)*%
X68697500Y-34650000D03*
%TO.P,C17,2*%
%TO.N,GND*%
X70597500Y-34650000D03*
%TD*%
D15*
%TO.P,D8,1,K*%
%TO.N,GND*%
X108136250Y-112275000D03*
D16*
%TO.P,D8,2,A*%
%TO.N,Net-(D7-A)*%
X108136250Y-109735000D03*
%TD*%
D39*
%TO.P,J5,11,SHIELD*%
%TO.N,unconnected-(J5-SHIELD-Pad11)*%
X80650000Y-74100000D03*
D40*
X65550000Y-76450000D03*
D41*
X80200000Y-87600000D03*
D40*
X69850000Y-87600000D03*
D42*
%TO.P,J5,10,DET_A*%
%TO.N,GND*%
X76050000Y-87600000D03*
D43*
%TO.P,J5,9,DET_B*%
%TO.N,SDIO_DETECT*%
X65550000Y-86650000D03*
%TO.P,J5,8,DAT1*%
%TO.N,SDIO_DATA1*%
X65550000Y-85700000D03*
%TO.P,J5,7,DAT0*%
%TO.N,SDIO_DATA0*%
X65550000Y-84600000D03*
%TO.P,J5,6,VSS*%
%TO.N,GND*%
X65550000Y-83500000D03*
%TO.P,J5,5,CLK*%
%TO.N,SDIO_CLK*%
X65550000Y-82400000D03*
%TO.P,J5,4,VDD*%
%TO.N,/SD_3V3*%
X65550000Y-81300000D03*
%TO.P,J5,3,CMD*%
%TO.N,SDIO_CMD*%
X65550000Y-80200000D03*
%TO.P,J5,2,DAT3/CD*%
%TO.N,SDIO_DATA3*%
X65550000Y-79100000D03*
%TO.P,J5,1,DAT2*%
%TO.N,SDIO_DATA2*%
X65550000Y-78000000D03*
%TD*%
D44*
%TO.P,C18,1*%
%TO.N,SWITCH_1*%
X46225000Y-54390000D03*
%TO.P,C18,2*%
%TO.N,GND*%
X44675000Y-54390000D03*
%TD*%
%TO.P,C21,1*%
%TO.N,SWITCH_4*%
X56000000Y-54400000D03*
%TO.P,C21,2*%
%TO.N,GND*%
X54450000Y-54400000D03*
%TD*%
D24*
%TO.P,R11,1*%
%TO.N,+3V3*%
X49525000Y-56900000D03*
%TO.P,R11,2*%
%TO.N,Net-(R11-Pad2)*%
X47875000Y-56900000D03*
%TD*%
D10*
%TO.P,R21,1*%
%TO.N,LED_4*%
X106311250Y-106600000D03*
%TO.P,R21,2*%
%TO.N,Net-(D7-A)*%
X108136250Y-106600000D03*
%TD*%
D13*
%TO.P,R6,1*%
%TO.N,SDIO_DATA3*%
X61800000Y-77600000D03*
%TO.P,R6,2*%
%TO.N,/SD_3V3*%
X59975000Y-77600000D03*
%TD*%
D21*
%TO.P,C16,1*%
%TO.N,Net-(U5-PC14)*%
X68697500Y-36650000D03*
%TO.P,C16,2*%
%TO.N,GND*%
X70597500Y-36650000D03*
%TD*%
D13*
%TO.P,R5,1*%
%TO.N,SDIO_CMD*%
X61800000Y-79600000D03*
%TO.P,R5,2*%
%TO.N,/SD_3V3*%
X59975000Y-79600000D03*
%TD*%
D33*
%TO.P,SW4,1,1*%
%TO.N,GND*%
X56750000Y-116980000D03*
X56750000Y-109020000D03*
%TO.P,SW4,2,2*%
%TO.N,Net-(R12-Pad2)*%
X61250000Y-116980000D03*
X61250000Y-109020000D03*
%TD*%
D44*
%TO.P,C20,1*%
%TO.N,SWITCH_3*%
X52725000Y-54400000D03*
%TO.P,C20,2*%
%TO.N,GND*%
X51175000Y-54400000D03*
%TD*%
D45*
%TO.P,C10,1*%
%TO.N,/VBAT*%
X78447500Y-33400000D03*
%TO.P,C10,2*%
%TO.N,GND*%
X87147500Y-33400000D03*
%TD*%
D46*
%TO.P,L1,1,1*%
%TO.N,+3V3*%
X53597500Y-36150000D03*
%TO.P,L1,2,2*%
%TO.N,+3.3VA*%
X53597500Y-33350000D03*
%TD*%
D47*
%TO.P,Q1,1,D*%
%TO.N,/SD_3V3*%
X59572500Y-90300000D03*
%TO.P,Q1,2,D*%
X59572500Y-91250000D03*
%TO.P,Q1,3,G*%
%TO.N,SDIO_POWER_ENABLE*%
X59572500Y-92200000D03*
%TO.P,Q1,4,S*%
%TO.N,Net-(J4-Pin_1)*%
X61847500Y-92200000D03*
%TO.P,Q1,5,D*%
%TO.N,/SD_3V3*%
X61847500Y-91250000D03*
%TO.P,Q1,6,D*%
X61847500Y-90300000D03*
%TD*%
D14*
%TO.P,C5,1*%
%TO.N,+3V3*%
X52147500Y-49425000D03*
%TO.P,C5,2*%
%TO.N,GND*%
X52147500Y-47875000D03*
%TD*%
D19*
%TO.P,D7,1,K*%
%TO.N,Net-(D1-K)*%
X105736250Y-111737500D03*
%TO.P,D7,2,A*%
%TO.N,Net-(D7-A)*%
X105736250Y-109862500D03*
%TD*%
D44*
%TO.P,C19,1*%
%TO.N,SWITCH_2*%
X49475000Y-54390000D03*
%TO.P,C19,2*%
%TO.N,GND*%
X47925000Y-54390000D03*
%TD*%
D33*
%TO.P,SW3,1,1*%
%TO.N,GND*%
X44750000Y-116980000D03*
X44750000Y-109020000D03*
%TO.P,SW3,2,2*%
%TO.N,Net-(R11-Pad2)*%
X49250000Y-116980000D03*
X49250000Y-109020000D03*
%TD*%
D24*
%TO.P,R15,1*%
%TO.N,SWITCH_2*%
X49550000Y-55650000D03*
%TO.P,R15,2*%
%TO.N,Net-(R11-Pad2)*%
X47900000Y-55650000D03*
%TD*%
D33*
%TO.P,SW5,1,1*%
%TO.N,GND*%
X68750000Y-116980000D03*
X68750000Y-109020000D03*
%TO.P,SW5,2,2*%
%TO.N,Net-(R13-Pad2)*%
X73250000Y-116980000D03*
X73250000Y-109020000D03*
%TD*%
D48*
%TO.P,J7,1,Pin_1*%
%TO.N,SDA*%
X27787500Y-87300000D03*
%TO.P,J7,2,Pin_2*%
%TO.N,SCL*%
X27787500Y-89840000D03*
%TO.P,J7,3,Pin_3*%
%TO.N,GND*%
X27787500Y-92380000D03*
%TO.P,J7,4,Pin_4*%
%TO.N,+3V3*%
X27787500Y-94920000D03*
%TD*%
D49*
%TO.P,R1,1*%
%TO.N,Net-(U5-PH1)*%
X60897500Y-33725000D03*
%TO.P,R1,2*%
%TO.N,Net-(C13-Pad1)*%
X60897500Y-31900000D03*
%TD*%
D44*
%TO.P,C4,1*%
%TO.N,+3V3*%
X64922500Y-52650000D03*
%TO.P,C4,2*%
%TO.N,GND*%
X63372500Y-52650000D03*
%TD*%
D15*
%TO.P,U3,1,VDD*%
%TO.N,/SCD_POWER*%
X98650000Y-49550000D03*
D16*
%TO.P,U3,2,GND*%
%TO.N,GND*%
X98650000Y-52090000D03*
%TO.P,U3,3,TX/SCL*%
%TO.N,SCL*%
X98650000Y-54630000D03*
%TO.P,U3,4,RX/SDA*%
%TO.N,SDA*%
X98650000Y-57170000D03*
%TO.P,U3,5,RDY*%
%TO.N,SCD30_READY*%
X98650000Y-59710000D03*
%TO.P,U3,6,PWM*%
%TO.N,unconnected-(U3-PWM-Pad6)*%
X98650000Y-62250000D03*
%TO.P,U3,7,SEL*%
%TO.N,GND*%
X98650000Y-64790000D03*
%TD*%
D20*
%TO.P,U1,1,VDD*%
%TO.N,/BMP280_VCC*%
X104052500Y-89242500D03*
%TO.P,U1,2,GND*%
%TO.N,GND*%
X104052500Y-91782500D03*
%TO.P,U1,3,SCL*%
%TO.N,SCL*%
X104052500Y-94322500D03*
%TO.P,U1,4,SDA*%
%TO.N,SDA*%
X104052500Y-96862500D03*
%TO.P,U1,5,CSB*%
%TO.N,/BMP280_VCC*%
X104052500Y-99402500D03*
%TO.P,U1,6,SDO*%
%TO.N,GND*%
X104052500Y-101942500D03*
%TD*%
D11*
%TO.P,J8,1,Pin_1*%
%TO.N,+3V3*%
X111000000Y-115000000D03*
D12*
%TO.P,J8,2,Pin_2*%
%TO.N,GND*%
X111000000Y-117540000D03*
%TO.P,J8,3,Pin_3*%
%TO.N,+3V3*%
X108460000Y-115000000D03*
%TO.P,J8,4,Pin_4*%
%TO.N,GND*%
X108460000Y-117540000D03*
%TO.P,J8,5,Pin_5*%
%TO.N,+5V*%
X105920000Y-115000000D03*
%TO.P,J8,6,Pin_6*%
%TO.N,GND*%
X105920000Y-117540000D03*
%TO.P,J8,7,Pin_7*%
%TO.N,+5V*%
X103380000Y-115000000D03*
%TO.P,J8,8,Pin_8*%
%TO.N,GND*%
X103380000Y-117540000D03*
%TO.P,J8,9,Pin_9*%
%TO.N,POWER_5V_ENABLE*%
X100840000Y-115000000D03*
%TO.P,J8,10,Pin_10*%
%TO.N,GND*%
X100840000Y-117540000D03*
%TO.P,J8,11,Pin_11*%
%TO.N,+BATT*%
X98300000Y-115000000D03*
%TO.P,J8,12,Pin_12*%
%TO.N,GND*%
X98300000Y-117540000D03*
%TO.P,J8,13,Pin_13*%
%TO.N,VBUS*%
X95760000Y-115000000D03*
%TO.P,J8,14,Pin_14*%
%TO.N,GND*%
X95760000Y-117540000D03*
%TD*%
D50*
%TO.N,+3V3*%
X52397500Y-50400000D03*
X67200000Y-40200000D03*
X51897500Y-42150000D03*
D51*
X45800000Y-41800000D03*
D50*
X52800000Y-57800000D03*
X50147500Y-42150000D03*
X55197500Y-37550000D03*
X46400000Y-57800000D03*
X49600000Y-57800000D03*
X64841117Y-53600000D03*
X56000000Y-57800000D03*
X56000000Y-60000000D03*
D51*
X29400000Y-95200000D03*
D50*
%TO.N,GND*%
X109600000Y-102200000D03*
X56897500Y-33000000D03*
D52*
X72397500Y-33150000D03*
D50*
X114400000Y-62400000D03*
X90800000Y-56200000D03*
X58800000Y-35200000D03*
X109200000Y-99000000D03*
D52*
X63647500Y-31900000D03*
D51*
X27600000Y-64200000D03*
D52*
X65897500Y-26650000D03*
D50*
X57800000Y-40350000D03*
D52*
X72397500Y-35400000D03*
X57897500Y-26650000D03*
D50*
X63800000Y-71800000D03*
D52*
X46600000Y-64200000D03*
D50*
X63000000Y-84000000D03*
D52*
X63147500Y-34400000D03*
D50*
X63000000Y-76800000D03*
X72400000Y-66000000D03*
D52*
X47800000Y-67600000D03*
X71397500Y-34650000D03*
D50*
X102800000Y-58800000D03*
X67000000Y-73800000D03*
X68400000Y-75800000D03*
D52*
X66897500Y-38150000D03*
D50*
X110000000Y-94500000D03*
X49000000Y-39350000D03*
X62600000Y-45200000D03*
X34400000Y-31000000D03*
D52*
X65897500Y-31650000D03*
X61147500Y-26062500D03*
X60147500Y-24400000D03*
D50*
X51397500Y-47900000D03*
X78800000Y-108800000D03*
D52*
X71397500Y-36650000D03*
D50*
X48000000Y-53400000D03*
D52*
X60397500Y-36400000D03*
D51*
X38150000Y-44400000D03*
X28200000Y-91200000D03*
D50*
X67800000Y-80800000D03*
X58800000Y-36200000D03*
X62400000Y-56400000D03*
X94600000Y-43000000D03*
X61800000Y-59400000D03*
X94000000Y-59200000D03*
D52*
X62717000Y-28062500D03*
X69647500Y-38150000D03*
X59397500Y-34400000D03*
D50*
X55600000Y-109000000D03*
D52*
X72397500Y-38150000D03*
X57897500Y-28900000D03*
D50*
X55897500Y-43150000D03*
X68750000Y-118250000D03*
X67600000Y-109000000D03*
X67400000Y-42200000D03*
D51*
X32650000Y-44400000D03*
D50*
X64000000Y-87400000D03*
D51*
X40400000Y-29350000D03*
D52*
X65897500Y-28900000D03*
D50*
X89800000Y-33400000D03*
D52*
X57897500Y-24400000D03*
X63897500Y-30062500D03*
D50*
X56750000Y-118250000D03*
D52*
X60397500Y-30062500D03*
X64147500Y-34400000D03*
D50*
X32750000Y-118250000D03*
X53775000Y-54000000D03*
X75965000Y-88525000D03*
D52*
X66897500Y-33150000D03*
D50*
X44750000Y-118250000D03*
X64800000Y-68400000D03*
X45000000Y-53400000D03*
X47400000Y-45400000D03*
D52*
X64897500Y-37650000D03*
D50*
X51200000Y-53400000D03*
X52800000Y-39800000D03*
D52*
X57897500Y-31150000D03*
D51*
X23550000Y-92000000D03*
D50*
X44750000Y-107750000D03*
X66800000Y-83500000D03*
X32750000Y-107750000D03*
X63200000Y-42200000D03*
X35887500Y-31337500D03*
D52*
X62647500Y-36150000D03*
D50*
X58969500Y-83400000D03*
X67600000Y-71000000D03*
D52*
X69647500Y-33150000D03*
D50*
X63395217Y-53600000D03*
%TO.N,NRST*%
X44400000Y-39400000D03*
X30200000Y-51400000D03*
X59147500Y-37400000D03*
D51*
%TO.N,/SD_3V3*%
X58400000Y-81600000D03*
X58200000Y-88000000D03*
D50*
%TO.N,LED_1*%
X58400000Y-42000000D03*
D52*
X73600000Y-50400000D03*
%TO.N,LED_2*%
X74622222Y-50177778D03*
D50*
X59400000Y-42600000D03*
D52*
%TO.N,LED_3*%
X75800000Y-49900000D03*
D50*
X60400000Y-42000000D03*
D52*
%TO.N,LED_4*%
X76400000Y-48800000D03*
D50*
X61400000Y-41400000D03*
%TO.N,/SCD_POWER*%
X104250000Y-60250000D03*
D51*
%TO.N,+5V*%
X42200000Y-76800000D03*
X39000000Y-36200000D03*
X47200000Y-97600000D03*
D50*
%TO.N,SDIO_DATA3*%
X68200000Y-71800000D03*
X63000000Y-78000000D03*
%TO.N,SDIO_CMD*%
X67800000Y-75000000D03*
X67000000Y-80200000D03*
%TO.N,SDIO_CLK*%
X67400000Y-82400000D03*
X67975000Y-73375000D03*
%TO.N,SDIO_DATA1*%
X61800000Y-84600000D03*
X63400000Y-86502817D03*
%TO.N,SDIO_DETECT*%
X65000000Y-67000000D03*
X68600000Y-83600000D03*
%TO.N,SWCLK*%
X64600000Y-71000000D03*
%TO.N,SWDIO*%
X65600000Y-69200000D03*
%TO.N,SWO*%
X72000000Y-65000000D03*
%TO.N,SDA*%
X61800000Y-57200000D03*
X91400000Y-57170000D03*
D52*
X47400000Y-64600000D03*
D50*
%TO.N,SCL*%
X93000000Y-58600000D03*
X102500000Y-57750000D03*
D52*
X47400000Y-66800000D03*
D50*
X62600000Y-58600000D03*
%TO.N,SDIO_POWER_ENABLE*%
X60400000Y-72200000D03*
X57200000Y-72600000D03*
%TO.N,SCD30_READY*%
X62600000Y-60400000D03*
D51*
%TO.N,MOSI*%
X26600000Y-63200000D03*
D52*
%TO.N,POWER_5V_ENABLE*%
X77000000Y-49800000D03*
D50*
X57200000Y-45650000D03*
%TO.N,WIFI_RX*%
X62400000Y-44200000D03*
%TO.N,WFI_TX*%
X63600000Y-43200000D03*
%TO.N,WIFI_RESET*%
X73200000Y-43400000D03*
%TO.N,WIFI_ENABLE*%
X72000000Y-44800000D03*
%TO.N,BATTERY_MEASURE_ENABLE*%
X54897500Y-49380001D03*
%TO.N,+BATT*%
X57400000Y-54000000D03*
%TO.N,BATTERY_MEASURE_INPUT*%
X56897500Y-41900000D03*
%TO.N,Net-(D1-K)*%
X96200000Y-104000000D03*
X96200000Y-111737500D03*
%TD*%
D53*
%TO.N,+3V3*%
X49525000Y-56900000D02*
X49525000Y-57725000D01*
X50197500Y-41400000D02*
X51897500Y-41400000D01*
X54400000Y-48300000D02*
X53497500Y-48300000D01*
X52847500Y-41650000D02*
X52997500Y-41800000D01*
X52997500Y-41800000D02*
X54400000Y-41800000D01*
D54*
X45800000Y-41800000D02*
X44200000Y-41800000D01*
X95725000Y-90775000D02*
X96350000Y-91400000D01*
D53*
X63825000Y-51077500D02*
X64922500Y-52175000D01*
X52372500Y-49425000D02*
X52147500Y-49425000D01*
D55*
X52147500Y-50150000D02*
X52397500Y-50400000D01*
D53*
X64841117Y-53600000D02*
X64922500Y-53175000D01*
X64922500Y-52175000D02*
X64922500Y-52650000D01*
X63825000Y-50225000D02*
X63825000Y-51077500D01*
D54*
X91860000Y-47640000D02*
X91860000Y-49400000D01*
D53*
X52775000Y-56900000D02*
X52800000Y-57800000D01*
X49525000Y-57725000D02*
X49600000Y-57800000D01*
D54*
X95725000Y-89175000D02*
X95725000Y-90775000D01*
D53*
X67596824Y-40400000D02*
X67196824Y-40800000D01*
X51897500Y-41650000D02*
X52847500Y-41650000D01*
X46275000Y-56890000D02*
X46275000Y-57675000D01*
X67196824Y-40800000D02*
X65750000Y-40800000D01*
X50147500Y-42150000D02*
X50147500Y-41350000D01*
D55*
X55197500Y-37550000D02*
X54997500Y-37550000D01*
X56000000Y-57800000D02*
X56000000Y-60000000D01*
D53*
X56025000Y-56900000D02*
X56000000Y-57800000D01*
D54*
X44200000Y-41800000D02*
X26600000Y-59400000D01*
D55*
X52147500Y-49425000D02*
X52147500Y-50150000D01*
D53*
X64922500Y-53175000D02*
X64922500Y-52650000D01*
D54*
X26600000Y-59400000D02*
X22500000Y-59400000D01*
D53*
X50147500Y-41350000D02*
X50197500Y-41400000D01*
D54*
X28720000Y-94920000D02*
X29400000Y-95200000D01*
D53*
X53497500Y-48300000D02*
X52372500Y-49425000D01*
D54*
X27787500Y-94920000D02*
X28720000Y-94920000D01*
D53*
X68397500Y-40400000D02*
X67596824Y-40400000D01*
X46275000Y-57675000D02*
X46400000Y-57800000D01*
D54*
X92500000Y-47000000D02*
X91860000Y-47640000D01*
D55*
X54997500Y-37550000D02*
X53597500Y-36150000D01*
D53*
%TO.N,GND*%
X63372500Y-52650000D02*
X63395217Y-53600000D01*
X32750000Y-116980000D02*
X32750000Y-118250000D01*
X62867000Y-28212500D02*
X62717000Y-28062500D01*
X44750000Y-116980000D02*
X44750000Y-118250000D01*
D54*
X32650000Y-44400000D02*
X36150000Y-44400000D01*
D53*
X58250000Y-34650000D02*
X58800000Y-35200000D01*
X52800000Y-39800000D02*
X52550000Y-39850000D01*
X67400000Y-42200000D02*
X68147500Y-41900000D01*
D55*
X60065000Y-83500000D02*
X60040000Y-83475000D01*
D53*
X32750000Y-109020000D02*
X32750000Y-107750000D01*
X75990000Y-87600000D02*
X75990000Y-88500000D01*
X58325000Y-39825000D02*
X58325000Y-38875000D01*
D55*
X69647500Y-38150000D02*
X72397500Y-38150000D01*
X57897500Y-24400000D02*
X60147500Y-24400000D01*
D53*
X63325000Y-52602500D02*
X63372500Y-52650000D01*
D55*
X61040000Y-83475000D02*
X63490000Y-83475000D01*
D53*
X51347500Y-39850000D02*
X51897500Y-39850000D01*
D55*
X65197500Y-33150000D02*
X64147500Y-34200000D01*
D53*
X51422500Y-47875000D02*
X51397500Y-47900000D01*
X66800000Y-42800000D02*
X67400000Y-42200000D01*
D55*
X63515000Y-83500000D02*
X65565000Y-83500000D01*
D53*
X67585000Y-41900000D02*
X66985000Y-41300000D01*
X63947500Y-28212500D02*
X62867000Y-28212500D01*
X52347500Y-40100000D02*
X53547500Y-41300000D01*
D54*
X27787500Y-92380000D02*
X28200000Y-91967500D01*
D53*
X49000000Y-39350000D02*
X49087146Y-39437146D01*
X57922500Y-35125000D02*
X57922500Y-36400000D01*
D55*
X65897500Y-31650000D02*
X63897500Y-31650000D01*
X65297500Y-38150000D02*
X64897500Y-37750000D01*
D53*
X52922500Y-47875000D02*
X52997500Y-47800000D01*
X57800000Y-40350000D02*
X58325000Y-39825000D01*
X51175000Y-54400000D02*
X51200000Y-53400000D01*
D55*
X72397500Y-38150000D02*
X72397500Y-35400000D01*
D53*
X47925000Y-53475000D02*
X47925000Y-54390000D01*
D55*
X57897500Y-31150000D02*
X57897500Y-29150000D01*
X57897500Y-29150000D02*
X57897500Y-27150000D01*
D53*
X44675000Y-53725000D02*
X44675000Y-54390000D01*
X58285000Y-36400000D02*
X57922500Y-36400000D01*
D55*
X69647500Y-38150000D02*
X65297500Y-38150000D01*
D53*
X58325000Y-38875000D02*
X58325000Y-37327500D01*
D55*
X60397500Y-35400000D02*
X59397500Y-34400000D01*
D53*
X48000000Y-53400000D02*
X47925000Y-53475000D01*
X70597500Y-36650000D02*
X71397500Y-36650000D01*
X60897500Y-25812500D02*
X61147500Y-26062500D01*
D55*
X63000000Y-83475000D02*
X63000000Y-84000000D01*
D53*
X58325000Y-37327500D02*
X57922500Y-36925000D01*
X52147500Y-47875000D02*
X51422500Y-47875000D01*
D55*
X34387500Y-31900000D02*
X34387500Y-31100000D01*
X65897500Y-26900000D02*
X65897500Y-29150000D01*
D53*
X65750000Y-42800000D02*
X66800000Y-42800000D01*
X87147500Y-33400000D02*
X89800000Y-33400000D01*
D55*
X72397500Y-33150000D02*
X65197500Y-33150000D01*
X60040000Y-83475000D02*
X61040000Y-83475000D01*
D53*
X58647500Y-36400000D02*
X58285000Y-36400000D01*
X53547500Y-41300000D02*
X54400000Y-41300000D01*
D55*
X59397500Y-34400000D02*
X59397500Y-32650000D01*
D54*
X36150000Y-44400000D02*
X38150000Y-44400000D01*
D53*
X68147500Y-41900000D02*
X67585000Y-41900000D01*
D55*
X63147500Y-24400000D02*
X65897500Y-24400000D01*
D53*
X45000000Y-53400000D02*
X44675000Y-53725000D01*
D55*
X57897500Y-27150000D02*
X57897500Y-24400000D01*
D53*
X68750000Y-116980000D02*
X68750000Y-118250000D01*
X56750000Y-116980000D02*
X56750000Y-118250000D01*
D54*
X28200000Y-91967500D02*
X28200000Y-91200000D01*
D55*
X72397500Y-35400000D02*
X72397500Y-33150000D01*
D53*
X70597500Y-34650000D02*
X71397500Y-34650000D01*
D55*
X60147500Y-24400000D02*
X63147500Y-24400000D01*
D53*
X50147500Y-39600000D02*
X51097500Y-39600000D01*
X59947500Y-25812500D02*
X60897500Y-25812500D01*
X51097500Y-39600000D02*
X51347500Y-39850000D01*
D55*
X63147500Y-32400000D02*
X63147500Y-34400000D01*
X64897500Y-37750000D02*
X64897500Y-37650000D01*
X66800000Y-83500000D02*
X65550000Y-83500000D01*
X63147500Y-34400000D02*
X63147500Y-34900000D01*
X63147500Y-34900000D02*
X62647500Y-35400000D01*
D53*
X75990000Y-88500000D02*
X75965000Y-88525000D01*
D55*
X35887500Y-32162500D02*
X35887500Y-31337500D01*
D53*
X63325000Y-50225000D02*
X63325000Y-52602500D01*
D55*
X61040000Y-83475000D02*
X63000000Y-83475000D01*
X60040000Y-83475000D02*
X59044500Y-83475000D01*
D53*
X49984646Y-39437146D02*
X50147500Y-39600000D01*
D55*
X63897500Y-31650000D02*
X63147500Y-32400000D01*
D53*
X52147500Y-47875000D02*
X52922500Y-47875000D01*
D55*
X64147500Y-34400000D02*
X64147500Y-34900000D01*
D53*
X78800000Y-110200000D02*
X78800000Y-108800000D01*
X49087146Y-39437146D02*
X49984646Y-39437146D01*
X61097500Y-30062500D02*
X60397500Y-30062500D01*
X56750000Y-109020000D02*
X55600000Y-109000000D01*
X64597500Y-30062500D02*
X63897500Y-30062500D01*
D55*
X60397500Y-36400000D02*
X60397500Y-35400000D01*
D53*
X57922500Y-36925000D02*
X57922500Y-36400000D01*
D55*
X63490000Y-83475000D02*
X63515000Y-83500000D01*
X64147500Y-34200000D02*
X64147500Y-34400000D01*
X62647500Y-35400000D02*
X62647500Y-36150000D01*
D53*
X54400000Y-47800000D02*
X52997500Y-47800000D01*
D55*
X64397500Y-37650000D02*
X64897500Y-37650000D01*
X59044500Y-83475000D02*
X58969500Y-83400000D01*
D53*
X52550000Y-39850000D02*
X51897500Y-39850000D01*
D55*
X59397500Y-32650000D02*
X57897500Y-31150000D01*
D53*
X66985000Y-41300000D02*
X65750000Y-41300000D01*
D54*
X40400000Y-30300000D02*
X40400000Y-29350000D01*
D55*
X65897500Y-29150000D02*
X65897500Y-31650000D01*
D53*
X44750000Y-109020000D02*
X44750000Y-107750000D01*
X68750000Y-109020000D02*
X67600000Y-109000000D01*
X57847500Y-34650000D02*
X58250000Y-34650000D01*
X54450000Y-54400000D02*
X53775000Y-54000000D01*
D55*
X65897500Y-24400000D02*
X65897500Y-26900000D01*
%TO.N,+3.3VA*%
X53597500Y-33350000D02*
X54647500Y-33350000D01*
D53*
X56397500Y-36400000D02*
X57825000Y-37827500D01*
X56372500Y-36400000D02*
X56372500Y-35925000D01*
X56372500Y-36400000D02*
X56397500Y-36400000D01*
X56372500Y-35925000D02*
X55947500Y-35500000D01*
D55*
X54647500Y-33350000D02*
X55947500Y-34650000D01*
D53*
X57825000Y-37827500D02*
X57825000Y-38875000D01*
X55947500Y-34650000D02*
X55947500Y-35500000D01*
%TO.N,/BMP280_VCC*%
X103507500Y-89242500D02*
X104052500Y-89242500D01*
D54*
X98265000Y-90785000D02*
X97650000Y-91400000D01*
D53*
X105800000Y-98400000D02*
X105800000Y-90200000D01*
X104052500Y-99402500D02*
X103402500Y-99402500D01*
X104052500Y-99402500D02*
X104797500Y-99402500D01*
D54*
X98250000Y-89250000D02*
X104045000Y-89250000D01*
D53*
X104797500Y-99402500D02*
X105800000Y-98400000D01*
D54*
X104045000Y-89250000D02*
X104052500Y-89242500D01*
D53*
X105800000Y-90200000D02*
X104842500Y-89242500D01*
X104842500Y-89242500D02*
X104052500Y-89242500D01*
D54*
X98265000Y-89175000D02*
X98265000Y-90785000D01*
D53*
%TO.N,/VBAT*%
X78297500Y-34250000D02*
X78297500Y-35702500D01*
X64100000Y-39150000D02*
X63825000Y-38875000D01*
X78297500Y-35702500D02*
X74850000Y-39150000D01*
X74850000Y-39150000D02*
X64100000Y-39150000D01*
%TO.N,NRST*%
X59147500Y-37400000D02*
X60397500Y-37400000D01*
X32400000Y-51400000D02*
X30200000Y-51400000D01*
X21675000Y-50050000D02*
X23025000Y-51400000D01*
X44400000Y-39400000D02*
X32400000Y-51400000D01*
X60825000Y-37827500D02*
X60825000Y-38875000D01*
X23025000Y-51400000D02*
X28400000Y-51400000D01*
X60397500Y-37400000D02*
X60825000Y-37827500D01*
X28400000Y-51400000D02*
X30200000Y-51400000D01*
%TO.N,Net-(U5-PH0)*%
X62397500Y-34400000D02*
X62397500Y-31650000D01*
X62397500Y-31650000D02*
X62697500Y-31350000D01*
X62697500Y-29112500D02*
X62147500Y-28562500D01*
X62697500Y-31350000D02*
X62697500Y-30062500D01*
X62697500Y-30062500D02*
X62697500Y-29112500D01*
X61825000Y-34972500D02*
X62397500Y-34400000D01*
X61825000Y-38875000D02*
X61825000Y-34972500D01*
X62147500Y-28562500D02*
X62147500Y-26562500D01*
X62147500Y-26562500D02*
X62897500Y-25812500D01*
X62897500Y-25812500D02*
X63947500Y-25812500D01*
%TO.N,Net-(C13-Pad1)*%
X59197500Y-28962500D02*
X59947500Y-28212500D01*
X59197500Y-30062500D02*
X59197500Y-28962500D01*
X59197500Y-30062500D02*
X59197500Y-30200000D01*
X59197500Y-30200000D02*
X60897500Y-31900000D01*
D55*
%TO.N,/SD_3V3*%
X59975000Y-75600000D02*
X59975000Y-77600000D01*
X60040000Y-81575000D02*
X60040000Y-80840000D01*
X58400000Y-81600000D02*
X60015000Y-81600000D01*
X59975000Y-77600000D02*
X59975000Y-79600000D01*
X60040000Y-80840000D02*
X59975000Y-80775000D01*
X61847500Y-91250000D02*
X59572500Y-91250000D01*
X61800000Y-88712500D02*
X60800000Y-88712500D01*
X60015000Y-81600000D02*
X60040000Y-81575000D01*
X59572500Y-91250000D02*
X59572500Y-90300000D01*
X58912500Y-88712500D02*
X58200000Y-88000000D01*
X60800000Y-88712500D02*
X60800000Y-90300000D01*
X59975000Y-80775000D02*
X59975000Y-79600000D01*
X60800000Y-90300000D02*
X59572500Y-90300000D01*
X61847500Y-90300000D02*
X60800000Y-90300000D01*
X60040000Y-81575000D02*
X62740000Y-81575000D01*
X62740000Y-81575000D02*
X63015000Y-81300000D01*
X60800000Y-88712500D02*
X59800000Y-88712500D01*
X63015000Y-81300000D02*
X65565000Y-81300000D01*
X59800000Y-88712500D02*
X58912500Y-88712500D01*
D53*
%TO.N,Net-(U5-PC14)*%
X62825000Y-38112096D02*
X64037096Y-36900000D01*
X62825000Y-38875000D02*
X62825000Y-38112096D01*
X66647500Y-36900000D02*
X67647500Y-36900000D01*
X64037096Y-36900000D02*
X66647500Y-36900000D01*
X67897500Y-36650000D02*
X68697500Y-36650000D01*
X67647500Y-36900000D02*
X67897500Y-36650000D01*
%TO.N,Net-(U5-PC15)*%
X67897500Y-34650000D02*
X68697500Y-34650000D01*
X62325000Y-38875000D02*
X62325000Y-37722500D01*
X62325000Y-37722500D02*
X65647500Y-34400000D01*
X66647500Y-34400000D02*
X67647500Y-34400000D01*
X67647500Y-34400000D02*
X67897500Y-34650000D01*
X65647500Y-34400000D02*
X66647500Y-34400000D01*
%TO.N,SWITCH_1*%
X48325000Y-51600000D02*
X54600000Y-51600000D01*
X46275000Y-54440000D02*
X46225000Y-54390000D01*
X54600000Y-51600000D02*
X55975000Y-50225000D01*
X55975000Y-50225000D02*
X56325000Y-50225000D01*
X46225000Y-54390000D02*
X46225000Y-53700000D01*
X46225000Y-53700000D02*
X48325000Y-51600000D01*
X46275000Y-55640000D02*
X46275000Y-54440000D01*
%TO.N,SWITCH_2*%
X56825000Y-51175000D02*
X56825000Y-50225000D01*
X50775000Y-52400000D02*
X55600000Y-52400000D01*
X49550000Y-55650000D02*
X49550000Y-54465000D01*
X49475000Y-54390000D02*
X49475000Y-53700000D01*
X49475000Y-53700000D02*
X50775000Y-52400000D01*
X49550000Y-54465000D02*
X49475000Y-54390000D01*
X55600000Y-52400000D02*
X56825000Y-51175000D01*
%TO.N,SWITCH_3*%
X52725000Y-54400000D02*
X52725000Y-53800000D01*
X55800000Y-53200000D02*
X57325000Y-51675000D01*
X53325000Y-53200000D02*
X55800000Y-53200000D01*
X52775000Y-55650000D02*
X52775000Y-54450000D01*
X57325000Y-51675000D02*
X57325000Y-50225000D01*
X52725000Y-53800000D02*
X53325000Y-53200000D01*
X52775000Y-54450000D02*
X52725000Y-54400000D01*
%TO.N,SWITCH_4*%
X56000000Y-54400000D02*
X56000000Y-54000000D01*
X57825000Y-52175000D02*
X57825000Y-50225000D01*
X56050000Y-54450000D02*
X56000000Y-54400000D01*
X56000000Y-54000000D02*
X57825000Y-52175000D01*
X56050000Y-55650000D02*
X56050000Y-54450000D01*
%TO.N,Net-(D1-A)*%
X81727500Y-109735000D02*
X81600000Y-109862500D01*
X84000000Y-106600000D02*
X84000000Y-109735000D01*
X84000000Y-109735000D02*
X81727500Y-109735000D01*
%TO.N,LED_1*%
X77000000Y-53800000D02*
X77000000Y-67400000D01*
X77000000Y-67400000D02*
X84800000Y-75200000D01*
X84800000Y-97800000D02*
X82175000Y-100425000D01*
X58825000Y-40775000D02*
X58825000Y-38875000D01*
X73600000Y-50400000D02*
X77000000Y-53800000D01*
X58400000Y-41200000D02*
X58825000Y-40775000D01*
X82175000Y-100425000D02*
X82175000Y-106600000D01*
X84800000Y-75200000D02*
X84800000Y-97800000D01*
X58400000Y-42000000D02*
X58400000Y-41200000D01*
%TO.N,Net-(D3-A)*%
X89602500Y-109660000D02*
X89400000Y-109862500D01*
X91800000Y-106600000D02*
X91800000Y-109660000D01*
X91800000Y-109660000D02*
X89602500Y-109660000D01*
%TO.N,LED_2*%
X85800000Y-97800000D02*
X85800000Y-75000000D01*
X89975000Y-106600000D02*
X89975000Y-101975000D01*
X85800000Y-75000000D02*
X77800000Y-67000000D01*
X59400000Y-42600000D02*
X59325000Y-42495972D01*
X77800000Y-53355556D02*
X74622222Y-50177778D01*
X89975000Y-101975000D02*
X85800000Y-97800000D01*
X59325000Y-42495972D02*
X59325000Y-38875000D01*
X77800000Y-67000000D02*
X77800000Y-53355556D01*
%TO.N,Net-(D5-A)*%
X99912500Y-109660000D02*
X97715000Y-109660000D01*
X99912500Y-106600000D02*
X99912500Y-109660000D01*
X97715000Y-109660000D02*
X97512500Y-109862500D01*
%TO.N,LED_3*%
X86800000Y-74800000D02*
X86800000Y-97400000D01*
X78600000Y-52800000D02*
X78600000Y-66600000D01*
X96000000Y-106600000D02*
X98087500Y-106600000D01*
X59825000Y-40625000D02*
X59825000Y-38875000D01*
X75800000Y-50000000D02*
X78600000Y-52800000D01*
X60400000Y-42000000D02*
X60400000Y-41200000D01*
X78600000Y-66600000D02*
X86800000Y-74800000D01*
X75800000Y-49900000D02*
X75800000Y-50000000D01*
X86800000Y-97400000D02*
X96000000Y-106600000D01*
X60400000Y-41200000D02*
X59825000Y-40625000D01*
%TO.N,Net-(D7-A)*%
X108136250Y-109735000D02*
X105863750Y-109735000D01*
X108136250Y-106600000D02*
X108136250Y-109735000D01*
X105863750Y-109735000D02*
X105736250Y-109862500D01*
%TO.N,LED_4*%
X101600000Y-103000000D02*
X105200000Y-106600000D01*
X61400000Y-41400000D02*
X61400000Y-40983333D01*
X76400000Y-48800000D02*
X77252174Y-48800000D01*
X60325000Y-39908333D02*
X60325000Y-38875000D01*
X77252174Y-48800000D02*
X80200000Y-51747826D01*
X88800000Y-74250000D02*
X88800000Y-96500000D01*
X105200000Y-106600000D02*
X106287500Y-106600000D01*
X80200000Y-51747826D02*
X80200000Y-65650000D01*
X95300000Y-103000000D02*
X101600000Y-103000000D01*
X80200000Y-65650000D02*
X88800000Y-74250000D01*
X88800000Y-96500000D02*
X95300000Y-103000000D01*
X61400000Y-40983333D02*
X60325000Y-39908333D01*
D54*
%TO.N,/SCD_POWER*%
X94400000Y-49400000D02*
X94400000Y-47600000D01*
D55*
X99050000Y-49550000D02*
X104250000Y-54750000D01*
D54*
X94400000Y-47600000D02*
X93800000Y-47000000D01*
D55*
X98650000Y-49550000D02*
X99050000Y-49550000D01*
X98635000Y-49565000D02*
X98650000Y-49550000D01*
X104250000Y-54750000D02*
X104250000Y-60250000D01*
D54*
%TO.N,+5V*%
X40400000Y-34800000D02*
X39000000Y-36200000D01*
X42200000Y-76800000D02*
X42200000Y-92600000D01*
X34387500Y-33800000D02*
X35600000Y-33800000D01*
X39000000Y-36200000D02*
X35600000Y-36200000D01*
X35600000Y-38400000D02*
X35600000Y-36200000D01*
X42200000Y-92600000D02*
X47200000Y-97600000D01*
X35800000Y-33800000D02*
X35887500Y-33712500D01*
X35600000Y-33800000D02*
X35800000Y-33800000D01*
X35600000Y-36200000D02*
X35600000Y-33800000D01*
D53*
%TO.N,HPMA_RX*%
X54875000Y-38875000D02*
X56325000Y-38875000D01*
X51611875Y-37600000D02*
X53600000Y-37600000D01*
X56325000Y-38875000D02*
X56325000Y-38327500D01*
X38000000Y-40400000D02*
X41600000Y-36800000D01*
X35600000Y-40400000D02*
X38000000Y-40400000D01*
X50811875Y-36800000D02*
X51611875Y-37600000D01*
X53600000Y-37600000D02*
X54875000Y-38875000D01*
X41600000Y-36800000D02*
X50811875Y-36800000D01*
%TO.N,HPMA_TX*%
X53000000Y-38600000D02*
X51400000Y-38600000D01*
X54400000Y-40000000D02*
X53000000Y-38600000D01*
X42015385Y-38200000D02*
X37815385Y-42400000D01*
X51000000Y-38200000D02*
X42015385Y-38200000D01*
X51400000Y-38600000D02*
X51000000Y-38200000D01*
X37815385Y-42400000D02*
X35600000Y-42400000D01*
X54400000Y-40800000D02*
X54400000Y-40000000D01*
%TO.N,Net-(J4-Pin_1)*%
X61847500Y-92862500D02*
X61847500Y-92200000D01*
X61622500Y-94000000D02*
X61622500Y-93087500D01*
D55*
X68785000Y-91475000D02*
X68800000Y-91460000D01*
X66940000Y-91460000D02*
X68800000Y-91460000D01*
D53*
X61622500Y-93087500D02*
X61847500Y-92862500D01*
D55*
X62420000Y-92200000D02*
X66200000Y-92200000D01*
X66200000Y-92200000D02*
X66940000Y-91460000D01*
D53*
%TO.N,SDIO_DATA2*%
X61800000Y-75600000D02*
X64200000Y-75600000D01*
X68000000Y-69600000D02*
X64200000Y-73400000D01*
X66700000Y-47300000D02*
X68000000Y-48600000D01*
X64200000Y-73400000D02*
X64200000Y-75600000D01*
X64200000Y-77400000D02*
X64800000Y-78000000D01*
X64200000Y-75600000D02*
X64200000Y-77400000D01*
X65750000Y-47300000D02*
X66700000Y-47300000D01*
X68000000Y-48600000D02*
X68000000Y-69600000D01*
X64800000Y-78000000D02*
X65550000Y-78000000D01*
%TO.N,SDIO_DATA3*%
X67400000Y-46800000D02*
X65750000Y-46800000D01*
X62600000Y-77600000D02*
X64100000Y-79100000D01*
X69000000Y-48400000D02*
X67400000Y-46800000D01*
X61800000Y-77600000D02*
X62600000Y-77600000D01*
X64100000Y-79100000D02*
X65550000Y-79100000D01*
X69000000Y-71000000D02*
X69000000Y-48400000D01*
X68200000Y-71800000D02*
X69000000Y-71000000D01*
%TO.N,SDIO_CMD*%
X69300000Y-45800000D02*
X65750000Y-45800000D01*
X71000000Y-72041667D02*
X71000000Y-47500000D01*
X64000000Y-80200000D02*
X65550000Y-80200000D01*
X63400000Y-79600000D02*
X64000000Y-80200000D01*
X67841667Y-75000000D02*
X71000000Y-72041667D01*
X65550000Y-80200000D02*
X67000000Y-80200000D01*
X71000000Y-47500000D02*
X69300000Y-45800000D01*
X61800000Y-79600000D02*
X63400000Y-79600000D01*
%TO.N,SDIO_CLK*%
X68300000Y-46300000D02*
X65750000Y-46300000D01*
X70000000Y-71350000D02*
X70000000Y-48000000D01*
X65550000Y-82400000D02*
X67400000Y-82400000D01*
X70000000Y-48000000D02*
X68300000Y-46300000D01*
X67975000Y-73375000D02*
X70000000Y-71350000D01*
%TO.N,SDIO_DATA0*%
X59325000Y-50225000D02*
X59325000Y-51875000D01*
X59800000Y-86843750D02*
X59800000Y-85556250D01*
X62643750Y-85556250D02*
X63600000Y-84600000D01*
X59325000Y-51875000D02*
X58200000Y-53000000D01*
X59800000Y-85556250D02*
X62643750Y-85556250D01*
X63600000Y-84600000D02*
X65550000Y-84600000D01*
X57956250Y-85556250D02*
X59800000Y-85556250D01*
X56000000Y-83600000D02*
X57956250Y-85556250D01*
X56000000Y-75600000D02*
X56000000Y-83600000D01*
X58200000Y-53000000D02*
X58200000Y-73400000D01*
X58200000Y-73400000D02*
X56000000Y-75600000D01*
%TO.N,SDIO_DATA1*%
X59825000Y-52625000D02*
X59400000Y-53050000D01*
X58800000Y-84800000D02*
X61200000Y-84800000D01*
X59825000Y-50225000D02*
X59825000Y-52625000D01*
X59400000Y-53050000D02*
X59400000Y-73800000D01*
X63400000Y-86502817D02*
X64202817Y-85700000D01*
X57200000Y-83200000D02*
X58800000Y-84800000D01*
X57200000Y-76000000D02*
X57200000Y-83200000D01*
X61200000Y-84800000D02*
X61400000Y-84600000D01*
X63015317Y-86887500D02*
X61800000Y-86887500D01*
X59400000Y-73800000D02*
X57200000Y-76000000D01*
X63400000Y-86502817D02*
X63015317Y-86887500D01*
X61400000Y-84600000D02*
X61800000Y-84600000D01*
X64202817Y-85700000D02*
X65550000Y-85700000D01*
%TO.N,SDIO_DETECT*%
X64600000Y-56200000D02*
X62325000Y-53925000D01*
X62325000Y-53925000D02*
X62325000Y-50225000D01*
X68600000Y-83600000D02*
X68600000Y-84400000D01*
X65000000Y-67000000D02*
X64600000Y-66600000D01*
X64600000Y-66600000D02*
X64600000Y-56200000D01*
X66350000Y-86650000D02*
X65350000Y-86650000D01*
X68600000Y-84400000D02*
X66350000Y-86650000D01*
D54*
%TO.N,unconnected-(J5-SHIELD-Pad11)*%
X79465000Y-78275000D02*
X79465000Y-77275000D01*
X68840000Y-78150000D02*
X69790000Y-79100000D01*
X79465000Y-75225000D02*
X80590000Y-74100000D01*
X79465000Y-77275000D02*
X79465000Y-75225000D01*
X78965000Y-76775000D02*
X70215000Y-76775000D01*
X69790000Y-79100000D02*
X69790000Y-87600000D01*
X70215000Y-76775000D02*
X68840000Y-78150000D01*
X67140000Y-76450000D02*
X68840000Y-78150000D01*
X65490000Y-76450000D02*
X67140000Y-76450000D01*
X80140000Y-78950000D02*
X79465000Y-78275000D01*
X80140000Y-87600000D02*
X80140000Y-78950000D01*
X79465000Y-77275000D02*
X78965000Y-76775000D01*
D53*
%TO.N,SWCLK*%
X67000000Y-51200000D02*
X65750000Y-49950000D01*
X67000000Y-69000000D02*
X67000000Y-51200000D01*
X64600000Y-71000000D02*
X65000000Y-71000000D01*
X65000000Y-71000000D02*
X67000000Y-69000000D01*
X65750000Y-49950000D02*
X65750000Y-48300000D01*
%TO.N,SWDIO*%
X63000000Y-49000000D02*
X62825000Y-49175000D01*
X64800000Y-49600000D02*
X64200000Y-49000000D01*
X62825000Y-49175000D02*
X62825000Y-50225000D01*
X66000000Y-68800000D02*
X66000000Y-51800000D01*
X64800000Y-50600000D02*
X64800000Y-49600000D01*
X64200000Y-49000000D02*
X63000000Y-49000000D01*
X66000000Y-51800000D02*
X64800000Y-50600000D01*
X65600000Y-69200000D02*
X66000000Y-68800000D01*
%TO.N,SWO*%
X70300000Y-45300000D02*
X65750000Y-45300000D01*
X72000000Y-65000000D02*
X72200000Y-64800000D01*
X72200000Y-47200000D02*
X70300000Y-45300000D01*
X72200000Y-64800000D02*
X72200000Y-47200000D01*
%TO.N,SDA*%
X61800000Y-57200000D02*
X61542373Y-56942373D01*
X104052500Y-96862500D02*
X96462500Y-96862500D01*
X61325000Y-55725000D02*
X61325000Y-50225000D01*
X37000000Y-75000000D02*
X47400000Y-64600000D01*
X96462500Y-96862500D02*
X91400000Y-91800000D01*
X61542373Y-56942373D02*
X61542373Y-55942373D01*
X61542373Y-55942373D02*
X61325000Y-55725000D01*
X37000000Y-85400000D02*
X37000000Y-75000000D01*
X91400000Y-91800000D02*
X91400000Y-57170000D01*
X35100000Y-87300000D02*
X37000000Y-85400000D01*
X27787500Y-87300000D02*
X35100000Y-87300000D01*
%TO.N,SCL*%
X102500000Y-57750000D02*
X102500000Y-57000000D01*
X96970000Y-54630000D02*
X98650000Y-54630000D01*
X93000000Y-91000000D02*
X96322500Y-94322500D01*
X62600000Y-58600000D02*
X61600000Y-58600000D01*
X27787500Y-89840000D02*
X34860000Y-89840000D01*
X100130000Y-54630000D02*
X98650000Y-54630000D01*
X61600000Y-58600000D02*
X60825000Y-57825000D01*
X38400000Y-86300000D02*
X38400000Y-75800000D01*
X38400000Y-75800000D02*
X47400000Y-66800000D01*
X60825000Y-57825000D02*
X60825000Y-50225000D01*
X93000000Y-58600000D02*
X96970000Y-54630000D01*
X96322500Y-94322500D02*
X104052500Y-94322500D01*
X93000000Y-58600000D02*
X93000000Y-91000000D01*
X34860000Y-89840000D02*
X38400000Y-86300000D01*
X102500000Y-57000000D02*
X100130000Y-54630000D01*
%TO.N,SDIO_POWER_ENABLE*%
X59797500Y-94000000D02*
X59797500Y-93087500D01*
X55000000Y-75000000D02*
X57200000Y-72800000D01*
X59797500Y-93087500D02*
X59572500Y-92862500D01*
X59572500Y-92862500D02*
X59572500Y-92200000D01*
X56800000Y-86200000D02*
X55000000Y-84400000D01*
X60400000Y-72200000D02*
X60400000Y-69600000D01*
X56800000Y-90400000D02*
X56800000Y-86200000D01*
X59000000Y-92200000D02*
X58600000Y-92200000D01*
X60400000Y-69600000D02*
X63600000Y-66400000D01*
X57200000Y-72800000D02*
X57200000Y-72600000D01*
X55000000Y-84400000D02*
X55000000Y-75000000D01*
X58600000Y-92200000D02*
X56800000Y-90400000D01*
X61825000Y-54825000D02*
X61825000Y-50225000D01*
X63600000Y-56600000D02*
X61825000Y-54825000D01*
X63600000Y-66400000D02*
X63600000Y-56600000D01*
%TO.N,Net-(U5-PH1)*%
X61325000Y-35077500D02*
X60897500Y-34650000D01*
X60897500Y-34650000D02*
X60897500Y-33725000D01*
X61325000Y-38875000D02*
X61325000Y-35077500D01*
%TO.N,Net-(R10-Pad2)*%
X46000000Y-105600000D02*
X39000000Y-105600000D01*
X37250000Y-116980000D02*
X37250000Y-109020000D01*
X39000000Y-105600000D02*
X37250000Y-107350000D01*
X37250000Y-107350000D02*
X37250000Y-109020000D01*
X48800000Y-62400000D02*
X48800000Y-102800000D01*
X48800000Y-102800000D02*
X46000000Y-105600000D01*
X44625000Y-58225000D02*
X48800000Y-62400000D01*
X44625000Y-56890000D02*
X44625000Y-58225000D01*
X44625000Y-55640000D02*
X44625000Y-56890000D01*
%TO.N,Net-(R11-Pad2)*%
X49250000Y-105350000D02*
X49250000Y-109020000D01*
X49800000Y-59852500D02*
X49800000Y-104800000D01*
X47875000Y-56900000D02*
X47875000Y-57927500D01*
X47900000Y-56875000D02*
X47875000Y-56900000D01*
X47875000Y-57927500D02*
X49800000Y-59852500D01*
X49800000Y-104800000D02*
X49250000Y-105350000D01*
X49250000Y-116980000D02*
X49250000Y-109020000D01*
X47900000Y-55650000D02*
X47900000Y-56875000D01*
%TO.N,Net-(R12-Pad2)*%
X51125000Y-55650000D02*
X51125000Y-56900000D01*
X61250000Y-116980000D02*
X61250000Y-109020000D01*
X51200000Y-62000000D02*
X50800000Y-62400000D01*
X61250000Y-107250000D02*
X61250000Y-109020000D01*
X50800000Y-62400000D02*
X50800000Y-102800000D01*
X51200000Y-56975000D02*
X51200000Y-62000000D01*
X51125000Y-56900000D02*
X51200000Y-56975000D01*
X50800000Y-102800000D02*
X53600000Y-105600000D01*
X53600000Y-105600000D02*
X59600000Y-105600000D01*
X59600000Y-105600000D02*
X61250000Y-107250000D01*
%TO.N,Net-(R13-Pad2)*%
X54196985Y-104600000D02*
X70600000Y-104600000D01*
X51800000Y-102203015D02*
X54196985Y-104600000D01*
X54400000Y-56925000D02*
X54400000Y-60800000D01*
X54400000Y-60800000D02*
X51800000Y-63400000D01*
X54400000Y-56875000D02*
X54375000Y-56900000D01*
X70600000Y-104600000D02*
X73250000Y-107250000D01*
X51800000Y-63400000D02*
X51800000Y-102203015D01*
X54375000Y-56900000D02*
X54400000Y-56925000D01*
X73250000Y-107250000D02*
X73250000Y-109020000D01*
X54400000Y-55650000D02*
X54400000Y-56875000D01*
X73250000Y-116980000D02*
X73250000Y-109020000D01*
%TO.N,SCD30_READY*%
X62600000Y-60400000D02*
X61200000Y-60400000D01*
X61200000Y-60400000D02*
X60200000Y-59400000D01*
X60200000Y-59400000D02*
X60200000Y-53525000D01*
X60200000Y-53525000D02*
X60325000Y-53400000D01*
X60325000Y-53400000D02*
X60325000Y-50225000D01*
%TO.N,SCK*%
X24600000Y-65400000D02*
X24600000Y-63600000D01*
X22980000Y-67020000D02*
X24600000Y-65400000D01*
X24600000Y-63600000D02*
X45200000Y-43000000D01*
X52997500Y-42800000D02*
X54400000Y-42800000D01*
X45200000Y-43000000D02*
X52797500Y-43000000D01*
X22500000Y-67020000D02*
X22980000Y-67020000D01*
X52797500Y-43000000D02*
X52997500Y-42800000D01*
%TO.N,MOSI*%
X26600000Y-63200000D02*
X46000000Y-43800000D01*
X46000000Y-43800000D02*
X54400000Y-43800000D01*
%TO.N,E_INK_SELECT*%
X47147500Y-44400000D02*
X51047500Y-44400000D01*
X24400000Y-69600000D02*
X28800000Y-65200000D01*
X51147500Y-44300000D02*
X54400000Y-44300000D01*
X28800000Y-62747500D02*
X47147500Y-44400000D01*
X22540000Y-69600000D02*
X24400000Y-69600000D01*
X51047500Y-44400000D02*
X51147500Y-44300000D01*
X22500000Y-69560000D02*
X22540000Y-69600000D01*
X28800000Y-65200000D02*
X28800000Y-62747500D01*
%TO.N,E_INK_DC*%
X30200000Y-65800000D02*
X30200000Y-63300000D01*
X22500000Y-72100000D02*
X23900000Y-72100000D01*
X47400000Y-46600000D02*
X48850000Y-45150000D01*
X46900000Y-46600000D02*
X47400000Y-46600000D01*
X51997500Y-44800000D02*
X54400000Y-44800000D01*
X30200000Y-63300000D02*
X46900000Y-46600000D01*
X23900000Y-72100000D02*
X30200000Y-65800000D01*
X51647500Y-45150000D02*
X51997500Y-44800000D01*
X48850000Y-45150000D02*
X51647500Y-45150000D01*
%TO.N,E_INK_RESET*%
X54400000Y-45300000D02*
X52647500Y-45300000D01*
X49300000Y-45900000D02*
X31600000Y-63600000D01*
X23360000Y-74640000D02*
X22500000Y-74640000D01*
X52047500Y-45900000D02*
X49300000Y-45900000D01*
X31600000Y-66400000D02*
X23360000Y-74640000D01*
X31600000Y-63600000D02*
X31600000Y-66400000D01*
X52647500Y-45300000D02*
X52047500Y-45900000D01*
%TO.N,E_INK_BUSY*%
X33000000Y-67000000D02*
X33000000Y-64000000D01*
X33000000Y-64000000D02*
X50350000Y-46650000D01*
X22500000Y-77180000D02*
X22820000Y-77180000D01*
X52397500Y-46650000D02*
X53247500Y-45800000D01*
X50350000Y-46650000D02*
X52397500Y-46650000D01*
X53247500Y-45800000D02*
X54400000Y-45800000D01*
X22820000Y-77180000D02*
X33000000Y-67000000D01*
%TO.N,POWER_5V_ENABLE*%
X87800000Y-74500000D02*
X87800000Y-97000000D01*
X56300000Y-46300000D02*
X54400000Y-46300000D01*
X102400000Y-106600000D02*
X102400000Y-113440000D01*
X77000000Y-49900000D02*
X79400000Y-52300000D01*
X100800000Y-105000000D02*
X102400000Y-106600000D01*
X87800000Y-97000000D02*
X95800000Y-105000000D01*
X79400000Y-66100000D02*
X87800000Y-74500000D01*
X77000000Y-49800000D02*
X77000000Y-49900000D01*
X102400000Y-113440000D02*
X100840000Y-115000000D01*
X56950000Y-45650000D02*
X56300000Y-46300000D01*
X57200000Y-45650000D02*
X56950000Y-45650000D01*
X79400000Y-52300000D02*
X79400000Y-66100000D01*
X95800000Y-105000000D02*
X100800000Y-105000000D01*
%TO.N,WIFI_RX*%
X62400000Y-44200000D02*
X62253872Y-44200000D01*
X59653872Y-46800000D02*
X54400000Y-46800000D01*
X62253872Y-44200000D02*
X59653872Y-46800000D01*
%TO.N,WFI_TX*%
X63600000Y-43200000D02*
X63600000Y-45800000D01*
X55700000Y-47300000D02*
X54400000Y-47300000D01*
X56200000Y-47800000D02*
X55700000Y-47300000D01*
X63600000Y-45800000D02*
X61600000Y-47800000D01*
X61600000Y-47800000D02*
X56200000Y-47800000D01*
%TO.N,WIFI_RESET*%
X68311875Y-43400000D02*
X67411875Y-44300000D01*
X73200000Y-43400000D02*
X68311875Y-43400000D01*
X67411875Y-44300000D02*
X65750000Y-44300000D01*
%TO.N,WIFI_ENABLE*%
X71600000Y-44400000D02*
X69000000Y-44400000D01*
X72000000Y-44800000D02*
X71600000Y-44400000D01*
X69000000Y-44400000D02*
X68600000Y-44800000D01*
X68600000Y-44800000D02*
X65750000Y-44800000D01*
%TO.N,BATTERY_MEASURE_ENABLE*%
X54897500Y-49380001D02*
X55417499Y-49380001D01*
X58325000Y-49077500D02*
X58325000Y-50225000D01*
X56147500Y-48650000D02*
X57897500Y-48650000D01*
X55417499Y-49380001D02*
X56147500Y-48650000D01*
X57897500Y-48650000D02*
X58325000Y-49077500D01*
%TO.N,+BATT*%
X70200000Y-99800000D02*
X76400000Y-106000000D01*
X97500000Y-113400000D02*
X98300000Y-114200000D01*
X78800000Y-114800000D02*
X93600000Y-114800000D01*
X53400000Y-91800000D02*
X61400000Y-99800000D01*
X95000000Y-113400000D02*
X97500000Y-113400000D01*
X76400000Y-106000000D02*
X76400000Y-112400000D01*
X76400000Y-112400000D02*
X78800000Y-114800000D01*
X57400000Y-54000000D02*
X57400000Y-60400000D01*
X53400000Y-64400000D02*
X53400000Y-91800000D01*
X98300000Y-114200000D02*
X98300000Y-115000000D01*
X61400000Y-99800000D02*
X70200000Y-99800000D01*
X57400000Y-60400000D02*
X53400000Y-64400000D01*
X93600000Y-114800000D02*
X95000000Y-113400000D01*
%TO.N,BATTERY_MEASURE_INPUT*%
X56897500Y-40140000D02*
X57325000Y-39712500D01*
X57325000Y-39712500D02*
X57325000Y-38875000D01*
X56897500Y-41900000D02*
X56897500Y-40140000D01*
%TO.N,Net-(D1-K)*%
X104737500Y-111737500D02*
X103600000Y-110600000D01*
X82400000Y-114000000D02*
X81600000Y-113200000D01*
X89400000Y-111737500D02*
X89400000Y-114000000D01*
X93000000Y-114000000D02*
X89400000Y-114000000D01*
X81600000Y-113200000D02*
X81600000Y-111737500D01*
X89400000Y-114000000D02*
X82400000Y-114000000D01*
X105736250Y-111737500D02*
X104737500Y-111737500D01*
X96200000Y-111737500D02*
X95262500Y-111737500D01*
X79037500Y-111737500D02*
X78800000Y-111500000D01*
X95262500Y-111737500D02*
X93000000Y-114000000D01*
X81600000Y-111737500D02*
X79037500Y-111737500D01*
X103600000Y-110600000D02*
X103600000Y-106400000D01*
X101200000Y-104000000D02*
X96200000Y-104000000D01*
X97512500Y-111737500D02*
X96200000Y-111737500D01*
X103600000Y-106400000D02*
X101200000Y-104000000D01*
%TD*%
D56*
X52397500Y-50400000D03*
X67200000Y-40200000D03*
X51897500Y-42150000D03*
X45800000Y-41800000D03*
X52800000Y-57800000D03*
X50147500Y-42150000D03*
X55197500Y-37550000D03*
X46400000Y-57800000D03*
X49600000Y-57800000D03*
X64841117Y-53600000D03*
X56000000Y-57800000D03*
X56000000Y-60000000D03*
X29400000Y-95200000D03*
X109600000Y-102200000D03*
X56897500Y-33000000D03*
D57*
X72397500Y-33150000D03*
D56*
X114400000Y-62400000D03*
X90800000Y-56200000D03*
X58800000Y-35200000D03*
X109200000Y-99000000D03*
D57*
X63647500Y-31900000D03*
D56*
X27600000Y-64200000D03*
D57*
X65897500Y-26650000D03*
D56*
X57800000Y-40350000D03*
D57*
X72397500Y-35400000D03*
X57897500Y-26650000D03*
D56*
X63800000Y-71800000D03*
D57*
X46600000Y-64200000D03*
D56*
X63000000Y-84000000D03*
D57*
X63147500Y-34400000D03*
D56*
X63000000Y-76800000D03*
X72400000Y-66000000D03*
D57*
X47800000Y-67600000D03*
X71397500Y-34650000D03*
D56*
X102800000Y-58800000D03*
X67000000Y-73800000D03*
X68400000Y-75800000D03*
D57*
X66897500Y-38150000D03*
D56*
X110000000Y-94500000D03*
X49000000Y-39350000D03*
X62600000Y-45200000D03*
X34400000Y-31000000D03*
D57*
X65897500Y-31650000D03*
X61147500Y-26062500D03*
X60147500Y-24400000D03*
D56*
X51397500Y-47900000D03*
X78800000Y-108800000D03*
D57*
X71397500Y-36650000D03*
D56*
X48000000Y-53400000D03*
D57*
X60397500Y-36400000D03*
D56*
X38150000Y-44400000D03*
X28200000Y-91200000D03*
X67800000Y-80800000D03*
X58800000Y-36200000D03*
X62400000Y-56400000D03*
X94600000Y-43000000D03*
X61800000Y-59400000D03*
X94000000Y-59200000D03*
D57*
X62717000Y-28062500D03*
X69647500Y-38150000D03*
X59397500Y-34400000D03*
D56*
X55600000Y-109000000D03*
D57*
X72397500Y-38150000D03*
X57897500Y-28900000D03*
D56*
X55897500Y-43150000D03*
X68750000Y-118250000D03*
X67600000Y-109000000D03*
X67400000Y-42200000D03*
X32650000Y-44400000D03*
X64000000Y-87400000D03*
X40400000Y-29350000D03*
D57*
X65897500Y-28900000D03*
D56*
X89800000Y-33400000D03*
D57*
X57897500Y-24400000D03*
X63897500Y-30062500D03*
D56*
X56750000Y-118250000D03*
D57*
X60397500Y-30062500D03*
X64147500Y-34400000D03*
D56*
X32750000Y-118250000D03*
X53775000Y-54000000D03*
X75965000Y-88525000D03*
D57*
X66897500Y-33150000D03*
D56*
X44750000Y-118250000D03*
X64800000Y-68400000D03*
X45000000Y-53400000D03*
X47400000Y-45400000D03*
D57*
X64897500Y-37650000D03*
D56*
X51200000Y-53400000D03*
X52800000Y-39800000D03*
D57*
X57897500Y-31150000D03*
D56*
X23550000Y-92000000D03*
X44750000Y-107750000D03*
X66800000Y-83500000D03*
X32750000Y-107750000D03*
X63200000Y-42200000D03*
X35887500Y-31337500D03*
D57*
X62647500Y-36150000D03*
D56*
X58969500Y-83400000D03*
X67600000Y-71000000D03*
D57*
X69647500Y-33150000D03*
D56*
X63395217Y-53600000D03*
X44400000Y-39400000D03*
X30200000Y-51400000D03*
X59147500Y-37400000D03*
X58400000Y-81600000D03*
X58200000Y-88000000D03*
X58400000Y-42000000D03*
D57*
X73600000Y-50400000D03*
X74622222Y-50177778D03*
D56*
X59400000Y-42600000D03*
D57*
X75800000Y-49900000D03*
D56*
X60400000Y-42000000D03*
D57*
X76400000Y-48800000D03*
D56*
X61400000Y-41400000D03*
X104250000Y-60250000D03*
X42200000Y-76800000D03*
X39000000Y-36200000D03*
X47200000Y-97600000D03*
X68200000Y-71800000D03*
X63000000Y-78000000D03*
X67800000Y-75000000D03*
X67000000Y-80200000D03*
X67400000Y-82400000D03*
X67975000Y-73375000D03*
X61800000Y-84600000D03*
X63400000Y-86502817D03*
X65000000Y-67000000D03*
X68600000Y-83600000D03*
X64600000Y-71000000D03*
X65600000Y-69200000D03*
X72000000Y-65000000D03*
X61800000Y-57200000D03*
X91400000Y-57170000D03*
D57*
X47400000Y-64600000D03*
D56*
X93000000Y-58600000D03*
X102500000Y-57750000D03*
D57*
X47400000Y-66800000D03*
D56*
X62600000Y-58600000D03*
X60400000Y-72200000D03*
X57200000Y-72600000D03*
X62600000Y-60400000D03*
X26600000Y-63200000D03*
D57*
X77000000Y-49800000D03*
D56*
X57200000Y-45650000D03*
X62400000Y-44200000D03*
X63600000Y-43200000D03*
X73200000Y-43400000D03*
X72000000Y-44800000D03*
X54897500Y-49380001D03*
X57400000Y-54000000D03*
X56897500Y-41900000D03*
X96200000Y-104000000D03*
X96200000Y-111737500D03*
X95725000Y-89175000D03*
X98265000Y-89175000D03*
X68800000Y-91460000D03*
X68800000Y-94000000D03*
X84000000Y-112275000D03*
X84000000Y-109735000D03*
X22200000Y-100700000D03*
X24165000Y-55800000D03*
X24165000Y-48790000D03*
X21675000Y-54550000D03*
X21675000Y-50050000D03*
X118000000Y-116000000D03*
X118000000Y-24000000D03*
X91800000Y-112200000D03*
X91800000Y-109660000D03*
X22200000Y-81500000D03*
X22500000Y-77180000D03*
X22500000Y-74640000D03*
X22500000Y-72100000D03*
X22500000Y-69560000D03*
X22500000Y-67020000D03*
X22500000Y-64480000D03*
X22500000Y-61940000D03*
X22500000Y-59400000D03*
X119500000Y-104540000D03*
X119500000Y-32040000D03*
X22500000Y-104540000D03*
X22500000Y-32040000D03*
X94400000Y-49400000D03*
X91860000Y-49400000D03*
X99912500Y-112200000D03*
X99912500Y-109660000D03*
X24000000Y-24000000D03*
X24000000Y-116000000D03*
X108136250Y-112275000D03*
X108136250Y-109735000D03*
X102550000Y-49650000D03*
X118750000Y-81650000D03*
X98650000Y-49550000D03*
X98650000Y-52090000D03*
X98650000Y-54630000D03*
X98650000Y-57170000D03*
X98650000Y-59710000D03*
X98650000Y-62250000D03*
X98650000Y-64790000D03*
X112012500Y-101012500D03*
X112012500Y-90412500D03*
X104052500Y-89242500D03*
X104052500Y-91782500D03*
X104052500Y-94322500D03*
X104052500Y-96862500D03*
X104052500Y-99402500D03*
X104052500Y-101942500D03*
X111000000Y-115000000D03*
X111000000Y-117540000D03*
X108460000Y-115000000D03*
X108460000Y-117540000D03*
X105920000Y-115000000D03*
X105920000Y-117540000D03*
X103380000Y-115000000D03*
X103380000Y-117540000D03*
X100840000Y-115000000D03*
X100840000Y-117540000D03*
X98300000Y-115000000D03*
X98300000Y-117540000D03*
X95760000Y-115000000D03*
X95760000Y-117540000D03*
M02*
