M48
; DRILL file {KiCad 7.0.9} date Mon Jul 22 22:58:03 2024
; FORMAT={-:-/ absolute / metric / decimal}
; #@! TF.CreationDate,2024-07-22T22:58:03+02:00
; #@! TF.GenerationSoftware,Kicad,Pcbnew,7.0.9
; #@! TF.FileFunction,Plated,1,4,PTH
FMAT,2
METRIC
; #@! TA.AperFunction,Plated,PTH,ViaDrill
T1C0.400
; #@! TA.AperFunction,Plated,PTH,ViaDrill
T2C0.500
; #@! TA.AperFunction,Plated,PTH,ComponentDrill
T3C0.600
; #@! TA.AperFunction,Plated,PTH,ComponentDrill
T4C0.700
; #@! TA.AperFunction,Plated,PTH,ComponentDrill
T5C0.900
; #@! TA.AperFunction,Plated,PTH,ComponentDrill
T6C1.000
%
G90
G05
T1
X20.889Y-60.262
X20.889Y-62.262
X24.905Y-60.512
X24.905Y-62.012
X25.4Y-69.183
X26.6Y-70.0
X27.705Y-58.412
X27.705Y-64.013
X29.062Y-110.15
X29.062Y-113.55
X29.105Y-54.837
X29.8Y-106.35
X34.6Y-111.55
X34.6Y-112.55
X37.0Y-114.8
X38.0Y-54.0
X39.0Y-55.0
X42.8Y-107.15
X43.2Y-61.4
X43.2Y-81.2
X54.5Y-38.0
X55.224Y-36.675
X55.6Y-103.25
X56.4Y-58.6
X57.2Y-68.8
X58.35Y-104.5
X59.6Y-35.4
X61.4Y-57.6
X62.8Y-71.5
X62.8Y-73.3
X62.8Y-75.1
X62.8Y-76.9
X65.6Y-60.2
X67.4Y-105.8
X71.0Y-89.4
X71.0Y-103.8
X80.779Y-35.142
X90.2Y-103.8
X97.2Y-101.0
X97.4Y-91.2
T2
X25.355Y-76.462
X31.4Y-88.8
X41.45Y-61.4
X41.538Y-81.2
X49.0Y-61.4
X49.075Y-81.2
X49.475Y-104.9
X52.9Y-29.25
X53.6Y-73.3
X53.65Y-67.9
X53.65Y-69.7
X53.65Y-71.5
X58.2Y-61.2
X58.6Y-102.25
X60.1Y-104.125
X61.725Y-104.125
X63.3Y-59.55
X63.55Y-70.3
X63.975Y-104.125
X69.112Y-103.7
X69.25Y-88.95
X76.8Y-89.0
X76.8Y-103.7
X79.127Y-90.3
X79.278Y-105.0
X82.138Y-35.394
X83.787Y-66.2
X83.787Y-68.45
X83.787Y-71.376
X83.787Y-74.2
X83.787Y-76.45
X83.828Y-82.8
X83.828Y-92.3
X84.027Y-97.5
X84.2Y-39.8
X85.138Y-35.2
X87.0Y-104.4
X87.138Y-35.2
X88.037Y-69.95
X88.287Y-72.2
X88.627Y-90.3
X119.0Y-88.75
X119.0Y-92.75
X119.0Y-96.75
X119.0Y-100.75
T3
X21.918Y-44.322
X21.918Y-49.402
X26.997Y-44.322
X26.997Y-46.862
X26.997Y-49.402
T4
X50.6Y-88.4
X50.6Y-88.4
X59.6Y-93.2
X64.4Y-98.0
X69.4Y-75.0
X69.8Y-58.6
X69.8Y-63.2
X72.2Y-78.2
X73.4Y-61.2
X74.8Y-75.6
X74.8Y-83.2
X74.8Y-92.0
X74.8Y-97.2
X74.8Y-106.0
X89.6Y-97.2
X91.2Y-83.4
X99.4Y-89.8
X100.0Y-101.4
X109.75Y-88.75
X109.75Y-92.75
X109.75Y-96.75
X109.75Y-100.75
T5
X23.102Y-86.55
X23.102Y-89.09
X23.102Y-96.587
X23.102Y-99.127
T6
X31.46Y-22.8
X34.0Y-22.8
X95.76Y-115.0
X95.76Y-117.54
X98.3Y-115.0
X98.3Y-117.54
X98.4Y-83.4
X98.4Y-85.94
X98.4Y-106.2
X98.4Y-108.74
X100.84Y-115.0
X100.84Y-117.54
X103.38Y-115.0
X103.38Y-117.54
X105.92Y-115.0
X105.92Y-117.54
X108.46Y-115.0
X108.46Y-117.54
X111.0Y-115.0
X111.0Y-117.54
T0
M30
