%TF.GenerationSoftware,KiCad,Pcbnew,7.0.9*%
%TF.CreationDate,2024-06-04T23:40:40+02:00*%
%TF.ProjectId,EnvSensor-Power-v2.1,456e7653-656e-4736-9f72-2d506f776572,rev?*%
%TF.SameCoordinates,Original*%
%TF.FileFunction,Copper,L4,Bot*%
%TF.FilePolarity,Positive*%
%FSLAX46Y46*%
G04 Gerber Fmt 4.6, Leading zero omitted, Abs format (unit mm)*
G04 Created by KiCad (PCBNEW 7.0.9) date 2024-06-04 23:40:40*
%MOMM*%
%LPD*%
G01*
G04 APERTURE LIST*
G04 Aperture macros list*
%AMRoundRect*
0 Rectangle with rounded corners*
0 $1 Rounding radius*
0 $2 $3 $4 $5 $6 $7 $8 $9 X,Y pos of 4 corners*
0 Add a 4 corners polygon primitive as box body*
4,1,4,$2,$3,$4,$5,$6,$7,$8,$9,$2,$3,0*
0 Add four circle primitives for the rounded corners*
1,1,$1+$1,$2,$3*
1,1,$1+$1,$4,$5*
1,1,$1+$1,$6,$7*
1,1,$1+$1,$8,$9*
0 Add four rect primitives between the rounded corners*
20,1,$1+$1,$2,$3,$4,$5,0*
20,1,$1+$1,$4,$5,$6,$7,0*
20,1,$1+$1,$6,$7,$8,$9,0*
20,1,$1+$1,$8,$9,$2,$3,0*%
%AMFreePoly0*
4,1,19,0.500000,-0.750000,0.000000,-0.750000,0.000000,-0.744911,-0.071157,-0.744911,-0.207708,-0.704816,-0.327430,-0.627875,-0.420627,-0.520320,-0.479746,-0.390866,-0.500000,-0.250000,-0.500000,0.250000,-0.479746,0.390866,-0.420627,0.520320,-0.327430,0.627875,-0.207708,0.704816,-0.071157,0.744911,0.000000,0.744911,0.000000,0.750000,0.500000,0.750000,0.500000,-0.750000,0.500000,-0.750000,
$1*%
%AMFreePoly1*
4,1,19,0.000000,0.744911,0.071157,0.744911,0.207708,0.704816,0.327430,0.627875,0.420627,0.520320,0.479746,0.390866,0.500000,0.250000,0.500000,-0.250000,0.479746,-0.390866,0.420627,-0.520320,0.327430,-0.627875,0.207708,-0.704816,0.071157,-0.744911,0.000000,-0.744911,0.000000,-0.750000,-0.500000,-0.750000,-0.500000,0.750000,0.000000,0.750000,0.000000,0.744911,0.000000,0.744911,
$1*%
G04 Aperture macros list end*
%TA.AperFunction,ComponentPad*%
%ADD10R,1.700000X1.700000*%
%TD*%
%TA.AperFunction,ComponentPad*%
%ADD11O,1.700000X1.700000*%
%TD*%
%TA.AperFunction,ComponentPad*%
%ADD12C,1.200000*%
%TD*%
%TA.AperFunction,ComponentPad*%
%ADD13R,1.200000X1.200000*%
%TD*%
%TA.AperFunction,ComponentPad*%
%ADD14R,1.800000X1.800000*%
%TD*%
%TA.AperFunction,ComponentPad*%
%ADD15C,1.800000*%
%TD*%
%TA.AperFunction,SMDPad,CuDef*%
%ADD16RoundRect,0.243750X-0.243750X-0.456250X0.243750X-0.456250X0.243750X0.456250X-0.243750X0.456250X0*%
%TD*%
%TA.AperFunction,SMDPad,CuDef*%
%ADD17RoundRect,0.250000X-0.475000X0.250000X-0.475000X-0.250000X0.475000X-0.250000X0.475000X0.250000X0*%
%TD*%
%TA.AperFunction,SMDPad,CuDef*%
%ADD18RoundRect,0.250000X0.262500X0.450000X-0.262500X0.450000X-0.262500X-0.450000X0.262500X-0.450000X0*%
%TD*%
%TA.AperFunction,SMDPad,CuDef*%
%ADD19RoundRect,0.100000X-0.712500X-0.100000X0.712500X-0.100000X0.712500X0.100000X-0.712500X0.100000X0*%
%TD*%
%TA.AperFunction,SMDPad,CuDef*%
%ADD20RoundRect,0.250000X-0.250000X-0.475000X0.250000X-0.475000X0.250000X0.475000X-0.250000X0.475000X0*%
%TD*%
%TA.AperFunction,SMDPad,CuDef*%
%ADD21RoundRect,0.250000X0.450000X-0.262500X0.450000X0.262500X-0.450000X0.262500X-0.450000X-0.262500X0*%
%TD*%
%TA.AperFunction,SMDPad,CuDef*%
%ADD22FreePoly0,270.000000*%
%TD*%
%TA.AperFunction,SMDPad,CuDef*%
%ADD23FreePoly1,270.000000*%
%TD*%
%TA.AperFunction,SMDPad,CuDef*%
%ADD24RoundRect,0.250000X0.475000X-0.250000X0.475000X0.250000X-0.475000X0.250000X-0.475000X-0.250000X0*%
%TD*%
%TA.AperFunction,SMDPad,CuDef*%
%ADD25RoundRect,0.250000X-0.362500X-1.425000X0.362500X-1.425000X0.362500X1.425000X-0.362500X1.425000X0*%
%TD*%
%TA.AperFunction,ComponentPad*%
%ADD26C,1.500000*%
%TD*%
%TA.AperFunction,SMDPad,CuDef*%
%ADD27FreePoly0,0.000000*%
%TD*%
%TA.AperFunction,SMDPad,CuDef*%
%ADD28FreePoly1,0.000000*%
%TD*%
%TA.AperFunction,SMDPad,CuDef*%
%ADD29RoundRect,0.250000X-0.312500X-0.625000X0.312500X-0.625000X0.312500X0.625000X-0.312500X0.625000X0*%
%TD*%
%TA.AperFunction,SMDPad,CuDef*%
%ADD30RoundRect,0.250000X-0.262500X-0.450000X0.262500X-0.450000X0.262500X0.450000X-0.262500X0.450000X0*%
%TD*%
%TA.AperFunction,SMDPad,CuDef*%
%ADD31RoundRect,0.218750X-0.218750X-0.381250X0.218750X-0.381250X0.218750X0.381250X-0.218750X0.381250X0*%
%TD*%
%TA.AperFunction,SMDPad,CuDef*%
%ADD32RoundRect,0.243750X-0.456250X0.243750X-0.456250X-0.243750X0.456250X-0.243750X0.456250X0.243750X0*%
%TD*%
%TA.AperFunction,SMDPad,CuDef*%
%ADD33RoundRect,0.250000X0.250000X0.475000X-0.250000X0.475000X-0.250000X-0.475000X0.250000X-0.475000X0*%
%TD*%
%TA.AperFunction,SMDPad,CuDef*%
%ADD34R,1.400000X0.300000*%
%TD*%
%TA.AperFunction,SMDPad,CuDef*%
%ADD35R,1.000000X1.000000*%
%TD*%
%TA.AperFunction,SMDPad,CuDef*%
%ADD36RoundRect,0.150000X0.512500X0.150000X-0.512500X0.150000X-0.512500X-0.150000X0.512500X-0.150000X0*%
%TD*%
%TA.AperFunction,SMDPad,CuDef*%
%ADD37R,1.200000X0.900000*%
%TD*%
%TA.AperFunction,SMDPad,CuDef*%
%ADD38RoundRect,0.250000X-0.650000X0.325000X-0.650000X-0.325000X0.650000X-0.325000X0.650000X0.325000X0*%
%TD*%
%TA.AperFunction,SMDPad,CuDef*%
%ADD39RoundRect,0.200000X-0.275000X0.200000X-0.275000X-0.200000X0.275000X-0.200000X0.275000X0.200000X0*%
%TD*%
%TA.AperFunction,SMDPad,CuDef*%
%ADD40FreePoly0,90.000000*%
%TD*%
%TA.AperFunction,SMDPad,CuDef*%
%ADD41FreePoly1,90.000000*%
%TD*%
%TA.AperFunction,SMDPad,CuDef*%
%ADD42RoundRect,0.250000X-0.325000X-0.650000X0.325000X-0.650000X0.325000X0.650000X-0.325000X0.650000X0*%
%TD*%
%TA.AperFunction,SMDPad,CuDef*%
%ADD43R,8.200000X2.600000*%
%TD*%
%TA.AperFunction,SMDPad,CuDef*%
%ADD44R,1.500000X2.000000*%
%TD*%
%TA.AperFunction,SMDPad,CuDef*%
%ADD45R,3.800000X2.000000*%
%TD*%
%TA.AperFunction,SMDPad,CuDef*%
%ADD46R,0.670000X0.300000*%
%TD*%
%TA.AperFunction,SMDPad,CuDef*%
%ADD47RoundRect,0.250000X-0.450000X0.262500X-0.450000X-0.262500X0.450000X-0.262500X0.450000X0.262500X0*%
%TD*%
%TA.AperFunction,SMDPad,CuDef*%
%ADD48R,1.200000X2.200000*%
%TD*%
%TA.AperFunction,SMDPad,CuDef*%
%ADD49R,5.800000X6.400000*%
%TD*%
%TA.AperFunction,SMDPad,CuDef*%
%ADD50R,2.600000X8.200000*%
%TD*%
%TA.AperFunction,SMDPad,CuDef*%
%ADD51FreePoly0,180.000000*%
%TD*%
%TA.AperFunction,SMDPad,CuDef*%
%ADD52FreePoly1,180.000000*%
%TD*%
%TA.AperFunction,SMDPad,CuDef*%
%ADD53RoundRect,0.225000X0.225000X0.250000X-0.225000X0.250000X-0.225000X-0.250000X0.225000X-0.250000X0*%
%TD*%
%TA.AperFunction,SMDPad,CuDef*%
%ADD54RoundRect,0.218750X-0.381250X0.218750X-0.381250X-0.218750X0.381250X-0.218750X0.381250X0.218750X0*%
%TD*%
%TA.AperFunction,SMDPad,CuDef*%
%ADD55R,0.900000X1.200000*%
%TD*%
%TA.AperFunction,SMDPad,CuDef*%
%ADD56RoundRect,0.100000X-0.100000X0.712500X-0.100000X-0.712500X0.100000X-0.712500X0.100000X0.712500X0*%
%TD*%
%TA.AperFunction,SMDPad,CuDef*%
%ADD57R,1.500000X1.500000*%
%TD*%
%TA.AperFunction,SMDPad,CuDef*%
%ADD58RoundRect,0.225000X-0.250000X0.225000X-0.250000X-0.225000X0.250000X-0.225000X0.250000X0.225000X0*%
%TD*%
%TA.AperFunction,SMDPad,CuDef*%
%ADD59RoundRect,0.150000X-0.512500X-0.150000X0.512500X-0.150000X0.512500X0.150000X-0.512500X0.150000X0*%
%TD*%
%TA.AperFunction,SMDPad,CuDef*%
%ADD60RoundRect,0.200000X0.275000X-0.200000X0.275000X0.200000X-0.275000X0.200000X-0.275000X-0.200000X0*%
%TD*%
%TA.AperFunction,ViaPad*%
%ADD61C,0.800000*%
%TD*%
%TA.AperFunction,ViaPad*%
%ADD62C,1.000000*%
%TD*%
%TA.AperFunction,Conductor*%
%ADD63C,1.200000*%
%TD*%
%TA.AperFunction,Conductor*%
%ADD64C,0.600000*%
%TD*%
%TA.AperFunction,Conductor*%
%ADD65C,0.250000*%
%TD*%
%TA.AperFunction,Conductor*%
%ADD66C,0.400000*%
%TD*%
%TA.AperFunction,Conductor*%
%ADD67C,0.300000*%
%TD*%
%ADD68C,0.350000*%
G04 APERTURE END LIST*
%TA.AperFunction,EtchedComponent*%
%TO.C,JP2*%
G36*
X59737500Y-59400000D02*
G01*
X59137500Y-59400000D01*
X59137500Y-58900000D01*
X59737500Y-58900000D01*
X59737500Y-59400000D01*
G37*
%TD.AperFunction*%
%TA.AperFunction,EtchedComponent*%
%TO.C,JP5*%
G36*
X86537500Y-67750000D02*
G01*
X86037500Y-67750000D01*
X86037500Y-67150000D01*
X86537500Y-67150000D01*
X86537500Y-67750000D01*
G37*
%TD.AperFunction*%
%TD*%
D10*
%TO.P,J6,1,Pin_1*%
%TO.N,+3V3*%
X111000000Y-115000000D03*
D11*
%TO.P,J6,2,Pin_2*%
%TO.N,GND*%
X111000000Y-117540000D03*
%TO.P,J6,3,Pin_3*%
%TO.N,+3V3*%
X108460000Y-115000000D03*
%TO.P,J6,4,Pin_4*%
%TO.N,GND*%
X108460000Y-117540000D03*
%TO.P,J6,5,Pin_5*%
%TO.N,+5V*%
X105920000Y-115000000D03*
%TO.P,J6,6,Pin_6*%
%TO.N,GND*%
X105920000Y-117540000D03*
%TO.P,J6,7,Pin_7*%
%TO.N,+5V*%
X103380000Y-115000000D03*
%TO.P,J6,8,Pin_8*%
%TO.N,GND*%
X103380000Y-117540000D03*
%TO.P,J6,9,Pin_9*%
%TO.N,POWER_5V_ENABLE*%
X100840000Y-115000000D03*
%TO.P,J6,10,Pin_10*%
%TO.N,GND*%
X100840000Y-117540000D03*
%TO.P,J6,11,Pin_11*%
%TO.N,+BATT*%
X98300000Y-115000000D03*
%TO.P,J6,12,Pin_12*%
%TO.N,GND*%
X98300000Y-117540000D03*
%TO.P,J6,13,Pin_13*%
%TO.N,VBUS*%
X95760000Y-115000000D03*
%TO.P,J6,14,Pin_14*%
%TO.N,GND*%
X95760000Y-117540000D03*
%TD*%
D12*
%TO.P,SW1,*%
%TO.N,*%
X21917500Y-44322500D03*
X21917500Y-49402500D03*
D13*
%TO.P,SW1,1,A*%
%TO.N,/BATT_SW*%
X26997500Y-44322500D03*
D12*
%TO.P,SW1,2,B*%
%TO.N,+BATT*%
X26997500Y-46862500D03*
%TO.P,SW1,3,C*%
%TO.N,unconnected-(SW1-C-Pad3)*%
X26997500Y-49402500D03*
%TD*%
D14*
%TO.P,D7,1,K*%
%TO.N,Net-(D6-K)*%
X23102500Y-96587500D03*
D15*
%TO.P,D7,2,A*%
%TO.N,VBUS*%
X23102500Y-99127500D03*
%TD*%
D14*
%TO.P,D5,1,K*%
%TO.N,Net-(D4-K)*%
X23102500Y-86550000D03*
D15*
%TO.P,D5,2,A*%
%TO.N,VBUS*%
X23102500Y-89090000D03*
%TD*%
D16*
%TO.P,D8,1,K*%
%TO.N,Net-(D8-K)*%
X94550000Y-89200000D03*
%TO.P,D8,2,A*%
%TO.N,+3V3*%
X96425000Y-89200000D03*
%TD*%
D17*
%TO.P,C41,1*%
%TO.N,/5V_IN*%
X50725000Y-100800000D03*
%TO.P,C41,2*%
%TO.N,GND*%
X50725000Y-102700000D03*
%TD*%
D18*
%TO.P,R9,1*%
%TO.N,/PROT_VM*%
X32575000Y-106350000D03*
%TO.P,R9,2*%
%TO.N,GND*%
X30750000Y-106350000D03*
%TD*%
D17*
%TO.P,C40,1*%
%TO.N,/5V_IN*%
X48800000Y-100800000D03*
%TO.P,C40,2*%
%TO.N,GND*%
X48800000Y-102700000D03*
%TD*%
D10*
%TO.P,J3,1,Pin_1*%
%TO.N,/BATT_SW*%
X31460000Y-22800000D03*
D11*
%TO.P,J3,2,Pin_2*%
%TO.N,/BATT_BARE*%
X34000000Y-22800000D03*
%TD*%
D17*
%TO.P,C33,1*%
%TO.N,/5V5_NOT_REG*%
X65550000Y-100750000D03*
%TO.P,C33,2*%
%TO.N,GND*%
X65550000Y-102650000D03*
%TD*%
D19*
%TO.P,U7,1,SENSE*%
%TO.N,/I_CHRG_SENSE*%
X52537500Y-33875000D03*
%TO.P,U7,2,ACPR*%
%TO.N,/CHRG_ACPR*%
X52537500Y-33225000D03*
%TO.P,U7,3,VIN*%
%TO.N,VBUS*%
X52537500Y-32575000D03*
%TO.P,U7,4,GND*%
%TO.N,GND*%
X52537500Y-31925000D03*
%TO.P,U7,5,TIMER*%
%TO.N,/I_CHRG_TIMER*%
X56762500Y-31925000D03*
%TO.P,U7,6,CHRG*%
%TO.N,/CHRG_CHRG*%
X56762500Y-32575000D03*
%TO.P,U7,7,GATE*%
%TO.N,/I_CHRG_GATE*%
X56762500Y-33225000D03*
%TO.P,U7,8,BAT*%
%TO.N,+BATT*%
X56762500Y-33875000D03*
%TD*%
D17*
%TO.P,C31,1*%
%TO.N,/5V5_NOT_REG*%
X61550000Y-100750000D03*
%TO.P,C31,2*%
%TO.N,GND*%
X61550000Y-102650000D03*
%TD*%
D20*
%TO.P,C4,1*%
%TO.N,/3V7_NOT_REG*%
X59850000Y-75100000D03*
%TO.P,C4,2*%
%TO.N,GND*%
X61750000Y-75100000D03*
%TD*%
D21*
%TO.P,R11,1*%
%TO.N,/3V3_LTC_FB*%
X60800000Y-65600000D03*
%TO.P,R11,2*%
%TO.N,Net-(R11-Pad2)*%
X60800000Y-63775000D03*
%TD*%
%TO.P,R28,1*%
%TO.N,/5V5_NOT_REG*%
X54725000Y-106312500D03*
%TO.P,R28,2*%
%TO.N,/5V_FB*%
X54725000Y-104487500D03*
%TD*%
D22*
%TO.P,JP9,1,1*%
%TO.N,/5V_REG*%
X96400000Y-106640000D03*
D23*
%TO.P,JP9,2,2*%
%TO.N,+5V*%
X96400000Y-107940000D03*
%TD*%
D24*
%TO.P,C29,1*%
%TO.N,/5V5_NOT_REG*%
X56725000Y-106350000D03*
%TO.P,C29,2*%
%TO.N,/5V_FB*%
X56725000Y-104450000D03*
%TD*%
D25*
%TO.P,R5,1*%
%TO.N,/T25*%
X112000000Y-92750000D03*
%TO.P,R5,2*%
%TO.N,GND*%
X117925000Y-92750000D03*
%TD*%
D26*
%TO.P,TS2,1,1*%
%TO.N,/3V3_LTC_SW2*%
X69400000Y-75000000D03*
%TD*%
D22*
%TO.P,JP4,1,1*%
%TO.N,/3V3_REG*%
X96375000Y-84015000D03*
D23*
%TO.P,JP4,2,2*%
%TO.N,+3V3*%
X96375000Y-85315000D03*
%TD*%
D18*
%TO.P,R1,1*%
%TO.N,Net-(J2-CC2)*%
X23817964Y-62362500D03*
%TO.P,R1,2*%
%TO.N,GND*%
X21992964Y-62362500D03*
%TD*%
D27*
%TO.P,JP6,1,1*%
%TO.N,/3V3_TSP_MODE*%
X85637500Y-69950000D03*
D28*
%TO.P,JP6,2,2*%
%TO.N,GND*%
X86937500Y-69950000D03*
%TD*%
D20*
%TO.P,C2,1*%
%TO.N,/3V7_NOT_REG*%
X59850000Y-71500000D03*
%TO.P,C2,2*%
%TO.N,GND*%
X61750000Y-71500000D03*
%TD*%
D29*
%TO.P,R15,1*%
%TO.N,/L_CHRG_SENSE*%
X80675000Y-29893750D03*
%TO.P,R15,2*%
%TO.N,VBUS*%
X83600000Y-29893750D03*
%TD*%
%TO.P,R22,1*%
%TO.N,VBUS*%
X50212500Y-38175000D03*
%TO.P,R22,2*%
%TO.N,/I_CHRG_SENSE*%
X53137500Y-38175000D03*
%TD*%
D25*
%TO.P,R6,1*%
%TO.N,/T12.5*%
X112000000Y-88750000D03*
%TO.P,R6,2*%
%TO.N,GND*%
X117925000Y-88750000D03*
%TD*%
D17*
%TO.P,C17,1*%
%TO.N,+BATT*%
X42250000Y-58450000D03*
%TO.P,C17,2*%
%TO.N,GND*%
X42250000Y-60350000D03*
%TD*%
D30*
%TO.P,R17,1*%
%TO.N,/3V3_TSP_FB*%
X85375000Y-74200000D03*
%TO.P,R17,2*%
%TO.N,Net-(R16-Pad1)*%
X87200000Y-74200000D03*
%TD*%
D31*
%TO.P,L6,1*%
%TO.N,/5V5_NOT_REG*%
X71587500Y-100700000D03*
%TO.P,L6,2*%
%TO.N,/5V5_FILTERED*%
X73712500Y-100700000D03*
%TD*%
D26*
%TO.P,TS6,1,1*%
%TO.N,/5V_SW*%
X59600000Y-93200000D03*
%TD*%
D32*
%TO.P,D4,1,K*%
%TO.N,Net-(D4-K)*%
X25250000Y-86862500D03*
%TO.P,D4,2,A*%
%TO.N,VBUS*%
X25250000Y-88737500D03*
%TD*%
D26*
%TO.P,TS5,1,1*%
%TO.N,/3V3_FILTER*%
X77200000Y-83400000D03*
%TD*%
D33*
%TO.P,C7,1*%
%TO.N,/BATT_3V3_FILTER*%
X56550000Y-73300000D03*
%TO.P,C7,2*%
%TO.N,GND*%
X54650000Y-73300000D03*
%TD*%
D31*
%TO.P,L3,1*%
%TO.N,+BATT*%
X43937500Y-58400000D03*
%TO.P,L3,2*%
%TO.N,/BATT_3V3_FILTER*%
X46062500Y-58400000D03*
%TD*%
D17*
%TO.P,C12,1*%
%TO.N,Net-(C11-Pad1)*%
X53200000Y-63737500D03*
%TO.P,C12,2*%
%TO.N,/3V3_LTC_VC*%
X53200000Y-65637500D03*
%TD*%
D33*
%TO.P,C8,1*%
%TO.N,/BATT_3V3_FILTER*%
X56550000Y-71500000D03*
%TO.P,C8,2*%
%TO.N,GND*%
X54650000Y-71500000D03*
%TD*%
D26*
%TO.P,TS4,1,1*%
%TO.N,/BATT_3V3_FILTER*%
X69800000Y-58600000D03*
%TD*%
%TO.P,TS9,1,1*%
%TO.N,/5V_IN*%
X50600000Y-88400000D03*
%TD*%
D34*
%TO.P,U1,1,Rt*%
%TO.N,/3V3_LTC_Rt*%
X63000000Y-67550000D03*
%TO.P,U1,2,MODE/SYNC*%
%TO.N,/3V3_LTC_MODE*%
X63000000Y-68050000D03*
%TO.P,U1,3,SW1*%
%TO.N,/3V3_LTC_SW1*%
X63000000Y-68550000D03*
%TO.P,U1,4,SW2*%
%TO.N,/3V3_LTC_SW2*%
X63000000Y-69050000D03*
%TO.P,U1,5,GND*%
%TO.N,GND*%
X63000000Y-69550000D03*
%TO.P,U1,6,Vout*%
%TO.N,/3V7_NOT_REG*%
X58600000Y-69550000D03*
%TO.P,U1,7,Vin*%
%TO.N,/BATT_3V3_FILTER*%
X58600000Y-69050000D03*
%TO.P,U1,8,SHND/SS*%
X58600000Y-68550000D03*
%TO.P,U1,9,FB*%
%TO.N,/3V3_LTC_FB*%
X58600000Y-68050000D03*
%TO.P,U1,10,Vc*%
%TO.N,/3V3_LTC_VC*%
X58600000Y-67550000D03*
%TD*%
D26*
%TO.P,TP6,1,1*%
%TO.N,/T12.5*%
X109750000Y-88750000D03*
%TD*%
D32*
%TO.P,D6,1,K*%
%TO.N,Net-(D6-K)*%
X25250000Y-97000000D03*
%TO.P,D6,2,A*%
%TO.N,VBUS*%
X25250000Y-98875000D03*
%TD*%
D18*
%TO.P,R26,1*%
%TO.N,GND*%
X96400000Y-91200000D03*
%TO.P,R26,2*%
%TO.N,Net-(D8-K)*%
X94575000Y-91200000D03*
%TD*%
D35*
%TO.P,D2,1,K*%
%TO.N,/3V3_LTC_SW1*%
X65600000Y-63650000D03*
%TO.P,D2,2,A*%
%TO.N,GND*%
X65600000Y-61150000D03*
%TD*%
D36*
%TO.P,Q1,1,S2*%
%TO.N,GND*%
X32800000Y-111600000D03*
%TO.P,Q1,2,D2*%
%TO.N,/PROT_DRAIN*%
X32800000Y-112550000D03*
%TO.P,Q1,3,S2*%
%TO.N,-BATT*%
X32800000Y-113500000D03*
%TO.P,Q1,4,G2*%
%TO.N,/PROT_DO*%
X30525000Y-113500000D03*
%TO.P,Q1,5,D2*%
%TO.N,/PROT_DRAIN*%
X30525000Y-112550000D03*
%TO.P,Q1,6,G2*%
%TO.N,/PROT_CO*%
X30525000Y-111600000D03*
%TD*%
D37*
%TO.P,D3,1,K*%
%TO.N,/3V7_NOT_REG*%
X65600000Y-77450000D03*
%TO.P,D3,2,A*%
%TO.N,/3V3_LTC_SW2*%
X65600000Y-74150000D03*
%TD*%
D17*
%TO.P,C35,1*%
%TO.N,/5V5_FILTERED*%
X75400000Y-100750000D03*
%TO.P,C35,2*%
%TO.N,GND*%
X75400000Y-102650000D03*
%TD*%
D38*
%TO.P,C16,1*%
%TO.N,/3V3_REG*%
X88627500Y-86075000D03*
%TO.P,C16,2*%
%TO.N,GND*%
X88627500Y-89025000D03*
%TD*%
D26*
%TO.P,TP2,1,1*%
%TO.N,+5V*%
X100000000Y-101400000D03*
%TD*%
D18*
%TO.P,R18,1*%
%TO.N,GND*%
X87200000Y-72200000D03*
%TO.P,R18,2*%
%TO.N,/3V3_TSP_FB*%
X85375000Y-72200000D03*
%TD*%
D26*
%TO.P,TP5,1,1*%
%TO.N,/T25*%
X109750000Y-92750000D03*
%TD*%
D20*
%TO.P,C3,1*%
%TO.N,/3V7_NOT_REG*%
X59850000Y-73300000D03*
%TO.P,C3,2*%
%TO.N,GND*%
X61750000Y-73300000D03*
%TD*%
D36*
%TO.P,U8,1,SW*%
%TO.N,/5V_SW*%
X57112500Y-100750000D03*
%TO.P,U8,2,GND*%
%TO.N,GND*%
X57112500Y-101700000D03*
%TO.P,U8,3,FB*%
%TO.N,/5V_FB*%
X57112500Y-102650000D03*
%TO.P,U8,4,EN*%
%TO.N,POWER_5V_ENABLE*%
X54837500Y-102650000D03*
%TO.P,U8,5,VIN*%
%TO.N,/5V_IN*%
X54837500Y-100750000D03*
%TD*%
D21*
%TO.P,R31,1*%
%TO.N,Net-(R30-Pad2)*%
X50725000Y-106312500D03*
%TO.P,R31,2*%
%TO.N,GND*%
X50725000Y-104487500D03*
%TD*%
%TO.P,R25,1*%
%TO.N,/CHRG_CHRG*%
X27000000Y-98825000D03*
%TO.P,R25,2*%
%TO.N,Net-(D6-K)*%
X27000000Y-97000000D03*
%TD*%
D39*
%TO.P,R24,1*%
%TO.N,VBUS*%
X57175000Y-28600000D03*
%TO.P,R24,2*%
%TO.N,Net-(C28-Pad1)*%
X57175000Y-30250000D03*
%TD*%
D17*
%TO.P,C43,1*%
%TO.N,+BATT*%
X42162500Y-78200000D03*
%TO.P,C43,2*%
%TO.N,GND*%
X42162500Y-80100000D03*
%TD*%
D40*
%TO.P,JP3,1,1*%
%TO.N,/3V3_LTC_MODE*%
X61437500Y-59800000D03*
D41*
%TO.P,JP3,2,2*%
%TO.N,GND*%
X61437500Y-58500000D03*
%TD*%
D17*
%TO.P,C44,1*%
%TO.N,/5V_IN*%
X47662500Y-78200000D03*
%TO.P,C44,2*%
%TO.N,GND*%
X47662500Y-80100000D03*
%TD*%
D33*
%TO.P,C9,1*%
%TO.N,/BATT_3V3_FILTER*%
X56550000Y-69700000D03*
%TO.P,C9,2*%
%TO.N,GND*%
X54650000Y-69700000D03*
%TD*%
D42*
%TO.P,C21,1*%
%TO.N,/BATT_3V3_FILTER*%
X79562500Y-68450000D03*
%TO.P,C21,2*%
%TO.N,GND*%
X82512500Y-68450000D03*
%TD*%
D38*
%TO.P,C37,1*%
%TO.N,/5V_REG*%
X88777500Y-100775000D03*
%TO.P,C37,2*%
%TO.N,GND*%
X88777500Y-103725000D03*
%TD*%
D26*
%TO.P,TS8,1,1*%
%TO.N,/5V5_FILTERED*%
X79400000Y-97000000D03*
%TD*%
D21*
%TO.P,R19,1*%
%TO.N,Net-(JP7-Pad1)*%
X27000000Y-88712500D03*
%TO.P,R19,2*%
%TO.N,Net-(D4-K)*%
X27000000Y-86887500D03*
%TD*%
D17*
%TO.P,C19,1*%
%TO.N,VBUS*%
X85137500Y-31943750D03*
%TO.P,C19,2*%
%TO.N,GND*%
X85137500Y-33843750D03*
%TD*%
%TO.P,C18,1*%
%TO.N,/BATT_3V3_FILTER*%
X47750000Y-58450000D03*
%TO.P,C18,2*%
%TO.N,GND*%
X47750000Y-60350000D03*
%TD*%
D21*
%TO.P,R12,1*%
%TO.N,/3V3_LTC_Rt*%
X63300000Y-65712500D03*
%TO.P,R12,2*%
%TO.N,Net-(R12-Pad2)*%
X63300000Y-63887500D03*
%TD*%
D29*
%TO.P,R23,1*%
%TO.N,VBUS*%
X50212500Y-35925000D03*
%TO.P,R23,2*%
%TO.N,/I_CHRG_SENSE*%
X53137500Y-35925000D03*
%TD*%
D17*
%TO.P,C11,1*%
%TO.N,Net-(C11-Pad1)*%
X55000000Y-63737500D03*
%TO.P,C11,2*%
%TO.N,/3V3_LTC_VC*%
X55000000Y-65637500D03*
%TD*%
D21*
%TO.P,R14,1*%
%TO.N,Net-(R12-Pad2)*%
X63300000Y-62462500D03*
%TO.P,R14,2*%
%TO.N,GND*%
X63300000Y-60637500D03*
%TD*%
D43*
%TO.P,L1,1,1*%
%TO.N,/3V3_LTC_SW1*%
X69400000Y-66200000D03*
%TO.P,L1,2,2*%
%TO.N,/3V3_LTC_SW2*%
X69400000Y-71800000D03*
%TD*%
D25*
%TO.P,R4,1*%
%TO.N,/T50*%
X112037500Y-96750000D03*
%TO.P,R4,2*%
%TO.N,GND*%
X117962500Y-96750000D03*
%TD*%
D44*
%TO.P,U6,1,VI*%
%TO.N,/5V5_FILTERED*%
X81727500Y-99100000D03*
%TO.P,U6,2,GND*%
%TO.N,GND*%
X84027500Y-99100000D03*
D45*
X84027500Y-105400000D03*
D44*
%TO.P,U6,3,VO*%
%TO.N,/5V_REG*%
X86327500Y-99100000D03*
%TD*%
D42*
%TO.P,C23,1*%
%TO.N,/3V7_NOT_REG*%
X79562500Y-76450000D03*
%TO.P,C23,2*%
%TO.N,GND*%
X82512500Y-76450000D03*
%TD*%
D26*
%TO.P,TS1,1,1*%
%TO.N,/3V3_LTC_SW1*%
X69800000Y-63200000D03*
%TD*%
%TO.P,TP3,1,1*%
%TO.N,/T100*%
X109750000Y-100750000D03*
%TD*%
D46*
%TO.P,U4,1,Vout*%
%TO.N,/3V7_NOT_REG*%
X80297500Y-72200000D03*
%TO.P,U4,2,LX2*%
%TO.N,/3V3_TSP_LX2*%
X80297500Y-71700000D03*
%TO.P,U4,3,LX1*%
%TO.N,/3V3_TSP_LX1*%
X80297500Y-71200000D03*
%TO.P,U4,4,Vin*%
%TO.N,/BATT_3V3_FILTER*%
X80297500Y-70700000D03*
%TO.P,U4,5,EN*%
X81777500Y-70700000D03*
%TO.P,U4,6,Mode*%
%TO.N,/3V3_TSP_MODE*%
X81777500Y-71200000D03*
%TO.P,U4,7,GND*%
%TO.N,GND*%
X81777500Y-71700000D03*
%TO.P,U4,8,FB*%
%TO.N,/3V3_TSP_FB*%
X81777500Y-72200000D03*
%TD*%
D17*
%TO.P,C32,1*%
%TO.N,/5V5_NOT_REG*%
X63550000Y-100750000D03*
%TO.P,C32,2*%
%TO.N,GND*%
X63550000Y-102650000D03*
%TD*%
D47*
%TO.P,R8,1*%
%TO.N,/3V7_NOT_REG*%
X59000000Y-63775000D03*
%TO.P,R8,2*%
%TO.N,/3V3_LTC_FB*%
X59000000Y-65600000D03*
%TD*%
D22*
%TO.P,JP2,1,1*%
%TO.N,/BATT_3V3_FILTER*%
X59437500Y-58500000D03*
D23*
%TO.P,JP2,2,2*%
%TO.N,/3V3_LTC_MODE*%
X59437500Y-59800000D03*
%TD*%
D24*
%TO.P,C26,1*%
%TO.N,/L_CHRG_TIMER*%
X85137500Y-38200000D03*
%TO.P,C26,2*%
%TO.N,GND*%
X85137500Y-36300000D03*
%TD*%
D16*
%TO.P,D9,1,K*%
%TO.N,Net-(D9-K)*%
X94440000Y-103000000D03*
%TO.P,D9,2,A*%
%TO.N,+5V*%
X96315000Y-103000000D03*
%TD*%
D30*
%TO.P,R21,1*%
%TO.N,VBUS*%
X48762500Y-30925000D03*
%TO.P,R21,2*%
%TO.N,Net-(C27-Pad1)*%
X50587500Y-30925000D03*
%TD*%
D48*
%TO.P,Q2,1,G*%
%TO.N,/L_CHRG_DRV*%
X73357500Y-29918750D03*
D49*
%TO.P,Q2,2,D*%
%TO.N,+BATT*%
X75637500Y-36218750D03*
D48*
%TO.P,Q2,3,S*%
%TO.N,/L_CHRG_SENSE*%
X77917500Y-29918750D03*
%TD*%
D50*
%TO.P,L5,1,1*%
%TO.N,/5V_IN*%
X50800000Y-94600000D03*
%TO.P,L5,2,2*%
%TO.N,/5V_SW*%
X56400000Y-94600000D03*
%TD*%
D51*
%TO.P,JP5,1,1*%
%TO.N,/BATT_3V3_FILTER*%
X86937500Y-67450000D03*
D52*
%TO.P,JP5,2,2*%
%TO.N,/3V3_TSP_MODE*%
X85637500Y-67450000D03*
%TD*%
D10*
%TO.P,J5,1,Pin_1*%
%TO.N,+5V*%
X98400000Y-108740000D03*
D11*
%TO.P,J5,2,Pin_2*%
%TO.N,/5V_REG*%
X98400000Y-106200000D03*
%TD*%
D17*
%TO.P,C30,1*%
%TO.N,/5V5_NOT_REG*%
X59550000Y-100750000D03*
%TO.P,C30,2*%
%TO.N,GND*%
X59550000Y-102650000D03*
%TD*%
D26*
%TO.P,TS3,1,1*%
%TO.N,/3V7_NOT_REG*%
X56600000Y-77200000D03*
%TD*%
D24*
%TO.P,C25,1*%
%TO.N,/L_CHRG_TIMER*%
X87137500Y-38200000D03*
%TO.P,C25,2*%
%TO.N,GND*%
X87137500Y-36300000D03*
%TD*%
D53*
%TO.P,C45,1*%
%TO.N,/I_CHRG_TIMER*%
X55450000Y-30150000D03*
%TO.P,C45,2*%
%TO.N,GND*%
X53900000Y-30150000D03*
%TD*%
D47*
%TO.P,R10,1*%
%TO.N,Net-(C11-Pad1)*%
X57000000Y-63775000D03*
%TO.P,R10,2*%
%TO.N,/3V3_LTC_FB*%
X57000000Y-65600000D03*
%TD*%
D20*
%TO.P,C27,1*%
%TO.N,Net-(C27-Pad1)*%
X49725000Y-28925000D03*
%TO.P,C27,2*%
%TO.N,GND*%
X51625000Y-28925000D03*
%TD*%
D26*
%TO.P,TP4,1,1*%
%TO.N,/T50*%
X109750000Y-96750000D03*
%TD*%
D42*
%TO.P,C22,1*%
%TO.N,/3V7_NOT_REG*%
X79562500Y-74200000D03*
%TO.P,C22,2*%
%TO.N,GND*%
X82512500Y-74200000D03*
%TD*%
D30*
%TO.P,R29,1*%
%TO.N,POWER_5V_ENABLE*%
X58562500Y-106200000D03*
%TO.P,R29,2*%
%TO.N,GND*%
X60387500Y-106200000D03*
%TD*%
D17*
%TO.P,C42,1*%
%TO.N,/5V_IN*%
X52725000Y-100800000D03*
%TO.P,C42,2*%
%TO.N,GND*%
X52725000Y-102700000D03*
%TD*%
D20*
%TO.P,C5,1*%
%TO.N,/3V7_NOT_REG*%
X59850000Y-76900000D03*
%TO.P,C5,2*%
%TO.N,GND*%
X61750000Y-76900000D03*
%TD*%
D31*
%TO.P,L7,1*%
%TO.N,+BATT*%
X43850000Y-78150000D03*
%TO.P,L7,2*%
%TO.N,/5V_IN*%
X45975000Y-78150000D03*
%TD*%
D47*
%TO.P,R30,1*%
%TO.N,/5V_FB*%
X52725000Y-104487500D03*
%TO.P,R30,2*%
%TO.N,Net-(R30-Pad2)*%
X52725000Y-106312500D03*
%TD*%
D20*
%TO.P,C24,1*%
%TO.N,+BATT*%
X81187500Y-39393750D03*
%TO.P,C24,2*%
%TO.N,GND*%
X83087500Y-39393750D03*
%TD*%
D54*
%TO.P,L4,1,1*%
%TO.N,/3V3_TSP_LX1*%
X77000000Y-70300000D03*
%TO.P,L4,2,2*%
%TO.N,/3V3_TSP_LX2*%
X77000000Y-72425000D03*
%TD*%
D55*
%TO.P,D10,1,K*%
%TO.N,/5V5_NOT_REG*%
X62375000Y-97950000D03*
%TO.P,D10,2,A*%
%TO.N,/5V_SW*%
X59075000Y-97950000D03*
%TD*%
D18*
%TO.P,R16,1*%
%TO.N,Net-(R16-Pad1)*%
X87200000Y-76200000D03*
%TO.P,R16,2*%
%TO.N,/3V7_NOT_REG*%
X85375000Y-76200000D03*
%TD*%
D26*
%TO.P,TS7,1,1*%
%TO.N,/5V5_NOT_REG*%
X64400000Y-98000000D03*
%TD*%
D18*
%TO.P,R13,1*%
%TO.N,Net-(R11-Pad2)*%
X61000000Y-61600000D03*
%TO.P,R13,2*%
%TO.N,GND*%
X59175000Y-61600000D03*
%TD*%
D38*
%TO.P,C36,1*%
%TO.N,/5V5_FILTERED*%
X79277500Y-100775000D03*
%TO.P,C36,2*%
%TO.N,GND*%
X79277500Y-103725000D03*
%TD*%
D33*
%TO.P,C10,1*%
%TO.N,/BATT_3V3_FILTER*%
X56550000Y-67900000D03*
%TO.P,C10,2*%
%TO.N,GND*%
X54650000Y-67900000D03*
%TD*%
D42*
%TO.P,C20,1*%
%TO.N,/BATT_3V3_FILTER*%
X79562500Y-66200000D03*
%TO.P,C20,2*%
%TO.N,GND*%
X82512500Y-66200000D03*
%TD*%
D10*
%TO.P,J4,1,Pin_1*%
%TO.N,+3V3*%
X98400000Y-85940000D03*
D11*
%TO.P,J4,2,Pin_2*%
%TO.N,/3V3_REG*%
X98400000Y-83400000D03*
%TD*%
D17*
%TO.P,C28,1*%
%TO.N,Net-(C28-Pad1)*%
X59600000Y-29050000D03*
%TO.P,C28,2*%
%TO.N,/I_CHRG_GATE*%
X59600000Y-30950000D03*
%TD*%
D47*
%TO.P,R7,1*%
%TO.N,+BATT*%
X34800000Y-105437500D03*
%TO.P,R7,2*%
%TO.N,/PROT_VDD*%
X34800000Y-107262500D03*
%TD*%
D26*
%TO.P,TP1,1,1*%
%TO.N,+3V3*%
X99400000Y-89800000D03*
%TD*%
D56*
%TO.P,U5,1,SENSE*%
%TO.N,/L_CHRG_SENSE*%
X81162500Y-32781250D03*
%TO.P,U5,2,VDD*%
%TO.N,VBUS*%
X81812500Y-32781250D03*
%TO.P,U5,3,STAT1*%
%TO.N,/CHRG_CHRG*%
X82462500Y-32781250D03*
%TO.P,U5,4,EN*%
%TO.N,/L_CHRG_EN*%
X83112500Y-32781250D03*
%TO.P,U5,5,TIMER*%
%TO.N,/L_CHRG_TIMER*%
X83112500Y-37006250D03*
%TO.P,U5,6,VSS*%
%TO.N,GND*%
X82462500Y-37006250D03*
%TO.P,U5,7,VBAT*%
%TO.N,+BATT*%
X81812500Y-37006250D03*
%TO.P,U5,8,DRV*%
%TO.N,/L_CHRG_DRV*%
X81162500Y-37006250D03*
%TD*%
D57*
%TO.P,SW2,1,1*%
%TO.N,-BATT*%
X39600000Y-115050000D03*
%TO.P,SW2,2,2*%
%TO.N,GND*%
X39600000Y-107250000D03*
%TD*%
D38*
%TO.P,C15,1*%
%TO.N,/3V3_FILTER*%
X79127500Y-86075000D03*
%TO.P,C15,2*%
%TO.N,GND*%
X79127500Y-89025000D03*
%TD*%
D18*
%TO.P,R2,1*%
%TO.N,Net-(J2-CC1)*%
X23817964Y-60362500D03*
%TO.P,R2,2*%
%TO.N,GND*%
X21992964Y-60362500D03*
%TD*%
D31*
%TO.P,L2,1*%
%TO.N,/3V7_NOT_REG*%
X71687500Y-85950000D03*
%TO.P,L2,2*%
%TO.N,/3V3_FILTER*%
X73812500Y-85950000D03*
%TD*%
D17*
%TO.P,C39,1*%
%TO.N,/5V_IN*%
X46800000Y-100800000D03*
%TO.P,C39,2*%
%TO.N,GND*%
X46800000Y-102700000D03*
%TD*%
D44*
%TO.P,U3,1,VI*%
%TO.N,/3V3_FILTER*%
X81577500Y-84400000D03*
%TO.P,U3,2,GND*%
%TO.N,GND*%
X83877500Y-84400000D03*
D45*
X83877500Y-90700000D03*
D44*
%TO.P,U3,3,VO*%
%TO.N,/3V3_REG*%
X86177500Y-84400000D03*
%TD*%
D58*
%TO.P,C6,1*%
%TO.N,/PROT_VDD*%
X34800000Y-108662500D03*
%TO.P,C6,2*%
%TO.N,-BATT*%
X34800000Y-110212500D03*
%TD*%
D17*
%TO.P,C14,1*%
%TO.N,/3V3_FILTER*%
X75500000Y-86050000D03*
%TO.P,C14,2*%
%TO.N,GND*%
X75500000Y-87950000D03*
%TD*%
%TO.P,C38,1*%
%TO.N,/I_CHRG_GATE*%
X59600000Y-32450000D03*
%TO.P,C38,2*%
%TO.N,GND*%
X59600000Y-34350000D03*
%TD*%
%TO.P,C13,1*%
%TO.N,/3V7_NOT_REG*%
X70000000Y-86000000D03*
%TO.P,C13,2*%
%TO.N,GND*%
X70000000Y-87900000D03*
%TD*%
D59*
%TO.P,U2,1,DO*%
%TO.N,/PROT_DO*%
X30525000Y-110100000D03*
%TO.P,U2,2,VM*%
%TO.N,/PROT_VM*%
X30525000Y-109150000D03*
%TO.P,U2,3,CO*%
%TO.N,/PROT_CO*%
X30525000Y-108200000D03*
%TO.P,U2,4,NC*%
%TO.N,unconnected-(U2-NC-Pad4)*%
X32800000Y-108200000D03*
%TO.P,U2,5,VDD*%
%TO.N,/PROT_VDD*%
X32800000Y-109150000D03*
%TO.P,U2,6,VSS*%
%TO.N,-BATT*%
X32800000Y-110100000D03*
%TD*%
D18*
%TO.P,R27,1*%
%TO.N,GND*%
X96290000Y-101000000D03*
%TO.P,R27,2*%
%TO.N,Net-(D9-K)*%
X94465000Y-101000000D03*
%TD*%
D25*
%TO.P,R3,1*%
%TO.N,/T100*%
X112000000Y-100750000D03*
%TO.P,R3,2*%
%TO.N,GND*%
X117925000Y-100750000D03*
%TD*%
D53*
%TO.P,C46,1*%
%TO.N,/I_CHRG_TIMER*%
X55450000Y-28675000D03*
%TO.P,C46,2*%
%TO.N,GND*%
X53900000Y-28675000D03*
%TD*%
D17*
%TO.P,C34,1*%
%TO.N,/5V5_NOT_REG*%
X69900000Y-100750000D03*
%TO.P,C34,2*%
%TO.N,GND*%
X69900000Y-102650000D03*
%TD*%
D27*
%TO.P,JP8,1,1*%
%TO.N,Net-(JP7-Pad1)*%
X29000000Y-86800000D03*
D28*
%TO.P,JP8,2,2*%
%TO.N,/CHRG_ACPR*%
X30300000Y-86800000D03*
%TD*%
D27*
%TO.P,JP7,1,1*%
%TO.N,Net-(JP7-Pad1)*%
X29000000Y-88800000D03*
D28*
%TO.P,JP7,2,2*%
%TO.N,GND*%
X30300000Y-88800000D03*
%TD*%
D60*
%TO.P,R20,1*%
%TO.N,/L_CHRG_EN*%
X86887500Y-33718750D03*
%TO.P,R20,2*%
%TO.N,VBUS*%
X86887500Y-32068750D03*
%TD*%
D61*
%TO.N,-BATT*%
X37000000Y-114800000D03*
%TO.N,GND*%
X20889154Y-62262500D03*
D62*
X47662500Y-81200000D03*
X42250000Y-61400000D03*
D61*
X62800000Y-75100000D03*
D62*
X87137500Y-35200000D03*
X58600000Y-102250000D03*
X47750000Y-61400000D03*
D61*
X59600000Y-35400000D03*
X42800000Y-107150000D03*
D62*
X84200000Y-39800000D03*
X85137500Y-35200000D03*
X83827500Y-92300000D03*
D61*
X27705464Y-58412500D03*
D62*
X83787500Y-68450000D03*
D61*
X97200000Y-101000000D03*
X86427500Y-105400000D03*
D62*
X82137500Y-35393750D03*
X53650000Y-69700000D03*
D61*
X34600000Y-112550000D03*
D62*
X52900000Y-29250000D03*
D61*
X62800000Y-73300000D03*
D62*
X83827500Y-82800000D03*
X75325000Y-103700000D03*
D61*
X34600000Y-111550000D03*
X25400000Y-69182864D03*
D62*
X75500000Y-89000000D03*
D61*
X97400000Y-91200000D03*
D62*
X83787500Y-71375500D03*
D61*
X62800000Y-71500000D03*
D62*
X119000000Y-100750000D03*
X88777500Y-105000000D03*
X31400000Y-88800000D03*
D61*
X26600000Y-70000000D03*
X20889154Y-60262500D03*
D62*
X83787500Y-76450000D03*
X60100000Y-104125000D03*
X119000000Y-96750000D03*
X53650000Y-71500000D03*
X84027500Y-97500000D03*
X83787500Y-66200000D03*
X69825000Y-103700000D03*
X63550000Y-70300000D03*
X42162500Y-81200000D03*
X53650000Y-67900000D03*
D61*
X65600000Y-60200000D03*
D62*
X58200000Y-61200000D03*
X88287500Y-72200000D03*
D61*
X29800000Y-106350000D03*
D62*
X88627500Y-90300000D03*
X25355464Y-76462500D03*
X119000000Y-88750000D03*
X53600000Y-73300000D03*
X88037500Y-69950000D03*
X63975000Y-104125000D03*
X119000000Y-92750000D03*
X49475000Y-104900000D03*
X63300000Y-59550000D03*
X70000000Y-88950000D03*
X79127500Y-90300000D03*
D61*
X61400000Y-57600000D03*
D62*
X61725000Y-104125000D03*
X79277500Y-105000000D03*
D61*
X27705464Y-64012500D03*
D62*
X83787500Y-74200000D03*
D61*
X62800000Y-76900000D03*
%TO.N,/BATT_3V3_FILTER*%
X57200000Y-68800000D03*
X56400000Y-58600000D03*
%TO.N,VBUS*%
X29105464Y-54837500D03*
%TO.N,POWER_5V_ENABLE*%
X67400000Y-105800000D03*
X55600000Y-103250000D03*
X58350000Y-104500000D03*
%TO.N,/CHRG_ACPR*%
X38000000Y-54000000D03*
X54500000Y-38000000D03*
%TO.N,/CHRG_CHRG*%
X55224500Y-36675000D03*
X80779257Y-35141757D03*
X39000000Y-55000000D03*
%TO.N,/PROT_DO*%
X29062500Y-110150000D03*
X29062500Y-113550000D03*
%TO.N,Net-(J2-CC1)*%
X24905464Y-60512500D03*
%TO.N,Net-(J2-CC2)*%
X24905464Y-62012500D03*
%TD*%
D63*
%TO.N,-BATT*%
X35800000Y-113500000D02*
X37350000Y-115050000D01*
D64*
X32800000Y-113500000D02*
X35800000Y-113500000D01*
X37350000Y-115050000D02*
X39600000Y-115050000D01*
X32800000Y-110100000D02*
X34550000Y-110100000D01*
X35800000Y-113500000D02*
X35800000Y-110550000D01*
X34550000Y-110100000D02*
X34662500Y-110212500D01*
X35800000Y-110550000D02*
X35462500Y-110212500D01*
X35462500Y-110212500D02*
X34662500Y-110212500D01*
%TO.N,GND*%
X54650000Y-69700000D02*
X53650000Y-69700000D01*
D65*
X30300000Y-88800000D02*
X31400000Y-88800000D01*
D64*
X82512500Y-66200000D02*
X83787500Y-66200000D01*
X79677500Y-105400000D02*
X79277500Y-105000000D01*
X59927778Y-103175000D02*
X60100000Y-103347222D01*
X42800000Y-107150000D02*
X42700000Y-107250000D01*
X63300000Y-60637500D02*
X63300000Y-59550000D01*
X61775000Y-75100000D02*
X62800000Y-75100000D01*
X59475000Y-103125000D02*
X59475000Y-103175000D01*
X60387500Y-105325000D02*
X60387500Y-106200000D01*
X82512500Y-68450000D02*
X83787500Y-68450000D01*
X42250000Y-60350000D02*
X42250000Y-61400000D01*
D66*
X30750000Y-106350000D02*
X29800000Y-106350000D01*
D64*
X50725000Y-104487500D02*
X50725000Y-102700000D01*
X70000000Y-87900000D02*
X70000000Y-88950000D01*
X48800000Y-102700000D02*
X46800000Y-102700000D01*
X88777500Y-103725000D02*
X88777500Y-105000000D01*
X49637500Y-104487500D02*
X49475000Y-104650000D01*
X86937500Y-69950000D02*
X88037500Y-69950000D01*
X50725000Y-102700000D02*
X52725000Y-102700000D01*
D66*
X83800000Y-39400000D02*
X84200000Y-39800000D01*
D64*
X85137500Y-36300000D02*
X85137500Y-35200000D01*
D66*
X82462500Y-37006250D02*
X82462500Y-37968750D01*
D64*
X84027500Y-105400000D02*
X79677500Y-105400000D01*
D65*
X83463000Y-71700000D02*
X83787500Y-71375500D01*
D64*
X61725000Y-103175000D02*
X61725000Y-104125000D01*
X88377500Y-105400000D02*
X88777500Y-105000000D01*
X50725000Y-104487500D02*
X49637500Y-104487500D01*
X82512500Y-76450000D02*
X83787500Y-76450000D01*
X88327500Y-90600000D02*
X88627500Y-90300000D01*
D66*
X63000000Y-69750000D02*
X63550000Y-70300000D01*
X51950000Y-29250000D02*
X51625000Y-28925000D01*
D64*
X34600000Y-111550000D02*
X34600000Y-112550000D01*
D66*
X53875000Y-29250000D02*
X52900000Y-29250000D01*
D64*
X54650000Y-73300000D02*
X54650000Y-71500000D01*
X117962500Y-96750000D02*
X119000000Y-96750000D01*
X65550000Y-102650000D02*
X63550000Y-102650000D01*
X84027500Y-99100000D02*
X84027500Y-105400000D01*
X83877500Y-82800000D02*
X83827500Y-82800000D01*
X85137500Y-36300000D02*
X87137500Y-36300000D01*
X82512500Y-74200000D02*
X83787500Y-74200000D01*
D66*
X52900000Y-29250000D02*
X51950000Y-29250000D01*
D64*
X65600000Y-61150000D02*
X65600000Y-60200000D01*
X61550000Y-102650000D02*
X59550000Y-102650000D01*
X83877500Y-92300000D02*
X83827500Y-92300000D01*
X53900000Y-101700000D02*
X52950000Y-102650000D01*
X79427500Y-90600000D02*
X79127500Y-90300000D01*
D66*
X53900000Y-30150000D02*
X53800000Y-30150000D01*
D64*
X54650000Y-67900000D02*
X53650000Y-67900000D01*
D65*
X21992964Y-60362500D02*
X20905464Y-60362500D01*
D64*
X59475000Y-103175000D02*
X59927778Y-103175000D01*
D66*
X53875000Y-30150000D02*
X53875000Y-31425000D01*
D64*
X54650000Y-73300000D02*
X53600000Y-73300000D01*
D66*
X53875000Y-28650000D02*
X53875000Y-29250000D01*
X53875000Y-29250000D02*
X53875000Y-30150000D01*
D64*
X79127500Y-89025000D02*
X79127500Y-90300000D01*
X84027500Y-99100000D02*
X84027500Y-97500000D01*
D65*
X81777500Y-71700000D02*
X83463000Y-71700000D01*
X51900000Y-28650000D02*
X51625000Y-28925000D01*
D66*
X83087500Y-38593750D02*
X83087500Y-39393750D01*
D64*
X61775000Y-73300000D02*
X61775000Y-75100000D01*
D66*
X82462500Y-35643750D02*
X82462500Y-37006250D01*
D64*
X75325000Y-102650000D02*
X75325000Y-103700000D01*
X60100000Y-103347222D02*
X60100000Y-104125000D01*
X61775000Y-71600000D02*
X61775000Y-73300000D01*
D66*
X53375000Y-31925000D02*
X52537500Y-31925000D01*
X59600000Y-34350000D02*
X59600000Y-35400000D01*
D64*
X58050000Y-101700000D02*
X59475000Y-103125000D01*
X87137500Y-36300000D02*
X87137500Y-35200000D01*
X61750000Y-76900000D02*
X61750000Y-75125000D01*
D66*
X82137500Y-35393750D02*
X82462500Y-35643750D01*
D64*
X83877500Y-90600000D02*
X79427500Y-90600000D01*
X75500000Y-87950000D02*
X75500000Y-89000000D01*
X83877500Y-90600000D02*
X88327500Y-90600000D01*
X87200000Y-72200000D02*
X88287500Y-72200000D01*
X63975000Y-103175000D02*
X63975000Y-104125000D01*
X61775000Y-73300000D02*
X62800000Y-73300000D01*
D65*
X61437500Y-57637500D02*
X61400000Y-57600000D01*
D64*
X54650000Y-69500000D02*
X54650000Y-71500000D01*
X61750000Y-76900000D02*
X62800000Y-76900000D01*
X61775000Y-71500000D02*
X62800000Y-71500000D01*
X83877500Y-84300000D02*
X83877500Y-82800000D01*
X84027500Y-105400000D02*
X86427500Y-105400000D01*
X61750000Y-75125000D02*
X61775000Y-75100000D01*
X42700000Y-107250000D02*
X39600000Y-107250000D01*
X86427500Y-105400000D02*
X88377500Y-105400000D01*
X32800000Y-111600000D02*
X34550000Y-111600000D01*
X88627500Y-89025000D02*
X88627500Y-90300000D01*
X117925000Y-100750000D02*
X119000000Y-100750000D01*
X117925000Y-92750000D02*
X119000000Y-92750000D01*
X57112500Y-101700000D02*
X58050000Y-101700000D01*
D66*
X83087500Y-39393750D02*
X83093750Y-39400000D01*
X82462500Y-37968750D02*
X83087500Y-38593750D01*
D64*
X96290000Y-101000000D02*
X97200000Y-101000000D01*
X57112500Y-101700000D02*
X53900000Y-101700000D01*
X34550000Y-111600000D02*
X34600000Y-111550000D01*
X59175000Y-61600000D02*
X58200000Y-61200000D01*
X83877500Y-90600000D02*
X83877500Y-92300000D01*
X47662500Y-80100000D02*
X47662500Y-81200000D01*
X96400000Y-91200000D02*
X97400000Y-91200000D01*
X63550000Y-102650000D02*
X61550000Y-102650000D01*
X42162500Y-80100000D02*
X42162500Y-81200000D01*
X47750000Y-60350000D02*
X47750000Y-61400000D01*
X60100000Y-104125000D02*
X60100000Y-105037500D01*
X54650000Y-71500000D02*
X53650000Y-71500000D01*
X50725000Y-102700000D02*
X48800000Y-102700000D01*
D66*
X53875000Y-31425000D02*
X53375000Y-31925000D01*
D64*
X69825000Y-102650000D02*
X69825000Y-103700000D01*
D65*
X61437500Y-58500000D02*
X61437500Y-57637500D01*
D64*
X117925000Y-88750000D02*
X119000000Y-88750000D01*
X83877500Y-90600000D02*
X83877500Y-84300000D01*
D65*
X21992964Y-62362500D02*
X20905464Y-62362500D01*
D64*
X60100000Y-105037500D02*
X60387500Y-105325000D01*
X54650000Y-67700000D02*
X54650000Y-69700000D01*
D66*
X83093750Y-39400000D02*
X83800000Y-39400000D01*
D64*
X79277500Y-103725000D02*
X79277500Y-105000000D01*
D65*
X63000000Y-69550000D02*
X63000000Y-69750000D01*
D64*
X85137500Y-35200000D02*
X85137500Y-33843750D01*
%TO.N,+BATT*%
X42250000Y-58450000D02*
X41150000Y-58450000D01*
D63*
X58400000Y-37000000D02*
X58400000Y-38400000D01*
D64*
X38500000Y-105437500D02*
X43237500Y-105437500D01*
D66*
X81187500Y-39393750D02*
X78012500Y-36218750D01*
D64*
X40200000Y-78200000D02*
X40200000Y-105437500D01*
D66*
X78012500Y-36218750D02*
X75637500Y-36218750D01*
D64*
X34600000Y-105437500D02*
X38500000Y-105437500D01*
D63*
X42400000Y-46800000D02*
X27060000Y-46800000D01*
D64*
X42250000Y-58450000D02*
X42250000Y-46950000D01*
D63*
X56200000Y-46800000D02*
X42400000Y-46800000D01*
D64*
X97000000Y-112200000D02*
X98300000Y-113500000D01*
D63*
X58400000Y-38400000D02*
X73456250Y-38400000D01*
D64*
X40200000Y-78200000D02*
X42162500Y-78200000D01*
X50000000Y-112200000D02*
X97000000Y-112200000D01*
X43937500Y-58400000D02*
X42300000Y-58400000D01*
X40200000Y-59400000D02*
X40200000Y-75400000D01*
D63*
X56925000Y-35525000D02*
X58400000Y-37000000D01*
D66*
X81187500Y-38531250D02*
X81187500Y-39393750D01*
D64*
X42250000Y-46950000D02*
X42400000Y-46800000D01*
D63*
X73456250Y-38400000D02*
X75637500Y-36218750D01*
X27060000Y-46800000D02*
X26997500Y-46862500D01*
D64*
X42200000Y-58400000D02*
X42250000Y-58450000D01*
X43800000Y-78200000D02*
X43850000Y-78150000D01*
X40200000Y-75400000D02*
X40200000Y-78200000D01*
X42162500Y-78200000D02*
X43800000Y-78200000D01*
D63*
X56925000Y-34425000D02*
X56925000Y-35525000D01*
X58400000Y-44600000D02*
X56200000Y-46800000D01*
D64*
X98300000Y-113500000D02*
X98300000Y-115000000D01*
X43237500Y-105437500D02*
X50000000Y-112200000D01*
D66*
X81812500Y-37906250D02*
X81187500Y-38531250D01*
D64*
X41150000Y-58450000D02*
X40200000Y-59400000D01*
D66*
X81812500Y-37006250D02*
X81812500Y-37906250D01*
D63*
X58400000Y-38400000D02*
X58400000Y-44600000D01*
D65*
%TO.N,/5V5_NOT_REG*%
X56725000Y-107200000D02*
X57225000Y-107700000D01*
X63550000Y-105350000D02*
X65450000Y-105350000D01*
X61200000Y-107700000D02*
X63550000Y-105350000D01*
D64*
X64600000Y-98000000D02*
X62425000Y-98000000D01*
D65*
X56725000Y-106350000D02*
X56725000Y-107200000D01*
D64*
X67350000Y-100750000D02*
X65550000Y-100750000D01*
D65*
X67700000Y-100850000D02*
X67600000Y-100750000D01*
X57225000Y-107700000D02*
X61200000Y-107700000D01*
D64*
X69825000Y-100675000D02*
X69900000Y-100750000D01*
X62425000Y-98000000D02*
X62375000Y-97950000D01*
X69900000Y-100750000D02*
X67600000Y-100750000D01*
X64850000Y-100750000D02*
X63975000Y-100750000D01*
X71512500Y-100700000D02*
X69875000Y-100700000D01*
D66*
X56725000Y-106350000D02*
X54762500Y-106350000D01*
D64*
X69875000Y-100700000D02*
X69825000Y-100750000D01*
D65*
X67700000Y-103100000D02*
X67700000Y-100850000D01*
D64*
X67600000Y-100750000D02*
X67350000Y-100750000D01*
D65*
X65450000Y-105350000D02*
X67700000Y-103100000D01*
D64*
X54762500Y-106350000D02*
X54725000Y-106312500D01*
D65*
%TO.N,/BATT_3V3_FILTER*%
X85800000Y-64600000D02*
X80000000Y-64600000D01*
X59437500Y-58500000D02*
X59437500Y-56600000D01*
D64*
X69800000Y-58600000D02*
X77400000Y-66200000D01*
X57200000Y-68800000D02*
X59050000Y-68800000D01*
X56550000Y-67700000D02*
X56550000Y-69700000D01*
X56350000Y-58450000D02*
X58200000Y-56600000D01*
X47750000Y-58450000D02*
X56350000Y-58450000D01*
D65*
X86937500Y-65737500D02*
X85800000Y-64600000D01*
D64*
X56550000Y-69500000D02*
X56550000Y-71500000D01*
X58200000Y-56600000D02*
X62600000Y-56600000D01*
X56550000Y-69700000D02*
X56600000Y-69650000D01*
X47800000Y-58400000D02*
X47750000Y-58450000D01*
X56550000Y-71500000D02*
X56550000Y-73300000D01*
X64600000Y-58600000D02*
X69800000Y-58600000D01*
D65*
X79562500Y-65037500D02*
X79562500Y-66200000D01*
D64*
X77400000Y-66200000D02*
X79562500Y-66200000D01*
D65*
X86937500Y-67450000D02*
X86937500Y-65737500D01*
D64*
X62600000Y-56600000D02*
X64600000Y-58600000D01*
X47750000Y-58450000D02*
X47700000Y-58400000D01*
D65*
X80000000Y-64600000D02*
X79562500Y-65037500D01*
D64*
X56600000Y-68800000D02*
X57200000Y-68800000D01*
D65*
X80297500Y-70700000D02*
X81777500Y-70700000D01*
D64*
X46062500Y-58400000D02*
X47700000Y-58400000D01*
D65*
%TO.N,VBUS*%
X22952500Y-99127500D02*
X24122500Y-99127500D01*
D66*
X51175000Y-32575000D02*
X50212500Y-33537500D01*
X86187500Y-31943750D02*
X86312500Y-32068750D01*
D64*
X23102500Y-99127500D02*
X23102500Y-109102500D01*
D66*
X85137500Y-30893750D02*
X85137500Y-31943750D01*
D63*
X49500000Y-26250000D02*
X81323750Y-26250000D01*
D65*
X24312500Y-88737500D02*
X25250000Y-88737500D01*
D66*
X84387500Y-30143750D02*
X85137500Y-30893750D01*
D63*
X50212500Y-35925000D02*
X50212500Y-34412500D01*
X50212500Y-34412500D02*
X47925000Y-32125000D01*
D66*
X81812500Y-31218750D02*
X82887500Y-30143750D01*
D65*
X23960000Y-89090000D02*
X24312500Y-88737500D01*
D63*
X50212500Y-38175000D02*
X50212500Y-35925000D01*
D66*
X82887500Y-30143750D02*
X83600000Y-30143750D01*
X86312500Y-32068750D02*
X86887500Y-32068750D01*
D63*
X29037500Y-54837500D02*
X29105464Y-54837500D01*
X81323750Y-26250000D02*
X83600000Y-28526250D01*
X47925000Y-32125000D02*
X47925000Y-27825000D01*
D64*
X30800000Y-116800000D02*
X43000000Y-116800000D01*
X44800000Y-115000000D02*
X95760000Y-115000000D01*
D66*
X52537500Y-32575000D02*
X51175000Y-32575000D01*
D63*
X83600000Y-28526250D02*
X83600000Y-30143750D01*
D65*
X22952500Y-89090000D02*
X23960000Y-89090000D01*
D66*
X83600000Y-30143750D02*
X84387500Y-30143750D01*
D64*
X23102500Y-109102500D02*
X30800000Y-116800000D01*
D65*
X24122500Y-99127500D02*
X24375000Y-98875000D01*
D66*
X85137500Y-31943750D02*
X86187500Y-31943750D01*
X50212500Y-33537500D02*
X50212500Y-35925000D01*
D63*
X24400000Y-50200000D02*
X29037500Y-54837500D01*
X24400000Y-38600000D02*
X24400000Y-50200000D01*
X47925000Y-27825000D02*
X49500000Y-26250000D01*
D64*
X43000000Y-116800000D02*
X44800000Y-115000000D01*
X57175000Y-28600000D02*
X57175000Y-26425000D01*
D65*
X24375000Y-98875000D02*
X25250000Y-98875000D01*
D63*
X35175000Y-27825000D02*
X24400000Y-38600000D01*
X47925000Y-27825000D02*
X35175000Y-27825000D01*
D66*
X81812500Y-32781250D02*
X81812500Y-31218750D01*
D64*
%TO.N,/5V_SW*%
X56180000Y-94820000D02*
X56180000Y-95000000D01*
X57800000Y-93200000D02*
X56180000Y-94820000D01*
X59600000Y-93200000D02*
X57800000Y-93200000D01*
%TO.N,/3V7_NOT_REG*%
X65600000Y-79400000D02*
X70000000Y-79400000D01*
D65*
X85375000Y-76200000D02*
X85375000Y-77625000D01*
X85375000Y-77625000D02*
X84800000Y-78200000D01*
X57400000Y-62200000D02*
X58687500Y-63487500D01*
D64*
X70000000Y-86000000D02*
X70000000Y-79400000D01*
D65*
X58910050Y-63862500D02*
X59000000Y-63862500D01*
D64*
X59850000Y-78450000D02*
X60800000Y-79400000D01*
D65*
X52500000Y-75100000D02*
X50600000Y-73200000D01*
D64*
X70000000Y-79400000D02*
X78400000Y-79400000D01*
X78400000Y-79400000D02*
X79562500Y-78237500D01*
D65*
X79600000Y-78200000D02*
X79562500Y-78237500D01*
X84800000Y-78200000D02*
X79600000Y-78200000D01*
D64*
X59875000Y-73300000D02*
X59875000Y-71600000D01*
D65*
X58687500Y-63575000D02*
X59110050Y-63575000D01*
D64*
X79562500Y-78237500D02*
X79562500Y-76450000D01*
D65*
X59850000Y-75100000D02*
X52500000Y-75100000D01*
D64*
X59850000Y-78200000D02*
X59850000Y-78450000D01*
X65600000Y-77450000D02*
X65600000Y-79400000D01*
X59850000Y-76900000D02*
X59850000Y-75125000D01*
X59850000Y-76900000D02*
X56900000Y-76900000D01*
X59875000Y-75100000D02*
X59875000Y-73300000D01*
D65*
X50600000Y-63400000D02*
X51800000Y-62200000D01*
D64*
X69950000Y-85950000D02*
X70000000Y-86000000D01*
D65*
X51800000Y-62200000D02*
X57400000Y-62200000D01*
D64*
X60800000Y-79400000D02*
X65600000Y-79400000D01*
X56900000Y-76900000D02*
X56600000Y-77200000D01*
X59850000Y-75125000D02*
X59875000Y-75100000D01*
X59850000Y-76900000D02*
X59850000Y-78200000D01*
X71687500Y-85950000D02*
X70050000Y-85950000D01*
D65*
X50600000Y-73200000D02*
X50600000Y-63400000D01*
D64*
%TO.N,/3V3_REG*%
X86177500Y-84400000D02*
X88800000Y-84400000D01*
X93400000Y-84400000D02*
X94400000Y-83400000D01*
X88627500Y-86075000D02*
X88627500Y-84572500D01*
X88902500Y-85800000D02*
X88627500Y-86075000D01*
X94400000Y-83400000D02*
X98400000Y-83400000D01*
X88742500Y-86190000D02*
X88627500Y-86075000D01*
X88800000Y-84400000D02*
X93400000Y-84400000D01*
X88627500Y-84572500D02*
X88800000Y-84400000D01*
%TO.N,/5V_REG*%
X91175000Y-100775000D02*
X88777500Y-100775000D01*
X87927500Y-99100000D02*
X88777500Y-99950000D01*
X88777500Y-99950000D02*
X88777500Y-100775000D01*
X86327500Y-99100000D02*
X87927500Y-99100000D01*
X94000000Y-106200000D02*
X92600000Y-104800000D01*
X92600000Y-104800000D02*
X92600000Y-102200000D01*
X98400000Y-106200000D02*
X94000000Y-106200000D01*
X92600000Y-102200000D02*
X91175000Y-100775000D01*
%TO.N,/3V3_LTC_SW1*%
X67220000Y-66220000D02*
X69400000Y-66220000D01*
X65600000Y-63650000D02*
X65600000Y-64600000D01*
X69800000Y-65820000D02*
X69400000Y-66220000D01*
D67*
X63000000Y-68550000D02*
X64050000Y-68550000D01*
D66*
X64550000Y-68050000D02*
X66080000Y-66520000D01*
D64*
X65600000Y-64600000D02*
X67220000Y-66220000D01*
D66*
X66080000Y-66520000D02*
X69800000Y-66520000D01*
X64050000Y-68550000D02*
X64550000Y-68050000D01*
D64*
X69800000Y-63200000D02*
X69800000Y-65820000D01*
D66*
%TO.N,/3V3_LTC_SW2*%
X64550000Y-69300000D02*
X66930000Y-71680000D01*
D64*
X69400000Y-75000000D02*
X69400000Y-71380000D01*
X69400000Y-71380000D02*
X67230000Y-71380000D01*
X65600000Y-73010000D02*
X66930000Y-71680000D01*
D67*
X63000000Y-69050000D02*
X64300000Y-69050000D01*
D66*
X64300000Y-69050000D02*
X64550000Y-69300000D01*
D64*
X67230000Y-71380000D02*
X66930000Y-71680000D01*
X65600000Y-74150000D02*
X65600000Y-73010000D01*
D66*
X66930000Y-71680000D02*
X69800000Y-71680000D01*
D64*
%TO.N,+5V*%
X99940000Y-108740000D02*
X103400000Y-112200000D01*
X103400000Y-112200000D02*
X103400000Y-114980000D01*
X98400000Y-108740000D02*
X99940000Y-108740000D01*
X99800000Y-103000000D02*
X100000000Y-103200000D01*
X100000000Y-108680000D02*
X99940000Y-108740000D01*
X103380000Y-115000000D02*
X105920000Y-115000000D01*
X100000000Y-101400000D02*
X100000000Y-103200000D01*
X96315000Y-103000000D02*
X99800000Y-103000000D01*
X97000000Y-108740000D02*
X96200000Y-107940000D01*
X98400000Y-108740000D02*
X97000000Y-108740000D01*
X103400000Y-114980000D02*
X103380000Y-115000000D01*
X100000000Y-103200000D02*
X100000000Y-108680000D01*
%TO.N,+3V3*%
X97000000Y-85940000D02*
X98400000Y-85940000D01*
X102500000Y-92900000D02*
X102500000Y-105300000D01*
X96425000Y-89200000D02*
X98000000Y-89200000D01*
X98400000Y-88800000D02*
X99400000Y-89800000D01*
X99400000Y-89800000D02*
X102500000Y-92900000D01*
X98400000Y-85940000D02*
X98400000Y-88800000D01*
X98000000Y-89200000D02*
X98400000Y-88800000D01*
X108460000Y-115000000D02*
X111000000Y-115000000D01*
X96375000Y-85315000D02*
X97000000Y-85940000D01*
X102500000Y-105300000D02*
X108400000Y-111200000D01*
X108400000Y-114940000D02*
X108460000Y-115000000D01*
X108400000Y-111200000D02*
X108400000Y-114940000D01*
%TO.N,/5V5_FILTERED*%
X73637500Y-100700000D02*
X75275000Y-100700000D01*
X75401938Y-100748062D02*
X75400000Y-100750000D01*
X79250562Y-100748062D02*
X75401938Y-100748062D01*
X79413750Y-99100000D02*
X79400000Y-99086250D01*
X79277500Y-99236250D02*
X79413750Y-99100000D01*
X75350000Y-100725000D02*
X75325000Y-100750000D01*
X79413750Y-99100000D02*
X81727500Y-99100000D01*
X79277500Y-100775000D02*
X79250562Y-100748062D01*
X75275000Y-100700000D02*
X75325000Y-100750000D01*
X79400000Y-99086250D02*
X79400000Y-97000000D01*
X79277500Y-100775000D02*
X79277500Y-99236250D01*
%TO.N,/T100*%
X109750000Y-100750000D02*
X112000000Y-100750000D01*
D65*
%TO.N,POWER_5V_ENABLE*%
X71400000Y-110600000D02*
X98000000Y-110600000D01*
X67400000Y-106600000D02*
X71400000Y-110600000D01*
X54837500Y-102650000D02*
X55000000Y-102650000D01*
X67400000Y-105800000D02*
X67400000Y-106600000D01*
X58350000Y-104500000D02*
X58350000Y-105000000D01*
X58350000Y-105000000D02*
X58562500Y-105212500D01*
X58562500Y-105212500D02*
X58562500Y-106200000D01*
X55000000Y-102650000D02*
X55600000Y-103250000D01*
X100840000Y-113440000D02*
X100840000Y-115000000D01*
X98000000Y-110600000D02*
X100840000Y-113440000D01*
D66*
%TO.N,Net-(D9-K)*%
X94465000Y-101000000D02*
X94465000Y-102975000D01*
D65*
X94465000Y-102975000D02*
X94440000Y-103000000D01*
D64*
%TO.N,/T50*%
X109750000Y-96750000D02*
X112037500Y-96750000D01*
%TO.N,/T25*%
X109750000Y-92750000D02*
X112000000Y-92750000D01*
%TO.N,/T12.5*%
X109750000Y-88750000D02*
X112000000Y-88750000D01*
D65*
%TO.N,/3V3_LTC_FB*%
X59600000Y-68050000D02*
X60800000Y-66850000D01*
X60800000Y-65600000D02*
X59000000Y-65600000D01*
X60800000Y-66850000D02*
X60800000Y-65600000D01*
X58600000Y-68050000D02*
X59600000Y-68050000D01*
X59000000Y-65600000D02*
X57000000Y-65600000D01*
%TO.N,/3V3_LTC_VC*%
X55000000Y-65637500D02*
X53200000Y-65637500D01*
X57650000Y-66600000D02*
X58600000Y-67550000D01*
X55962500Y-66600000D02*
X57650000Y-66600000D01*
X55000000Y-65637500D02*
X55962500Y-66600000D01*
D64*
%TO.N,/3V3_FILTER*%
X77200000Y-86075000D02*
X77200000Y-83400000D01*
X75525000Y-86075000D02*
X75500000Y-86050000D01*
X77200000Y-86075000D02*
X75525000Y-86075000D01*
X81577500Y-84400000D02*
X79800000Y-84400000D01*
X79127500Y-86075000D02*
X77200000Y-86075000D01*
X79127500Y-85072500D02*
X79127500Y-86075000D01*
X79800000Y-84400000D02*
X79127500Y-85072500D01*
X73812500Y-85950000D02*
X75450000Y-85950000D01*
X75550000Y-86000000D02*
X75500000Y-86050000D01*
X79177500Y-86025000D02*
X79127500Y-86075000D01*
D66*
%TO.N,/I_CHRG_GATE*%
X58175000Y-33225000D02*
X58950000Y-32450000D01*
X58950000Y-32450000D02*
X59600000Y-32450000D01*
X56762500Y-33225000D02*
X58175000Y-33225000D01*
X59600000Y-32450000D02*
X59600000Y-30950000D01*
%TO.N,/I_CHRG_TIMER*%
X55425000Y-28650000D02*
X55425000Y-30150000D01*
X55925000Y-31925000D02*
X56762500Y-31925000D01*
X55425000Y-30150000D02*
X55425000Y-31425000D01*
X55425000Y-31425000D02*
X55925000Y-31925000D01*
%TO.N,/5V_FB*%
X56725000Y-104450000D02*
X54762500Y-104450000D01*
X56725000Y-104450000D02*
X56725000Y-103700000D01*
X57112500Y-102650000D02*
X57112500Y-103312500D01*
X54725000Y-104487500D02*
X52725000Y-104487500D01*
X54762500Y-104450000D02*
X54725000Y-104487500D01*
X57112500Y-103312500D02*
X56725000Y-103700000D01*
D64*
%TO.N,/5V_IN*%
X48712500Y-78200000D02*
X50600000Y-80087500D01*
X46025000Y-78200000D02*
X45975000Y-78150000D01*
X50800000Y-94600000D02*
X51020000Y-95000000D01*
X50600000Y-94400000D02*
X50800000Y-94600000D01*
X47612500Y-78150000D02*
X47662500Y-78200000D01*
X50600000Y-88400000D02*
X50600000Y-94400000D01*
X45975000Y-78150000D02*
X47612500Y-78150000D01*
X47662500Y-78200000D02*
X48712500Y-78200000D01*
X50600000Y-80087500D02*
X50600000Y-88400000D01*
D65*
%TO.N,/3V3_LTC_MODE*%
X61975000Y-60337500D02*
X61437500Y-59800000D01*
X62000000Y-68050000D02*
X61975000Y-68025000D01*
X63000000Y-68050000D02*
X62000000Y-68050000D01*
X61975000Y-68025000D02*
X61975000Y-60337500D01*
X61600000Y-59800000D02*
X59100000Y-59800000D01*
%TO.N,/3V3_LTC_Rt*%
X63000000Y-67550000D02*
X63000000Y-66850000D01*
X63000000Y-66850000D02*
X63300000Y-66550000D01*
X63300000Y-66550000D02*
X63300000Y-65712500D01*
%TO.N,/3V3_TSP_MODE*%
X81777500Y-71200000D02*
X82593750Y-71200000D01*
X85637500Y-69950000D02*
X85637500Y-67450000D01*
X85225000Y-70362500D02*
X85637500Y-69950000D01*
X82593750Y-71200000D02*
X83431250Y-70362500D01*
X83431250Y-70362500D02*
X85225000Y-70362500D01*
%TO.N,/3V3_TSP_FB*%
X81777500Y-72200000D02*
X85375000Y-72200000D01*
X85375000Y-74200000D02*
X85375000Y-72200000D01*
%TO.N,/3V3_TSP_LX1*%
X78087500Y-69962500D02*
X76487500Y-69962500D01*
D67*
X79325000Y-71200000D02*
X78087500Y-69962500D01*
X80297500Y-71200000D02*
X79325000Y-71200000D01*
D65*
%TO.N,/3V3_TSP_LX2*%
X78218750Y-72762500D02*
X76487500Y-72762500D01*
D67*
X79281250Y-71700000D02*
X78218750Y-72762500D01*
X80297500Y-71700000D02*
X79281250Y-71700000D01*
D64*
%TO.N,/PROT_DRAIN*%
X30525000Y-112550000D02*
X32800000Y-112550000D01*
%TO.N,/PROT_VDD*%
X32800000Y-109150000D02*
X33600000Y-109150000D01*
X34087500Y-108662500D02*
X34662500Y-108662500D01*
X34662500Y-107325000D02*
X34600000Y-107262500D01*
X33600000Y-109150000D02*
X34087500Y-108662500D01*
X34800000Y-108668750D02*
X34800000Y-107331250D01*
D66*
%TO.N,/L_CHRG_SENSE*%
X80675000Y-31181250D02*
X80675000Y-30143750D01*
X81162500Y-32781250D02*
X81162500Y-31668750D01*
D63*
X77917500Y-29918750D02*
X80450000Y-29918750D01*
D66*
X81162500Y-31668750D02*
X80675000Y-31181250D01*
D65*
%TO.N,/L_CHRG_EN*%
X83112500Y-32781250D02*
X83637500Y-32781250D01*
X83637500Y-32781250D02*
X83750000Y-32893750D01*
X86887500Y-33643750D02*
X86887500Y-33718750D01*
X83750000Y-32893750D02*
X86137500Y-32893750D01*
X86137500Y-32893750D02*
X86887500Y-33643750D01*
D66*
%TO.N,/L_CHRG_DRV*%
X80750000Y-37006250D02*
X79887500Y-36143750D01*
X76387500Y-31893750D02*
X74412500Y-29918750D01*
X78637500Y-31893750D02*
X76387500Y-31893750D01*
X74412500Y-29918750D02*
X73357500Y-29918750D01*
X81162500Y-37006250D02*
X80750000Y-37006250D01*
X79887500Y-36143750D02*
X79887500Y-33143750D01*
X79887500Y-33143750D02*
X78637500Y-31893750D01*
%TO.N,/L_CHRG_TIMER*%
X83500000Y-37006250D02*
X83112500Y-37006250D01*
X85137500Y-38200000D02*
X87137500Y-38200000D01*
X84387500Y-37893750D02*
X83500000Y-37006250D01*
D65*
%TO.N,/CHRG_ACPR*%
X38000000Y-54400000D02*
X38000000Y-54000000D01*
X53725000Y-33225000D02*
X52537500Y-33225000D01*
X54500000Y-34000000D02*
X53725000Y-33225000D01*
X32250000Y-60150000D02*
X38000000Y-54400000D01*
X54500000Y-38000000D02*
X54500000Y-34000000D01*
X32250000Y-85950000D02*
X32250000Y-60150000D01*
X30300000Y-86800000D02*
X31400000Y-86800000D01*
X31400000Y-86800000D02*
X32250000Y-85950000D01*
%TO.N,/CHRG_CHRG*%
X82462500Y-34068750D02*
X82462500Y-32781250D01*
X81522316Y-34393750D02*
X82137500Y-34393750D01*
X33200000Y-94300000D02*
X28675000Y-98825000D01*
X80779257Y-35141757D02*
X80779257Y-35136809D01*
X56762500Y-32575000D02*
X55775000Y-32575000D01*
X80779257Y-35136809D02*
X81522316Y-34393750D01*
X82137500Y-34393750D02*
X82462500Y-34068750D01*
X39000000Y-55000000D02*
X38800000Y-55000000D01*
X33200000Y-60600000D02*
X33200000Y-94300000D01*
X38800000Y-55000000D02*
X33200000Y-60600000D01*
X55175000Y-33175000D02*
X55175000Y-36675000D01*
X55775000Y-32575000D02*
X55175000Y-33175000D01*
X28675000Y-98825000D02*
X27000000Y-98825000D01*
%TO.N,/PROT_DO*%
X29112500Y-110100000D02*
X30525000Y-110100000D01*
X30525000Y-113500000D02*
X29112500Y-113500000D01*
X29112500Y-113500000D02*
X29062500Y-113550000D01*
X29062500Y-110150000D02*
X29112500Y-110100000D01*
%TO.N,/PROT_CO*%
X29150000Y-111600000D02*
X30525000Y-111600000D01*
X28200000Y-110650000D02*
X29150000Y-111600000D01*
X28200000Y-109550000D02*
X28200000Y-110650000D01*
X29550000Y-108200000D02*
X28200000Y-109550000D01*
X30525000Y-108200000D02*
X29550000Y-108200000D01*
%TO.N,/PROT_VM*%
X31262500Y-109150000D02*
X31662500Y-108750000D01*
X32575000Y-106350000D02*
X31662500Y-107262500D01*
X30525000Y-109150000D02*
X31262500Y-109150000D01*
X31662500Y-108750000D02*
X31662500Y-107262500D01*
%TO.N,Net-(D4-K)*%
X24000000Y-86550000D02*
X24312500Y-86862500D01*
X22952500Y-86550000D02*
X24000000Y-86550000D01*
X26975000Y-86862500D02*
X27000000Y-86887500D01*
X25250000Y-86862500D02*
X26975000Y-86862500D01*
X24312500Y-86862500D02*
X25250000Y-86862500D01*
%TO.N,Net-(D6-K)*%
X23962500Y-96587500D02*
X24375000Y-97000000D01*
X22952500Y-96587500D02*
X23962500Y-96587500D01*
X24375000Y-97000000D02*
X25250000Y-97000000D01*
X25250000Y-97000000D02*
X27000000Y-97000000D01*
D66*
%TO.N,Net-(D8-K)*%
X94575000Y-91200000D02*
X94575000Y-89225000D01*
D65*
X94575000Y-89225000D02*
X94550000Y-89200000D01*
%TO.N,Net-(J2-CC1)*%
X23817964Y-60362500D02*
X24671774Y-60362500D01*
X24671774Y-60362500D02*
X24921774Y-60612500D01*
%TO.N,Net-(J2-CC2)*%
X24671774Y-62362500D02*
X24921774Y-62112500D01*
X23817964Y-62362500D02*
X24671774Y-62362500D01*
%TO.N,Net-(JP7-Pad1)*%
X27000000Y-88712500D02*
X28762500Y-88712500D01*
X28912500Y-88712500D02*
X29000000Y-88800000D01*
X29000000Y-86800000D02*
X29000000Y-88800000D01*
%TO.N,Net-(R11-Pad2)*%
X60800000Y-63775000D02*
X60800000Y-62800000D01*
X60800000Y-62800000D02*
X61000000Y-62600000D01*
X61000000Y-62600000D02*
X61000000Y-61600000D01*
%TO.N,Net-(R12-Pad2)*%
X63300000Y-63887500D02*
X63300000Y-62462500D01*
%TO.N,Net-(R16-Pad1)*%
X87200000Y-76200000D02*
X87200000Y-74200000D01*
D66*
%TO.N,Net-(R30-Pad2)*%
X52725000Y-106312500D02*
X50725000Y-106312500D01*
%TO.N,Net-(C28-Pad1)*%
X57750000Y-30250000D02*
X58950000Y-29050000D01*
X57175000Y-30250000D02*
X57750000Y-30250000D01*
X58950000Y-29050000D02*
X59600000Y-29050000D01*
D65*
%TO.N,Net-(C11-Pad1)*%
X56962500Y-63737500D02*
X57000000Y-63775000D01*
X55000000Y-63737500D02*
X56962500Y-63737500D01*
X53200000Y-63737500D02*
X55000000Y-63737500D01*
D66*
%TO.N,Net-(C27-Pad1)*%
X49725000Y-29475000D02*
X50587500Y-30337500D01*
D65*
X49725000Y-28925000D02*
X49725000Y-29475000D01*
X50587500Y-30337500D02*
X50587500Y-30925000D01*
%TD*%
%TA.AperFunction,Conductor*%
%TO.N,/BATT_3V3_FILTER*%
G36*
X79979621Y-65220002D02*
G01*
X80026114Y-65273658D01*
X80037500Y-65326000D01*
X80037500Y-69450001D01*
X80524198Y-70423396D01*
X80537500Y-70479745D01*
X80537500Y-70723500D01*
X80517498Y-70791621D01*
X80463842Y-70838114D01*
X80411500Y-70849500D01*
X79803192Y-70849500D01*
X79735071Y-70829498D01*
X79693793Y-70786013D01*
X78804101Y-69229051D01*
X78787500Y-69166538D01*
X78787500Y-65326000D01*
X78807502Y-65257879D01*
X78861158Y-65211386D01*
X78913500Y-65200000D01*
X79911500Y-65200000D01*
X79979621Y-65220002D01*
G37*
%TD.AperFunction*%
%TD*%
%TA.AperFunction,Conductor*%
%TO.N,/5V_SW*%
G36*
X56892121Y-94320002D02*
G01*
X56938614Y-94373658D01*
X56950000Y-94426000D01*
X56950000Y-96500001D01*
X57749998Y-97299999D01*
X57750000Y-97300000D01*
X59224000Y-97300000D01*
X59292121Y-97320002D01*
X59338614Y-97373658D01*
X59350000Y-97426000D01*
X59350000Y-98524000D01*
X59329998Y-98592121D01*
X59276342Y-98638614D01*
X59224000Y-98650000D01*
X58350000Y-98650000D01*
X58349999Y-98650000D01*
X58349997Y-98650001D01*
X57725001Y-99099998D01*
X57725000Y-99100000D01*
X57725000Y-100824000D01*
X57704998Y-100892121D01*
X57651342Y-100938614D01*
X57599000Y-100950000D01*
X56601000Y-100950000D01*
X56532879Y-100929998D01*
X56486386Y-100876342D01*
X56475000Y-100824000D01*
X56475000Y-99700001D01*
X56474999Y-99699999D01*
X55384078Y-98536348D01*
X55352080Y-98472972D01*
X55350000Y-98450172D01*
X55350000Y-94426000D01*
X55370002Y-94357879D01*
X55423658Y-94311386D01*
X55476000Y-94300000D01*
X56824000Y-94300000D01*
X56892121Y-94320002D01*
G37*
%TD.AperFunction*%
%TD*%
%TA.AperFunction,Conductor*%
%TO.N,+BATT*%
G36*
X99942121Y-20520002D02*
G01*
X99988614Y-20573658D01*
X100000000Y-20626000D01*
X100000000Y-53124000D01*
X99979998Y-53192121D01*
X99926342Y-53238614D01*
X99874000Y-53250000D01*
X36376000Y-53250000D01*
X36307879Y-53229998D01*
X36261386Y-53176342D01*
X36250000Y-53124000D01*
X36250000Y-42400000D01*
X52769454Y-42400000D01*
X52789613Y-42681864D01*
X52849678Y-42957977D01*
X52849680Y-42957984D01*
X52898409Y-43088634D01*
X52948431Y-43222748D01*
X52948433Y-43222752D01*
X53083857Y-43470761D01*
X53253200Y-43696979D01*
X53253208Y-43696988D01*
X53453011Y-43896791D01*
X53453020Y-43896799D01*
X53566768Y-43981948D01*
X53679236Y-44066141D01*
X53927251Y-44201568D01*
X54192016Y-44300320D01*
X54468139Y-44360387D01*
X54679447Y-44375500D01*
X54679453Y-44375500D01*
X54820547Y-44375500D01*
X54820553Y-44375500D01*
X55031861Y-44360387D01*
X55307984Y-44300320D01*
X55572749Y-44201568D01*
X55820764Y-44066141D01*
X56046982Y-43896797D01*
X56246797Y-43696982D01*
X56416141Y-43470764D01*
X56551568Y-43222749D01*
X56650320Y-42957984D01*
X56710387Y-42681861D01*
X56730546Y-42400000D01*
X76769454Y-42400000D01*
X76789613Y-42681864D01*
X76849678Y-42957977D01*
X76849680Y-42957984D01*
X76898409Y-43088634D01*
X76948431Y-43222748D01*
X76948433Y-43222752D01*
X77083857Y-43470761D01*
X77253200Y-43696979D01*
X77253208Y-43696988D01*
X77453011Y-43896791D01*
X77453020Y-43896799D01*
X77566768Y-43981948D01*
X77679236Y-44066141D01*
X77927251Y-44201568D01*
X78192016Y-44300320D01*
X78468139Y-44360387D01*
X78679447Y-44375500D01*
X78679453Y-44375500D01*
X78820547Y-44375500D01*
X78820553Y-44375500D01*
X79031861Y-44360387D01*
X79307984Y-44300320D01*
X79572749Y-44201568D01*
X79820764Y-44066141D01*
X80046982Y-43896797D01*
X80246797Y-43696982D01*
X80416141Y-43470764D01*
X80551568Y-43222749D01*
X80650320Y-42957984D01*
X80710387Y-42681861D01*
X80730546Y-42400000D01*
X80710387Y-42118139D01*
X80650320Y-41842016D01*
X80551568Y-41577251D01*
X80416141Y-41329236D01*
X80331948Y-41216768D01*
X80246799Y-41103020D01*
X80246791Y-41103011D01*
X80046988Y-40903208D01*
X80046979Y-40903200D01*
X79820761Y-40733857D01*
X79572752Y-40598433D01*
X79572748Y-40598431D01*
X79438634Y-40548409D01*
X79307984Y-40499680D01*
X79307980Y-40499679D01*
X79307977Y-40499678D01*
X79031863Y-40439613D01*
X79031864Y-40439613D01*
X78961425Y-40434575D01*
X78820553Y-40424500D01*
X78679447Y-40424500D01*
X78552662Y-40433567D01*
X78468135Y-40439613D01*
X78192022Y-40499678D01*
X78192017Y-40499679D01*
X78192016Y-40499680D01*
X78141141Y-40518655D01*
X77927251Y-40598431D01*
X77927247Y-40598433D01*
X77679238Y-40733857D01*
X77453020Y-40903200D01*
X77453011Y-40903208D01*
X77253208Y-41103011D01*
X77253200Y-41103020D01*
X77083857Y-41329238D01*
X76948433Y-41577247D01*
X76948431Y-41577251D01*
X76849678Y-41842022D01*
X76789613Y-42118135D01*
X76769454Y-42400000D01*
X56730546Y-42400000D01*
X56710387Y-42118139D01*
X56650320Y-41842016D01*
X56551568Y-41577251D01*
X56416141Y-41329236D01*
X56331948Y-41216768D01*
X56246799Y-41103020D01*
X56246791Y-41103011D01*
X56046988Y-40903208D01*
X56046979Y-40903200D01*
X55820761Y-40733857D01*
X55572752Y-40598433D01*
X55572748Y-40598431D01*
X55438634Y-40548409D01*
X55307984Y-40499680D01*
X55307980Y-40499679D01*
X55307977Y-40499678D01*
X55031863Y-40439613D01*
X55031864Y-40439613D01*
X54961425Y-40434575D01*
X54820553Y-40424500D01*
X54679447Y-40424500D01*
X54552662Y-40433567D01*
X54468135Y-40439613D01*
X54192022Y-40499678D01*
X54192017Y-40499679D01*
X54192016Y-40499680D01*
X54141141Y-40518655D01*
X53927251Y-40598431D01*
X53927247Y-40598433D01*
X53679238Y-40733857D01*
X53453020Y-40903200D01*
X53453011Y-40903208D01*
X53253208Y-41103011D01*
X53253200Y-41103020D01*
X53083857Y-41329238D01*
X52948433Y-41577247D01*
X52948431Y-41577251D01*
X52849678Y-41842022D01*
X52789613Y-42118135D01*
X52769454Y-42400000D01*
X36250000Y-42400000D01*
X36250000Y-28751500D01*
X36270002Y-28683379D01*
X36323658Y-28636886D01*
X36376000Y-28625500D01*
X46998500Y-28625500D01*
X47066621Y-28645502D01*
X47113114Y-28699158D01*
X47124500Y-28751500D01*
X47124500Y-32034806D01*
X47124500Y-32215194D01*
X47133782Y-32255865D01*
X47134960Y-32262802D01*
X47139632Y-32304255D01*
X47139632Y-32304257D01*
X47139633Y-32304259D01*
X47153401Y-32343608D01*
X47155357Y-32350399D01*
X47164638Y-32391055D01*
X47164642Y-32391065D01*
X47182732Y-32428632D01*
X47185437Y-32435162D01*
X47199208Y-32474516D01*
X47201795Y-32479888D01*
X47213329Y-32549942D01*
X47185159Y-32615110D01*
X47126227Y-32654703D01*
X47057341Y-32656701D01*
X46988738Y-32639328D01*
X46809789Y-32624500D01*
X46809787Y-32624500D01*
X46690213Y-32624500D01*
X46690211Y-32624500D01*
X46656880Y-32627262D01*
X46511263Y-32639328D01*
X46511260Y-32639328D01*
X46511257Y-32639329D01*
X46279038Y-32698135D01*
X46279034Y-32698137D01*
X46059660Y-32794363D01*
X45859116Y-32925385D01*
X45682868Y-33087631D01*
X45538795Y-33272738D01*
X45535729Y-33276677D01*
X45421782Y-33487231D01*
X45421711Y-33487363D01*
X45343931Y-33713930D01*
X45343929Y-33713937D01*
X45325405Y-33824945D01*
X45304500Y-33950222D01*
X45304500Y-34189778D01*
X45326615Y-34322303D01*
X45343929Y-34426062D01*
X45343931Y-34426069D01*
X45415183Y-34633621D01*
X45421713Y-34652641D01*
X45535729Y-34863323D01*
X45682866Y-35052366D01*
X45859113Y-35214612D01*
X45859115Y-35214613D01*
X45859116Y-35214614D01*
X46059660Y-35345636D01*
X46059659Y-35345636D01*
X46200324Y-35407337D01*
X46279038Y-35441864D01*
X46511263Y-35500672D01*
X46672437Y-35514027D01*
X46690211Y-35515500D01*
X46690213Y-35515500D01*
X46809789Y-35515500D01*
X46826721Y-35514096D01*
X46988737Y-35500672D01*
X47220962Y-35441864D01*
X47440340Y-35345636D01*
X47640887Y-35214612D01*
X47817134Y-35052366D01*
X47964271Y-34863323D01*
X48078287Y-34652641D01*
X48156070Y-34426065D01*
X48195500Y-34189778D01*
X48195500Y-33950222D01*
X48194719Y-33945543D01*
X48175584Y-33830872D01*
X48184100Y-33760388D01*
X48229372Y-33705698D01*
X48297024Y-33684165D01*
X48365578Y-33702626D01*
X48388960Y-33721038D01*
X49375095Y-34707173D01*
X49409121Y-34769485D01*
X49412000Y-34796268D01*
X49412000Y-35880046D01*
X49412000Y-38219954D01*
X49427132Y-38354255D01*
X49437485Y-38383842D01*
X49442429Y-38397971D01*
X49449500Y-38439586D01*
X49449500Y-38854266D01*
X49452354Y-38884700D01*
X49452355Y-38884704D01*
X49497206Y-39012881D01*
X49497208Y-39012885D01*
X49577849Y-39122150D01*
X49687114Y-39202791D01*
X49687118Y-39202793D01*
X49815301Y-39247646D01*
X49845734Y-39250500D01*
X49845736Y-39250500D01*
X50579264Y-39250500D01*
X50579266Y-39250500D01*
X50609699Y-39247646D01*
X50737882Y-39202793D01*
X50775518Y-39175017D01*
X50847150Y-39122150D01*
X50927791Y-39012885D01*
X50927793Y-39012881D01*
X50930098Y-39006296D01*
X50972646Y-38884699D01*
X50975500Y-38854266D01*
X50975500Y-38439586D01*
X50982571Y-38397971D01*
X50987515Y-38383842D01*
X50997868Y-38354255D01*
X51013000Y-38219954D01*
X51013000Y-35880046D01*
X51013000Y-34367546D01*
X51013000Y-34322306D01*
X51013000Y-34322303D01*
X51004575Y-34285395D01*
X51003718Y-34281641D01*
X51002537Y-34274691D01*
X50997868Y-34233245D01*
X50984089Y-34193867D01*
X50982139Y-34187095D01*
X50981145Y-34182739D01*
X50972860Y-34146439D01*
X50954763Y-34108860D01*
X50952062Y-34102338D01*
X50938289Y-34062978D01*
X50916093Y-34027654D01*
X50912689Y-34021493D01*
X50894592Y-33983914D01*
X50894590Y-33983911D01*
X50868591Y-33951309D01*
X50864499Y-33945543D01*
X50854404Y-33929476D01*
X50842316Y-33910238D01*
X50714762Y-33782684D01*
X50713330Y-33781252D01*
X50679304Y-33718940D01*
X50684369Y-33648125D01*
X50713327Y-33603064D01*
X51303989Y-33012404D01*
X51366301Y-32978379D01*
X51393084Y-32975500D01*
X51398500Y-32975500D01*
X51466621Y-32995502D01*
X51513114Y-33049158D01*
X51524500Y-33101500D01*
X51524500Y-33369860D01*
X51524501Y-33369866D01*
X51527414Y-33394989D01*
X51527416Y-33394994D01*
X51543156Y-33430642D01*
X51552374Y-33501038D01*
X51522069Y-33565242D01*
X51517850Y-33569671D01*
X51517472Y-33570165D01*
X51472823Y-33649986D01*
X51452827Y-33718091D01*
X51452824Y-33718104D01*
X51446832Y-33759784D01*
X51444500Y-33776002D01*
X51444500Y-34103315D01*
X51445090Y-34114311D01*
X51445090Y-34114312D01*
X51448543Y-34146442D01*
X51448556Y-34146555D01*
X51472517Y-34223080D01*
X51504502Y-34281655D01*
X51506545Y-34285395D01*
X51541589Y-34332207D01*
X51541594Y-34332213D01*
X51541595Y-34332214D01*
X52182595Y-34973214D01*
X52216619Y-35035525D01*
X52219499Y-35062308D01*
X52219499Y-39048994D01*
X52219500Y-39049006D01*
X52220893Y-39061960D01*
X52224196Y-39092681D01*
X52235582Y-39145023D01*
X52238070Y-39155203D01*
X52281079Y-39235916D01*
X52291242Y-39247645D01*
X52327568Y-39289568D01*
X52345166Y-39307528D01*
X52424986Y-39352176D01*
X52483524Y-39369363D01*
X52493104Y-39372176D01*
X52551000Y-39380500D01*
X52551003Y-39380500D01*
X53548994Y-39380500D01*
X53549000Y-39380500D01*
X53592681Y-39375804D01*
X53645023Y-39364418D01*
X53655203Y-39361930D01*
X53735916Y-39318921D01*
X53778420Y-39282091D01*
X53789569Y-39272431D01*
X53789568Y-39272432D01*
X53790883Y-39271142D01*
X53807527Y-39254835D01*
X53852174Y-39175017D01*
X53852174Y-39175016D01*
X53852176Y-39175013D01*
X53868695Y-39118750D01*
X72229500Y-39118750D01*
X72229500Y-39467347D01*
X72236005Y-39527843D01*
X72287055Y-39664714D01*
X72287055Y-39664715D01*
X72374595Y-39781654D01*
X72491534Y-39869194D01*
X72628406Y-39920244D01*
X72688902Y-39926749D01*
X72688915Y-39926750D01*
X72737500Y-39926750D01*
X72737500Y-39118750D01*
X78537500Y-39118750D01*
X78537500Y-39926750D01*
X78586085Y-39926750D01*
X78586097Y-39926749D01*
X78646593Y-39920244D01*
X78717627Y-39893750D01*
X80179500Y-39893750D01*
X80179500Y-39919266D01*
X80190105Y-40023068D01*
X80190106Y-40023071D01*
X80245842Y-40191275D01*
X80338865Y-40342089D01*
X80338870Y-40342095D01*
X80464154Y-40467379D01*
X80464160Y-40467384D01*
X80614974Y-40560407D01*
X80687500Y-40584439D01*
X80687500Y-39893750D01*
X80179500Y-39893750D01*
X78717627Y-39893750D01*
X78783464Y-39869194D01*
X78783465Y-39869194D01*
X78900404Y-39781654D01*
X78987944Y-39664715D01*
X78987944Y-39664714D01*
X79038994Y-39527843D01*
X79045499Y-39467347D01*
X79045500Y-39467335D01*
X79045500Y-39118750D01*
X78537500Y-39118750D01*
X72737500Y-39118750D01*
X72229500Y-39118750D01*
X53868695Y-39118750D01*
X53872176Y-39106896D01*
X53880500Y-39049000D01*
X53880500Y-38955107D01*
X53887571Y-38913492D01*
X53892117Y-38900499D01*
X53897646Y-38884699D01*
X53900500Y-38854266D01*
X53900500Y-38552404D01*
X53920502Y-38484283D01*
X53974158Y-38437790D01*
X54044432Y-38427686D01*
X54103204Y-38452442D01*
X54185978Y-38515957D01*
X54197159Y-38524536D01*
X54343238Y-38585044D01*
X54500000Y-38605682D01*
X54656762Y-38585044D01*
X54802841Y-38524536D01*
X54928282Y-38428282D01*
X55024536Y-38302841D01*
X55085044Y-38156762D01*
X55105682Y-38000000D01*
X55101858Y-37970957D01*
X55085044Y-37843239D01*
X55062472Y-37788744D01*
X55024536Y-37697159D01*
X54928282Y-37571718D01*
X54928280Y-37571716D01*
X54928279Y-37571715D01*
X54874796Y-37530676D01*
X54832929Y-37473338D01*
X54825500Y-37430714D01*
X54825500Y-37348277D01*
X54845502Y-37280156D01*
X54899158Y-37233663D01*
X54969432Y-37223559D01*
X54999714Y-37231867D01*
X55067738Y-37260044D01*
X55224500Y-37280682D01*
X55381262Y-37260044D01*
X55527341Y-37199536D01*
X55652782Y-37103282D01*
X55749036Y-36977841D01*
X55809544Y-36831762D01*
X55830182Y-36675000D01*
X55824335Y-36630591D01*
X55809544Y-36518239D01*
X55761840Y-36403070D01*
X55749036Y-36372159D01*
X55652782Y-36246718D01*
X55652780Y-36246716D01*
X55652779Y-36246715D01*
X55549796Y-36167693D01*
X55507929Y-36110355D01*
X55500500Y-36067731D01*
X55500500Y-34654266D01*
X58674500Y-34654266D01*
X58677354Y-34684700D01*
X58677355Y-34684704D01*
X58722206Y-34812881D01*
X58722208Y-34812885D01*
X58802849Y-34922150D01*
X58912114Y-35002791D01*
X58912118Y-35002793D01*
X58963129Y-35020643D01*
X59020821Y-35062021D01*
X59046983Y-35128022D01*
X59037923Y-35187789D01*
X59014956Y-35243237D01*
X58994318Y-35399999D01*
X58994318Y-35400000D01*
X59014955Y-35556760D01*
X59071157Y-35692442D01*
X59075464Y-35702841D01*
X59171718Y-35828282D01*
X59297159Y-35924536D01*
X59443238Y-35985044D01*
X59600000Y-36005682D01*
X59756762Y-35985044D01*
X59902841Y-35924536D01*
X60028282Y-35828282D01*
X60124536Y-35702841D01*
X60185044Y-35556762D01*
X60205682Y-35400000D01*
X60185044Y-35243238D01*
X60162075Y-35187787D01*
X60154487Y-35117201D01*
X60186266Y-35053714D01*
X60236870Y-35020643D01*
X60266948Y-35010118D01*
X60287882Y-35002793D01*
X60397150Y-34922150D01*
X60477793Y-34812882D01*
X60522646Y-34684699D01*
X60525500Y-34654266D01*
X60525500Y-34189778D01*
X69304500Y-34189778D01*
X69326615Y-34322303D01*
X69343929Y-34426062D01*
X69343931Y-34426069D01*
X69415183Y-34633621D01*
X69421713Y-34652641D01*
X69535729Y-34863323D01*
X69682866Y-35052366D01*
X69859113Y-35214612D01*
X69859115Y-35214613D01*
X69859116Y-35214614D01*
X70059660Y-35345636D01*
X70059659Y-35345636D01*
X70200324Y-35407337D01*
X70279038Y-35441864D01*
X70511263Y-35500672D01*
X70672437Y-35514027D01*
X70690211Y-35515500D01*
X70690213Y-35515500D01*
X70809789Y-35515500D01*
X70826721Y-35514096D01*
X70988737Y-35500672D01*
X71220962Y-35441864D01*
X71440340Y-35345636D01*
X71640887Y-35214612D01*
X71817134Y-35052366D01*
X71964271Y-34863323D01*
X72078287Y-34652641D01*
X72156070Y-34426065D01*
X72195500Y-34189778D01*
X72195500Y-33950222D01*
X72156070Y-33713935D01*
X72127391Y-33630395D01*
X72077705Y-33485662D01*
X72074505Y-33414737D01*
X72086679Y-33393772D01*
X72085568Y-33393932D01*
X72020988Y-33364438D01*
X71992687Y-33329184D01*
X71987040Y-33318750D01*
X72214955Y-33318750D01*
X72737500Y-33318750D01*
X72737500Y-32510750D01*
X72688902Y-32510750D01*
X72628406Y-32517255D01*
X72491535Y-32568305D01*
X72491534Y-32568305D01*
X72374595Y-32655845D01*
X72287055Y-32772784D01*
X72287055Y-32772785D01*
X72236005Y-32909656D01*
X72229500Y-32970152D01*
X72229500Y-33269214D01*
X72214955Y-33318750D01*
X71987040Y-33318750D01*
X71964274Y-33276682D01*
X71964270Y-33276676D01*
X71817134Y-33087634D01*
X71810302Y-33081345D01*
X71724964Y-33002786D01*
X71640887Y-32925388D01*
X71640884Y-32925386D01*
X71640883Y-32925385D01*
X71440339Y-32794363D01*
X71440340Y-32794363D01*
X71220965Y-32698137D01*
X71220961Y-32698135D01*
X70988742Y-32639329D01*
X70988740Y-32639328D01*
X70988737Y-32639328D01*
X70843120Y-32627262D01*
X70809789Y-32624500D01*
X70809787Y-32624500D01*
X70690213Y-32624500D01*
X70690211Y-32624500D01*
X70656880Y-32627262D01*
X70511263Y-32639328D01*
X70511260Y-32639328D01*
X70511257Y-32639329D01*
X70279038Y-32698135D01*
X70279034Y-32698137D01*
X70059660Y-32794363D01*
X69859116Y-32925385D01*
X69682868Y-33087631D01*
X69538795Y-33272738D01*
X69535729Y-33276677D01*
X69421782Y-33487231D01*
X69421711Y-33487363D01*
X69343931Y-33713930D01*
X69343929Y-33713937D01*
X69325405Y-33824945D01*
X69304500Y-33950222D01*
X69304500Y-34189778D01*
X60525500Y-34189778D01*
X60525500Y-34045734D01*
X60522646Y-34015301D01*
X60520200Y-34008312D01*
X60477793Y-33887118D01*
X60477791Y-33887114D01*
X60397150Y-33777849D01*
X60287885Y-33697208D01*
X60287881Y-33697206D01*
X60159704Y-33652355D01*
X60159700Y-33652354D01*
X60129266Y-33649500D01*
X59070734Y-33649500D01*
X59070733Y-33649500D01*
X59040299Y-33652354D01*
X59040295Y-33652355D01*
X58912118Y-33697206D01*
X58912114Y-33697208D01*
X58802849Y-33777849D01*
X58722208Y-33887114D01*
X58722206Y-33887118D01*
X58677355Y-34015295D01*
X58677354Y-34015299D01*
X58674500Y-34045733D01*
X58674500Y-34654266D01*
X55500500Y-34654266D01*
X55500500Y-34575223D01*
X55520502Y-34507102D01*
X55574158Y-34460609D01*
X55644432Y-34450505D01*
X55703205Y-34475261D01*
X55743374Y-34506084D01*
X55743378Y-34506087D01*
X55891281Y-34567350D01*
X56010155Y-34582999D01*
X56562500Y-34582999D01*
X56562500Y-34075000D01*
X56962500Y-34075000D01*
X56962500Y-34582999D01*
X57514846Y-34582999D01*
X57514854Y-34582998D01*
X57633718Y-34567349D01*
X57633719Y-34567349D01*
X57781621Y-34506087D01*
X57781629Y-34506082D01*
X57908630Y-34408630D01*
X58006082Y-34281629D01*
X58006087Y-34281621D01*
X58067350Y-34133718D01*
X58075081Y-34075000D01*
X56962500Y-34075000D01*
X56562500Y-34075000D01*
X56562500Y-33801000D01*
X56582502Y-33732879D01*
X56636158Y-33686386D01*
X56688500Y-33675000D01*
X58075080Y-33675000D01*
X58080849Y-33668422D01*
X58140803Y-33630395D01*
X58175580Y-33625500D01*
X58238431Y-33625500D01*
X58238433Y-33625500D01*
X58259360Y-33618700D01*
X58278569Y-33614088D01*
X58300304Y-33610646D01*
X58319910Y-33600655D01*
X58338161Y-33593095D01*
X58359090Y-33586296D01*
X58376891Y-33573362D01*
X58393741Y-33563036D01*
X58413342Y-33553050D01*
X58428717Y-33537673D01*
X58428726Y-33537667D01*
X58480731Y-33485662D01*
X58820194Y-33146197D01*
X58882504Y-33112174D01*
X58950903Y-33116365D01*
X59040295Y-33147644D01*
X59040301Y-33147646D01*
X59070734Y-33150500D01*
X59070736Y-33150500D01*
X60129264Y-33150500D01*
X60129266Y-33150500D01*
X60159699Y-33147646D01*
X60287882Y-33102793D01*
X60289281Y-33101761D01*
X60397150Y-33022150D01*
X60477791Y-32912885D01*
X60477793Y-32912881D01*
X60478922Y-32909656D01*
X60522646Y-32784699D01*
X60525500Y-32754266D01*
X60525500Y-32145734D01*
X60522646Y-32115301D01*
X60477793Y-31987118D01*
X60477791Y-31987114D01*
X60397150Y-31877849D01*
X60293536Y-31801379D01*
X60250604Y-31744834D01*
X60245057Y-31674055D01*
X60278658Y-31611513D01*
X60293536Y-31598621D01*
X60397150Y-31522150D01*
X60477791Y-31412885D01*
X60477793Y-31412881D01*
X60482305Y-31399988D01*
X60522646Y-31284699D01*
X60525500Y-31254266D01*
X60525500Y-30645734D01*
X60522646Y-30615301D01*
X60508650Y-30575304D01*
X60477793Y-30487118D01*
X60477791Y-30487114D01*
X60397150Y-30377849D01*
X60287885Y-30297208D01*
X60287881Y-30297206D01*
X60159704Y-30252355D01*
X60159700Y-30252354D01*
X60129266Y-30249500D01*
X59070734Y-30249500D01*
X59070733Y-30249500D01*
X59040299Y-30252354D01*
X59040295Y-30252355D01*
X58912118Y-30297206D01*
X58912114Y-30297208D01*
X58802849Y-30377849D01*
X58722208Y-30487114D01*
X58722206Y-30487118D01*
X58677355Y-30615295D01*
X58677354Y-30615299D01*
X58674500Y-30645733D01*
X58674500Y-31254266D01*
X58677354Y-31284700D01*
X58677355Y-31284704D01*
X58722206Y-31412881D01*
X58722208Y-31412885D01*
X58802848Y-31522148D01*
X58802849Y-31522148D01*
X58802850Y-31522150D01*
X58830834Y-31542803D01*
X58906464Y-31598621D01*
X58949396Y-31655166D01*
X58954942Y-31725946D01*
X58921341Y-31788488D01*
X58906464Y-31801379D01*
X58802848Y-31877851D01*
X58722208Y-31987114D01*
X58722206Y-31987118D01*
X58677355Y-32115295D01*
X58675718Y-32122791D01*
X58674472Y-32122518D01*
X58651074Y-32181238D01*
X58641002Y-32192605D01*
X58046010Y-32787596D01*
X57983700Y-32821620D01*
X57956917Y-32824500D01*
X57901500Y-32824500D01*
X57833379Y-32804498D01*
X57786886Y-32750842D01*
X57775500Y-32698500D01*
X57775499Y-32430139D01*
X57775499Y-32430136D01*
X57772585Y-32405009D01*
X57727206Y-32302235D01*
X57727204Y-32302233D01*
X57726613Y-32300894D01*
X57717395Y-32230498D01*
X57726613Y-32199104D01*
X57727202Y-32197768D01*
X57727206Y-32197765D01*
X57772585Y-32094991D01*
X57775500Y-32069865D01*
X57775499Y-31780136D01*
X57772585Y-31755009D01*
X57747038Y-31697150D01*
X57727206Y-31652234D01*
X57647767Y-31572795D01*
X57647765Y-31572794D01*
X57544989Y-31527414D01*
X57544990Y-31527414D01*
X57519870Y-31524500D01*
X57519865Y-31524500D01*
X56794022Y-31524500D01*
X56794019Y-31524500D01*
X56143083Y-31524500D01*
X56074962Y-31504498D01*
X56053988Y-31487595D01*
X55862405Y-31296012D01*
X55828379Y-31233700D01*
X55825500Y-31206917D01*
X55825500Y-30878079D01*
X55845502Y-30809958D01*
X55894298Y-30765812D01*
X55895986Y-30764951D01*
X55928220Y-30748528D01*
X56023528Y-30653220D01*
X56084719Y-30533126D01*
X56092893Y-30481516D01*
X56499500Y-30481516D01*
X56514353Y-30575302D01*
X56571949Y-30688342D01*
X56661657Y-30778050D01*
X56685857Y-30790380D01*
X56774696Y-30835646D01*
X56868481Y-30850500D01*
X57481518Y-30850499D01*
X57575304Y-30835646D01*
X57688342Y-30778050D01*
X57735816Y-30730576D01*
X57785062Y-30681331D01*
X57785989Y-30682258D01*
X57834201Y-30645074D01*
X57860214Y-30638035D01*
X57875304Y-30635646D01*
X57894910Y-30625655D01*
X57913161Y-30618095D01*
X57934090Y-30611296D01*
X57951891Y-30598362D01*
X57968741Y-30588036D01*
X57988342Y-30578050D01*
X58003717Y-30562673D01*
X58003726Y-30562667D01*
X58197384Y-30369009D01*
X58820194Y-29746197D01*
X58882505Y-29712174D01*
X58950903Y-29716365D01*
X59040295Y-29747644D01*
X59040301Y-29747646D01*
X59070734Y-29750500D01*
X59070736Y-29750500D01*
X60129264Y-29750500D01*
X60129266Y-29750500D01*
X60159699Y-29747646D01*
X60287882Y-29702793D01*
X60292869Y-29699113D01*
X60397150Y-29622150D01*
X60477791Y-29512885D01*
X60477793Y-29512881D01*
X60482914Y-29498248D01*
X60522646Y-29384699D01*
X60525500Y-29354266D01*
X60525500Y-28745734D01*
X60522646Y-28715301D01*
X60508263Y-28674198D01*
X60477793Y-28587118D01*
X60477791Y-28587114D01*
X60397150Y-28477849D01*
X60287885Y-28397208D01*
X60287881Y-28397206D01*
X60159704Y-28352355D01*
X60159700Y-28352354D01*
X60129266Y-28349500D01*
X59070734Y-28349500D01*
X59070733Y-28349500D01*
X59040299Y-28352354D01*
X59040295Y-28352355D01*
X58912118Y-28397206D01*
X58912114Y-28397208D01*
X58802849Y-28477849D01*
X58722208Y-28587114D01*
X58722206Y-28587118D01*
X58677355Y-28715295D01*
X58675718Y-28722791D01*
X58674471Y-28722518D01*
X58651073Y-28781238D01*
X58641001Y-28792604D01*
X57768518Y-29665087D01*
X57706206Y-29699113D01*
X57635391Y-29694048D01*
X57622220Y-29688259D01*
X57610309Y-29682190D01*
X57575304Y-29664354D01*
X57481519Y-29649500D01*
X57481515Y-29649500D01*
X56868483Y-29649500D01*
X56774697Y-29664353D01*
X56661657Y-29721949D01*
X56571949Y-29811657D01*
X56517384Y-29918749D01*
X56514354Y-29924696D01*
X56504392Y-29987595D01*
X56499500Y-30018484D01*
X56499500Y-30481516D01*
X56092893Y-30481516D01*
X56100500Y-30433488D01*
X56100500Y-29866512D01*
X56084719Y-29766874D01*
X56023528Y-29646780D01*
X55928220Y-29551472D01*
X55928219Y-29551471D01*
X55894297Y-29534187D01*
X55842682Y-29485438D01*
X55825500Y-29421920D01*
X55825500Y-29403079D01*
X55845502Y-29334958D01*
X55894298Y-29290812D01*
X55895986Y-29289951D01*
X55928220Y-29273528D01*
X56023528Y-29178220D01*
X56084719Y-29058126D01*
X56100500Y-28958488D01*
X56100500Y-28391512D01*
X56084719Y-28291874D01*
X56023528Y-28171780D01*
X55928220Y-28076472D01*
X55928219Y-28076471D01*
X55825212Y-28023987D01*
X55808126Y-28015281D01*
X55708488Y-27999500D01*
X55191512Y-27999500D01*
X55091874Y-28015281D01*
X55091872Y-28015281D01*
X55091872Y-28015282D01*
X54971780Y-28076471D01*
X54876471Y-28171780D01*
X54824033Y-28274697D01*
X54815281Y-28291874D01*
X54799988Y-28388431D01*
X54799449Y-28391837D01*
X54769036Y-28455990D01*
X54708768Y-28493517D01*
X54637779Y-28492503D01*
X54578607Y-28453270D01*
X54550551Y-28391837D01*
X54550012Y-28388431D01*
X54534719Y-28291874D01*
X54473528Y-28171780D01*
X54378220Y-28076472D01*
X54378219Y-28076471D01*
X54275212Y-28023987D01*
X54258126Y-28015281D01*
X54158488Y-27999500D01*
X53641512Y-27999500D01*
X53541874Y-28015281D01*
X53541872Y-28015281D01*
X53541872Y-28015282D01*
X53421780Y-28076471D01*
X53326471Y-28171780D01*
X53274033Y-28274697D01*
X53265281Y-28291874D01*
X53249988Y-28388431D01*
X53249500Y-28391515D01*
X53249500Y-28453851D01*
X53229498Y-28521972D01*
X53175842Y-28568465D01*
X53105568Y-28578569D01*
X53093347Y-28576190D01*
X52985059Y-28549500D01*
X52985056Y-28549500D01*
X52814944Y-28549500D01*
X52814940Y-28549500D01*
X52649778Y-28590208D01*
X52649773Y-28590210D01*
X52510056Y-28663541D01*
X52440442Y-28677488D01*
X52374340Y-28651585D01*
X52332735Y-28594056D01*
X52325500Y-28551974D01*
X52325500Y-28395735D01*
X52325500Y-28395734D01*
X52322646Y-28365301D01*
X52316240Y-28346995D01*
X52277793Y-28237118D01*
X52277791Y-28237114D01*
X52197150Y-28127849D01*
X52087885Y-28047208D01*
X52087881Y-28047206D01*
X51959704Y-28002355D01*
X51959700Y-28002354D01*
X51929266Y-27999500D01*
X51320734Y-27999500D01*
X51320733Y-27999500D01*
X51290299Y-28002354D01*
X51290295Y-28002355D01*
X51162118Y-28047206D01*
X51162114Y-28047208D01*
X51052849Y-28127849D01*
X50972208Y-28237114D01*
X50972206Y-28237118D01*
X50927355Y-28365295D01*
X50927354Y-28365299D01*
X50924500Y-28395733D01*
X50924500Y-29454266D01*
X50927354Y-29484700D01*
X50927355Y-29484704D01*
X50972206Y-29612881D01*
X50972208Y-29612885D01*
X51052849Y-29722150D01*
X51162114Y-29802791D01*
X51162118Y-29802793D01*
X51198998Y-29815698D01*
X51290301Y-29847646D01*
X51320734Y-29850500D01*
X51320736Y-29850500D01*
X51929264Y-29850500D01*
X51929266Y-29850500D01*
X51959699Y-29847646D01*
X52087882Y-29802793D01*
X52097916Y-29795388D01*
X52124652Y-29775656D01*
X52197150Y-29722150D01*
X52197155Y-29722142D01*
X52197563Y-29721736D01*
X52198135Y-29721423D01*
X52204748Y-29716543D01*
X52205415Y-29717447D01*
X52259873Y-29687706D01*
X52330689Y-29692766D01*
X52370218Y-29716513D01*
X52499141Y-29830729D01*
X52499148Y-29830734D01*
X52649775Y-29909790D01*
X52649776Y-29909790D01*
X52649778Y-29909791D01*
X52806461Y-29948409D01*
X52814944Y-29950500D01*
X52814947Y-29950500D01*
X52985053Y-29950500D01*
X52985056Y-29950500D01*
X53093346Y-29923809D01*
X53164275Y-29926928D01*
X53222257Y-29967898D01*
X53248885Y-30033712D01*
X53249500Y-30046148D01*
X53249500Y-30433488D01*
X53265281Y-30533126D01*
X53293258Y-30588034D01*
X53322657Y-30645734D01*
X53326472Y-30653220D01*
X53421780Y-30748528D01*
X53421785Y-30748530D01*
X53422563Y-30749096D01*
X53423287Y-30750035D01*
X53428792Y-30755540D01*
X53428080Y-30756251D01*
X53465916Y-30805319D01*
X53474500Y-30851031D01*
X53474500Y-31206917D01*
X53454498Y-31275038D01*
X53437595Y-31296012D01*
X53246012Y-31487595D01*
X53183700Y-31521621D01*
X53156917Y-31524500D01*
X51780140Y-31524500D01*
X51780133Y-31524501D01*
X51755009Y-31527414D01*
X51755005Y-31527416D01*
X51652234Y-31572793D01*
X51572795Y-31652232D01*
X51572794Y-31652234D01*
X51527414Y-31755009D01*
X51524500Y-31780130D01*
X51524500Y-31780133D01*
X51524501Y-32048500D01*
X51504499Y-32116620D01*
X51450844Y-32163113D01*
X51398501Y-32174500D01*
X51111563Y-32174500D01*
X51090636Y-32181299D01*
X51071422Y-32185912D01*
X51049697Y-32189353D01*
X51030096Y-32199340D01*
X51011838Y-32206902D01*
X50990911Y-32213703D01*
X50990910Y-32213703D01*
X50990909Y-32213704D01*
X50990908Y-32213704D01*
X50973105Y-32226638D01*
X50956258Y-32236962D01*
X50936660Y-32246948D01*
X50936658Y-32246950D01*
X50914094Y-32269513D01*
X50914091Y-32269516D01*
X50783794Y-32399813D01*
X50146936Y-33036669D01*
X50084624Y-33070694D01*
X50013808Y-33065629D01*
X49968746Y-33036668D01*
X48972673Y-32040595D01*
X48938647Y-31978283D01*
X48943712Y-31907468D01*
X48986259Y-31850632D01*
X49052779Y-31825821D01*
X49061768Y-31825500D01*
X49079264Y-31825500D01*
X49079266Y-31825500D01*
X49109699Y-31822646D01*
X49237882Y-31777793D01*
X49246862Y-31771166D01*
X49347150Y-31697150D01*
X49427791Y-31587885D01*
X49427793Y-31587881D01*
X49430993Y-31578738D01*
X49472646Y-31459699D01*
X49475500Y-31429266D01*
X49475500Y-30420734D01*
X49472646Y-30390301D01*
X49447844Y-30319422D01*
X49427793Y-30262118D01*
X49427791Y-30262114D01*
X49347150Y-30152849D01*
X49237885Y-30072208D01*
X49237881Y-30072206D01*
X49109704Y-30027355D01*
X49109700Y-30027354D01*
X49079266Y-30024500D01*
X48851500Y-30024500D01*
X48783379Y-30004498D01*
X48736886Y-29950842D01*
X48725500Y-29898500D01*
X48725500Y-29454266D01*
X49024500Y-29454266D01*
X49027354Y-29484700D01*
X49027355Y-29484704D01*
X49072206Y-29612881D01*
X49072208Y-29612885D01*
X49152849Y-29722150D01*
X49262114Y-29802791D01*
X49262118Y-29802793D01*
X49298998Y-29815698D01*
X49390301Y-29847646D01*
X49420734Y-29850500D01*
X49481917Y-29850500D01*
X49550038Y-29870502D01*
X49571012Y-29887405D01*
X49872320Y-30188713D01*
X49906346Y-30251025D01*
X49902155Y-30319422D01*
X49877354Y-30390300D01*
X49874500Y-30420733D01*
X49874500Y-31429266D01*
X49877354Y-31459700D01*
X49877355Y-31459704D01*
X49922206Y-31587881D01*
X49922208Y-31587885D01*
X50002849Y-31697150D01*
X50112114Y-31777791D01*
X50112118Y-31777793D01*
X50118822Y-31780139D01*
X50240301Y-31822646D01*
X50270734Y-31825500D01*
X50270736Y-31825500D01*
X50904264Y-31825500D01*
X50904266Y-31825500D01*
X50934699Y-31822646D01*
X51062882Y-31777793D01*
X51071862Y-31771166D01*
X51172150Y-31697150D01*
X51252791Y-31587885D01*
X51252793Y-31587881D01*
X51255993Y-31578738D01*
X51297646Y-31459699D01*
X51300500Y-31429266D01*
X51300500Y-30420734D01*
X51297646Y-30390301D01*
X51272844Y-30319422D01*
X51252793Y-30262118D01*
X51252791Y-30262114D01*
X51172150Y-30152849D01*
X51062885Y-30072208D01*
X51062881Y-30072206D01*
X50934704Y-30027355D01*
X50934700Y-30027354D01*
X50904266Y-30024500D01*
X50893082Y-30024500D01*
X50824961Y-30004498D01*
X50803987Y-29987595D01*
X50447119Y-29630727D01*
X50413093Y-29568415D01*
X50417285Y-29500017D01*
X50422646Y-29484699D01*
X50425500Y-29454266D01*
X50425500Y-28395734D01*
X50422646Y-28365301D01*
X50416240Y-28346995D01*
X50377793Y-28237118D01*
X50377791Y-28237114D01*
X50297150Y-28127849D01*
X50187885Y-28047208D01*
X50187881Y-28047206D01*
X50059704Y-28002355D01*
X50059700Y-28002354D01*
X50029266Y-27999500D01*
X49420734Y-27999500D01*
X49420733Y-27999500D01*
X49390299Y-28002354D01*
X49390295Y-28002355D01*
X49262118Y-28047206D01*
X49262114Y-28047208D01*
X49152849Y-28127849D01*
X49072208Y-28237114D01*
X49072206Y-28237118D01*
X49027355Y-28365295D01*
X49027354Y-28365299D01*
X49024500Y-28395733D01*
X49024500Y-29454266D01*
X48725500Y-29454266D01*
X48725500Y-28208768D01*
X48745502Y-28140647D01*
X48762405Y-28119673D01*
X49794673Y-27087405D01*
X49856985Y-27053379D01*
X49883768Y-27050500D01*
X56548500Y-27050500D01*
X56616621Y-27070502D01*
X56663114Y-27124158D01*
X56674500Y-27176500D01*
X56674500Y-28006917D01*
X56654498Y-28075038D01*
X56637595Y-28096012D01*
X56571951Y-28161655D01*
X56571949Y-28161657D01*
X56540891Y-28222614D01*
X56514354Y-28274696D01*
X56500005Y-28365295D01*
X56499500Y-28368484D01*
X56499500Y-28831516D01*
X56514353Y-28925302D01*
X56571949Y-29038342D01*
X56661657Y-29128050D01*
X56700299Y-29147738D01*
X56774696Y-29185646D01*
X56868481Y-29200500D01*
X57481518Y-29200499D01*
X57575304Y-29185646D01*
X57688342Y-29128050D01*
X57778050Y-29038342D01*
X57835646Y-28925304D01*
X57850500Y-28831519D01*
X57850499Y-28368482D01*
X57835646Y-28274696D01*
X57785728Y-28176726D01*
X57778050Y-28161657D01*
X57712405Y-28096012D01*
X57678379Y-28033700D01*
X57675500Y-28006917D01*
X57675500Y-27176500D01*
X57695502Y-27108379D01*
X57749158Y-27061886D01*
X57801500Y-27050500D01*
X80939982Y-27050500D01*
X81008103Y-27070502D01*
X81029077Y-27087405D01*
X82762595Y-28820923D01*
X82796621Y-28883235D01*
X82799500Y-28910018D01*
X82799500Y-29659687D01*
X82779498Y-29727808D01*
X82725842Y-29774301D01*
X82712442Y-29779518D01*
X82703413Y-29782452D01*
X82703408Y-29782454D01*
X82685605Y-29795388D01*
X82668758Y-29805712D01*
X82649160Y-29815698D01*
X82649158Y-29815700D01*
X82626594Y-29838263D01*
X82626591Y-29838266D01*
X81596058Y-30868798D01*
X81533746Y-30902824D01*
X81462930Y-30897759D01*
X81406095Y-30855212D01*
X81381284Y-30788692D01*
X81388034Y-30738088D01*
X81397982Y-30709658D01*
X81435146Y-30603449D01*
X81438000Y-30573016D01*
X81438000Y-29214484D01*
X81435146Y-29184051D01*
X81415550Y-29128050D01*
X81390293Y-29055868D01*
X81390291Y-29055864D01*
X81309650Y-28946599D01*
X81200385Y-28865958D01*
X81200381Y-28865956D01*
X81072204Y-28821105D01*
X81072200Y-28821104D01*
X81041766Y-28818250D01*
X80308234Y-28818250D01*
X80308233Y-28818250D01*
X80277799Y-28821104D01*
X80277795Y-28821105D01*
X80149618Y-28865956D01*
X80149614Y-28865958D01*
X80040349Y-28946599D01*
X79954099Y-29063465D01*
X79951832Y-29061792D01*
X79912694Y-29102008D01*
X79850814Y-29118250D01*
X78844000Y-29118250D01*
X78775879Y-29098248D01*
X78729386Y-29044592D01*
X78718000Y-28992250D01*
X78718000Y-28799003D01*
X78717999Y-28798999D01*
X78714466Y-28781238D01*
X78706367Y-28740519D01*
X78662052Y-28674198D01*
X78595731Y-28629883D01*
X78595728Y-28629882D01*
X78537250Y-28618250D01*
X78537248Y-28618250D01*
X77297752Y-28618250D01*
X77297749Y-28618250D01*
X77239271Y-28629882D01*
X77239268Y-28629883D01*
X77172948Y-28674198D01*
X77128633Y-28740518D01*
X77128632Y-28740521D01*
X77117000Y-28798999D01*
X77117000Y-29870253D01*
X77116604Y-29877312D01*
X77112945Y-29909790D01*
X77111935Y-29918750D01*
X77115512Y-29950500D01*
X77116604Y-29960187D01*
X77117000Y-29967246D01*
X77117000Y-31038500D01*
X77127929Y-31093446D01*
X77128633Y-31096981D01*
X77172948Y-31163302D01*
X77239269Y-31207617D01*
X77297752Y-31219250D01*
X77297753Y-31219250D01*
X78537247Y-31219250D01*
X78537248Y-31219250D01*
X78595731Y-31207617D01*
X78662052Y-31163302D01*
X78706367Y-31096981D01*
X78718000Y-31038498D01*
X78718000Y-30845250D01*
X78738002Y-30777129D01*
X78791658Y-30730636D01*
X78844000Y-30719250D01*
X79886961Y-30719250D01*
X79955082Y-30739252D01*
X79988338Y-30770426D01*
X80010139Y-30799965D01*
X80040351Y-30840902D01*
X80149614Y-30921541D01*
X80149616Y-30921542D01*
X80149617Y-30921542D01*
X80149618Y-30921543D01*
X80190114Y-30935712D01*
X80247806Y-30977089D01*
X80273969Y-31043089D01*
X80274500Y-31054642D01*
X80274500Y-31244684D01*
X80281298Y-31265608D01*
X80285912Y-31284827D01*
X80289353Y-31306550D01*
X80289355Y-31306556D01*
X80299341Y-31326156D01*
X80306906Y-31344419D01*
X80313703Y-31365339D01*
X80313704Y-31365341D01*
X80326631Y-31383133D01*
X80336960Y-31399988D01*
X80346948Y-31419590D01*
X80346949Y-31419591D01*
X80346950Y-31419592D01*
X80367942Y-31440584D01*
X80367955Y-31440598D01*
X80369515Y-31442158D01*
X80369516Y-31442159D01*
X80562266Y-31634909D01*
X80725095Y-31797737D01*
X80759120Y-31860050D01*
X80762000Y-31886833D01*
X80762000Y-33538609D01*
X80762001Y-33538616D01*
X80764914Y-33563740D01*
X80764916Y-33563744D01*
X80810293Y-33666515D01*
X80889732Y-33745954D01*
X80889734Y-33745955D01*
X80889735Y-33745956D01*
X80992509Y-33791335D01*
X80992508Y-33791335D01*
X80996978Y-33791853D01*
X81017635Y-33794250D01*
X81307364Y-33794249D01*
X81332491Y-33791335D01*
X81435265Y-33745956D01*
X81435267Y-33745953D01*
X81436605Y-33745363D01*
X81507001Y-33736145D01*
X81538395Y-33745363D01*
X81539732Y-33745953D01*
X81539735Y-33745956D01*
X81642509Y-33791335D01*
X81667635Y-33794250D01*
X81957364Y-33794249D01*
X81958981Y-33794061D01*
X81959390Y-33794131D01*
X81960993Y-33794039D01*
X81961014Y-33794410D01*
X82028952Y-33806073D01*
X82081323Y-33854008D01*
X82099464Y-33922648D01*
X82077617Y-33990199D01*
X82062610Y-34008312D01*
X82039582Y-34031342D01*
X81977272Y-34065369D01*
X81950483Y-34068250D01*
X81539279Y-34068250D01*
X81533787Y-34068010D01*
X81493509Y-34064487D01*
X81493506Y-34064487D01*
X81454461Y-34074949D01*
X81449096Y-34076139D01*
X81409268Y-34083162D01*
X81403551Y-34085243D01*
X81388148Y-34091623D01*
X81382632Y-34094195D01*
X81349507Y-34117388D01*
X81344874Y-34120339D01*
X81309863Y-34140554D01*
X81309861Y-34140555D01*
X81283863Y-34171537D01*
X81280150Y-34175589D01*
X80947267Y-34508471D01*
X80884955Y-34542497D01*
X80841728Y-34544298D01*
X80779260Y-34536075D01*
X80779256Y-34536075D01*
X80622496Y-34556712D01*
X80542900Y-34589682D01*
X80476416Y-34617221D01*
X80476414Y-34617222D01*
X80468786Y-34620382D01*
X80468220Y-34619016D01*
X80407990Y-34633621D01*
X80340901Y-34610392D01*
X80297020Y-34554580D01*
X80288000Y-34507764D01*
X80288000Y-33080319D01*
X80288000Y-33080317D01*
X80281199Y-33059386D01*
X80276588Y-33040181D01*
X80273146Y-33018446D01*
X80263159Y-32998846D01*
X80255592Y-32980577D01*
X80248796Y-32959660D01*
X80248795Y-32959658D01*
X80235866Y-32941863D01*
X80225535Y-32925004D01*
X80215551Y-32905409D01*
X80205878Y-32895736D01*
X80194919Y-32884777D01*
X80194902Y-32884758D01*
X78896863Y-31586719D01*
X78896834Y-31586692D01*
X78875842Y-31565700D01*
X78875841Y-31565699D01*
X78875840Y-31565698D01*
X78856238Y-31555710D01*
X78839383Y-31545381D01*
X78821591Y-31532454D01*
X78821589Y-31532453D01*
X78800669Y-31525656D01*
X78782406Y-31518091D01*
X78762806Y-31508105D01*
X78762805Y-31508104D01*
X78762804Y-31508104D01*
X78762802Y-31508103D01*
X78762800Y-31508103D01*
X78741077Y-31504662D01*
X78721858Y-31500048D01*
X78700934Y-31493250D01*
X78700933Y-31493250D01*
X78669019Y-31493250D01*
X76605583Y-31493250D01*
X76537462Y-31473248D01*
X76516488Y-31456345D01*
X74671863Y-29611719D01*
X74671834Y-29611692D01*
X74650842Y-29590700D01*
X74650841Y-29590699D01*
X74650840Y-29590698D01*
X74631238Y-29580710D01*
X74614383Y-29570381D01*
X74596591Y-29557454D01*
X74596589Y-29557453D01*
X74575669Y-29550656D01*
X74557406Y-29543091D01*
X74537806Y-29533105D01*
X74537805Y-29533104D01*
X74537804Y-29533104D01*
X74537802Y-29533103D01*
X74537800Y-29533103D01*
X74516077Y-29529662D01*
X74496858Y-29525048D01*
X74475934Y-29518250D01*
X74475933Y-29518250D01*
X74444019Y-29518250D01*
X74284000Y-29518250D01*
X74215879Y-29498248D01*
X74169386Y-29444592D01*
X74158000Y-29392250D01*
X74158000Y-28799003D01*
X74157999Y-28798999D01*
X74154466Y-28781238D01*
X74146367Y-28740519D01*
X74102052Y-28674198D01*
X74035731Y-28629883D01*
X74035728Y-28629882D01*
X73977250Y-28618250D01*
X73977248Y-28618250D01*
X72737752Y-28618250D01*
X72737749Y-28618250D01*
X72679271Y-28629882D01*
X72679268Y-28629883D01*
X72612948Y-28674198D01*
X72568633Y-28740518D01*
X72568632Y-28740521D01*
X72557000Y-28798999D01*
X72557000Y-31038500D01*
X72567929Y-31093446D01*
X72568633Y-31096981D01*
X72612948Y-31163302D01*
X72679269Y-31207617D01*
X72737752Y-31219250D01*
X72737753Y-31219250D01*
X73977247Y-31219250D01*
X73977248Y-31219250D01*
X74035731Y-31207617D01*
X74102052Y-31163302D01*
X74146367Y-31096981D01*
X74158000Y-31038498D01*
X74158000Y-30534833D01*
X74178002Y-30466712D01*
X74231658Y-30420219D01*
X74301932Y-30410115D01*
X74366512Y-30439609D01*
X74373095Y-30445738D01*
X76128508Y-32201152D01*
X76128527Y-32201169D01*
X76141061Y-32213703D01*
X76149158Y-32221800D01*
X76168760Y-32231788D01*
X76185618Y-32242119D01*
X76203409Y-32255045D01*
X76203410Y-32255045D01*
X76203411Y-32255046D01*
X76213284Y-32258254D01*
X76224326Y-32261842D01*
X76242592Y-32269408D01*
X76262196Y-32279396D01*
X76283917Y-32282836D01*
X76303145Y-32287451D01*
X76324067Y-32294250D01*
X76355981Y-32294250D01*
X78419417Y-32294250D01*
X78487538Y-32314252D01*
X78508512Y-32331155D01*
X78523708Y-32346351D01*
X78557734Y-32408663D01*
X78552669Y-32479478D01*
X78537500Y-32503080D01*
X78537500Y-33318750D01*
X79045500Y-33318750D01*
X79045500Y-33172333D01*
X79065502Y-33104212D01*
X79119158Y-33057719D01*
X79189432Y-33047615D01*
X79254012Y-33077109D01*
X79260595Y-33083238D01*
X79450095Y-33272738D01*
X79484121Y-33335050D01*
X79487000Y-33361833D01*
X79487000Y-36207184D01*
X79493798Y-36228108D01*
X79498412Y-36247327D01*
X79501853Y-36269050D01*
X79501855Y-36269056D01*
X79511841Y-36288656D01*
X79519406Y-36306919D01*
X79526203Y-36327839D01*
X79526204Y-36327841D01*
X79539131Y-36345633D01*
X79549460Y-36362488D01*
X79559448Y-36382090D01*
X79559449Y-36382091D01*
X79559450Y-36382092D01*
X79580442Y-36403084D01*
X79580455Y-36403098D01*
X79582015Y-36404658D01*
X79582016Y-36404659D01*
X80421950Y-37244592D01*
X80511658Y-37334300D01*
X80531256Y-37344285D01*
X80548114Y-37354616D01*
X80565910Y-37367546D01*
X80586827Y-37374342D01*
X80605090Y-37381906D01*
X80624696Y-37391896D01*
X80646430Y-37395337D01*
X80665641Y-37399949D01*
X80674933Y-37402968D01*
X80733539Y-37443037D01*
X80761179Y-37508433D01*
X80762001Y-37522802D01*
X80762001Y-37763616D01*
X80764914Y-37788740D01*
X80764916Y-37788744D01*
X80810293Y-37891515D01*
X80874187Y-37955409D01*
X80908213Y-38017721D01*
X80903148Y-38088536D01*
X80860601Y-38145372D01*
X80797903Y-38169851D01*
X80783179Y-38171355D01*
X80783178Y-38171356D01*
X80614974Y-38227092D01*
X80464160Y-38320115D01*
X80464154Y-38320120D01*
X80338870Y-38445404D01*
X80338865Y-38445410D01*
X80245842Y-38596224D01*
X80190106Y-38764428D01*
X80190105Y-38764431D01*
X80179500Y-38868233D01*
X80179500Y-38893750D01*
X81561500Y-38893750D01*
X81629621Y-38913752D01*
X81676114Y-38967408D01*
X81687500Y-39019750D01*
X81687500Y-40584439D01*
X81760025Y-40560407D01*
X81910839Y-40467384D01*
X81910845Y-40467379D01*
X82036129Y-40342095D01*
X82036134Y-40342089D01*
X82129157Y-40191274D01*
X82180075Y-40037613D01*
X82220489Y-39979241D01*
X82286045Y-39951985D01*
X82355930Y-39964498D01*
X82407956Y-40012807D01*
X82418609Y-40035628D01*
X82434708Y-40081634D01*
X82434708Y-40081635D01*
X82515349Y-40190900D01*
X82624614Y-40271541D01*
X82624618Y-40271543D01*
X82752801Y-40316396D01*
X82783234Y-40319250D01*
X82783236Y-40319250D01*
X83391764Y-40319250D01*
X83391766Y-40319250D01*
X83422199Y-40316396D01*
X83550382Y-40271543D01*
X83550392Y-40271535D01*
X83551852Y-40270765D01*
X83553657Y-40270397D01*
X83559295Y-40268425D01*
X83559564Y-40269195D01*
X83621423Y-40256610D01*
X83687603Y-40282314D01*
X83694295Y-40287843D01*
X83729747Y-40319250D01*
X83799148Y-40380734D01*
X83949775Y-40459790D01*
X83949776Y-40459790D01*
X83949778Y-40459791D01*
X83980585Y-40467384D01*
X84114944Y-40500500D01*
X84114947Y-40500500D01*
X84285053Y-40500500D01*
X84285056Y-40500500D01*
X84450225Y-40459790D01*
X84600852Y-40380734D01*
X84728183Y-40267929D01*
X84824818Y-40127930D01*
X84885140Y-39968872D01*
X84905645Y-39800000D01*
X84903417Y-39781654D01*
X84885140Y-39631128D01*
X84824820Y-39472074D01*
X84824818Y-39472070D01*
X84728183Y-39332071D01*
X84728181Y-39332069D01*
X84600857Y-39219270D01*
X84600851Y-39219265D01*
X84450225Y-39140210D01*
X84450221Y-39140208D01*
X84285059Y-39099500D01*
X84285056Y-39099500D01*
X84117201Y-39099500D01*
X84049080Y-39079498D01*
X84043138Y-39075434D01*
X84038342Y-39071949D01*
X84018738Y-39061960D01*
X84001883Y-39051631D01*
X83984091Y-39038704D01*
X83984089Y-39038703D01*
X83963169Y-39031906D01*
X83944906Y-39024341D01*
X83925306Y-39014355D01*
X83925305Y-39014354D01*
X83925304Y-39014354D01*
X83925302Y-39014353D01*
X83925300Y-39014353D01*
X83903577Y-39010912D01*
X83884353Y-39006296D01*
X83875062Y-39003277D01*
X83816457Y-38963203D01*
X83788821Y-38897806D01*
X83788000Y-38883445D01*
X83788000Y-38864485D01*
X83788000Y-38864484D01*
X83785146Y-38834051D01*
X83740293Y-38705868D01*
X83740291Y-38705865D01*
X83740291Y-38705864D01*
X83659652Y-38596601D01*
X83575783Y-38534704D01*
X83550382Y-38515957D01*
X83533655Y-38510104D01*
X83475965Y-38468726D01*
X83455440Y-38430111D01*
X83448796Y-38409660D01*
X83435866Y-38391864D01*
X83425535Y-38375006D01*
X83415550Y-38355408D01*
X83415549Y-38355407D01*
X83415548Y-38355405D01*
X83325842Y-38265700D01*
X83269642Y-38209499D01*
X83235617Y-38147186D01*
X83240683Y-38076370D01*
X83283230Y-38019535D01*
X83307845Y-38005140D01*
X83319489Y-37999999D01*
X83385265Y-37970956D01*
X83464706Y-37891515D01*
X83498892Y-37814090D01*
X83544702Y-37759857D01*
X83612565Y-37738997D01*
X83680933Y-37758138D01*
X83703245Y-37775888D01*
X84126591Y-38199234D01*
X84160061Y-38223551D01*
X84203415Y-38279773D01*
X84212000Y-38325487D01*
X84212000Y-38504266D01*
X84214854Y-38534700D01*
X84214855Y-38534704D01*
X84259706Y-38662881D01*
X84259708Y-38662885D01*
X84340349Y-38772150D01*
X84449614Y-38852791D01*
X84449618Y-38852793D01*
X84577801Y-38897646D01*
X84608234Y-38900500D01*
X84608236Y-38900500D01*
X85666764Y-38900500D01*
X85666766Y-38900500D01*
X85697199Y-38897646D01*
X85825382Y-38852793D01*
X85850780Y-38834049D01*
X85934650Y-38772150D01*
X86020901Y-38655285D01*
X86023167Y-38656957D01*
X86062306Y-38616742D01*
X86124186Y-38600500D01*
X86150814Y-38600500D01*
X86218935Y-38620502D01*
X86252181Y-38656700D01*
X86254099Y-38655285D01*
X86340349Y-38772150D01*
X86449614Y-38852791D01*
X86449618Y-38852793D01*
X86577801Y-38897646D01*
X86608234Y-38900500D01*
X86608236Y-38900500D01*
X87666764Y-38900500D01*
X87666766Y-38900500D01*
X87697199Y-38897646D01*
X87825382Y-38852793D01*
X87850780Y-38834049D01*
X87934650Y-38772150D01*
X88015291Y-38662885D01*
X88015293Y-38662881D01*
X88020465Y-38648102D01*
X88060146Y-38534699D01*
X88063000Y-38504266D01*
X88063000Y-37895734D01*
X88060146Y-37865301D01*
X88015293Y-37737118D01*
X88015291Y-37737114D01*
X87934650Y-37627849D01*
X87825385Y-37547208D01*
X87825381Y-37547206D01*
X87697204Y-37502355D01*
X87697200Y-37502354D01*
X87666766Y-37499500D01*
X86608234Y-37499500D01*
X86608233Y-37499500D01*
X86577799Y-37502354D01*
X86577795Y-37502355D01*
X86449618Y-37547206D01*
X86449614Y-37547208D01*
X86340349Y-37627849D01*
X86254099Y-37744715D01*
X86251832Y-37743042D01*
X86212694Y-37783258D01*
X86150814Y-37799500D01*
X86124186Y-37799500D01*
X86056065Y-37779498D01*
X86022818Y-37743299D01*
X86020901Y-37744715D01*
X85934650Y-37627849D01*
X85825385Y-37547208D01*
X85825381Y-37547206D01*
X85697204Y-37502355D01*
X85697200Y-37502354D01*
X85666766Y-37499500D01*
X84611833Y-37499500D01*
X84543712Y-37479498D01*
X84522742Y-37462599D01*
X83760909Y-36700766D01*
X83760908Y-36700765D01*
X83759348Y-36699205D01*
X83759334Y-36699192D01*
X83738342Y-36678200D01*
X83738341Y-36678199D01*
X83738340Y-36678198D01*
X83718738Y-36668210D01*
X83701883Y-36657881D01*
X83684091Y-36644954D01*
X83684089Y-36644953D01*
X83663169Y-36638156D01*
X83644906Y-36630591D01*
X83625306Y-36620605D01*
X83625301Y-36620603D01*
X83619283Y-36619650D01*
X83555132Y-36589235D01*
X83517607Y-36528966D01*
X83512999Y-36495202D01*
X83512999Y-36248890D01*
X83512999Y-36248886D01*
X83510085Y-36223759D01*
X83464706Y-36120985D01*
X83464706Y-36120984D01*
X83385267Y-36041545D01*
X83385265Y-36041544D01*
X83282489Y-35996164D01*
X83282491Y-35996164D01*
X83257369Y-35993250D01*
X82989000Y-35993250D01*
X82920879Y-35973248D01*
X82874386Y-35919592D01*
X82863000Y-35867250D01*
X82863000Y-35692442D01*
X82865138Y-35669331D01*
X82866188Y-35663704D01*
X82867840Y-35654850D01*
X82864435Y-35628741D01*
X82863530Y-35621800D01*
X82863000Y-35613645D01*
X82863000Y-35612235D01*
X82862999Y-35612227D01*
X82861784Y-35604560D01*
X82858924Y-35586501D01*
X82851431Y-35529049D01*
X82851427Y-35529041D01*
X82849855Y-35523708D01*
X82845080Y-35509008D01*
X82846574Y-35508522D01*
X82846565Y-35508459D01*
X82846961Y-35508396D01*
X82847002Y-35508383D01*
X82836221Y-35450991D01*
X82836503Y-35448445D01*
X82843145Y-35393750D01*
X82840124Y-35368872D01*
X82822640Y-35224878D01*
X82762320Y-35065824D01*
X82762318Y-35065820D01*
X82665683Y-34925821D01*
X82665681Y-34925819D01*
X82538357Y-34813020D01*
X82538354Y-34813018D01*
X82538352Y-34813016D01*
X82454021Y-34768755D01*
X82402999Y-34719386D01*
X82386767Y-34650270D01*
X82410479Y-34583350D01*
X82423475Y-34568099D01*
X82680686Y-34310889D01*
X82684717Y-34307196D01*
X82715694Y-34281205D01*
X82735922Y-34246166D01*
X82738856Y-34241560D01*
X82762053Y-34208434D01*
X82762053Y-34208432D01*
X82762055Y-34208430D01*
X82764646Y-34202873D01*
X82770991Y-34187555D01*
X82773086Y-34181798D01*
X82773088Y-34181795D01*
X82779044Y-34148016D01*
X82780110Y-34141972D01*
X82781297Y-34136613D01*
X82791763Y-34097557D01*
X82788738Y-34062976D01*
X82788240Y-34057279D01*
X82788000Y-34051787D01*
X82788000Y-33914158D01*
X82808002Y-33846037D01*
X82861658Y-33799544D01*
X82931932Y-33789440D01*
X82939258Y-33790958D01*
X82945958Y-33791735D01*
X82967635Y-33794250D01*
X83257364Y-33794249D01*
X83282491Y-33791335D01*
X83385265Y-33745956D01*
X83464706Y-33666515D01*
X83510085Y-33563741D01*
X83513000Y-33538615D01*
X83512999Y-33332641D01*
X83533001Y-33264522D01*
X83586656Y-33218029D01*
X83656930Y-33207924D01*
X83660876Y-33208556D01*
X83664697Y-33209229D01*
X83676782Y-33211360D01*
X83682114Y-33212542D01*
X83721193Y-33223014D01*
X83761474Y-33219489D01*
X83766960Y-33219250D01*
X84138679Y-33219250D01*
X84206800Y-33239252D01*
X84253293Y-33292908D01*
X84263397Y-33363182D01*
X84257608Y-33386865D01*
X84214855Y-33509045D01*
X84214854Y-33509049D01*
X84212000Y-33539483D01*
X84212000Y-34148016D01*
X84214854Y-34178450D01*
X84214855Y-34178454D01*
X84259706Y-34306631D01*
X84259708Y-34306635D01*
X84340349Y-34415900D01*
X84449613Y-34496540D01*
X84449614Y-34496540D01*
X84449618Y-34496543D01*
X84552617Y-34532584D01*
X84610307Y-34573961D01*
X84636469Y-34639961D01*
X84637000Y-34651512D01*
X84637000Y-34653037D01*
X84616998Y-34721158D01*
X84613541Y-34725725D01*
X84613647Y-34725798D01*
X84512681Y-34872070D01*
X84512679Y-34872074D01*
X84452359Y-35031128D01*
X84431855Y-35199997D01*
X84431855Y-35200002D01*
X84452359Y-35368871D01*
X84500366Y-35495456D01*
X84505820Y-35566243D01*
X84472137Y-35628741D01*
X84456377Y-35640465D01*
X84457215Y-35641601D01*
X84449619Y-35647206D01*
X84449618Y-35647207D01*
X84419641Y-35669331D01*
X84340347Y-35727851D01*
X84259708Y-35837114D01*
X84259706Y-35837118D01*
X84214855Y-35965295D01*
X84214854Y-35965299D01*
X84212000Y-35995733D01*
X84212000Y-36604266D01*
X84214854Y-36634700D01*
X84214855Y-36634704D01*
X84259706Y-36762881D01*
X84259708Y-36762885D01*
X84340349Y-36872150D01*
X84449614Y-36952791D01*
X84449618Y-36952793D01*
X84521195Y-36977839D01*
X84577801Y-36997646D01*
X84608234Y-37000500D01*
X84608236Y-37000500D01*
X85666764Y-37000500D01*
X85666766Y-37000500D01*
X85697199Y-36997646D01*
X85825382Y-36952793D01*
X85934650Y-36872150D01*
X85949759Y-36851678D01*
X86006304Y-36808746D01*
X86051138Y-36800500D01*
X86223862Y-36800500D01*
X86291983Y-36820502D01*
X86325241Y-36851678D01*
X86340351Y-36872151D01*
X86449614Y-36952791D01*
X86449618Y-36952793D01*
X86521195Y-36977839D01*
X86577801Y-36997646D01*
X86608234Y-37000500D01*
X86608236Y-37000500D01*
X87666764Y-37000500D01*
X87666766Y-37000500D01*
X87697199Y-36997646D01*
X87825382Y-36952793D01*
X87934650Y-36872150D01*
X88015293Y-36762882D01*
X88060146Y-36634699D01*
X88063000Y-36604266D01*
X88063000Y-35995734D01*
X88060146Y-35965301D01*
X88015293Y-35837118D01*
X88015291Y-35837114D01*
X87934652Y-35727851D01*
X87886674Y-35692442D01*
X87825382Y-35647207D01*
X87825380Y-35647206D01*
X87817785Y-35641601D01*
X87820120Y-35638436D01*
X87782716Y-35602068D01*
X87766652Y-35532913D01*
X87774631Y-35495460D01*
X87822640Y-35368872D01*
X87841287Y-35215301D01*
X87843145Y-35200002D01*
X87843145Y-35199997D01*
X87822640Y-35031128D01*
X87762320Y-34872074D01*
X87762318Y-34872070D01*
X87665683Y-34732071D01*
X87665681Y-34732069D01*
X87538357Y-34619270D01*
X87538351Y-34619265D01*
X87387725Y-34540210D01*
X87387716Y-34540207D01*
X87337011Y-34527709D01*
X87275657Y-34491986D01*
X87243356Y-34428763D01*
X87250364Y-34358113D01*
X87294456Y-34302467D01*
X87309954Y-34293109D01*
X87400842Y-34246800D01*
X87457864Y-34189778D01*
X93304500Y-34189778D01*
X93326615Y-34322303D01*
X93343929Y-34426062D01*
X93343931Y-34426069D01*
X93415183Y-34633621D01*
X93421713Y-34652641D01*
X93535729Y-34863323D01*
X93682866Y-35052366D01*
X93859113Y-35214612D01*
X93859115Y-35214613D01*
X93859116Y-35214614D01*
X94059660Y-35345636D01*
X94059659Y-35345636D01*
X94200324Y-35407337D01*
X94279038Y-35441864D01*
X94511263Y-35500672D01*
X94672437Y-35514027D01*
X94690211Y-35515500D01*
X94690213Y-35515500D01*
X94809789Y-35515500D01*
X94826721Y-35514096D01*
X94988737Y-35500672D01*
X95220962Y-35441864D01*
X95440340Y-35345636D01*
X95640887Y-35214612D01*
X95817134Y-35052366D01*
X95964271Y-34863323D01*
X96078287Y-34652641D01*
X96156070Y-34426065D01*
X96195500Y-34189778D01*
X96195500Y-33950222D01*
X96156070Y-33713935D01*
X96078287Y-33487359D01*
X95964271Y-33276677D01*
X95817134Y-33087634D01*
X95810302Y-33081345D01*
X95724964Y-33002786D01*
X95640887Y-32925388D01*
X95640884Y-32925386D01*
X95640883Y-32925385D01*
X95440339Y-32794363D01*
X95440340Y-32794363D01*
X95220965Y-32698137D01*
X95220961Y-32698135D01*
X94988742Y-32639329D01*
X94988740Y-32639328D01*
X94988737Y-32639328D01*
X94843120Y-32627262D01*
X94809789Y-32624500D01*
X94809787Y-32624500D01*
X94690213Y-32624500D01*
X94690211Y-32624500D01*
X94656880Y-32627262D01*
X94511263Y-32639328D01*
X94511260Y-32639328D01*
X94511257Y-32639329D01*
X94279038Y-32698135D01*
X94279034Y-32698137D01*
X94059660Y-32794363D01*
X93859116Y-32925385D01*
X93682868Y-33087631D01*
X93538795Y-33272738D01*
X93535729Y-33276677D01*
X93421782Y-33487231D01*
X93421711Y-33487363D01*
X93343931Y-33713930D01*
X93343929Y-33713937D01*
X93325405Y-33824945D01*
X93304500Y-33950222D01*
X93304500Y-34189778D01*
X87457864Y-34189778D01*
X87490550Y-34157092D01*
X87548146Y-34044054D01*
X87563000Y-33950269D01*
X87562999Y-33487232D01*
X87548146Y-33393446D01*
X87515403Y-33329184D01*
X87490550Y-33280407D01*
X87400842Y-33190699D01*
X87313492Y-33146193D01*
X87287804Y-33133104D01*
X87194019Y-33118250D01*
X87194016Y-33118250D01*
X86874518Y-33118250D01*
X86806397Y-33098248D01*
X86785423Y-33081345D01*
X86588422Y-32884344D01*
X86554396Y-32822032D01*
X86559461Y-32751217D01*
X86602008Y-32694381D01*
X86668528Y-32669570D01*
X86677493Y-32669249D01*
X87194018Y-32669249D01*
X87287804Y-32654396D01*
X87400842Y-32596800D01*
X87490550Y-32507092D01*
X87548146Y-32394054D01*
X87563000Y-32300269D01*
X87562999Y-31837232D01*
X87548146Y-31743446D01*
X87512789Y-31674055D01*
X87490550Y-31630407D01*
X87400842Y-31540699D01*
X87321058Y-31500048D01*
X87287804Y-31483104D01*
X87194019Y-31468250D01*
X87194015Y-31468250D01*
X86580983Y-31468250D01*
X86487195Y-31483103D01*
X86370028Y-31542803D01*
X86300251Y-31555907D01*
X86293134Y-31554988D01*
X86292412Y-31554873D01*
X86291096Y-31554665D01*
X86271858Y-31550048D01*
X86250934Y-31543250D01*
X86250933Y-31543250D01*
X86219019Y-31543250D01*
X86124186Y-31543250D01*
X86056065Y-31523248D01*
X86022818Y-31487049D01*
X86020901Y-31488465D01*
X85934650Y-31371599D01*
X85825385Y-31290958D01*
X85825381Y-31290956D01*
X85697204Y-31246105D01*
X85697200Y-31246104D01*
X85666766Y-31243250D01*
X85664000Y-31243250D01*
X85595879Y-31223248D01*
X85549386Y-31169592D01*
X85538000Y-31117250D01*
X85538000Y-30830319D01*
X85538000Y-30830317D01*
X85531199Y-30809386D01*
X85526588Y-30790181D01*
X85523146Y-30768446D01*
X85513157Y-30748843D01*
X85505593Y-30730582D01*
X85498796Y-30709660D01*
X85485866Y-30691864D01*
X85475535Y-30675006D01*
X85465550Y-30655408D01*
X85375842Y-30565700D01*
X84648409Y-29838266D01*
X84648408Y-29838265D01*
X84646848Y-29836705D01*
X84646834Y-29836692D01*
X84625842Y-29815700D01*
X84625841Y-29815699D01*
X84625840Y-29815698D01*
X84606238Y-29805710D01*
X84589383Y-29795381D01*
X84571591Y-29782454D01*
X84571589Y-29782453D01*
X84550669Y-29775656D01*
X84532406Y-29768091D01*
X84512806Y-29758105D01*
X84512801Y-29758103D01*
X84506783Y-29757150D01*
X84442632Y-29726734D01*
X84405108Y-29666464D01*
X84400500Y-29632702D01*
X84400500Y-28436053D01*
X84391633Y-28397208D01*
X84391218Y-28395391D01*
X84390037Y-28388441D01*
X84385972Y-28352354D01*
X84385369Y-28347000D01*
X84385368Y-28346998D01*
X84385368Y-28346995D01*
X84371589Y-28307617D01*
X84369639Y-28300845D01*
X84360360Y-28260189D01*
X84342263Y-28222610D01*
X84339562Y-28216088D01*
X84325789Y-28176728D01*
X84303593Y-28141404D01*
X84300189Y-28135243D01*
X84282092Y-28097664D01*
X84265192Y-28076472D01*
X84256091Y-28065059D01*
X84251999Y-28059293D01*
X84229815Y-28023987D01*
X84205328Y-27999500D01*
X84102262Y-27896434D01*
X81858002Y-25652174D01*
X81826012Y-25620184D01*
X81826011Y-25620183D01*
X81813872Y-25612555D01*
X81790698Y-25597994D01*
X81784941Y-25593909D01*
X81752340Y-25567911D01*
X81752338Y-25567910D01*
X81752337Y-25567909D01*
X81714770Y-25549817D01*
X81708583Y-25546398D01*
X81673272Y-25524210D01*
X81673269Y-25524209D01*
X81633912Y-25510437D01*
X81627382Y-25507732D01*
X81589815Y-25489642D01*
X81589813Y-25489641D01*
X81589811Y-25489640D01*
X81589808Y-25489639D01*
X81589805Y-25489638D01*
X81549149Y-25480357D01*
X81542358Y-25478401D01*
X81503009Y-25464633D01*
X81503007Y-25464632D01*
X81503005Y-25464632D01*
X81461552Y-25459960D01*
X81454615Y-25458782D01*
X81413944Y-25449500D01*
X81368704Y-25449500D01*
X49590194Y-25449500D01*
X49409805Y-25449500D01*
X49409803Y-25449500D01*
X49379636Y-25456385D01*
X49369146Y-25458779D01*
X49362185Y-25459962D01*
X49353397Y-25460952D01*
X49320743Y-25464631D01*
X49320740Y-25464632D01*
X49281382Y-25478404D01*
X49274592Y-25480361D01*
X49233940Y-25489640D01*
X49233934Y-25489642D01*
X49196375Y-25507729D01*
X49189846Y-25510434D01*
X49150476Y-25524211D01*
X49115159Y-25546401D01*
X49108975Y-25549818D01*
X49071413Y-25567908D01*
X49071410Y-25567910D01*
X49038811Y-25593906D01*
X49033048Y-25597995D01*
X48997741Y-25620181D01*
X48997738Y-25620183D01*
X48997738Y-25620184D01*
X48965748Y-25652174D01*
X47719422Y-26898500D01*
X47630327Y-26987595D01*
X47568015Y-27021621D01*
X47541232Y-27024500D01*
X36376000Y-27024500D01*
X36307879Y-27004498D01*
X36261386Y-26950842D01*
X36250000Y-26898500D01*
X36250000Y-20626000D01*
X36270002Y-20557879D01*
X36323658Y-20511386D01*
X36376000Y-20500000D01*
X99874000Y-20500000D01*
X99942121Y-20520002D01*
G37*
%TD.AperFunction*%
%TD*%
%TA.AperFunction,Conductor*%
%TO.N,/3V7_NOT_REG*%
G36*
X59273222Y-69420502D02*
G01*
X59319715Y-69474158D01*
X59326252Y-69491883D01*
X59728571Y-70900000D01*
X59795152Y-71133031D01*
X59800000Y-71167646D01*
X59800000Y-72524000D01*
X59779998Y-72592121D01*
X59726342Y-72638614D01*
X59674000Y-72650000D01*
X58926000Y-72650000D01*
X58857879Y-72629998D01*
X58811386Y-72576342D01*
X58800000Y-72524000D01*
X58800000Y-70900000D01*
X58799999Y-70899998D01*
X58067956Y-69679926D01*
X58050000Y-69615100D01*
X58050000Y-69526500D01*
X58070002Y-69458379D01*
X58123658Y-69411886D01*
X58176000Y-69400500D01*
X59205101Y-69400500D01*
X59273222Y-69420502D01*
G37*
%TD.AperFunction*%
%TD*%
%TA.AperFunction,Conductor*%
%TO.N,/5V5_NOT_REG*%
G36*
X62792121Y-97520002D02*
G01*
X62838614Y-97573658D01*
X62850000Y-97626000D01*
X62850000Y-99752475D01*
X62849999Y-99752475D01*
X63099997Y-99999998D01*
X63099998Y-99999998D01*
X63100000Y-100000000D01*
X64547810Y-100000000D01*
X64615931Y-100020002D01*
X64636905Y-100036905D01*
X64813095Y-100213095D01*
X64847121Y-100275407D01*
X64850000Y-100302190D01*
X64850000Y-100874000D01*
X64829998Y-100942121D01*
X64776342Y-100988614D01*
X64724000Y-101000000D01*
X58726000Y-101000000D01*
X58657879Y-100979998D01*
X58611386Y-100926342D01*
X58600000Y-100874000D01*
X58600000Y-100302190D01*
X58620002Y-100234069D01*
X58636905Y-100213095D01*
X58813095Y-100036905D01*
X58875407Y-100002879D01*
X58902190Y-100000000D01*
X61850000Y-100000000D01*
X62100000Y-99750000D01*
X62100000Y-97626000D01*
X62120002Y-97557879D01*
X62173658Y-97511386D01*
X62226000Y-97500000D01*
X62724000Y-97500000D01*
X62792121Y-97520002D01*
G37*
%TD.AperFunction*%
%TD*%
%TA.AperFunction,Conductor*%
%TO.N,/I_CHRG_SENSE*%
G36*
X53342121Y-33670002D02*
G01*
X53388614Y-33723658D01*
X53400000Y-33776000D01*
X53400000Y-34150000D01*
X53667746Y-34904556D01*
X53675000Y-34946692D01*
X53675000Y-39049000D01*
X53654998Y-39117121D01*
X53601342Y-39163614D01*
X53549000Y-39175000D01*
X52551000Y-39175000D01*
X52482879Y-39154998D01*
X52436386Y-39101342D01*
X52425000Y-39049000D01*
X52425000Y-34925000D01*
X52424999Y-34924998D01*
X51686905Y-34186904D01*
X51652879Y-34124592D01*
X51650000Y-34097809D01*
X51650000Y-33776000D01*
X51670002Y-33707879D01*
X51723658Y-33661386D01*
X51776000Y-33650000D01*
X53274000Y-33650000D01*
X53342121Y-33670002D01*
G37*
%TD.AperFunction*%
%TD*%
%TA.AperFunction,Conductor*%
%TO.N,+BATT*%
G36*
X57675000Y-34425000D02*
G01*
X56175000Y-34425000D01*
X55925000Y-34175000D01*
X55925000Y-33650000D01*
X57675000Y-33650000D01*
X57675000Y-34425000D01*
G37*
%TD.AperFunction*%
%TD*%
%TA.AperFunction,Conductor*%
%TO.N,/5V_IN*%
G36*
X51792121Y-94870002D02*
G01*
X51838614Y-94923658D01*
X51850000Y-94976000D01*
X51850000Y-99500001D01*
X52599998Y-100249999D01*
X52600000Y-100250000D01*
X53547810Y-100250000D01*
X53615931Y-100270002D01*
X53636900Y-100286900D01*
X53850000Y-100500000D01*
X55224000Y-100500000D01*
X55292121Y-100520002D01*
X55338614Y-100573658D01*
X55350000Y-100626000D01*
X55350000Y-100874000D01*
X55329998Y-100942121D01*
X55276342Y-100988614D01*
X55224000Y-101000000D01*
X53850000Y-101000000D01*
X53634511Y-101172390D01*
X53568825Y-101199325D01*
X53555802Y-101200000D01*
X45926000Y-101200000D01*
X45857879Y-101179998D01*
X45811386Y-101126342D01*
X45800000Y-101074000D01*
X45800000Y-100126000D01*
X45820002Y-100057879D01*
X45873658Y-100011386D01*
X45926000Y-100000000D01*
X49800000Y-100000000D01*
X50200000Y-99600000D01*
X50200000Y-94976000D01*
X50220002Y-94907879D01*
X50273658Y-94861386D01*
X50326000Y-94850000D01*
X51724000Y-94850000D01*
X51792121Y-94870002D01*
G37*
%TD.AperFunction*%
%TD*%
%TA.AperFunction,Conductor*%
%TO.N,/3V7_NOT_REG*%
G36*
X80479621Y-72070502D02*
G01*
X80526114Y-72124158D01*
X80537500Y-72176500D01*
X80537500Y-72411850D01*
X80517498Y-72479971D01*
X80516338Y-72481742D01*
X80037500Y-73199999D01*
X80037500Y-77324000D01*
X80017498Y-77392121D01*
X79963842Y-77438614D01*
X79911500Y-77450000D01*
X78913500Y-77450000D01*
X78845379Y-77429998D01*
X78798886Y-77376342D01*
X78787500Y-77324000D01*
X78787500Y-73439235D01*
X78807502Y-73371114D01*
X78809775Y-73367701D01*
X79680627Y-72104966D01*
X79735768Y-72060244D01*
X79784352Y-72050500D01*
X80411500Y-72050500D01*
X80479621Y-72070502D01*
G37*
%TD.AperFunction*%
%TD*%
D68*
X37000000Y-114800000D03*
X20889154Y-62262500D03*
X47662500Y-81200000D03*
X42250000Y-61400000D03*
X62800000Y-75100000D03*
X87137500Y-35200000D03*
X58600000Y-102250000D03*
X47750000Y-61400000D03*
X59600000Y-35400000D03*
X42800000Y-107150000D03*
X84200000Y-39800000D03*
X85137500Y-35200000D03*
X83827500Y-92300000D03*
X27705464Y-58412500D03*
X83787500Y-68450000D03*
X97200000Y-101000000D03*
X86427500Y-105400000D03*
X82137500Y-35393750D03*
X53650000Y-69700000D03*
X34600000Y-112550000D03*
X52900000Y-29250000D03*
X62800000Y-73300000D03*
X83827500Y-82800000D03*
X75325000Y-103700000D03*
X34600000Y-111550000D03*
X25400000Y-69182864D03*
X75500000Y-89000000D03*
X97400000Y-91200000D03*
X83787500Y-71375500D03*
X62800000Y-71500000D03*
X119000000Y-100750000D03*
X88777500Y-105000000D03*
X31400000Y-88800000D03*
X26600000Y-70000000D03*
X20889154Y-60262500D03*
X83787500Y-76450000D03*
X60100000Y-104125000D03*
X119000000Y-96750000D03*
X53650000Y-71500000D03*
X84027500Y-97500000D03*
X83787500Y-66200000D03*
X69825000Y-103700000D03*
X63550000Y-70300000D03*
X42162500Y-81200000D03*
X53650000Y-67900000D03*
X65600000Y-60200000D03*
X58200000Y-61200000D03*
X88287500Y-72200000D03*
X29800000Y-106350000D03*
X88627500Y-90300000D03*
X25355464Y-76462500D03*
X119000000Y-88750000D03*
X53600000Y-73300000D03*
X88037500Y-69950000D03*
X63975000Y-104125000D03*
X119000000Y-92750000D03*
X49475000Y-104900000D03*
X63300000Y-59550000D03*
X70000000Y-88950000D03*
X79127500Y-90300000D03*
X61400000Y-57600000D03*
X61725000Y-104125000D03*
X79277500Y-105000000D03*
X27705464Y-64012500D03*
X83787500Y-74200000D03*
X62800000Y-76900000D03*
X57200000Y-68800000D03*
X56400000Y-58600000D03*
X29105464Y-54837500D03*
X67400000Y-105800000D03*
X55600000Y-103250000D03*
X58350000Y-104500000D03*
X38000000Y-54000000D03*
X54500000Y-38000000D03*
X55224500Y-36675000D03*
X80779257Y-35141757D03*
X39000000Y-55000000D03*
X29062500Y-110150000D03*
X29062500Y-113550000D03*
X24905464Y-60512500D03*
X24905464Y-62012500D03*
X111000000Y-115000000D03*
X111000000Y-117540000D03*
X108460000Y-115000000D03*
X108460000Y-117540000D03*
X105920000Y-115000000D03*
X105920000Y-117540000D03*
X103380000Y-115000000D03*
X103380000Y-117540000D03*
X100840000Y-115000000D03*
X100840000Y-117540000D03*
X98300000Y-115000000D03*
X98300000Y-117540000D03*
X95760000Y-115000000D03*
X95760000Y-117540000D03*
X24000000Y-116000000D03*
X21917500Y-44322500D03*
X21917500Y-49402500D03*
X26997500Y-44322500D03*
X26997500Y-46862500D03*
X26997500Y-49402500D03*
X46750000Y-34070000D03*
X30750000Y-42400000D03*
X46750000Y-97600000D03*
X118000000Y-116000000D03*
X70750000Y-34070000D03*
X54750000Y-42400000D03*
X70750000Y-97600000D03*
X118000000Y-24000000D03*
X94750000Y-34070000D03*
X78750000Y-42400000D03*
X94750000Y-97600000D03*
X23102500Y-96587500D03*
X23102500Y-99127500D03*
X23102500Y-86550000D03*
X23102500Y-89090000D03*
X24000000Y-24000000D03*
X31460000Y-22800000D03*
X34000000Y-22800000D03*
X69400000Y-75000000D03*
X59600000Y-93200000D03*
X77200000Y-83400000D03*
X69800000Y-58600000D03*
X50600000Y-88400000D03*
X109750000Y-88750000D03*
X100000000Y-101400000D03*
X109750000Y-92750000D03*
X79400000Y-97000000D03*
X69800000Y-63200000D03*
X109750000Y-100750000D03*
X98400000Y-108740000D03*
X98400000Y-106200000D03*
X56600000Y-77200000D03*
X109750000Y-96750000D03*
X64400000Y-98000000D03*
X98400000Y-85940000D03*
X98400000Y-83400000D03*
X99400000Y-89800000D03*
M02*
