%TF.GenerationSoftware,KiCad,Pcbnew,7.0.9*%
%TF.CreationDate,2024-07-22T22:58:02+02:00*%
%TF.ProjectId,EnvSensor-Power-v2.1,456e7653-656e-4736-9f72-2d506f776572,rev?*%
%TF.SameCoordinates,Original*%
%TF.FileFunction,Soldermask,Top*%
%TF.FilePolarity,Negative*%
%FSLAX46Y46*%
G04 Gerber Fmt 4.6, Leading zero omitted, Abs format (unit mm)*
G04 Created by KiCad (PCBNEW 7.0.9) date 2024-07-22 22:58:02*
%MOMM*%
%LPD*%
G01*
G04 APERTURE LIST*
G04 Aperture macros list*
%AMRoundRect*
0 Rectangle with rounded corners*
0 $1 Rounding radius*
0 $2 $3 $4 $5 $6 $7 $8 $9 X,Y pos of 4 corners*
0 Add a 4 corners polygon primitive as box body*
4,1,4,$2,$3,$4,$5,$6,$7,$8,$9,$2,$3,0*
0 Add four circle primitives for the rounded corners*
1,1,$1+$1,$2,$3*
1,1,$1+$1,$4,$5*
1,1,$1+$1,$6,$7*
1,1,$1+$1,$8,$9*
0 Add four rect primitives between the rounded corners*
20,1,$1+$1,$2,$3,$4,$5,0*
20,1,$1+$1,$4,$5,$6,$7,0*
20,1,$1+$1,$6,$7,$8,$9,0*
20,1,$1+$1,$8,$9,$2,$3,0*%
%AMFreePoly0*
4,1,19,0.500000,-0.750000,0.000000,-0.750000,0.000000,-0.744911,-0.071157,-0.744911,-0.207708,-0.704816,-0.327430,-0.627875,-0.420627,-0.520320,-0.479746,-0.390866,-0.500000,-0.250000,-0.500000,0.250000,-0.479746,0.390866,-0.420627,0.520320,-0.327430,0.627875,-0.207708,0.704816,-0.071157,0.744911,0.000000,0.744911,0.000000,0.750000,0.500000,0.750000,0.500000,-0.750000,0.500000,-0.750000,
$1*%
%AMFreePoly1*
4,1,19,0.000000,0.744911,0.071157,0.744911,0.207708,0.704816,0.327430,0.627875,0.420627,0.520320,0.479746,0.390866,0.500000,0.250000,0.500000,-0.250000,0.479746,-0.390866,0.420627,-0.520320,0.327430,-0.627875,0.207708,-0.704816,0.071157,-0.744911,0.000000,-0.744911,0.000000,-0.750000,-0.500000,-0.750000,-0.500000,0.750000,0.000000,0.750000,0.000000,0.744911,0.000000,0.744911,
$1*%
G04 Aperture macros list end*
%ADD10R,1.700000X1.700000*%
%ADD11O,1.700000X1.700000*%
%ADD12RoundRect,0.250000X-0.625000X0.375000X-0.625000X-0.375000X0.625000X-0.375000X0.625000X0.375000X0*%
%ADD13R,1.380000X0.450000*%
%ADD14R,1.300000X1.650000*%
%ADD15R,1.550000X1.425000*%
%ADD16R,1.900000X1.800000*%
%ADD17R,1.900000X1.000000*%
%ADD18R,1.200000X0.700000*%
%ADD19R,1.200000X0.760000*%
%ADD20R,1.200000X0.800000*%
%ADD21R,1.350000X1.800000*%
%ADD22R,1.500000X1.800000*%
%ADD23C,3.200000*%
%ADD24C,1.200000*%
%ADD25R,1.200000X1.200000*%
%ADD26C,2.390000*%
%ADD27C,3.450000*%
%ADD28R,6.350000X7.340000*%
%ADD29FreePoly0,180.000000*%
%ADD30FreePoly1,180.000000*%
%ADD31R,1.800000X1.800000*%
%ADD32C,1.800000*%
%ADD33RoundRect,0.250000X-0.250000X-0.475000X0.250000X-0.475000X0.250000X0.475000X-0.250000X0.475000X0*%
%ADD34RoundRect,0.250000X-0.250000X0.250000X-0.250000X-0.250000X0.250000X-0.250000X0.250000X0.250000X0*%
%ADD35C,1.500000*%
G04 APERTURE END LIST*
D10*
%TO.C,J6*%
X111000000Y-115000000D03*
D11*
X111000000Y-117540000D03*
X108460000Y-115000000D03*
X108460000Y-117540000D03*
X105920000Y-115000000D03*
X105920000Y-117540000D03*
X103380000Y-115000000D03*
X103380000Y-117540000D03*
X100840000Y-115000000D03*
X100840000Y-117540000D03*
X98300000Y-115000000D03*
X98300000Y-117540000D03*
X95760000Y-115000000D03*
X95760000Y-117540000D03*
%TD*%
D12*
%TO.C,F1*%
X43600000Y-112100000D03*
X43600000Y-114900000D03*
%TD*%
D13*
%TO.C,J1*%
X23815464Y-73912500D03*
X23815464Y-74562500D03*
X23815464Y-75212500D03*
X23815464Y-75862500D03*
X23815464Y-76512500D03*
D14*
X21155464Y-71837500D03*
D15*
X23730464Y-72725000D03*
D16*
X21155464Y-74062500D03*
D17*
X21155464Y-76762500D03*
D15*
X23730464Y-77700000D03*
D14*
X21155464Y-78587500D03*
%TD*%
D18*
%TO.C,J2*%
X26340464Y-60762500D03*
D19*
X26340464Y-62782500D03*
D20*
X26340464Y-64012500D03*
D18*
X26340464Y-61762500D03*
D19*
X26340464Y-59742500D03*
D20*
X26340464Y-58512500D03*
D21*
X26285464Y-56137500D03*
D22*
X22705464Y-56137500D03*
D21*
X26285464Y-66387500D03*
D22*
X22705464Y-66387500D03*
%TD*%
D23*
%TO.C,H4*%
X24000000Y-116000000D03*
%TD*%
D24*
%TO.C,SW1*%
X21917500Y-44322500D03*
X21917500Y-49402500D03*
D25*
X26997500Y-44322500D03*
D24*
X26997500Y-46862500D03*
X26997500Y-49402500D03*
%TD*%
D26*
%TO.C,B1*%
X46750000Y-34070000D03*
D27*
X30750000Y-42400000D03*
X46750000Y-97600000D03*
D28*
X38750000Y-30670000D03*
X38750000Y-109330000D03*
%TD*%
D23*
%TO.C,H3*%
X118000000Y-116000000D03*
%TD*%
D29*
%TO.C,JP1*%
X33450000Y-24600000D03*
D30*
X32150000Y-24600000D03*
%TD*%
D26*
%TO.C,B2*%
X70750000Y-34070000D03*
D27*
X54750000Y-42400000D03*
X70750000Y-97600000D03*
D28*
X62750000Y-30670000D03*
X62750000Y-109330000D03*
%TD*%
D12*
%TO.C,F2*%
X57800000Y-111800000D03*
X57800000Y-114600000D03*
%TD*%
%TO.C,F3*%
X81800000Y-111800000D03*
X81800000Y-114600000D03*
%TD*%
D23*
%TO.C,H2*%
X118000000Y-24000000D03*
%TD*%
D26*
%TO.C,B3*%
X94750000Y-34070000D03*
D27*
X78750000Y-42400000D03*
X94750000Y-97600000D03*
D28*
X86750000Y-30670000D03*
X86750000Y-109330000D03*
%TD*%
D31*
%TO.C,D7*%
X23102500Y-96587500D03*
D32*
X23102500Y-99127500D03*
%TD*%
D31*
%TO.C,D5*%
X23102500Y-86550000D03*
D32*
X23102500Y-89090000D03*
%TD*%
D33*
%TO.C,C1*%
X22650000Y-69200000D03*
X24550000Y-69200000D03*
%TD*%
D23*
%TO.C,H1*%
X24000000Y-24000000D03*
%TD*%
D34*
%TO.C,D1*%
X26600000Y-70950000D03*
X26600000Y-73450000D03*
%TD*%
D10*
%TO.C,J3*%
X31460000Y-22800000D03*
D11*
X34000000Y-22800000D03*
%TD*%
D35*
%TO.C,TS11*%
X89600000Y-97200000D03*
%TD*%
%TO.C,TS12*%
X74800000Y-106000000D03*
%TD*%
%TO.C,TS2*%
X69400000Y-75000000D03*
%TD*%
%TO.C,TS14*%
X73400000Y-61200000D03*
%TD*%
%TO.C,TS6*%
X59600000Y-93200000D03*
%TD*%
%TO.C,TS5*%
X74800000Y-83200000D03*
%TD*%
%TO.C,TS4*%
X69800000Y-58600000D03*
%TD*%
%TO.C,TS9*%
X50600000Y-88400000D03*
%TD*%
%TO.C,TP6*%
X109750000Y-88750000D03*
%TD*%
%TO.C,TP2*%
X100000000Y-101400000D03*
%TD*%
%TO.C,TP5*%
X109750000Y-92750000D03*
%TD*%
%TO.C,TS9*%
X50600000Y-88400000D03*
%TD*%
%TO.C,TS15*%
X74800000Y-75600000D03*
%TD*%
%TO.C,TS8*%
X74800000Y-97200000D03*
%TD*%
%TO.C,TS10*%
X74800000Y-92000000D03*
%TD*%
%TO.C,TS1*%
X69800000Y-63200000D03*
%TD*%
%TO.C,TS13*%
X91200000Y-83400000D03*
%TD*%
%TO.C,TP3*%
X109750000Y-100750000D03*
%TD*%
D10*
%TO.C,J5*%
X98400000Y-108740000D03*
D11*
X98400000Y-106200000D03*
%TD*%
D35*
%TO.C,TS3*%
X72200000Y-78200000D03*
%TD*%
%TO.C,TP4*%
X109750000Y-96750000D03*
%TD*%
%TO.C,TS7*%
X64400000Y-98000000D03*
%TD*%
D10*
%TO.C,J4*%
X98400000Y-85940000D03*
D11*
X98400000Y-83400000D03*
%TD*%
D35*
%TO.C,TP1*%
X99400000Y-89800000D03*
%TD*%
M02*
