%TF.GenerationSoftware,KiCad,Pcbnew,7.0.9*%
%TF.CreationDate,2024-06-04T23:40:40+02:00*%
%TF.ProjectId,EnvSensor-Power-v2.1,456e7653-656e-4736-9f72-2d506f776572,rev?*%
%TF.SameCoordinates,Original*%
%TF.FileFunction,Legend,Top*%
%TF.FilePolarity,Positive*%
%FSLAX46Y46*%
G04 Gerber Fmt 4.6, Leading zero omitted, Abs format (unit mm)*
G04 Created by KiCad (PCBNEW 7.0.9) date 2024-06-04 23:40:40*
%MOMM*%
%LPD*%
G01*
G04 APERTURE LIST*
%ADD10C,0.200000*%
%ADD11C,0.150000*%
%ADD12C,0.120000*%
%ADD13C,0.350000*%
G04 APERTURE END LIST*
D10*
X121000000Y-30000000D02*
X101000000Y-30000000D01*
D11*
X121000000Y-110000000D02*
X121000000Y-30000000D01*
X28200000Y-52800000D02*
X20200000Y-52800000D01*
X102587500Y-113200000D02*
X106612500Y-113200000D01*
X28200000Y-84400000D02*
X20155464Y-84400000D01*
X101000000Y-30000000D02*
X101000000Y-105250000D01*
X111750000Y-110000000D02*
X121000000Y-110000000D01*
X107975000Y-113200000D02*
X112000000Y-113200000D01*
D10*
G36*
X23247909Y-38829644D02*
G01*
X23296386Y-38878120D01*
X23350000Y-38985348D01*
X23350000Y-39366707D01*
X23296386Y-39473934D01*
X23247906Y-39522414D01*
X23140679Y-39576028D01*
X22973607Y-39576028D01*
X22866379Y-39522414D01*
X22817899Y-39473934D01*
X22764286Y-39366707D01*
X22764286Y-38985348D01*
X22817899Y-38878120D01*
X22866376Y-38829643D01*
X22973607Y-38776028D01*
X23140678Y-38776028D01*
X23247909Y-38829644D01*
G37*
G36*
X26161179Y-38821993D02*
G01*
X26207144Y-38913921D01*
X26207144Y-38951190D01*
X25692858Y-39054047D01*
X25692858Y-38913920D01*
X25738821Y-38821992D01*
X25830751Y-38776028D01*
X26069250Y-38776028D01*
X26161179Y-38821993D01*
G37*
G36*
X21890766Y-38329644D02*
G01*
X21939243Y-38378120D01*
X21992857Y-38485348D01*
X21992857Y-38652421D01*
X21939243Y-38759648D01*
X21890763Y-38808128D01*
X21783536Y-38861742D01*
X21335714Y-38861742D01*
X21335714Y-38276028D01*
X21783535Y-38276028D01*
X21890766Y-38329644D01*
G37*
G36*
X27764286Y-42405314D02*
G01*
X20564285Y-42405314D01*
X20564285Y-41019600D01*
X20778571Y-41019600D01*
X20785694Y-41041523D01*
X20789128Y-41064321D01*
X20860556Y-41207178D01*
X20871930Y-41218726D01*
X20879289Y-41233168D01*
X20950718Y-41304596D01*
X20965157Y-41311953D01*
X20976706Y-41323328D01*
X21119563Y-41394757D01*
X21130585Y-41396417D01*
X21140032Y-41402328D01*
X21415095Y-41471093D01*
X21533621Y-41530356D01*
X21582098Y-41578833D01*
X21635714Y-41686064D01*
X21635714Y-41781706D01*
X21582098Y-41888937D01*
X21533621Y-41937413D01*
X21426392Y-41991028D01*
X21109083Y-41991028D01*
X20910194Y-41924732D01*
X20848392Y-41924262D01*
X20798117Y-41960209D01*
X20778573Y-42018841D01*
X20797225Y-42077763D01*
X20846948Y-42114468D01*
X21061234Y-42185896D01*
X21077441Y-42186019D01*
X21092857Y-42191028D01*
X21449999Y-42191028D01*
X21471922Y-42183904D01*
X21494720Y-42180471D01*
X21637578Y-42109043D01*
X21649127Y-42097668D01*
X21663568Y-42090310D01*
X21734996Y-42018881D01*
X21742353Y-42004441D01*
X21753728Y-41992893D01*
X21825157Y-41850036D01*
X21828590Y-41827237D01*
X21835714Y-41805314D01*
X21835714Y-41662457D01*
X21828590Y-41640533D01*
X21825157Y-41617735D01*
X21753728Y-41474878D01*
X21742353Y-41463329D01*
X21734996Y-41448890D01*
X21663568Y-41377461D01*
X21649126Y-41370102D01*
X21637578Y-41358728D01*
X21494720Y-41287299D01*
X21483698Y-41285638D01*
X21474252Y-41279728D01*
X21199190Y-41210963D01*
X21080661Y-41151698D01*
X21047463Y-41118500D01*
X22139561Y-41118500D01*
X22425276Y-42118500D01*
X22441707Y-42142911D01*
X22457415Y-42167855D01*
X22458896Y-42168447D01*
X22459787Y-42169771D01*
X22487459Y-42179872D01*
X22514798Y-42190808D01*
X22516344Y-42190416D01*
X22517843Y-42190964D01*
X22546162Y-42182872D01*
X22574714Y-42175649D01*
X22575735Y-42174423D01*
X22577269Y-42173985D01*
X22595426Y-42150789D01*
X22614276Y-42128167D01*
X22807142Y-41646001D01*
X23000008Y-42128167D01*
X23018857Y-42150789D01*
X23037015Y-42173985D01*
X23038548Y-42174423D01*
X23039570Y-42175649D01*
X23068125Y-42182873D01*
X23096441Y-42190964D01*
X23097939Y-42190416D01*
X23099485Y-42190808D01*
X23126818Y-42179874D01*
X23154497Y-42169771D01*
X23155387Y-42168447D01*
X23156869Y-42167855D01*
X23172564Y-42142929D01*
X23189008Y-42118500D01*
X23196857Y-42091028D01*
X23849999Y-42091028D01*
X23869097Y-42149807D01*
X23919097Y-42186134D01*
X23980901Y-42186134D01*
X24030901Y-42149807D01*
X24049999Y-42091028D01*
X24049999Y-41121930D01*
X24354894Y-41121930D01*
X24391221Y-41171930D01*
X24450000Y-41191028D01*
X24564285Y-41191028D01*
X24564285Y-41876742D01*
X24571408Y-41898665D01*
X24574842Y-41921463D01*
X24646271Y-42064321D01*
X24646829Y-42064887D01*
X24646960Y-42065674D01*
X24668462Y-42086851D01*
X24689640Y-42108354D01*
X24690426Y-42108484D01*
X24690993Y-42109043D01*
X24833850Y-42180471D01*
X24856647Y-42183904D01*
X24878571Y-42191028D01*
X25021428Y-42191028D01*
X25080207Y-42171930D01*
X25116534Y-42121930D01*
X25116534Y-42060126D01*
X25080207Y-42010126D01*
X25021428Y-41991028D01*
X24902178Y-41991028D01*
X24810249Y-41945064D01*
X24764285Y-41853135D01*
X24764285Y-41805314D01*
X25350000Y-41805314D01*
X25357123Y-41827237D01*
X25360557Y-41850035D01*
X25431985Y-41992892D01*
X25443358Y-42004439D01*
X25450717Y-42018882D01*
X25522146Y-42090311D01*
X25536588Y-42097669D01*
X25548136Y-42109043D01*
X25690993Y-42180471D01*
X25713790Y-42183904D01*
X25735714Y-42191028D01*
X26021428Y-42191028D01*
X26043351Y-42183904D01*
X26066149Y-42180471D01*
X26209007Y-42109043D01*
X26227298Y-42091028D01*
X26707142Y-42091028D01*
X26726240Y-42149807D01*
X26776240Y-42186134D01*
X26838044Y-42186134D01*
X26888044Y-42149807D01*
X26907142Y-42091028D01*
X26907142Y-41275306D01*
X26937804Y-41244643D01*
X27045035Y-41191028D01*
X27212106Y-41191028D01*
X27304035Y-41236993D01*
X27350000Y-41328921D01*
X27350000Y-42091028D01*
X27369098Y-42149807D01*
X27419098Y-42186134D01*
X27480902Y-42186134D01*
X27530902Y-42149807D01*
X27550000Y-42091028D01*
X27550000Y-41305314D01*
X27542876Y-41283390D01*
X27539443Y-41260592D01*
X27468014Y-41117735D01*
X27467455Y-41117167D01*
X27467325Y-41116383D01*
X27445838Y-41095220D01*
X27424645Y-41073703D01*
X27423858Y-41073572D01*
X27423292Y-41073014D01*
X27280436Y-41001585D01*
X27257637Y-40998151D01*
X27235714Y-40991028D01*
X27021428Y-40991028D01*
X26999504Y-40998151D01*
X26976706Y-41001585D01*
X26907142Y-41036367D01*
X26907142Y-40591028D01*
X26888044Y-40532249D01*
X26838044Y-40495922D01*
X26776240Y-40495922D01*
X26726240Y-40532249D01*
X26707142Y-40591028D01*
X26707142Y-42091028D01*
X26227298Y-42091028D01*
X26253040Y-42065675D01*
X26263172Y-42004707D01*
X26235532Y-41949428D01*
X26180680Y-41920952D01*
X26119565Y-41930157D01*
X25997821Y-41991028D01*
X25759321Y-41991028D01*
X25652093Y-41937414D01*
X25603613Y-41888934D01*
X25550000Y-41781707D01*
X25550000Y-41400348D01*
X25603613Y-41293120D01*
X25652090Y-41244643D01*
X25759321Y-41191028D01*
X25997821Y-41191028D01*
X26119565Y-41251900D01*
X26180679Y-41261105D01*
X26235532Y-41232629D01*
X26263171Y-41177350D01*
X26253040Y-41116383D01*
X26209007Y-41073014D01*
X26066149Y-41001585D01*
X26043351Y-40998151D01*
X26021428Y-40991028D01*
X25735714Y-40991028D01*
X25713790Y-40998151D01*
X25690992Y-41001585D01*
X25548135Y-41073014D01*
X25536586Y-41084388D01*
X25522147Y-41091746D01*
X25450718Y-41163174D01*
X25443359Y-41177615D01*
X25431985Y-41189164D01*
X25360557Y-41332021D01*
X25357123Y-41354818D01*
X25350000Y-41376742D01*
X25350000Y-41805314D01*
X24764285Y-41805314D01*
X24764285Y-41191028D01*
X25021428Y-41191028D01*
X25080207Y-41171930D01*
X25116534Y-41121930D01*
X25116534Y-41060126D01*
X25080207Y-41010126D01*
X25021428Y-40991028D01*
X24764285Y-40991028D01*
X24764285Y-40591028D01*
X24745187Y-40532249D01*
X24695187Y-40495922D01*
X24633383Y-40495922D01*
X24583383Y-40532249D01*
X24564285Y-40591028D01*
X24564285Y-40991028D01*
X24450000Y-40991028D01*
X24391221Y-41010126D01*
X24354894Y-41060126D01*
X24354894Y-41121930D01*
X24049999Y-41121930D01*
X24049999Y-41091028D01*
X24030901Y-41032249D01*
X23980901Y-40995922D01*
X23919097Y-40995922D01*
X23869097Y-41032249D01*
X23849999Y-41091028D01*
X23849999Y-42091028D01*
X23196857Y-42091028D01*
X23474723Y-41118500D01*
X23472507Y-41056736D01*
X23434411Y-41008070D01*
X23374985Y-40991092D01*
X23316929Y-41012285D01*
X23282418Y-41063556D01*
X23077065Y-41782291D01*
X22899990Y-41339603D01*
X22884252Y-41320714D01*
X22871155Y-41299915D01*
X22864806Y-41297375D01*
X22860428Y-41292121D01*
X22836593Y-41286090D01*
X22813771Y-41276962D01*
X22807141Y-41278639D01*
X22800512Y-41276962D01*
X22777689Y-41286090D01*
X22753856Y-41292121D01*
X22749478Y-41297375D01*
X22743129Y-41299915D01*
X22730028Y-41320718D01*
X22714294Y-41339603D01*
X22537218Y-41782291D01*
X22331865Y-41063556D01*
X22297354Y-41012285D01*
X22239298Y-40991092D01*
X22179872Y-41008071D01*
X22141776Y-41056736D01*
X22139561Y-41118500D01*
X21047463Y-41118500D01*
X21032184Y-41103221D01*
X20978571Y-40995993D01*
X20978571Y-40900348D01*
X21032184Y-40793120D01*
X21080661Y-40744643D01*
X21187892Y-40691028D01*
X21505201Y-40691028D01*
X21704091Y-40757325D01*
X21765893Y-40757795D01*
X21816167Y-40721848D01*
X21830750Y-40678100D01*
X23779802Y-40678100D01*
X23786992Y-40692211D01*
X23789470Y-40707857D01*
X23800669Y-40719056D01*
X23807860Y-40733168D01*
X23879288Y-40804595D01*
X23893398Y-40811784D01*
X23904599Y-40822986D01*
X23912569Y-40824248D01*
X23919097Y-40828991D01*
X23927166Y-40828991D01*
X23934355Y-40832654D01*
X23949998Y-40830176D01*
X23965642Y-40832654D01*
X23972831Y-40828991D01*
X23980901Y-40828991D01*
X23987429Y-40824248D01*
X23995398Y-40822986D01*
X24006598Y-40811785D01*
X24020709Y-40804596D01*
X24092138Y-40733168D01*
X24099328Y-40719056D01*
X24110529Y-40707856D01*
X24113006Y-40692212D01*
X24120197Y-40678101D01*
X24117719Y-40662457D01*
X24120197Y-40646814D01*
X24113006Y-40632701D01*
X24110529Y-40617059D01*
X24099330Y-40605859D01*
X24092139Y-40591746D01*
X24020710Y-40520317D01*
X24006596Y-40513125D01*
X23995397Y-40501927D01*
X23987429Y-40500665D01*
X23980901Y-40495922D01*
X23972831Y-40495922D01*
X23965642Y-40492259D01*
X23949998Y-40494736D01*
X23934355Y-40492259D01*
X23927166Y-40495922D01*
X23919097Y-40495922D01*
X23912569Y-40500664D01*
X23904600Y-40501927D01*
X23893399Y-40513127D01*
X23879288Y-40520318D01*
X23807860Y-40591747D01*
X23800670Y-40605857D01*
X23789470Y-40617058D01*
X23786992Y-40632702D01*
X23779802Y-40646814D01*
X23782279Y-40662457D01*
X23779802Y-40678100D01*
X21830750Y-40678100D01*
X21835711Y-40663216D01*
X21817060Y-40604294D01*
X21767337Y-40567589D01*
X21553051Y-40496160D01*
X21536843Y-40496036D01*
X21521428Y-40491028D01*
X21164285Y-40491028D01*
X21142361Y-40498151D01*
X21119563Y-40501585D01*
X20976706Y-40573014D01*
X20965157Y-40584388D01*
X20950718Y-40591746D01*
X20879289Y-40663174D01*
X20871930Y-40677615D01*
X20860556Y-40689164D01*
X20789128Y-40832021D01*
X20785694Y-40854818D01*
X20778571Y-40876742D01*
X20778571Y-41019600D01*
X20564285Y-41019600D01*
X20564285Y-39676028D01*
X21135714Y-39676028D01*
X21154812Y-39734807D01*
X21204812Y-39771134D01*
X21266616Y-39771134D01*
X21316616Y-39734807D01*
X21335714Y-39676028D01*
X21335714Y-39390314D01*
X22564286Y-39390314D01*
X22571409Y-39412237D01*
X22574843Y-39435035D01*
X22646271Y-39577892D01*
X22657644Y-39589439D01*
X22665003Y-39603882D01*
X22736432Y-39675311D01*
X22750874Y-39682669D01*
X22762422Y-39694043D01*
X22905279Y-39765471D01*
X22928076Y-39768904D01*
X22950000Y-39776028D01*
X23164286Y-39776028D01*
X23186209Y-39768904D01*
X23209007Y-39765471D01*
X23351864Y-39694043D01*
X23363411Y-39682669D01*
X23377854Y-39675311D01*
X23449283Y-39603882D01*
X23456641Y-39589439D01*
X23468015Y-39577892D01*
X23539443Y-39435035D01*
X23542876Y-39412237D01*
X23550000Y-39390314D01*
X23550000Y-38961742D01*
X23542876Y-38939818D01*
X23539443Y-38917021D01*
X23468015Y-38774164D01*
X23456640Y-38762615D01*
X23449282Y-38748174D01*
X23404607Y-38703500D01*
X23853848Y-38703500D01*
X24139563Y-39703500D01*
X24155994Y-39727911D01*
X24171702Y-39752855D01*
X24173183Y-39753447D01*
X24174074Y-39754771D01*
X24201746Y-39764872D01*
X24229085Y-39775808D01*
X24230631Y-39775416D01*
X24232130Y-39775964D01*
X24260449Y-39767872D01*
X24289001Y-39760649D01*
X24290022Y-39759423D01*
X24291556Y-39758985D01*
X24309713Y-39735789D01*
X24328563Y-39713167D01*
X24521429Y-39231001D01*
X24714295Y-39713167D01*
X24733144Y-39735789D01*
X24751302Y-39758985D01*
X24752835Y-39759423D01*
X24753857Y-39760649D01*
X24782412Y-39767873D01*
X24810728Y-39775964D01*
X24812226Y-39775416D01*
X24813772Y-39775808D01*
X24841105Y-39764874D01*
X24868784Y-39754771D01*
X24869674Y-39753447D01*
X24871156Y-39752855D01*
X24886851Y-39727929D01*
X24903295Y-39703500D01*
X24972369Y-39461742D01*
X25492858Y-39461742D01*
X25499981Y-39483665D01*
X25503415Y-39506463D01*
X25574843Y-39649321D01*
X25575401Y-39649887D01*
X25575532Y-39650675D01*
X25597033Y-39671852D01*
X25618211Y-39693354D01*
X25618998Y-39693484D01*
X25619565Y-39694043D01*
X25762423Y-39765471D01*
X25785220Y-39768904D01*
X25807144Y-39776028D01*
X26092858Y-39776028D01*
X26114781Y-39768904D01*
X26137579Y-39765471D01*
X26280436Y-39694043D01*
X26298727Y-39676028D01*
X26850000Y-39676028D01*
X26869098Y-39734807D01*
X26919098Y-39771134D01*
X26980902Y-39771134D01*
X27030902Y-39734807D01*
X27050000Y-39676028D01*
X27050000Y-38985350D01*
X27103615Y-38878119D01*
X27152091Y-38829643D01*
X27259322Y-38776028D01*
X27378572Y-38776028D01*
X27437351Y-38756930D01*
X27473678Y-38706930D01*
X27473678Y-38645126D01*
X27437351Y-38595126D01*
X27378572Y-38576028D01*
X27235715Y-38576028D01*
X27213791Y-38583151D01*
X27190993Y-38586585D01*
X27048136Y-38658014D01*
X27045114Y-38660990D01*
X27030902Y-38617249D01*
X26980902Y-38580922D01*
X26919098Y-38580922D01*
X26869098Y-38617249D01*
X26850000Y-38676028D01*
X26850000Y-39676028D01*
X26298727Y-39676028D01*
X26324469Y-39650674D01*
X26334600Y-39589707D01*
X26306961Y-39534428D01*
X26252109Y-39505952D01*
X26190994Y-39515157D01*
X26069251Y-39576028D01*
X25830751Y-39576028D01*
X25738821Y-39530064D01*
X25692858Y-39438135D01*
X25692858Y-39258008D01*
X26326756Y-39131229D01*
X26332014Y-39128277D01*
X26338046Y-39128277D01*
X26358551Y-39113379D01*
X26380648Y-39100974D01*
X26383167Y-39095494D01*
X26388046Y-39091950D01*
X26395875Y-39067851D01*
X26406464Y-39044821D01*
X26405280Y-39038905D01*
X26407144Y-39033171D01*
X26407144Y-38890314D01*
X26400020Y-38868390D01*
X26396587Y-38845592D01*
X26325158Y-38702735D01*
X26324599Y-38702167D01*
X26324469Y-38701383D01*
X26302982Y-38680220D01*
X26281789Y-38658703D01*
X26281002Y-38658572D01*
X26280436Y-38658014D01*
X26137580Y-38586585D01*
X26114781Y-38583151D01*
X26092858Y-38576028D01*
X25807144Y-38576028D01*
X25785220Y-38583151D01*
X25762423Y-38586585D01*
X25619565Y-38658014D01*
X25618998Y-38658572D01*
X25618212Y-38658703D01*
X25597034Y-38680205D01*
X25575532Y-38701383D01*
X25575401Y-38702169D01*
X25574843Y-38702736D01*
X25503415Y-38845593D01*
X25499981Y-38868390D01*
X25492858Y-38890314D01*
X25492858Y-39461742D01*
X24972369Y-39461742D01*
X25189010Y-38703500D01*
X25186794Y-38641736D01*
X25148698Y-38593070D01*
X25089272Y-38576092D01*
X25031216Y-38597285D01*
X24996705Y-38648556D01*
X24791352Y-39367291D01*
X24614277Y-38924603D01*
X24598539Y-38905714D01*
X24585442Y-38884915D01*
X24579093Y-38882375D01*
X24574715Y-38877121D01*
X24550880Y-38871090D01*
X24528058Y-38861962D01*
X24521428Y-38863639D01*
X24514799Y-38861962D01*
X24491976Y-38871090D01*
X24468143Y-38877121D01*
X24463765Y-38882375D01*
X24457416Y-38884915D01*
X24444315Y-38905718D01*
X24428581Y-38924603D01*
X24251505Y-39367291D01*
X24046152Y-38648556D01*
X24011641Y-38597285D01*
X23953585Y-38576092D01*
X23894159Y-38593071D01*
X23856063Y-38641736D01*
X23853848Y-38703500D01*
X23404607Y-38703500D01*
X23377853Y-38676746D01*
X23363412Y-38669388D01*
X23351864Y-38658014D01*
X23209008Y-38586585D01*
X23186209Y-38583151D01*
X23164286Y-38576028D01*
X22950000Y-38576028D01*
X22928076Y-38583151D01*
X22905278Y-38586585D01*
X22762421Y-38658014D01*
X22750872Y-38669388D01*
X22736433Y-38676746D01*
X22665004Y-38748174D01*
X22657645Y-38762615D01*
X22646271Y-38774164D01*
X22574843Y-38917021D01*
X22571409Y-38939818D01*
X22564286Y-38961742D01*
X22564286Y-39390314D01*
X21335714Y-39390314D01*
X21335714Y-39061742D01*
X21807143Y-39061742D01*
X21829066Y-39054618D01*
X21851864Y-39051185D01*
X21994721Y-38979757D01*
X22006268Y-38968383D01*
X22020711Y-38961025D01*
X22092140Y-38889596D01*
X22099498Y-38875153D01*
X22110872Y-38863606D01*
X22182300Y-38720749D01*
X22185733Y-38697951D01*
X22192857Y-38676028D01*
X22192857Y-38461742D01*
X22185733Y-38439818D01*
X22182300Y-38417021D01*
X22110872Y-38274164D01*
X22099497Y-38262615D01*
X22092139Y-38248174D01*
X22020710Y-38176746D01*
X22006269Y-38169388D01*
X21994721Y-38158014D01*
X21851865Y-38086585D01*
X21829066Y-38083151D01*
X21807143Y-38076028D01*
X21235714Y-38076028D01*
X21220651Y-38080922D01*
X21204812Y-38080922D01*
X21191998Y-38090231D01*
X21176935Y-38095126D01*
X21167625Y-38107939D01*
X21154812Y-38117249D01*
X21149917Y-38132312D01*
X21140608Y-38145126D01*
X21140608Y-38160965D01*
X21135714Y-38176028D01*
X21135714Y-39676028D01*
X20564285Y-39676028D01*
X20564285Y-37861742D01*
X27764286Y-37861742D01*
X27764286Y-42405314D01*
G37*
X21157142Y-81561028D02*
X21157142Y-80061028D01*
X21157142Y-80061028D02*
X21657142Y-81132457D01*
X21657142Y-81132457D02*
X22157142Y-80061028D01*
X22157142Y-80061028D02*
X22157142Y-81561028D01*
X22871428Y-81561028D02*
X22871428Y-80561028D01*
X22871428Y-80061028D02*
X22800000Y-80132457D01*
X22800000Y-80132457D02*
X22871428Y-80203885D01*
X22871428Y-80203885D02*
X22942857Y-80132457D01*
X22942857Y-80132457D02*
X22871428Y-80061028D01*
X22871428Y-80061028D02*
X22871428Y-80203885D01*
X24228572Y-81489600D02*
X24085714Y-81561028D01*
X24085714Y-81561028D02*
X23800000Y-81561028D01*
X23800000Y-81561028D02*
X23657143Y-81489600D01*
X23657143Y-81489600D02*
X23585714Y-81418171D01*
X23585714Y-81418171D02*
X23514286Y-81275314D01*
X23514286Y-81275314D02*
X23514286Y-80846742D01*
X23514286Y-80846742D02*
X23585714Y-80703885D01*
X23585714Y-80703885D02*
X23657143Y-80632457D01*
X23657143Y-80632457D02*
X23800000Y-80561028D01*
X23800000Y-80561028D02*
X24085714Y-80561028D01*
X24085714Y-80561028D02*
X24228572Y-80632457D01*
X24871428Y-81561028D02*
X24871428Y-80561028D01*
X24871428Y-80846742D02*
X24942857Y-80703885D01*
X24942857Y-80703885D02*
X25014286Y-80632457D01*
X25014286Y-80632457D02*
X25157143Y-80561028D01*
X25157143Y-80561028D02*
X25300000Y-80561028D01*
X26014285Y-81561028D02*
X25871428Y-81489600D01*
X25871428Y-81489600D02*
X25799999Y-81418171D01*
X25799999Y-81418171D02*
X25728571Y-81275314D01*
X25728571Y-81275314D02*
X25728571Y-80846742D01*
X25728571Y-80846742D02*
X25799999Y-80703885D01*
X25799999Y-80703885D02*
X25871428Y-80632457D01*
X25871428Y-80632457D02*
X26014285Y-80561028D01*
X26014285Y-80561028D02*
X26228571Y-80561028D01*
X26228571Y-80561028D02*
X26371428Y-80632457D01*
X26371428Y-80632457D02*
X26442857Y-80703885D01*
X26442857Y-80703885D02*
X26514285Y-80846742D01*
X26514285Y-80846742D02*
X26514285Y-81275314D01*
X26514285Y-81275314D02*
X26442857Y-81418171D01*
X26442857Y-81418171D02*
X26371428Y-81489600D01*
X26371428Y-81489600D02*
X26228571Y-81561028D01*
X26228571Y-81561028D02*
X26014285Y-81561028D01*
X21907142Y-82476028D02*
X21907142Y-83690314D01*
X21907142Y-83690314D02*
X21978571Y-83833171D01*
X21978571Y-83833171D02*
X22050000Y-83904600D01*
X22050000Y-83904600D02*
X22192857Y-83976028D01*
X22192857Y-83976028D02*
X22478571Y-83976028D01*
X22478571Y-83976028D02*
X22621428Y-83904600D01*
X22621428Y-83904600D02*
X22692857Y-83833171D01*
X22692857Y-83833171D02*
X22764285Y-83690314D01*
X22764285Y-83690314D02*
X22764285Y-82476028D01*
X23407143Y-83904600D02*
X23621429Y-83976028D01*
X23621429Y-83976028D02*
X23978571Y-83976028D01*
X23978571Y-83976028D02*
X24121429Y-83904600D01*
X24121429Y-83904600D02*
X24192857Y-83833171D01*
X24192857Y-83833171D02*
X24264286Y-83690314D01*
X24264286Y-83690314D02*
X24264286Y-83547457D01*
X24264286Y-83547457D02*
X24192857Y-83404600D01*
X24192857Y-83404600D02*
X24121429Y-83333171D01*
X24121429Y-83333171D02*
X23978571Y-83261742D01*
X23978571Y-83261742D02*
X23692857Y-83190314D01*
X23692857Y-83190314D02*
X23550000Y-83118885D01*
X23550000Y-83118885D02*
X23478571Y-83047457D01*
X23478571Y-83047457D02*
X23407143Y-82904600D01*
X23407143Y-82904600D02*
X23407143Y-82761742D01*
X23407143Y-82761742D02*
X23478571Y-82618885D01*
X23478571Y-82618885D02*
X23550000Y-82547457D01*
X23550000Y-82547457D02*
X23692857Y-82476028D01*
X23692857Y-82476028D02*
X24050000Y-82476028D01*
X24050000Y-82476028D02*
X24264286Y-82547457D01*
X25407142Y-83190314D02*
X25621428Y-83261742D01*
X25621428Y-83261742D02*
X25692857Y-83333171D01*
X25692857Y-83333171D02*
X25764285Y-83476028D01*
X25764285Y-83476028D02*
X25764285Y-83690314D01*
X25764285Y-83690314D02*
X25692857Y-83833171D01*
X25692857Y-83833171D02*
X25621428Y-83904600D01*
X25621428Y-83904600D02*
X25478571Y-83976028D01*
X25478571Y-83976028D02*
X24907142Y-83976028D01*
X24907142Y-83976028D02*
X24907142Y-82476028D01*
X24907142Y-82476028D02*
X25407142Y-82476028D01*
X25407142Y-82476028D02*
X25550000Y-82547457D01*
X25550000Y-82547457D02*
X25621428Y-82618885D01*
X25621428Y-82618885D02*
X25692857Y-82761742D01*
X25692857Y-82761742D02*
X25692857Y-82904600D01*
X25692857Y-82904600D02*
X25621428Y-83047457D01*
X25621428Y-83047457D02*
X25550000Y-83118885D01*
X25550000Y-83118885D02*
X25407142Y-83190314D01*
X25407142Y-83190314D02*
X24907142Y-83190314D01*
D11*
X98118771Y-112815601D02*
X98175914Y-112644173D01*
X98175914Y-112644173D02*
X98233057Y-112587030D01*
X98233057Y-112587030D02*
X98347342Y-112529887D01*
X98347342Y-112529887D02*
X98518771Y-112529887D01*
X98518771Y-112529887D02*
X98633057Y-112587030D01*
X98633057Y-112587030D02*
X98690200Y-112644173D01*
X98690200Y-112644173D02*
X98747342Y-112758458D01*
X98747342Y-112758458D02*
X98747342Y-113215601D01*
X98747342Y-113215601D02*
X97547342Y-113215601D01*
X97547342Y-113215601D02*
X97547342Y-112815601D01*
X97547342Y-112815601D02*
X97604485Y-112701316D01*
X97604485Y-112701316D02*
X97661628Y-112644173D01*
X97661628Y-112644173D02*
X97775914Y-112587030D01*
X97775914Y-112587030D02*
X97890200Y-112587030D01*
X97890200Y-112587030D02*
X98004485Y-112644173D01*
X98004485Y-112644173D02*
X98061628Y-112701316D01*
X98061628Y-112701316D02*
X98118771Y-112815601D01*
X98118771Y-112815601D02*
X98118771Y-113215601D01*
X98404485Y-112072744D02*
X98404485Y-111501316D01*
X98747342Y-112187030D02*
X97547342Y-111787030D01*
X97547342Y-111787030D02*
X98747342Y-111387030D01*
X97547342Y-111158459D02*
X97547342Y-110472745D01*
X98747342Y-110815602D02*
X97547342Y-110815602D01*
X98290200Y-110072744D02*
X98290200Y-109158459D01*
X98747342Y-109615601D02*
X97833057Y-109615601D01*
X95147342Y-113215601D02*
X96118771Y-113215601D01*
X96118771Y-113215601D02*
X96233057Y-113158458D01*
X96233057Y-113158458D02*
X96290200Y-113101316D01*
X96290200Y-113101316D02*
X96347342Y-112987030D01*
X96347342Y-112987030D02*
X96347342Y-112758458D01*
X96347342Y-112758458D02*
X96290200Y-112644173D01*
X96290200Y-112644173D02*
X96233057Y-112587030D01*
X96233057Y-112587030D02*
X96118771Y-112529887D01*
X96118771Y-112529887D02*
X95147342Y-112529887D01*
X96290200Y-112015601D02*
X96347342Y-111844173D01*
X96347342Y-111844173D02*
X96347342Y-111558458D01*
X96347342Y-111558458D02*
X96290200Y-111444173D01*
X96290200Y-111444173D02*
X96233057Y-111387030D01*
X96233057Y-111387030D02*
X96118771Y-111329887D01*
X96118771Y-111329887D02*
X96004485Y-111329887D01*
X96004485Y-111329887D02*
X95890200Y-111387030D01*
X95890200Y-111387030D02*
X95833057Y-111444173D01*
X95833057Y-111444173D02*
X95775914Y-111558458D01*
X95775914Y-111558458D02*
X95718771Y-111787030D01*
X95718771Y-111787030D02*
X95661628Y-111901315D01*
X95661628Y-111901315D02*
X95604485Y-111958458D01*
X95604485Y-111958458D02*
X95490200Y-112015601D01*
X95490200Y-112015601D02*
X95375914Y-112015601D01*
X95375914Y-112015601D02*
X95261628Y-111958458D01*
X95261628Y-111958458D02*
X95204485Y-111901315D01*
X95204485Y-111901315D02*
X95147342Y-111787030D01*
X95147342Y-111787030D02*
X95147342Y-111501315D01*
X95147342Y-111501315D02*
X95204485Y-111329887D01*
X95718771Y-110415601D02*
X95775914Y-110244173D01*
X95775914Y-110244173D02*
X95833057Y-110187030D01*
X95833057Y-110187030D02*
X95947342Y-110129887D01*
X95947342Y-110129887D02*
X96118771Y-110129887D01*
X96118771Y-110129887D02*
X96233057Y-110187030D01*
X96233057Y-110187030D02*
X96290200Y-110244173D01*
X96290200Y-110244173D02*
X96347342Y-110358458D01*
X96347342Y-110358458D02*
X96347342Y-110815601D01*
X96347342Y-110815601D02*
X95147342Y-110815601D01*
X95147342Y-110815601D02*
X95147342Y-110415601D01*
X95147342Y-110415601D02*
X95204485Y-110301316D01*
X95204485Y-110301316D02*
X95261628Y-110244173D01*
X95261628Y-110244173D02*
X95375914Y-110187030D01*
X95375914Y-110187030D02*
X95490200Y-110187030D01*
X95490200Y-110187030D02*
X95604485Y-110244173D01*
X95604485Y-110244173D02*
X95661628Y-110301316D01*
X95661628Y-110301316D02*
X95718771Y-110415601D01*
X95718771Y-110415601D02*
X95718771Y-110815601D01*
X109347342Y-112729887D02*
X109347342Y-111987030D01*
X109347342Y-111987030D02*
X109804485Y-112387030D01*
X109804485Y-112387030D02*
X109804485Y-112215601D01*
X109804485Y-112215601D02*
X109861628Y-112101316D01*
X109861628Y-112101316D02*
X109918771Y-112044173D01*
X109918771Y-112044173D02*
X110033057Y-111987030D01*
X110033057Y-111987030D02*
X110318771Y-111987030D01*
X110318771Y-111987030D02*
X110433057Y-112044173D01*
X110433057Y-112044173D02*
X110490200Y-112101316D01*
X110490200Y-112101316D02*
X110547342Y-112215601D01*
X110547342Y-112215601D02*
X110547342Y-112558458D01*
X110547342Y-112558458D02*
X110490200Y-112672744D01*
X110490200Y-112672744D02*
X110433057Y-112729887D01*
X110433057Y-111472744D02*
X110490200Y-111415601D01*
X110490200Y-111415601D02*
X110547342Y-111472744D01*
X110547342Y-111472744D02*
X110490200Y-111529887D01*
X110490200Y-111529887D02*
X110433057Y-111472744D01*
X110433057Y-111472744D02*
X110547342Y-111472744D01*
X109347342Y-111015601D02*
X109347342Y-110272744D01*
X109347342Y-110272744D02*
X109804485Y-110672744D01*
X109804485Y-110672744D02*
X109804485Y-110501315D01*
X109804485Y-110501315D02*
X109861628Y-110387030D01*
X109861628Y-110387030D02*
X109918771Y-110329887D01*
X109918771Y-110329887D02*
X110033057Y-110272744D01*
X110033057Y-110272744D02*
X110318771Y-110272744D01*
X110318771Y-110272744D02*
X110433057Y-110329887D01*
X110433057Y-110329887D02*
X110490200Y-110387030D01*
X110490200Y-110387030D02*
X110547342Y-110501315D01*
X110547342Y-110501315D02*
X110547342Y-110844172D01*
X110547342Y-110844172D02*
X110490200Y-110958458D01*
X110490200Y-110958458D02*
X110433057Y-111015601D01*
X109347342Y-109929887D02*
X110547342Y-109529887D01*
X110547342Y-109529887D02*
X109347342Y-109129887D01*
D10*
X20785714Y-53183528D02*
X20785714Y-54397814D01*
X20785714Y-54397814D02*
X20857143Y-54540671D01*
X20857143Y-54540671D02*
X20928572Y-54612100D01*
X20928572Y-54612100D02*
X21071429Y-54683528D01*
X21071429Y-54683528D02*
X21357143Y-54683528D01*
X21357143Y-54683528D02*
X21500000Y-54612100D01*
X21500000Y-54612100D02*
X21571429Y-54540671D01*
X21571429Y-54540671D02*
X21642857Y-54397814D01*
X21642857Y-54397814D02*
X21642857Y-53183528D01*
X22285715Y-54612100D02*
X22500001Y-54683528D01*
X22500001Y-54683528D02*
X22857143Y-54683528D01*
X22857143Y-54683528D02*
X23000001Y-54612100D01*
X23000001Y-54612100D02*
X23071429Y-54540671D01*
X23071429Y-54540671D02*
X23142858Y-54397814D01*
X23142858Y-54397814D02*
X23142858Y-54254957D01*
X23142858Y-54254957D02*
X23071429Y-54112100D01*
X23071429Y-54112100D02*
X23000001Y-54040671D01*
X23000001Y-54040671D02*
X22857143Y-53969242D01*
X22857143Y-53969242D02*
X22571429Y-53897814D01*
X22571429Y-53897814D02*
X22428572Y-53826385D01*
X22428572Y-53826385D02*
X22357143Y-53754957D01*
X22357143Y-53754957D02*
X22285715Y-53612100D01*
X22285715Y-53612100D02*
X22285715Y-53469242D01*
X22285715Y-53469242D02*
X22357143Y-53326385D01*
X22357143Y-53326385D02*
X22428572Y-53254957D01*
X22428572Y-53254957D02*
X22571429Y-53183528D01*
X22571429Y-53183528D02*
X22928572Y-53183528D01*
X22928572Y-53183528D02*
X23142858Y-53254957D01*
X24285714Y-53897814D02*
X24500000Y-53969242D01*
X24500000Y-53969242D02*
X24571429Y-54040671D01*
X24571429Y-54040671D02*
X24642857Y-54183528D01*
X24642857Y-54183528D02*
X24642857Y-54397814D01*
X24642857Y-54397814D02*
X24571429Y-54540671D01*
X24571429Y-54540671D02*
X24500000Y-54612100D01*
X24500000Y-54612100D02*
X24357143Y-54683528D01*
X24357143Y-54683528D02*
X23785714Y-54683528D01*
X23785714Y-54683528D02*
X23785714Y-53183528D01*
X23785714Y-53183528D02*
X24285714Y-53183528D01*
X24285714Y-53183528D02*
X24428572Y-53254957D01*
X24428572Y-53254957D02*
X24500000Y-53326385D01*
X24500000Y-53326385D02*
X24571429Y-53469242D01*
X24571429Y-53469242D02*
X24571429Y-53612100D01*
X24571429Y-53612100D02*
X24500000Y-53754957D01*
X24500000Y-53754957D02*
X24428572Y-53826385D01*
X24428572Y-53826385D02*
X24285714Y-53897814D01*
X24285714Y-53897814D02*
X23785714Y-53897814D01*
X27285714Y-54540671D02*
X27214286Y-54612100D01*
X27214286Y-54612100D02*
X27000000Y-54683528D01*
X27000000Y-54683528D02*
X26857143Y-54683528D01*
X26857143Y-54683528D02*
X26642857Y-54612100D01*
X26642857Y-54612100D02*
X26500000Y-54469242D01*
X26500000Y-54469242D02*
X26428571Y-54326385D01*
X26428571Y-54326385D02*
X26357143Y-54040671D01*
X26357143Y-54040671D02*
X26357143Y-53826385D01*
X26357143Y-53826385D02*
X26428571Y-53540671D01*
X26428571Y-53540671D02*
X26500000Y-53397814D01*
X26500000Y-53397814D02*
X26642857Y-53254957D01*
X26642857Y-53254957D02*
X26857143Y-53183528D01*
X26857143Y-53183528D02*
X27000000Y-53183528D01*
X27000000Y-53183528D02*
X27214286Y-53254957D01*
X27214286Y-53254957D02*
X27285714Y-53326385D01*
D11*
X100147342Y-112044173D02*
X100147342Y-112615601D01*
X100147342Y-112615601D02*
X100718771Y-112672744D01*
X100718771Y-112672744D02*
X100661628Y-112615601D01*
X100661628Y-112615601D02*
X100604485Y-112501316D01*
X100604485Y-112501316D02*
X100604485Y-112215601D01*
X100604485Y-112215601D02*
X100661628Y-112101316D01*
X100661628Y-112101316D02*
X100718771Y-112044173D01*
X100718771Y-112044173D02*
X100833057Y-111987030D01*
X100833057Y-111987030D02*
X101118771Y-111987030D01*
X101118771Y-111987030D02*
X101233057Y-112044173D01*
X101233057Y-112044173D02*
X101290200Y-112101316D01*
X101290200Y-112101316D02*
X101347342Y-112215601D01*
X101347342Y-112215601D02*
X101347342Y-112501316D01*
X101347342Y-112501316D02*
X101290200Y-112615601D01*
X101290200Y-112615601D02*
X101233057Y-112672744D01*
X100147342Y-111644173D02*
X101347342Y-111244173D01*
X101347342Y-111244173D02*
X100147342Y-110844173D01*
X101461628Y-110729888D02*
X101461628Y-109815602D01*
X100718771Y-109529887D02*
X100718771Y-109129887D01*
X101347342Y-108958459D02*
X101347342Y-109529887D01*
X101347342Y-109529887D02*
X100147342Y-109529887D01*
X100147342Y-109529887D02*
X100147342Y-108958459D01*
X101347342Y-108444173D02*
X100147342Y-108444173D01*
X100147342Y-108444173D02*
X101347342Y-107758459D01*
X101347342Y-107758459D02*
X100147342Y-107758459D01*
D10*
G36*
X27416471Y-94712328D02*
G01*
X27416471Y-94950827D01*
X27362855Y-95058058D01*
X27314378Y-95106535D01*
X27207150Y-95160149D01*
X26825792Y-95160149D01*
X26718563Y-95106535D01*
X26670087Y-95058058D01*
X26616471Y-94950826D01*
X26616471Y-94712328D01*
X26649704Y-94645863D01*
X27383238Y-94645863D01*
X27416471Y-94712328D01*
G37*
G36*
X27370506Y-89191827D02*
G01*
X27416471Y-89283757D01*
X27416471Y-89522256D01*
X27370506Y-89614184D01*
X27278577Y-89660150D01*
X27241308Y-89660150D01*
X27138451Y-89145864D01*
X27278578Y-89145864D01*
X27370506Y-89191827D01*
G37*
G36*
X27314378Y-86270905D02*
G01*
X27362855Y-86319382D01*
X27416471Y-86426613D01*
X27416471Y-86593684D01*
X27362855Y-86700915D01*
X27314378Y-86749392D01*
X27207150Y-86803006D01*
X26825792Y-86803006D01*
X26718563Y-86749392D01*
X26670087Y-86700915D01*
X26616471Y-86593683D01*
X26616471Y-86426614D01*
X26670087Y-86319382D01*
X26718563Y-86270905D01*
X26825792Y-86217292D01*
X27207150Y-86217292D01*
X27314378Y-86270905D01*
G37*
G36*
X27916471Y-85236541D02*
G01*
X27862855Y-85343772D01*
X27814378Y-85392249D01*
X27707150Y-85445863D01*
X27540078Y-85445863D01*
X27432850Y-85392249D01*
X27384370Y-85343769D01*
X27330757Y-85236542D01*
X27330757Y-84788720D01*
X27916471Y-84788720D01*
X27916471Y-85236541D01*
G37*
G36*
X28330757Y-97926684D02*
G01*
X25707079Y-97926684D01*
X25707079Y-97617292D01*
X26416471Y-97617292D01*
X26435569Y-97676071D01*
X26485569Y-97712398D01*
X26547373Y-97712398D01*
X26597373Y-97676071D01*
X26616471Y-97617292D01*
X26616471Y-97498043D01*
X26662436Y-97406113D01*
X26754364Y-97360149D01*
X27416471Y-97360149D01*
X27416471Y-97617292D01*
X27435569Y-97676071D01*
X27485569Y-97712398D01*
X27547373Y-97712398D01*
X27597373Y-97676071D01*
X27616471Y-97617292D01*
X27616471Y-97360149D01*
X28016471Y-97360149D01*
X28075250Y-97341051D01*
X28111577Y-97291051D01*
X28111577Y-97229247D01*
X28075250Y-97179247D01*
X28016471Y-97160149D01*
X27616471Y-97160149D01*
X27616471Y-97045864D01*
X27597373Y-96987085D01*
X27547373Y-96950758D01*
X27485569Y-96950758D01*
X27435569Y-96987085D01*
X27416471Y-97045864D01*
X27416471Y-97160149D01*
X26730757Y-97160149D01*
X26708833Y-97167272D01*
X26686035Y-97170706D01*
X26543178Y-97242135D01*
X26542610Y-97242693D01*
X26541826Y-97242824D01*
X26520663Y-97264310D01*
X26499146Y-97285504D01*
X26499015Y-97286290D01*
X26498457Y-97286857D01*
X26427028Y-97429713D01*
X26423594Y-97452511D01*
X26416471Y-97474435D01*
X26416471Y-97617292D01*
X25707079Y-97617292D01*
X25707079Y-96331578D01*
X26416471Y-96331578D01*
X26423594Y-96353501D01*
X26427028Y-96376300D01*
X26469449Y-96461141D01*
X26457692Y-96464962D01*
X26421365Y-96514962D01*
X26421365Y-96576766D01*
X26457692Y-96626766D01*
X26516471Y-96645864D01*
X27516471Y-96645864D01*
X27575250Y-96626766D01*
X27611577Y-96576766D01*
X27611577Y-96514962D01*
X27575250Y-96464962D01*
X27516471Y-96445864D01*
X26700749Y-96445864D01*
X26670087Y-96415201D01*
X26616471Y-96307969D01*
X26616471Y-96140900D01*
X26662436Y-96048970D01*
X26754364Y-96003006D01*
X27516471Y-96003006D01*
X27575250Y-95983908D01*
X27611577Y-95933908D01*
X27611577Y-95872104D01*
X27575250Y-95822104D01*
X27516471Y-95803006D01*
X26730757Y-95803006D01*
X26708833Y-95810129D01*
X26686035Y-95813563D01*
X26543178Y-95884992D01*
X26542610Y-95885550D01*
X26541826Y-95885681D01*
X26520663Y-95907167D01*
X26499146Y-95928361D01*
X26499015Y-95929147D01*
X26498457Y-95929714D01*
X26427028Y-96072570D01*
X26423594Y-96095368D01*
X26416471Y-96117292D01*
X26416471Y-96331578D01*
X25707079Y-96331578D01*
X25707079Y-94576765D01*
X25921365Y-94576765D01*
X25957692Y-94626765D01*
X26016471Y-94645863D01*
X26426747Y-94645863D01*
X26423594Y-94666797D01*
X26416471Y-94688721D01*
X26416471Y-94974435D01*
X26423594Y-94996358D01*
X26427028Y-95019157D01*
X26498457Y-95162013D01*
X26509831Y-95173561D01*
X26517189Y-95188002D01*
X26588617Y-95259431D01*
X26603058Y-95266789D01*
X26614607Y-95278164D01*
X26757464Y-95349592D01*
X26780261Y-95353025D01*
X26802185Y-95360149D01*
X27230757Y-95360149D01*
X27252680Y-95353025D01*
X27275478Y-95349592D01*
X27418335Y-95278164D01*
X27429883Y-95266789D01*
X27444325Y-95259431D01*
X27515753Y-95188002D01*
X27523110Y-95173562D01*
X27534485Y-95162014D01*
X27605914Y-95019157D01*
X27609347Y-94996358D01*
X27616471Y-94974435D01*
X27616471Y-94688721D01*
X27609347Y-94666797D01*
X27605914Y-94644000D01*
X27588309Y-94608790D01*
X27611577Y-94576765D01*
X27611577Y-94514961D01*
X27575250Y-94464961D01*
X27516471Y-94445863D01*
X26016471Y-94445863D01*
X25957692Y-94464961D01*
X25921365Y-94514961D01*
X25921365Y-94576765D01*
X25707079Y-94576765D01*
X25707079Y-93862480D01*
X26421365Y-93862480D01*
X26457692Y-93912480D01*
X26516471Y-93931578D01*
X27302185Y-93931578D01*
X27324108Y-93924454D01*
X27346907Y-93921021D01*
X27489763Y-93849592D01*
X27490329Y-93849033D01*
X27491116Y-93848903D01*
X27512309Y-93827385D01*
X27533796Y-93806223D01*
X27533926Y-93805438D01*
X27534485Y-93804871D01*
X27605914Y-93662014D01*
X27609347Y-93639215D01*
X27616471Y-93617292D01*
X27616471Y-93403006D01*
X27609347Y-93381082D01*
X27605914Y-93358284D01*
X27563492Y-93273442D01*
X27575250Y-93269622D01*
X27611577Y-93219622D01*
X27611577Y-93157818D01*
X27575250Y-93107818D01*
X27516471Y-93088720D01*
X26516471Y-93088720D01*
X26457692Y-93107818D01*
X26421365Y-93157818D01*
X26421365Y-93219622D01*
X26457692Y-93269622D01*
X26516471Y-93288720D01*
X27332193Y-93288720D01*
X27362855Y-93319382D01*
X27416471Y-93426613D01*
X27416471Y-93593684D01*
X27370506Y-93685612D01*
X27278577Y-93731578D01*
X26516471Y-93731578D01*
X26457692Y-93750676D01*
X26421365Y-93800676D01*
X26421365Y-93862480D01*
X25707079Y-93862480D01*
X25707079Y-92505336D01*
X26421365Y-92505336D01*
X26457692Y-92555336D01*
X26516471Y-92574434D01*
X27516471Y-92574434D01*
X27575250Y-92555336D01*
X27611577Y-92505336D01*
X27611577Y-92490077D01*
X27774845Y-92490077D01*
X27778508Y-92497266D01*
X27778508Y-92505336D01*
X27783250Y-92511863D01*
X27784513Y-92519833D01*
X27795713Y-92531033D01*
X27802903Y-92545144D01*
X27874331Y-92616573D01*
X27888442Y-92623763D01*
X27899643Y-92634964D01*
X27915286Y-92637441D01*
X27929398Y-92644632D01*
X27945041Y-92642154D01*
X27960685Y-92644632D01*
X27974797Y-92637441D01*
X27990440Y-92634964D01*
X28001639Y-92623765D01*
X28015753Y-92616574D01*
X28087182Y-92545145D01*
X28094373Y-92531031D01*
X28105572Y-92519832D01*
X28106833Y-92511864D01*
X28111577Y-92505336D01*
X28111577Y-92497266D01*
X28115240Y-92490077D01*
X28112762Y-92474433D01*
X28115240Y-92458790D01*
X28111577Y-92451601D01*
X28111577Y-92443532D01*
X28106834Y-92437004D01*
X28105572Y-92429035D01*
X28094371Y-92417834D01*
X28087181Y-92403723D01*
X28015752Y-92332295D01*
X28001641Y-92325105D01*
X27990441Y-92313905D01*
X27974796Y-92311427D01*
X27960685Y-92304237D01*
X27945041Y-92306714D01*
X27929398Y-92304237D01*
X27915287Y-92311427D01*
X27899642Y-92313905D01*
X27888441Y-92325106D01*
X27874331Y-92332296D01*
X27802903Y-92403723D01*
X27795712Y-92417834D01*
X27784513Y-92429034D01*
X27783250Y-92437004D01*
X27778508Y-92443532D01*
X27778508Y-92451601D01*
X27774845Y-92458791D01*
X27777322Y-92474433D01*
X27774845Y-92490077D01*
X27611577Y-92490077D01*
X27611577Y-92443532D01*
X27575250Y-92393532D01*
X27516471Y-92374434D01*
X26516471Y-92374434D01*
X26457692Y-92393532D01*
X26421365Y-92443532D01*
X26421365Y-92505336D01*
X25707079Y-92505336D01*
X25707079Y-90433908D01*
X26421365Y-90433908D01*
X26457692Y-90483908D01*
X26516471Y-90503006D01*
X27207149Y-90503006D01*
X27314379Y-90556621D01*
X27362855Y-90605097D01*
X27416471Y-90712328D01*
X27416471Y-90831578D01*
X27435569Y-90890357D01*
X27485569Y-90926684D01*
X27547373Y-90926684D01*
X27597373Y-90890357D01*
X27616471Y-90831578D01*
X27616471Y-90688721D01*
X27609347Y-90666797D01*
X27605914Y-90643999D01*
X27534485Y-90501142D01*
X27531508Y-90498120D01*
X27575250Y-90483908D01*
X27611577Y-90433908D01*
X27611577Y-90372104D01*
X27575250Y-90322104D01*
X27516471Y-90303006D01*
X26516471Y-90303006D01*
X26457692Y-90322104D01*
X26421365Y-90372104D01*
X26421365Y-90433908D01*
X25707079Y-90433908D01*
X25707079Y-89545864D01*
X26416471Y-89545864D01*
X26423594Y-89567787D01*
X26427028Y-89590586D01*
X26498457Y-89733442D01*
X26541826Y-89777475D01*
X26602793Y-89787606D01*
X26658072Y-89759966D01*
X26686548Y-89705114D01*
X26677343Y-89643999D01*
X26616471Y-89522255D01*
X26616471Y-89283757D01*
X26662435Y-89191827D01*
X26754364Y-89145864D01*
X26934491Y-89145864D01*
X27061270Y-89779762D01*
X27064222Y-89785020D01*
X27064222Y-89791052D01*
X27079119Y-89811557D01*
X27091525Y-89833654D01*
X27097004Y-89836173D01*
X27100549Y-89841052D01*
X27124647Y-89848881D01*
X27147678Y-89859470D01*
X27153593Y-89858286D01*
X27159328Y-89860150D01*
X27302185Y-89860150D01*
X27324108Y-89853026D01*
X27346907Y-89849593D01*
X27489763Y-89778164D01*
X27490329Y-89777605D01*
X27491116Y-89777475D01*
X27512309Y-89755957D01*
X27533796Y-89734795D01*
X27533926Y-89734010D01*
X27534485Y-89733443D01*
X27605914Y-89590586D01*
X27609347Y-89567787D01*
X27616471Y-89545864D01*
X27616471Y-89260150D01*
X27609347Y-89238226D01*
X27605914Y-89215429D01*
X27534485Y-89072571D01*
X27533926Y-89072004D01*
X27533796Y-89071218D01*
X27512293Y-89050040D01*
X27491116Y-89028538D01*
X27490329Y-89028407D01*
X27489763Y-89027849D01*
X27346906Y-88956421D01*
X27324108Y-88952987D01*
X27302185Y-88945864D01*
X26730757Y-88945864D01*
X26708833Y-88952987D01*
X26686036Y-88956421D01*
X26543179Y-89027849D01*
X26542612Y-89028407D01*
X26541826Y-89028538D01*
X26520648Y-89050040D01*
X26499146Y-89071218D01*
X26499015Y-89072004D01*
X26498457Y-89072571D01*
X26427028Y-89215429D01*
X26423594Y-89238226D01*
X26416471Y-89260150D01*
X26416471Y-89545864D01*
X25707079Y-89545864D01*
X25707079Y-88263734D01*
X26416535Y-88263734D01*
X26417082Y-88265232D01*
X26416691Y-88266779D01*
X26427626Y-88294117D01*
X26437728Y-88321790D01*
X26439051Y-88322680D01*
X26439644Y-88324162D01*
X26464587Y-88339869D01*
X26488999Y-88356301D01*
X27488999Y-88642016D01*
X27550763Y-88639800D01*
X27599429Y-88601704D01*
X27616407Y-88542278D01*
X27595214Y-88484222D01*
X27543943Y-88449711D01*
X26825207Y-88244358D01*
X27267896Y-88067283D01*
X27286784Y-88051545D01*
X27307584Y-88038448D01*
X27310123Y-88032099D01*
X27315378Y-88027721D01*
X27321408Y-88003885D01*
X27330537Y-87981064D01*
X27328859Y-87974435D01*
X27330537Y-87967806D01*
X27321408Y-87944984D01*
X27315378Y-87921149D01*
X27310123Y-87916770D01*
X27307584Y-87910422D01*
X27286784Y-87897324D01*
X27267896Y-87881587D01*
X26825207Y-87704511D01*
X27543943Y-87499158D01*
X27595214Y-87464647D01*
X27616407Y-87406591D01*
X27599428Y-87347165D01*
X27550763Y-87309069D01*
X27488999Y-87306854D01*
X26488999Y-87592569D01*
X26464587Y-87609000D01*
X26439644Y-87624708D01*
X26439051Y-87626189D01*
X26437728Y-87627080D01*
X26427626Y-87654752D01*
X26416691Y-87682091D01*
X26417082Y-87683637D01*
X26416535Y-87685136D01*
X26424626Y-87713455D01*
X26431850Y-87742007D01*
X26433075Y-87743028D01*
X26433514Y-87744562D01*
X26456709Y-87762719D01*
X26479332Y-87781569D01*
X26961497Y-87974435D01*
X26479332Y-88167301D01*
X26456709Y-88186150D01*
X26433514Y-88204308D01*
X26433075Y-88205841D01*
X26431850Y-88206863D01*
X26424626Y-88235414D01*
X26416535Y-88263734D01*
X25707079Y-88263734D01*
X25707079Y-86617292D01*
X26416471Y-86617292D01*
X26423594Y-86639215D01*
X26427028Y-86662014D01*
X26498457Y-86804870D01*
X26509831Y-86816418D01*
X26517189Y-86830859D01*
X26588617Y-86902288D01*
X26603058Y-86909646D01*
X26614607Y-86921021D01*
X26757464Y-86992449D01*
X26780261Y-86995882D01*
X26802185Y-87003006D01*
X27230757Y-87003006D01*
X27252680Y-86995882D01*
X27275478Y-86992449D01*
X27418335Y-86921021D01*
X27429883Y-86909646D01*
X27444325Y-86902288D01*
X27515753Y-86830859D01*
X27523110Y-86816419D01*
X27534485Y-86804871D01*
X27605914Y-86662014D01*
X27609347Y-86639215D01*
X27616471Y-86617292D01*
X27616471Y-86403006D01*
X27609347Y-86381082D01*
X27605914Y-86358284D01*
X27534485Y-86215427D01*
X27523110Y-86203878D01*
X27515753Y-86189439D01*
X27444325Y-86118010D01*
X27429883Y-86110651D01*
X27418335Y-86099277D01*
X27275478Y-86027849D01*
X27252680Y-86024415D01*
X27230757Y-86017292D01*
X26802185Y-86017292D01*
X26780261Y-86024415D01*
X26757464Y-86027849D01*
X26614607Y-86099277D01*
X26603058Y-86110651D01*
X26588617Y-86118010D01*
X26517189Y-86189439D01*
X26509831Y-86203879D01*
X26498457Y-86215428D01*
X26427028Y-86358284D01*
X26423594Y-86381082D01*
X26416471Y-86403006D01*
X26416471Y-86617292D01*
X25707079Y-86617292D01*
X25707079Y-84719622D01*
X26421365Y-84719622D01*
X26457692Y-84769622D01*
X26516471Y-84788720D01*
X27130757Y-84788720D01*
X27130757Y-85260149D01*
X27137880Y-85282072D01*
X27141314Y-85304870D01*
X27212742Y-85447727D01*
X27224115Y-85459274D01*
X27231474Y-85473717D01*
X27302903Y-85545146D01*
X27317345Y-85552504D01*
X27328893Y-85563878D01*
X27471750Y-85635306D01*
X27494547Y-85638739D01*
X27516471Y-85645863D01*
X27730757Y-85645863D01*
X27752680Y-85638739D01*
X27775478Y-85635306D01*
X27918335Y-85563878D01*
X27929883Y-85552503D01*
X27944325Y-85545145D01*
X28015753Y-85473716D01*
X28023110Y-85459276D01*
X28034485Y-85447728D01*
X28105914Y-85304871D01*
X28109347Y-85282072D01*
X28116471Y-85260149D01*
X28116471Y-84688720D01*
X28111577Y-84673657D01*
X28111577Y-84657818D01*
X28102267Y-84645004D01*
X28097373Y-84629941D01*
X28084559Y-84620631D01*
X28075250Y-84607818D01*
X28060186Y-84602923D01*
X28047373Y-84593614D01*
X28031534Y-84593614D01*
X28016471Y-84588720D01*
X26516471Y-84588720D01*
X26457692Y-84607818D01*
X26421365Y-84657818D01*
X26421365Y-84719622D01*
X25707079Y-84719622D01*
X25707079Y-84374434D01*
X28330757Y-84374434D01*
X28330757Y-97926684D01*
G37*
D11*
X112842676Y-67857142D02*
X108842676Y-67857142D01*
X112842676Y-65571427D02*
X110556961Y-67285713D01*
X108842676Y-65571427D02*
X111128390Y-67857142D01*
X112652200Y-62333332D02*
X112842676Y-62714284D01*
X112842676Y-62714284D02*
X112842676Y-63476189D01*
X112842676Y-63476189D02*
X112652200Y-63857142D01*
X112652200Y-63857142D02*
X112271247Y-64047618D01*
X112271247Y-64047618D02*
X110747438Y-64047618D01*
X110747438Y-64047618D02*
X110366485Y-63857142D01*
X110366485Y-63857142D02*
X110176009Y-63476189D01*
X110176009Y-63476189D02*
X110176009Y-62714284D01*
X110176009Y-62714284D02*
X110366485Y-62333332D01*
X110366485Y-62333332D02*
X110747438Y-62142856D01*
X110747438Y-62142856D02*
X111128390Y-62142856D01*
X111128390Y-62142856D02*
X111509342Y-64047618D01*
X112652200Y-58904761D02*
X112842676Y-59285713D01*
X112842676Y-59285713D02*
X112842676Y-60047618D01*
X112842676Y-60047618D02*
X112652200Y-60428571D01*
X112652200Y-60428571D02*
X112271247Y-60619047D01*
X112271247Y-60619047D02*
X110747438Y-60619047D01*
X110747438Y-60619047D02*
X110366485Y-60428571D01*
X110366485Y-60428571D02*
X110176009Y-60047618D01*
X110176009Y-60047618D02*
X110176009Y-59285713D01*
X110176009Y-59285713D02*
X110366485Y-58904761D01*
X110366485Y-58904761D02*
X110747438Y-58714285D01*
X110747438Y-58714285D02*
X111128390Y-58714285D01*
X111128390Y-58714285D02*
X111509342Y-60619047D01*
X110176009Y-57000000D02*
X114176009Y-57000000D01*
X110366485Y-57000000D02*
X110176009Y-56619047D01*
X110176009Y-56619047D02*
X110176009Y-55857142D01*
X110176009Y-55857142D02*
X110366485Y-55476190D01*
X110366485Y-55476190D02*
X110556961Y-55285714D01*
X110556961Y-55285714D02*
X110937914Y-55095238D01*
X110937914Y-55095238D02*
X112080771Y-55095238D01*
X112080771Y-55095238D02*
X112461723Y-55285714D01*
X112461723Y-55285714D02*
X112652200Y-55476190D01*
X112652200Y-55476190D02*
X112842676Y-55857142D01*
X112842676Y-55857142D02*
X112842676Y-56619047D01*
X112842676Y-56619047D02*
X112652200Y-57000000D01*
X108842676Y-49571428D02*
X108842676Y-48809523D01*
X108842676Y-48809523D02*
X109033152Y-48428571D01*
X109033152Y-48428571D02*
X109414104Y-48047618D01*
X109414104Y-48047618D02*
X110176009Y-47857142D01*
X110176009Y-47857142D02*
X111509342Y-47857142D01*
X111509342Y-47857142D02*
X112271247Y-48047618D01*
X112271247Y-48047618D02*
X112652200Y-48428571D01*
X112652200Y-48428571D02*
X112842676Y-48809523D01*
X112842676Y-48809523D02*
X112842676Y-49571428D01*
X112842676Y-49571428D02*
X112652200Y-49952380D01*
X112652200Y-49952380D02*
X112271247Y-50333333D01*
X112271247Y-50333333D02*
X111509342Y-50523809D01*
X111509342Y-50523809D02*
X110176009Y-50523809D01*
X110176009Y-50523809D02*
X109414104Y-50333333D01*
X109414104Y-50333333D02*
X109033152Y-49952380D01*
X109033152Y-49952380D02*
X108842676Y-49571428D01*
X110176009Y-44428571D02*
X112842676Y-44428571D01*
X110176009Y-46142857D02*
X112271247Y-46142857D01*
X112271247Y-46142857D02*
X112652200Y-45952380D01*
X112652200Y-45952380D02*
X112842676Y-45571428D01*
X112842676Y-45571428D02*
X112842676Y-44999999D01*
X112842676Y-44999999D02*
X112652200Y-44619047D01*
X112652200Y-44619047D02*
X112461723Y-44428571D01*
X110176009Y-43095237D02*
X110176009Y-41571428D01*
X108842676Y-42523809D02*
X112271247Y-42523809D01*
X112271247Y-42523809D02*
X112652200Y-42333332D01*
X112652200Y-42333332D02*
X112842676Y-41952380D01*
X112842676Y-41952380D02*
X112842676Y-41571428D01*
X103947342Y-112044173D02*
X103947342Y-112615601D01*
X103947342Y-112615601D02*
X104518771Y-112672744D01*
X104518771Y-112672744D02*
X104461628Y-112615601D01*
X104461628Y-112615601D02*
X104404485Y-112501316D01*
X104404485Y-112501316D02*
X104404485Y-112215601D01*
X104404485Y-112215601D02*
X104461628Y-112101316D01*
X104461628Y-112101316D02*
X104518771Y-112044173D01*
X104518771Y-112044173D02*
X104633057Y-111987030D01*
X104633057Y-111987030D02*
X104918771Y-111987030D01*
X104918771Y-111987030D02*
X105033057Y-112044173D01*
X105033057Y-112044173D02*
X105090200Y-112101316D01*
X105090200Y-112101316D02*
X105147342Y-112215601D01*
X105147342Y-112215601D02*
X105147342Y-112501316D01*
X105147342Y-112501316D02*
X105090200Y-112615601D01*
X105090200Y-112615601D02*
X105033057Y-112672744D01*
X103947342Y-111644173D02*
X105147342Y-111244173D01*
X105147342Y-111244173D02*
X103947342Y-110844173D01*
X92666666Y-117254819D02*
X92666666Y-117969104D01*
X92666666Y-117969104D02*
X92619047Y-118111961D01*
X92619047Y-118111961D02*
X92523809Y-118207200D01*
X92523809Y-118207200D02*
X92380952Y-118254819D01*
X92380952Y-118254819D02*
X92285714Y-118254819D01*
X93571428Y-117254819D02*
X93380952Y-117254819D01*
X93380952Y-117254819D02*
X93285714Y-117302438D01*
X93285714Y-117302438D02*
X93238095Y-117350057D01*
X93238095Y-117350057D02*
X93142857Y-117492914D01*
X93142857Y-117492914D02*
X93095238Y-117683390D01*
X93095238Y-117683390D02*
X93095238Y-118064342D01*
X93095238Y-118064342D02*
X93142857Y-118159580D01*
X93142857Y-118159580D02*
X93190476Y-118207200D01*
X93190476Y-118207200D02*
X93285714Y-118254819D01*
X93285714Y-118254819D02*
X93476190Y-118254819D01*
X93476190Y-118254819D02*
X93571428Y-118207200D01*
X93571428Y-118207200D02*
X93619047Y-118159580D01*
X93619047Y-118159580D02*
X93666666Y-118064342D01*
X93666666Y-118064342D02*
X93666666Y-117826247D01*
X93666666Y-117826247D02*
X93619047Y-117731009D01*
X93619047Y-117731009D02*
X93571428Y-117683390D01*
X93571428Y-117683390D02*
X93476190Y-117635771D01*
X93476190Y-117635771D02*
X93285714Y-117635771D01*
X93285714Y-117635771D02*
X93190476Y-117683390D01*
X93190476Y-117683390D02*
X93142857Y-117731009D01*
X93142857Y-117731009D02*
X93095238Y-117826247D01*
X43266666Y-110531009D02*
X42933333Y-110531009D01*
X42933333Y-111054819D02*
X42933333Y-110054819D01*
X42933333Y-110054819D02*
X43409523Y-110054819D01*
X44314285Y-111054819D02*
X43742857Y-111054819D01*
X44028571Y-111054819D02*
X44028571Y-110054819D01*
X44028571Y-110054819D02*
X43933333Y-110197676D01*
X43933333Y-110197676D02*
X43838095Y-110292914D01*
X43838095Y-110292914D02*
X43742857Y-110340533D01*
X25666666Y-77854819D02*
X25666666Y-78569104D01*
X25666666Y-78569104D02*
X25619047Y-78711961D01*
X25619047Y-78711961D02*
X25523809Y-78807200D01*
X25523809Y-78807200D02*
X25380952Y-78854819D01*
X25380952Y-78854819D02*
X25285714Y-78854819D01*
X26666666Y-78854819D02*
X26095238Y-78854819D01*
X26380952Y-78854819D02*
X26380952Y-77854819D01*
X26380952Y-77854819D02*
X26285714Y-77997676D01*
X26285714Y-77997676D02*
X26190476Y-78092914D01*
X26190476Y-78092914D02*
X26095238Y-78140533D01*
X20666666Y-66454819D02*
X20666666Y-67169104D01*
X20666666Y-67169104D02*
X20619047Y-67311961D01*
X20619047Y-67311961D02*
X20523809Y-67407200D01*
X20523809Y-67407200D02*
X20380952Y-67454819D01*
X20380952Y-67454819D02*
X20285714Y-67454819D01*
X21095238Y-66550057D02*
X21142857Y-66502438D01*
X21142857Y-66502438D02*
X21238095Y-66454819D01*
X21238095Y-66454819D02*
X21476190Y-66454819D01*
X21476190Y-66454819D02*
X21571428Y-66502438D01*
X21571428Y-66502438D02*
X21619047Y-66550057D01*
X21619047Y-66550057D02*
X21666666Y-66645295D01*
X21666666Y-66645295D02*
X21666666Y-66740533D01*
X21666666Y-66740533D02*
X21619047Y-66883390D01*
X21619047Y-66883390D02*
X21047619Y-67454819D01*
X21047619Y-67454819D02*
X21666666Y-67454819D01*
X24584167Y-52207200D02*
X24727024Y-52254819D01*
X24727024Y-52254819D02*
X24965119Y-52254819D01*
X24965119Y-52254819D02*
X25060357Y-52207200D01*
X25060357Y-52207200D02*
X25107976Y-52159580D01*
X25107976Y-52159580D02*
X25155595Y-52064342D01*
X25155595Y-52064342D02*
X25155595Y-51969104D01*
X25155595Y-51969104D02*
X25107976Y-51873866D01*
X25107976Y-51873866D02*
X25060357Y-51826247D01*
X25060357Y-51826247D02*
X24965119Y-51778628D01*
X24965119Y-51778628D02*
X24774643Y-51731009D01*
X24774643Y-51731009D02*
X24679405Y-51683390D01*
X24679405Y-51683390D02*
X24631786Y-51635771D01*
X24631786Y-51635771D02*
X24584167Y-51540533D01*
X24584167Y-51540533D02*
X24584167Y-51445295D01*
X24584167Y-51445295D02*
X24631786Y-51350057D01*
X24631786Y-51350057D02*
X24679405Y-51302438D01*
X24679405Y-51302438D02*
X24774643Y-51254819D01*
X24774643Y-51254819D02*
X25012738Y-51254819D01*
X25012738Y-51254819D02*
X25155595Y-51302438D01*
X25488929Y-51254819D02*
X25727024Y-52254819D01*
X25727024Y-52254819D02*
X25917500Y-51540533D01*
X25917500Y-51540533D02*
X26107976Y-52254819D01*
X26107976Y-52254819D02*
X26346072Y-51254819D01*
X27250833Y-52254819D02*
X26679405Y-52254819D01*
X26965119Y-52254819D02*
X26965119Y-51254819D01*
X26965119Y-51254819D02*
X26869881Y-51397676D01*
X26869881Y-51397676D02*
X26774643Y-51492914D01*
X26774643Y-51492914D02*
X26679405Y-51540533D01*
X29595238Y-110131009D02*
X29738095Y-110178628D01*
X29738095Y-110178628D02*
X29785714Y-110226247D01*
X29785714Y-110226247D02*
X29833333Y-110321485D01*
X29833333Y-110321485D02*
X29833333Y-110464342D01*
X29833333Y-110464342D02*
X29785714Y-110559580D01*
X29785714Y-110559580D02*
X29738095Y-110607200D01*
X29738095Y-110607200D02*
X29642857Y-110654819D01*
X29642857Y-110654819D02*
X29261905Y-110654819D01*
X29261905Y-110654819D02*
X29261905Y-109654819D01*
X29261905Y-109654819D02*
X29595238Y-109654819D01*
X29595238Y-109654819D02*
X29690476Y-109702438D01*
X29690476Y-109702438D02*
X29738095Y-109750057D01*
X29738095Y-109750057D02*
X29785714Y-109845295D01*
X29785714Y-109845295D02*
X29785714Y-109940533D01*
X29785714Y-109940533D02*
X29738095Y-110035771D01*
X29738095Y-110035771D02*
X29690476Y-110083390D01*
X29690476Y-110083390D02*
X29595238Y-110131009D01*
X29595238Y-110131009D02*
X29261905Y-110131009D01*
X30785714Y-110654819D02*
X30214286Y-110654819D01*
X30500000Y-110654819D02*
X30500000Y-109654819D01*
X30500000Y-109654819D02*
X30404762Y-109797676D01*
X30404762Y-109797676D02*
X30309524Y-109892914D01*
X30309524Y-109892914D02*
X30214286Y-109940533D01*
X31966666Y-26054819D02*
X31966666Y-26769104D01*
X31966666Y-26769104D02*
X31919047Y-26911961D01*
X31919047Y-26911961D02*
X31823809Y-27007200D01*
X31823809Y-27007200D02*
X31680952Y-27054819D01*
X31680952Y-27054819D02*
X31585714Y-27054819D01*
X32442857Y-27054819D02*
X32442857Y-26054819D01*
X32442857Y-26054819D02*
X32823809Y-26054819D01*
X32823809Y-26054819D02*
X32919047Y-26102438D01*
X32919047Y-26102438D02*
X32966666Y-26150057D01*
X32966666Y-26150057D02*
X33014285Y-26245295D01*
X33014285Y-26245295D02*
X33014285Y-26388152D01*
X33014285Y-26388152D02*
X32966666Y-26483390D01*
X32966666Y-26483390D02*
X32919047Y-26531009D01*
X32919047Y-26531009D02*
X32823809Y-26578628D01*
X32823809Y-26578628D02*
X32442857Y-26578628D01*
X33966666Y-27054819D02*
X33395238Y-27054819D01*
X33680952Y-27054819D02*
X33680952Y-26054819D01*
X33680952Y-26054819D02*
X33585714Y-26197676D01*
X33585714Y-26197676D02*
X33490476Y-26292914D01*
X33490476Y-26292914D02*
X33395238Y-26340533D01*
X53195238Y-109931009D02*
X53338095Y-109978628D01*
X53338095Y-109978628D02*
X53385714Y-110026247D01*
X53385714Y-110026247D02*
X53433333Y-110121485D01*
X53433333Y-110121485D02*
X53433333Y-110264342D01*
X53433333Y-110264342D02*
X53385714Y-110359580D01*
X53385714Y-110359580D02*
X53338095Y-110407200D01*
X53338095Y-110407200D02*
X53242857Y-110454819D01*
X53242857Y-110454819D02*
X52861905Y-110454819D01*
X52861905Y-110454819D02*
X52861905Y-109454819D01*
X52861905Y-109454819D02*
X53195238Y-109454819D01*
X53195238Y-109454819D02*
X53290476Y-109502438D01*
X53290476Y-109502438D02*
X53338095Y-109550057D01*
X53338095Y-109550057D02*
X53385714Y-109645295D01*
X53385714Y-109645295D02*
X53385714Y-109740533D01*
X53385714Y-109740533D02*
X53338095Y-109835771D01*
X53338095Y-109835771D02*
X53290476Y-109883390D01*
X53290476Y-109883390D02*
X53195238Y-109931009D01*
X53195238Y-109931009D02*
X52861905Y-109931009D01*
X53814286Y-109550057D02*
X53861905Y-109502438D01*
X53861905Y-109502438D02*
X53957143Y-109454819D01*
X53957143Y-109454819D02*
X54195238Y-109454819D01*
X54195238Y-109454819D02*
X54290476Y-109502438D01*
X54290476Y-109502438D02*
X54338095Y-109550057D01*
X54338095Y-109550057D02*
X54385714Y-109645295D01*
X54385714Y-109645295D02*
X54385714Y-109740533D01*
X54385714Y-109740533D02*
X54338095Y-109883390D01*
X54338095Y-109883390D02*
X53766667Y-110454819D01*
X53766667Y-110454819D02*
X54385714Y-110454819D01*
X57466666Y-110131009D02*
X57133333Y-110131009D01*
X57133333Y-110654819D02*
X57133333Y-109654819D01*
X57133333Y-109654819D02*
X57609523Y-109654819D01*
X57942857Y-109750057D02*
X57990476Y-109702438D01*
X57990476Y-109702438D02*
X58085714Y-109654819D01*
X58085714Y-109654819D02*
X58323809Y-109654819D01*
X58323809Y-109654819D02*
X58419047Y-109702438D01*
X58419047Y-109702438D02*
X58466666Y-109750057D01*
X58466666Y-109750057D02*
X58514285Y-109845295D01*
X58514285Y-109845295D02*
X58514285Y-109940533D01*
X58514285Y-109940533D02*
X58466666Y-110083390D01*
X58466666Y-110083390D02*
X57895238Y-110654819D01*
X57895238Y-110654819D02*
X58514285Y-110654819D01*
X81516666Y-110031009D02*
X81183333Y-110031009D01*
X81183333Y-110554819D02*
X81183333Y-109554819D01*
X81183333Y-109554819D02*
X81659523Y-109554819D01*
X81945238Y-109554819D02*
X82564285Y-109554819D01*
X82564285Y-109554819D02*
X82230952Y-109935771D01*
X82230952Y-109935771D02*
X82373809Y-109935771D01*
X82373809Y-109935771D02*
X82469047Y-109983390D01*
X82469047Y-109983390D02*
X82516666Y-110031009D01*
X82516666Y-110031009D02*
X82564285Y-110126247D01*
X82564285Y-110126247D02*
X82564285Y-110364342D01*
X82564285Y-110364342D02*
X82516666Y-110459580D01*
X82516666Y-110459580D02*
X82469047Y-110507200D01*
X82469047Y-110507200D02*
X82373809Y-110554819D01*
X82373809Y-110554819D02*
X82088095Y-110554819D01*
X82088095Y-110554819D02*
X81992857Y-110507200D01*
X81992857Y-110507200D02*
X81945238Y-110459580D01*
X77345238Y-109931009D02*
X77488095Y-109978628D01*
X77488095Y-109978628D02*
X77535714Y-110026247D01*
X77535714Y-110026247D02*
X77583333Y-110121485D01*
X77583333Y-110121485D02*
X77583333Y-110264342D01*
X77583333Y-110264342D02*
X77535714Y-110359580D01*
X77535714Y-110359580D02*
X77488095Y-110407200D01*
X77488095Y-110407200D02*
X77392857Y-110454819D01*
X77392857Y-110454819D02*
X77011905Y-110454819D01*
X77011905Y-110454819D02*
X77011905Y-109454819D01*
X77011905Y-109454819D02*
X77345238Y-109454819D01*
X77345238Y-109454819D02*
X77440476Y-109502438D01*
X77440476Y-109502438D02*
X77488095Y-109550057D01*
X77488095Y-109550057D02*
X77535714Y-109645295D01*
X77535714Y-109645295D02*
X77535714Y-109740533D01*
X77535714Y-109740533D02*
X77488095Y-109835771D01*
X77488095Y-109835771D02*
X77440476Y-109883390D01*
X77440476Y-109883390D02*
X77345238Y-109931009D01*
X77345238Y-109931009D02*
X77011905Y-109931009D01*
X77916667Y-109454819D02*
X78535714Y-109454819D01*
X78535714Y-109454819D02*
X78202381Y-109835771D01*
X78202381Y-109835771D02*
X78345238Y-109835771D01*
X78345238Y-109835771D02*
X78440476Y-109883390D01*
X78440476Y-109883390D02*
X78488095Y-109931009D01*
X78488095Y-109931009D02*
X78535714Y-110026247D01*
X78535714Y-110026247D02*
X78535714Y-110264342D01*
X78535714Y-110264342D02*
X78488095Y-110359580D01*
X78488095Y-110359580D02*
X78440476Y-110407200D01*
X78440476Y-110407200D02*
X78345238Y-110454819D01*
X78345238Y-110454819D02*
X78059524Y-110454819D01*
X78059524Y-110454819D02*
X77964286Y-110407200D01*
X77964286Y-110407200D02*
X77916667Y-110359580D01*
X22411905Y-101704819D02*
X22411905Y-100704819D01*
X22411905Y-100704819D02*
X22650000Y-100704819D01*
X22650000Y-100704819D02*
X22792857Y-100752438D01*
X22792857Y-100752438D02*
X22888095Y-100847676D01*
X22888095Y-100847676D02*
X22935714Y-100942914D01*
X22935714Y-100942914D02*
X22983333Y-101133390D01*
X22983333Y-101133390D02*
X22983333Y-101276247D01*
X22983333Y-101276247D02*
X22935714Y-101466723D01*
X22935714Y-101466723D02*
X22888095Y-101561961D01*
X22888095Y-101561961D02*
X22792857Y-101657200D01*
X22792857Y-101657200D02*
X22650000Y-101704819D01*
X22650000Y-101704819D02*
X22411905Y-101704819D01*
X23316667Y-100704819D02*
X23983333Y-100704819D01*
X23983333Y-100704819D02*
X23554762Y-101704819D01*
X22411905Y-91504819D02*
X22411905Y-90504819D01*
X22411905Y-90504819D02*
X22650000Y-90504819D01*
X22650000Y-90504819D02*
X22792857Y-90552438D01*
X22792857Y-90552438D02*
X22888095Y-90647676D01*
X22888095Y-90647676D02*
X22935714Y-90742914D01*
X22935714Y-90742914D02*
X22983333Y-90933390D01*
X22983333Y-90933390D02*
X22983333Y-91076247D01*
X22983333Y-91076247D02*
X22935714Y-91266723D01*
X22935714Y-91266723D02*
X22888095Y-91361961D01*
X22888095Y-91361961D02*
X22792857Y-91457200D01*
X22792857Y-91457200D02*
X22650000Y-91504819D01*
X22650000Y-91504819D02*
X22411905Y-91504819D01*
X23888095Y-90504819D02*
X23411905Y-90504819D01*
X23411905Y-90504819D02*
X23364286Y-90981009D01*
X23364286Y-90981009D02*
X23411905Y-90933390D01*
X23411905Y-90933390D02*
X23507143Y-90885771D01*
X23507143Y-90885771D02*
X23745238Y-90885771D01*
X23745238Y-90885771D02*
X23840476Y-90933390D01*
X23840476Y-90933390D02*
X23888095Y-90981009D01*
X23888095Y-90981009D02*
X23935714Y-91076247D01*
X23935714Y-91076247D02*
X23935714Y-91314342D01*
X23935714Y-91314342D02*
X23888095Y-91409580D01*
X23888095Y-91409580D02*
X23840476Y-91457200D01*
X23840476Y-91457200D02*
X23745238Y-91504819D01*
X23745238Y-91504819D02*
X23507143Y-91504819D01*
X23507143Y-91504819D02*
X23411905Y-91457200D01*
X23411905Y-91457200D02*
X23364286Y-91409580D01*
X26633333Y-68959580D02*
X26585714Y-69007200D01*
X26585714Y-69007200D02*
X26442857Y-69054819D01*
X26442857Y-69054819D02*
X26347619Y-69054819D01*
X26347619Y-69054819D02*
X26204762Y-69007200D01*
X26204762Y-69007200D02*
X26109524Y-68911961D01*
X26109524Y-68911961D02*
X26061905Y-68816723D01*
X26061905Y-68816723D02*
X26014286Y-68626247D01*
X26014286Y-68626247D02*
X26014286Y-68483390D01*
X26014286Y-68483390D02*
X26061905Y-68292914D01*
X26061905Y-68292914D02*
X26109524Y-68197676D01*
X26109524Y-68197676D02*
X26204762Y-68102438D01*
X26204762Y-68102438D02*
X26347619Y-68054819D01*
X26347619Y-68054819D02*
X26442857Y-68054819D01*
X26442857Y-68054819D02*
X26585714Y-68102438D01*
X26585714Y-68102438D02*
X26633333Y-68150057D01*
X27585714Y-69054819D02*
X27014286Y-69054819D01*
X27300000Y-69054819D02*
X27300000Y-68054819D01*
X27300000Y-68054819D02*
X27204762Y-68197676D01*
X27204762Y-68197676D02*
X27109524Y-68292914D01*
X27109524Y-68292914D02*
X27014286Y-68340533D01*
X25861905Y-75454819D02*
X25861905Y-74454819D01*
X25861905Y-74454819D02*
X26100000Y-74454819D01*
X26100000Y-74454819D02*
X26242857Y-74502438D01*
X26242857Y-74502438D02*
X26338095Y-74597676D01*
X26338095Y-74597676D02*
X26385714Y-74692914D01*
X26385714Y-74692914D02*
X26433333Y-74883390D01*
X26433333Y-74883390D02*
X26433333Y-75026247D01*
X26433333Y-75026247D02*
X26385714Y-75216723D01*
X26385714Y-75216723D02*
X26338095Y-75311961D01*
X26338095Y-75311961D02*
X26242857Y-75407200D01*
X26242857Y-75407200D02*
X26100000Y-75454819D01*
X26100000Y-75454819D02*
X25861905Y-75454819D01*
X27385714Y-75454819D02*
X26814286Y-75454819D01*
X27100000Y-75454819D02*
X27100000Y-74454819D01*
X27100000Y-74454819D02*
X27004762Y-74597676D01*
X27004762Y-74597676D02*
X26909524Y-74692914D01*
X26909524Y-74692914D02*
X26814286Y-74740533D01*
D12*
%TO.C,J6*%
X112330000Y-113670000D02*
X112330000Y-115000000D01*
X111000000Y-113670000D02*
X112330000Y-113670000D01*
X109730000Y-113670000D02*
X94430000Y-113670000D01*
X109730000Y-113670000D02*
X109730000Y-116270000D01*
X94430000Y-113670000D02*
X94430000Y-118870000D01*
X112330000Y-116270000D02*
X112330000Y-118870000D01*
X109730000Y-116270000D02*
X112330000Y-116270000D01*
X112330000Y-118870000D02*
X94430000Y-118870000D01*
%TO.C,F1*%
X44510000Y-112897936D02*
X44510000Y-114102064D01*
X42690000Y-112897936D02*
X42690000Y-114102064D01*
%TO.C,J1*%
X24065464Y-71402500D02*
X24065464Y-71782500D01*
X22295464Y-71402500D02*
X24065464Y-71402500D01*
X19755464Y-71402500D02*
X20015464Y-71402500D01*
X24065464Y-79022500D02*
X24065464Y-78642500D01*
X24065464Y-79022500D02*
X22295464Y-79022500D01*
X20015464Y-79022500D02*
X19755464Y-79022500D01*
%TO.C,J2*%
X25410464Y-56662500D02*
X23655464Y-56662500D01*
X21707964Y-56662500D02*
X20307964Y-56662500D01*
X25410464Y-65862500D02*
X23655464Y-65862500D01*
X21707964Y-65862500D02*
X20307964Y-65862500D01*
%TO.C,SW1*%
X27897500Y-42772500D02*
X27897500Y-44272500D01*
X26397500Y-42772500D02*
X27897500Y-42772500D01*
X27097500Y-43012500D02*
X19217500Y-43012500D01*
X27097500Y-43012500D02*
X27097500Y-43408500D01*
X19217500Y-43012500D02*
X19217500Y-50712500D01*
X27097500Y-45236500D02*
X27097500Y-45949500D01*
X27097500Y-47776500D02*
X27097500Y-48489500D01*
X27097500Y-50316500D02*
X27097500Y-50712500D01*
X27097500Y-50712500D02*
X19217500Y-50712500D01*
%TO.C,B1*%
X44750000Y-26250000D02*
X44750000Y-28750000D01*
X43500000Y-27500000D02*
X46000000Y-27500000D01*
X49190000Y-31360000D02*
X42190000Y-31360000D01*
X42190000Y-31360000D02*
X42190000Y-27000000D01*
X28310000Y-31360000D02*
X35310000Y-31360000D01*
X49190000Y-108640000D02*
X49190000Y-31360000D01*
X42190000Y-108640000D02*
X49170000Y-108640000D01*
X35310000Y-108640000D02*
X28310000Y-108640000D01*
X28310000Y-108640000D02*
X28310000Y-31360000D01*
X44750000Y-113750000D02*
X44750000Y-111250000D01*
%TO.C,JP1*%
X34200000Y-24300000D02*
X34200000Y-24900000D01*
X33500000Y-25600000D02*
X32100000Y-25600000D01*
X32100000Y-23600000D02*
X33500000Y-23600000D01*
X31400000Y-24900000D02*
X31400000Y-24300000D01*
X33500000Y-25600000D02*
G75*
G03*
X34200000Y-24900000I1J699999D01*
G01*
X34200000Y-24300000D02*
G75*
G03*
X33500000Y-23600000I-699999J1D01*
G01*
X31400000Y-24900000D02*
G75*
G03*
X32100000Y-25600000I700000J0D01*
G01*
X32100000Y-23600000D02*
G75*
G03*
X31400000Y-24300000I0J-700000D01*
G01*
%TO.C,B2*%
X68750000Y-26250000D02*
X68750000Y-28750000D01*
X67500000Y-27500000D02*
X70000000Y-27500000D01*
X73190000Y-31360000D02*
X66190000Y-31360000D01*
X66190000Y-31360000D02*
X66190000Y-27000000D01*
X52310000Y-31360000D02*
X59310000Y-31360000D01*
X73190000Y-108640000D02*
X73190000Y-31360000D01*
X66190000Y-108640000D02*
X73170000Y-108640000D01*
X59310000Y-108640000D02*
X52310000Y-108640000D01*
X52310000Y-108640000D02*
X52310000Y-31360000D01*
X68750000Y-113750000D02*
X68750000Y-111250000D01*
%TO.C,F2*%
X58710000Y-112597936D02*
X58710000Y-113802064D01*
X56890000Y-112597936D02*
X56890000Y-113802064D01*
%TO.C,F3*%
X82710000Y-112597936D02*
X82710000Y-113802064D01*
X80890000Y-112597936D02*
X80890000Y-113802064D01*
%TO.C,B3*%
X92750000Y-26250000D02*
X92750000Y-28750000D01*
X91500000Y-27500000D02*
X94000000Y-27500000D01*
X97190000Y-31360000D02*
X90190000Y-31360000D01*
X90190000Y-31360000D02*
X90190000Y-27000000D01*
X76310000Y-31360000D02*
X83310000Y-31360000D01*
X97190000Y-108640000D02*
X97190000Y-31360000D01*
X90190000Y-108640000D02*
X97170000Y-108640000D01*
X83310000Y-108640000D02*
X76310000Y-108640000D01*
X76310000Y-108640000D02*
X76310000Y-31360000D01*
X92750000Y-113750000D02*
X92750000Y-111250000D01*
%TO.C,D7*%
X19352500Y-96297500D02*
X15492500Y-96297500D01*
X19352500Y-96297500D02*
X19352500Y-99417500D01*
X22022500Y-96587500D02*
X22022500Y-96587500D01*
X22022500Y-96587500D02*
X19352500Y-96587500D01*
X19352500Y-96587500D02*
X22022500Y-96587500D01*
X19352500Y-96587500D02*
X19352500Y-96587500D01*
X22022500Y-99127500D02*
X22022500Y-99127500D01*
X22022500Y-99127500D02*
X19352500Y-99127500D01*
X19352500Y-99127500D02*
X22022500Y-99127500D01*
X19352500Y-99127500D02*
X19352500Y-99127500D01*
X19352500Y-99417500D02*
X15492500Y-99417500D01*
X19352500Y-99417500D02*
X19352500Y-99817500D01*
X18232500Y-99417500D02*
X19352500Y-99417500D01*
X19352500Y-99817500D02*
X18232500Y-99817500D01*
X18232500Y-99817500D02*
X18232500Y-99417500D01*
X15492500Y-96297500D02*
G75*
G03*
X15492500Y-99417500I0J-1560000D01*
G01*
%TO.C,D5*%
X19352500Y-86260000D02*
X15492500Y-86260000D01*
X19352500Y-86260000D02*
X19352500Y-89380000D01*
X22022500Y-86550000D02*
X22022500Y-86550000D01*
X22022500Y-86550000D02*
X19352500Y-86550000D01*
X19352500Y-86550000D02*
X22022500Y-86550000D01*
X19352500Y-86550000D02*
X19352500Y-86550000D01*
X22022500Y-89090000D02*
X22022500Y-89090000D01*
X22022500Y-89090000D02*
X19352500Y-89090000D01*
X19352500Y-89090000D02*
X22022500Y-89090000D01*
X19352500Y-89090000D02*
X19352500Y-89090000D01*
X19352500Y-89380000D02*
X15492500Y-89380000D01*
X19352500Y-89380000D02*
X19352500Y-89780000D01*
X18232500Y-89380000D02*
X19352500Y-89380000D01*
X19352500Y-89780000D02*
X18232500Y-89780000D01*
X18232500Y-89780000D02*
X18232500Y-89380000D01*
X15492500Y-86260000D02*
G75*
G03*
X15492500Y-89380000I0J-1560000D01*
G01*
%TO.C,C1*%
X23338748Y-68465000D02*
X23861252Y-68465000D01*
X23338748Y-69935000D02*
X23861252Y-69935000D01*
%TO.C,D1*%
X27450000Y-70190000D02*
X25750000Y-70190000D01*
X27450000Y-70190000D02*
X27450000Y-73450000D01*
X25750000Y-70190000D02*
X25750000Y-73450000D01*
%TD*%
D13*
X37000000Y-114800000D03*
X20889154Y-62262500D03*
X47662500Y-81200000D03*
X42250000Y-61400000D03*
X62800000Y-75100000D03*
X87137500Y-35200000D03*
X58600000Y-102250000D03*
X47750000Y-61400000D03*
X59600000Y-35400000D03*
X42800000Y-107150000D03*
X84200000Y-39800000D03*
X85137500Y-35200000D03*
X83827500Y-92300000D03*
X27705464Y-58412500D03*
X83787500Y-68450000D03*
X97200000Y-101000000D03*
X86427500Y-105400000D03*
X82137500Y-35393750D03*
X53650000Y-69700000D03*
X34600000Y-112550000D03*
X52900000Y-29250000D03*
X62800000Y-73300000D03*
X83827500Y-82800000D03*
X75325000Y-103700000D03*
X34600000Y-111550000D03*
X25400000Y-69182864D03*
X75500000Y-89000000D03*
X97400000Y-91200000D03*
X83787500Y-71375500D03*
X62800000Y-71500000D03*
X119000000Y-100750000D03*
X88777500Y-105000000D03*
X31400000Y-88800000D03*
X26600000Y-70000000D03*
X20889154Y-60262500D03*
X83787500Y-76450000D03*
X60100000Y-104125000D03*
X119000000Y-96750000D03*
X53650000Y-71500000D03*
X84027500Y-97500000D03*
X83787500Y-66200000D03*
X69825000Y-103700000D03*
X63550000Y-70300000D03*
X42162500Y-81200000D03*
X53650000Y-67900000D03*
X65600000Y-60200000D03*
X58200000Y-61200000D03*
X88287500Y-72200000D03*
X29800000Y-106350000D03*
X88627500Y-90300000D03*
X25355464Y-76462500D03*
X119000000Y-88750000D03*
X53600000Y-73300000D03*
X88037500Y-69950000D03*
X63975000Y-104125000D03*
X119000000Y-92750000D03*
X49475000Y-104900000D03*
X63300000Y-59550000D03*
X70000000Y-88950000D03*
X79127500Y-90300000D03*
X61400000Y-57600000D03*
X61725000Y-104125000D03*
X79277500Y-105000000D03*
X27705464Y-64012500D03*
X83787500Y-74200000D03*
X62800000Y-76900000D03*
X57200000Y-68800000D03*
X56400000Y-58600000D03*
X29105464Y-54837500D03*
X67400000Y-105800000D03*
X55600000Y-103250000D03*
X58350000Y-104500000D03*
X38000000Y-54000000D03*
X54500000Y-38000000D03*
X55224500Y-36675000D03*
X80779257Y-35141757D03*
X39000000Y-55000000D03*
X29062500Y-110150000D03*
X29062500Y-113550000D03*
X24905464Y-60512500D03*
X24905464Y-62012500D03*
X111000000Y-115000000D03*
X111000000Y-117540000D03*
X108460000Y-115000000D03*
X108460000Y-117540000D03*
X105920000Y-115000000D03*
X105920000Y-117540000D03*
X103380000Y-115000000D03*
X103380000Y-117540000D03*
X100840000Y-115000000D03*
X100840000Y-117540000D03*
X98300000Y-115000000D03*
X98300000Y-117540000D03*
X95760000Y-115000000D03*
X95760000Y-117540000D03*
X24000000Y-116000000D03*
X21917500Y-44322500D03*
X21917500Y-49402500D03*
X26997500Y-44322500D03*
X26997500Y-46862500D03*
X26997500Y-49402500D03*
X46750000Y-34070000D03*
X30750000Y-42400000D03*
X46750000Y-97600000D03*
X118000000Y-116000000D03*
X70750000Y-34070000D03*
X54750000Y-42400000D03*
X70750000Y-97600000D03*
X118000000Y-24000000D03*
X94750000Y-34070000D03*
X78750000Y-42400000D03*
X94750000Y-97600000D03*
X23102500Y-96587500D03*
X23102500Y-99127500D03*
X23102500Y-86550000D03*
X23102500Y-89090000D03*
X24000000Y-24000000D03*
X31460000Y-22800000D03*
X34000000Y-22800000D03*
X69400000Y-75000000D03*
X59600000Y-93200000D03*
X77200000Y-83400000D03*
X69800000Y-58600000D03*
X50600000Y-88400000D03*
X109750000Y-88750000D03*
X100000000Y-101400000D03*
X109750000Y-92750000D03*
X79400000Y-97000000D03*
X69800000Y-63200000D03*
X109750000Y-100750000D03*
X98400000Y-108740000D03*
X98400000Y-106200000D03*
X56600000Y-77200000D03*
X109750000Y-96750000D03*
X64400000Y-98000000D03*
X98400000Y-85940000D03*
X98400000Y-83400000D03*
X99400000Y-89800000D03*
M02*
