%TF.GenerationSoftware,KiCad,Pcbnew,7.0.9*%
%TF.CreationDate,2024-07-22T22:58:02+02:00*%
%TF.ProjectId,EnvSensor-Power-v2.1,456e7653-656e-4736-9f72-2d506f776572,rev?*%
%TF.SameCoordinates,Original*%
%TF.FileFunction,Soldermask,Bot*%
%TF.FilePolarity,Negative*%
%FSLAX46Y46*%
G04 Gerber Fmt 4.6, Leading zero omitted, Abs format (unit mm)*
G04 Created by KiCad (PCBNEW 7.0.9) date 2024-07-22 22:58:02*
%MOMM*%
%LPD*%
G01*
G04 APERTURE LIST*
G04 Aperture macros list*
%AMRoundRect*
0 Rectangle with rounded corners*
0 $1 Rounding radius*
0 $2 $3 $4 $5 $6 $7 $8 $9 X,Y pos of 4 corners*
0 Add a 4 corners polygon primitive as box body*
4,1,4,$2,$3,$4,$5,$6,$7,$8,$9,$2,$3,0*
0 Add four circle primitives for the rounded corners*
1,1,$1+$1,$2,$3*
1,1,$1+$1,$4,$5*
1,1,$1+$1,$6,$7*
1,1,$1+$1,$8,$9*
0 Add four rect primitives between the rounded corners*
20,1,$1+$1,$2,$3,$4,$5,0*
20,1,$1+$1,$4,$5,$6,$7,0*
20,1,$1+$1,$6,$7,$8,$9,0*
20,1,$1+$1,$8,$9,$2,$3,0*%
%AMFreePoly0*
4,1,19,0.500000,-0.750000,0.000000,-0.750000,0.000000,-0.744911,-0.071157,-0.744911,-0.207708,-0.704816,-0.327430,-0.627875,-0.420627,-0.520320,-0.479746,-0.390866,-0.500000,-0.250000,-0.500000,0.250000,-0.479746,0.390866,-0.420627,0.520320,-0.327430,0.627875,-0.207708,0.704816,-0.071157,0.744911,0.000000,0.744911,0.000000,0.750000,0.500000,0.750000,0.500000,-0.750000,0.500000,-0.750000,
$1*%
%AMFreePoly1*
4,1,19,0.000000,0.744911,0.071157,0.744911,0.207708,0.704816,0.327430,0.627875,0.420627,0.520320,0.479746,0.390866,0.500000,0.250000,0.500000,-0.250000,0.479746,-0.390866,0.420627,-0.520320,0.327430,-0.627875,0.207708,-0.704816,0.071157,-0.744911,0.000000,-0.744911,0.000000,-0.750000,-0.500000,-0.750000,-0.500000,0.750000,0.000000,0.750000,0.000000,0.744911,0.000000,0.744911,
$1*%
G04 Aperture macros list end*
%ADD10R,1.700000X1.700000*%
%ADD11O,1.700000X1.700000*%
%ADD12C,3.200000*%
%ADD13C,1.200000*%
%ADD14R,1.200000X1.200000*%
%ADD15C,2.390000*%
%ADD16C,3.450000*%
%ADD17R,1.800000X1.800000*%
%ADD18C,1.800000*%
%ADD19RoundRect,0.243750X-0.243750X-0.456250X0.243750X-0.456250X0.243750X0.456250X-0.243750X0.456250X0*%
%ADD20RoundRect,0.250000X-0.475000X0.250000X-0.475000X-0.250000X0.475000X-0.250000X0.475000X0.250000X0*%
%ADD21RoundRect,0.250000X0.262500X0.450000X-0.262500X0.450000X-0.262500X-0.450000X0.262500X-0.450000X0*%
%ADD22C,1.500000*%
%ADD23RoundRect,0.100000X-0.712500X-0.100000X0.712500X-0.100000X0.712500X0.100000X-0.712500X0.100000X0*%
%ADD24RoundRect,0.250000X-0.250000X-0.475000X0.250000X-0.475000X0.250000X0.475000X-0.250000X0.475000X0*%
%ADD25RoundRect,0.250000X0.450000X-0.262500X0.450000X0.262500X-0.450000X0.262500X-0.450000X-0.262500X0*%
%ADD26FreePoly0,270.000000*%
%ADD27FreePoly1,270.000000*%
%ADD28RoundRect,0.250000X0.475000X-0.250000X0.475000X0.250000X-0.475000X0.250000X-0.475000X-0.250000X0*%
%ADD29RoundRect,0.250000X-0.362500X-1.425000X0.362500X-1.425000X0.362500X1.425000X-0.362500X1.425000X0*%
%ADD30FreePoly0,0.000000*%
%ADD31FreePoly1,0.000000*%
%ADD32RoundRect,0.250000X-0.312500X-0.625000X0.312500X-0.625000X0.312500X0.625000X-0.312500X0.625000X0*%
%ADD33RoundRect,0.250000X-0.262500X-0.450000X0.262500X-0.450000X0.262500X0.450000X-0.262500X0.450000X0*%
%ADD34RoundRect,0.218750X-0.218750X-0.381250X0.218750X-0.381250X0.218750X0.381250X-0.218750X0.381250X0*%
%ADD35RoundRect,0.243750X-0.456250X0.243750X-0.456250X-0.243750X0.456250X-0.243750X0.456250X0.243750X0*%
%ADD36RoundRect,0.250000X0.250000X0.475000X-0.250000X0.475000X-0.250000X-0.475000X0.250000X-0.475000X0*%
%ADD37R,1.400000X0.300000*%
%ADD38R,1.000000X1.000000*%
%ADD39RoundRect,0.150000X0.512500X0.150000X-0.512500X0.150000X-0.512500X-0.150000X0.512500X-0.150000X0*%
%ADD40R,1.200000X0.900000*%
%ADD41RoundRect,0.250000X-0.650000X0.325000X-0.650000X-0.325000X0.650000X-0.325000X0.650000X0.325000X0*%
%ADD42RoundRect,0.200000X-0.275000X0.200000X-0.275000X-0.200000X0.275000X-0.200000X0.275000X0.200000X0*%
%ADD43FreePoly0,90.000000*%
%ADD44FreePoly1,90.000000*%
%ADD45RoundRect,0.250000X-0.325000X-0.650000X0.325000X-0.650000X0.325000X0.650000X-0.325000X0.650000X0*%
%ADD46R,8.200000X2.600000*%
%ADD47R,1.500000X2.000000*%
%ADD48R,3.800000X2.000000*%
%ADD49R,0.670000X0.300000*%
%ADD50RoundRect,0.250000X-0.450000X0.262500X-0.450000X-0.262500X0.450000X-0.262500X0.450000X0.262500X0*%
%ADD51R,1.200000X2.200000*%
%ADD52R,5.800000X6.400000*%
%ADD53R,2.600000X8.200000*%
%ADD54FreePoly0,180.000000*%
%ADD55FreePoly1,180.000000*%
%ADD56RoundRect,0.225000X0.225000X0.250000X-0.225000X0.250000X-0.225000X-0.250000X0.225000X-0.250000X0*%
%ADD57RoundRect,0.218750X-0.381250X0.218750X-0.381250X-0.218750X0.381250X-0.218750X0.381250X0.218750X0*%
%ADD58R,0.900000X1.200000*%
%ADD59RoundRect,0.100000X-0.100000X0.712500X-0.100000X-0.712500X0.100000X-0.712500X0.100000X0.712500X0*%
%ADD60R,1.500000X1.500000*%
%ADD61RoundRect,0.225000X-0.250000X0.225000X-0.250000X-0.225000X0.250000X-0.225000X0.250000X0.225000X0*%
%ADD62RoundRect,0.150000X-0.512500X-0.150000X0.512500X-0.150000X0.512500X0.150000X-0.512500X0.150000X0*%
%ADD63RoundRect,0.200000X0.275000X-0.200000X0.275000X0.200000X-0.275000X0.200000X-0.275000X-0.200000X0*%
G04 APERTURE END LIST*
D10*
%TO.C,J6*%
X111000000Y-115000000D03*
D11*
X111000000Y-117540000D03*
X108460000Y-115000000D03*
X108460000Y-117540000D03*
X105920000Y-115000000D03*
X105920000Y-117540000D03*
X103380000Y-115000000D03*
X103380000Y-117540000D03*
X100840000Y-115000000D03*
X100840000Y-117540000D03*
X98300000Y-115000000D03*
X98300000Y-117540000D03*
X95760000Y-115000000D03*
X95760000Y-117540000D03*
%TD*%
D12*
%TO.C,H4*%
X24000000Y-116000000D03*
%TD*%
D13*
%TO.C,SW1*%
X21917500Y-44322500D03*
X21917500Y-49402500D03*
D14*
X26997500Y-44322500D03*
D13*
X26997500Y-46862500D03*
X26997500Y-49402500D03*
%TD*%
D15*
%TO.C,B1*%
X46750000Y-34070000D03*
D16*
X30750000Y-42400000D03*
X46750000Y-97600000D03*
%TD*%
D12*
%TO.C,H3*%
X118000000Y-116000000D03*
%TD*%
D15*
%TO.C,B2*%
X70750000Y-34070000D03*
D16*
X54750000Y-42400000D03*
X70750000Y-97600000D03*
%TD*%
D12*
%TO.C,H2*%
X118000000Y-24000000D03*
%TD*%
D15*
%TO.C,B3*%
X94750000Y-34070000D03*
D16*
X78750000Y-42400000D03*
X94750000Y-97600000D03*
%TD*%
D17*
%TO.C,D7*%
X23102500Y-96587500D03*
D18*
X23102500Y-99127500D03*
%TD*%
D17*
%TO.C,D5*%
X23102500Y-86550000D03*
D18*
X23102500Y-89090000D03*
%TD*%
D12*
%TO.C,H1*%
X24000000Y-24000000D03*
%TD*%
D19*
%TO.C,D8*%
X94550000Y-89200000D03*
X96425000Y-89200000D03*
%TD*%
D20*
%TO.C,C41*%
X50725000Y-100800000D03*
X50725000Y-102700000D03*
%TD*%
D21*
%TO.C,R9*%
X32575000Y-106350000D03*
X30750000Y-106350000D03*
%TD*%
D20*
%TO.C,C40*%
X48800000Y-100800000D03*
X48800000Y-102700000D03*
%TD*%
D10*
%TO.C,J3*%
X31460000Y-22800000D03*
D11*
X34000000Y-22800000D03*
%TD*%
D22*
%TO.C,TS11*%
X89600000Y-97200000D03*
%TD*%
D20*
%TO.C,C33*%
X65550000Y-100750000D03*
X65550000Y-102650000D03*
%TD*%
D23*
%TO.C,U7*%
X52537500Y-33875000D03*
X52537500Y-33225000D03*
X52537500Y-32575000D03*
X52537500Y-31925000D03*
X56762500Y-31925000D03*
X56762500Y-32575000D03*
X56762500Y-33225000D03*
X56762500Y-33875000D03*
%TD*%
D20*
%TO.C,C31*%
X61550000Y-100750000D03*
X61550000Y-102650000D03*
%TD*%
D24*
%TO.C,C4*%
X59850000Y-75100000D03*
X61750000Y-75100000D03*
%TD*%
D25*
%TO.C,R11*%
X60800000Y-65600000D03*
X60800000Y-63775000D03*
%TD*%
%TO.C,R28*%
X54725000Y-106312500D03*
X54725000Y-104487500D03*
%TD*%
D26*
%TO.C,JP9*%
X96400000Y-106640000D03*
D27*
X96400000Y-107940000D03*
%TD*%
D28*
%TO.C,C29*%
X56725000Y-106350000D03*
X56725000Y-104450000D03*
%TD*%
D20*
%TO.C,C49*%
X47000000Y-58450000D03*
X47000000Y-60350000D03*
%TD*%
D22*
%TO.C,TS12*%
X74800000Y-106000000D03*
%TD*%
D29*
%TO.C,R5*%
X112000000Y-92750000D03*
X117925000Y-92750000D03*
%TD*%
D22*
%TO.C,TS2*%
X69400000Y-75000000D03*
%TD*%
D26*
%TO.C,JP4*%
X96375000Y-84015000D03*
D27*
X96375000Y-85315000D03*
%TD*%
D21*
%TO.C,R1*%
X23817964Y-62362500D03*
X21992964Y-62362500D03*
%TD*%
D30*
%TO.C,JP6*%
X85637500Y-69950000D03*
D31*
X86937500Y-69950000D03*
%TD*%
D24*
%TO.C,C2*%
X59850000Y-71500000D03*
X61750000Y-71500000D03*
%TD*%
D22*
%TO.C,TS14*%
X73400000Y-61200000D03*
%TD*%
D32*
%TO.C,R15*%
X80675000Y-29893750D03*
X83600000Y-29893750D03*
%TD*%
%TO.C,R22*%
X50212500Y-38175000D03*
X53137500Y-38175000D03*
%TD*%
D29*
%TO.C,R6*%
X112000000Y-88750000D03*
X117925000Y-88750000D03*
%TD*%
D20*
%TO.C,C17*%
X41450000Y-58450000D03*
X41450000Y-60350000D03*
%TD*%
D33*
%TO.C,R17*%
X85375000Y-74200000D03*
X87200000Y-74200000D03*
%TD*%
D34*
%TO.C,L6*%
X70875000Y-100700000D03*
X73000000Y-100700000D03*
%TD*%
D22*
%TO.C,TS6*%
X59600000Y-93200000D03*
%TD*%
D35*
%TO.C,D4*%
X25250000Y-86862500D03*
X25250000Y-88737500D03*
%TD*%
D22*
%TO.C,TS5*%
X74800000Y-83200000D03*
%TD*%
D36*
%TO.C,C7*%
X56550000Y-73300000D03*
X54650000Y-73300000D03*
%TD*%
D34*
%TO.C,L3*%
X43137500Y-58400000D03*
X45262500Y-58400000D03*
%TD*%
D20*
%TO.C,C12*%
X53200000Y-63737500D03*
X53200000Y-65637500D03*
%TD*%
D36*
%TO.C,C8*%
X56550000Y-71500000D03*
X54650000Y-71500000D03*
%TD*%
D22*
%TO.C,TS4*%
X69800000Y-58600000D03*
%TD*%
%TO.C,TS9*%
X50600000Y-88400000D03*
%TD*%
D37*
%TO.C,U1*%
X63000000Y-67550000D03*
X63000000Y-68050000D03*
X63000000Y-68550000D03*
X63000000Y-69050000D03*
X63000000Y-69550000D03*
X58600000Y-69550000D03*
X58600000Y-69050000D03*
X58600000Y-68550000D03*
X58600000Y-68050000D03*
X58600000Y-67550000D03*
%TD*%
D22*
%TO.C,TP6*%
X109750000Y-88750000D03*
%TD*%
D35*
%TO.C,D6*%
X25250000Y-97000000D03*
X25250000Y-98875000D03*
%TD*%
D21*
%TO.C,R26*%
X96400000Y-91200000D03*
X94575000Y-91200000D03*
%TD*%
D38*
%TO.C,D2*%
X65600000Y-63650000D03*
X65600000Y-61150000D03*
%TD*%
D39*
%TO.C,Q1*%
X32800000Y-111600000D03*
X32800000Y-112550000D03*
X32800000Y-113500000D03*
X30525000Y-113500000D03*
X30525000Y-112550000D03*
X30525000Y-111600000D03*
%TD*%
D20*
%TO.C,C48*%
X74800000Y-100650000D03*
X74800000Y-102550000D03*
%TD*%
D40*
%TO.C,D3*%
X65600000Y-77450000D03*
X65600000Y-74150000D03*
%TD*%
D20*
%TO.C,C35*%
X76800000Y-100650000D03*
X76800000Y-102550000D03*
%TD*%
D41*
%TO.C,C16*%
X88627500Y-86075000D03*
X88627500Y-89025000D03*
%TD*%
D33*
%TO.C,R35*%
X43287500Y-80000000D03*
X45112500Y-80000000D03*
%TD*%
D22*
%TO.C,TP2*%
X100000000Y-101400000D03*
%TD*%
D21*
%TO.C,R18*%
X87200000Y-72200000D03*
X85375000Y-72200000D03*
%TD*%
D22*
%TO.C,TP5*%
X109750000Y-92750000D03*
%TD*%
D33*
%TO.C,R34*%
X43287500Y-60200000D03*
X45112500Y-60200000D03*
%TD*%
D20*
%TO.C,C50*%
X47000000Y-78250000D03*
X47000000Y-80150000D03*
%TD*%
D24*
%TO.C,C3*%
X59850000Y-73300000D03*
X61750000Y-73300000D03*
%TD*%
D39*
%TO.C,U8*%
X57112500Y-100750000D03*
X57112500Y-101700000D03*
X57112500Y-102650000D03*
X54837500Y-102650000D03*
X54837500Y-100750000D03*
%TD*%
D25*
%TO.C,R31*%
X50725000Y-106312500D03*
X50725000Y-104487500D03*
%TD*%
%TO.C,R25*%
X27000000Y-98825000D03*
X27000000Y-97000000D03*
%TD*%
D42*
%TO.C,R24*%
X57175000Y-28600000D03*
X57175000Y-30250000D03*
%TD*%
D22*
%TO.C,TS9*%
X50600000Y-88400000D03*
%TD*%
%TO.C,TS15*%
X74800000Y-75600000D03*
%TD*%
D20*
%TO.C,C43*%
X41400000Y-78250000D03*
X41400000Y-80150000D03*
%TD*%
D43*
%TO.C,JP3*%
X61437500Y-59800000D03*
D44*
X61437500Y-58500000D03*
%TD*%
D20*
%TO.C,C44*%
X49000000Y-78250000D03*
X49000000Y-80150000D03*
%TD*%
D36*
%TO.C,C9*%
X56550000Y-69700000D03*
X54650000Y-69700000D03*
%TD*%
D45*
%TO.C,C21*%
X79562500Y-68450000D03*
X82512500Y-68450000D03*
%TD*%
D41*
%TO.C,C37*%
X88777500Y-100775000D03*
X88777500Y-103725000D03*
%TD*%
D22*
%TO.C,TS8*%
X74800000Y-97200000D03*
%TD*%
D25*
%TO.C,R19*%
X27000000Y-88712500D03*
X27000000Y-86887500D03*
%TD*%
D20*
%TO.C,C19*%
X85137500Y-31943750D03*
X85137500Y-33843750D03*
%TD*%
%TO.C,C18*%
X49000000Y-58450000D03*
X49000000Y-60350000D03*
%TD*%
D25*
%TO.C,R12*%
X63300000Y-65712500D03*
X63300000Y-63887500D03*
%TD*%
D32*
%TO.C,R23*%
X50212500Y-35925000D03*
X53137500Y-35925000D03*
%TD*%
D20*
%TO.C,C11*%
X55000000Y-63737500D03*
X55000000Y-65637500D03*
%TD*%
D25*
%TO.C,R14*%
X63300000Y-62462500D03*
X63300000Y-60637500D03*
%TD*%
D46*
%TO.C,L1*%
X69400000Y-66200000D03*
X69400000Y-71800000D03*
%TD*%
D29*
%TO.C,R4*%
X112037500Y-96750000D03*
X117962500Y-96750000D03*
%TD*%
D22*
%TO.C,TS10*%
X74800000Y-92000000D03*
%TD*%
D47*
%TO.C,U6*%
X81727500Y-99100000D03*
X84027500Y-99100000D03*
D48*
X84027500Y-105400000D03*
D47*
X86327500Y-99100000D03*
%TD*%
D20*
%TO.C,C47*%
X74800000Y-86050000D03*
X74800000Y-87950000D03*
%TD*%
D45*
%TO.C,C23*%
X79562500Y-76450000D03*
X82512500Y-76450000D03*
%TD*%
D22*
%TO.C,TS1*%
X69800000Y-63200000D03*
%TD*%
%TO.C,TS13*%
X91200000Y-83400000D03*
%TD*%
D33*
%TO.C,R33*%
X71087500Y-102600000D03*
X72912500Y-102600000D03*
%TD*%
D22*
%TO.C,TP3*%
X109750000Y-100750000D03*
%TD*%
D49*
%TO.C,U4*%
X80297500Y-72200000D03*
X80297500Y-71700000D03*
X80297500Y-71200000D03*
X80297500Y-70700000D03*
X81777500Y-70700000D03*
X81777500Y-71200000D03*
X81777500Y-71700000D03*
X81777500Y-72200000D03*
%TD*%
D20*
%TO.C,C32*%
X63550000Y-100750000D03*
X63550000Y-102650000D03*
%TD*%
D50*
%TO.C,R8*%
X59000000Y-63775000D03*
X59000000Y-65600000D03*
%TD*%
D26*
%TO.C,JP2*%
X59437500Y-58500000D03*
D27*
X59437500Y-59800000D03*
%TD*%
D28*
%TO.C,C26*%
X85137500Y-38200000D03*
X85137500Y-36300000D03*
%TD*%
D19*
%TO.C,D9*%
X94440000Y-103000000D03*
X96315000Y-103000000D03*
%TD*%
D33*
%TO.C,R32*%
X71087500Y-88000000D03*
X72912500Y-88000000D03*
%TD*%
%TO.C,R21*%
X48762500Y-30925000D03*
X50587500Y-30925000D03*
%TD*%
D51*
%TO.C,Q2*%
X73357500Y-29918750D03*
D52*
X75637500Y-36218750D03*
D51*
X77917500Y-29918750D03*
%TD*%
D53*
%TO.C,L5*%
X50800000Y-94600000D03*
X56400000Y-94600000D03*
%TD*%
D54*
%TO.C,JP5*%
X86937500Y-67450000D03*
D55*
X85637500Y-67450000D03*
%TD*%
D10*
%TO.C,J5*%
X98400000Y-108740000D03*
D11*
X98400000Y-106200000D03*
%TD*%
D20*
%TO.C,C30*%
X59550000Y-100750000D03*
X59550000Y-102650000D03*
%TD*%
D22*
%TO.C,TS3*%
X72200000Y-78200000D03*
%TD*%
D28*
%TO.C,C25*%
X87137500Y-38200000D03*
X87137500Y-36300000D03*
%TD*%
D56*
%TO.C,C45*%
X55450000Y-30150000D03*
X53900000Y-30150000D03*
%TD*%
D50*
%TO.C,R10*%
X57000000Y-63775000D03*
X57000000Y-65600000D03*
%TD*%
D24*
%TO.C,C27*%
X49725000Y-28925000D03*
X51625000Y-28925000D03*
%TD*%
D22*
%TO.C,TP4*%
X109750000Y-96750000D03*
%TD*%
D45*
%TO.C,C22*%
X79562500Y-74200000D03*
X82512500Y-74200000D03*
%TD*%
D33*
%TO.C,R29*%
X58562500Y-106200000D03*
X60387500Y-106200000D03*
%TD*%
D20*
%TO.C,C42*%
X52725000Y-100800000D03*
X52725000Y-102700000D03*
%TD*%
D24*
%TO.C,C5*%
X59850000Y-76900000D03*
X61750000Y-76900000D03*
%TD*%
D34*
%TO.C,L7*%
X43137500Y-78200000D03*
X45262500Y-78200000D03*
%TD*%
D50*
%TO.C,R30*%
X52725000Y-104487500D03*
X52725000Y-106312500D03*
%TD*%
D24*
%TO.C,C24*%
X81187500Y-39393750D03*
X83087500Y-39393750D03*
%TD*%
D57*
%TO.C,L4*%
X77000000Y-70300000D03*
X77000000Y-72425000D03*
%TD*%
D58*
%TO.C,D10*%
X62375000Y-97950000D03*
X59075000Y-97950000D03*
%TD*%
D21*
%TO.C,R16*%
X87200000Y-76200000D03*
X85375000Y-76200000D03*
%TD*%
D22*
%TO.C,TS7*%
X64400000Y-98000000D03*
%TD*%
D21*
%TO.C,R13*%
X61000000Y-61600000D03*
X59175000Y-61600000D03*
%TD*%
D41*
%TO.C,C36*%
X79277500Y-100775000D03*
X79277500Y-103725000D03*
%TD*%
D36*
%TO.C,C10*%
X56550000Y-67900000D03*
X54650000Y-67900000D03*
%TD*%
D45*
%TO.C,C20*%
X79562500Y-66200000D03*
X82512500Y-66200000D03*
%TD*%
D10*
%TO.C,J4*%
X98400000Y-85940000D03*
D11*
X98400000Y-83400000D03*
%TD*%
D20*
%TO.C,C28*%
X59600000Y-29050000D03*
X59600000Y-30950000D03*
%TD*%
D50*
%TO.C,R7*%
X34800000Y-105437500D03*
X34800000Y-107262500D03*
%TD*%
D22*
%TO.C,TP1*%
X99400000Y-89800000D03*
%TD*%
D59*
%TO.C,U5*%
X81162500Y-32781250D03*
X81812500Y-32781250D03*
X82462500Y-32781250D03*
X83112500Y-32781250D03*
X83112500Y-37006250D03*
X82462500Y-37006250D03*
X81812500Y-37006250D03*
X81162500Y-37006250D03*
%TD*%
D60*
%TO.C,SW2*%
X39600000Y-115050000D03*
X39600000Y-107250000D03*
%TD*%
D41*
%TO.C,C15*%
X79127500Y-86075000D03*
X79127500Y-89025000D03*
%TD*%
D21*
%TO.C,R2*%
X23817964Y-60362500D03*
X21992964Y-60362500D03*
%TD*%
D34*
%TO.C,L2*%
X70937500Y-85950000D03*
X73062500Y-85950000D03*
%TD*%
D20*
%TO.C,C39*%
X46800000Y-100800000D03*
X46800000Y-102700000D03*
%TD*%
D47*
%TO.C,U3*%
X81577500Y-84400000D03*
X83877500Y-84400000D03*
D48*
X83877500Y-90700000D03*
D47*
X86177500Y-84400000D03*
%TD*%
D61*
%TO.C,C6*%
X34800000Y-108662500D03*
X34800000Y-110212500D03*
%TD*%
D20*
%TO.C,C14*%
X76800000Y-86050000D03*
X76800000Y-87950000D03*
%TD*%
%TO.C,C38*%
X59600000Y-32450000D03*
X59600000Y-34350000D03*
%TD*%
%TO.C,C13*%
X69250000Y-86000000D03*
X69250000Y-87900000D03*
%TD*%
D62*
%TO.C,U2*%
X30525000Y-110100000D03*
X30525000Y-109150000D03*
X30525000Y-108200000D03*
X32800000Y-108200000D03*
X32800000Y-109150000D03*
X32800000Y-110100000D03*
%TD*%
D21*
%TO.C,R27*%
X96290000Y-101000000D03*
X94465000Y-101000000D03*
%TD*%
D29*
%TO.C,R3*%
X112000000Y-100750000D03*
X117925000Y-100750000D03*
%TD*%
D56*
%TO.C,C46*%
X55450000Y-28675000D03*
X53900000Y-28675000D03*
%TD*%
D20*
%TO.C,C34*%
X69200000Y-100650000D03*
X69200000Y-102550000D03*
%TD*%
D30*
%TO.C,JP8*%
X29000000Y-86800000D03*
D31*
X30300000Y-86800000D03*
%TD*%
D30*
%TO.C,JP7*%
X29000000Y-88800000D03*
D31*
X30300000Y-88800000D03*
%TD*%
D63*
%TO.C,R20*%
X86887500Y-33718750D03*
X86887500Y-32068750D03*
%TD*%
M02*
