%TF.GenerationSoftware,KiCad,Pcbnew,7.0.9*%
%TF.CreationDate,2024-07-22T22:58:02+02:00*%
%TF.ProjectId,EnvSensor-Power-v2.1,456e7653-656e-4736-9f72-2d506f776572,rev?*%
%TF.SameCoordinates,Original*%
%TF.FileFunction,Copper,L1,Top*%
%TF.FilePolarity,Positive*%
%FSLAX46Y46*%
G04 Gerber Fmt 4.6, Leading zero omitted, Abs format (unit mm)*
G04 Created by KiCad (PCBNEW 7.0.9) date 2024-07-22 22:58:02*
%MOMM*%
%LPD*%
G01*
G04 APERTURE LIST*
G04 Aperture macros list*
%AMRoundRect*
0 Rectangle with rounded corners*
0 $1 Rounding radius*
0 $2 $3 $4 $5 $6 $7 $8 $9 X,Y pos of 4 corners*
0 Add a 4 corners polygon primitive as box body*
4,1,4,$2,$3,$4,$5,$6,$7,$8,$9,$2,$3,0*
0 Add four circle primitives for the rounded corners*
1,1,$1+$1,$2,$3*
1,1,$1+$1,$4,$5*
1,1,$1+$1,$6,$7*
1,1,$1+$1,$8,$9*
0 Add four rect primitives between the rounded corners*
20,1,$1+$1,$2,$3,$4,$5,0*
20,1,$1+$1,$4,$5,$6,$7,0*
20,1,$1+$1,$6,$7,$8,$9,0*
20,1,$1+$1,$8,$9,$2,$3,0*%
%AMFreePoly0*
4,1,19,0.500000,-0.750000,0.000000,-0.750000,0.000000,-0.744911,-0.071157,-0.744911,-0.207708,-0.704816,-0.327430,-0.627875,-0.420627,-0.520320,-0.479746,-0.390866,-0.500000,-0.250000,-0.500000,0.250000,-0.479746,0.390866,-0.420627,0.520320,-0.327430,0.627875,-0.207708,0.704816,-0.071157,0.744911,0.000000,0.744911,0.000000,0.750000,0.500000,0.750000,0.500000,-0.750000,0.500000,-0.750000,
$1*%
%AMFreePoly1*
4,1,19,0.000000,0.744911,0.071157,0.744911,0.207708,0.704816,0.327430,0.627875,0.420627,0.520320,0.479746,0.390866,0.500000,0.250000,0.500000,-0.250000,0.479746,-0.390866,0.420627,-0.520320,0.327430,-0.627875,0.207708,-0.704816,0.071157,-0.744911,0.000000,-0.744911,0.000000,-0.750000,-0.500000,-0.750000,-0.500000,0.750000,0.000000,0.750000,0.000000,0.744911,0.000000,0.744911,
$1*%
G04 Aperture macros list end*
%TA.AperFunction,ComponentPad*%
%ADD10R,1.700000X1.700000*%
%TD*%
%TA.AperFunction,ComponentPad*%
%ADD11O,1.700000X1.700000*%
%TD*%
%TA.AperFunction,SMDPad,CuDef*%
%ADD12RoundRect,0.250000X-0.625000X0.375000X-0.625000X-0.375000X0.625000X-0.375000X0.625000X0.375000X0*%
%TD*%
%TA.AperFunction,SMDPad,CuDef*%
%ADD13R,1.380000X0.450000*%
%TD*%
%TA.AperFunction,SMDPad,CuDef*%
%ADD14R,1.300000X1.650000*%
%TD*%
%TA.AperFunction,SMDPad,CuDef*%
%ADD15R,1.550000X1.425000*%
%TD*%
%TA.AperFunction,SMDPad,CuDef*%
%ADD16R,1.900000X1.800000*%
%TD*%
%TA.AperFunction,SMDPad,CuDef*%
%ADD17R,1.900000X1.000000*%
%TD*%
%TA.AperFunction,SMDPad,CuDef*%
%ADD18R,1.200000X0.700000*%
%TD*%
%TA.AperFunction,SMDPad,CuDef*%
%ADD19R,1.200000X0.760000*%
%TD*%
%TA.AperFunction,SMDPad,CuDef*%
%ADD20R,1.200000X0.800000*%
%TD*%
%TA.AperFunction,SMDPad,CuDef*%
%ADD21R,1.350000X1.800000*%
%TD*%
%TA.AperFunction,SMDPad,CuDef*%
%ADD22R,1.500000X1.800000*%
%TD*%
%TA.AperFunction,ComponentPad*%
%ADD23C,1.200000*%
%TD*%
%TA.AperFunction,ComponentPad*%
%ADD24R,1.200000X1.200000*%
%TD*%
%TA.AperFunction,SMDPad,CuDef*%
%ADD25R,6.350000X7.340000*%
%TD*%
%TA.AperFunction,SMDPad,CuDef*%
%ADD26FreePoly0,180.000000*%
%TD*%
%TA.AperFunction,SMDPad,CuDef*%
%ADD27FreePoly1,180.000000*%
%TD*%
%TA.AperFunction,ComponentPad*%
%ADD28R,1.800000X1.800000*%
%TD*%
%TA.AperFunction,ComponentPad*%
%ADD29C,1.800000*%
%TD*%
%TA.AperFunction,SMDPad,CuDef*%
%ADD30RoundRect,0.250000X-0.250000X-0.475000X0.250000X-0.475000X0.250000X0.475000X-0.250000X0.475000X0*%
%TD*%
%TA.AperFunction,SMDPad,CuDef*%
%ADD31RoundRect,0.250000X-0.250000X0.250000X-0.250000X-0.250000X0.250000X-0.250000X0.250000X0.250000X0*%
%TD*%
%TA.AperFunction,ComponentPad*%
%ADD32C,1.500000*%
%TD*%
%TA.AperFunction,ViaPad*%
%ADD33C,0.800000*%
%TD*%
%TA.AperFunction,ViaPad*%
%ADD34C,1.000000*%
%TD*%
%TA.AperFunction,Conductor*%
%ADD35C,1.200000*%
%TD*%
%TA.AperFunction,Conductor*%
%ADD36C,0.600000*%
%TD*%
%TA.AperFunction,Conductor*%
%ADD37C,0.450000*%
%TD*%
%TA.AperFunction,Conductor*%
%ADD38C,0.250000*%
%TD*%
%ADD39C,0.350000*%
G04 APERTURE END LIST*
D10*
%TO.P,J6,1,Pin_1*%
%TO.N,+3V3*%
X111000000Y-115000000D03*
D11*
%TO.P,J6,2,Pin_2*%
%TO.N,GND*%
X111000000Y-117540000D03*
%TO.P,J6,3,Pin_3*%
%TO.N,+3V3*%
X108460000Y-115000000D03*
%TO.P,J6,4,Pin_4*%
%TO.N,GND*%
X108460000Y-117540000D03*
%TO.P,J6,5,Pin_5*%
%TO.N,+5V*%
X105920000Y-115000000D03*
%TO.P,J6,6,Pin_6*%
%TO.N,GND*%
X105920000Y-117540000D03*
%TO.P,J6,7,Pin_7*%
%TO.N,+5V*%
X103380000Y-115000000D03*
%TO.P,J6,8,Pin_8*%
%TO.N,GND*%
X103380000Y-117540000D03*
%TO.P,J6,9,Pin_9*%
%TO.N,POWER_5V_ENABLE*%
X100840000Y-115000000D03*
%TO.P,J6,10,Pin_10*%
%TO.N,GND*%
X100840000Y-117540000D03*
%TO.P,J6,11,Pin_11*%
%TO.N,+BATT*%
X98300000Y-115000000D03*
%TO.P,J6,12,Pin_12*%
%TO.N,GND*%
X98300000Y-117540000D03*
%TO.P,J6,13,Pin_13*%
%TO.N,VBUS*%
X95760000Y-115000000D03*
%TO.P,J6,14,Pin_14*%
%TO.N,GND*%
X95760000Y-117540000D03*
%TD*%
D12*
%TO.P,F1,1*%
%TO.N,/BATT1-*%
X43600000Y-112100000D03*
%TO.P,F1,2*%
%TO.N,-BATT*%
X43600000Y-114900000D03*
%TD*%
D13*
%TO.P,J1,1,VBUS*%
%TO.N,VBUS*%
X23815464Y-73912500D03*
%TO.P,J1,2,D-*%
%TO.N,unconnected-(J1-D--Pad2)*%
X23815464Y-74562500D03*
%TO.P,J1,3,D+*%
%TO.N,unconnected-(J1-D+-Pad3)*%
X23815464Y-75212500D03*
%TO.P,J1,4,ID*%
%TO.N,unconnected-(J1-ID-Pad4)*%
X23815464Y-75862500D03*
%TO.P,J1,5,GND*%
%TO.N,GND*%
X23815464Y-76512500D03*
D14*
%TO.P,J1,6,Shield*%
%TO.N,/USB_SHIELD*%
X21155464Y-71837500D03*
D15*
X23730464Y-72725000D03*
D16*
X21155464Y-74062500D03*
D17*
X21155464Y-76762500D03*
D15*
X23730464Y-77700000D03*
D14*
X21155464Y-78587500D03*
%TD*%
D18*
%TO.P,J2,A5,CC1*%
%TO.N,Net-(J2-CC1)*%
X26340464Y-60762500D03*
D19*
%TO.P,J2,A9,VBUS*%
%TO.N,VBUS*%
X26340464Y-62782500D03*
D20*
%TO.P,J2,A12,GND*%
%TO.N,GND*%
X26340464Y-64012500D03*
D18*
%TO.P,J2,B5,CC2*%
%TO.N,Net-(J2-CC2)*%
X26340464Y-61762500D03*
D19*
%TO.P,J2,B9,VBUS*%
%TO.N,VBUS*%
X26340464Y-59742500D03*
D20*
%TO.P,J2,B12,GND*%
%TO.N,GND*%
X26340464Y-58512500D03*
D21*
%TO.P,J2,S1,SHIELD*%
%TO.N,/USB_SHIELD*%
X26285464Y-56137500D03*
D22*
X22705464Y-56137500D03*
D21*
X26285464Y-66387500D03*
D22*
X22705464Y-66387500D03*
%TD*%
D23*
%TO.P,SW1,*%
%TO.N,*%
X21917500Y-44322500D03*
X21917500Y-49402500D03*
D24*
%TO.P,SW1,1,A*%
%TO.N,/BATT_SW*%
X26997500Y-44322500D03*
D23*
%TO.P,SW1,2,B*%
%TO.N,+BATT*%
X26997500Y-46862500D03*
%TO.P,SW1,3,C*%
%TO.N,unconnected-(SW1-C-Pad3)*%
X26997500Y-49402500D03*
%TD*%
D25*
%TO.P,B1,1,+*%
%TO.N,/BATT_BARE*%
X38750000Y-30670000D03*
%TO.P,B1,2,-*%
%TO.N,/BATT1-*%
X38750000Y-109330000D03*
%TD*%
D26*
%TO.P,JP1,1,1*%
%TO.N,/BATT_BARE*%
X33450000Y-24600000D03*
D27*
%TO.P,JP1,2,2*%
%TO.N,/BATT_SW*%
X32150000Y-24600000D03*
%TD*%
D25*
%TO.P,B2,1,+*%
%TO.N,/BATT_BARE*%
X62750000Y-30670000D03*
%TO.P,B2,2,-*%
%TO.N,/BATT2-*%
X62750000Y-109330000D03*
%TD*%
D12*
%TO.P,F2,1*%
%TO.N,/BATT2-*%
X57800000Y-111800000D03*
%TO.P,F2,2*%
%TO.N,-BATT*%
X57800000Y-114600000D03*
%TD*%
%TO.P,F3,1*%
%TO.N,/BATT3-*%
X81800000Y-111800000D03*
%TO.P,F3,2*%
%TO.N,-BATT*%
X81800000Y-114600000D03*
%TD*%
D25*
%TO.P,B3,1,+*%
%TO.N,/BATT_BARE*%
X86750000Y-30670000D03*
%TO.P,B3,2,-*%
%TO.N,/BATT3-*%
X86750000Y-109330000D03*
%TD*%
D28*
%TO.P,D7,1,K*%
%TO.N,Net-(D6-K)*%
X23102500Y-96587500D03*
D29*
%TO.P,D7,2,A*%
%TO.N,VBUS*%
X23102500Y-99127500D03*
%TD*%
D28*
%TO.P,D5,1,K*%
%TO.N,Net-(D4-K)*%
X23102500Y-86550000D03*
D29*
%TO.P,D5,2,A*%
%TO.N,VBUS*%
X23102500Y-89090000D03*
%TD*%
D30*
%TO.P,C1,1*%
%TO.N,/USB_SHIELD*%
X22650000Y-69200000D03*
%TO.P,C1,2*%
%TO.N,GND*%
X24550000Y-69200000D03*
%TD*%
D31*
%TO.P,D1,1,A1*%
%TO.N,GND*%
X26600000Y-70950000D03*
%TO.P,D1,2,A2*%
%TO.N,VBUS*%
X26600000Y-73450000D03*
%TD*%
D10*
%TO.P,J3,1,Pin_1*%
%TO.N,/BATT_SW*%
X31460000Y-22800000D03*
D11*
%TO.P,J3,2,Pin_2*%
%TO.N,/BATT_BARE*%
X34000000Y-22800000D03*
%TD*%
D32*
%TO.P,TS11,1,1*%
%TO.N,/5V_REG*%
X89600000Y-97200000D03*
%TD*%
%TO.P,TS12,1,1*%
%TO.N,GND*%
X74800000Y-106000000D03*
%TD*%
%TO.P,TS2,1,1*%
%TO.N,/3V3_LTC_SW2*%
X69400000Y-75000000D03*
%TD*%
%TO.P,TS14,1,1*%
%TO.N,GND*%
X73400000Y-61200000D03*
%TD*%
%TO.P,TS6,1,1*%
%TO.N,/5V_SW*%
X59600000Y-93200000D03*
%TD*%
%TO.P,TS5,1,1*%
%TO.N,/3V3_FILTER*%
X74800000Y-83200000D03*
%TD*%
%TO.P,TS4,1,1*%
%TO.N,/BATT_3V3_FILTER*%
X69800000Y-58600000D03*
%TD*%
%TO.P,TS9,1,1*%
%TO.N,/5V_IN*%
X50600000Y-88400000D03*
%TD*%
%TO.P,TP6,1,1*%
%TO.N,/T12.5*%
X109750000Y-88750000D03*
%TD*%
%TO.P,TP2,1,1*%
%TO.N,+5V*%
X100000000Y-101400000D03*
%TD*%
%TO.P,TP5,1,1*%
%TO.N,/T25*%
X109750000Y-92750000D03*
%TD*%
%TO.P,TS9,1,1*%
%TO.N,/5V_IN*%
X50600000Y-88400000D03*
%TD*%
%TO.P,TS15,1,1*%
%TO.N,GND*%
X74800000Y-75600000D03*
%TD*%
%TO.P,TS8,1,1*%
%TO.N,/5V5_FILTERED*%
X74800000Y-97200000D03*
%TD*%
%TO.P,TS10,1,1*%
%TO.N,GND*%
X74800000Y-92000000D03*
%TD*%
%TO.P,TS1,1,1*%
%TO.N,/3V3_LTC_SW1*%
X69800000Y-63200000D03*
%TD*%
%TO.P,TS13,1,1*%
%TO.N,/3V3_REG*%
X91200000Y-83400000D03*
%TD*%
%TO.P,TP3,1,1*%
%TO.N,/T100*%
X109750000Y-100750000D03*
%TD*%
D10*
%TO.P,J5,1,Pin_1*%
%TO.N,+5V*%
X98400000Y-108740000D03*
D11*
%TO.P,J5,2,Pin_2*%
%TO.N,/5V_REG*%
X98400000Y-106200000D03*
%TD*%
D32*
%TO.P,TS3,1,1*%
%TO.N,/3V7_NOT_REG*%
X72200000Y-78200000D03*
%TD*%
%TO.P,TP4,1,1*%
%TO.N,/T50*%
X109750000Y-96750000D03*
%TD*%
%TO.P,TS7,1,1*%
%TO.N,/5V5_NOT_REG*%
X64400000Y-98000000D03*
%TD*%
D10*
%TO.P,J4,1,Pin_1*%
%TO.N,+3V3*%
X98400000Y-85940000D03*
D11*
%TO.P,J4,2,Pin_2*%
%TO.N,/3V3_REG*%
X98400000Y-83400000D03*
%TD*%
D32*
%TO.P,TP1,1,1*%
%TO.N,+3V3*%
X99400000Y-89800000D03*
%TD*%
D33*
%TO.N,-BATT*%
X37000000Y-114800000D03*
%TO.N,GND*%
X20889154Y-62262500D03*
D34*
X49075000Y-81200000D03*
X41450000Y-61400000D03*
D33*
X62800000Y-75100000D03*
D34*
X87137500Y-35200000D03*
X58600000Y-102250000D03*
X49000000Y-61400000D03*
D33*
X59600000Y-35400000D03*
X42800000Y-107150000D03*
X71000000Y-103800000D03*
D34*
X84200000Y-39800000D03*
X85137500Y-35200000D03*
D33*
X43200000Y-61400000D03*
X71000000Y-89400000D03*
D34*
X83827500Y-92300000D03*
D33*
X27705464Y-58412500D03*
D34*
X83787500Y-68450000D03*
D33*
X97200000Y-101000000D03*
D34*
X82137500Y-35393750D03*
D33*
X90200000Y-103800000D03*
D34*
X53650000Y-69700000D03*
D33*
X34600000Y-112550000D03*
D34*
X52900000Y-29250000D03*
D33*
X62800000Y-73300000D03*
D34*
X83827500Y-82800000D03*
X76800000Y-103700000D03*
D33*
X34600000Y-111550000D03*
X25400000Y-69182864D03*
D34*
X76800000Y-89000000D03*
D33*
X97400000Y-91200000D03*
D34*
X83787500Y-71375500D03*
D33*
X62800000Y-71500000D03*
D34*
X119000000Y-100750000D03*
X87000000Y-104400000D03*
X31400000Y-88800000D03*
D33*
X26600000Y-70000000D03*
X20889154Y-60262500D03*
D34*
X83787500Y-76450000D03*
X60100000Y-104125000D03*
X119000000Y-96750000D03*
X53650000Y-71500000D03*
X84027500Y-97500000D03*
X83787500Y-66200000D03*
X69112500Y-103700000D03*
X63550000Y-70300000D03*
X41537500Y-81200000D03*
X53650000Y-67900000D03*
D33*
X65600000Y-60200000D03*
D34*
X58200000Y-61200000D03*
X88287500Y-72200000D03*
D33*
X29800000Y-106350000D03*
D34*
X88627500Y-90300000D03*
X25355464Y-76462500D03*
X119000000Y-88750000D03*
X53600000Y-73300000D03*
X88037500Y-69950000D03*
X63975000Y-104125000D03*
X119000000Y-92750000D03*
X49475000Y-104900000D03*
X63300000Y-59550000D03*
X69250000Y-88950000D03*
X79127500Y-90300000D03*
D33*
X61400000Y-57600000D03*
D34*
X61725000Y-104125000D03*
X79277500Y-105000000D03*
D33*
X27705464Y-64012500D03*
D34*
X83787500Y-74200000D03*
D33*
X43200000Y-81200000D03*
X62800000Y-76900000D03*
%TO.N,/BATT_3V3_FILTER*%
X57200000Y-68800000D03*
X56400000Y-58600000D03*
%TO.N,VBUS*%
X29105464Y-54837500D03*
%TO.N,POWER_5V_ENABLE*%
X67400000Y-105800000D03*
X55600000Y-103250000D03*
X58350000Y-104500000D03*
%TO.N,/CHRG_ACPR*%
X38000000Y-54000000D03*
X54500000Y-38000000D03*
%TO.N,/CHRG_CHRG*%
X55224500Y-36675000D03*
X80779257Y-35141757D03*
X39000000Y-55000000D03*
%TO.N,/PROT_DO*%
X29062500Y-110150000D03*
X29062500Y-113550000D03*
%TO.N,Net-(J2-CC1)*%
X24905464Y-60512500D03*
%TO.N,Net-(J2-CC2)*%
X24905464Y-62012500D03*
%TD*%
D35*
%TO.N,/BATT_BARE*%
X86090000Y-28330000D02*
X83750000Y-30670000D01*
X78080000Y-30670000D02*
X62750000Y-30670000D01*
X38750000Y-30670000D02*
X35670000Y-30670000D01*
X35670000Y-30670000D02*
X34000000Y-29000000D01*
X46920000Y-30670000D02*
X62750000Y-30670000D01*
X86750000Y-30670000D02*
X78080000Y-30670000D01*
X34000000Y-29000000D02*
X34000000Y-22800000D01*
X38750000Y-30670000D02*
X46920000Y-30670000D01*
%TO.N,-BATT*%
X37074839Y-114874839D02*
X37000000Y-114800000D01*
X81500000Y-114900000D02*
X44750000Y-114900000D01*
X81800000Y-114600000D02*
X81500000Y-114900000D01*
X44750000Y-114900000D02*
X44724839Y-114874839D01*
X44724839Y-114874839D02*
X37074839Y-114874839D01*
D36*
%TO.N,GND*%
X25400000Y-69182864D02*
X24955464Y-69212500D01*
D37*
X23815464Y-76512500D02*
X25305464Y-76512500D01*
D36*
X26600000Y-70950000D02*
X26600000Y-70000000D01*
X26340464Y-58512500D02*
X27605464Y-58512500D01*
X27605464Y-58512500D02*
X27705464Y-58412500D01*
D38*
X25305464Y-76512500D02*
X25355464Y-76462500D01*
D36*
X26340464Y-64012500D02*
X27705464Y-64012500D01*
%TO.N,/BATT_3V3_FILTER*%
X56400000Y-68000000D02*
X56400000Y-58600000D01*
X56400000Y-68000000D02*
X57200000Y-68800000D01*
D35*
%TO.N,VBUS*%
X29105464Y-54837500D02*
X29105464Y-59612500D01*
D36*
X26340464Y-59742500D02*
X28975464Y-59742500D01*
D35*
X27705464Y-74012500D02*
X25305464Y-74012500D01*
D36*
X25800000Y-82400000D02*
X27705464Y-80494536D01*
D35*
X29105464Y-62812500D02*
X29105464Y-69000000D01*
X29105464Y-69000000D02*
X29105464Y-72600000D01*
D36*
X29075464Y-62782500D02*
X29105464Y-62812500D01*
X21250000Y-89800000D02*
X21250000Y-84350000D01*
X23200000Y-82400000D02*
X25800000Y-82400000D01*
D35*
X29105464Y-72600000D02*
X27705464Y-74000000D01*
D36*
X21250000Y-98500000D02*
X21250000Y-89250000D01*
D35*
X27705464Y-74000000D02*
X27705464Y-74012500D01*
X29105464Y-62812500D02*
X29105464Y-59612500D01*
D36*
X21250000Y-84350000D02*
X23200000Y-82400000D01*
X21877500Y-99127500D02*
X21250000Y-98500000D01*
X22952500Y-99127500D02*
X21877500Y-99127500D01*
X25305464Y-74012500D02*
X25305464Y-73912500D01*
X27705464Y-80494536D02*
X27705464Y-74012500D01*
X22952500Y-89090000D02*
X21290000Y-89090000D01*
X26340464Y-62782500D02*
X29075464Y-62782500D01*
D37*
X23815464Y-73912500D02*
X24885464Y-73912500D01*
D36*
X28975464Y-59742500D02*
X29105464Y-59612500D01*
D38*
%TO.N,POWER_5V_ENABLE*%
X58850000Y-105000000D02*
X58350000Y-104500000D01*
X55600000Y-103250000D02*
X56850000Y-104500000D01*
X67400000Y-105800000D02*
X66600000Y-105000000D01*
X56850000Y-104500000D02*
X58350000Y-104500000D01*
X66600000Y-105000000D02*
X58850000Y-105000000D01*
D35*
%TO.N,/BATT1-*%
X42930000Y-109330000D02*
X43600000Y-110000000D01*
X43600000Y-110000000D02*
X43600000Y-112100000D01*
X38750000Y-109330000D02*
X42930000Y-109330000D01*
%TO.N,/BATT2-*%
X57800000Y-110000000D02*
X57800000Y-111800000D01*
X62750000Y-109330000D02*
X58470000Y-109330000D01*
X58470000Y-109330000D02*
X57800000Y-110000000D01*
%TO.N,/BATT3-*%
X82270000Y-109330000D02*
X81800000Y-109800000D01*
X81800000Y-109800000D02*
X81800000Y-111800000D01*
X86750000Y-109330000D02*
X82270000Y-109330000D01*
%TO.N,/BATT_SW*%
X31460000Y-22800000D02*
X31460000Y-34940000D01*
X26997500Y-39402500D02*
X26997500Y-44322500D01*
X31460000Y-34940000D02*
X26997500Y-39402500D01*
D38*
%TO.N,/CHRG_ACPR*%
X54500000Y-38100000D02*
X54500000Y-38000000D01*
X38600000Y-54000000D02*
X54500000Y-38100000D01*
X38000000Y-54000000D02*
X38600000Y-54000000D01*
%TO.N,/CHRG_CHRG*%
X39000000Y-55000000D02*
X39000000Y-54800000D01*
X55225000Y-36675500D02*
X55224500Y-36675000D01*
X80779257Y-35970743D02*
X79250000Y-37500000D01*
X39000000Y-54800000D02*
X55225000Y-38575000D01*
X80779257Y-35141757D02*
X80779257Y-35970743D01*
X79250000Y-37500000D02*
X55225000Y-37500000D01*
X55225000Y-37500000D02*
X55225000Y-36675500D01*
X55225000Y-38575000D02*
X55225000Y-37500000D01*
%TO.N,/PROT_DO*%
X29100000Y-113500000D02*
X29100000Y-110100000D01*
%TO.N,Net-(J2-CC1)*%
X26340464Y-60762500D02*
X25155464Y-60762500D01*
X25155464Y-60762500D02*
X24905464Y-60512500D01*
%TO.N,Net-(J2-CC2)*%
X25155464Y-61762500D02*
X24905464Y-62012500D01*
X26340464Y-61762500D02*
X25155464Y-61762500D01*
%TD*%
%TA.AperFunction,Conductor*%
%TO.N,/USB_SHIELD*%
G36*
X27097585Y-54907502D02*
G01*
X27144078Y-54961158D01*
X27155464Y-55013500D01*
X27155464Y-57261500D01*
X27135462Y-57329621D01*
X27081806Y-57376114D01*
X27029464Y-57387500D01*
X25105463Y-57387500D01*
X24705464Y-57812499D01*
X24705464Y-59525424D01*
X24685462Y-59593545D01*
X24631806Y-59640038D01*
X24628681Y-59641254D01*
X24448711Y-59721382D01*
X24294208Y-59833635D01*
X24166429Y-59975548D01*
X24166422Y-59975558D01*
X24070940Y-60140938D01*
X24070937Y-60140945D01*
X24011921Y-60322572D01*
X23991960Y-60512500D01*
X24011921Y-60702427D01*
X24041990Y-60794970D01*
X24070937Y-60884056D01*
X24070940Y-60884061D01*
X24166422Y-61049441D01*
X24166429Y-61049451D01*
X24282346Y-61178190D01*
X24313064Y-61242197D01*
X24304299Y-61312651D01*
X24282346Y-61346810D01*
X24166429Y-61475548D01*
X24166422Y-61475558D01*
X24070940Y-61640938D01*
X24070937Y-61640945D01*
X24011921Y-61822572D01*
X23991960Y-62012500D01*
X24011921Y-62202427D01*
X24035573Y-62275219D01*
X24070937Y-62384056D01*
X24099305Y-62433191D01*
X24166422Y-62549441D01*
X24166429Y-62549451D01*
X24294208Y-62691364D01*
X24294211Y-62691366D01*
X24448712Y-62803618D01*
X24578963Y-62861609D01*
X24629209Y-62883980D01*
X24628128Y-62886406D01*
X24676973Y-62919776D01*
X24704637Y-62985161D01*
X24705464Y-62999575D01*
X24705464Y-64612500D01*
X25155464Y-65137500D01*
X27029464Y-65137500D01*
X27097585Y-65157502D01*
X27144078Y-65211158D01*
X27155464Y-65263500D01*
X27155464Y-67286500D01*
X27135462Y-67354621D01*
X27081806Y-67401114D01*
X27029464Y-67412500D01*
X24655464Y-67412500D01*
X24655464Y-67840500D01*
X24635462Y-67908621D01*
X24581806Y-67955114D01*
X24529464Y-67966500D01*
X24249455Y-67966500D01*
X24145574Y-67977112D01*
X23977261Y-68032885D01*
X23826347Y-68125970D01*
X23826341Y-68125975D01*
X23700975Y-68251341D01*
X23700970Y-68251347D01*
X23607885Y-68402262D01*
X23552113Y-68570572D01*
X23552112Y-68570579D01*
X23541500Y-68674446D01*
X23541500Y-69725544D01*
X23552112Y-69829425D01*
X23607885Y-69997738D01*
X23700970Y-70148652D01*
X23700975Y-70148658D01*
X23826341Y-70274024D01*
X23826347Y-70274029D01*
X23826348Y-70274030D01*
X23977262Y-70367115D01*
X24145574Y-70422887D01*
X24249455Y-70433500D01*
X24529465Y-70433499D01*
X24597584Y-70453501D01*
X24644077Y-70507156D01*
X24655464Y-70559499D01*
X24655464Y-73052248D01*
X24635462Y-73120369D01*
X24607415Y-73151241D01*
X24606460Y-73151993D01*
X24540566Y-73178422D01*
X24528509Y-73179000D01*
X23076814Y-73179000D01*
X23016267Y-73185509D01*
X23016259Y-73185511D01*
X22898177Y-73229555D01*
X22854144Y-73237500D01*
X22405464Y-73237500D01*
X22405464Y-78362500D01*
X24529464Y-78362500D01*
X24597585Y-78382502D01*
X24644078Y-78436158D01*
X24655464Y-78488500D01*
X24655464Y-79210310D01*
X24635462Y-79278431D01*
X24618559Y-79299405D01*
X23442369Y-80475595D01*
X23380057Y-80509621D01*
X23353274Y-80512500D01*
X20281464Y-80512500D01*
X20213343Y-80492498D01*
X20166850Y-80438842D01*
X20155464Y-80386500D01*
X20155464Y-63099699D01*
X20175466Y-63031578D01*
X20229122Y-62985085D01*
X20299396Y-62974981D01*
X20355523Y-62997762D01*
X20432402Y-63053618D01*
X20606866Y-63131294D01*
X20793667Y-63171000D01*
X20984641Y-63171000D01*
X21171442Y-63131294D01*
X21345906Y-63053618D01*
X21500407Y-62941366D01*
X21554496Y-62881294D01*
X21628188Y-62799451D01*
X21628189Y-62799449D01*
X21628194Y-62799444D01*
X21723681Y-62634056D01*
X21782696Y-62452428D01*
X21802658Y-62262500D01*
X21782696Y-62072572D01*
X21723681Y-61890944D01*
X21628194Y-61725556D01*
X21628192Y-61725554D01*
X21628188Y-61725548D01*
X21500409Y-61583635D01*
X21345906Y-61471382D01*
X21171442Y-61393706D01*
X21133996Y-61385746D01*
X21071524Y-61352019D01*
X21037202Y-61289869D01*
X21041930Y-61219030D01*
X21084206Y-61161993D01*
X21133996Y-61139253D01*
X21171442Y-61131294D01*
X21345906Y-61053618D01*
X21500407Y-60941366D01*
X21628194Y-60799444D01*
X21723681Y-60634056D01*
X21782696Y-60452428D01*
X21802658Y-60262500D01*
X21782696Y-60072572D01*
X21723681Y-59890944D01*
X21628194Y-59725556D01*
X21628192Y-59725554D01*
X21628188Y-59725548D01*
X21500409Y-59583635D01*
X21345906Y-59471382D01*
X21171442Y-59393706D01*
X20984641Y-59354000D01*
X20793667Y-59354000D01*
X20606865Y-59393706D01*
X20432400Y-59471383D01*
X20432397Y-59471384D01*
X20355524Y-59527236D01*
X20288657Y-59551095D01*
X20219505Y-59535014D01*
X20170025Y-59484100D01*
X20155464Y-59425300D01*
X20155464Y-55013500D01*
X20175466Y-54945379D01*
X20229122Y-54898886D01*
X20281464Y-54887500D01*
X27029464Y-54887500D01*
X27097585Y-54907502D01*
G37*
%TD.AperFunction*%
%TD*%
D39*
X37000000Y-114800000D03*
X20889154Y-62262500D03*
X49075000Y-81200000D03*
X41450000Y-61400000D03*
X62800000Y-75100000D03*
X87137500Y-35200000D03*
X58600000Y-102250000D03*
X49000000Y-61400000D03*
X59600000Y-35400000D03*
X42800000Y-107150000D03*
X71000000Y-103800000D03*
X84200000Y-39800000D03*
X85137500Y-35200000D03*
X43200000Y-61400000D03*
X71000000Y-89400000D03*
X83827500Y-92300000D03*
X27705464Y-58412500D03*
X83787500Y-68450000D03*
X97200000Y-101000000D03*
X82137500Y-35393750D03*
X90200000Y-103800000D03*
X53650000Y-69700000D03*
X34600000Y-112550000D03*
X52900000Y-29250000D03*
X62800000Y-73300000D03*
X83827500Y-82800000D03*
X76800000Y-103700000D03*
X34600000Y-111550000D03*
X25400000Y-69182864D03*
X76800000Y-89000000D03*
X97400000Y-91200000D03*
X83787500Y-71375500D03*
X62800000Y-71500000D03*
X119000000Y-100750000D03*
X87000000Y-104400000D03*
X31400000Y-88800000D03*
X26600000Y-70000000D03*
X20889154Y-60262500D03*
X83787500Y-76450000D03*
X60100000Y-104125000D03*
X119000000Y-96750000D03*
X53650000Y-71500000D03*
X84027500Y-97500000D03*
X83787500Y-66200000D03*
X69112500Y-103700000D03*
X63550000Y-70300000D03*
X41537500Y-81200000D03*
X53650000Y-67900000D03*
X65600000Y-60200000D03*
X58200000Y-61200000D03*
X88287500Y-72200000D03*
X29800000Y-106350000D03*
X88627500Y-90300000D03*
X25355464Y-76462500D03*
X119000000Y-88750000D03*
X53600000Y-73300000D03*
X88037500Y-69950000D03*
X63975000Y-104125000D03*
X119000000Y-92750000D03*
X49475000Y-104900000D03*
X63300000Y-59550000D03*
X69250000Y-88950000D03*
X79127500Y-90300000D03*
X61400000Y-57600000D03*
X61725000Y-104125000D03*
X79277500Y-105000000D03*
X27705464Y-64012500D03*
X83787500Y-74200000D03*
X43200000Y-81200000D03*
X62800000Y-76900000D03*
X57200000Y-68800000D03*
X56400000Y-58600000D03*
X29105464Y-54837500D03*
X67400000Y-105800000D03*
X55600000Y-103250000D03*
X58350000Y-104500000D03*
X38000000Y-54000000D03*
X54500000Y-38000000D03*
X55224500Y-36675000D03*
X80779257Y-35141757D03*
X39000000Y-55000000D03*
X29062500Y-110150000D03*
X29062500Y-113550000D03*
X24905464Y-60512500D03*
X24905464Y-62012500D03*
X111000000Y-115000000D03*
X111000000Y-117540000D03*
X108460000Y-115000000D03*
X108460000Y-117540000D03*
X105920000Y-115000000D03*
X105920000Y-117540000D03*
X103380000Y-115000000D03*
X103380000Y-117540000D03*
X100840000Y-115000000D03*
X100840000Y-117540000D03*
X98300000Y-115000000D03*
X98300000Y-117540000D03*
X95760000Y-115000000D03*
X95760000Y-117540000D03*
X24000000Y-116000000D03*
X21917500Y-44322500D03*
X21917500Y-49402500D03*
X26997500Y-44322500D03*
X26997500Y-46862500D03*
X26997500Y-49402500D03*
X46750000Y-34070000D03*
X30750000Y-42400000D03*
X46750000Y-97600000D03*
X118000000Y-116000000D03*
X70750000Y-34070000D03*
X54750000Y-42400000D03*
X70750000Y-97600000D03*
X118000000Y-24000000D03*
X94750000Y-34070000D03*
X78750000Y-42400000D03*
X94750000Y-97600000D03*
X23102500Y-96587500D03*
X23102500Y-99127500D03*
X23102500Y-86550000D03*
X23102500Y-89090000D03*
X24000000Y-24000000D03*
X31460000Y-22800000D03*
X34000000Y-22800000D03*
X89600000Y-97200000D03*
X74800000Y-106000000D03*
X69400000Y-75000000D03*
X73400000Y-61200000D03*
X59600000Y-93200000D03*
X74800000Y-83200000D03*
X69800000Y-58600000D03*
X50600000Y-88400000D03*
X109750000Y-88750000D03*
X100000000Y-101400000D03*
X109750000Y-92750000D03*
X50600000Y-88400000D03*
X74800000Y-75600000D03*
X74800000Y-97200000D03*
X74800000Y-92000000D03*
X69800000Y-63200000D03*
X91200000Y-83400000D03*
X109750000Y-100750000D03*
X98400000Y-108740000D03*
X98400000Y-106200000D03*
X72200000Y-78200000D03*
X109750000Y-96750000D03*
X64400000Y-98000000D03*
X98400000Y-85940000D03*
X98400000Y-83400000D03*
X99400000Y-89800000D03*
M02*
